<?xml version="1.0" standalone="no"?>
<!DOCTYPE svg PUBLIC "-//W3C//DTD SVG 1.1//EN" "http://www.w3.org/Graphics/SVG/1.1/DTD/svg11.dtd" >
<svg xmlns="http://www.w3.org/2000/svg" xmlns:xlink="http://www.w3.org/1999/xlink" version="1.1">
<metadata></metadata>
<defs>
<font id="cantate_beveledregular" horiz-adv-x="1138" >
<font-face units-per-em="2048" ascent="1536" descent="-512" />
<missing-glyph horiz-adv-x="1380" />
<glyph horiz-adv-x="0" />
<glyph horiz-adv-x="682" />
<glyph unicode=" "  horiz-adv-x="1380" />
<glyph unicode="&#x09;" horiz-adv-x="1380" />
<glyph unicode="&#xa0;" horiz-adv-x="1380" />
<glyph unicode="!" horiz-adv-x="401" />
<glyph unicode="&#x22;" horiz-adv-x="569" />
<glyph unicode="#" horiz-adv-x="1056" />
<glyph unicode="$" horiz-adv-x="1480" d="M37 340q0 101 47 194.5t123 158.5t173 104t195 39q79 0 150 -29.5t115 -85.5q8 13 25.5 36t25.5 36q-4 32 -4 55q0 116 80.5 212.5t195.5 113.5q59 8 118 -8.5t101 -55.5q45 -45 45 -106q0 -58 -38 -95t-97 -37q-12 0 -37 5q-20 -28 -54 -77.5t-46 -66.5q72 -129 72 -221 q0 -90 -35.5 -170.5t-95 -140.5t-137.5 -107.5t-162.5 -77t-171.5 -43.5h-35q-50 -4 -84 -4q-52 0 -92 6h-27q-15 0 -25 13q-141 32 -233 122t-92 230zM51 356q0 -132 93 -216t231 -111l-4 -6h30q54 -7 88 -7q28 0 82 4h33v5q105 15 204.5 55t184 101.5t136 151.5t51.5 195 q0 55 -19.5 106.5t-56.5 117.5l123 178q17 -10 49 -10q45 0 74.5 28t29.5 72q0 50 -34 84q-75 69 -195 55q-103 -15 -176.5 -102.5t-73.5 -192.5q0 -29 6 -59l-84 -123q-35 66 -108 102.5t-156 36.5q-125 0 -241.5 -60.5t-191.5 -169t-75 -235.5zM94 285v39q0 91 46.5 176 t120 144t164.5 94.5t179 35.5q68 0 122 -32.5t77 -88.5l-277 -403q-60 -17 -100 -17h-35q-78 14 -78 105q0 101 79.5 174.5t182.5 73.5q13 0 36 -3t36 -3v28q0 6 -57 6q-73 0 -142.5 -29.5t-118 -90t-48.5 -136.5q0 -79 47.5 -120t128.5 -41q22 0 32 2l-94 -140 q-112 15 -195.5 71.5t-105.5 154.5zM141 274q19 -85 89 -134t169 -64q33 47 50 74q-86 6 -134.5 55t-48.5 137q0 85 53 152.5t131 101t160 33.5q1 0 15 1t23 0t21 -4t18.5 -11.5t6.5 -22.5v-29q0 -12 -9 -21.5t-21 -9.5q-23 0 -41 3q-24 4 -31 4q-91 0 -161.5 -64 t-70.5 -153q0 -59 54 -74h28q32 0 80 10q45 66 131 190.5t131 190.5q-45 88 -163 88q-82 0 -168 -33t-155 -88t-113 -134.5t-44 -164.5v-33zM432 53l105 152q129 28 219 131.5t90 232.5v45q-4 22 -8 29l77 115l41 -162l-366 -535q-49 -8 -113 -8h-45zM506 68q38 0 82 6 q79 116 86 127q-56 -30 -105 -41q-3 -4 -26 -39t-37 -53zM584 272l231 338q0 -4 1 -13t1 -13q0 -93 -68 -179t-165 -133zM637 72l332 481l12 -41q2 -10 2 -74q0 -71 -28.5 -133t-77.5 -107t-109.5 -76.5t-130.5 -49.5zM733 115q102 47 169 126.5t67 180.5v37 q-21 -31 -100.5 -147.5t-135.5 -196.5zM887 625q2 -5 6 -21v-51q0 -31 -2 -45l49 74q-5 25 -11 45t-11 43q-4 -5 -14 -20.5t-17 -24.5zM1026 977v2q0 57 28.5 99t78.5 55q-14 -20 -50 -73.5t-57 -82.5zM1030 924l148 215q25 0 54.5 -8.5t29.5 -28.5v-2q-82 -28 -82 -88 q0 -42 20 -62l-113 -166q-45 81 -57 140zM1079 903q9 -42 27 -76q7 10 33.5 47t40.5 58q-15 30 -15 63q0 27 9 45q-77 -109 -95 -137zM1190 1067q13 13 31 25h-13z" />
<glyph unicode="%" horiz-adv-x="1107" d="M68 799q0 102 58.5 193t153 144.5t195.5 53.5h25q30 -2 66.5 -23t39.5 -55q0 -23 -16 -29q-8 -4 -12 -4q24 -35 24 -92q0 -44 -20 -102q2 1 7 -0.5t7 -1.5q2 -2 6 -2l158 297q13 12 31 12q24 0 77.5 -22t53.5 -46q0 -1 -1 -6t-1 -6l-588 -1108l4 14q0 -1 -2 -3t-2 -3 q0 -15 -12 -24t-27 -6q-80 20 -113 36l-8 15q-8 17 -2 30l393 744q-4 2 -12 10q-137 -231 -303 -231q-90 0 -135 62t-45 153zM82 815q0 -77 37.5 -130.5t111.5 -53.5q161 0 293 243q19 -15 62 -34q6 4 6 16q0 5 -30 16.5t-30 24.5v2q23 67 23 105q0 17 -2.5 34t-13 34.5 t-27.5 17.5q-25 0 -37 -25t-12 -55q0 -62 45 -117v-4q0 -7 -25 -49q-25 -38 -47.5 -66.5t-55 -59.5t-70.5 -48t-79 -17q-63 0 -63 66q0 68 47.5 171t123 184t142.5 81h15q7 -1 21.5 -8t26.5 -13t15 -4l2 4q-3 18 -31 31t-49 15h-22q-93 0 -180 -49.5t-142 -133.5t-55 -178z M180 63q4 -6 6 -8q6 -4 31 -11t47 -12l21 -5l4 6l583 1100q1 3 3 6t2 4q-1 11 -43.5 22t-59.5 11h-2l-6 -5zM215 698q0 -34 33 -34q100 0 225 176q2 4 7 10t8.5 10.5t3.5 7.5q-43 56 -43 125q0 36 15.5 68.5t47.5 40.5l-2 2h-12q-60 0 -128.5 -75.5t-111.5 -171.5t-43 -159z M473 174q0 102 59 193t153.5 144.5t195.5 53.5h24q30 -2 67 -23t40 -55q0 -21 -17 -28q-8 -4 -12 -4q25 -36 25 -93q0 -41 -21 -102q2 1 6.5 -0.5t7.5 -1.5q15 -6 21 -9t14 -12t8 -22q0 -27 -20 -41q-14 -9 -29 -4q-7 3 -13 5t-8 3t-6.5 3.5t-11.5 8.5q-137 -231 -303 -231 q-90 0 -135 62t-45 153zM483 1012q0 57 27 57q25 0 25 -70q0 -43 -19 -86q-16 11 -24.5 42.5t-8.5 56.5zM487 190q0 -76 38 -130t112 -54q161 0 293 244q23 -19 61 -35q6 4 6 16q0 5 -29.5 16.5t-29.5 24.5v2q23 67 23 105q0 17 -2.5 34t-13 34.5t-27.5 17.5 q-25 0 -37.5 -25t-12.5 -55q0 -62 45 -117v-4q0 -9 -24 -49q-25 -38 -47.5 -66.5t-55 -59t-70.5 -47.5t-79 -17q-64 0 -64 65q0 68 47.5 171t123.5 184t143 81h14q7 -1 22 -8t27 -12.5t15 -3.5l2 4q-3 18 -30.5 30.5t-49.5 14.5h-23q-93 0 -180 -49.5t-142 -133.5t-55 -178z M621 74q0 -35 32 -35q101 0 226 176q2 4 7 10.5t8 11t3 7.5q-43 56 -43 125q0 36 16 68t48 40l-3 2h-12q-60 0 -128.5 -75.5t-111 -171t-42.5 -158.5zM889 387q0 57 26 57q25 0 25 -69q0 -45 -18 -86q-16 11 -24.5 42t-8.5 56z" />
<glyph unicode="&#x26;" horiz-adv-x="1275" d="M33 236q0 51 17 98.5t44 85t68 73t80.5 61t90.5 51t89.5 41.5t85.5 34q-1 5 -3.5 17t-2.5 14q-8 36 -8 65q0 98 59 192.5t153.5 153t192.5 58.5h37q63 -19 101 -64t38 -108q0 -167 -307 -340q66 -128 190 -367q76 76 76 107q0 4 -1 7t-3 6t-3.5 5t-5.5 4t-6.5 3t-8 3 t-8 3t-9 2.5t-8.5 2.5q-25 7 -39.5 12.5t-31.5 18t-25 33t-8 49.5q0 76 50.5 133.5t125.5 57.5q70 0 114.5 -51.5t44.5 -121.5q0 -67 -34 -140t-72.5 -122t-95.5 -110q71 -160 71 -281q0 -123 -73 -231.5t-188 -171t-236 -62.5q-113 0 -191 68t-78 180q0 41 29 132t64 130 q-49 2 -98.5 12t-100 31.5t-89 51t-63 75t-24.5 99.5zM47 252q0 -62 36.5 -110t94 -74.5t117.5 -40t117 -13.5q208 0 407 113q49 -113 49 -240q0 -142 -79.5 -243t-217.5 -101q-76 0 -130.5 36t-67.5 106v36q0 39 11 74.5t34.5 85.5t32.5 74q0 6 -7.5 12t-15.5 6 q-34 0 -66 -101.5t-32 -150.5q0 -98 68.5 -157.5t168.5 -59.5q114 0 221.5 58t176.5 160t69 217q0 111 -78 286v6q209 204 209 361q0 58 -36 99.5t-93 41.5q-61 0 -103 -48.5t-42 -111.5q0 -31 16.5 -49t39.5 -24.5t46 -12.5t39.5 -21t16.5 -42q0 -23 -25.5 -59t-42 -51.5 t-47.5 -45.5l-221 426v2q0 1 32.5 19t78.5 49.5t92.5 70t79 89.5t32.5 100q0 53 -29.5 89.5t-80.5 51.5h-35q-91 0 -178.5 -53.5t-142 -140.5t-54.5 -178q0 -19 8 -58t8 -59v-4q-65 -23 -118.5 -45t-124 -61.5t-118.5 -81.5t-82 -103.5t-34 -128.5zM285 246q0 54 39.5 141.5 t103 159t119.5 71.5h2l213 -372l39 -78q3 -8 -17 -18l-32 65v-2q-36 61 -102.5 177.5t-102.5 178.5q-48 -12 -100 -77.5t-83.5 -140.5t-31.5 -122q0 -71 50 -110t128 -39q37 0 125 16q-102 -30 -141 -30q-92 0 -150.5 47t-58.5 133zM420 -295v-31q13 -56 59 -86t109 -30 q123 0 194.5 92t71.5 221q0 100 -35 195q-164 -82 -340 -97q19 -19 19 -39q-6 -15 -18.5 -42.5t-14.5 -32.5q-17 -37 -23.5 -52.5t-14 -44t-7.5 -53.5zM635 96h4h-4zM659 872q0 97 56.5 175.5t150.5 78.5q46 0 77.5 -27t31.5 -71q0 -50 -27 -96.5t-75 -85t-87 -62.5t-90 -51 q-37 52 -37 139zM707 856q0 -65 16 -100q238 126 238 256q0 31 -22 49t-56 18q-80 0 -128 -69t-48 -154z" />
<glyph unicode="'" horiz-adv-x="247" d="M4 791h12l4 12v-29z" />
<glyph unicode="(" horiz-adv-x="389" />
<glyph unicode=")" horiz-adv-x="450" d="M74.5 -102.5q1.5 10.5 5.5 14.5q99 131 135 397v-2q10 117 10 199q0 131 -22 266v-2q-42 211 -121 313q-8 12 -4 29l22 62q4 17 20.5 22t29.5 -6q144 -119 212 -352q44 -158 44 -338q0 -63 -7 -152q-19 -174 -83.5 -315.5t-163.5 -218.5q-12 -9 -27 -5.5t-21 17.5l-28 55 q-3 6 -1.5 16.5zM88 -90l29 -55q94 73 156 209.5t79 304.5q6 77 6 147q0 181 -41 330q-65 221 -204 336l-23 -64q41 -53 74.5 -140t52.5 -185q23 -141 23 -271q0 -72 -11 -200v2q-36 -274 -141 -414z" />
<glyph unicode="*" horiz-adv-x="722" d="M59 911q0 12 9.5 21.5t21.5 9.5h105q-63 72 -74 86q-7 9 -6 21t10 20l49 47q9 9 22 8t21 -10l70 -80v107q0 12 9 21t21 9l70 5q12 0 21.5 -9.5t9.5 -21.5v-127l98 86q9 8 22.5 8t20.5 -8l49 -49q9 -9 8 -22.5t-10 -22.5l-76 -68h107q12 0 21.5 -9.5t9.5 -21.5l4 -69 q0 -12 -9.5 -21.5t-21.5 -9.5h-162q14 -16 47.5 -55.5t48.5 -55.5q9 -9 8 -22t-10 -21l-49 -47q-9 -7 -22 -6.5t-21 8.5l-63 74v-88q0 -12 -9.5 -21.5t-21.5 -9.5l-70 -4q-12 0 -21 9.5t-9 21.5v137q-15 -13 -46.5 -39.5t-47.5 -40.5q-9 -7 -22 -7t-21 7l-50 49 q-9 9 -8 22.5t10 22.5l74 66h-82q-12 0 -21.5 8.5t-9.5 20.5zM74 928l4 -70h164l-136 -119l50 -49l145 125v-205l70 4v168l116 -133l50 47l-142 162h230l-4 70h-191l139 121l-49 49l-149 -131v194l-70 -4v-188l-123 141l-49 -47l115 -135h-170z" />
<glyph unicode="+" horiz-adv-x="669" d="M27 705q0 12 9 21t21 9h193v195q0 12 9.5 21.5t21.5 9.5l88 4q12 0 21 -9.5t9 -21.5v-199h213q12 0 21.5 -9t9.5 -21l4 -89q0 -12 -9.5 -21t-21.5 -9h-217v-209q0 -12 -9 -21.5t-21 -9.5l-88 -4q-12 0 -21.5 9.5t-9.5 21.5v213h-189q-12 0 -21 8t-9 20zM41 721l4 -88h219 v-244l88 4v240h248l-4 88h-244v229l-88 -4v-225h-223z" />
<glyph unicode="," horiz-adv-x="217" d="M2 -139l12 18q55 7 101 46.5t61 92.5q2 -4 2 -16q0 -57 -58.5 -100t-117.5 -41z" />
<glyph unicode="-" horiz-adv-x="618" d="M104 584q0 12 9.5 21t21.5 9h344q12 0 21.5 -9t9.5 -21l4 -88q0 -12 -9.5 -21.5t-21.5 -9.5h-344q-12 0 -21 8.5t-9 20.5zM119 600l4 -88h344l-4 88h-344z" />
<glyph unicode="." horiz-adv-x="452" d="M74 131q0 65 43.5 113.5t107.5 48.5t108 -50t44 -112q0 -65 -44 -113.5t-108 -48.5t-107.5 48.5t-43.5 113.5zM88 147q0 -52 35 -91.5t86 -39.5t86 39.5t35 91.5q0 51 -35 91.5t-86 40.5t-86 -40t-35 -92z" />
<glyph unicode="/" horiz-adv-x="794" d="M16 43l596 1126q5 9 16 18t21 9q24 0 78.5 -23t54.5 -47q0 -1 -1 -6t-1 -6l-600 -1130l4 14q0 -1 -2 -3t-2 -3q0 -15 -11 -24.5t-26 -6.5q-83 21 -116 39l-9 12q-9 18 -2 31zM27 45q4 -6 6 -8q6 -4 31 -11t47 -12l22 -6l4 6l596 1123q1 2 2 4.5t1.5 3.5t0.5 2 q-1 11 -44 23t-60 12h-2q-1 0 -3.5 -2t-2.5 -4z" />
<glyph unicode="0" horiz-adv-x="1052" d="M68 317q0 124 58.5 243t152 205.5t216 139.5t244.5 53h43q44 -6 100 -34t64 -66q0 -8 -5.5 -22t-8.5 -17q-27 -14 -76 12q-22 13 -53 25h-25q-81 1 -174 -80t-164 -194.5t-118.5 -235.5t-47.5 -203q0 -38 20.5 -60t59.5 -22q63 0 123.5 27.5t112 78t89.5 98.5t77 110 q19 28 37 63q-76 100 -76 209q0 36 10 71t37 64t67 29q32 0 54 -19.5t32.5 -50t14.5 -56.5t4 -50q0 -21 -4 -48t-7.5 -41.5t-13.5 -51t-12 -43.5q0 1 12 -3.5t25 -9.5q63 -22 63 -55q0 -47 -36 -57q-75 26 -101 45q-222 -402 -510 -402q-96 0 -162 51t-94 127t-28 170z M82 334q0 -133 64.5 -225.5t189.5 -92.5q84 0 162.5 37.5t141 102.5t108.5 131t88 145q53 -41 108 -57q8 2 8 24q0 8 -15.5 16t-34.5 14t-34.5 16t-15.5 22v4q37 121 37 180q0 20 -3 41.5t-10 47t-23 41.5t-38 16q-42 0 -63 -42.5t-21 -90.5q0 -102 78 -201v-6 q0 -1 -8 -17.5t-19 -36.5t-16 -28q-42 -65 -81 -115t-93.5 -102.5t-119.5 -81.5t-134 -29q-54 0 -82.5 30.5t-28.5 82.5q0 85 50.5 212.5t125.5 245t174 202t185 83.5h26q11 -1 36 -13t45.5 -23t23.5 -9q6 6 6 10q-5 29 -53 50.5t-84 25.5h-39q-117 0 -233.5 -50.5 t-206 -132.5t-145.5 -195.5t-56 -231.5zM766 668q0 19 3 37.5t14.5 37.5t31.5 19q37 0 37 -117q0 -82 -29 -147q-28 18 -42.5 71.5t-14.5 98.5zM813 651q0 -49 16 -102q9 41 9 80q0 86 -7 86q-18 0 -18 -64z" />
<glyph unicode="1" horiz-adv-x="806" d="M23 442q0 30 26 43h-2q49 29 148.5 88.5t148.5 88.5l-2 -3q64 48 193 145.5t194 145.5q20 13 38 -2t7 -37l-397 -768q-6 -16 -27.5 -64.5t-30.5 -74.5q-5 -20 -12 -27t-19.5 -7.5t-21.5 5.5q-32 21 -96 21l6 2q-1 0 -9.5 -1t-21.5 -2.5t-20 -2.5q-46 -5 -62 6 q-21 14 -10 39l262 498q-31 -18 -102 -60.5t-111 -64.5q-11 -11 -36 -11q-18 0 -30.5 11t-12.5 32zM37 459q0 -13 12 -13q11 0 14 3l314 182l-314 -592v-4q7 1 44 4t43 4h4q76 0 114 -27q4 4 4 9l60 147l399 770v4l-387 -295l-297 -176q-10 -5 -10 -16z" />
<glyph unicode="2" d="M45 16l2 19q34 75 87 145t118 113h-2q65 46 198 139t199 139q46 35 78.5 98t32.5 117q0 37 -21 57.5t-59 20.5q-32 0 -95.5 -24t-93.5 -52h25q43 0 65.5 -33t22.5 -71q0 -67 -52 -105t-120 -38q-60 0 -93.5 31.5t-33.5 93.5q0 67 41 125t102.5 93.5t129.5 56t126 20.5 q75 0 140.5 -29.5t108 -89.5t42.5 -140q0 -63 -26.5 -117t-72 -92.5t-95.5 -65t-107 -44.5l-229 -74q-17 -3 -31 -10h25q76 0 186 -45q99 -43 168 -43q58 0 95.5 36t70.5 101q7 35 43 35q27 0 40.5 -16.5t2.5 -42.5v2q-29 -81 -82.5 -147t-114.5 -105t-122.5 -59.5 t-114.5 -20.5q-56 0 -109 20q-6 3 -21.5 10.5t-21.5 10.5q-48 24 -71 34.5t-65 23.5t-75 13q-57 0 -121 -94v2q-30 -45 -53 -45q-22 0 -34.5 12.5t-12.5 34.5zM59 33q0 -17 17 -17q6 0 29.5 34.5t62 69t82.5 34.5q26 0 53 -5.5t58 -17.5t50 -20.5t55.5 -27.5t47.5 -24 q50 -18 98 -18q50 0 107 19.5t114 56t107 98t78 137.5q3 7 -1.5 12t-12.5 5q-11 0 -13 -11q-36 -76 -81 -118.5t-115 -42.5q-64 0 -178.5 44t-176.5 44q-78 0 -188 -45h-4q29 35 82.5 66t101.5 46l234 76q53 18 99.5 42.5t89 59.5t67 83.5t24.5 105.5q0 104 -77.5 165.5 t-182.5 61.5q-53 0 -115.5 -18t-120 -50.5t-95.5 -84t-38 -111.5q0 -46 26 -70t71 -24q56 0 98.5 29.5t42.5 82.5q0 28 -14.5 51t-42.5 23h-70q0 47 91 92t143 45q54 0 82 -28.5t28 -79.5q0 -62 -35.5 -133t-87.5 -107l-397 -278q-115 -78 -193 -246v-6z" />
<glyph unicode="3" horiz-adv-x="993" d="M45 197q0 77 40.5 133.5t115.5 56.5q63 0 101 -38t38 -101q0 -113 -137 -125q10 -19 33.5 -31t46.5 -12q59 0 121.5 62.5t99.5 134.5t39 114q1 12 -8 21.5t-23 11.5l-166 6q-74 3 -74 76q0 59 47 76h3q-8 1 -13.5 3t-9 6t-5.5 7.5t-2.5 10.5t-0.5 11v13.5v13.5 q0 148 100.5 236.5t257.5 79.5q287 -14 287 -218q0 -85 -61.5 -144t-153.5 -91q69 -62 88 -143v-37q0 -80 -45.5 -150.5t-115 -115t-150 -70t-154.5 -25.5q-70 0 -136 23t-114.5 77t-48.5 128zM59 213q0 -64 44 -111t103 -66.5t122 -19.5q55 0 114.5 14t116.5 42.5t102 67.5 t73 92.5t28 113.5v31q-20 94 -129 164q45 9 87.5 26.5t81.5 44t63 65.5t24 85q0 44 -16.5 77.5t-41 53t-61.5 32t-68.5 17t-70.5 6.5q-143 9 -234.5 -71t-91.5 -213q0 -1 -0.5 -8t0 -10t1.5 -8t4.5 -7t8.5 -2q14 0 19 8q2 121 77.5 197.5t198.5 76.5q88 0 88 -73 q0 -54 -22 -115.5t-68.5 -110.5t-103.5 -49q-28 0 -81 2t-79 2h-37q-24 -10 -24 -45q0 -42 45 -45l166 -6q26 -1 43.5 -20.5t15.5 -44.5q-2 -46 -44 -125t-112 -147t-135 -68q-40 0 -78 28t-38 68q0 4 2 6q31 2 51.5 5.5t43.5 13t34.5 29t11.5 48.5q0 50 -29.5 79.5 t-79.5 29.5q-61 0 -93 -47t-32 -113zM344 582h21q13 0 38 -1t39 -1q27 -2 82 -2q71 0 117.5 82t46.5 161q0 43 -57 43q-109 0 -176.5 -70.5t-69.5 -181.5q-16 -26 -41 -30z" />
<glyph unicode="4" horiz-adv-x="1062" d="M12 223q0 21 2 23l674 565q181 152 295 145q18 -1 25.5 -15.5t-0.5 -29.5l-310 -602h4q129 0 240 94q29 0 42 -13t13 -42q-28 -44 -75 -73.5t-100.5 -40.5t-92 -14.5t-76.5 -2.5q-19 -38 -60 -116.5t-61 -116.5q-11 -11 -28 -11q-2 0 -8.5 1t-8.5 1q-65 11 -88 11 q-14 0 -77 -13l2 2q-20 -7 -37 2q-12 6 -15.5 18.5t2.5 22.5l117 236h-67q-121 0 -261 -78q-28 0 -39.5 10.5t-11.5 36.5zM27 240q0 -17 14 -17h4q134 78 262 78q107 0 113 -10l4 -2l-139 -269v-4q74 17 98 17q33 0 104 -13q4 0 7 3l124 241q32 -1 65.5 0.5t90 10t104 34 t72.5 66.5q0 14 -14 14h-6q-102 -94 -244 -94h-35l-16 4l330 643v4q-105 0 -273 -141l-661 -555q-4 -4 -4 -10zM156 311l2 2l495 422l-211 -411h-10q-19 0 -61 4t-64 4q-65 0 -151 -21zM276 344q16 2 48 2q27 0 67 -4q32 -4 49 -4q27 54 44.5 87.5t41.5 78.5t49 94 q-200 -171 -299 -254z" />
<glyph unicode="5" horiz-adv-x="1044" d="M43 160q0 70 32.5 112.5t100.5 42.5q52 0 93.5 -30t41.5 -82q0 -112 -75 -131h-37q15 -9 34 -9q46 0 99.5 37.5t94.5 89t69 105.5t30 88q3 25 -23 38t-61 15q-74 0 -161 -65q-53 -37 -74 -37q-45 0 -45 45v14l180 359l-2 -2q6 15 20.5 47t20.5 47q3 7 12 12.5t17 5.5h20 q5 0 170 -6q82 -6 166 -6q88 0 154 82q19 26 36 26q52 0 45 -45q-44 -122 -150 -202t-204 -80q-34 0 -96 4t-88 4q-68 0 -105 -70l-32 -65q95 45 184 45q107 0 180.5 -59.5t73.5 -167.5q0 -82 -51 -152t-128 -112t-160.5 -65.5t-156.5 -23.5q-94 0 -159.5 49t-65.5 142z M57 176q0 -78 57 -119t138 -41q68 0 146.5 21.5t151 60t120 102t47.5 138.5q0 93 -64.5 145t-158.5 52q-43 0 -91 -14t-79.5 -29t-83.5 -43l75 151q47 86 131 86q29 0 91.5 -4t93.5 -4q90 0 187 72t136 182q1 7 -3 9.5t-11 2.5q-2 0 -10.5 -11t-23.5 -27t-35.5 -32 t-52.5 -27t-68 -11q-56 0 -168 6t-168 6h-21l-41 -94l-176 -351v-8q0 -14 14 -14q12 0 36.5 16.5t50 36t67 35t84.5 14.5q48 -4 82 -24.5t31 -61.5q-3 -51 -52.5 -132.5t-127 -148.5t-144.5 -67q-32 0 -58 19.5t-26 50.5v6q23 -6 60 -6h20q51 12 51 100q0 37 -32 59.5 t-72 22.5q-53 0 -78 -34.5t-25 -90.5z" />
<glyph unicode="6" horiz-adv-x="1042" d="M66 297q0 129 60 252t156.5 212t222.5 143t253 54q42 0 80 -8.5t73.5 -26.5t56.5 -53t21 -82q0 -50 -33.5 -95.5t-87.5 -45.5h-51q-48 0 -76 37.5t-28 81.5q0 61 35 88q-79 -7 -185 -113.5t-166 -218.5q101 86 221 88q101 1 165.5 -70.5t64.5 -172.5q0 -87 -47.5 -163.5 t-121 -126.5t-160 -79t-167.5 -29q-132 0 -209 96t-77 232zM80 313q0 -123 69 -210t187 -87q61 0 125.5 16.5t125 49t108.5 76t77 102.5t29 123q0 89 -55.5 151.5t-143.5 61.5q-59 -1 -108.5 -21.5t-76 -43.5t-57 -52t-45.5 -39v4q0 38 45 114.5t108 153t140 134t133 57.5 q72 0 93 -31q-107 -4 -107 -90q0 -32 20.5 -60t53.5 -28h51q40 0 65 35.5t25 75.5q0 51 -33.5 84t-75.5 44t-92 11q-97 0 -195 -32.5t-180.5 -92.5t-147.5 -137.5t-101.5 -173.5t-36.5 -195zM225 160q0 84 57 177.5t143 156.5t165 65q45 1 71.5 -26.5t26.5 -75.5 q0 -86 -53.5 -181t-141.5 -160t-176 -65q-46 0 -69 31t-23 78zM272 143q0 -33 15.5 -55t46.5 -22q61 0 124 36t110 90.5t76.5 121t29.5 126.5q0 33 -18 53t-50 19q-72 -2 -150.5 -60t-131 -144.5t-52.5 -164.5z" />
<glyph unicode="7" horiz-adv-x="1015" d="M80 752q34 68 127 137t151 69h72q40 -7 65.5 -31.5t51.5 -66.5q26 -47 41 -47q14 0 26 12q5 5 18 17t19 18l33 33q59 57 252 57h16q20 0 28.5 -16t-3.5 -33q-316 -418 -531 -909q-10 -19 -26 -19q-101 -4 -144 -4h-100q-12 0 -21.5 9.5t-9.5 21.5l5 16l380 652 q-48 -25 -90 -25q-24 0 -43 8.5t-31 18t-24 30t-16.5 32t-14.5 36.5l-7.5 22.5t-6.5 16.5t-8.5 12.5t-9.5 3.5q-34 0 -91 -71q-34 -37 -45 -43q-23 -11 -47.5 4t-15.5 39zM96 766q-3 -7 4 -12t13 -2q9 3 33.5 33.5t55.5 57.5t60 27q24 0 41 -28t26 -62t33.5 -62t61.5 -28 q40 0 103 36t73 40l-436 -743l-4 -7h100l141 4l2 3q218 497 533 913h-4h-11q-47 0 -78.5 -1.5t-80 -13t-72.5 -34.5q-11 -11 -34 -33.5t-35 -34.5q-20 -20 -50 -20q-20 0 -39 20.5t-32.5 46t-38 49.5t-53.5 29h-66q-52 0 -134.5 -59.5t-111.5 -118.5z" />
<glyph unicode="8" horiz-adv-x="1120" d="M49 227q0 61 22.5 111t56 82t79.5 56t86.5 35.5t83.5 18.5q-35 56 -35 123q0 81 37 141.5t97 92.5t131 44t145 3q16 -3 24 -23q34 50 88 50q45 0 64.5 -38.5t19.5 -84.5q0 -100 -84 -191q17 -12 45 -12q33 0 86 47q20 16 31 16q31 0 42 -24.5t-7 -44.5q-22 -36 -69 -61 t-83 -25q-70 0 -121 45q-1 0 -3 -1t-3 -1q-3 -1 -4.5 3.5t-1.5 8.5q-4 -16 -14 -23q-20 -12 -47 -24l-4 -2q54 -56 78 -105t24 -122q0 -84 -40.5 -153t-105.5 -111.5t-142 -65.5t-154 -23q-57 0 -112.5 16.5t-103 47.5t-77 81.5t-29.5 112.5zM63 244q0 -72 46 -125.5 t110.5 -78t134.5 -24.5q72 0 143.5 21t132 59.5t98.5 102t38 139.5q0 47 -18 90.5t-42 73.5t-65 71l4 5q6 3 42 19t42 19q1 2 20.5 13.5t20.5 13.5q2 0 4.5 1t3.5 1h2q46 -55 113 -55q34 0 75 22.5t54 55.5q5 4 1 10t-13 6q-2 0 -19.5 -16t-44.5 -31.5t-53 -15.5 q-21 0 -48 11t-38 34v4q94 81 94 184q0 35 -12 63.5t-41 28.5q-35 0 -60.5 -33.5t-35 -72t-9.5 -70.5q0 -35 19 -94q-32 -24 -77 -49t-67 -25h-6q-19 0 -54.5 65.5t-35.5 94.5q0 25 8.5 45t27.5 33.5t35 22.5t45.5 15.5t43 9t43.5 7.5q6 3 6 27q-68 7 -132.5 -4t-120 -39.5 t-89 -82.5t-33.5 -126q0 -70 56 -140v-4q-7 -4 -9 -4q-41 -5 -79 -14t-88 -29.5t-86 -49t-61.5 -77t-25.5 -108.5zM158 227q0 49 18 89.5t53 70.5t70 50.5t84 41.5q42 21 53 21h2q48 -46 66 -64q98 -102 98 -192q0 -87 -78.5 -141t-169.5 -54q-86 0 -141 47.5t-55 130.5z M205 211q0 -69 46.5 -108.5t119.5 -39.5q78 0 147.5 45.5t69.5 118.5q0 78 -90 172v-2q-13 11 -30.5 32t-16.5 24q-1 0 -9 -4t-17 -8t-13 -7q-45 -20 -77 -38t-64.5 -45t-49 -62t-16.5 -78zM569 745q0 -25 25 -77t41 -52q26 0 106 56q-12 35 -12 82q0 48 16 92 q-36 -5 -59 -10t-54 -16t-47 -30t-16 -45zM778 770q0 40 17.5 90.5t50.5 50.5q22 0 22 -57q0 -46 -20.5 -92t-56.5 -64q-13 22 -13 72zM821 743q2 -4 4 -6q29 42 29 103q0 22 6 24q-18 -1 -26.5 -39.5t-8.5 -70.5q0 -5 -1 -8t-2 -3h-1z" />
<glyph unicode="9" horiz-adv-x="1081" d="M49 162q0 64 45.5 115t110.5 51q53 0 90 -36.5t37 -88.5q0 -27 -12.5 -50.5t-25.5 -36t-34 -28.5q-4 -2 -6 -4q37 -16 55 -16q68 0 140.5 53.5t125.5 122.5q83 129 93 149q-98 -65 -199 -65q-99 0 -168.5 60t-69.5 159q0 74 29.5 140t79.5 114.5t113.5 84.5t134 54 t139.5 18h45q83 -9 140.5 -64.5t80.5 -126.5t23 -151q0 -127 -62 -248t-160.5 -207.5t-224.5 -139t-250 -52.5q-61 0 -119.5 17.5t-104.5 63.5t-46 112zM63 178q0 -56 41 -94.5t93 -53t106 -14.5q119 0 239.5 50t214.5 132.5t153 198t59 236.5q0 43 -7 83.5t-24 80t-41.5 70 t-61.5 51.5t-83 26h-41q-82 0 -163.5 -27t-149 -74.5t-110 -121t-42.5 -158.5q0 -86 60 -137t147 -51q141 0 288 151l-2 -6q-7 -21 -61 -125q-5 -10 -25 -42.5t-42.5 -68.5t-26.5 -42q-56 -75 -135 -132t-156 -57q-59 0 -96 43v2q0 8 13.5 20t30.5 24t30.5 33t13.5 44 q0 39 -28.5 66.5t-68.5 27.5q-52 0 -88.5 -41t-36.5 -94zM420 506q0 62 50 153.5t123 162.5t130 73q43 3 66 -32.5t20 -76.5q-4 -37 -22 -85t-48.5 -97t-68 -90.5t-85 -67.5t-93.5 -26q-37 0 -54.5 23.5t-17.5 62.5zM467 489q0 -55 41 -55q66 0 131.5 61.5t105.5 138.5 t50 138q-2 29 -16 53t-38 23q-52 -2 -118 -67.5t-111 -150t-45 -141.5z" />
<glyph unicode=":" horiz-adv-x="413" d="M74 104q0 55 36.5 95.5t90.5 40.5t90.5 -41t36.5 -95t-36.5 -94.5t-90.5 -40.5t-90.5 40.5t-36.5 94.5zM86 635q0 56 36.5 96.5t92.5 40.5q54 0 90.5 -42t36.5 -95q0 -54 -36.5 -94.5t-90.5 -40.5q-55 0 -92 40.5t-37 94.5zM88 121q0 -41 28 -73t68 -32t68.5 32t28.5 73 t-28.5 72.5t-68.5 31.5q-41 0 -68.5 -31t-27.5 -73zM100 651q0 -41 28.5 -72.5t70.5 -31.5q40 0 68 31.5t28 72.5t-28 74t-68 33q-42 0 -70.5 -32.5t-28.5 -74.5z" />
<glyph unicode=";" horiz-adv-x="335" d="M14 635q0 55 36.5 96t90.5 41q55 0 92 -42t37 -95q0 -54 -37 -94.5t-92 -40.5q-54 0 -90.5 40.5t-36.5 94.5zM29 651q0 -41 28 -72.5t68 -31.5q42 0 70 31.5t28 72.5t-28.5 74t-69.5 33q-40 0 -68 -32.5t-28 -74.5zM98 -121q54 9 98.5 48.5t59.5 90.5q2 -4 2 -16 q0 -48 -43 -87t-98 -50v-4z" />
<glyph unicode="&#x3c;" horiz-adv-x="557" />
<glyph unicode="=" horiz-adv-x="823" d="M102 715q0 12 9.5 21t21.5 9l547 3q12 0 21.5 -9.5t9.5 -21.5l4 -90q0 -12 -9.5 -21.5t-21.5 -9.5h-547q-12 0 -21.5 8.5t-9.5 20.5zM109 510q0 12 9 21.5t21 9.5l547 4q12 0 21.5 -9.5t9.5 -21.5v-86q0 -12 -9.5 -21.5t-21.5 -9.5h-543q-12 0 -21 8.5t-9 20.5zM117 731 l4 -88h547l-4 90zM123 526l4 -82h543v86z" />
<glyph unicode="&#x3e;" horiz-adv-x="630" d="M94.5 166q-8.5 16 3.5 33l283 360q-51 67 -149.5 192t-122.5 156q-12 17 -4 33t28 16h150q12 0 24 -12l291 -362q6 -8 6 -19t-6 -18l-303 -383q-12 -12 -25 -12h-147q-20 0 -28.5 16zM106 197h148l303 383l-291 362h-149l286 -367z" />
<glyph unicode="?" horiz-adv-x="772" d="M70 829q0 84 36 162.5t105.5 131.5t155.5 53q67 0 127 -27.5t103 -73t74.5 -104t47 -122t14.5 -124.5q-1 -56 -9.5 -103t-20.5 -79.5t-34.5 -60.5t-40.5 -44.5t-49.5 -33.5t-51 -25t-54.5 -21h2q-90 -36 -122 -61q-40 -31 -60 -74q-3 -6 -12.5 -12t-16.5 -6h-26 q-12 0 -21.5 9.5t-9.5 21.5q0 148 133 243h2q6 4 17.5 11.5t17.5 11.5q97 58 158 115.5t79 134.5v34q0 117 -71 213.5t-183 96.5q-60 0 -104 -45.5t-62 -105.5t-18 -122q0 -35 8 -73.5t23.5 -76t44 -61.5t65.5 -24q48 0 80.5 36t45 82.5t12.5 96.5q0 21 -3.5 46.5t-11 52.5 t-22.5 45t-35 18q-37 0 -59.5 -48.5t-22.5 -93.5q0 -76 57 -114q5 -3 10 -12t5 -15q0 -17 -13.5 -30t-29.5 -13q-35 0 -62.5 41t-39 83.5t-11.5 67.5q0 46 19.5 93.5t59.5 82.5t89 35q54 0 94.5 -39.5t58 -89.5t17.5 -98q0 -69 -26.5 -138.5t-84.5 -121t-133 -51.5 q-61 0 -109.5 31t-76 80.5t-41.5 104.5t-14 109zM84 846q0 -49 12.5 -99t36.5 -95t66 -73t96 -28q65 0 115.5 46t74 108.5t23.5 125.5q0 68 -37.5 132.5t-101.5 64.5q-60 0 -99 -58t-39 -122q0 -39 23 -100.5t59 -61.5q5 0 9 4t4 8v2q-72 44 -72 140q0 55 31 113.5t82 58.5 q29 0 50.5 -21.5t32 -54.5t15 -62.5t4.5 -54.5q0 -41 -9 -82t-27.5 -79t-53 -61.5t-78.5 -23.5q-45 0 -80 27.5t-54 70t-28.5 86t-9.5 83.5q0 50 13 101.5t38 97.5t67.5 75t96.5 29q84 0 151 -52t100.5 -129t33.5 -159v-41q-5 -26 -16 -51.5t-22.5 -44.5t-34 -41 t-35.5 -34.5t-43.5 -33.5t-43 -29t-48 -29.5t-44.5 -27.5q-121 -89 -121 -219h27q21 46 56.5 77t74.5 47.5t82 32t82 37t70.5 55t51 94.5t21.5 146q1 57 -13 116t-42.5 113.5t-68 97t-95 68t-117.5 25.5q-77 0 -139.5 -48t-94.5 -119.5t-32 -147.5zM158 76q0 47 31.5 76.5 t78.5 29.5q45 0 77 -30t32 -76t-32.5 -76.5t-76.5 -30.5q-46 0 -78 30t-32 77zM172 92q0 -33 23 -54.5t57 -21.5q32 0 55 21.5t23 54.5t-22.5 54.5t-55.5 21.5q-34 0 -57 -21.5t-23 -54.5z" />
<glyph unicode="@" horiz-adv-x="1691" d="M72 362q0 159 62 304t167.5 252t248.5 176t300 82h90q137 0 258.5 -41t215 -116.5t148 -192t54.5 -259.5q0 -79 -19 -161t-58 -159t-93 -137t-130.5 -96.5t-164.5 -36.5q-75 0 -124.5 36.5t-68.5 99.5q-27 -29 -46.5 -47.5t-51 -43t-66.5 -37t-71 -12.5q-107 0 -168 79 t-61 190q0 78 44 150t112 120t148.5 77t153.5 29q98 0 135 -75q18 32 23 43q3 6 12 11t15 5q33 0 57 -6h-4q7 -1 45 -5l14 -1q13 0 25 4q12 1 37.5 4.5t29.5 3.5q19 0 27.5 -14t-0.5 -31l-203 -381q-28 -54 -28 -82q0 -12 16 -12q71 1 137.5 48.5t111.5 119.5t72 155t27 156 q0 147 -74.5 262.5t-198 176.5t-272.5 61q-146 0 -274 -57t-217.5 -153.5t-141 -228t-51.5 -276.5q0 -178 82 -311.5t222 -202t317 -68.5q258 0 520 166q12 7 24.5 3.5t18.5 -15.5q2 -4 4 -6q5 -5 23 -29q7 -9 6 -21t-10 -20q-58 -51 -131.5 -90t-138.5 -59.5t-133.5 -33 t-111.5 -16t-77 -3.5q-130 0 -249 27.5t-222.5 86t-180 142.5t-120 203.5t-43.5 262.5zM86 379q0 -137 42 -251.5t115 -195t173 -136.5t214.5 -82.5t239.5 -26.5q44 0 101.5 7t141.5 25t172.5 60t156.5 102q-8 10 -29 39h-4q-263 -170 -532 -170q-185 0 -332 72 t-233.5 212.5t-86.5 327.5q0 151 54 288t147 238t227 160.5t287 59.5q157 0 287.5 -64.5t209.5 -186.5t79 -279q0 -61 -18 -131t-53 -136.5t-80.5 -121t-105 -87.5t-122.5 -34q-29 0 -40.5 15t-7 39.5t12.5 45t20 41.5l203 379h-6q-16 0 -49.5 -6.5t-52.5 -6.5 q-16 0 -47.5 6.5t-49.5 6.5h-6l-53 -107q-2 17 -8 35.5t-19.5 39.5t-38.5 34.5t-59 13.5q-93 0 -191 -44t-167.5 -126t-69.5 -176q0 -98 53.5 -168t145.5 -70q42 0 86.5 24t71.5 50t58.5 60.5t37.5 40.5q5 -77 49.5 -123.5t124.5 -46.5q101 0 186 52.5t137.5 135.5 t81.5 179.5t29 191.5q0 135 -52 246t-141 182.5t-205 110t-247 38.5h-88q-151 -13 -289 -79t-239.5 -168.5t-161.5 -242t-60 -292.5zM647 111q3 64 89 227.5t159 214.5q53 32 89 6t36 -78q0 -74 -44.5 -173t-116.5 -175t-140 -80q-31 0 -52 14.5t-20 43.5zM694 92 q-1 -11 10.5 -17.5t28.5 -6.5q60 10 125.5 80.5t106.5 160.5t41 156q0 32 -22 49t-54 -2q-70 -50 -151.5 -204.5t-84.5 -215.5z" />
<glyph unicode="A" horiz-adv-x="2342" d="M31 274q0 75 52.5 125t127.5 50q59 0 95 -36.5t36 -97.5q0 -58 -35.5 -94.5t-93.5 -36.5q-25 0 -49 6q1 -36 27 -62.5t66 -39.5t78.5 -19t74.5 -6q138 0 287.5 60.5t256.5 157.5q-493 219 -493 438q0 63 37 107.5t96.5 65t113 28.5t109.5 8q153 0 308 -69.5t278 -182.5 q53 43 156.5 128t156.5 128h-2q50 41 107.5 80t127.5 78t145 62.5t140 23.5q19 0 27.5 -14.5t-0.5 -31.5l-422 -811q74 16 130 66.5t56 114.5q0 23 -16 59q-7 17 1.5 30t27.5 13q41 0 68.5 -39t27.5 -78q0 -57 -23.5 -103.5t-58 -76t-86 -53.5t-95 -36t-97.5 -23 q-16 -31 -50 -95l-51 -96q-3 -6 -11.5 -11t-14.5 -5h-238q-19 0 -27 14t0 31l76 149q-119 6 -202 18t-185 40q-86 -63 -150 -103.5t-147.5 -82.5t-169 -62.5t-174.5 -20.5q-76 0 -143.5 16t-126.5 50t-94 95.5t-35 143.5zM45 291q0 -74 32 -129.5t87 -86t117.5 -45 t132.5 -14.5q88 0 171.5 20.5t165.5 62.5t144 82t147 102q4 4 15 4h6q188 -50 428 -62l-98 -192h237l107 205q52 10 93 20.5t92 32t84.5 48t57 69t23.5 94.5q0 28 -19 57t-47 29h-4q11 -19 14.5 -26.5t6 -18.5t2.5 -27q0 -59 -43.5 -110.5t-106 -80t-121.5 -28.5v2l449 862 h-6q-110 0 -246.5 -73t-247.5 -164l-334 -273h-2q-119 118 -272.5 190t-308.5 72q-51 0 -100 -6.5t-104 -24t-88.5 -55.5t-33.5 -92q0 -47 27 -95.5t75.5 -90.5t99.5 -77.5t114.5 -68.5t105 -52t86.5 -38q8 -4 10 -6l-6 -8q-109 -109 -275 -179.5t-319 -70.5q-41 0 -84 7.5 t-88.5 24t-74.5 50t-29 78.5q0 32 10 39q39 -17 70 -17q44 0 71 29t27 72q0 47 -27.5 74.5t-72.5 27.5q-63 0 -106.5 -41t-43.5 -102zM535 723q0 39 23.5 67.5t60 43t72.5 21.5t71 7q161 0 320 -65.5t264 -180.5l-306 -274h-10q-9 0 -143 55q-352 153 -352 326zM582 707 q0 -144 333 -297q125 -54 132 -54q48 43 137 123.5t135 122.5q-102 96 -251 154.5t-290 58.5q-42 0 -83.5 -8.5t-77 -34.5t-35.5 -65zM1075 240q2 0 10 8q-4 -2 -10 -8zM1092 324l284 254h2q31 0 77.5 -130.5t51.5 -177.5q-179 3 -262.5 15.5t-152.5 38.5zM1167 319 q119 -29 320 -34q-16 67 -41.5 143.5t-44.5 97.5q-134 -117 -234 -207zM1417 616v2l254 228q91 85 217 145l-338 -651h-4q-44 176 -129 276zM1475 598q52 -70 100 -195q50 95 131 253.5t125 244.5q-74 -48 -123 -94zM1509 264v2v-2z" />
<glyph unicode="B" horiz-adv-x="1882" d="M35 270q0 65 47.5 108.5t112.5 43.5q59 0 96 -36.5t37 -94.5q0 -97 -109 -111q0 -1 -1 -6t-1 -6q0 -37 45 -56.5t92 -19.5q60 0 117 27t102.5 72.5t80.5 95.5t63 106l153 305l-2 -2q57 118 148.5 208.5t204.5 135.5q-83 -23 -164.5 -57.5t-159.5 -82.5t-137.5 -103 t-96 -122t-36.5 -136q0 -31 2 -47q4 -36 4 -60v-10q0 -13 -8 -22t-19 -11v-4l-2 4q-12 0 -22 10q-35 29 -55.5 74.5t-20.5 91.5q0 101 74 208.5t168 166.5q33 19 99 59.5t99 59.5q97 56 216 87.5t233 31.5q51 0 103 -7t109 -26t100 -47.5t71 -76.5t28 -108q0 -110 -104 -186 l-146 -104q99 -71 99 -197q0 -108 -71.5 -215.5t-182 -174.5t-217.5 -67q-80 0 -140.5 40t-60.5 118q0 73 45.5 144.5t106.5 119t127 74.5q17 6 30 -3t13 -26q0 -12 -15 -35q-71 -94 -112 -145v2q-39 -57 -39 -100q0 -8 -4 -8h12q71 0 129.5 59.5t87.5 139t29 153.5 q0 63 2 63h-6q-36 -4 -109 -13t-109 -13q-19 -1 -28.5 11.5t-3.5 29.5l24 69q3 8 12.5 14.5t16.5 6.5l192 6q47 7 98.5 132.5t51.5 178.5q0 64 -61 80l4 -4q8 -16 8 -41q0 -11 -8.5 -20.5t-18.5 -10.5q-39 -6 -74.5 -23t-64 -38t-57.5 -56.5t-49 -64.5t-46.5 -78t-42 -81.5 t-41.5 -88.5q-96 -203 -155 -292q-137 -203 -329 -256q-77 -21 -165 -21q-49 0 -101.5 9t-106.5 30t-96 52t-68.5 79.5t-26.5 107.5zM49 287q0 -65 37 -115t94.5 -77.5t118.5 -41.5t119 -14q105 0 192 32t148.5 86.5t112.5 125t91 150t77 160t76.5 155.5t83.5 135.5t105 102 t134 52.5v6q0 13 -4 21h-29q-168 0 -307.5 -102t-216.5 -263l-154 -305q-29 -60 -66.5 -112.5t-86 -100.5t-110 -76t-126.5 -28q-57 0 -112.5 27t-55.5 79q0 16 14 41q97 7 97 82q0 44 -29.5 72.5t-73.5 28.5q-52 0 -90.5 -35t-38.5 -86zM520 582q0 -40 17.5 -79t48.5 -65 v11q0 19 -3 54t-3 52q0 93 61 183t156 157t207.5 119t220 79t188.5 27q135 0 135 -116q0 -33 -27 -112.5t-71.5 -153.5t-81.5 -76l-192 -7l-25 -69l217 26h10q5 0 9.5 -2.5t7.5 -7.5t5 -10.5t3.5 -13.5t2.5 -14.5t1 -15.5v-14v-13v-9q0 -77 -33 -162.5t-99 -150t-145 -64.5 h-20q-18 5 -18 39q0 52 45 117q93 119 114 149q6 6 6 13q-45 -18 -89.5 -49t-83.5 -70.5t-63 -90t-24 -100.5q0 -63 51 -95t119 -32q75 0 155 37.5t142.5 96.5t103 137.5t40.5 154.5q0 132 -119 193v2q0 4 4 6l174 125q92 68 92 162q0 53 -26 95.5t-66.5 67.5t-93 41.5 t-100.5 22.5t-95 6q-242 0 -432 -114l-198 -119q-89 -53 -158.5 -152.5t-69.5 -195.5zM588 434q0 -2 2 -2t2 2t-2 2t-2 -2z" />
<glyph unicode="C" horiz-adv-x="1452" d="M57 1008q0 72 41.5 129t102.5 89.5t139.5 53.5t143 28t122.5 7q1 0 13 -1t20 -1h35q27 -2 69 -10.5t98.5 -25.5t95 -48t38.5 -70q0 -2 -1 -6t-1 -6q116 35 229 35q193 0 193 -131q0 -56 -35.5 -106.5t-94.5 -86.5t-127.5 -65t-143.5 -48t-132.5 -30.5t-103.5 -16.5 q-2 -4 -10 -12q-111 -169 -149 -246q-73 -147 -73 -262q0 -58 36 -86.5t97 -28.5q73 0 166 45.5t171 111.5q78 68 132 148q53 79 52 142q0 20 -14 29.5t-36 9.5q-60 0 -120.5 -30.5t-107 -78.5t-82 -105.5t-52.5 -113.5l-6 -22q-3 -6 -11.5 -11.5t-15.5 -5.5h-28 q-12 0 -21.5 9.5t-9.5 21.5q0 76 40.5 155t103 139t142.5 98t154 38h39q62 -9 93.5 -54t31.5 -110q0 -82 -40 -162t-105.5 -141.5t-146 -109t-166 -72.5t-160.5 -25q-111 0 -192.5 57t-120 146.5t-38.5 196.5q0 75 22 142.5t64 150.5q1 3 11 23t16 36q-1 1 -53 16 q-54 16 -86.5 27.5t-81.5 35.5t-76.5 49.5t-48.5 67t-21 91.5zM72 1024q0 -47 20 -84.5t49 -61t73 -44t81 -32t83.5 -25.5t70.5 -23q-13 -31 -40.5 -89t-42 -92.5t-27.5 -86.5t-13 -101q0 -99 35 -181.5t109 -135t175 -52.5q72 0 153 23.5t157.5 68.5t139 103t100.5 133 t38 152q0 54 -24.5 90t-73.5 43h-35q-92 0 -188 -58.5t-159 -153t-63 -188.5h29q2 5 2 9q16 61 53.5 123.5t88.5 115t117.5 86t133.5 33.5q34 0 57 -18t23 -52q0 -68 -56 -152q-56 -86 -138.5 -157t-181 -119.5t-175.5 -48.5q-75 0 -119.5 37t-44.5 109q0 64 19 132.5 t52.5 134t67 121t74.5 117.5q6 8 9.5 13.5t7.5 11.5q4 4 9.5 10.5t8.5 9.5q51 5 118.5 17.5t159 39t165.5 61t126 88.5t52 116q0 100 -162 100q-129 0 -259 -44t-239 -122q-13 -10 -64 -60t-95.5 -92t-49.5 -42q-42 0 -103.5 13.5t-125.5 38t-109 68.5t-45 97q0 57 39 100.5 t94.5 67t128 38.5t126.5 19t104 4h76q56 -4 142 -36.5t122 -40.5v2q0 29 -35 53t-86 37.5t-88.5 20.5t-63.5 9q-5 0 -32.5 1t-32.5 1q-37 0 -78.5 -3t-93 -11.5t-99 -21.5t-93.5 -35t-79.5 -50t-54 -68t-20.5 -87zM143 1008q0 -45 41 -83t100 -59.5t115 -33t95 -11.5 q-4 2 106 107h-2q62 62 86 82q106 75 236 123q-40 9 -99 32h2q-11 4 -34 12.5t-36.5 13t-33.5 9.5t-39 6h-76q-62 0 -128 -7t-147.5 -26t-133.5 -61.5t-52 -103.5zM772 803q57 77 102 117q7 6 43 36t50 40.5t47 35.5t54.5 36t52.5 25.5t60 20.5t58 6h31q41 -14 41 -51 q0 -53 -47 -98t-112.5 -73.5t-146.5 -50t-137 -31t-96 -13.5zM858 827q70 11 135 27.5t139 43.5t119 67t45 88q0 14 -16 20h-25q-39 0 -79.5 -13.5t-84 -41.5t-71 -49.5t-72.5 -59.5l-37 -30v2q-34 -30 -53 -54z" />
<glyph unicode="D" horiz-adv-x="1812" d="M41 59q0 88 189 88h4h6h22q16 -2 121 -10q107 -9 115 -10q5 0 75 -10q39 11 105 87t116 149t74 118q34 67 106.5 209t106.5 209q43 85 121 170h-86q-410 0 -667 -324q-107 -124 -107 -215q0 -43 41 -53h29q79 0 187.5 61.5t190 154.5t82.5 171h-30q-51 0 -100 -25.5 t-80 -68.5l-123 -166l-4 -4q-15 -15 -34.5 -7.5t-19.5 29.5v9q0 83 63.5 160.5t151.5 121t166 43.5h37q46 -4 68 -38t22 -79q0 -76 -62.5 -161.5t-151 -150t-188.5 -107.5t-173 -43q-94 0 -146.5 53.5t-52.5 146.5q0 113 57 213.5t147.5 170.5t202.5 121.5t224 76.5t209 25 q131 0 235 -29q194 153 328 153q29 0 59 -17t43 -42q9 -17 0.5 -32.5t-28.5 -14.5h-15q-145 0 -225 -111q117 -55 200 -158.5t83 -230.5q0 -137 -66 -269t-170.5 -227t-239.5 -153.5t-268 -58.5h-26l-357 26h-8q-58 0 -70 -2l-200 -35q-20 -4 -86 -4h-76q-27 4 -52 11.5 t-50 28.5t-25 50zM55 76q0 -19 19.5 -33t40 -19t41.5 -8h55q79 0 96 4l203 35q12 2 74 2h10l356 -26h25q128 0 257 56t229.5 147.5t163.5 217.5t63 257q0 128 -87 229t-204 143q-4 0 -4 6v3q89 149 264 149h20q-11 19 -32 32t-43 13q-129 0 -320 -158h-2q-85 33 -242 33 q-77 0 -165.5 -17t-179.5 -49t-174 -82t-148 -111.5t-103.5 -143.5t-38.5 -172q0 -79 44.5 -124.5t123.5 -45.5q69 0 163.5 40t179 100.5t143.5 140.5t59 151q0 33 -15 58t-46 28h-35q-72 0 -152.5 -39.5t-139 -109.5t-58.5 -146v-8l8 8l117 158q35 49 90 77.5t114 28.5h33 q10 -2 19.5 -10t9.5 -19q0 -84 -87 -184.5t-203.5 -167.5t-201.5 -67h-35q-65 12 -65 84q0 100 113 235q267 334 692 334q11 0 37 0.5t40.5 0.5t35.5 -1.5t38 -5.5q-117 -125 -159 -209l-213 -418q-25 -48 -81 -130t-131 -161.5t-118 -79.5h-4q-3 1 -32.5 6t-35.5 5 q-18 2 -117.5 10t-117.5 10h-11h-7h-11q-158 0 -158 -57zM641 92q174 60 278 147.5t197 249.5q120 221 240 527q2 8 11.5 28t16.5 25q99 -43 143 -136.5t44 -213.5q-1 -188 -85 -335.5t-234.5 -229.5t-342.5 -82h-63q-173 11 -205 20zM780 92q55 -6 84 -6h62q278 0 453 172 t177 444q0 235 -145 312q-1 -2 -2.5 -5.5t-2.5 -6t-1 -3.5q-120 -307 -246 -540q-81 -142 -167 -226.5t-212 -140.5z" />
<glyph unicode="E" horiz-adv-x="1198" d="M86 963q0 58 34 102t88 68t111 35.5t113 11.5q34 0 66 -4h-4q-2 0 34 -6t85.5 -14t80.5 -13q23 0 27 -7.5t4 -31.5t-28.5 -40.5t-57.5 -16.5q-59 28 -172 34q-12 1 -27 1q-21 0 -46 -2q-42 -3 -92 -12t-84 -32.5t-34 -58.5q0 -43 28.5 -74.5t73.5 -47.5t89 -23t86 -7h2 q21 67 78 116.5t132 75.5t146.5 38t138.5 12q31 0 51 -2t48.5 -9t49 -25.5t32.5 -47.5v-29q0 -51 -40.5 -92t-96.5 -65t-127.5 -40.5t-120 -23t-88.5 -8.5q-9 -9 -13 -29q75 15 166 15h8q14 1 26 1q138 0 138 -71q0 -37 -28.5 -53.5t-63.5 -16.5h-20l-45 7q-55 11 -109 11 q-12 0 -25 -1q-57 -11 -120.5 -53.5t-115.5 -98.5t-86 -124.5t-34 -127.5q0 -61 37 -93t100 -32q51 0 116 15t132 45t123 70t91.5 94.5t35.5 113.5q0 41 -64 41q-126 0 -226 -71.5t-136 -190.5q-13 -26 -53 -26q-12 0 -21.5 9t-9.5 21q0 74 43 142t108.5 113.5t142 72.5 t144.5 27q74 0 118 -47t44 -123q0 -69 -27.5 -128t-75 -101.5t-107 -75t-126 -52t-129.5 -29.5t-121 -10q-69 0 -136 19t-124 55.5t-92 97t-35 135.5q0 69 26.5 128.5t68 100.5t99 73.5t113.5 51.5t117 32q-25 27 -41 53q-48 1 -96.5 8.5t-103.5 25.5t-96.5 44.5t-69 70.5 t-27.5 99zM100 979q0 -51 27.5 -91t69 -63t95.5 -38t99.5 -20t89.5 -5l2 -4q31 -48 82 -101q-61 -8 -119 -23.5t-120.5 -45t-108.5 -68.5t-76 -98t-30 -129q0 -54 21.5 -100.5t57 -78.5t81.5 -54.5t96 -33t100 -10.5q66 0 138.5 12.5t147.5 41t134.5 69.5t97 104t37.5 138 q0 62 -35 100.5t-96 38.5q-86 0 -179.5 -40.5t-161 -117t-67.5 -165.5q22 0 27 10q39 126 146.5 202t242.5 76q41 0 67.5 -17t26.5 -54q0 -64 -37.5 -123.5t-97 -103t-130.5 -76.5t-140 -49.5t-123 -16.5q-77 0 -122.5 40t-45.5 116q0 88 60.5 187.5t151 169t173.5 77.5 h61.5t61.5 -8t61 -9h17q24 0 42.5 9t18.5 30q0 10 -6.5 17.5t-18 11.5t-23.5 6.5t-28 3.5t-26.5 1t-23.5 -0.5t-15 -0.5q-88 0 -170 -16h-12q0 88 24 92q38 3 81.5 8t112.5 20t122 35t92 56t39 80v20q-17 39 -55.5 50.5t-94.5 11.5q-67 0 -137 -11.5t-143 -36.5 t-125.5 -75.5t-65.5 -118.5h-27q-47 0 -95.5 8.5t-98.5 27.5t-81.5 57t-31.5 89q0 44 37.5 74.5t94 42.5t102.5 16q31 3 57 3q13 0 25 -1q123 -6 180 -34h4q13 0 27 7.5t14 18.5q0 6 -6 7q-4 1 -6 1q-175 33 -189 33q-35 3 -83 3q-2 0 -4 1q-46 0 -96 -13q-52 -13 -95 -32.5 t-71 -56.5t-28 -84zM659 813q0 43 64 91.5t139.5 78t116.5 29.5h35q51 -13 51 -43q0 -37 -36 -66.5t-86.5 -45.5t-111 -26.5t-103 -14t-69.5 -3.5zM717 827q48 3 97 9.5t107 20t94 38.5t36 57q0 5 -25 13h-31q-50 0 -148.5 -45.5t-129.5 -92.5z" />
<glyph unicode="F" horiz-adv-x="1777" d="M66 203q0 64 42 110.5t107 46.5q62 0 100.5 -42t38.5 -105q0 -92 -98 -121q28 -33 117 -33q61 0 136.5 47t138.5 115.5t111 146.5t62 138h-100q-12 0 -21.5 9.5t-9.5 21.5v8q-63 -83 -152 -135t-182 -52q-91 0 -139.5 60.5t-48.5 152.5q0 120 49 223.5t130 175t186 122 t217 74.5q108 23 216 22h9h74l464 -41h91q31 0 47 82q2 9 11 16.5t19 7.5h37q15 0 24 -10t7 -24q-8 -54 -23 -97t-31 -71.5t-41.5 -50t-45 -32.5t-52 -19t-51.5 -11t-53 -6q-39 -4 -55 -6.5t-42.5 -13t-41.5 -27.5v2q-69 -88 -98 -138.5t-54 -136.5h164q12 0 21.5 -9 t9.5 -21v-37q0 -12 -9.5 -21.5t-21.5 -9.5l-213 -6q3 -1 3 -8q0 -24 -44 -115v2q-1 -4 -5.5 -10.5t-4.5 -7.5l2 2q-228 -402 -633 -402q-60 0 -117.5 10t-116 34t-94.5 73t-36 117zM80 219q0 -48 23 -85.5t57.5 -59t81 -35.5t88 -18.5t84.5 -4.5q388 0 606 385q0 1 7.5 17.5 l17.5 38.5t20.5 44.5t18.5 38t10 15.5l215 6v37h-205q29 112 59.5 168t108.5 156q21 25 55 38t69 16t73.5 6t74.5 15t67.5 36.5t55.5 76.5t35 129h-37q-22 -106 -78 -106h-92l-463 41h-74h-9q-102 0 -206 -22q-108 -22 -209 -70t-179.5 -116t-125.5 -166t-47 -212 q0 -78 41 -130t117 -52q98 0 190 60t146.5 153.5t54.5 189.5q0 16 -4 36.5t-16.5 40t-30.5 19.5q0 -9 5 -29.5t5 -33.5q0 -83 -49 -178t-133 -163.5t-170 -68.5q-57 0 -84 43.5t-27 104.5q0 138 82.5 253t210.5 173q106 49 217 49q23 0 45 -2l486 -70l4 -2l-225 -113 q-30 -15 -57 -41t-42.5 -45.5t-37.5 -63t-28 -57t-28 -63.5l-2 -8h-147v-37h135q-2 -59 -51 -146.5t-119 -167.5t-157 -137t-157 -57q-20 0 -44 4t-51 13t-44.5 27t-17.5 42v4q108 16 108 94q0 50 -29.5 83.5t-78.5 33.5q-52 0 -85.5 -38t-33.5 -89zM274 563q0 -49 19.5 -83 t60.5 -34q79 0 155 62.5t121 150t46 164.5q-1 1 -2 6t-2 13.5t-2 11.5q-4 20 -4 35q0 12 9 21.5t21 9.5q28 0 48 -26t27 -53t7 -48q0 -98 -51 -189h119q2 6 6 14q21 49 34 76t37.5 67.5t55.5 69t70 48.5l135 69q-64 9 -194.5 29t-194.5 29h2q-21 2 -42 2q-104 0 -205 -46 q-121 -55 -198.5 -162.5t-77.5 -236.5zM676 909q0 -2 2 -2v4q-2 0 -2 -2z" />
<glyph unicode="G" horiz-adv-x="1310" d="M78 -219q0 59 24.5 115t61.5 98.5t94.5 84t108 70t119 57.5t111.5 44.5t99 34.5h-2q19 10 29 26l47 97q-42 -34 -74.5 -57t-80 -51t-95 -43t-92.5 -15q-68 0 -119.5 46t-74.5 109t-23 129q0 101 49 226q-147 56 -147 180q0 50 29.5 98.5t90.5 65.5q23 6 35.5 -16.5 t-6.5 -37.5q-19 -17 -29.5 -28t-20 -28.5t-9.5 -35.5q0 -44 29 -79t71 -35q-3 1 2 7.5t19 22.5v-2q51 68 112.5 114t143.5 89q216 109 448 109h78q162 -22 162 -138q0 -170 -484 -299q-70 -16 -147 -24q-30 -3 -45 -5.5t-35 -10.5t-33.5 -22.5t-30.5 -39t-38 -62.5 q-68 -119 -68 -204q0 -37 49 -37q44 0 96 22.5t91 49t92 75t76 72t65 68.5q24 25 35.5 36.5t24.5 21t22 9.5q49 0 116.5 -17.5t67.5 -45.5l-172 -361q73 -20 115.5 -60t48.5 -122v2q1 -8 1 -16q0 -60 -53 -124q-59 -71 -132 -71q-12 0 -21.5 9.5t-9.5 21.5q0 8 2.5 16.5 t5.5 13.5t10 13t10.5 11t14.5 12t14 12q45 31 45 53q4 18 4 34q0 36 -20 67q-29 43 -80 46q-34 -97 -84 -182q-96 -156 -259.5 -262.5t-336.5 -106.5q-147 0 -147 150zM92 -203q0 -119 117 -119q164 0 321 103t248 252q53 87 90 196h15q67 0 110 -53q29 -37 29 -82 q0 -20 -6 -43q0 -20 -16 -39.5t-35.5 -32.5t-35.5 -29.5t-16 -29.5q61 0 111 60q44 53 44 104q0 6 -1 12q-3 42 -18 71.5t-42 47t-53 26.5t-65 17v6l186 385v2q0 9 -57.5 16t-95.5 7q-6 0 -40 -36.5t-84.5 -89t-110.5 -104.5t-132 -88.5t-135 -36.5q-35 0 -57.5 16.5 t-22.5 51.5q0 91 72 219q32 59 54.5 89t52 44.5t53 17t80 9.5t110.5 20q32 8 55 14.5t74.5 22.5t90 31t86.5 38.5t79 47t52.5 54t21.5 61.5q0 88 -136 106h-73q-230 0 -434 -104q-165 -86 -246 -195q-32 -41 -43 -41q-54 0 -93.5 45t-39.5 101q0 36 17.5 62t51.5 54h-2 q-49 -14 -72.5 -54t-23.5 -81q0 -63 44 -103t114 -59q-60 -141 -60 -243q0 -59 20 -115.5t64 -97.5t103 -41q61 0 134.5 35t127 77t100.5 78t60 37v-4l-99 -197q-13 -29 -45 -43q-55 -18 -96 -33t-107.5 -43t-115.5 -55t-104.5 -66t-91 -79t-59.5 -92t-24 -107zM115 -221 q0 67 66.5 149.5t158 147.5t187.5 109t153 44q-4 -56 -94.5 -180t-210.5 -230t-193 -106q-67 0 -67 66zM162 -238q0 -34 37 -34q62 0 163 85t183.5 190.5t109.5 174.5q-62 -12 -146.5 -55.5t-161.5 -101.5t-131 -129t-54 -130zM530 793q35 77 126.5 154.5t205 128 t207.5 50.5q30 0 46 -1.5t37 -8t30.5 -22t9.5 -41.5q0 -50 -58 -94.5t-142 -73.5t-176.5 -51t-161.5 -31.5t-99 -9.5h-25zM600 807q63 6 149.5 21.5t188 43t171 71t69.5 93.5q0 15 -7.5 24t-23 13t-28.5 5t-34 1q-120 0 -266.5 -84t-218.5 -188z" />
<glyph unicode="H" horiz-adv-x="2129" d="M78 111q0 57 28.5 112.5t74.5 100t98.5 79.5t107.5 58q107 42 342 106q18 5 43 54q26 60 78 178t76 172q-117 -90 -197 -90q-50 0 -86 32l-82 82q-11 11 -24 11q-48 0 -101 -53t-87 -124.5t-34 -126.5q0 -57 19 -57q17 0 31 23q3 5 11.5 9.5t14.5 4.5q11 0 31 -10 q2 -4 2 -6q17 -1 25.5 -12.5t3.5 -26.5q-19 -64 -103 -64q-65 0 -104 36.5t-39 102.5q0 91 67 200.5t169.5 186t195.5 76.5q55 0 139 -51q67 -43 103 -43q44 0 118 74l9 8q11 11 32 6q3 -1 8.5 -4t8.5 -4q48 -21 71 -21q19 0 48 11q31 10 52 10q9 0 17 -2q15 -3 22 -16 t1 -27l-219 -477l110 12q20 2 40 14.5t34 25t32.5 39t26 39l25.5 42.5q7 12 19.5 31t15.5 24q92 135 245.5 228.5t307.5 93.5q126 0 139 -80q1 -8 1 -17q-1 -39 -19 -81q-22 -52 -60 -95t-73.5 -75t-67.5 -54q-21 -13 -41.5 -25t-42.5 -22.5t-35 -16.5t-37.5 -17.5 t-32.5 -14.5q-42 -18 -57.5 -25t-42.5 -21t-39.5 -26.5t-17.5 -27.5l-101 -275q-32 -94 -32 -174q0 -39 57 -39q74 0 167 78.5t159 178.5t81 171q0 10 -5 19.5t-13 9.5q-22 0 -45 -15.5t-35.5 -29.5t-34.5 -41q-50 -68 -94 -84q-15 -5 -28 3.5t-13 25.5q0 59 43 115t104 89 t117 33q57 0 83 -37t26 -96q-1 -92 -49 -187t-122.5 -167t-171 -118t-188.5 -46q-66 0 -116 26.5t-78.5 72.5t-42.5 101t-14 119q0 101 43 242q-27 -3 -81.5 -11.5t-86.5 -11.5q-56 -117 -126.5 -213.5t-161.5 -177.5t-207 -126.5t-245 -45.5q-50 0 -89.5 10.5t-70 44 t-30.5 87.5zM92 127q0 -61 46.5 -86t113.5 -25q126 0 239 46t201 127t156.5 177t122.5 212l231 28v-6q-55 -150 -55 -270q0 -57 12 -107t37 -91.5t69.5 -66t102.5 -24.5q116 0 233 71.5t191.5 185.5t75.5 230q0 45 -18.5 74t-59.5 29q-77 0 -155.5 -65.5t-78.5 -141.5v-2 q24 10 51 40t47.5 59t53 52t68.5 23q50 0 50 -51q0 -6 -1 -13q-9 -72 -80.5 -179t-174 -191t-184.5 -84q-38 0 -63 16.5t-25 52.5q0 85 35 185l101 274q12 32 50.5 59t83.5 44t110.5 46.5t113.5 61.5q30 21 63 49.5t69 68.5q37 41 58 87q16 36 16 69q0 10 -1 19 q-6 53 -109 53q-147 0 -293 -89t-233 -218q-11 -15 -30 -48.5t-36 -59.5t-39.5 -54t-50.5 -45.5t-59 -21.5l-166 -19l242 527v4q-18 0 -54.5 -11.5t-56.5 -11.5q-14 0 -28 3.5t-22.5 6.5t-24.5 10.5t-23 10.5q-32 -30 -45.5 -42.5t-45.5 -30t-59 -17.5q-44 0 -119 47 t-122 47q-86 0 -181.5 -71.5t-158 -173.5t-62.5 -187q0 -51 31 -80t82 -29q62 0 74 41q-3 0 -13 6.5t-12 8.5q-4 2 -8 2h-2q-13 -24 -22 -30.5t-34 -6.5q-49 0 -49 88q0 60 38.5 139t98.5 137t115 58q28 0 47 -19l82 -82q27 -24 64 -24q27 0 56.5 10t63 32.5t53 36.5t55 44 t40.5 34l6 2l-203 -462q-10 -23 -27 -44.5t-36 -25.5q-220 -59 -338 -106q-71 -30 -134 -75.5t-110 -112.5t-47 -134zM123 127q0 69 72 142.5t171 125.5t198 85.5t157 33.5h4q-25 -45 -60.5 -98t-90 -119t-110.5 -117.5t-124 -87t-129 -35.5q-38 0 -63 17.5t-25 52.5z M170 111q0 -19 16 -29t41 -10q64 0 134 39.5t131 103.5t108 125.5t84 122.5q-70 -15 -156 -50t-167.5 -81.5t-136 -106t-54.5 -114.5zM1492 732l1 1q0 32 68 123l48 62q48 63 58 75q121 135 238 135q29 0 44 -8t15 -33q0 -54 -54 -119t-128 -116t-151 -87t-124 -40h-10 q-3 1 -4 3t-1 4zM1550 745q71 20 162.5 72t164.5 124t73 130q0 10 -29 10q-98 0 -215 -125q-5 -6 -18.5 -23.5t-31.5 -41.5t-30 -39q-25 -30 -29 -35q-35 -46 -47 -72z" />
<glyph unicode="I" horiz-adv-x="1714" d="M31 252q0 66 36.5 108.5t102.5 42.5q55 0 97 -32t46 -88q1 -33 -7.5 -56t-27 -35.5t-32.5 -17.5t-37 -10q-27 -8 -27 -10q0 -41 67 -62.5t124 -21.5q99 0 187 41.5t142 117.5q-7 -1 -38.5 5t-38.5 8q-99 51 -161.5 132t-62.5 183q0 48 12.5 91.5t31.5 77.5t52 66t62 54 t76 45t78.5 36.5t84 30.5t79.5 24.5t77 21.5q172 45 316 53q68 60 150 98.5t163 38.5q39 0 67.5 -17.5t28.5 -60.5q0 -32 -20.5 -57t-52 -39.5t-60.5 -22t-55 -10.5q-8 0 -70 -8q-40 -4 -86 -12l4 2q-16 -4 -31 -23.5t-24 -40.5q-227 -531 -248 -579q90 27 167.5 118.5 t86.5 188.5q9 9 19 14t15 6t14 -0.5t10 -1.5q12 0 21 -9t9 -21q0 -175 -112.5 -279.5t-288.5 -118.5q-100 -121 -233 -187.5t-287 -66.5q-70 0 -140 14.5t-136.5 45.5t-108 89t-41.5 134zM45 268q0 -69 38.5 -120.5t100 -78.5t126.5 -40t130 -13q151 0 280.5 66.5 t225.5 187.5q167 9 276 106t109 261q-24 0 -28 -4q-7 -78 -60 -155.5t-128.5 -126t-145.5 -48.5v2l270 629q30 67 76 80q13 1 79.5 10t75.5 10q23 3 47.5 9t52 17t45 30t17.5 43q0 47 -65 47q-75 0 -153 -37.5t-142 -95.5q-2 -1 -7.5 -2.5t-7.5 -2.5q-138 -7 -311 -51 q-206 -56 -304 -106q-226 -115 -226 -312q0 -93 54.5 -166.5t141.5 -117.5q11 -3 60 -21t49 -22v-2q-58 -86 -158.5 -137.5t-206.5 -51.5q-26 0 -60 6t-72 18t-63.5 36t-25.5 55q0 22 20.5 32t45.5 12q25 4 45 24t20 57q0 43 -36 69q-34 24 -76 25q-52 0 -80.5 -34 t-28.5 -87zM504 561q0 68 39 131.5t102 110.5t141.5 86t160 63.5t154.5 38t128 13.5h2q-186 -100 -256 -261l-162 -356q-28 -64 -59 -100h-17q-95 0 -164 87.5t-69 186.5zM551 545q0 -88 60 -166t143 -78h2q29 41 45 82q26 58 81 178t81 178q54 120 163 205 q-92 -14 -188 -46.5t-185 -81t-145.5 -120t-56.5 -151.5zM1335 1055q45 39 109.5 64.5t124.5 25.5q28 0 28 -12q0 -36 -116 -64q-108 -14 -121 -14h-25z" />
<glyph unicode="J" horiz-adv-x="1626" d="M51 -219q0 93 57 186.5t143.5 163.5t189 119t194.5 61l22 45q-110 2 -195.5 35.5t-138.5 105t-53 173.5q0 62 18 114.5t48.5 91.5t77 70t95 52t112 36.5t119.5 24t125.5 13t121.5 6t115 1.5h149q67 51 123.5 78t126.5 27h39q36 -11 54 -25t18 -43q0 -25 -14 -45.5 t-41 -33.5t-53.5 -22t-64 -14t-60.5 -7.5t-54 -4.5q-8 0 -19 -1t-14 -1q-30 -10 -84 -92.5t-69 -118.5l-142 -272q18 9 38 21t34 20.5t39 26.5t33 23.5t37 27.5t32 24q17 0 26.5 -1t19.5 -10t10 -26q0 -11 -11 -22q-153 -141 -315 -205q-5 -14 -14 -32t-15 -36 q52 -17 89.5 -54t37.5 -87q0 -31 -14.5 -69.5t-47 -70.5t-73.5 -32q-21 0 -28.5 18t6.5 33q19 23 28.5 36t17 33.5t7.5 43.5q0 25 -14.5 44.5t-40.5 22.5q-32 -81 -75 -158.5t-105.5 -157.5t-133 -140t-162 -97.5t-188.5 -37.5q-73 0 -118.5 36t-45.5 103zM66 -203 q0 -52 37 -80t96 -28q94 0 183.5 38t158.5 98t129.5 140.5t101 157.5t70.5 156q1 2 4 3t5.5 0.5t5.5 -0.5l3 -1q40 0 64 -30.5t24 -68.5q0 -29 -9 -53.5t-19.5 -39t-32.5 -40.5q46 0 75 48.5t29 92.5q0 50 -40 80t-97 37l45 117q173 68 320 203v2q0 4 -15 4h-4 q-126 -96 -186 -129q-50 -26 -94 -39v2l176 340q15 37 80 130t100 97q7 1 38.5 3t59.5 4.5t65 9.5t63 16.5t44.5 26.5t18.5 39q0 12 -6 19.5t-13 10t-22 6.5h-39q-46 0 -89.5 -15.5t-70 -32t-72.5 -50.5l-14 -6h-77h-43q-33 0 -68 1h-30q-45 0 -93 -4q-65 -4 -129.5 -9 t-128 -18.5t-120.5 -31.5t-105.5 -47.5t-84 -66.5t-55.5 -89t-20 -114q0 -98 57.5 -165t147.5 -95q75 -24 167 -24q16 0 33 1v-2l-47 -94q0 -8 -10 -8q-88 -10 -187 -56t-183.5 -112.5t-140.5 -156t-56 -177.5zM102 -205q0 63 38 129t97 120t130.5 101.5t138.5 79.5t121 47 q-23 -66 -69 -154.5t-107 -182.5t-135 -156q-70 -58 -130 -58h-8q-40 3 -58 21t-18 53zM150 -221q0 -40 47 -43h6q49 0 105 44q59 48 112.5 124.5t96.5 153t75 149.5q-70 -27 -143 -70t-142 -98.5t-113 -124.5t-44 -135zM375 657q0 78 33 139.5t79.5 100.5t126 66.5 t142.5 41t160.5 20.5t148 8t135.5 1q0 -10 -8 -14q-231 -103 -338 -289l-145 -293l-7 -6h-14q-69 0 -123.5 12t-98.5 37.5t-67.5 70t-23.5 105.5zM422 641q0 -195 280 -195l142 283q88 154 264 258q-68 -1 -127 -4.5t-131.5 -13t-130 -25t-115 -42t-96 -61t-62.5 -86 t-24 -114.5zM629 299l4 8q-4 -4 -4 -8zM1305 1071q30 32 81 51t101 19h31q16 -5 16 -11q0 -21 -52.5 -35.5t-98.5 -19t-68 -4.5h-10z" />
<glyph unicode="K" horiz-adv-x="2304" d="M70 256q0 73 50 137t124 64q60 0 107.5 -47.5t47.5 -108.5q0 -64 -45.5 -97t-111.5 -40q18 -46 82 -65t137 -19q120 0 230.5 72t176.5 182l131 217q25 59 81 177.5t81 176.5v-2q16 39 25 66q-148 -113 -246 -113q-33 0 -57 8v-4q0 -76 -26 -153.5t-72 -141t-116.5 -103.5 t-152.5 -40q-93 0 -150 64t-57 159q0 105 77 229q76 124 194 208q113 82 216 81h7q41 -2 77.5 -14.5t55 -24t45.5 -32.5q58 -43 96 -43q36 0 76 23t62 46l22 23l240 35h30q19 0 27.5 -13t1.5 -30l-176 -390q43 11 84 11q8 0 19 -3t26 -7.5t24 -6.5q33 -15 50 -12 q19 38 24 47q27 49 43 77.5t47 77t55 78t60 66t70.5 56.5t78 34.5t89.5 14.5q80 0 133 -42.5t53 -121.5q0 -65 -37 -110.5t-102 -45.5q-58 0 -105 41t-47 100q0 38 27 68q-40 -23 -68.5 -69.5t-62.5 -121.5q-37 -79 -71 -133t-79 -84q39 -39 65.5 -101t26.5 -110 q0 -15 -1.5 -29.5t-7.5 -31.5t-9 -28t-13 -30.5t-13.5 -27t-17.5 -29.5t-16 -25.5t-18 -27.5l-16 -24q-15 -21 -27 -39l2 2q-22 -44 -22 -68q0 -12 32 -12q77 0 160.5 52t145.5 126t102 156q38 79 37 135v6v31q-2 2 -5 3.5t-8 3.5t-8 3q-20 8 -20 29v30q0 12 9.5 21.5 t21.5 9.5q129 0 129 -193q0 -93 -54 -187.5t-136 -163.5t-182.5 -112.5t-191.5 -43.5q-100 0 -163.5 82t-63.5 184q0 38 14.5 82.5t29.5 73.5t42 75v-2q47 80 51 111q-91 -37 -155 -37q-73 0 -103 35l-31 -72l-120 -223q-85 -157 -257 -239.5t-362 -82.5q-67 0 -138.5 14.5 t-144 45.5t-119 90t-46.5 137zM84 272q0 -56 29.5 -102t74.5 -73.5t102.5 -46.5t110 -26.5t101.5 -7.5q117 0 228.5 32t210.5 103t153 171l120 223l277 616h-27l-229 -33q-9 -11 -25.5 -26.5t-62 -41.5t-86.5 -26q-34 0 -66 17t-55.5 38t-64.5 39.5t-89 20.5h-7 q-95 0 -201 -76q-110 -79 -182 -195.5t-72 -215.5q0 -82 48 -137.5t128 -55.5q75 0 140 37.5t107 97t65.5 131t23.5 142.5h-2q-2 -1 -14 -3.5t-13 -3.5q-5 -56 -32 -120.5t-68 -121.5t-100 -94.5t-120 -37.5q-51 0 -76.5 35t-25.5 90q0 69 41.5 175t114.5 193.5t145 87.5 q22 0 34 -5t23 -21l64 -88q40 -60 117 -60q33 0 67.5 11.5t70.5 34t61 40.5t62 48t50 40v-4l-61 -164l-164 -356l-131 -219q-68 -116 -186.5 -192t-248.5 -76q-42 0 -82 6t-81 20.5t-66 44.5t-25 72q29 0 55 5t51.5 16t40.5 33.5t15 53.5q0 49 -38.5 87t-86.5 38 q-61 0 -102 -54t-41 -116zM432 604q0 -41 18 -67.5t54 -26.5q73 0 140 61.5t105.5 143t45.5 155.5q9 9 39 19q-21 15 -37 41l2 -2q-10 15 -32 44t-32 44q-9 14 -33 14q-65 0 -130 -81.5t-102.5 -180.5t-37.5 -164zM1284 662q0 -35 26.5 -49.5t63.5 -14.5q69 0 164 45h8 q17 0 17 -26q0 -34 -33 -91q-35 -61 -71 -133t-36 -129q0 -91 54.5 -163t142.5 -72q85 0 180 41t172.5 106t128.5 154t51 176q0 162 -98 162v-31q35 -12 41 -33v-35v-6q-1 -61 -41 -145q-42 -88 -108 -167t-155 -134.5t-171 -55.5q-20 0 -32 2.5t-22 12.5t-10 28q0 26 27 82 q2 3 38.5 57.5t49 76.5t29 65.5t16.5 77.5q0 59 -37.5 127.5t-89.5 89.5q47 12 85 51t61 88t49.5 104t52 100.5t68 75t96.5 29.5q0 -26 -31 -57t-31 -57q0 -46 37.5 -78.5t83.5 -32.5q50 0 79.5 36.5t29.5 88.5q0 64 -44.5 98.5t-111.5 34.5q-33 0 -65 -8.5t-59 -21 t-54.5 -34.5t-48.5 -42t-45 -51.5t-40 -54t-37.5 -59t-33 -57.5t-31 -57.5t-28.5 -52.5q-2 -3 -6 -5.5t-7 -3.5l-4 -1h-5q-20 0 -59 12q-44 14 -63 14q-22 0 -43 -2.5t-45.5 -10t-39.5 -24t-15 -40.5zM1331 659q0 33 96 33q48 0 80 -12q-70 -39 -135 -39q-41 0 -41 18z" />
<glyph unicode="L" horiz-adv-x="1832" d="M76 127q0 37 16.5 66t39.5 47.5t61 31.5t68 19t74 9.5t65.5 4t54.5 0.5q185 0 360 -41l158 285q5 10 14 22q1 1 2 4t2 5q-731 28 -731 413q0 85 41.5 146t110 92.5t140 45t148.5 13.5q65 0 138 -9.5t156 -31.5t149 -66.5t92 -105.5q6 -13 -1 -26.5t-20 -16.5v-6 q-2 0 -2 6q-9 -3 -20 4q-138 71 -248 106.5t-233 35.5q-43 0 -85.5 -4t-92.5 -16.5t-87.5 -31.5t-62.5 -53t-25 -78q0 -73 49.5 -131t122 -91t164 -54.5t165.5 -29t136 -7.5h58l2 2q32 54 55 91t62 93t72.5 94t80.5 81.5t91.5 69.5t100.5 43.5t113 17.5q49 0 82.5 -17.5 t54.5 -62.5v-39q0 -64 -33.5 -128.5t-88 -117t-110 -92.5t-112.5 -70q-22 -9 -43 -14h2q-60 -22 -67 -29l2 4q-32 -47 -98 -141t-97 -141q-45 -64 -123 -142q37 -20 151 -46q102 -23 152 -23h11q90 14 162 53.5t151 108.5q17 15 36.5 4t14.5 -33q-14 -64 -66.5 -118 t-118.5 -85t-131 -48t-114 -17q-153 0 -356 104q-237 -117 -512 -117q-30 0 -48 0.5t-53.5 3.5t-59 8.5t-53 17t-47 28t-30 42t-12.5 58.5zM90 143q0 -26 11 -47t27 -34t42.5 -22.5t47.5 -14t53 -6.5t48 -2.5t43 -0.5q279 0 508 119h9q99 -51 182 -78.5t170 -27.5 q46 0 106 15t122 43.5t110 77t61 107.5q-88 -74 -161.5 -115t-168.5 -55q-7 -1 -16 -1q-58 0 -188 41q-150 47 -150 69v2q96 91 135 147l195 283q8 10 30.5 19.5t50.5 17.5t36 12q55 28 107.5 65.5t104.5 86.5t83.5 109t31.5 120v31q-25 57 -106 57q-54 0 -107 -17t-96 -42 t-87.5 -67.5t-76 -79t-69.5 -91t-60 -90t-53 -88.5q-2 -2 -6 -8t-6 -8h-74q-53 0 -115.5 6t-140.5 20t-149 40.5t-131 62.5t-96 91.5t-36 123.5q0 51 27.5 91t68 62t95 36.5t100.5 19t92 4.5q127 0 240.5 -36.5t255.5 -109.5h4q-25 56 -88 96.5t-142 60.5t-148.5 29 t-131.5 9q-57 0 -110 -7t-109 -25.5t-97 -47.5t-67.5 -77t-26.5 -109q0 -57 18.5 -105t48 -83.5t76 -65t92.5 -48.5t107 -34t110 -23.5t112 -14t102 -7.5t90 -4q-4 -5 -4 -7q-4 -7 -23 -36t-20 -31l-168 -303q0 -2 -6 -2h-2h-2l8 14q-9 -3 -12 -14q-170 45 -363 45 q-348 0 -348 -148zM121 147q0 80 201 109h67q226 0 391 -68q-39 -44 -96 -72.5t-125 -41.5t-123 -17t-125 -4h-71q-119 21 -119 94zM168 131q0 -42 90 -63h70q289 0 411 92q-151 49 -333 49h-64q-174 -28 -174 -78zM1195 1076q0 -1 3 -1v2q-3 0 -3 -1zM1305 705 q42 86 100 192q3 5 9 16q20 36 32 56t37 55t46.5 54.5t51.5 35.5t61 16q34 0 44 -10t10 -43q0 -59 -76 -148.5t-168 -155.5t-139 -68h-8zM1378 735q92 44 197.5 150.5t105.5 175.5q0 13 -4.5 17.5t-17.5 4.5q-30 0 -60 -18.5t-55 -49t-45 -61t-39 -62.5q-4 -8 -6 -11 q-4 -11 -6 -15q-39 -70 -70 -131z" />
<glyph unicode="M" horiz-adv-x="2639" d="M27 225q0 65 39 112.5t102 47.5q62 0 112 -43.5t50 -105.5q0 -32 -30 -66t-60 -52l-29 -18q17 -17 55 -24.5t68 -7.5q93 0 184.5 41.5t153.5 111.5l612 670q74 79 243.5 183t256.5 104q19 0 27 -14t-1 -31l-411 -721q-59 -118 -131 -269q-20 -32 -23 -61q32 5 75.5 44 t65.5 67.5t60 78.5q4 6 11 16t9 13q53 75 169 237.5t169 237.5q47 65 108 129.5t137 128.5q75 64 163 102q85 38 162 38h4q19 0 27 -14.5t-1 -31.5l-465 -827q-69 -125 -69 -182q0 -51 86 -51q75 0 163.5 45t160 111.5t119.5 147.5t48 148q0 39 -30 39q-53 0 -108 -42.5 t-81 -96.5h2l-92 -191q-10 -22 -34.5 -16t-24.5 31v28q0 86 45 177t126 155t171 64q64 0 99.5 -44t35.5 -108q0 -101 -57.5 -201.5t-145.5 -174t-194.5 -119.5t-202.5 -46q-118 0 -183 73.5t-65 193.5q0 134 49 229q23 48 71 139t64 121l-4 -4l-346 -508 q-155 -229 -305 -229q-80 0 -125 70t-45 149q0 151 111 338q14 23 141 235q-71 -83 -216 -253t-216 -253h2q-105 -129 -253.5 -218t-299.5 -89q-76 0 -145 28t-116.5 88t-47.5 140zM41 242q0 -70 42.5 -123t104.5 -78t131 -25q142 0 284.5 86.5t244.5 210.5l440 516 q82 91 133 115v-2q0 -4 -2 -8l-231 -387q-107 -179 -107 -322q0 -68 37 -128t103 -60q134 0 280 215l346 508q27 40 70 90.5t78 79.5q0 -6 -6 -22t-9 -21l-213 -414q-45 -83 -45 -215q0 -106 57 -170.5t160 -64.5q91 0 192.5 43.5t185 112.5t138 163.5t54.5 189.5 q0 51 -27.5 86t-77.5 35q-82 0 -155.5 -58.5t-114.5 -142t-41 -163.5v-29l92 191q29 61 91 108t124 47t62 -69q0 -72 -51.5 -158.5t-127.5 -157.5t-170.5 -119.5t-173.5 -48.5q-116 0 -116 82q0 69 73 197l465 827v4q-75 0 -158 -38.5t-156 -100t-131.5 -124.5t-103.5 -126 l-337 -475q-2 -2 -33 -44t-50.5 -64t-52.5 -56t-63.5 -50.5t-58.5 -16.5q-19 0 -19 22q0 32 27 84l131 268l411 721h-2q-84 0 -246.5 -101.5t-228.5 -174.5l-612 -670q-67 -74 -164.5 -119t-196.5 -45q-21 0 -44 3t-51 10.5t-46 25.5t-18 43q5 2 13.5 5t30 14t38 24t30 33 t13.5 41q0 50 -40 84.5t-91 34.5q-50 0 -80.5 -38.5t-30.5 -90.5z" />
<glyph unicode="N" horiz-adv-x="2115" d="M43 332q0 98 48 187t124 150t171 96.5t189 35.5q56 0 107 -11t98.5 -35t76 -69.5t28.5 -107.5q0 -75 -34 -148t-88.5 -127t-127.5 -87.5t-148 -33.5q-172 0 -204 127v35q0 61 26.5 110t71.5 80.5t94 51.5t105 32q23 4 33 -15t-5 -36q-14 -16 -33.5 -31.5t-33.5 -23.5 t-43 -23q-68 -38 -89 -59q-32 -34 -32 -80q0 -26 23 -39.5t55 -13.5q70 0 146 41.5t127.5 109.5t51.5 138v22q-23 78 -145 78q-80 0 -164.5 -29.5t-154 -80t-114 -125.5t-44.5 -158q0 -71 44.5 -122t107 -73t132.5 -22q123 0 239 70.5t189 181.5q17 25 50 79t49 80v-2 q34 65 103.5 197t103.5 197q17 31 26.5 48.5t31 52.5t38.5 57t43 50.5t51 44.5t56 27q28 10 58 10h5q19 0 27.5 -15t-1.5 -32q-63 -97 -63 -190q0 -94 35 -197q14 -41 45.5 -130t46.5 -130v2q16 -40 16 -119q0 -34 -8 -96q28 45 80 162l121 278q-66 75 -66 175q0 33 13 82.5 t35 98.5t57 83.5t73 34.5q31 0 51 -20.5t25 -51.5v-37q0 -67 -12 -121l-41 -166q22 4 63 25l-2 -2q14 7 29 10q17 3 28.5 -8.5t8.5 -28.5q-10 -48 -61.5 -76t-106.5 -32l-104 -252q-4 -10 -32.5 -66t-41.5 -78v2q-22 -39 -65 -99t-104 -119.5t-99 -59.5q-12 0 -21.5 9.5 t-9.5 21.5q0 178 -33 260q-15 37 -47 112.5t-47 112.5q-47 112 -47 242v4q-38 -90 -137 -340q-79 -195 -252.5 -322t-382.5 -127q-106 0 -199 42.5t-153 127t-60 193.5zM57 348q0 -100 55.5 -177.5t141.5 -116t184 -38.5q198 0 364.5 121.5t241.5 308.5l168 418l56 101v-7 q-27 -103 -27 -188q0 -120 45 -229l94 -226q16 -40 24.5 -92.5t9.5 -86.5t1 -93q33 0 88 56.5t94 112.5t60 93q13 23 40 76t29 59l111 269l2 8q7 -1 14 -1q39 0 85 20q54 23 61 63h-6q-5 -2 -19.5 -8.5t-22 -9.5t-19.5 -7t-22.5 -6t-21.5 -2q-16 0 -24 4l-4 4l53 197 q12 54 12 112v33q-3 20 -15 32.5t-30 12.5q-41 0 -77 -52t-53 -113t-17 -103q0 -94 71 -168l-2 -8l-127 -289q-86 -203 -164 -266v4q2 9 10.5 49t11.5 57t7 47.5t4 55.5q0 72 -14 106l-92 260q-37 101 -37 207q0 102 67 207v4q-28 0 -56 -11.5t-49.5 -26t-46.5 -43.5 t-39.5 -47t-36.5 -54.5t-29 -49t-25 -46.5l-207 -394l-98 -159q-75 -121 -197 -194t-258 -73q-78 0 -147.5 25.5t-118.5 83.5t-49 139q0 72 31 139.5t82.5 118t117 89t137 58t139.5 19.5q153 0 177 -102v-29q0 -78 -56.5 -153.5t-140 -120.5t-160.5 -45q-45 0 -76.5 21 t-31.5 63q0 49 28 85.5t63 55t80 44.5t68 52q-52 -11 -96 -29t-86 -46.5t-66 -71.5t-24 -97v-26q26 -105 174 -105q140 0 253.5 112.5t113.5 252.5q0 54 -25.5 93t-68.5 59.5t-89 30t-96 9.5q-119 0 -234 -55.5t-191.5 -158t-76.5 -224.5zM1798 905q0 45 16 97t46 73h4 q3 0 6 -2.5t4.5 -6.5t2.5 -7.5t2 -8.5t1 -6v-38q0 -148 -49 -220q-33 53 -33 119zM1845 889q0 -19 4 -43q17 57 17 143v8q-21 -53 -21 -108z" />
<glyph unicode="O" horiz-adv-x="1329" d="M68 395q0 150 71.5 295t185.5 250.5t262 170.5t294 65q18 0 57.5 -5t92.5 -16t90 -35q36 -23 36 -53q0 -15 -14 -25q-12 -8 -27 -4q-99 31 -145 31q-76 0 -158.5 -42t-154.5 -110.5t-138 -157t-113 -180t-74.5 -181.5t-27.5 -160q0 -75 38.5 -125t111.5 -50q104 0 194 52 h-2q83 49 168.5 125t159.5 165t125 190.5t61 192.5q-2 45 -23 78t-61 33q-79 0 -183.5 -79.5t-178.5 -188t-74 -187.5q0 -34 31 -34q48 0 94.5 33t77.5 79l135 195q13 19 34 11.5t21 -30.5q0 -61 -56 -152t-141 -161t-157 -70q-68 0 -103.5 42t-35.5 114q0 123 81 247 t206.5 202.5t248.5 78.5q98 -1 146 -71q42 -62 42 -142q0 -12 -1 -24q-21 -151 -99.5 -296.5t-190 -254.5t-253.5 -175.5t-283 -66.5q-115 0 -200.5 61t-127.5 156.5t-42 208.5zM82 412q0 -105 39 -193.5t118 -145.5t183 -57q187 0 364 105t294.5 282t136.5 377q1 14 1 28 q0 67 -32 117q-40 60 -125 60q-87 0 -179 -45t-163.5 -114.5t-117.5 -160.5t-46 -178q0 -58 27.5 -91.5t81.5 -33.5q66 0 143.5 64.5t128.5 148.5t51 140v4l-135 -197q-35 -52 -88 -89.5t-109 -37.5q-29 0 -45 18t-16 48q0 62 48.5 148t118.5 159.5t153.5 125.5t146.5 52 q59 0 88 -41q27 -38 27 -94v-8q-5 -95 -56 -201t-128.5 -198t-166.5 -169.5t-178 -130.5q-96 -55 -209 -55q-88 0 -134 58t-46 147q0 72 29 165.5t78 188.5t117.5 187t144 163t161.5 114.5t166 43.5q55 0 156 -33h4q0 28 -60 47.5t-112 25t-78 5.5q-113 0 -228 -39.5 t-213 -111t-175.5 -163.5t-121.5 -205.5t-44 -229.5z" />
<glyph unicode="P" horiz-adv-x="1933" d="M35 254q0 80 58.5 145.5t139.5 65.5q60 0 114 -53.5t54 -114.5q0 -47 -34 -93t-84 -46q-23 0 -43 10q-3 1 -8 2.5t-8.5 2.5t-6.5 1q-27 0 -27 -8q0 -44 53 -68t107 -24q63 0 129 23.5t115 64.5q-148 151 -148 338q0 121 45 228.5t120.5 186t172.5 136.5t204 88t212 32 l8 9q23 22 43 36t65.5 37t119 38.5t170.5 21.5q13 1 22.5 -8t9.5 -23v-27q0 -12 -8 -21t-20 -9q-55 -2 -90 -16t-68 -50q81 -15 153.5 -45.5t134.5 -78.5t99 -119t37 -156q0 -90 -54.5 -193t-138 -186t-191 -138t-206.5 -55q-136 0 -164 121v43q0 80 47.5 162.5t125.5 136.5 t159 54h8q23 0 30.5 -21.5t-11.5 -34.5q-7 -5 -22.5 -14t-22.5 -14q-51 -35 -78 -55.5t-64.5 -56.5t-55 -74.5t-17.5 -82.5q0 -13 0.5 -21.5t2.5 -19t7.5 -16t13.5 -4.5q49 3 104.5 46.5t101.5 109t84.5 139.5t60.5 144.5t22 117.5q0 95 -64 160.5t-161 70.5 q-43 -67 -84 -135l-215 -504q-82 -188 -224 -307q4 0 16 -1t17 -1q64 0 184 55h19q12 0 21.5 -9t9.5 -21q0 -37 -26 -62.5t-67 -36t-72 -14.5t-59 -4q-34 0 -88 12q-46 12 -61 12q-193 -94 -377 -94q-87 0 -165 30t-132.5 96.5t-54.5 158.5zM49 270q0 -82 50 -141.5t121 -86 t151 -26.5q167 0 366 95h4q25 0 76.5 -12.5t79.5 -12.5q24 0 50.5 3t62 10.5t58 26.5t22.5 46h-11q-120 -55 -192 -55q-44 0 -107 18q172 112 269 334l215 504l94 153h8q115 0 190.5 -74.5t75.5 -187.5q0 -62 -37 -160.5t-93 -192t-130.5 -162.5t-140.5 -73 q-24 -2 -37.5 14.5t-16.5 35t-3 43.5q0 29 7.5 56.5t18.5 49t30.5 45t36 39t43.5 36.5t44.5 33t47.5 32t44 30h-8q-73 0 -144 -49.5t-114 -124t-43 -147.5v-37q22 -96 133 -96q125 0 257 86t217 213t85 241q0 85 -41 155.5t-108 115.5t-144.5 71.5t-159.5 34.5q44 62 93 89 t122 30v26q-87 -6 -154.5 -20t-109 -33t-64 -32.5t-43.5 -33.5t-24 -22q-102 -2 -205.5 -30.5t-198.5 -84t-169 -130.5t-118 -178t-44 -218q0 -189 162 -338q-54 -57 -131.5 -88t-157.5 -31q-64 0 -127.5 32t-63.5 91q0 20 18 29.5t40 9.5q13 0 33.5 -8t31.5 -8 q37 0 62.5 36t25.5 72q0 51 -43.5 94.5t-93.5 43.5q-69 0 -118.5 -56t-49.5 -125zM545 461q0 120 49 239.5t131 212.5t198.5 151t241.5 58h2q-57 -59 -143 -213l-244 -503q-12 -26 -56.5 -96t-61.5 -87l-13 -10q-56 53 -80 111t-24 137zM592 444q0 -122 74 -204 q22 27 58 84.5t46 78.5l-2 -2q40 84 122 252t122 252q31 60 102 164q-143 -20 -264.5 -115t-189.5 -231t-68 -279z" />
<glyph unicode="Q" horiz-adv-x="1978" d="M43 -33q0 115 244 115h24q184 -11 402 -59h8q116 20 253 132t244 255.5t179.5 297t72.5 253.5v32q-18 66 -92 82h-35q-123 0 -276.5 -68.5t-284 -174t-220 -245.5t-89.5 -270q0 -38 22 -58.5t62 -20.5q78 0 186.5 57t203.5 139t162 181t67 176q0 47 -39 47 q-52 0 -104.5 -26t-95 -66t-82 -93t-67 -102t-49.5 -98q-3 -6 -12 -12.5t-16 -6.5h-2q-15 -6 -33 -6q-15 0 -24 12t-5 27q19 71 68.5 151t115 149.5t148 115t158.5 45.5q67 0 109 -48t42 -116q0 -100 -74 -214.5t-180.5 -203.5t-230 -148t-219.5 -59q-115 0 -170.5 73.5 t-55.5 188.5q0 130 61.5 257t162.5 224.5t227.5 169t257.5 101.5q121 27 213 27q251 0 348 -158q74 -129 74 -293q0 -138 -45 -233q-55 -117 -161.5 -218.5t-228 -169.5t-259.5 -114q122 -8 186 -8q286 0 438 86q17 10 72 61q106 98 141 98q31 0 46.5 -17.5t-3.5 -45.5 q-75 -146 -251 -222.5t-433 -76.5q-205 0 -469 45h-18q-265 -49 -445 -49h-9q-24 0 -39.5 0.5t-45.5 3t-50 9t-41.5 17t-32.5 29t-11 43.5zM57 -16q0 -72 187 -72h5h7q186 0 438 49h29q265 -44 475 -44q25 0 50 1q227 6 380.5 77t216.5 204q6 7 0 12.5t-16 5.5 q-16 0 -55.5 -32.5t-83 -73t-60.5 -50.5q-94 -53 -204 -71.5t-248 -18.5q-92 0 -365 21q115 24 231.5 69t227 110.5t201 157t139.5 195.5q44 103 44 220q0 19 -2 39q-8 139 -69 239q-36 59 -98.5 94t-137.5 43q-44 5 -88 5q-30 0 -59 -2q-73 -6 -145 -23 q-127 -29 -249 -97.5t-219 -162t-156.5 -215t-59.5 -246.5q0 -102 48 -167t146 -65q91 0 209.5 56.5t220.5 141t173 193t71 203.5q0 56 -33.5 94.5t-87.5 38.5q-72 0 -149.5 -43.5t-138.5 -109t-107.5 -141.5t-65.5 -144h5q7 0 16.5 2.5t13.5 3.5q30 66 69.5 130t94 129 t123.5 105t139 40t70 -78q0 -81 -70.5 -185.5t-170 -191.5t-213.5 -147t-195 -60q-54 0 -84.5 29.5t-30.5 81.5q0 109 60 226t158 215t215.5 177.5t241.5 124.5t226 45h41q98 -19 117 -106v-39q0 -70 -34.5 -169t-91.5 -203.5t-136 -209t-163 -188t-177.5 -138t-175.5 -61.5 h-17q-237 50 -395 60h-25q-213 0 -213 -84zM98 -16q0 45 170 45q52 0 72 -2l248 -41v-2q0 -1 -46.5 -7t-107 -12.5t-94.5 -9.5q-29 -4 -90 -4q-152 0 -152 33zM145 -33q0 -2 121 -2q57 0 86 4q35 4 45 4q-9 1 -23 3.5t-20 3.5q-18 2 -69 2q-140 0 -140 -15z" />
<glyph unicode="R" horiz-adv-x="2103" d="M41 258q0 79 49.5 143t128.5 64q66 0 114 -46t48 -112q0 -68 -39.5 -105.5t-103.5 -43.5q0 -82 159 -82q122 0 205.5 67.5t155.5 194.5q33 61 99 185t99 184q73 141 191.5 252.5t259.5 150.5q-222 -14 -401.5 -110.5t-294.5 -278.5q-95 -158 -95 -264q0 -40 18 -56.5 t64 -29.5q15 -21 15 -25q2 -6 2 -22q0 -12 -9.5 -21.5t-21.5 -9.5q-80 -1 -142 69q-59 66 -59 141v7q8 113 55.5 214.5t121.5 177.5t168.5 137.5t199.5 100t210 59t204 20.5q47 0 65 -2q48 -4 80 -7t88 -12t94.5 -20.5t85 -33t75 -48.5t48 -67.5t19.5 -90.5q0 -42 -12 -79 t-29.5 -63.5t-47.5 -51t-54 -39.5t-61.5 -31t-58.5 -23t-55 -18q-10 -3 -21 -5t-16 -2.5t-9.5 -2.5t-6.5 -7q4 -17 33 -59h-2q45 -67 45 -115q0 -36 -13.5 -73t-28 -61t-40.5 -60v2q-64 -91 -64 -146q0 -32 56 -32q98 0 193.5 67t136.5 158q6 14 20.5 17.5t26.5 -5.5 q18 -14 22.5 -23t-0.5 -36h2q-18 -68 -93.5 -133t-161.5 -101t-146 -36q-121 0 -199 77t-78 197q0 45 21.5 97.5t40 80t55.5 78.5q28 36 41 59q-12 0 -25.5 -1t-29.5 -2.5t-25 -2.5q-123 -6 -125 -6q-74 0 -74 70q0 25 18 46.5t46 20.5h41q92 0 162 -2q42 -7 69 -18 q19 20 53.5 59.5t53.5 59.5h-2q63 74 63 182v37q-10 86 -137 98q5 -9 1 -21t-15 -18q-214 -115 -312 -328q-16 -38 -67.5 -153.5t-77.5 -177.5q-85 -199 -269.5 -321t-402.5 -122q-65 0 -132 17t-127.5 50t-99 91t-38.5 131zM55 274q0 -65 35.5 -116.5t91.5 -81t118 -45 t122 -15.5q209 0 385 116.5t258 307.5l145 332q52 120 129.5 199t196.5 143h-12q-90 0 -176 -34t-156.5 -92t-127 -128.5t-97.5 -150.5l-199 -369q-74 -137 -163.5 -208t-223.5 -71q-96 0 -149 35q-42 28 -42 80q0 14 3 29q60 0 100.5 30t40.5 89q0 54 -38.5 90.5 t-92.5 36.5q-65 0 -106.5 -54.5t-41.5 -122.5zM498 524v-7q0 -62 49 -118q52 -59 121 -59v2q0 2 -2 14t-2 13q-54 15 -74.5 34t-20.5 70q0 118 99 281q248 405 796 405h92q163 -16 177 -127v-41q0 -119 -70 -203l-123 -135q-52 21 -80 25q-70 2 -157 2h-41q-14 1 -23.5 -11 t-9.5 -26q0 -39 43 -39q41 0 123.5 6t124.5 6v-4q0 -21 -26.5 -60.5t-58.5 -79t-58.5 -95.5t-26.5 -107q0 -106 69 -174.5t176 -68.5q56 0 135.5 33t149.5 92.5t86 121.5q4 15 -16 31q-40 -101 -144 -174.5t-211 -73.5q-86 0 -86 64q0 41 23 86t50 79t50 81.5t23 91.5 q0 37 -38 95.5t-38 88.5v4q4 8 34 19t71 22.5t88 34t86.5 50.5t65.5 75t26 106q0 34 -11.5 64t-28.5 52t-46.5 40.5t-55 30.5t-65.5 22.5t-66.5 16t-69 11t-62 7t-56.5 4.5q-31 2 -64 2q-67 0 -139 -10q-107 -14 -215 -48.5t-207.5 -93.5t-178 -134t-129 -177t-58.5 -217z " />
<glyph unicode="S" horiz-adv-x="1531" d="M37 352q0 105 49 201.5t127.5 164.5t179.5 108t203 40q118 0 212.5 -63t115.5 -176v-54q0 -110 -62 -207t-162.5 -153.5t-210.5 -56.5q-99 0 -157 50.5t-58 147.5q0 88 55 157.5t136 104.5t166 35q2 0 17 1t23.5 0t21 -4t18.5 -11.5t6 -22.5v-28q0 -12 -9.5 -21.5 t-21.5 -9.5q-29 0 -41 2q-24 4 -33 4q-95 0 -168 -66.5t-73 -160.5q0 -63 55 -78h31q81 0 168 46.5t146.5 125.5t59.5 162q0 75 -55 120.5t-135 45.5q-85 0 -174 -34.5t-161 -92t-117.5 -140t-45.5 -170.5v-34q17 -71 79 -121.5t136.5 -72t151.5 -21.5q86 0 171.5 23.5 t159 67.5t119.5 116.5t46 160.5v8q0 40 -5 60q-12 42 -33.5 130t-33.5 130h2q-16 67 -16 115q0 131 97 234.5t228 103.5q56 0 106.5 -16.5t89 -58t38.5 -102.5q0 -59 -40.5 -97t-99.5 -38q-60 0 -95.5 33.5t-35.5 93.5q0 64 62 99q-14 2 -33 2q-57 0 -92 -39t-35 -97 q0 -12 1.5 -24t3 -22t5.5 -23.5t6 -21t8.5 -22t8.5 -20.5t10.5 -22t10.5 -20t11.5 -21.5t10.5 -20.5q41 -74 62.5 -131t21.5 -119q0 -106 -47.5 -199.5t-125.5 -158.5t-176.5 -112.5t-200.5 -70t-198 -22.5q-86 0 -170 24t-155.5 70t-115.5 121t-44 168zM51 369 q0 -85 41.5 -154.5t108 -111.5t145.5 -64.5t160 -22.5q76 0 157.5 15.5t162 45t152 76t126.5 103.5t87 133t32 160q0 59 -25 123t-55 112t-55 111.5t-25 120.5q0 72 43.5 119t114.5 47q26 0 57 -9t31 -30v-2q-86 -28 -86 -90q0 -45 27.5 -71t72.5 -26q46 0 77.5 30t31.5 75 q0 50 -33.5 84t-77.5 47.5t-92 13.5q-119 0 -207 -94t-88 -213q0 -59 14 -106l68 -261q4 -13 4 -75q0 -77 -32 -143.5t-85 -112.5t-121.5 -79.5t-142 -49t-145.5 -15.5q-86 0 -166.5 23t-147.5 79.5t-84 137.5v41q0 125 81.5 234.5t203.5 171t244 61.5q93 0 157 -54.5 t64 -142.5q0 -91 -65 -177t-159 -136.5t-182 -50.5h-37q-79 13 -79 108q0 106 82.5 182t189.5 76q12 0 37 -3t37 -3v29q0 6 -60 6q-76 0 -148.5 -31t-122.5 -93.5t-50 -141.5q0 -82 49.5 -125t134.5 -43q102 0 195.5 52.5t151 142.5t57.5 192v47q-19 101 -105 158t-192 57 q-130 0 -251.5 -63t-199.5 -176t-78 -244z" />
<glyph unicode="T" horiz-adv-x="1902" d="M63 528q0 114 48.5 217.5t129.5 180t183 133.5t212.5 86t215.5 29q93 0 190.5 -20t229.5 -58q10 -3 27.5 -8t23.5 -7q105 46 188 71.5t170 25.5q154 0 154 -99q0 -48 -42 -89.5t-103.5 -69t-132 -47t-127 -28.5t-89.5 -9q-71 0 -114 8q-41 -36 -127 -146 q-61 -81 -114 -168q-53 -86 -93 -190q-36 -92 -36 -160q0 -8 1 -16q3 -55 38 -76.5t99 -21.5q91 0 198 52.5t194 131t148 175t67 179.5q1 28 -17.5 44t-48.5 16q-55 0 -109.5 -26.5t-99 -69.5t-79 -92t-58.5 -101q-16 -32 -32 -74t-13 -45q14 -13 8.5 -31t-25.5 -22 q-10 -2 -38 -2q-12 0 -21.5 9t-9.5 21q0 121 61 240.5t170 199t234 79.5q78 0 126 -49t48 -126q0 -85 -31 -166.5t-84 -147t-123.5 -121t-149 -93t-162 -58t-161.5 -20.5q-165 0 -260.5 111.5t-95.5 277.5q0 71 22.5 140.5t59 127.5t87.5 113.5t104.5 98.5t113.5 82 q-26 9 -72 32q-172 78 -287 78q-121 0 -225.5 -71t-163.5 -182.5t-59 -231.5q0 -47 11 -92t32.5 -84t58.5 -62.5t84 -23.5l27 2q19 4 59 14t60 14h14q20 0 28.5 -15t-1.5 -32q-52 -80 -183 -80q-136 0 -237 102.5t-101 239.5zM78 545q0 -125 91.5 -218.5t215.5 -93.5 q113 0 156 66h-9l-122 -29q-23 -2 -29 -2q-73 0 -124 46.5t-72 110.5t-21 136q0 94 38 187.5t101.5 166t153 117.5t186.5 45q128 0 299 -80q121 -55 121 -59v-2q-80 -47 -149.5 -103t-132.5 -126.5t-99.5 -156.5t-36.5 -175q0 -153 88 -256t238 -103q89 0 185 27.5t184 79.5 t157.5 121t111.5 160t42 188q0 63 -40 103t-104 40q-117 0 -219 -74.5t-158.5 -186.5t-56.5 -226q23 0 33 2q-2 2 -2 8q0 15 10 55q14 57 33 93q26 55 63 106.5t84.5 97.5t106.5 73.5t119 27.5q44 0 72 -25q25 -23 24 -60v-8q-6 -87 -70 -189t-155.5 -184.5t-204 -138 t-207.5 -55.5q-77 0 -120.5 28.5t-47.5 98.5q-1 9 -1 19q0 105 70 246q76 154 179 290q86 114 145 160q49 -10 121 -10q40 0 112 13.5t153 37.5t139.5 67.5t58.5 94.5q0 67 -123 67q-60 0 -125.5 -15.5t-111 -33t-117.5 -49.5q-17 5 -77.5 22t-83 23t-73.5 18.5t-82.5 17 t-75 9t-83.5 4.5q-101 0 -207 -27.5t-204.5 -81.5t-176 -126.5t-124 -171t-46.5 -207.5zM1397 1049q130 94 272 94q86 0 86 -41q0 -70 -201 -70q-141 0 -153 12zM1495 1047h76q170 0 170 38q0 11 -55 11q-91 0 -191 -49z" />
<glyph unicode="U" horiz-adv-x="1779" d="M68 649q0 88 39 171t104.5 146t146.5 111.5t168.5 73.5t167.5 25h49q91 -15 143 -79t52 -159q0 -118 -59 -227q-19 -34 -56 -102.5t-55 -102.5l-186 -291q-45 -79 -45 -125q0 -33 24 -33q42 0 93.5 29t96 71.5t78 80t52.5 65.5q29 45 127.5 202.5t148.5 235.5v-2 q30 53 89.5 161t88.5 161l-2 -2q7 15 21.5 48t21.5 48q3 6 12.5 12.5t16.5 6.5q9 0 76 -15q30 -10 59 -10q25 0 55 10q57 15 70 15q12 0 21.5 -9.5t9.5 -21.5l-4 -19l-500 -837v2q-70 -123 -70 -183q0 -38 45 -38q171 0 369 280q22 31 34 63.5t14 50.5t5 56v14q0 29 5 34 t34 5q33 0 47.5 -28.5t14.5 -59.5q-2 -90 -49.5 -183t-121 -165.5t-171 -119t-193.5 -46.5q-47 0 -82 16.5t-54.5 41t-32 62.5t-16.5 71t-5 76q-86 -86 -129 -127q-56 -55 -130 -97.5t-137 -42.5q-42 0 -76 20t-54 50t-34 69.5t-19 75t-5 68.5q0 155 88 301l270 434 q17 25 17 57q0 13 -11.5 23.5t-25.5 13.5h-29q-117 0 -235.5 -74.5t-194.5 -191.5t-76 -233q0 -78 66 -78q15 0 33 4q15 3 25.5 -6.5t10.5 -24.5v-37q0 -12 -9 -21t-21 -9l-13 -2q-3 0 -9.5 -1t-8.5 -1q-53 0 -91.5 20t-59 55t-30 76.5t-9.5 91.5zM82 666q0 -93 37.5 -153 t122.5 -60q4 0 14 1l10 1l6 2v37q-22 -5 -39 -5q-50 0 -73 30t-23 79q0 92 48.5 188.5t124 171t173.5 122.5t191 48h35q61 -14 61 -67q0 -41 -20 -74l-271 -434q-84 -138 -84 -285q0 -39 8 -79t24.5 -80.5t49.5 -66.5t76 -26q62 0 128 39t118 92l180 177q2 -127 12 -173 q28 -135 148 -135q121 0 238 73t189.5 185.5t75.5 225.5q0 57 -30 57q-6 0 -7 -1t-1 -7q0 -2 -1 -19t-1.5 -20t-1.5 -18t-2.5 -20t-4 -18.5t-5 -20t-7 -19.5t-10 -22.5t-12.5 -21.5t-15 -24q-39 -55 -75 -97t-88 -91.5t-111.5 -77t-118.5 -27.5q-76 0 -76 70q0 69 74 196 l496 832l4 8h-2q-19 0 -60 -12t-63 -12t-67 12t-68 12l-43 -96l-179 -322l-276 -438q-18 -28 -53.5 -68t-83.5 -85t-105 -76t-104 -31q-56 0 -56 63q0 64 50 142l186 291l111 202q55 98 55 213q0 82 -45.5 138t-124.5 69h-43q-96 0 -201 -38t-193 -102t-145 -158.5 t-57 -196.5z" />
<glyph unicode="V" horiz-adv-x="1921" d="M63 584q0 109 60.5 218.5t154 190.5t210 132.5t223.5 52.5h7q36 0 66 -10q34 -11 54.5 -25t41.5 -41t29.5 -42.5t24.5 -45.5q33 -64 47 -64h1q36 0 134 131q8 10 21.5 26t15.5 19q11 15 33 11q47 -13 98 -13q95 0 158 31q21 10 35.5 -6t3.5 -37l-434 -762 q-23 -39 -82.5 -107.5t-126.5 -125.5q118 43 269 156t271 234t191 220q-51 36 -51 113q0 53 33.5 121t91 120t116.5 52q74 0 74 -80q0 -78 -55 -168q28 22 49 22q18 0 33 -35.5t0 -44.5l4 2q-128 -119 -197 -124q-81 -115 -171 -217t-203 -199t-231 -166.5t-256 -111.5 t-276 -42h-34q-22 0 -29 19.5t8 34.5l187 180q15 14 38 50.5t97 171.5t227 423q-91 -80 -168 -80q-32 0 -56.5 10.5t-38.5 25t-25.5 41t-16.5 45.5t-12 52q-7 31 -11.5 46t-14 36t-24 30t-34.5 9q-89 -1 -196 -91t-179 -214.5t-72 -220.5v-31q5 -16 16 -27t25 -10 q77 8 143 48t107.5 91.5t73 111.5t45 101t18.5 68q5 18 19 22q16 7 24 7q12 0 21.5 -9.5t9.5 -21.5q0 -85 -31.5 -175.5t-85.5 -166.5t-135 -125t-172 -49q-93 0 -142 58.5t-49 154.5zM78 600q0 -82 40.5 -132t119.5 -50q84 0 159 46t125 117.5t79.5 156.5t29.5 165l-13 -4 q-4 -22 -15 -56.5t-32 -84t-55 -98t-76.5 -93t-104 -75t-130.5 -37.5q-31 -4 -50.5 14t-25.5 51v33q0 102 77 234t191 227t209 96q46 0 71 -30.5t34.5 -73.5t19.5 -86.5t36 -74t73 -30.5q29 0 58.5 12t59.5 36t49.5 42t48.5 49.5t38 40.5q0 -9 -33 -92q-167 -315 -249 -465 t-105.5 -187.5t-40.5 -53.5l-187 -181h35q136 0 272.5 42t252 111t227 165t199.5 197t167 214q1 5 4.5 6.5t10 0.5t21 4t33.5 15t52.5 35t73.5 62q4 3 -3.5 14t-13.5 11q-12 -1 -65 -46q-52 -44 -71 -44h-1h-2q12 28 44 80.5t51.5 97t19.5 88.5q0 49 -43 49q-51 0 -102 -46 t-80 -107t-29 -109q0 -75 63 -100q-44 -65 -121.5 -151.5t-177.5 -178.5t-203 -169.5t-207.5 -127t-180.5 -49.5h-7v6q89 47 180.5 141.5t125.5 153.5l434 762h-2q-65 -33 -168 -33q-58 0 -107 14q-6 -6 -49 -62t-81 -92q-37 -35 -64 -34h-2q-20 0 -36 17.5t-27.5 43 t-29 54.5t-38 54.5t-57 41.5t-83.5 16q-137 -2 -280 -81.5t-239.5 -211.5t-96.5 -270zM1569 854q0 38 27.5 91.5t70 95t78.5 42.5q2 0 4 -4q0 -54 -29 -110q-56 -110 -100 -174l-2 -4q-49 5 -49 63zM1616 838q0 -22 8 -25q29 44 86 154q14 36 19 59q-41 -24 -77 -85 t-36 -103z" />
<glyph unicode="W" horiz-adv-x="2465" d="M72 537q0 98 46 203.5t119.5 189t174.5 138t202 54.5q110 0 177 -55l18 -20q40 -43 61 -53q17 -9 37 -9t43.5 9.5t38.5 18.5t42.5 33.5t34.5 31.5l36 36q8 8 22 8q12 0 52 -10q16 -4 28 -4q55 0 129 29q15 6 28 -3t13 -26q0 -5 -8 -29l-207 -475q-67 -146 -142.5 -250.5 t-185.5 -212.5q170 112 367 330l-2 -2q70 88 210.5 264t209.5 264q59 81 70 105q6 12 18 16q173 41 262 41q19 0 27.5 -13t1.5 -30l-348 -751q-50 -106 -156 -215q169 76 318 220t268 322q41 64 41 66q-68 39 -68 133q0 39 16 87.5t42.5 93t67.5 74.5t85 30q48 0 67 -25.5 t19 -73.5q0 -74 -37 -159l14 14q5 8 11.5 12t9.5 4h14q23 0 37 -19.5t14 -47.5q-13 -16 -32.5 -32t-33 -25t-39.5 -25t-34 -21q-40 -22 -41 -24q-67 -113 -148 -219t-186 -210t-216.5 -180.5t-244.5 -124t-264 -47.5q-12 0 -21 9.5t-9 21.5l2 16q49 61 118 166t95 162 q32 72 76.5 171.5t89.5 201.5q-48 -63 -189 -242l-180 -192q-132 -140 -288 -229t-322 -89h-31q-22 0 -30 18t7 33q187 191 252 334l273 572q-152 -129 -252 -129q-52 0 -89 30.5t-75 83.5q-24 31 -34.5 43.5t-32.5 27.5t-44 15q-62 0 -120.5 -64t-96.5 -153t-61 -176 t-23 -141q0 -34 16 -55t48 -21q75 0 146.5 63t113 149t41.5 159q0 4 -1 8t-1 8q-2 8 -2 37q0 12 9.5 21.5t21.5 9.5q10 0 49 -11q4 -1 9 -8t7 -12q8 -27 8 -74q0 -95 -52.5 -197t-144 -173.5t-190.5 -71.5q-96 0 -144 72t-48 170zM86 553q0 -85 40.5 -148t121.5 -63 q91 0 175 66.5t132.5 162t48.5 183.5q0 45 -6 65q-20 8 -37 8q0 -11 2 -28t2 -25q0 -59 -28 -129.5t-72.5 -130.5t-107 -100.5t-124.5 -40.5q-47 0 -70.5 29.5t-23.5 76.5q0 57 25 149t67 186.5t107 162t133 67.5q30 0 55.5 -15t43 -37t37 -48t37.5 -48t44 -37t57 -15 t64 11.5t68 35t58 41t59 49t46 39.5q6 4 8.5 5t3 1t2.5 -1t5 -1q0 -18 -13.5 -52t-21.5 -44l-270 -570q-67 -147 -258 -342h30q158 0 309 86t279 222l178 190l338 434v-2l-262 -594q-25 -55 -93.5 -159.5t-117.5 -165.5l-2 -7h6q130 0 259.5 46t237 120t209 175.5 t178.5 205.5t142 217q3 5 78.5 51t97.5 72v6q0 7 -6 14t-14 7t-10 -4q-63 -66 -119 -90q29 56 42 83.5t28.5 78t15.5 92.5q0 33 -12 50t-43 17q-73 0 -127 -87.5t-54 -166.5q0 -40 19.5 -72t56.5 -44v-3q0 -10 -55 -96q-347 -520 -758 -606q3 3 47.5 37t46.5 37 q126 116 181 233l348 752q-81 0 -254 -41q-16 -32 -72 -109l-420 -528q-121 -133 -238 -229q-118 -97 -188 -135q-62 -34 -91 -34q-4 0 -7 1q20 19 65.5 62.5t61.5 59t51.5 51t50 53.5t42.5 51.5t43.5 59.5t38.5 63t42 76.5t39 86.5l209 481q0 1 2 5t2 5v2q-80 -32 -139 -32 q-13 0 -39 7t-41 7h-4q-39 -42 -62.5 -64.5t-67 -47.5t-83.5 -25q-20 0 -36 4.5t-32 16.5t-25 20.5t-27 27.5t-26 27q-51 41 -147 41q-95 0 -190 -51.5t-165 -131t-113.5 -179.5t-43.5 -193zM2103 909q0 62 43.5 138.5t100.5 76.5q12 0 14 -10v-20q0 -39 -16.5 -89 t-30.5 -79t-43 -82q-5 -10 -8 -15h-9q-28 0 -39.5 24.5t-11.5 55.5zM2150 893q0 -36 11 -47q3 6 16 30.5t17.5 34t15 31t15 35t10.5 32t9 34.5t3 32q-39 -12 -68 -74t-29 -108z" />
<glyph unicode="X" horiz-adv-x="2271" d="M45 53q0 29 15 40t44 11h19q117 -14 217 -14q205 0 356.5 66t259.5 221l-4 -8q15 20 29 43q32 45 53 82h-192q-20 0 -32.5 14t-12.5 35q0 20 11 34.5t34 14.5q43 1 117.5 3t117.5 3q22 50 70 157.5t70 157.5q20 45 20 91q0 38 -29.5 58.5t-72.5 20.5q-107 0 -219 -58.5 t-197.5 -148.5t-140 -204t-54.5 -219q0 -45 21 -76t61 -31q28 0 117 29q41 0 41 -37q0 -32 -31 -53t-62 -27t-57 -6q-91 0 -151 67.5t-60 159.5q0 129 67 258.5t171.5 225t237 155.5t258.5 60q65 0 114.5 -20t80 -51.5t51 -79.5t29 -94.5t13.5 -105.5q37 33 111 99.5 t111 99.5q72 65 163 106.5t179 41.5q48 0 92.5 -14t79 -50t34.5 -88q0 -66 -52 -120t-118 -54q-55 0 -91 37t-36 90q0 20 9 39t17.5 28.5t27.5 28.5q-61 -4 -129.5 -43t-122.5 -90q-29 -29 -90 -93t-90 -93q-93 -93 -129 -152h141q-8 0 6 14q174 201 342 215q8 1 15 0 q39 0 69 -17q36 -21 54 -58.5t26 -77t8 -82.5q0 -110 -57.5 -224.5t-147.5 -202t-206.5 -143t-227.5 -55.5q-75 0 -127 23t-80.5 67.5t-42 93.5t-20.5 117q-374 -295 -801 -295h-14q-155 0 -215 17q-68 20 -68 61zM59 70q0 -9 7.5 -16t22 -12t31 -8.5t38.5 -5.5t40.5 -3.5 t41 -1.5h36.5h30.5h19.5q443 0 827 325q3 -50 8 -85.5t15 -77t27.5 -69.5t42.5 -52t63.5 -36t87.5 -12q141 0 283.5 87.5t233.5 226.5t91 280q0 52 -10.5 96t-43.5 78q-30 31 -74 31h-11q-55 -4 -109 -29t-93.5 -58t-70.5 -65.5t-50 -54.5t-21 -22h-189q0 57 148 205 l180 184q61 59 138.5 101t148.5 42q37 0 45 -4v-2q0 -12 -20 -31.5t-40 -43t-20 -46.5q0 -40 27.5 -68t68.5 -28q54 0 96.5 44.5t42.5 98.5q0 60 -54.5 90.5t-121.5 30.5q-84 0 -169.5 -38.5t-151.5 -100.5l-269 -242v13q-2 44 -6 78t-12 74.5t-20 70.5t-31.5 59.5t-45.5 48 t-63.5 30t-83.5 11.5q-121 0 -248 -57t-226.5 -148.5t-163.5 -214.5t-64 -247q0 -79 51.5 -138t128.5 -59q37 0 78 13t41 42q0 6 -6 6h-4q-78 -28 -117 -28q-57 0 -85 39t-28 98q0 110 57.5 229.5t146.5 214t207 156t230 61.5q56 0 94.5 -28.5t38.5 -81.5t-22 -102 l-146 -334l-258 -6q-14 0 -14 -19q0 -18 14 -18h236v-4q0 -15 -22 -51t-47 -71t-27 -40q-112 -162 -269.5 -230.5t-371.5 -68.5q-105 0 -222 14h-14q-29 0 -29 -20zM1219 250q0 75 22.5 162t65.5 129l2 4q57 2 77 2q8 0 55 1t54 1q-65 -92 -65 -207q0 -94 59 -147v2 q0 16 -5 47t-5 49q0 45 30.5 149t61.5 105l176 6q3 0 6.5 6.5t3.5 9.5q0 4 -3.5 11.5t-6.5 7.5h-145l2 8q26 64 117.5 126t160.5 62h25q57 -12 57 -108q0 -103 -50 -215t-129.5 -201t-186 -147t-212.5 -58h-36q-68 14 -99.5 67.5t-31.5 127.5zM1266 233q0 -60 26.5 -105 t79.5 -58h31q132 0 261 91.5t207.5 229t78.5 268.5q0 63 -29 78h-23q-52 0 -121 -41.5t-108 -93.5h94q11 0 26 -20t15 -29q0 -10 -14 -28t-25 -19q-25 -1 -87 -3t-89 -3q-22 -4 -42.5 -94t-20.5 -130q4 -29 6 -45q4 -32 4 -53t-18 -28.5t-33 6.5q-34 31 -52 78t-18 92 q0 92 43 176q-15 0 -34 -1t-21 -1q-58 0 -55 6q-40 -39 -61 -120t-21 -153z" />
<glyph unicode="Y" horiz-adv-x="1869" d="M66 100q0 115 47 215t126 168t183 107t217 39h16q59 0 72 -2q29 49 88.5 146.5t87.5 146.5v-2q51 94 51 133q0 19 -24 26h-29q-122 0 -231.5 -92.5t-165.5 -214.5q0 -9 -4 -27q-1 -6 -5 -22t-6 -24.5t-6.5 -23t-8.5 -22.5t-10 -16.5t-13.5 -12.5t-16.5 -4q-16 1 -28 13 q-9 9 -9 22v35q0 126 67 236.5t180 176.5t241 66q112 0 176.5 -65t64.5 -178q0 -84 -34 -165t-93 -175q-6 -11 -21.5 -37t-21.5 -37l-2 -2q2 -5 35 -23q3 -2 11.5 -8t11.5 -8.5t11 -8t11 -9t8.5 -9t8 -10t5.5 -10.5t4 -12t1 -13q0 -47 -45 -47q-15 0 -23 8q-2 2 -6 5.5 t-6 5.5h2q-44 41 -76 63q-44 -75 -110 -201q-17 -24 -17 -47q0 -14 31 -14q74 0 154 71t135 152q38 56 114.5 168.5t114.5 169.5q49 73 107.5 198.5t97.5 233.5q13 13 31 13q30 0 71 -13l-2 2q50 -10 56 -10q17 0 45 8q4 1 25.5 7t33.5 6q18 0 26.5 -14t0.5 -32l-418 -866 l-133 -225q-107 -175 -305 -276t-406 -101q-217 0 -355 113.5t-138 324.5zM80 117q0 -99 35.5 -178t98.5 -128.5t146.5 -75.5t182.5 -26q200 0 390.5 97.5t293.5 265.5l133 225l418 864q-16 0 -51 -10t-54 -10q-20 0 -61.5 10t-63.5 10q-4 0 -6 -2q-37 -104 -96 -229 t-109 -199l-229 -338q-35 -52 -80 -101.5t-110.5 -92.5t-122.5 -43q-29 0 -45.5 9t-16.5 36q0 32 23 65q16 32 46.5 85t54.5 93t26 41l2 7q8 -9 10 -9q40 -28 104 -86q15 0 15 17q0 18 -27 39t-54.5 41t-27.5 34q6 11 8 15q13 24 43 73.5t47 80t37 74t29.5 85.5t9.5 84 q0 98 -56.5 155.5t-154.5 57.5q-120 0 -225.5 -61.5t-168 -165t-62.5 -221.5v-35l6 -4q6 0 15.5 29.5t17.5 65.5t10 40q28 60 71 116.5t97.5 103t121.5 75t134 28.5h37q25 -6 36 -18.5t11 -38.5q0 -47 -56 -147l-186 -314q-31 8 -104 8q-144 0 -267.5 -61.5t-199.5 -176.5 t-76 -259zM139 86q0 125 65.5 237t176.5 180t235 68q53 0 84 -8v-2q0 -33 -25.5 -102t-25.5 -107q0 -53 12 -101t46.5 -87t87.5 -39q76 0 159 58.5t133 127.5l170 238l17 -12l-273 -480q-80 -136 -212 -218.5t-283 -82.5q-153 0 -260 89.5t-107 240.5zM186 70 q0 -136 98 -217.5t238 -81.5q143 0 267.5 78.5t201.5 207.5v-2q17 29 50 87t49 87q-58 -63 -133.5 -107t-145.5 -44q-49 0 -85 25t-55 65.5t-27.5 82.5t-8.5 85q0 14 3.5 32t6 27t10.5 33l9 27q15 37 20 67q-16 2 -51 2q-117 0 -220.5 -63.5t-165 -168.5t-61.5 -222z" />
<glyph unicode="Z" horiz-adv-x="2301" d="M47 119q0 51 41.5 93t101.5 66.5t132.5 41.5t129 23.5t95.5 6.5q134 0 330 -37q75 51 180 191q-40 1 -121 2t-121 2q-17 1 -32 21.5t-15 33.5q0 17 15 37.5t36 20.5h332q4 6 66 84h-72q-81 14 -140 73.5t-59 141.5q0 33 15 66.5t31 54t42 49.5q26 26 31 34h-4 q-74 0 -161.5 -58.5t-156 -142.5t-115 -181t-46.5 -171q0 -56 47 -129q10 -13 18 -32q6 -17 -3 -30t-26 -13q-40 0 -71.5 27.5t-48.5 68t-26 79.5t-9 68q0 109 58 221.5t148 197.5t205 139.5t222 54.5q87 0 132.5 -47.5t45.5 -135.5q0 -76 -47 -147q0 1 -2.5 0t-12.5 -8l5 2 q-6 -6 -23 -21t-27 -24t-21 -21.5t-16 -21.5q10 4 66 4q92 0 115 20q31 43 97.5 134.5t98.5 134.5q119 159 226 159h22q36 -10 53 -35.5t17 -56.5q0 -51 -35.5 -107.5t-88 -103.5t-117.5 -91.5t-118 -73.5t-96 -48l2 4q-7 -8 -42 -52.5t-54 -68.5h213q94 132 225.5 213.5 t284.5 81.5q107 0 169 -67q60 -65 60 -167v-7q-2 -111 -44.5 -211.5t-113.5 -176t-162.5 -136.5t-194 -99.5t-205.5 -59t-199 -20.5q-156 0 -269 39l-286 96q-241 -116 -443 -116q-264 0 -264 131zM61 135q0 -100 234 -100q200 0 440 119h2l297 -101q105 -37 258 -37 q93 0 193 19.5t199 56.5t187.5 95.5t157 130.5t109.5 168t43 202v7q1 89 -51 145q-54 58 -148 59q-146 0 -272 -79.5t-217 -209.5l-6 -6h-113q-148 0 -174 2l6 8l125 160l10 6q39 16 89.5 43t113 68.5t113.5 86t86 97.5t35 101q0 50 -39 61h-23q-93 0 -200 -147l-197 -269 q-26 -33 -139 -33q-99 0 -99 25l4 8q7 13 17.5 26.5t24.5 27.5l23.5 23.5t25 23t18.5 16.5q33 49 33 119q0 72 -38 111.5t-110 39.5q-102 0 -211 -51t-195 -132t-141 -187.5t-55 -210.5q0 -26 7 -59.5t21 -69t39.5 -60t57.5 -24.5h2q-6 9 -18 28t-17 27.5t-13 25t-11.5 28.5 t-6.5 29.5t-3 35.5q0 104 80.5 242t202.5 239.5t226 101.5h5h6h6t6.5 -1t6 -1.5t5 -2.5t3.5 -4t2.5 -5.5t0.5 -7.5q-2 -17 -33.5 -51t-61 -77t-29.5 -85q0 -70 51.5 -120.5t122.5 -63.5h43q16 0 44 2t44 2h4l-4 -4l-115 -146h-348q-8 0 -14.5 -9.5t-6.5 -16.5q0 -5 6 -15 t11 -10l305 -6q-5 -6 -39.5 -50t-49 -61t-44.5 -50t-56 -54t-53 -37h-2q-207 39 -330 39q-37 0 -90 -5.5t-120.5 -20.5t-124 -36.5t-95.5 -58t-39 -80.5zM109 143q0 28 26.5 46.5t68.5 26t70 9.5t54 2q71 0 104 -6l219 -43v-4q0 -29 -155.5 -58.5t-214.5 -29.5h-21 q-22 -1 -31.5 -0.5t-31.5 2t-34 5.5t-26.5 10t-21 16t-6.5 24zM156 127q0 -27 129 -27h12q32 0 141 14t166 29q-31 6 -87.5 17t-74.5 14q-31 6 -98 6q-188 0 -188 -53zM606 408q3 0 3 2t-3 2v-4zM913 289q130 121 238 256l4 4h37q84 0 264 -4q-37 -102 -37 -160 q0 -63 39.5 -103t102.5 -40q94 0 184 59t147.5 152t63.5 188q1 17 -9 22.5t-22 -1.5t-16 -21q-5 -29 -20.5 -68.5t-45 -88.5t-67 -89.5t-92.5 -68.5t-117 -29q-92 0 -92 90q0 26 15 92t32 66h196q10 0 15.5 8t5.5 18q0 27 -15 27l-168 6v2q48 66 109.5 115t121 74.5 t109.5 37t91 11.5q66 0 102.5 -39t36.5 -107q0 -103 -49.5 -205.5t-128 -178.5t-181.5 -123.5t-204 -47.5q-64 0 -90 9zM993 291l494 -123q29 -10 92 -10q96 0 193 45t171.5 117t121 168.5t46.5 193.5q0 54 -28 84.5t-80 30.5q-80 0 -181.5 -42.5t-185.5 -138.5 q18 -1 53.5 -2t53.5 -2q23 -3 33 -20.5t10 -36.5q0 -23 -13.5 -40t-37.5 -17h-197q-6 0 -11 -52.5t-5 -74.5q0 -60 61 -60q56 1 106.5 26t84.5 61t60.5 79.5t39.5 78t18 60.5q11 41 49 57q37 16 54 -12q9 -14 8 -38q-6 -102 -68 -201.5t-160 -163t-198 -63.5 q-76 0 -124 48.5t-48 125.5q0 56 25 129q-148 4 -222 4l-24 -2q-65 -86 -191 -209zM1128 797q0 2 2 2zM1384 844q10 18 72 103.5t70 99.5q2 2 14 17.5t17 21.5t18 22t21.5 23.5t21.5 20.5t24 19.5t23.5 14.5t25.5 11t25 3h13q10 -10 10 -24q0 -37 -45.5 -93.5t-105.5 -106.5 t-119 -88.5t-85 -43.5zM1497 911q84 58 152.5 126.5t74.5 113.5q-23 -3 -52 -26t-50.5 -47t-45.5 -53q-5 -6 -7 -9q-12 -21 -66 -94q-2 -2 -3.5 -6t-2.5 -5z" />
<glyph unicode="[" horiz-adv-x="434" />
<glyph unicode="\" horiz-adv-x="96" d="M61 41q7 0 11 4l4 4l-6 -24zM78 57v2l2 2z" />
<glyph unicode="]" horiz-adv-x="509" d="M63 1155q0 12 9.5 21.5t21.5 9.5h275q12 0 21 -9.5t9 -21.5l4 -1290q0 -12 -9 -21.5t-21 -9.5h-271q-12 0 -21 9.5t-9 21.5l-4 88q0 12 9 21.5t21 9.5h117q0 89 -1 261.5t-1 262.5v526h-117q-12 0 -21 9.5t-9 21.5zM78 1171l2 -90h147q0 -185 1 -555.5t1 -556.5h-147 l4 -88h270l-4 1290h-274z" />
<glyph unicode="^" horiz-adv-x="763" d="M63 954q0 12 13 25l272 217q14 14 35 2l305 -199q5 -3 9.5 -11.5t4.5 -14.5l5 -135q0 -20 -16.5 -28.5t-33.5 3.5l-282 203q-44 -37 -129 -108.5t-129 -108.5q-15 -14 -33 -6t-18 30zM78 971l2 -131l276 231l303 -217l-4 135l-305 199z" />
<glyph unicode="_" horiz-adv-x="1282" d="M106 -285q0 12 9.5 21.5t21.5 9.5h1008q12 0 21.5 -9.5t9.5 -21.5v-127q0 -12 -9.5 -21t-21.5 -9h-1008q-12 0 -21.5 9t-9.5 21v127zM121 -268v-127h1007v127h-1007z" />
<glyph unicode="`" horiz-adv-x="96" d="M39 1028l16 12l-6 -28q-2 2 -5.5 8t-4.5 8zM55 1049v2l2 2z" />
<glyph unicode="a" horiz-adv-x="1222" d="M78 270q0 83 51.5 162t128 132.5t164.5 85.5q85 32 158 32h4q57 -1 91.5 -22.5t55.5 -63.5q5 9 14.5 26.5t14.5 26.5t15.5 14.5t19.5 2.5l24 -7h-2q58 -12 82 -12q7 0 90 15q8 2 31 2q19 0 27.5 -14.5t-0.5 -31.5l-228 -419l2 2q-39 -80 -39 -115q0 -6 -2 -6q51 1 108 56 t136 157q3 4 9 11t9 11q6 11 29 45q10 16 18.5 19.5t24.5 3.5q22 0 34.5 -12.5t12.5 -34.5v-23l-71 -96q-163 -235 -316 -235q-42 0 -73 11.5t-50.5 35t-30.5 46.5t-22 58q-61 -61 -90 -92q-33 -32 -82 -52t-92 -20q-81 0 -140.5 43.5t-87.5 111t-28 146.5zM92 287 q0 -110 60 -190.5t165 -80.5q93 0 152 62l131 135q2 -8 8.5 -29t9.5 -30t9.5 -27.5t12 -27t14 -22.5t18.5 -20.5t22.5 -14t28.5 -10.5t35 -3q134 0 291 223l65 88v12q0 17 -16 17q-12 0 -17 -7l-28 -45q-101 -130 -141 -169q-82 -82 -150 -82q-16 0 -21.5 8.5t-5.5 27.5 q0 37 41 127l228 420v2q-92 -18 -121 -18q-25 0 -113 18h-2l-59 -116h-2q-24 130 -140 133h-5q-66 0 -146 -28q-82 -30 -154.5 -79.5t-121 -122.5t-48.5 -151zM250 104v15q0 40 16 71l84 183l66 114q85 146 172 146q40 0 59 -29.5t19 -75.5q0 -114 -66 -221l-76 -117 q-89 -137 -192 -137q-69 0 -82 51zM297 96q7 -28 51 -28q85 0 166 122l76 117q61 103 61 205q0 74 -47 74q-72 0 -145 -129q-10 -18 -33 -57t-33 -58l2 2q-13 -30 -43 -92.5t-43 -91.5q-12 -24 -12 -58v-6z" />
<glyph unicode="b" horiz-adv-x="1003" d="M51 240q2 115 47 248.5t120 255t165.5 223.5t192 164.5t190.5 66.5h39q80 -16 80 -106q0 -199 -426 -543q-4 0 -62 -45q-134 -252 -149 -418q0 -20 2 -20q39 0 110.5 32t114.5 72q-6 30 -6 63q-1 7 -1 16q0 36 12 84q14 59 39.5 117t70.5 99t98 41q38 0 56 -27.5 t18 -66.5q0 -161 -158 -338q16 -4 31 -4q38 0 86.5 40.5t80 81t60.5 84.5q6 27 41 27q19 0 33 -14t14 -43q-19 -38 -50 -82t-73 -88.5t-93 -73.5t-99 -29q-72 0 -109 29q-72 -55 -137 -86t-137 -31q-201 0 -201 271zM66 256q0 -240 170 -240q50 0 102.5 20.5t87 43.5 t86.5 63h2q2 -5 10 -12.5t34 -17t60 -9.5q43 0 89.5 26.5t84 66.5t66 80t45.5 75v6q0 6 -5 10.5t-11 4.5q-13 0 -13 -6q-20 -32 -44 -64.5t-60 -73t-76 -65.5t-76 -25q-53 0 -75 31q172 184 172 342q0 63 -43 63q-60 0 -107 -62.5t-67 -136.5q-16 -61 -16 -106q0 -9 1 -18 q0 -24 3 -41t6 -23.5t2 -9.5q-43 -46 -129 -86.5t-132 -40.5q-16 0 -23 7.5t-8 16t-1 29.5q15 174 157 437v2q7 4 33 23t29 22q418 331 418 520q0 65 -56 76h-30q-85 -4 -182.5 -64.5t-184.5 -159t-159 -216.5t-115 -247.5t-45 -240.5zM389 614l127 232q21 34 47 72t68 94 t84 91.5t71 35.5q10 0 15.5 -9.5t5.5 -21.5q0 -39 -32 -97q-33 -59 -85 -119t-101.5 -110.5t-94.5 -89.5q-4 -4 -16 -13t-17 -13q24 29 28 32q102 88 201.5 206t102.5 186q-33 -9 -87 -72t-87.5 -112.5t-59.5 -92.5v2q-14 -26 -31 -51.5t-41.5 -58.5t-35.5 -48 q-58 -43 -60 -43h-2zM514 254q0 27 12 74t31 95.5t49 83.5q29 34 60 34h2q7 0 10 -11v-26q-3 -74 -47.5 -159.5t-108.5 -139.5q-8 19 -8 49zM561 256q97 116 103 231q-37 -20 -66.5 -94.5t-36.5 -136.5z" />
<glyph unicode="c" horiz-adv-x="862" d="M66 246q1 72 41 150.5t103 141.5q64 64 150 103q75 34 149 34q11 0 23 -1h35q66 -9 104 -49.5t38 -108.5q0 -63 -31.5 -104t-95.5 -41q-55 0 -88 34.5t-33 90.5q-16 -23 -41 -58v2q-31 -52 -77.5 -153.5t-53.5 -153.5q1 -32 25.5 -49.5t58.5 -17.5q72 0 139.5 42 t112.5 107v-2q80 116 96 137q13 23 39 23q23 0 36 -15t13 -34q0 -15 -1.5 -19.5t-8.5 -11.5l2 6q-11 -17 -33.5 -50t-34.5 -50q-5 -7 -14 -20.5t-14 -20.5q-60 -88 -152.5 -140.5t-196.5 -52.5q-118 0 -204 81t-86 200zM80 262q0 -105 77.5 -177.5t182.5 -72.5 q96 0 181.5 49.5t142.5 131.5q71 101 96 139q2 2 2 8q0 7 -5.5 12.5t-13.5 5.5q-11 0 -14 -10q-29 -38 -96 -135q-49 -70 -123 -116t-154 -46q-47 0 -80.5 27t-33.5 76q6 54 52.5 154.5t82.5 162.5q100 152 174 152q0 -20 -12 -32t-26 -17t-26 -20t-12 -40q0 -42 24.5 -69 t65.5 -27q48 0 72.5 32.5t24.5 81.5q0 54 -30.5 86.5t-84.5 40.5h-33q-10 1 -19 1q-69 0 -141 -32q-80 -36 -139 -95t-96.5 -132t-38.5 -139z" />
<glyph unicode="d" horiz-adv-x="1329" d="M25 225q0 111 77.5 214.5t190.5 164t219 60.5q117 0 166 -70q48 95 145.5 284.5t145.5 284.5q9 17 26 17h238q19 0 27.5 -14t-0.5 -31l-504 -971q-25 -45 -25 -84q0 -10 8 -10q30 0 63 20t68 59.5t55 65.5t52 72q19 28 30.5 43t27 28t28.5 13q30 0 44.5 -17.5t-1.5 -46.5 q-56 -121 -171.5 -229.5t-203.5 -108.5q-137 0 -190 150q-73 -73 -136 -111.5t-149 -38.5q-98 0 -164.5 78t-66.5 178zM39 242q0 -88 58 -157t143 -69q24 0 48 5t42 10.5t41.5 20t36 22t37 29.5t32 29t34.5 33.5t32 31.5h2q12 -77 54.5 -129t115.5 -52q81 0 188.5 104.5 t159.5 219.5q4 7 -1 11.5t-15 4.5q-8 0 -31 -31t-54.5 -75t-68.5 -88.5t-82.5 -75.5t-87.5 -31q-22 0 -30.5 10t-8.5 31q0 46 29 99l504 970h-238l-317 -622q-37 106 -166 106q-100 0 -205.5 -56t-178.5 -152t-73 -199zM188 94v23q0 46 33.5 128.5t83.5 164t116 142 t122 60.5q37 0 53 -33q14 -29 14 -64v-9q-2 -63 -32.5 -140.5t-78.5 -147t-116.5 -116.5t-138.5 -47q-46 0 -56 39zM236 82q5 -12 24 -12q64 0 127 44t107 108.5t72 137.5t30 132q2 28 -6.5 50.5t-30.5 22.5q-51 0 -111 -56.5t-105.5 -133.5t-76 -154.5t-30.5 -120.5v-18z " />
<glyph unicode="e" horiz-adv-x="798" d="M66 221q0 117 73.5 226t186.5 174t227 65h31q41 -10 65.5 -42t24.5 -75q-2 -45 -28 -90t-62.5 -79.5t-86 -67t-90 -53.5t-81.5 -39q-8 -11 -16.5 -51t-8.5 -62q0 -43 37 -43q76 0 197 121q73 88 116 157q23 29 45 29q23 0 36 -14t13 -33q0 -9 -6 -27l-82 -118v2 q-158 -232 -376 -232q-104 0 -159.5 73t-55.5 179zM80 238q0 -94 47 -158t137 -64q205 0 352 217l80 115q2 6 2 12q0 17 -18 17q-8 0 -16 -10q-49 -79 -123 -166q-36 -37 -63 -61t-71 -47t-85 -23q-68 0 -68 73q0 29 12.5 79.5t26.5 60.5q51 22 100.5 49.5t105 67t91 89 t37.5 99.5q0 31 -18.5 53.5t-49.5 30.5h-22q-80 0 -162.5 -36.5t-147.5 -95.5t-106 -139.5t-41 -162.5zM315 334q37 74 62 119q1 2 13.5 23.5t17 29t18 27.5t22 29t23 23.5t26.5 21.5t28 12.5t32 5.5h12q23 -7 23 -33q0 -43 -61.5 -106.5t-127 -107.5t-84.5 -44h-4zM395 377 q67 44 125 101t58 97v3h-5q-22 0 -43.5 -12.5t-41 -37t-31.5 -43t-27 -45.5q0 2 -2 -1t-5 -10l-3 -7q-4 -6 -9.5 -14t-9 -15t-6.5 -16z" />
<glyph unicode="f" horiz-adv-x="1185" d="M43 -311l172 356q-70 37 -109.5 105.5t-39.5 152.5q0 129 93 227.5t222 98.5q63 0 117 -21q28 59 49 100t58 106.5t70 111.5t79.5 98.5t92 85t102 54.5t114.5 22q48 0 76 -27.5t28 -77.5t-25.5 -106t-66 -106t-80.5 -89t-80 -69h3q-36 -30 -109 -91t-109 -90 q-34 -69 -91.5 -192t-92.5 -195q106 31 211.5 102.5t181.5 157.5v-2q-2 -4 -2 -12q-94 -100 -219 -177t-246 -99v2l222 456l217 181q87 66 163 163t76 183q0 35 -19.5 54t-53.5 19q-77 0 -152 -43.5t-124.5 -92.5t-110.5 -146t-83.5 -141t-69.5 -142q-8 -15 -11 -22 q-56 30 -131 30q-117 0 -201 -89t-84 -206q0 -80 42.5 -145t115.5 -96v-8l-183 -377h43q136 0 140 8l18 27l168 342l8 8q42 6 91 20t118.5 43.5t144 85.5t136.5 131q18 -20 36 -20q11 0 21 6q-58 -75 -132 -134.5t-147 -94.5t-129.5 -54.5t-107.5 -29.5q-27 -56 -83 -169.5 t-83 -168.5l-18 -27q-25 -20 -164 -20h-43q-19 0 -27.5 13t-1.5 30zM123 319q0 99 73 174.5t173 75.5q23 0 61.5 -7.5t38.5 -22.5v-4l-205 -416h-6q-57 0 -96 69t-39 131zM170 303q0 -46 26.5 -101t65.5 -67q33 67 95.5 193.5t95.5 193.5h-68q-88 0 -151.5 -66t-63.5 -153z M692 647q10 14 54 99t53 100q167 280 258 280q15 0 24 -11t9 -28q0 -105 -222 -303q-19 -19 -60 -53t-73 -59t-33 -25h-10zM795 729q34 29 67 62q79 70 146 148t67 132q0 8 -2 8q-71 0 -231 -266l-2 -2q-3 -4 -45 -82z" />
<glyph unicode="g" horiz-adv-x="1331" d="M74 -483q0 67 31 126.5t75 100t109.5 78.5t117.5 60.5t116 47.5l24 9q6 15 14 32t17.5 37.5t15.5 32.5q-102 -70 -182 -70q-109 0 -181.5 82t-72.5 189q0 78 32 149t85 123t121.5 90.5t143.5 58t148 19.5h55q88 -20 115 -88q2 4 31 47q9 14 24 14q9 0 28.5 -1t27.5 -1 q16 -2 51 -2q74 0 125 6q20 3 30 -12t1 -33q-53 -108 -135 -271t-126 -253q74 49 127 94h-2q6 6 24.5 25.5t31.5 32.5q50 50 92 86l-10 -7l32 43q15 15 19 21l-2 -2q13 20 37 20q49 0 49 -49v-22q-15 -15 -23 -19q0 -6 -2 -10q-6 -12 -12 -18l2 6q-5 -10 -8 -13 q-186 -234 -434 -348q-322 -549 -627 -565q-66 0 -100.5 42.5t-34.5 111.5zM88 -467q0 -55 26.5 -89t78.5 -34q287 15 604 559q250 113 432 342q10 15 12 17q8 10 25 30v11q0 18 -19 18q-9 0 -12 -8q-3 -3 -9 -11.5t-9 -11.5l-1 -2q-1 -1 -9.5 -11.5t-20.5 -25.5 q-4 -2 -29.5 -28t-61 -63t-48.5 -50q-37 -33 -113.5 -84t-102.5 -57h-4q198 386 306 608v4q-51 -10 -129 -10q-20 0 -54.5 2t-52.5 2h-6q-42 -81 -60 -121q-8 62 -32.5 99.5t-77.5 48.5h-49q-86 0 -174 -29.5t-161 -80.5t-119 -130t-46 -170q0 -94 64 -167t159 -73 q21 0 41.5 3.5t43 14.5t36.5 17.5t39.5 25.5t33 24.5t36 29t30.5 25.5v-6l-102 -226h-10q-170 -68 -241 -108q-214 -121 -214 -285zM125 -465q0 71 67 145.5t157.5 125t174.5 69.5h2q-218 -407 -360 -407q-25 0 -33 17.5t-8 49.5zM172 -481q0 -37 10 -37q36 0 78.5 32.5 t83.5 86.5t72 103t61 103q-118 -44 -211.5 -125.5t-93.5 -162.5zM340 127q0 74 59 195t147.5 218t158.5 97q73 0 73 -105q0 -94 -53.5 -204t-143.5 -190.5t-182 -84.5q-28 0 -43.5 20.5t-15.5 53.5zM387 111q0 -40 27 -43q84 7 167 82t133 177t50 189q0 74 -43 74 q-64 0 -145 -91t-135 -204.5t-54 -183.5z" />
<glyph unicode="h" horiz-adv-x="1204" d="M37 0q-8 14 0 31l332 669l106 168q34 52 82 105.5t106.5 104t126.5 82.5t128 32q48 0 76 -25.5t28 -72.5q-1 -60 -32 -125.5t-80.5 -124t-98.5 -104.5t-100 -85q-56 -44 -101 -69h2q-4 -3 -39 -23q-9 -18 -18 -39q96 78 178 78q67 0 111.5 -55.5t44.5 -124.5 q0 -73 -45 -150l-125 -200q-1 -1 -2 -3t-2 -3h2q41 0 90 37.5t82 80.5l174 219q1 0 0 -2l8 8t7 5t10 3.5t14 0.5q24 0 32.5 -10t8.5 -33q0 -19 -23 -51l-16.5 -22t-20.5 -28q-34 -47 -59 -79.5t-66.5 -78.5t-77.5 -74.5t-82.5 -50t-90.5 -22.5h-3q-75 0 -130 58 q-56 59 -56 137q0 68 35 121q22 32 71 99.5t72 98.5q6 9 6 19q-61 -8 -156.5 -106.5t-127.5 -166.5q-14 -27 -101 -198q-6 -15 -18 -31q-9 -14 -25 -14q-19 0 -47 4l-39 6q-19 0 -55 -4q-60 -6 -70 -6q-18 0 -26 14zM47 33h6q21 0 60.5 5t58.5 5q14 0 43 -5t43 -5h2 q71 146 115 227q35 76 145 183q108 106 175 106h1h13q10 -5 10 -19q0 -24 -14 -49l-144 -198q-29 -42 -29 -103q0 -66 46 -116q46 -49 109 -48h3q39 1 80.5 20.5t73.5 45t71.5 68.5t61.5 71.5t57 76t45 60.5q17 21 17 33t-11 12q-7 0 -22 -12l-166 -209q-38 -48 -93 -89.5 t-104 -41.5q-34 0 -34 25q0 4 2 9.5t4.5 11t3.5 7.5l125 201q41 70 41 133q0 57 -35.5 103.5t-89.5 46.5q-30 0 -61.5 -11.5t-63 -34.5t-54 -42t-53.5 -48.5t-43 -39.5l93 192l6 2q15 9 32 18.5t23.5 13.5t18.5 12t25.5 18t35.5 28q50 37 96.5 80.5t94 99t77.5 117t31 117.5 q0 32 -20 50t-54 18q-58 0 -122 -30.5t-119 -79t-100 -100t-75 -100.5l-110 -174zM567 664q26 49 80.5 149.5t81.5 149.5q102 180 174 180q16 0 22.5 -3t10.5 -14v-22q0 -55 -44.5 -129t-106.5 -136.5t-122 -111t-96 -63.5zM668 739q99 78 176.5 175.5t77.5 172.5v9h-2 q-54 0 -148 -164q-14 -24 -41 -74.5t-41 -75.5l-10 -20z" />
<glyph unicode="i" horiz-adv-x="745" d="M55 195q0 85 25 145l123 305q3 7 11.5 13t16.5 6q27 0 68 -13q27 -10 55 -10q51 0 125 29q22 7 35 -8t2 -35l-274 -516q-9 -15 -9 -39q40 0 87 32.5t81 73.5h-2q38 46 116 138.5t116 138.5q10 10 24 10h13q14 0 22 -8l17 -17q8 -8 8.5 -20t-6.5 -21l-230 -286 q-139 -144 -254 -144q-47 0 -82 22t-53 57.5t-26.5 72t-8.5 74.5zM70 211q0 -46 11 -87t44 -74.5t84 -33.5q103 0 229 131l230 287l-17 17h-12l-231 -277q-38 -45 -91.5 -81t-101.5 -36q-18 0 -23.5 5.5t-5.5 23.5q0 32 13 55l274 516h-2q-77 -30 -133 -30q-22 0 -62.5 11 t-60.5 11l-123 -305q-22 -56 -22 -133zM272 891q0 68 39 108.5t103 40.5q65 0 107 -40t42 -105q0 -63 -43 -103t-106 -40q-62 0 -102 38.5t-40 100.5zM287 907q0 -49 31 -78.5t79 -29.5q51 0 85 31t34 81q0 52 -33.5 83.5t-85.5 31.5q-50 0 -80 -32t-30 -87z" />
<glyph unicode="j" horiz-adv-x="1118" d="M27 -246q5 38 21 73.5t35.5 61t50 50t54 40t57.5 32t51 23.5t44 17h-2q18 9 20 4q42 88 126 265.5t126 265.5q6 20 19 51q0 1 3 8t6.5 14t6.5 11q8 20 29 20q8 0 82 4t92 4l31 -4q18 0 26 -14t0 -31l-192 -389q56 41 106 91.5t115 127.5q5 8 24 30.5t34.5 41t17.5 20.5 q20 14 25 16.5t18 2.5q43 0 43 -41q0 -19 -17 -39q-93 -114 -145 -171.5t-128 -121t-183 -131.5q-24 -45 -42.5 -78.5t-49.5 -81.5t-59 -83.5t-66 -74t-76 -64t-85 -43.5t-95 -21q-52 2 -90 32q-34 27 -34 69q0 6 1 13zM41 -233q-1 -5 -1 -9q0 -32 24 -51q26 -20 61 -20h6 q47 2 92.5 19.5t80.5 40.5t73.5 64.5t62.5 72.5t56 84.5t46.5 79.5t41.5 77l4 4q153 96 237.5 176.5t212.5 239.5q1 1 4 5t5 8t2 7q0 10 -13 10q-8 0 -16 -6q-14 -14 -78 -94q-89 -106 -155 -165.5t-171 -123.5l246 494v4h-31q-15 0 -88 -4t-86 -4q-1 -1 -2.5 -6t-3.5 -6 q-1 -4 -8.5 -21.5t-13.5 -33t-6 -19.5l-254 -535q-2 -3 -35 -15t-78 -32.5t-91 -51t-81.5 -80t-42.5 -109.5zM70 -236q0 68 94 144t176 100q-17 -34 -37 -68.5t-52 -81.5t-69 -81t-71 -43q-18 -6 -29.5 3t-11.5 27zM117 -252v-2q42 11 88.5 65t85.5 121q-70 -37 -122 -87.5 t-52 -96.5zM717 862q0 57 29.5 90t84.5 33q54 0 85.5 -32.5t31.5 -88.5q0 -49 -32.5 -84t-84.5 -35q-47 0 -80.5 34.5t-33.5 82.5zM731 879q0 -35 24.5 -60.5t59.5 -25.5q39 0 62.5 25.5t23.5 62.5q0 41 -23 65.5t-63 24.5q-39 0 -61.5 -25t-22.5 -67z" />
<glyph unicode="k" horiz-adv-x="1304" d="M45 35q14 30 36.5 83t31.5 72q164 384 325 639q231 367 473 367q24 0 45 -4.5t41 -15.5t30.5 -33t6.5 -53q-10 -56 -46 -120.5t-89 -125.5t-104.5 -111t-106.5 -96q-4 -3 -14.5 -10.5t-14.5 -10.5q-55 -33 -88 -69q-10 -9 -32 -41q157 115 301 115q27 0 58 -6.5 t61.5 -20.5t50.5 -39.5t20 -58.5q0 -47 -30.5 -83t-69.5 -54t-88 -29q35 -35 35 -90q0 -53 -58 -154v-2l-12 -16q25 0 54 14t51 30.5t54 50.5t47.5 52t47.5 57v-2q34 43 52 64.5t44 41.5t47 21q26 0 36.5 -10.5t10.5 -40.5q0 -14 -10 -24q-40 -33 -106 -117v2 q-43 -54 -72.5 -87t-74.5 -72.5t-93 -59t-100 -19.5q-77 0 -141 55.5t-64 131.5q0 52 51 118q-38 -10 -70 -10t-58.5 16.5t-27.5 49.5q-48 -48 -65 -86q-3 -8 -39.5 -97t-56.5 -133v2q-6 -20 -10.5 -23t-26.5 -3l-37 2h1l1 2q-6 3 -13.5 4.5t-15 2t-10.5 1.5q0 -1 -13 -2 t-31.5 -2t-25.5 -2h4q-29 -5 -54 -5q-11 0 -21 1q-17 2 -25.5 15t-1.5 28zM57 37q22 0 66.5 6t64.5 6q15 0 42 -6t40 -6q7 0 9 6q43 99 96 229q37 86 160 180t215 103q16 2 23 -3.5t7 -21.5q0 -39 -26.5 -83.5t-59.5 -57.5q-36 21 -90 21q-104 0 -104 -60q0 -20 17 -29.5 t38 -9.5q16 0 36 4t33.5 8.5t33.5 11.5t26 9q-2 -18 -41 -76.5t-39 -95.5q0 -64 53.5 -110t120.5 -46q53 0 104 26t94.5 69t80 87t77 92t70.5 72v7q0 14 -14 14q-20 -1 -53 -35.5t-71.5 -82.5t-81 -96.5t-94 -82t-99.5 -33.5q-31 0 -31 21v14q4 7 17 30t19.5 35t15.5 32 t13 37.5t4 33.5q0 71 -90 109q244 24 244 147q0 25 -17 44.5t-43 29.5t-51.5 15t-48.5 5q-103 0 -199 -54.5t-194 -143.5q44 120 102 178q12 13 27.5 26.5t27 21.5t34 22.5t32.5 21.5q119 98 218 215.5t116 216.5q1 5 1 9q0 33 -25 47q-28 16 -68 16q-228 0 -446 -353 q-54 -85 -99.5 -166t-86.5 -166.5t-68 -144.5t-71 -160t-67 -153v-2zM532 350q8 25 70 25q35 0 49 -4q-49 -27 -98 -27h-16q0 2 -2.5 3.5t-2.5 2.5zM543 643q0 10 4 14q5 14 41 82.5t53 96.5q4 6 45.5 71.5t52.5 81.5q101 153 170 160q20 0 26.5 -11.5t6.5 -33.5 q-1 -50 -46.5 -120.5t-110.5 -136t-129.5 -119.5t-112.5 -85zM592 422q10 2 29 2q61 0 92 -14q20 14 36 42.5t17 55.5q-77 -15 -174 -86zM639 725q112 89 199 190.5t90 171.5q0 13 -2 15q-52 -8 -146 -148q-15 -18 -61 -96q-7 -12 -15 -24t-14.5 -21t-7.5 -10h2 q-4 -7 -11 -19t-17 -29.5t-17 -29.5z" />
<glyph unicode="l" horiz-adv-x="919" d="M51 223v10q0 119 67 283q70 170 174.5 320.5t234.5 256.5t237 107h35q82 -17 82 -115q0 -62 -30 -130t-80.5 -130t-97.5 -108.5t-100 -89.5q-20 -10 -77 -56q-7 -6 -39 -30q-21 -11 -35 -21q-1 -1 -4 -3t-4 -3l-123 -287q-33 -80 -33 -131q0 -11 6.5 -20t16.5 -10 q5 -1 9 -1q23 -1 55 19q38 24 65 50.5t49 53.5q30 30 131 162q7 8 15.5 20.5t10.5 14.5l-2 -4q5 8 17.5 15t21.5 7q19 0 33 -13t14 -36q0 -28 -16 -37q-246 -348 -428 -348q-57 0 -97.5 19.5t-63 56t-32.5 79.5t-12 99zM66 240q2 -49 10.5 -87.5t27.5 -70.5t53.5 -49 t82.5 -17q171 0 407 342q6 2 6 13q0 18 -16 18q-9 0 -14 -10q-1 -2 -40.5 -52t-73.5 -92.5t-42 -50.5q-26 -31 -55.5 -59.5t-75.5 -54.5q-37 -21 -66 -20q-7 0 -14 1q-21 1 -33 20t-12 42q0 59 35 143l125 291l4 6q1 0 22 14t25 15q10 7 38.5 29t52 39.5t26.5 19.5 q50 41 95.5 86t94 103t77 122t28.5 121q0 71 -58 84h-28q-82 -1 -180.5 -67.5t-186 -174t-160.5 -231.5t-115 -251q-40 -121 -40 -213v-9zM395 610l125 238q2 3 38.5 59.5t49.5 75.5q1 2 19.5 27t26.5 35.5t28 33t34 33t32.5 20t35.5 9.5q19 0 19 -31v-7q-1 -61 -69 -163 q-72 -108 -167 -200.5t-161 -125.5zM494 684q108 88 203 213q91 120 91 189v6q-21 -5 -47 -29.5t-41.5 -45t-37.5 -52.5v2q-12 -16 -15 -19q-23 -35 -55 -86q-18 -23 -29 -45z" />
<glyph unicode="m" horiz-adv-x="1683" d="M76 221q8 18 45.5 80.5t54.5 87.5h-2q18 31 28.5 48.5t34 52.5t41 57t44.5 50.5t50.5 44.5t53 28t57.5 12q36 0 60.5 -15t37 -42.5t18 -55.5t7.5 -65q49 53 85.5 86t93.5 62.5t112 29.5h33q82 -22 94 -164q66 75 127.5 119.5t130.5 44.5q68 0 105.5 -65t37.5 -146 q0 -100 -49 -182l-104 -174v2q-17 -28 -17 -43h2q62 0 154 129q10 19 45 86t55 102q27 41 50 41q18 0 32.5 -14.5t14.5 -34.5q0 -17 -9 -31q-16 -29 -49.5 -92t-48.5 -92q-50 -80 -118.5 -139.5t-137.5 -59.5q-75 0 -123.5 78.5t-48.5 167.5q0 80 45 158l121 192q1 1 3 4 t3 4q-55 -21 -117.5 -87t-99.5 -130v2q-83 -151 -156 -338q-5 -11 -16 -20.5t-22 -9.5q-52 14 -101 14q-30 0 -96 -12q-20 -3 -31 10.5t-4 32.5l223 532q-68 -34 -151 -140.5t-117 -184.5l-113 -238q-5 -9 -15.5 -14t-20.5 -2q-56 18 -111 18q-37 0 -61 -12q-17 -9 -31.5 -1 t-14.5 27l5 21l206 498q-21 -21 -47 -60q-9 -15 -12 -18l2 4q-78 -100 -178 -270q-1 -16 -8.5 -24t-13.5 -8.5t-21 -0.5q-25 0 -36 11t-11 48zM90 225q0 -16 16 -16q13 0 13 8q96 168 184 283q60 78 90 102q31 25 56 25v-2q0 -1 -1.5 -4.5t-1.5 -4.5l-237 -567l-4 -12 q28 16 73 16q50 0 121 -20h2l111 237q26 58 79.5 135.5t125 146t123.5 75.5q7 1 8.5 -2t1.5 -11q0 -12 -2 -20l-234 -555v-2q53 14 103.5 14.5t99.5 -14.5h4q1 0 3.5 4t2.5 6q63 166 158 342q47 80 124.5 156.5t139.5 83.5q8 2 12.5 -2.5t4.5 -14.5q0 -26 -15 -45l-123 -192 q-41 -71 -41 -144q0 -78 40 -146.5t102 -68.5q61 0 122 55t107 130l98 182q5 7 5 16q0 7 -5.5 13t-11.5 6q-3 0 -7.5 -5t-7.5 -9l-3 -5l-105 -194q-107 -146 -180 -146q-33 0 -33 27q0 24 21 61l104 175q45 74 45 165q0 70 -29 125.5t-83 55.5q-17 0 -34.5 -4t-31.5 -9 t-32 -16.5t-29.5 -19t-30 -25t-27 -25t-27.5 -29.5t-24.5 -28t-25.5 -30t-23 -27q-3 115 -21 159q-19 45 -55 54h-24q-18 0 -36.5 -4t-33.5 -8.5t-34.5 -16t-31 -18.5t-31.5 -24.5t-28.5 -24.5t-29.5 -28.5t-26.5 -27.5t-27 -30t-24.5 -27l-17 -13q0 117 -16 161 q-23 60 -78 61q-34 0 -70.5 -21.5t-63 -47.5t-60 -72.5t-48.5 -70t-41 -67.5q-73 -113 -94 -158v-6z" />
<glyph unicode="n" horiz-adv-x="1290" d="M80 377q11 17 22 39q29 44 47.5 70.5t54.5 69.5t66 68t70.5 44.5t79.5 19.5q116 0 129 -186q1 1 88 82h-2q106 106 213 106h24q72 -23 105 -89.5t33 -147.5q0 -105 -60 -191l-94 -127q-32 -36 -35 -67q57 6 116.5 58t100.5 116l101 161q17 25 45 25q18 0 32.5 -14.5 t14.5 -34.5q0 -15 -6 -27q-86 -153 -136 -218q-129 -165 -278 -165q-82 0 -136 74.5t-54 165.5q0 35 8.5 67t29.5 68t32.5 53t41.5 58q4 5 16.5 22t17.5 23.5t14.5 21t14 23.5t10 21t7.5 22q-78 -20 -192 -162v2q-185 -237 -236 -424q-3 -12 -14 -17.5t-23 -2.5 q-78 20 -123 20h-26q-37 -11 -52 -18q-20 -10 -36 4.5t-7 34.5l226 507l-11 -10q-81 -81 -155 -194q-15 -15 -35 -15q-49 0 -49 64zM94 381q0 -21 19 -21q5 0 12 7q72 110 156 194q68 68 92 68h10l-266 -600q19 9 61 22h31q48 0 131 -22l2 4q50 185 238 430q147 176 241 176 q10 0 10 -10q-1 -36 -21.5 -76t-49.5 -76.5t-57 -74.5t-48 -84.5t-20 -92.5q0 -78 45.5 -143.5t114.5 -65.5q64 0 121.5 31t109.5 96t78.5 106.5t69.5 119.5q2 3 2.5 4l1.5 3t2 3.5t2 3.5q2 4 2 12q0 7 -5.5 13t-11.5 6q-11 0 -18 -11l-100 -161q-46 -74 -116.5 -131.5 t-139.5 -57.5q-19 0 -19 23q0 45 41 96l94 125q54 77 54 172q0 72 -26.5 130t-84.5 77h-21q-92 0 -190 -98l-131 -121l-6 -2q-3 113 -20 157q-26 61 -81 62q-21 0 -42 -6t-42 -20t-38 -26t-38.5 -36t-34.5 -38t-34 -43.5t-29 -41t-28 -41.5t-23 -35v-6z" />
<glyph unicode="o" horiz-adv-x="1015" d="M74 285q0 97 52 177t134 128t173.5 74t178.5 26q107 0 175.5 -54.5t68.5 -158.5q0 -82 -32.5 -149.5t-96.5 -153.5l2 2q-4 -4 -8 -12q71 9 164 110q18 9 28 9q26 0 37 -10.5t11 -34.5q-11 -39 -15 -39q-50 -59 -114.5 -97.5t-131.5 -38.5q-29 0 -55 11q-18 6 -31 6 q-120 -111 -243 -111q-124 0 -210.5 96t-86.5 220zM88 301q0 -111 77.5 -198t188.5 -87q116 0 236 115h2q16 0 46 -10t46 -10q127 0 227 131q2 0 2.5 2t0.5 4l-1 2q0 18 -16 18q-6 0 -10 -2q-51 -55 -98 -87t-105 -32h-12q-4 0 -4 9q0 24 18 53q41 57 62 91t41 88t20 106 q0 90 -59.5 136t-153.5 46q-82 0 -169 -24t-164 -68.5t-126 -118.5t-49 -164zM248 119v18q0 61 34.5 147t87.5 165t125 134.5t140 55.5q47 0 83 -22t36 -66q0 -15 -19.5 -26.5t-48.5 -23.5t-58 -32t-51.5 -63t-25.5 -105q-1 -8 -1 -15q0 -46 25 -110q0 -37 -87.5 -80 t-133.5 -43q-93 0 -106 66zM295 109q7 -41 76 -41q37 0 109.5 29.5t80.5 56.5q-25 59 -25 112q0 11 1 21q4 57 20 99.5t44 68.5t50 39t54 26l34 15q0 28 -26.5 42.5t-61.5 14.5q-63 0 -129.5 -52t-115 -126.5t-80 -155t-31.5 -137.5v-12z" />
<glyph unicode="p" horiz-adv-x="1275" d="M57 -428l260 555h-16q-15 0 -30 13t-15 32q0 11 8 27l271 454l-5 -16q0 1 2.5 3t2.5 3q0 12 8 21.5t20 9.5q140 6 201 8l10 -2q19 0 27.5 -13t1.5 -30l-47 -105q80 62 149 62q52 0 87.5 -34t49 -77t13.5 -90q0 -91 -37 -141l2 2q-18 -29 -56 -86.5t-57 -87.5l-4 -8h2 q22 0 48.5 17t47.5 39.5t48.5 60.5t42.5 61.5t38 62.5q28 48 47.5 71.5t39.5 23.5q45 0 45 -62q-20 -46 -43.5 -89.5t-61 -98t-77 -94.5t-91.5 -67.5t-104 -27.5q-77 0 -126.5 65.5t-49.5 143.5q0 39 10.5 68t34.5 73q86 124 108 166l4 4q-46 -11 -104.5 -73t-99 -125 t-70.5 -121l2 2q-49 -103 -148.5 -309.5t-148.5 -308.5q-3 -6 -12.5 -12.5t-16.5 -6.5q-15 0 -39 4q-28 4 -39 4q-13 0 -45 -8q-24 -6 -59 -6q-19 0 -27.5 13t-1.5 30zM70 -424q18 0 52 7t52 7q15 0 41 -4t37 -4h4l293 619q24 47 58 100.5t78 109.5t93.5 93t89.5 37 q14 0 19.5 -3t5.5 -14q0 -6 -3 -12.5t-5.5 -10.5t-8.5 -11.5t-8 -10.5q-15 -31 -106 -162q-15 -29 -21 -41t-12 -34.5t-6 -46.5q0 -67 40.5 -123t104.5 -56q58 0 115 37t101.5 97t75 113t54.5 108v6q0 16 -14 16q-8 0 -30 -34.5t-52.5 -84t-66 -99t-79.5 -84t-83 -34.5 q-33 0 -33 25q0 3 6 27l115 178q31 41 31 123q0 65 -29.5 117.5t-89.5 52.5q-35 0 -70 -15t-70.5 -46t-55.5 -51.5t-52 -55.5l4 8l113 246v2h-10l-199 -9l-4 -6l-271 -452q-4 -8 -4 -13q0 -6 5 -10t10 -4q10 0 16 8l168 279q2 5 4 5.5t6 -0.5t6 -1v-2z" />
<glyph unicode="q" horiz-adv-x="1026" d="M66 295q0 100 73 193.5t177 147.5t198 54q84 0 135 -61q2 5 5 11t5 11q3 6 12 12.5t15 6.5l207 16q19 2 28.5 -13t0.5 -32l-316 -627q158 167 299 320l6 8q10 10 15 12t20 2q24 0 35.5 -9t11.5 -38q0 -21 -12 -33v3q-84 -92 -253 -279t-253 -279l2 3l-31 -43 q-9 -13 -24 -13q-115 0 -201 -22q-20 -6 -32.5 10t-2.5 35l197 364q-48 -20 -98 -20q-94 0 -156.5 82.5t-62.5 177.5zM80 311q0 -83 53.5 -156t134.5 -73q21 0 39 3.5t38.5 13t30.5 14.5t36 21.5t34 21.5l-249 -463v-2q84 24 209 24l30 43l506 557q4 4 4 15q0 12 -16 12 q-7 0 -19 -12l-446 -480l414 822v4l-207 -21l-43 -92q-4 53 -39.5 83t-91.5 30q-88 0 -185 -50t-165 -136.5t-68 -178.5zM238 190q0 57 44 160.5t117.5 192t139.5 88.5q30 0 47.5 -23t17.5 -55q0 -38 -14 -66l-82 -192q-27 -64 -86 -120t-121 -56q-63 0 -63 71zM285 174 q0 -41 32 -41q53 0 104.5 50.5t74.5 107.5l82 192q12 28 12 54q0 20 -9 33.5t-26 13.5q-60 0 -125.5 -82.5t-105 -178.5t-39.5 -149z" />
<glyph unicode="r" horiz-adv-x="829" d="M43 217q0 17 2 25q52 70 70 98q15 22 70 101t89 130q-51 26 -51 84q0 62 49 126.5t113 64.5q39 0 62.5 -25t23.5 -67q0 -57 -49 -133q0 -1 -1 -2.5t-1 -2.5q61 -34 103.5 -82t43.5 -106q1 -10 1 -20q0 -23 -5 -47q-7 -34 -15.5 -56.5t-30.5 -56t-31 -45.5t-35 -45 q-16 -17 -15 -17q-32 -36 -35 -71q68 7 172 131q38 40 95 112q9 13 33.5 42t29.5 36q2 2 25 2q28 0 37.5 -8.5t9.5 -38.5q0 -15 -2 -19.5t-13 -15.5l3 4q-55 -71 -146 -184q-49 -65 -123 -113.5t-145 -48.5q-82 0 -124 63.5t-42 147.5q0 102 43 152q4 5 29 35q28 29 44.5 48 t33 48.5t16.5 52.5q0 11 -12 19q-17 -24 -71.5 -103t-82.5 -121h2q-60 -90 -84 -125q-22 -16 -41 -16q-45 0 -45 47zM57 233q0 -16 15 -16q7 0 16 6q245 359 248 363q22 0 38.5 -17t16.5 -37q0 -27 -16 -58.5t-32 -51.5t-45.5 -52t-35.5 -40q-37 -42 -37 -133 q0 -45 13 -84.5t45 -68t77 -28.5q65 0 131 44.5t113 105.5q91 113 146 184q6 6 6 12q0 10 -4 13.5t-13 3.5q-8 0 -10 -2q-12 -14 -64.5 -80t-82.5 -98q-39 -49 -97 -96.5t-108 -47.5q-23 0 -23 27q0 45 43 94q5 6 26.5 32.5t31 39.5t26.5 40t24.5 47.5t12.5 49.5t2 57 q0 59 -47.5 103.5t-114.5 72.5q6 11 21.5 36t23 38.5t14.5 35t7 42.5q0 28 -14.5 44.5t-40.5 16.5q-52 0 -91.5 -53.5t-39.5 -105.5q0 -44 65 -70q-36 -54 -77 -113t-90 -130t-77 -111q-2 -8 -2 -15zM272 674q0 35 31 80t66 45q10 0 18 -19v-12q0 -33 -20 -72.5t-43 -60.5 q0 -4 -2 -6q-10 -7 -30 13t-20 32zM319 641q17 16 35 48t19 59q-22 -8 -38 -38t-16 -53v-16z" />
<glyph unicode="s" horiz-adv-x="894" d="M68 135q0 60 38 98q-24 6 -24 43v21l190 276v2q-55 35 -55 74q0 58 50.5 118t105.5 60q41 0 62.5 -23t21.5 -63q0 -58 -51 -135q31 -14 51 -23t51.5 -25.5t52.5 -31t45 -36.5t38.5 -43.5t24 -49.5t9.5 -59q0 -54 -25 -102q6 6 13.5 17t9.5 13q19 26 58 80.5t57 81.5v-2 q6 10 9 13.5t10 6.5t19 3q20 0 31.5 -15t11.5 -31q0 -22 -10 -34q-42 -66 -79.5 -116.5t-91.5 -106.5t-108 -92.5t-125 -60.5t-147 -24q-36 0 -75 9t-78 27t-64.5 52t-25.5 78zM82 152q0 -36 22 -64t56.5 -42.5t69 -22t65.5 -7.5q72 0 140 24t119.5 59.5t103.5 91t88 104.5 t77 113q2 2 2 12q0 14 -12 14q-9 0 -14 -8l-115 -162q-53 -70 -130.5 -129t-147.5 -59h-7l7 2q225 135 225 276q0 21 -6 40.5t-13.5 35.5t-23.5 33t-27.5 28.5t-34.5 26t-35 22t-39 20.5t-36.5 17.5t-37 16.5t-32.5 14v8q22 31 30.5 44.5t21 43.5t12.5 54q0 55 -54 55 q-44 0 -84.5 -49.5t-40.5 -97.5q0 -15 15.5 -29.5t31 -25t15.5 -15.5v-4l-6 -12l-191 -277v-10q0 -12 13 -12q10 0 16 2l197 292q5 5 6 5h2q56 -24 80 -61.5t24 -98.5q0 -62 -28 -144q-28 -81 -80 -146q-52 -64 -107 -64h-2q-40 0 -51 16q10 13 28 22t32.5 13.5t26 18.5 t11.5 38q0 37 -21.5 62.5t-56.5 25.5q-44 0 -74 -32.5t-30 -77.5zM184 274q6 2 19 2q49 0 78.5 -34.5t29.5 -83.5q0 -29 -10 -49q50 43 84.5 134.5t34.5 159.5q0 84 -70 123q-28 -41 -83 -126t-83 -126zM266 668q0 33 29 72.5t61 39.5q23 0 23 -24q0 -15 -8.5 -35t-16 -32.5 t-23 -34t-16.5 -23.5q0 -4 -4 -4q-13 0 -29 14t-16 27zM313 647h2l2 2q4 6 17.5 25t21 32.5t9.5 24.5q-21 -6 -36.5 -32t-15.5 -48v-4z" />
<glyph unicode="t" horiz-adv-x="716" d="M55 213q0 97 58 213q18 36 64.5 130t74.5 151h-35q-20 0 -31.5 17t-11.5 32q0 40 41 48h35q9 0 24 0.5t17 0.5q7 0 4 -10l72 141q10 10 30 10q8 0 24.5 -1t24.5 -1h99q8 0 25 1t26 1q12 0 21.5 -9.5t9.5 -21.5q0 -11 -25 -36l14 8q-7 -15 -24 -53q-3 -5 -8 -19h51 q19 0 31 -16.5t12 -28.5q0 -26 -17.5 -39t-41 -12.5t-48.5 0.5q-28 0 -30 4q-48 -99 -144.5 -293.5t-144.5 -292.5q-14 -22 -14 -55q0 -14 10 -14q89 0 205 149q34 53 63 53q26 0 40 -17t3 -42l2 2q-44 -102 -144.5 -173t-183.5 -71q-50 0 -86 21.5t-55.5 58.5t-28 77.5 t-8.5 86.5zM70 229q0 -40 7 -75t23 -67.5t46 -51.5t71 -19q76 0 167 66t132 160q3 6 -2.5 10t-13.5 4q-6 0 -23 -21t-42.5 -50.5t-56 -59.5t-70 -51t-77.5 -21q-41 0 -41 45q0 34 19 70l291 592v2q14 10 43 5t58.5 -2.5t29.5 21.5q0 4 -4 9.5t-9 5.5h-100l4 8q4 8 25.5 54.5 t25.5 54.5q1 0 4 6t3 8q-18 0 -52 -1t-51 -1q-15 0 -47 1t-49 1q-7 0 -8 -2l-68 -133l-2 -4q-21 -2 -29 -2q-6 0 -35.5 -1.5t-33.5 -1.5q-17 -3 -17 -16q0 -5 4 -11.5t9 -6.5h84l-162 -326q-53 -101 -53 -199z" />
<glyph unicode="u" horiz-adv-x="1361" d="M66 221q0 19 12 31l-2 -6q48 71 144.5 213t144.5 213q9 14 24 14q61 0 61 -3l1 -2q2 -1 4 -1q27 -6 49 -6q20 0 55 6q6 1 9.5 2t6 2t17.5 1.5t43 0.5q19 0 27 -14t0 -31l-254 -512q-15 -30 -15 -53q0 -6 8 -6q53 2 114.5 48t114.5 113.5t102 149.5t83 151.5t53 122.5 q2 31 37 31q61 0 61 -3l1 -2q2 -1 4 -1q30 -6 53 -6t53 6q6 1 12 2.5t20 2.5t46 1q19 0 27.5 -14t-0.5 -31l-271 -504q-16 -22 -16 -59q46 1 95 41.5t87 89.5l125 151q23 23 45 23t34.5 -14t12.5 -37t-10 -33l2 4q-20 -25 -63 -76t-64 -77q-55 -72 -130.5 -124.5 t-151.5 -52.5q-77 0 -121 50.5t-58 126.5q-156 -181 -295 -181q-83 0 -138 58.5t-64 142.5v43q0 31 2 49q-8 -13 -24.5 -36.5t-24.5 -35.5q-7 -10 -19 -17t-20 -7q-49 0 -49 55zM80 233q0 -20 18 -20q8 0 15 10l163 238l5 2q-24 -53 -35 -80t-21 -70t-10 -84v-39 q8 -73 54.5 -123.5t117.5 -50.5q48 0 94.5 21t90.5 61t71 70.5t64 77.5v-9q0 -51 11 -95q12 -48 48.5 -85t93.5 -37q69 0 137.5 48.5t120.5 115.5l127 154q2 1 2 14q0 6 -4.5 11.5t-11.5 5.5q-8 0 -21 -13l-125 -149q-113 -144 -208 -144q-24 0 -29 15v16q0 47 22 78 l269 500h-4q-21 0 -63 -6.5t-64 -6.5q-21 0 -60.5 6.5t-58.5 6.5q-6 0 -6 -4q-24 -69 -74 -165t-117.5 -199t-150 -175t-154.5 -74h-6q-35 0 -35 37q0 30 19 68l253 512h-2q-20 0 -63.5 -6.5t-65.5 -6.5q-19 0 -57 6.5t-57 6.5h-2l-287 -426q-4 -4 -4 -13z" />
<glyph unicode="v" horiz-adv-x="1312" d="M57 279q0 16 11 34l182 215q142 158 252 158q41 0 70.5 -21.5t43.5 -56t20.5 -68.5t6.5 -69q0 -104 -49 -172v2q-18 -26 -121 -184v2q-20 -28 -20 -53q2 4 14 4q145 0 260 129q0 2 -4 22q-6 36 -6 45q0 36 10 89.5t32 115.5t51 115t71.5 88t89.5 35q41 0 67 -24t31 -64 v-29q0 -95 -74 -205l-118 -170l-37 -45q18 -6 49 -6q39 0 77.5 19t76 58t58 64t54.5 72q3 3 13 15.5t12 15.5q12 12 34 12t35 -14t13 -37q0 -22 -11 -33q-14 -17 -46.5 -57t-47.5 -58v2q-121 -157 -268 -157q-67 0 -113 38q-151 -137 -321 -137q-94 0 -153.5 67.5 t-59.5 164.5q0 111 61 178h-2q15 17 45 52.5t45 53.5q39 49 47 82q-28 -20 -61 -57q-110 -110 -230 -256q-6 -23 -43 -23q-19 0 -33 13.5t-14 34.5zM72 295q0 -16 16 -16q14 0 14 6q133 161 236 264q72 78 115 78h6v-9q0 -69 -60 -137l-90 -106q-53 -59 -53 -158 q0 -84 50.5 -142.5t131.5 -58.5q170 0 320 150q48 -51 114 -51q131 0 244 145l94 115q4 4 4 12q0 21 -16 21q-7 0 -18 -11l-21 -28t-24.5 -32.5t-25 -31.5t-28.5 -33.5t-29.5 -30.5t-33 -29.5t-33 -23t-36.5 -20t-37 -11.5t-40 -5q-24 0 -54 10.5t-30 30.5v2l48 57l118 170 q68 99 68 186v25q-3 28 -21 44.5t-47 16.5q-51 0 -95.5 -49t-71 -118t-41.5 -135t-15 -109q0 -14 5 -40t5 -38v-4q-132 -146 -290 -146q-45 0 -45 27q0 26 30 76l117 176q43 59 43 153q0 42 -8 80t-34.5 71.5t-68.5 33.5q-97 0 -229 -148l-180 -213q-4 -8 -4 -16zM768 285 q0 32 13.5 91.5t36 123.5t59.5 110.5t77 46.5q20 0 33 -30v-19q0 -70 -49 -141l-107 -160l-53 -65l-4 -6q-6 16 -6 49zM817 301l6 8l-2 -2q17 26 53 79.5t54 80.5q45 63 45 125v10q-4 4 -4 8q-30 -1 -57.5 -35t-46 -84.5t-31 -99.5t-17.5 -90z" />
<glyph unicode="w" horiz-adv-x="1812" d="M76 221q0 19 12 31l-2 -6q48 71 144.5 213t144.5 213q9 14 24 14q61 0 61 -3l1 -2q2 -1 4 -1q27 -6 49 -6q20 0 55 6q6 1 9.5 2t6 2t17.5 1.5t43 0.5q19 0 27 -14t0 -31l-254 -512q-15 -30 -15 -53q0 -6 9 -6q53 2 114.5 48t114.5 113.5t102 149.5t83 151.5t53 122.5 q2 31 36 31q61 0 61 -3l1 -2q2 -1 4 -1q30 -6 53 -6t53 6q6 1 12 2.5t20 2.5t46 1q19 0 27.5 -14t-0.5 -31l-270 -504q-17 -24 -17 -59q46 1 95 41.5t87 89.5l33 43v-4l289 424q9 14 25 14q61 0 61 -3v-2q1 -1 4 -1q27 -6 49 -6t56 6q6 1 9 2l6 2t17.5 1.5t42.5 0.5 q19 0 27 -14t0 -31l-254 -512q-14 -28 -14 -53q0 -6 8 -6q85 3 199 127q15 17 34 9t19 -30v-63q0 -15 -8 -23q-121 -121 -242 -121q-83 0 -138.5 58.5t-64.5 142.5v72q-13 -16 -38.5 -46.5t-37.5 -45.5q-55 -72 -130.5 -124.5t-151.5 -52.5q-77 0 -120.5 50.5t-57.5 126.5 q-156 -181 -295 -181q-83 0 -138.5 58.5t-64.5 142.5v43q0 31 2 49q-8 -13 -24.5 -36.5t-24.5 -35.5q-7 -10 -19 -17t-20 -7q-49 0 -49 55zM90 233q0 -8 5 -14t14 -6q7 0 14 10l164 238l4 2q-24 -53 -35 -80t-21 -70t-10 -84v-39q8 -73 54.5 -123.5t117.5 -50.5 q48 0 94.5 21t90.5 61t71 70.5t64 77.5v-9q0 -51 11 -95q12 -48 48.5 -85t93.5 -37q69 0 137.5 48.5t120.5 115.5l127 154q2 1 2 14q0 6 -4 10l68 99l4 2q-23 -51 -34.5 -79.5t-21 -70.5t-9.5 -84v-39q8 -73 54.5 -123.5t117.5 -50.5q106 0 219 113v64q-122 -135 -219 -138 h-6q-35 0 -35 37q0 32 18 68l254 512h-2q-20 0 -63.5 -6.5t-65.5 -6.5q-20 0 -58 6.5t-57 6.5h-2l-287 -424l-2 -4l-30 -37q-113 -144 -209 -144q-24 0 -29 15v16q0 45 23 78l268 500h-4q-21 0 -63 -6.5t-64 -6.5q-21 0 -60.5 6.5t-58.5 6.5q-6 0 -6 -4q-24 -69 -74 -165 t-117.5 -199t-150 -175t-154.5 -74h-6q-35 0 -35 37q0 30 19 68l254 512h-2q-20 0 -63.5 -6.5t-65.5 -6.5q-20 0 -58 6.5t-57 6.5h-2l-287 -426q-4 -4 -4 -13z" />
<glyph unicode="x" horiz-adv-x="1349" d="M76 127q0 67 47 114.5t113 47.5q52 0 87 -32t35 -83q0 -34 -16 -63q69 49 143 186q-70 4 -102 4q-43 0 -43 47q0 41 35 49h98q10 0 31 -1t33 -1q10 20 17 72t7 82q0 39 -22 39q-46 0 -96.5 -31.5t-88.5 -75.5q-24 -28 -72 -84.5t-71 -83.5q-11 -20 -37 -20q-21 0 -35 14 t-14 37t10 33q19 23 59 70t60 71v-2q56 71 132.5 119.5t156.5 48.5q154 0 205 -186q130 186 299 186q122 0 122 -123q0 -61 -48 -107t-113 -46q-45 0 -73 26t-28 72q0 15 4 35q-64 -49 -116 -150q38 0 112 -2t111 -2q20 0 31.5 -17t11.5 -32q0 -16 -12 -32.5t-35 -16.5h-15 q-88 0 -129 2q-16 0 -60 1t-60 1q-21 -68 -21 -117q0 -44 24 -72t66 -28q54 0 109 37.5t100 91.5q77 98 168 219v-2q14 22 41 22q21 0 34 -15.5t13 -37.5q0 -19 -10 -29l2 5q-25 -33 -76 -100.5t-76 -100.5q-144 -189 -305 -189q-75 0 -122.5 42.5t-63.5 111.5q-1 0 -3 -2 t-3 -2h2l-51 -39t-50 -39q-48 -36 -112 -58t-123 -22q-50 0 -96.5 14t-83.5 51.5t-37 92.5zM90 143q0 -64 58 -95.5t128 -31.5q121 0 218 74l100 78q15 10 47 22q8 -74 49 -119.5t113 -45.5q145 0 280 176l152 200q2 2 2 9q0 20 -16 20q-7 0 -21 -14l-164 -213 q-47 -61 -107.5 -101.5t-125.5 -40.5q-57 0 -89 37t-32 95q0 66 31 147h20q41 0 124.5 -2t125.5 -2h14q8 0 12.5 6t4.5 12t-4 12.5t-9 6.5l-272 4q24 54 56.5 103t82.5 93t103 56q-49 -61 -49 -107q0 -32 19 -49.5t50 -17.5q53 0 92 37t39 86q0 44 -24 68t-68 24 q-181 0 -313 -238q-35 238 -191 238q-72 0 -142.5 -45t-121.5 -111l-119 -141q-4 -4 -4 -13t5.5 -14.5t13.5 -5.5t10 6l147 172q42 48 97.5 82.5t109.5 34.5q53 0 53 -70q0 -41 -9.5 -103t-26.5 -79l-2 -2h-9q-25 0 -71 1t-68 1h-22q-13 -3 -13 -18q0 -17 13 -17l153 -4 q-135 -283 -293 -283q-28 0 -54 12t-26 38q10 0 31.5 -2.5t30.5 -2.5h29q34 3 53.5 26t19.5 58q0 37 -26.5 60.5t-65.5 23.5q-54 0 -91.5 -38t-37.5 -93z" />
<glyph unicode="y" horiz-adv-x="1406" d="M76 -334q0 48 25.5 93t70.5 81.5t94.5 67t109.5 56t103 41t86 28.5l37 67q-66 -39 -125 -39q-42 0 -75 20.5t-51 53.5t-27 69t-9 72q0 68 45 156q2 2 7.5 10t12.5 19t11 16q40 54 64 98q-48 -29 -110 -104.5t-99 -130.5q-21 -21 -41 -21q-12 0 -30.5 17.5t-18.5 30.5l4 8 q5 19 14 28q27 42 61.5 85.5t81 91.5t98.5 78t97 30q73 0 110 -53t37 -127q0 -84 -45 -158l-102 -164v2l-10 -18q54 17 118.5 78.5t107.5 119.5t77 115q0 4 10 17q19 32 46 85t34 74q3 8 12.5 14.5t16.5 6.5q88 2 125 2h96q19 0 27 -14t-1 -31l-251 -455q233 149 385 400 q14 14 36 14q45 0 45 -53q0 -18 -10 -31q-108 -171 -229.5 -280.5t-310.5 -208.5q-46 -78 -83 -134t-96.5 -126t-117.5 -113.5t-136.5 -74t-162.5 -30.5q-67 0 -115.5 28t-48.5 93zM90 -317q0 -49 39.5 -70t93.5 -21q58 0 113.5 15.5t100.5 40t90 64t79 76.5t71 89t62 91.5 t56 92.5l4 5q187 94 308.5 203.5t229.5 281.5q2 2 2 12q0 19 -14 19q-4 0 -11 -6l-7 -5q-89 -148 -215 -265t-267 -187l303 549h-96l-125 -2v-7q-5 -12 -24.5 -48.5t-41.5 -76.5t-26 -49q-25 -44 -59 -92t-80 -102t-99.5 -92.5t-101.5 -46.5h-14q-12 2 -12 18l2 12l18 37 l102 164q41 66 41 141q0 62 -29.5 106t-86.5 44q-41 0 -90 -30t-92.5 -77.5t-76 -89t-57.5 -80.5q-1 0 -3 -2.5t-4 -5.5t-3 -4v-2q0 -4 6.5 -10t11.5 -6q7 0 19 12q25 37 65 89t102 109.5t99 57.5q12 0 12 -8q0 -7 -2 -17q-16 -33 -63.5 -104t-48.5 -72q-41 -77 -41 -141 q0 -43 12 -83t43 -70.5t76 -30.5q83 0 215 124q7 6 10 9l-115 -217q-48 -14 -98.5 -31.5t-123 -50.5t-126.5 -69t-93.5 -87t-39.5 -104zM131 -313q0 46 53 100.5t122.5 95.5t136.5 69t96 28h6q-11 -29 -49.5 -83.5t-89.5 -113.5t-113 -102t-111 -43h-22q-8 3 -17 12t-12 16 v21zM178 -330v-12q0 -3 6 -6h15q47 0 110 48t111.5 106.5t81.5 113.5q-60 -18 -132.5 -56.5t-132 -93.5t-59.5 -100z" />
<glyph unicode="z" horiz-adv-x="1202" d="M53 74q0 51 45.5 93t110 65t123.5 35t98 12q12 0 47 -5q12 -2 31 -2q2 2 12 17h-86q-20 0 -33.5 17t-13.5 34q0 14 14 32.5t33 18.5h166l4 4h-209q-55 0 -85.5 58.5t-30.5 130.5q0 76 38 106h43l244 -16q19 -1 26.5 -15.5t-1.5 -29.5q-13 -23 -39 -49v2q-3 -3 -10 -11 t-10 -12t-8.5 -11t-8 -11.5t-4.5 -10.5t-2 -12q0 -20 4 -20l127 4q1 2 3.5 6t4.5 8q33 49 54.5 76.5t60.5 68t81.5 60.5t88.5 20t76 -27.5t30 -72.5q0 -57 -37.5 -103.5t-95.5 -73.5t-112 -42.5t-103 -20.5q-1 -1 -2 -3t-2 -3h180q16 0 31.5 -19.5t15.5 -31.5 q0 -13 -15.5 -32t-31.5 -19h-252q-5 -7 -12.5 -14t-17.5 -21q24 -5 72 -18t67 -17q41 -8 115 -8h43q13 1 25.5 4.5t22 7t21 12.5t17.5 14t18 18.5t16 18.5t17 21.5t16 20.5q13 19 34 11.5t21 -30.5t-11.5 -50.5t-26.5 -43.5q-189 -244 -363 -244q-43 0 -94.5 15t-85 30.5 t-86.5 42.5q-16 8 -19 9q-145 -99 -247 -99q-53 0 -97.5 26t-44.5 79zM68 90q0 -38 34 -56t76 -18q41 0 88 17t78 35t76 49h10q3 -1 41 -20.5t48 -24.5t43.5 -19t52 -19t45.5 -10.5t51 -5.5q51 0 100 20t93 57.5t76 72.5t69 82q32 37 32 76v2q-25 -33 -38 -49t-36 -38 t-47.5 -32t-54.5 -12h-45q-80 0 -121 8l-188 45l70 86h268q6 0 11 7.5t5 12.5t-5.5 13t-10.5 8h-238l43 63l8 4q45 4 95.5 17t105.5 36.5t91 64.5t36 91q0 32 -21.5 51t-54.5 19q-26 0 -51.5 -7.5t-50 -26.5t-42 -33t-41.5 -44.5t-33.5 -43t-33 -46.5t-26.5 -39v-4h-141 q-17 0 -26 16.5t-9 34.5q0 23 15.5 45.5t38.5 46t32 37.5l-242 17h-31q-21 -17 -21 -76q0 -56 23 -106q23 -52 64 -52h268l-49 -65h-180q-7 0 -12 -7.5t-5 -13.5q0 -7 5 -13.5t12 -6.5h151l-63 -78h-4q-15 0 -44.5 3t-43.5 3q-35 0 -89 -10t-113.5 -29.5t-101.5 -55 t-42 -79.5zM109 90q0 21 18 36.5t45.5 22t50 9t41.5 2.5q52 0 113 -23q-42 -35 -97 -58.5t-106 -23.5q-65 0 -65 35zM156 74q0 -4 34 -4q74 0 136 39q-28 4 -45 4q-23 0 -47.5 -2t-51 -11.5t-26.5 -25.5zM731 489q24 38 41.5 62t48.5 59t65 53.5t68 18.5h15q22 -8 22 -29 q0 -46 -50 -86t-108.5 -59t-99.5 -19h-2zM813 512q39 10 73.5 26t62 42t28.5 55h-6q-73 0 -158 -123z" />
<glyph unicode="{" horiz-adv-x="514" d="M78 475v68q0 11 8 20t18 10q70 9 86 41q23 38 23 144v137q0 164 47 225q53 66 203 66q12 0 21.5 -9.5t9.5 -21.5v-59q0 -12 -9.5 -21.5t-21.5 -9.5q-44 -2 -59 -32.5t-15 -121.5v-98q0 -176 -29 -238q-15 -31 -49 -65q24 -21 47 -66q31 -67 31 -239v-99q0 -89 15 -118 t59 -31q12 0 21.5 -9.5t9.5 -21.5v-63q0 -12 -9.5 -21.5t-21.5 -9.5q-149 0 -203 70v-2q-47 58 -47 223v139q0 99 -20 141q-31 27 -91 41q-10 1 -17 10.5t-7 20.5zM125 459q79 -15 108 -53q27 -46 27 -160v-140q0 -153 41 -202q45 -58 178 -58v64q-63 1 -83.5 37t-20.5 143 v98q0 170 -27 226q-30 58 -76 80q54 30 76 77q27 59 27 226v98q0 109 20.5 146t83.5 38v60q-132 0 -178 -56q-41 -52 -41 -204v-138q0 -113 -27 -159q-24 -43 -108 -56v-67z" />
<glyph unicode="|" horiz-adv-x="370" />
<glyph unicode="}" horiz-adv-x="514" d="M78 -78q0 12 9.5 21.5t21.5 9.5q44 1 58.5 31.5t14.5 121.5v99q0 175 29 237q16 33 49 66q-25 22 -47 65q-31 67 -31 240v98q0 89 -14.5 119t-58.5 31q-12 0 -21.5 9.5t-9.5 21.5v63q0 12 9.5 21.5t21.5 9.5q148 0 202 -70v2q47 -58 47 -223v-139q0 -98 21 -142 q31 -27 90 -41q10 -1 17.5 -10t7.5 -20v-68q0 -11 -8.5 -20.5t-18.5 -10.5q-70 -9 -86 -41q-23 -38 -23 -143v-137q0 -164 -47 -225q-53 -66 -202 -66q-12 0 -21.5 9.5t-9.5 21.5v59zM92 -61v-60q132 0 178 55q41 52 41 205v137q0 114 27 160q24 43 108 56v67 q-79 15 -108 53q-27 46 -27 160v139q0 154 -41 203q-45 57 -178 57v-63q63 -2 84 -37.5t21 -142.5v-99q0 -172 26 -225q30 -58 76 -80q-54 -29 -76 -78q-26 -56 -26 -225v-98q0 -109 -21 -146t-84 -38z" />
<glyph unicode="&#xa1;" horiz-adv-x="491" d="M59 -221q5 45 54 278q46 205 86 412q1 10 10 17.5t20 7.5h58q12 0 21 -9.5t9 -21.5q0 -84 5 -309q2 -76 2 -232v-78q2 -56 -13 -106q-14 -41 -50.5 -69.5t-80.5 -28.5q-58 0 -92.5 38.5t-28.5 100.5zM74 -209q-6 -50 20 -76q28 -28 70 -28q35 0 63 22t39 55q0 2 3.5 15.5 t4.5 21.5q4 31 2 58q2 68 -2 260q-1 53 -2 175t-2 185h-57q-39 -200 -86 -411q-50 -238 -53 -277zM164 719q15 54 63.5 90.5t102.5 36.5q62 0 91.5 -41.5t12.5 -102.5v-2q-20 -54 -69 -90.5t-103 -36.5q-62 0 -91.5 43.5t-6.5 104.5v-2zM176 727q-16 -48 4 -76 q16 -25 47 -29.5t62 7.5t59.5 38.5t40.5 59.5q12 46 -10 74q-20 31 -65.5 31t-86.5 -31q-39 -26 -51 -74z" />
<glyph unicode="&#xa2;" horiz-adv-x="843" d="M51 246q1 72 41 150.5t103.5 142t150 102.5t172.5 33h33h8q12 28 33 65q8 17 26 17h93q19 0 27.5 -13t0.5 -30l-59 -127q14 -27 14 -70q0 -61 -29 -101.5t-87 -43.5q-26 -57 -68 -146t-68 -145q96 30 168 135v-2q71 104 97 137q13 23 38 23q23 0 36.5 -15t13.5 -34 q0 -15 -1.5 -19t-9.5 -12l2 6q-11 -17 -37 -56t-38 -55l-21 -30q-56 -76 -135.5 -127.5t-167.5 -61.5q-5 -10 -14.5 -32.5t-14.5 -32.5q-3 -6 -12 -12.5t-16 -6.5h-92q-19 0 -27.5 13t-1.5 30l27 56q-82 30 -133.5 101t-51.5 161zM66 262q0 -89 55.5 -155t140.5 -87l-41 -88 h92l37 82q89 6 167 54t132 125q71 101 96 139q3 3 3 8q0 7 -5.5 12.5t-13.5 5.5q-11 0 -14 -10q-39 -51 -97 -135q-45 -64 -111 -108.5t-138 -53.5l172 367h10q48 0 72 32t24 82q0 43 -18 70l65 139h-92l-43 -88q-12 3 -27 6h-32q-80 5 -160.5 -31.5t-139 -95t-96 -131.5 t-38.5 -139zM227 154q6 54 52.5 154.5t82.5 162.5q100 152 175 152q0 -20 -12 -32t-26 -17t-26 -20t-12 -40q0 -26 10 -49l-188 -402q-56 24 -56 91zM274 133q0 -26 13 -39q31 68 88 188.5t78 166.5q-7 14 -7 47l-21 -30t-19 -28v2q-32 -53 -78.5 -154t-53.5 -153z" />
<glyph unicode="&#xa3;" horiz-adv-x="1683" d="M76 115q0 34 15 61.5t36.5 44.5t56 29t62 18t67.5 9t59.5 3.5t49.5 0.5q157 0 328 -37l47 86h-68q-12 0 -21.5 8t-9.5 20l-4 72q0 12 9.5 21.5t21.5 9.5h145q3 6 10.5 19.5t10.5 19.5l12 24q-659 27 -659 379q0 62 25.5 111t66 79t95 49t107 26.5t107.5 7.5 q59 0 126.5 -9t143 -29.5t136 -61.5t84.5 -97q6 -15 -1.5 -28t-21.5 -15v-4q-2 2 -2 4q-8 -3 -18 4q-123 64 -223.5 96.5t-213.5 32.5q-50 0 -98.5 -7t-101 -23t-85 -51t-32.5 -83q0 -66 45 -117.5t110 -81t148 -49t149.5 -26t122.5 -6.5h52q30 51 50.5 83t56.5 84t66 86 t73 74t84 63.5t92 39.5t104 16q91 0 127 -76v-34q0 -60 -30.5 -119t-80 -107t-99.5 -83.5t-103 -63.5q-27 -13 -43 -17q-48 -15 -54 -22v4q-15 -23 -31.5 -46t-31.5 -46h35q12 0 21 -9.5t9 -21.5l4 -70q0 -12 -9 -21t-21 -9h-127q-4 -6 -12.5 -17.5t-12.5 -17.5 q-18 -26 -112 -125q27 -16 130 -38.5t152 -22.5q141 24 283 147q17 15 36 4.5t15 -33.5q-13 -59 -60.5 -108.5t-108 -78.5t-120 -44.5t-104.5 -15.5q-139 0 -324 96q-204 -107 -465 -107q-31 0 -52 1t-58.5 4.5t-62.5 13t-51.5 25t-40 41.5t-13.5 61zM90 131q0 -24 10 -42.5 t24.5 -30.5t39 -20.5t43.5 -12.5t48 -6t44 -2.5t39 -0.5q256 0 461 109h8q185 -98 319 -98q42 0 96.5 14t111 40t100 70.5t55.5 98.5q-79 -68 -145.5 -106t-153.5 -50q-50 -6 -186 37t-136 62v2q94 94 123 135l33 47h143l-4 69h-92l96 140q7 9 27.5 17t45.5 16t34 12 q50 25 97.5 59t94.5 78.5t76 99t29 109.5v27q-23 53 -96 53q-49 0 -97.5 -15.5t-87.5 -38.5t-79.5 -61.5t-69.5 -72t-63.5 -83t-54.5 -81.5t-48 -80q-5 -10 -10 -15h-68q-59 0 -129 7.5t-157 29t-156 54.5t-116.5 90.5t-47.5 130.5q0 47 25 83t61.5 56.5t86 33.5t91.5 17 t84 4q117 0 220 -33.5t231 -99.5h4q-23 50 -80.5 87.5t-129 56t-135.5 26.5t-120 8q-51 0 -99.5 -6.5t-99 -23t-87.5 -43t-61 -69.5t-24 -99q0 -66 27.5 -119.5t69 -88.5t105.5 -62t121 -41t132 -23.5t123 -12t108 -4.5q-4 -4 -4 -6q-3 -5 -19.5 -30.5t-19.5 -30.5l-31 -56 h-161l4 -69h118l-81 -150q0 -2 -7 -2h-2h-2l9 15q-10 -3 -13 -15q-161 41 -329 41q-33 0 -54.5 -1t-64.5 -4t-72.5 -12t-60.5 -23t-47.5 -38.5t-16.5 -56.5zM119 135q0 77 182 98h61q207 0 355 -61q-46 -52 -126.5 -81t-147 -35.5t-152.5 -6.5h-66q-106 21 -106 86zM166 119 q0 -22 24 -36t54 -20h63q257 0 369 80q-130 43 -297 43h-57q-156 -22 -156 -67zM1096 979v2v-2zM1194 641q8 17 90 176q58 102 91 140q63 70 126 71q30 0 38.5 -8.5t8.5 -38.5q0 -72 -116 -188q102 106 102 172q0 11 -3 13.5t-13 2.5q-28 0 -55 -16.5t-53 -51t-39.5 -55.5 t-35.5 -59v2q-1 -2 -4 -7.5t-4 -7.5q-25 -40 -57 -112q65 30 135 94q-58 -53 -115.5 -89.5t-89.5 -37.5h-6z" />
<glyph unicode="&#xa4;" horiz-adv-x="1705" />
<glyph unicode="&#xa5;" horiz-adv-x="1650" d="M49 469q0 12 9.5 21.5t21.5 9.5h156q55 114 168.5 178.5t250.5 64.5h15q35 0 53 -2q22 38 67.5 115t67.5 115v-2q39 76 39 102q0 10 -12 14h-23q-94 0 -179.5 -72.5t-127.5 -166.5q-2 -13 -6 -27q-1 -4 -3.5 -13t-4 -14.5t-4 -14t-4.5 -13.5t-5.5 -12t-7 -11t-8 -8 t-9.5 -5t-11 -1t-13 2q-20 8 -20 29v26q0 75 32 146t85 123.5t125 84t149 31.5q91 0 144 -53.5t53 -144.5q0 -47 -18 -99.5t-35.5 -84.5t-51.5 -89q-16 -24 -29 -53q2 -1 5.5 -3t8.5 -5.5t9 -5.5q21 -14 29.5 -21t19 -22.5t10.5 -32.5q0 -18 -13 -30.5t-38 -12.5 q-25 16 -29 20h3q-18 14 -48 39q-6 -10 -38.5 -68t-45.5 -81q-12 -18 -12 -35q0 -4 17 -4q56 0 116.5 53.5t106.5 118.5q104 151 180 266q38 56 84.5 156t77.5 186q13 13 30 13q22 0 58 -9q32 -8 41 -8q20 0 35 6h-2q38 11 49 11q19 0 27.5 -13t0.5 -30l-331 -687l-105 -178 q-87 -139 -244 -219t-323 -80q-134 0 -230 50.5t-137 152.5h-137q-12 0 -21.5 8.5t-9.5 20.5l-4 78q0 12 9.5 21t21.5 9h113v13q0 9 -1.5 17t1.5 17h-115q-12 0 -21.5 9.5t-9.5 21.5zM63 485l3 -82h151q-6 -35 -6 -65q0 -29 2 -43h-145l4 -76h157q36 -99 128 -151t218 -52 q159 0 309 76t232 209l105 178l329 682q-13 0 -40 -8t-42 -8q-16 0 -49 8t-49 8q-4 0 -6 -2q-29 -81 -75.5 -180t-86.5 -158l-180 -266q-28 -41 -63.5 -80t-87.5 -72.5t-97 -33.5q-23 0 -35 6.5t-12 27.5q0 26 16 52q13 24 37.5 66.5t43.5 74.5t20 33l2 4q6 -6 8 -6 q29 -21 82 -68q12 0 12 12q0 15 -21.5 32t-43 32.5t-21.5 26.5l6 12q8 14 41.5 70.5t46.5 82.5t28 72.5t15 87.5q0 77 -44.5 122.5t-120.5 45.5q-145 0 -253 -106.5t-108 -247.5v-27l4 -4q5 0 12.5 24t14 51.5t8.5 31.5q45 101 138 178.5t196 77.5h28q37 -8 37 -46 q0 -37 -43 -116l-147 -248q-23 6 -82 6q-131 0 -240.5 -66t-158.5 -178h-177zM258 295v18q0 43 12 90h242l-2 84l-209 -2q50 94 141 152.5t193 58.5q38 0 65 -6v-2q0 -26 -20.5 -81t-20.5 -85q0 -41 9.5 -79t37 -68.5t68.5 -30.5q61 0 127 46.5t105 101.5l135 186l12 -10 l-215 -377q-63 -107 -167 -172.5t-224 -65.5q-95 0 -169 43t-104 123h240v80zM305 309q37 0 112.5 2t112.5 2q12 0 21.5 -9t9.5 -21v-80q0 -12 -9.5 -21.5t-21.5 -9.5h-188q65 -104 221 -104q111 0 208 61t157 162v-2q3 5 57 100q-103 -92 -194 -92q-40 0 -70 20.5t-45.5 53 t-23 66.5t-7.5 69q0 39 23 98q2 4 7 11.5t7 14t2 17.5q-12 2 -33 2q-80 0 -153.5 -40.5t-124.5 -108.5q26 0 77 1t76 1q12 0 21.5 -9.5t9.5 -21.5l2 -84q0 -12 -9.5 -21.5t-21.5 -9.5h-219q-4 -14 -4 -47z" />
<glyph unicode="&#xa6;" horiz-adv-x="344" />
<glyph unicode="&#xa7;" horiz-adv-x="1658" d="M20 16q0 101 47 194.5t123 158.5t173.5 104t195.5 39q108 0 193.5 -50t113.5 -145q4 1 19.5 6t21.5 7q-17 61 -22 86l2 -2q-17 71 -17 110q0 106 73 199t177 121q-5 21 -16.5 62t-16.5 61h3q-17 71 -17 110q0 127 94.5 227.5t221.5 100.5q53 0 101.5 -16t86 -56.5 t37.5 -99.5q0 -58 -38 -94.5t-97 -36.5q-58 0 -92.5 32t-34.5 91q0 63 55 96h-27q-55 0 -87.5 -36t-32.5 -93q0 -82 71 -209q28 -52 41 -79t27 -73.5t14 -89.5q0 -23 -4 -51v-4q0 -1 1 -3t1 -3q0 -32 -16 -64q-52 -173 -215 -284q30 -61 30 -144q0 -102 -46 -191.5 t-121 -152.5t-170 -108.5t-193.5 -67.5t-190.5 -22q-83 0 -164.5 23.5t-150.5 67.5t-111.5 116.5t-42.5 162.5zM35 33q0 -82 40 -149t104 -107.5t140 -62t154 -21.5q88 0 182.5 20.5t185.5 64t162.5 102.5t115.5 144t44 181q0 71 -41 155q183 114 230 285q12 21 12 51 q0 2 -1 7.5t-1 7.5q4 28 4 47q0 57 -24 119t-53 107.5t-53 107t-24 116.5q0 69 42 114.5t110 45.5q25 0 54.5 -8.5t29.5 -28.5v-2q-82 -28 -82 -88q0 -43 26 -67.5t70 -24.5q45 0 75 28t30 72q0 48 -32 81.5t-74.5 47t-88.5 13.5q-115 0 -200 -91t-85 -206q0 -53 15 -103 l41 -155q-106 -10 -182 -99t-76 -196q0 -56 14 -103l29 -110q-54 -23 -101 -31q-19 94 -101 147.5t-183 53.5q-125 0 -241.5 -60.5t-191.5 -169t-75 -235.5zM78 0q0 91 46.5 176t120 144.5t164.5 95t179 35.5q80 0 139.5 -44t69.5 -116q-11 -2 -19 -2q-15 53 -63 83.5 t-111 30.5q-111 0 -221 -54.5t-184 -153t-74 -211.5v-33q18 -68 77 -116.5t130 -69.5t145 -21q82 0 164.5 23t152.5 65t114 111.5t44 154.5v13q0 45 -2 53h2l-16 61q-11 -3 -59 -14q-9 -157 -135 -271t-285 -114q-95 0 -151 49t-56 143q0 85 53 152.5t130 101t157 33.5h39 q32 0 98 -16q-36 0 -94.5 1t-59.5 1q-73 0 -142.5 -29.5t-118 -90t-48.5 -136.5q0 -79 47.5 -120.5t128.5 -41.5q99 0 189 50.5t145 137t55 185.5v8q55 9 111 27l25 -93q2 -10 2 -73q0 -74 -31 -138t-82 -108.5t-117 -76.5t-136.5 -47t-139.5 -15q-83 0 -160 22t-141.5 76.5 t-81.5 132.5v39zM297 14q0 100 79 169t183 69l242 -2q-4 -85 -67 -165.5t-152 -127.5t-172 -47h-35q-78 14 -78 104zM344 -2q0 -59 53 -74h29q110 0 221.5 84.5t134.5 194.5l-207 2q-92 0 -161.5 -60t-69.5 -147zM1010 655q0 66 38 111t101 49l18 -74q2 -10 2 -73 q0 -136 -86 -232q-36 65 -54.5 114t-18.5 105zM1057 639q0 -72 47 -164q51 77 51 176v13q0 45 -2 53l-12 47q-39 -10 -61.5 -44.5t-22.5 -80.5z" />
<glyph unicode="&#xa8;" horiz-adv-x="602" d="M88 1257q0 46 31.5 80.5t77.5 34.5q37 0 66 -25.5t38 -60.5q9 35 38 59.5t67 24.5q45 0 76.5 -36t31.5 -79q0 -46 -31 -80t-77 -34q-39 0 -67.5 24t-37.5 60q-9 -35 -38 -58.5t-66 -23.5q-46 0 -77.5 34.5t-31.5 79.5zM102 1274q0 -33 22.5 -58.5t55.5 -25.5t55.5 25.5 t22.5 58.5q0 32 -22.5 58t-55.5 26t-55.5 -25.5t-22.5 -58.5zM311 1272q0 -33 22.5 -58.5t55.5 -25.5t55.5 25.5t22.5 58.5q0 32 -22.5 58t-55.5 26t-55.5 -25.5t-22.5 -58.5z" />
<glyph unicode="&#xa9;" horiz-adv-x="1380" d="M80 543q-4 127 41.5 242.5t126 200.5t191.5 139t235 65h71q109 0 206.5 -32.5t173.5 -92t122.5 -152.5t50.5 -206q4 -177 -98 -317t-266 -216q-90 -39 -189 -39q-66 0 -125.5 18t-107.5 53t-76 93.5t-28 132.5q1 77 44 161.5t110.5 152.5t161 109.5t185.5 35.5h37 q70 -9 110 -52t40 -114q0 -68 -33.5 -112t-99.5 -44q-59 0 -94 38t-35 98v6q-32 -40 -52 -70h2q-35 -60 -84.5 -167t-56.5 -163q5 -80 109 -80q76 0 141 35q312 158 301 432q-6 173 -132 281t-302 108q-150 0 -269 -75.5t-181.5 -202t-57.5 -277.5q6 -207 146 -328.5 t350 -121.5q202 0 399 131q12 7 24.5 3.5t18.5 -15.5q5 -11 20 -29q7 -9 6 -21t-10 -20q-54 -49 -124.5 -83.5t-138 -49.5t-115 -21t-83.5 -6q-129 0 -245 36t-208.5 105t-149.5 180t-62 251zM94 561q4 -107 40.5 -197t96 -153t139 -107t170.5 -65t189 -21q34 0 79.5 5.5 t110 20t132 47.5t118.5 79q-15 18 -22 33h-2q-201 -135 -414 -135q-145 0 -262.5 56.5t-188.5 167t-75 257.5q-6 159 60 292.5t192.5 213.5t285.5 80q190 0 324.5 -116t140.5 -302q7 -154 -79 -269.5t-238 -191.5q-62 -31 -127.5 -39t-115.5 20.5t-52 94.5q8 60 59 171.5 t86 170.5q19 28 26.5 38.5t31.5 40t41 44t42 28t48 13.5q0 -21 -13 -34t-28 -18.5t-28 -21.5t-13 -43q0 -45 26.5 -75t71.5 -30q51 0 77 35t26 90q0 58 -32.5 93t-90.5 43h-35q-86 6 -173.5 -33t-151 -102.5t-103.5 -142t-41 -150.5q0 -92 49.5 -156t123 -88.5t157 -21.5 t153.5 36q160 71 255 201.5t91 302.5q-9 210 -159 331.5t-363 121.5h-70q-118 -10 -223.5 -62t-182 -132.5t-120 -190.5t-39.5 -230z" />
<glyph unicode="&#xaa;" horiz-adv-x="974" d="M84 870q0 85 66.5 161t156.5 117t168 40q83 -3 113 -68q3 5 10.5 19.5t11.5 21.5t12.5 12t14.5 3l20 -7h-2q46 -8 64 -8q1 0 69 10q9 3 23 3t20.5 -11.5t-0.5 -23.5l-174 -324v2q-28 -63 -28 -90q0 -4 -2 -4q21 1 43.5 13.5t49 39t45.5 49t50 62.5q8 12 14 18 q15 25 23 35q10 16 33 16q35 0 35 -36v-17l-56 -74q-126 -182 -241 -182q-61 0 -90.5 30.5t-47.5 86.5q-35 -34 -69 -72q-26 -25 -63 -40t-70 -15q-93 0 -146 68.5t-53 164.5zM96 883q0 -85 46 -147t128 -62q70 0 117 47l100 104q1 -3 6.5 -22t7 -23.5t7 -20.5t9.5 -21 t11 -17t14 -16t17 -10.5t22.5 -8.5t26.5 -2q109 0 226 172l51 68v10q0 4 -4 8t-9 4q-10 0 -14 -6l-20 -33q-84 -106 -112 -134q-62 -59 -114 -60q-20 0 -20 28q0 27 31 97l176 323v2q-72 -14 -92 -14q-17 0 -89 14h-2l-45 -90h-2q-8 47 -34.5 75t-71.5 28 q-54 1 -117.5 -21.5t-119.5 -60.5t-93 -94.5t-37 -116.5zM115 504v127q0 12 9 21.5t21 9.5h517q12 0 21 -9.5t9 -21.5v-127q0 -12 -9 -21.5t-21 -9.5h-517q-12 0 -21 9.5t-9 21.5zM129 520h516v127h-516v-127zM217 741v13q0 28 12 55l66 139l51 90q65 111 131 111 q32 0 47 -22.5t15 -57.5q0 -88 -52 -170l-57 -90q-73 -107 -149 -107q-53 0 -64 39zM254 735q6 -22 39 -22q66 0 129 96l57 90q47 78 47 158q0 57 -34 57q-54 0 -113 -100q-8 -15 -25.5 -44.5t-25.5 -43.5l2 2q-10 -24 -33 -72t-33 -72q-10 -15 -10 -43v-6z" />
<glyph unicode="&#xab;" horiz-adv-x="884" />
<glyph unicode="&#xac;" horiz-adv-x="1052" d="M14 805v127q0 12 9.5 21.5t21.5 9.5h870q12 0 21.5 -9.5t9.5 -21.5l-2 -418q0 -12 -9.5 -21.5t-21.5 -9.5h-102q-12 0 -21.5 9.5t-9.5 21.5v260h-735q-12 0 -21.5 9.5t-9.5 21.5zM29 821h766v-291h102l2 418h-870v-127z" />
<glyph unicode="&#xad;" horiz-adv-x="618" d="M104 584q0 12 9.5 21t21.5 9h344q12 0 21.5 -9t9.5 -21l4 -88q0 -12 -9.5 -21.5t-21.5 -9.5h-344q-12 0 -21 8.5t-9 20.5zM119 600l4 -88h344l-4 88h-344z" />
<glyph unicode="&#xae;" horiz-adv-x="1374" d="M74 545q-1 126 47 241.5t130 200t193.5 138.5t235.5 65h72q109 0 206.5 -32.5t172.5 -92t119.5 -152.5t45.5 -206q0 -98 -34 -198t-97 -167q-28 -39 -87 -69.5t-99 -32.5q-77 -3 -111 37.5t-34 109.5q0 54 55 131q-18 -2 -62 -2q-26 0 -39 10q-5 -13 -15.5 -36.5 t-14.5 -32.5q-43 -97 -134.5 -158t-197.5 -61q-47 0 -88 14q64 -82 166.5 -126t226.5 -44q204 0 404 131q12 7 24.5 3.5t18.5 -15.5q5 -11 20 -29q7 -9 6 -21t-10 -20q-55 -49 -127 -84t-140 -49.5t-115 -20.5t-83 -6q-103 0 -198 22t-177.5 69t-143.5 113.5t-97.5 161.5 t-38.5 208zM88 561q2 -107 37 -197t93.5 -153t137 -107t169 -65t188.5 -21q34 0 79.5 5.5t110.5 20t133.5 47.5t120.5 79q-15 18 -22 33h-5q-201 -135 -415 -135q-145 0 -261 56.5t-185 167t-70 257.5q-2 159 67 292.5t197 213.5t287 80q189 0 321 -116t135 -302 q2 -88 -42.5 -187.5t-114.5 -158.5q-21 -21 -70 -43q56 42 65 51q66 54 108 147t40 174q-2 115 -60.5 204t-154.5 136t-211 47q-150 0 -270.5 -75.5t-186 -202t-63.5 -277.5q0 -43 4 -63q28 35 72 35q39 0 65.5 -25.5t26.5 -64.5q0 -60 -60 -82q16 -13 52 -13q72 0 126 70 q-42 3 -73 41.5t-29 79.5q6 88 58 160t127 113t159 61t158 14q25 -2 40 -3.5t44 -6t48 -10.5t42.5 -17t37.5 -25.5t24 -36t10 -48.5q0 -37 -15.5 -65.5t-43.5 -46.5t-50 -27.5t-51 -18.5h-2q22 -33 22 -78q-2 -39 -43 -94q-2 -2 -6 -8.5t-5.5 -8.5t-5.5 -8t-4.5 -8t-3.5 -8 t-1.5 -8t0.5 -8q-44 -18 -47 10q-5 31 31.5 80.5t37.5 79.5q1 22 -5.5 38.5t-17.5 30.5t-12 17v2q2 5 21 11t44 15t50 22.5t42 38.5t17 58q0 21 -9 38t-21 28t-33.5 20t-37.5 14t-42.5 9t-38.5 5t-35 3q-69 5 -147.5 -13.5t-149 -56.5t-119 -104t-53.5 -146q-2 -31 23 -59.5 t57 -28.5v2l-2 13q-26 8 -34.5 16.5t-8.5 34.5q0 61 45 131q118 192 377 192h43q77 -8 84 -61v-19q0 -55 -35 -96l-57 -63q-35 12 -37 12h-94q-7 1 -12 -5t-5 -13q0 -17 23 -17q19 0 57 3t58 3v-2q0 -12 -19.5 -38t-39 -60.5t-19.5 -65.5q0 -54 27 -85.5t88 -30.5 q35 2 85.5 28.5t75.5 61.5q60 63 92.5 157.5t32.5 188.5q-2 141 -74.5 245.5t-187 156t-252.5 51.5h-69q-118 -10 -224.5 -62t-184.5 -132.5t-124 -190.5t-45 -230zM236 406q0 -58 55.5 -89.5t118.5 -31.5q98 0 181.5 54.5t121.5 145.5l67 156q26 57 62 94.5t92 67.5h-6 q-81 0 -150.5 -56t-111.5 -137l-95 -174q-36 -65 -77.5 -98t-104.5 -33q-45 0 -70 16.5t-18 51.5q28 0 47 14.5t19 42.5q0 26 -17.5 42.5t-44.5 16.5q-31 0 -50 -25t-19 -58zM526 485q0 -10 4.5 -13.5t18.5 -8.5q10 -3 18 -19q46 87 88 164q48 94 131 154 q-144 -40 -219 -162q-41 -62 -41 -115zM825 612h99q2 -1 8.5 -2.5t11.5 -3.5q15 15 43 47q27 34 27 76v14q-5 19 -37 31q-3 -8 -12 -14q-94 -53 -140 -148z" />
<glyph unicode="&#xb0;" horiz-adv-x="669" d="M68 825q0 96 56.5 182.5t147 137.5t185.5 51h26q26 -2 62.5 -21t40.5 -45q0 -21 -13 -34q-12 -2 -22 -2q29 -29 29 -90q0 -41 -17 -97q1 0 4 -1t4 -1q15 -6 21 -9t14 -12t8 -22q0 -33 -20 -43q-3 -2 -12.5 -2.5t-12.5 0.5q-24 9 -39 19q-129 -220 -290 -220 q-86 0 -129 60.5t-43 148.5zM82 842q0 -75 35.5 -126.5t105.5 -51.5q152 0 281 231q29 -23 59 -33q4 2 4 17q0 4 -8 8v6q-2 -2 -2 -4v-2q-4 2 -17.5 6.5t-20.5 9.5t-7 12v3q20 55 20 102q0 78 -38 78q-26 0 -38 -22.5t-12 -51.5q0 -56 45 -111v-2q0 -1 -24 -49 q-33 -50 -62.5 -84.5t-78 -65t-99.5 -30.5q-63 0 -63 63t46 161t119 175.5t136 77.5h14q7 -1 21 -8t24.5 -12.5t12.5 -3.5q4 4 4 6q-3 15 -30 27t-46 14h-23q-135 0 -246.5 -103.5t-111.5 -236.5zM209 729q0 -15 9 -24t24 -9q105 0 215 166l8 17l-2 -2q4 7 7 11q1 1 1 3 q-41 53 -41 117q0 36 15 66.5t49 35.5q-2 2 -5 2h-10q-57 0 -122 -72t-106.5 -162.5t-41.5 -148.5zM465 1026q0 55 27 55q20 0 20 -65q0 -48 -16 -84q-15 11 -23 40.5t-8 53.5z" />
<glyph unicode="&#xb1;" horiz-adv-x="702" d="M45 479q0 12 9.5 21.5t21.5 9.5h192v195q0 12 9.5 21t21.5 9l88 4q12 0 21.5 -9t9.5 -21v-199h215q12 0 21.5 -9.5t9.5 -21.5l4 -88q0 -12 -9.5 -21.5t-21.5 -9.5h-219v-206q0 -12 -9.5 -21.5t-21.5 -9.5l-88 -4q-12 0 -21.5 9.5t-9.5 21.5v210h-188q-12 0 -21.5 8.5 t-9.5 20.5zM59 496l4 -88h220v-242l88 4v238h250l-5 88h-245v229l-88 -4v-225h-224zM131 82q0 12 9.5 21.5t21.5 9.5h344q12 0 21.5 -9.5t9.5 -21.5l4 -88q0 -12 -9.5 -21.5t-21.5 -9.5h-344q-12 0 -21.5 8.5t-9.5 20.5zM145 98l5 -88h344l-5 88h-344z" />
<glyph unicode="&#xb2;" horiz-adv-x="761" d="M51 627l2 14q51 107 127 160h-2q39 28 119 83t119 83q25 17 42 51.5t17 66.5q0 33 -35 33q-34 0 -80 -24q23 -6 35.5 -26.5t12.5 -43.5q0 -47 -35 -72.5t-80 -25.5q-41 0 -64.5 22.5t-23.5 65.5q0 55 43.5 99.5t100 65.5t106.5 21q76 0 131 -45t55 -121q0 -74 -55 -124 t-133 -76q-5 -2 -42.5 -14.5t-58.5 -18.5l72 -23q58 -24 94 -24q53 0 90 75q9 27 35 27q31 0 41.5 -12.5t-6.5 -40.5q-34 -96 -114.5 -150.5t-153.5 -54.5q-30 0 -60 12l6 -2q-2 1 -6 2.5t-6.5 2.5t-3.5 1q-1 1 -5 2t-5 2q-99 48 -135 48q-23 0 -60 -48v3q-21 -35 -45 -35 q-39 0 -39 41zM66 643q0 -10 8 -10q5 0 19 20t36.5 40t48.5 20q53 0 158 -56q40 -12 57 -12q65 0 138 50.5t104 138.5q5 8 -8 8q-4 0 -6 -6q-23 -46 -49.5 -71.5t-69.5 -25.5q-37 0 -104.5 27t-104.5 27q-42 0 -113 -27h-2q34 42 109 68l139 45q70 22 119 65t49 107 q0 62 -46 98.5t-110 36.5q-72 0 -145.5 -44.5t-73.5 -111.5q0 -57 57 -57q33 0 58.5 17t25.5 50q0 16 -8.5 29.5t-25.5 13.5h-41q0 28 53.5 55t85.5 27q65 0 65 -63q0 -38 -21 -80t-50 -64l-238 -165q-65 -45 -114 -148v-2z" />
<glyph unicode="&#xb3;" horiz-adv-x="653" d="M47 731q0 51 26.5 87t76.5 36q43 0 68.5 -25.5t25.5 -66.5q0 -39 -17 -57t-49 -25q8 -4 21 -4q46 0 90.5 65t46.5 105v6h-4q-14 0 -51.5 1t-49.5 1q-28 3 -39.5 16.5t-11.5 40.5q0 28 17 43q-7 12 -7 39q0 92 62.5 148.5t159.5 50.5q180 -9 180 -139q0 -50 -33 -86 t-82 -58q31 -31 41 -73v-27q0 -66 -47 -118.5t-111.5 -78.5t-126.5 -26q-70 0 -128 38t-58 107zM61 748q0 -55 48.5 -85t107.5 -30q89 0 171.5 54t82.5 138v19q-15 60 -76 94q59 13 104.5 45.5t45.5 85.5q0 100 -152 109q-83 4 -135.5 -43t-52.5 -125q0 -21 8 -21q7 0 10 6 q2 70 46 115t116 45q51 0 51 -43q0 -52 -32 -106t-80 -54q-17 0 -48.5 1t-46.5 1h-20q-14 -5 -14 -26q0 -24 24 -27l98 -2q15 -1 25 -13t8 -26q-1 -27 -25 -73t-64.5 -85.5t-78.5 -39.5q-24 0 -46.5 16t-22.5 41q0 2 2 2q20 2 30 4t24.5 7.5t21 17t6.5 28.5q0 28 -17.5 45 t-46.5 17q-35 0 -53.5 -27t-18.5 -65zM268 969h23q8 0 24.5 -1t24.5 -1q35 0 58.5 44t23.5 85q0 12 -21 12q-59 0 -94 -37.5t-37 -97.5z" />
<glyph unicode="&#xb4;" horiz-adv-x="393" d="M41 1110q16 26 49.5 83.5t48.5 80.5v-2q18 32 31 49l-2 -2q24 42 46 59t58 17q39 0 64.5 -26.5t25.5 -63.5q0 -53 -53 -97l-67 -55l-11 -10q-92 -73 -116 -94q-8 -6 -19.5 -7t-19.5 5l-27 22zM51 1110l27 -23q103 87 129 107l67 55q23 20 31 33q10 17 10 39q0 25 -16 41 q-16 18 -43 18t-43 -14q-20 -16 -35 -45q-95 -156 -127 -211z" />
<glyph unicode="&#xb5;" horiz-adv-x="1705" />
<glyph unicode="&#xb6;" horiz-adv-x="1705" />
<glyph unicode="&#xb7;" horiz-adv-x="452" d="M74 633q0 65 43.5 113.5t107.5 48.5t108 -50t44 -112q0 -65 -44 -113.5t-108 -48.5t-107.5 48.5t-43.5 113.5zM88 649q0 -52 35 -91.5t86 -39.5t86 39.5t35 91.5q0 51 -35 91t-86 40t-86 -39.5t-35 -91.5z" />
<glyph unicode="&#xb8;" horiz-adv-x="516" d="M72 -201q0 75 57 90q-2 8 -2 33l47 92q3 6 12 11.5t15 5.5h32q15 0 23.5 -10.5t5.5 -24.5q61 14 107 0q36 -12 60 -43t24 -70q0 -56 -43.5 -101.5t-99.5 -67t-105 -21.5q-58 0 -95.5 25.5t-37.5 80.5zM86 -184q0 -39 29 -57.5t73 -18.5q43 0 92 18.5t87.5 56.5t38.5 85 q0 29 -17.5 52t-44.5 32q-65 20 -154 -27h-2q1 4 14 29.5t15 29.5h-33l-43 -84v-6q0 -8 9 -8q16 0 52.5 21.5t59.5 21.5q49 0 49 -35q0 -54 -47.5 -110t-99.5 -56q-20 0 -29.5 10.5t-9.5 24.5h11h10t8.5 0.5t8 1l6 2t6 3.5t4 5t3 6.5t1.5 9t1 11.5q0 20 -13 31.5t-32 11.5 q-25 0 -39 -16t-14 -45zM201 -121q30 -20 30 -61q0 -17 -2 -25q28 21 48 54.5t20 62.5q0 4 -18 4q-21 0 -46 -18q-21 -13 -32 -17z" />
<glyph unicode="&#xb9;" horiz-adv-x="518" d="M25 877q0 30 26 38q29 17 82 50t82 49q37 28 111.5 84.5t111.5 83.5q20 13 38 -2t7 -37l-231 -447l2 2q-6 -14 -18.5 -44.5t-18.5 -45.5q-6 -14 -20.5 -17.5t-26.5 5.5q-15 10 -45 10q-16 -4 -25 -4l-45 4q-12 6 -15 18.5t3 22.5l133 250q-10 -6 -41.5 -25t-48.5 -28 q-8 -4 -25 -4q-36 0 -36 37zM39 893q0 -6 6 -6h8l183 106l-183 -344v-2q4 1 25 3t24 3h4q43 0 66 -16l2 4l35 86l231 447v2l-223 -170l-172 -103q-6 -2 -6 -10z" />
<glyph unicode="&#xba;" horiz-adv-x="868" d="M80 504v127q0 12 9.5 21.5t21.5 9.5h104q-53 35 -84 92t-31 120q0 77 41.5 140.5t106 102t137 59t141.5 20.5q85 0 140 -43.5t55 -128.5q0 -62 -25.5 -116.5t-72.5 -116.5q20 6 44 22t37 28t41 38q42 0 52 -10.5t4 -51.5q-91 -121 -207 -121q-19 0 -45 11q-12 4 -17 4 q-34 -34 -59 -49h154q12 0 21 -9.5t9 -21.5v-127q0 -12 -9 -21.5t-21 -9.5h-516q-12 0 -21.5 9.5t-9.5 21.5zM94 520h516v127h-516v-127zM115 891q0 -86 60.5 -153.5t146.5 -67.5q92 0 182 90q14 0 38 -8.5t36 -8.5q98 0 176 103l2 4q0 9 -3 11.5t-12 2.5h-6 q-84 -92 -157 -92h-11l-4 4q0 8 2 15t7 16t6 12q47 63 71.5 113t24.5 108q0 70 -46 106t-118 36q-64 0 -131.5 -18.5t-127 -53t-98 -92t-38.5 -127.5zM240 750v14q0 65 43 156t115 162t141 71q37 0 64.5 -17.5t27.5 -50.5q0 -12 -15 -20.5t-37 -18t-45 -24.5t-40.5 -49 t-20.5 -82q-3 -44 21 -96q0 -29 -68.5 -63t-103.5 -34q-72 0 -82 52zM287 739q5 -26 51 -26q26 0 77.5 20t61.5 39q-21 47 -18 105q3 36 14 66t23.5 48t33.5 34.5t33.5 23.5t32.5 16q4 3 11.5 4.5t8.5 -0.5q-3 37 -61 37q-62 0 -126.5 -65.5t-103 -149t-38.5 -143.5v-9z" />
<glyph unicode="&#xbb;" horiz-adv-x="935" d="M92.5 932q8.5 16 28.5 16h158q16 0 24 -12l328 -444q5 -6 5.5 -17.5t-3.5 -17.5l-287 -469q-3 -5 -12 -10t-15 -5h-155q-20 0 -28.5 15t1.5 32l273 449l-314 430q-12 17 -3.5 33zM104 934l326 -449l-283 -465h156l287 469l-328 445h-158zM344.5 938q8.5 16 28.5 16h155 q17 0 25 -12l330 -444q5 -6 5.5 -17.5t-3.5 -17.5l-287 -469q-3 -5 -12 -9.5t-15 -4.5h-157q-20 0 -28.5 15t1.5 32l275 448l-314 430q-12 17 -3.5 33zM356 940l326 -448l-285 -465h158l287 469l-330 444h-156z" />
<glyph unicode="&#xbc;" horiz-adv-x="976" d="M57 51l590 1116q5 9 16 18t21 9q24 0 78.5 -23t54.5 -47q0 -1 -1 -6t-1 -6l-493 -932l385 324v-2q109 92 184 90q18 0 25 -15t-1 -30l-176 -346q62 6 119 55q29 0 42 -11t13 -38q-54 -86 -215 -86q-11 -21 -35 -65l-36 -66q-12 -20 -33 -17q-44 9 -57 9q-4 0 -12 -1.5 t-21.5 -4t-22.5 -3.5q-20 -3 -29.5 11.5t-0.5 33.5l63 123h-22q-75 0 -154 -45q-23 0 -33.5 7t-9.5 28l-74 -139l4 14q0 -1 -2 -3t-2 -3q0 -15 -11 -24.5t-26 -6.5q-83 21 -116 37h-2v2l-7 12q-9 18 -2 31zM66 6h2h-2zM68 53q4 -6 6 -8q6 -4 31 -11t47 -12l22 -6l4 7 l590 1112q1 2 2 4.5t1.5 3.5t0.5 2q-1 11 -44 23t-60 12h-2q-2 0 -4.5 -2.5t-2.5 -3.5zM94 881q0 9 3.5 15.5t6.5 9t13 7.5h-2q28 18 87 53.5t87 53.5l-2 -2q38 28 114.5 85t114.5 85q20 13 38 -2t7 -37l-231 -451q-5 -13 -16.5 -40.5t-16.5 -41.5q0 -8 -3 -12.5t-6 -6 t-14 -7.5q-18 -9 -32 2q-10 8 -47 8h-62q-15 3 -20.5 17.5t2.5 27.5l135 258q-72 -45 -86 -53q-7 -7 -11.5 -8.5t-19.5 -1.5q-39 0 -39 41zM109 897q0 -10 8 -10q7 0 8 2l184 108l-184 -350v-4q16 4 51 4h2q48 0 66 -14q6 3 6 4l35 90l233 453v4l-229 -174l-174 -107 q-6 -3 -6 -6zM158 846l6 4q-4 -4 -6 -4zM305 156q0 -13 10 -13h2q76 45 158 45q66 0 70 -4v-2l-84 -162v-2q46 11 59 11q20 0 64 -9h2q2 1 2 3l76 145h6q153 -1 196 65q0 9 -12 9h-2q-65 -56 -147 -56h-21l-10 2l198 390v2q-66 0 -161 -84l-402 -336zM387 199l299 254 l-129 -250h-2q-13 0 -40 4t-40 4q-14 0 -28.5 -2t-32 -5.5t-27.5 -4.5zM502 225q5 -1 16.5 -2t16.5 -2q20 -4 22 -4q12 23 19 38.5t28 55.5q-13 -11 -48 -41t-54 -45z" />
<glyph unicode="&#xbd;" horiz-adv-x="1021" d="M63 51l590 1116q5 9 16 18t21 9q24 0 78.5 -23t54.5 -47q0 -1 -1 -6t-1 -6l-594 -1120l4 14q0 -1 -2 -3t-2 -3q0 -15 -11 -24.5t-26 -6.5q-83 21 -116 37l-8 14q-9 18 -3 31zM74 53q4 -6 6 -8q6 -4 31 -11t47 -12l22 -6l4 7l590 1112q1 2 2 4.5t1.5 3.5t0.5 2 q-1 11 -44 23t-60 12h-2q-2 0 -4 -2t-2 -4zM84 868q0 14 5 20t17 13h-2q28 17 87 53.5t88 53.5l-3 -2q38 28 115 85t115 85q20 13 38 -2t7 -37l-232 -451q-5 -14 -16 -41.5t-16 -40.5q0 -8 -3 -12.5t-6 -6t-14 -7.5q-18 -9 -33 2q-10 8 -47 8h-61q-15 3 -21 17.5t2 27.5 l136 258q-73 -45 -86 -53q-8 -8 -12 -9.5t-19 -1.5q-39 0 -39 41zM98 885q0 -11 8 -11t9 3l184 108l-184 -350v-4q16 4 51 4h2q47 0 65 -14q7 3 7 4l34 90l234 452v4l-229 -174l-175 -106q-6 -3 -6 -6zM147 834l7 4q-4 -4 -7 -4zM311 -2l2 14q51 107 127 160h-2 q39 27 119 82.5t119 83.5q25 17 42 52t17 67t-35 32q-33 0 -79 -24q23 -6 35 -26.5t12 -43.5q0 -47 -35 -72.5t-80 -25.5q-41 0 -64.5 22.5t-23.5 65.5q0 55 43.5 99.5t100 65.5t106.5 21q76 0 131 -44.5t55 -120.5q0 -74 -55 -124.5t-133 -76.5q-5 -2 -42.5 -14.5 t-58.5 -18.5q13 -3 72 -22q60 -25 94 -25q53 0 90 76q9 26 35 26q31 0 41.5 -12.5t-6.5 -40.5q-34 -96 -114.5 -150.5t-153.5 -54.5q-28 0 -60 13h6q-12 4 -16 4q-1 1 -5 2t-5 2q-97 47 -135 47q-9 0 -17.5 -4t-17.5 -13.5t-12.5 -13.5t-12.5 -16v2q-21 -35 -45 -35 q-39 0 -39 41zM326 14q0 -10 8 -10q5 0 19 20t36.5 40t48.5 20q55 0 158 -55q43 -13 57 -13q65 0 138 50.5t104 138.5q5 8 -8 8q-4 0 -6 -6q-23 -45 -49.5 -70.5t-69.5 -25.5q-37 0 -104.5 26.5t-104.5 26.5q-42 0 -113 -27h-2q34 42 109 68l139 45q70 22 119 65t49 107 q0 62 -46 98.5t-110 36.5q-72 0 -145.5 -44.5t-73.5 -111.5q0 -57 58 -57q33 0 58.5 17.5t25.5 50.5q0 16 -9 29.5t-26 13.5h-41q0 28 53.5 55t85.5 27t49 -17t17 -47q0 -38 -21 -79.5t-51 -63.5l-238 -166q-65 -45 -114 -148v-2z" />
<glyph unicode="&#xbe;" horiz-adv-x="1093" d="M61 735q0 51 26.5 87t76.5 36q43 0 68.5 -25.5t25.5 -66.5q0 -40 -16.5 -57.5t-48.5 -24.5q8 -4 20 -4q46 0 90.5 65t46.5 105v6h-4q-14 0 -51 1t-49 1q-28 3 -39.5 16.5t-11.5 40.5q0 29 16 43q-6 10 -6 39q0 92 62 148.5t159 50.5q180 -9 180 -139q0 -50 -32.5 -86.5 t-81.5 -57.5q29 -29 40 -73v-27q0 -66 -47 -118.5t-111 -78.5t-126 -26q-70 0 -128.5 38t-58.5 107zM76 752q0 -55 48 -85t107 -30q89 0 171.5 54t82.5 138v19q-15 60 -75 94q59 13 104 45.5t45 85.5q0 100 -151 109q-83 4 -136 -43t-53 -125q0 -21 8 -21t11 6 q2 70 45.5 115t115.5 45q52 0 52 -43q0 -52 -32.5 -106t-80.5 -54q-17 0 -48 1t-46 1h-21q-14 -5 -14 -26q0 -24 24 -27l99 -2q15 -1 25 -13t8 -26q-1 -27 -25 -73t-64.5 -85.5t-78.5 -39.5q-24 0 -47 16.5t-23 40.5q0 2 2 2q20 2 30 4t24.5 7.5t21 17t6.5 28.5 q0 28 -17.5 45t-46.5 17q-35 0 -53 -27t-18 -65zM168 51l590 1116q5 9 16 18t21 9q24 0 78.5 -23t54.5 -47q0 -1 -1 -6t-1 -6l-494 -932l385 324v-2q109 92 184 90q18 0 25.5 -15t-0.5 -30l-176 -346q62 6 119 55q29 0 42 -11t13 -38q-54 -86 -215 -86q-11 -21 -36 -65 t-36 -66q-12 -20 -32 -17q-43 9 -58 9q-4 0 -12 -1.5t-21 -4t-22 -3.5q-20 -3 -30 11.5t-1 33.5l64 123h-23q-74 0 -153 -45q-23 0 -33.5 7t-9.5 28l-74 -139l4 14q0 -1 -2 -3t-2 -3q0 -15 -11 -24.5t-26 -6.5q-84 21 -117 37l-8 14q-9 18 -2 31zM178 53q4 -6 6 -8 q6 -4 31.5 -11t47.5 -12l22 -6l4 7l590 1112q1 2 2 4.5t1.5 3.5t0.5 2q-1 11 -44.5 23t-60.5 12h-2q-2 0 -4 -2t-2 -4zM283 973h22q8 0 24.5 -1t24.5 -1q35 0 58.5 44t23.5 85q0 12 -20 12q-59 0 -94 -37.5t-37 -97.5zM416 156q0 -13 10 -13h2q76 45 158 45q65 0 69 -4v-2 l-84 -162v-2q46 11 60 11q19 0 63 -9h2q2 1 2 3l76 145h6q154 -1 197 65q0 9 -12 9h-2q-65 -56 -148 -56h-20l-11 2l199 390v2q-67 0 -162 -84l-401 -336zM498 199l299 254l-129 -250h-2q-14 0 -40 4t-40 4t-28.5 -2t-32 -5.5t-27.5 -4.5zM612 225q5 -1 16.5 -2t16.5 -2 q20 -4 23 -4q12 23 19 38.5t28 55.5q-88 -74 -103 -86z" />
<glyph unicode="&#xc0;" horiz-adv-x="1839" d="M-35 274q0 75 52.5 125t127.5 50q59 0 95 -36.5t36 -97.5q0 -58 -35.5 -94.5t-93.5 -36.5q-25 0 -49 6q1 -36 27 -62.5t66 -39.5t78.5 -19t74.5 -6q138 0 288 61t257 157q-494 220 -494 438q0 63 37 107.5t97 65t113.5 28.5t109.5 8q153 0 307.5 -69.5t277.5 -182.5 q53 43 157 128t157 128h-2q50 41 107.5 80t127.5 78t145 62.5t140 23.5q19 0 27 -14.5t-1 -31.5l-421 -811q74 16 130 66.5t56 114.5q0 23 -16 59q-8 17 0.5 30t27.5 13q41 0 68.5 -39t27.5 -78q0 -57 -23.5 -103.5t-58 -76t-86 -53.5t-95 -36t-97.5 -23q-17 -32 -50.5 -96 t-49.5 -95q-3 -6 -12 -11t-15 -5h-238q-18 0 -26 14t0 31l76 149q-119 6 -202 18t-185 40q-86 -63 -150 -103.5t-147.5 -82.5t-169 -62.5t-174.5 -20.5q-60 0 -115 9.5t-107.5 32t-91.5 57t-62.5 87.5t-23.5 119zM-20 291q0 -74 32 -129.5t86.5 -86t117 -45t132.5 -14.5 q88 0 172 20.5t166 62.5t144 82t147 102q4 4 14 4h6q188 -50 428 -62l-98 -192h238l106 205q52 10 93 20.5t92 32t84.5 48t57 69t23.5 94.5q0 29 -18.5 57.5t-46.5 28.5h-4q14 -25 18 -36.5t4 -35.5q0 -59 -43.5 -110.5t-105.5 -80t-121 -28.5v2l448 862h-6 q-110 0 -245.5 -72.5t-247.5 -164.5l-334 -273h-2q-119 118 -273 190t-309 72q-51 0 -100 -6.5t-103.5 -24t-88 -55.5t-33.5 -92q0 -47 27 -95.5t75.5 -90.5t99.5 -77.5t114.5 -68.5t105 -52t86.5 -38q8 -4 10 -6l-6 -8q-109 -109 -275 -179.5t-319 -70.5q-41 0 -84 7.5 t-89 24t-75 50t-29 78.5q0 32 10 39q39 -17 70 -17q44 0 71 29t27 72q0 47 -27.5 74.5t-72.5 27.5q-63 0 -106 -41t-43 -102zM469 723q0 39 23.5 67.5t60 43t72.5 21.5t71 7q161 0 320 -65.5t264 -180.5l-305 -274h-10q-10 0 -144 55q-352 153 -352 326zM516 707 q0 -143 334 -297q125 -54 131 -54q48 43 137 123.5t135 122.5q-102 97 -250.5 155t-289.5 58q-42 0 -83.5 -8.5t-77.5 -34.5t-36 -65zM1010 240q2 0 10 8q-4 -2 -10 -8zM1026 324l285 254h2q31 0 77.5 -130.5t51.5 -177.5q-179 3 -263 15.5t-153 38.5zM1102 319 q119 -29 319 -34q-16 67 -41.5 143.5t-44.5 97.5q-94 -82 -233 -207zM1352 616v2l254 228q91 85 217 145l-338 -651h-4q-44 176 -129 276zM1409 598q52 -70 100 -195q50 95 131 253.5t125 244.5q-74 -48 -123 -94zM1444 264v2v-2zM1554 1264l17 12l-6 -29q-2 2 -6 9t-5 8z M1571 1284v2l2 2z" />
<glyph unicode="&#xc1;" horiz-adv-x="1835" d="M-39 274q0 75 52.5 125t127.5 50q59 0 95 -36.5t36 -97.5q0 -58 -35.5 -94.5t-93.5 -36.5q-25 0 -49 6q1 -36 27 -62.5t66 -39.5t78.5 -19t74.5 -6q138 0 288 61t257 157q-494 220 -494 438q0 63 37 107.5t97 65t113.5 28.5t109.5 8q153 0 307.5 -69.5t277.5 -182.5 q53 43 157 128t157 128h-2q50 41 107.5 80t127.5 78t145 62.5t140 23.5q19 0 27 -14.5t-1 -31.5l-422 -811q74 16 130.5 66.5t56.5 114.5q0 21 -17 59q-7 17 1.5 30t27.5 13q41 0 68.5 -39t27.5 -78q0 -57 -23.5 -103.5t-58 -76t-86 -53.5t-95 -36t-97.5 -23 q-16 -32 -50 -96t-50 -95q-3 -6 -12 -11t-15 -5h-238q-18 0 -26 14t0 31l76 149q-120 6 -203 18t-185 40q-86 -63 -150 -103.5t-147.5 -82.5t-169 -62.5t-174.5 -20.5q-76 0 -143.5 16t-126.5 50t-94 95.5t-35 143.5zM-25 291q0 -74 32 -129.5t87 -86t117.5 -45t132.5 -14.5 q88 0 172 20.5t166 62.5t144 82t147 102q4 4 14 4h6q188 -50 428 -62l-98 -192h238l106 205q52 10 93 20.5t92 32t84.5 48t57 69t23.5 94.5q0 29 -18.5 57.5t-46.5 28.5h-4q14 -25 18 -36.5t4 -35.5q0 -59 -43.5 -110.5t-105.5 -80t-121 -28.5v2l448 862h-6 q-110 0 -245.5 -72.5t-247.5 -164.5l-334 -273h-2q-119 118 -273 190t-309 72q-51 0 -100 -6.5t-103.5 -24t-88 -55.5t-33.5 -92q0 -56 41 -115t96.5 -103t133.5 -88.5t129 -68.5t107 -47q10 -5 11 -6l-6 -8q-109 -109 -275 -179.5t-319 -70.5q-41 0 -84 7.5t-89 24t-75 50 t-29 78.5q0 32 10 39q39 -17 70 -17q44 0 71 29t27 72q0 47 -27.5 74.5t-72.5 27.5q-63 0 -106.5 -41t-43.5 -102zM465 723q0 39 23.5 67.5t60 43t72.5 21.5t71 7q161 0 320 -65.5t264 -180.5l-305 -274h-10q-10 0 -144 55q-352 153 -352 326zM512 707q0 -143 334 -297 q125 -54 131 -54q48 43 137 123.5t135 122.5q-102 97 -250.5 155t-289.5 58q-42 0 -83.5 -8.5t-77.5 -34.5t-36 -65zM1006 240q2 0 10 8q-4 -2 -10 -8zM1022 324l285 254h2q31 0 77.5 -130.5t51.5 -177.5q-179 3 -263 15.5t-153 38.5zM1098 319q119 -29 319 -34 q-16 67 -41.5 143.5t-44.5 97.5q-94 -82 -233 -207zM1348 616v2l254 228q91 85 217 145l-338 -651h-4q-44 176 -129 276zM1405 598q52 -70 100 -195q50 95 131 253.5t125 244.5q-74 -48 -123 -94zM1440 264v2v-2zM1905 1280q16 26 49.5 83.5t48.5 80.5v-2q18 32 31 49l-2 -2 q24 42 46 59t58 17q39 0 64.5 -26.5t25.5 -63.5q0 -53 -53 -97l-68 -55l-10 -10q-109 -87 -117 -94q-8 -6 -19.5 -7t-19.5 5l-26 22zM1915 1280l27 -23q103 87 129 107l67 55q23 20 31 33q10 17 10 39q0 25 -16 41q-16 18 -43 18t-43 -14q-20 -16 -35 -45 q-95 -156 -127 -211z" />
<glyph unicode="&#xc2;" horiz-adv-x="1904" d="M31 274q0 75 52.5 125t127.5 50q59 0 95 -36.5t36 -97.5q0 -58 -35.5 -94.5t-93.5 -36.5q-25 0 -49 6q1 -36 27 -62.5t66 -39.5t78.5 -19t74.5 -6q138 0 287.5 60.5t256.5 157.5q-493 219 -493 438q0 63 37 107.5t96.5 65t113 28.5t109.5 8q153 0 308 -69.5t278 -182.5 q53 43 156.5 128t156.5 128h-2q50 41 107.5 80t127.5 78t145 62.5t140 23.5q19 0 27.5 -14.5t-0.5 -31.5l-422 -811q74 16 130 66.5t56 114.5q0 23 -16 59q-7 17 1.5 30t27.5 13q41 0 68.5 -39t27.5 -78q0 -57 -23.5 -103.5t-58 -76t-86 -53.5t-95 -36t-97.5 -23 q-16 -31 -50 -95l-51 -96q-3 -6 -11.5 -11t-14.5 -5h-238q-19 0 -27 14t0 31l76 149q-119 6 -202 18t-185 40q-86 -63 -150 -103.5t-147.5 -82.5t-169 -62.5t-174.5 -20.5q-76 0 -143.5 16t-126.5 50t-94 95.5t-35 143.5zM45 291q0 -74 32 -129.5t87 -86t117.5 -45 t132.5 -14.5q88 0 171.5 20.5t165.5 62.5t144 82t147 102q4 4 15 4h6q188 -50 428 -62l-98 -192h237l107 205q52 10 93 20.5t92 32t84.5 48t57 69t23.5 94.5q0 28 -19 57t-47 29h-4q11 -19 14.5 -26.5t6 -18.5t2.5 -27q0 -59 -43.5 -110.5t-106 -80t-121.5 -28.5v2l449 862 h-6q-110 0 -246.5 -73t-247.5 -164l-334 -273h-2q-119 118 -272.5 190t-308.5 72q-51 0 -100 -6.5t-104 -24t-88.5 -55.5t-33.5 -92q0 -47 27 -95.5t75.5 -90.5t99.5 -77.5t114.5 -68.5t105 -52t86.5 -38q8 -4 10 -6l-6 -8q-109 -109 -275 -179.5t-319 -70.5q-41 0 -84 7.5 t-88.5 24t-74.5 50t-29 78.5q0 32 10 39q39 -17 70 -17q44 0 71 29t27 72q0 47 -27.5 74.5t-72.5 27.5q-63 0 -106.5 -41t-43.5 -102zM535 723q0 39 23.5 67.5t60 43t72.5 21.5t71 7q161 0 320 -65.5t264 -180.5l-306 -274h-10q-9 0 -143 55q-352 153 -352 326zM582 707 q0 -144 333 -297q125 -54 132 -54q48 43 137 123.5t135 122.5q-102 96 -251 154.5t-290 58.5q-42 0 -83.5 -8.5t-77 -34.5t-35.5 -65zM1075 240q2 0 10 8q-4 -2 -10 -8zM1092 324l284 254h2q31 0 77.5 -130.5t51.5 -177.5q-179 3 -262.5 15.5t-152.5 38.5zM1167 319 q119 -29 320 -34q-16 67 -41.5 143.5t-44.5 97.5q-134 -117 -234 -207zM1417 616v2l254 228q91 85 217 145l-338 -651h-4q-44 176 -129 276zM1475 598q52 -70 100 -195q50 95 131 253.5t125 244.5q-74 -48 -123 -94zM1509 264v2v-2z" />
<glyph unicode="&#xc4;" horiz-adv-x="1904" d="M31 274q0 75 52.5 125t127.5 50q59 0 95 -36.5t36 -97.5q0 -58 -35.5 -94.5t-93.5 -36.5q-25 0 -49 6q1 -36 27 -62.5t66 -39.5t78.5 -19t74.5 -6q138 0 287.5 60.5t256.5 157.5q-493 219 -493 438q0 63 37 107.5t96.5 65t113 28.5t109.5 8q153 0 308 -69.5t278 -182.5 q53 43 156.5 128t156.5 128h-2q50 41 107.5 80t127.5 78t145 62.5t140 23.5q19 0 27.5 -14.5t-0.5 -31.5l-422 -811q74 16 130 66.5t56 114.5q0 23 -16 59q-7 17 1.5 30t27.5 13q41 0 68.5 -39t27.5 -78q0 -57 -23.5 -103.5t-58 -76t-86 -53.5t-95 -36t-97.5 -23 q-16 -31 -50 -95l-51 -96q-3 -6 -11.5 -11t-14.5 -5h-238q-19 0 -27 14t0 31l76 149q-119 6 -202 18t-185 40q-86 -63 -150 -103.5t-147.5 -82.5t-169 -62.5t-174.5 -20.5q-76 0 -143.5 16t-126.5 50t-94 95.5t-35 143.5zM45 291q0 -74 32 -129.5t87 -86t117.5 -45 t132.5 -14.5q88 0 171.5 20.5t165.5 62.5t144 82t147 102q4 4 15 4h6q188 -50 428 -62l-98 -192h237l107 205q52 10 93 20.5t92 32t84.5 48t57 69t23.5 94.5q0 28 -19 57t-47 29h-4q11 -19 14.5 -26.5t6 -18.5t2.5 -27q0 -59 -43.5 -110.5t-106 -80t-121.5 -28.5v2l449 862 h-6q-110 0 -246.5 -73t-247.5 -164l-334 -273h-2q-119 118 -272.5 190t-308.5 72q-51 0 -100 -6.5t-104 -24t-88.5 -55.5t-33.5 -92q0 -47 27 -95.5t75.5 -90.5t99.5 -77.5t114.5 -68.5t105 -52t86.5 -38q8 -4 10 -6l-6 -8q-109 -109 -275 -179.5t-319 -70.5q-41 0 -84 7.5 t-88.5 24t-74.5 50t-29 78.5q0 32 10 39q39 -17 70 -17q44 0 71 29t27 72q0 47 -27.5 74.5t-72.5 27.5q-63 0 -106.5 -41t-43.5 -102zM535 723q0 39 23.5 67.5t60 43t72.5 21.5t71 7q161 0 320 -65.5t264 -180.5l-306 -274h-10q-9 0 -143 55q-352 153 -352 326zM582 707 q0 -144 333 -297q125 -54 132 -54q48 43 137 123.5t135 122.5q-102 96 -251 154.5t-290 58.5q-42 0 -83.5 -8.5t-77 -34.5t-35.5 -65zM1075 240q2 0 10 8q-4 -2 -10 -8zM1092 324l284 254h2q31 0 77.5 -130.5t51.5 -177.5q-179 3 -262.5 15.5t-152.5 38.5zM1167 319 q119 -29 320 -34q-16 67 -41.5 143.5t-44.5 97.5q-134 -117 -234 -207zM1417 616v2l254 228q91 85 217 145l-338 -651h-4q-44 176 -129 276zM1475 598q52 -70 100 -195q50 95 131 253.5t125 244.5q-74 -48 -123 -94zM1509 264v2v-2zM1745 1321q0 46 31 80.5t77 34.5 q37 0 66.5 -25.5t38.5 -60.5q9 36 37.5 60t66.5 24q45 0 77 -36t32 -79q0 -46 -31.5 -80.5t-77.5 -34.5q-39 0 -67 23.5t-37 60.5q-9 -35 -38.5 -58.5t-66.5 -23.5q-46 0 -77 34.5t-31 80.5zM1759 1337q0 -33 22.5 -58.5t55.5 -25.5t55.5 25.5t22.5 58.5q0 32 -22.5 58 t-55.5 26t-55.5 -25.5t-22.5 -58.5zM1968 1335q0 -33 22.5 -58.5t55.5 -25.5t55.5 25.5t22.5 58.5q0 32 -22.5 58t-55.5 26t-55.5 -25.5t-22.5 -58.5z" />
<glyph unicode="&#xc5;" horiz-adv-x="1904" d="M31 274q0 75 52.5 125t127.5 50q59 0 95 -36.5t36 -97.5q0 -58 -35.5 -94.5t-93.5 -36.5q-25 0 -49 6q1 -36 27 -62.5t66 -39.5t78.5 -19t74.5 -6q138 0 287.5 60.5t256.5 157.5q-493 219 -493 438q0 63 37 107.5t96.5 65t113 28.5t109.5 8q153 0 308 -69.5t278 -182.5 q53 43 156.5 128t156.5 128h-2q50 41 107.5 80t127.5 78t145 62.5t140 23.5q19 0 27.5 -14.5t-0.5 -31.5l-422 -811q74 16 130 66.5t56 114.5q0 23 -16 59q-7 17 1.5 30t27.5 13q41 0 68.5 -39t27.5 -78q0 -57 -23.5 -103.5t-58 -76t-86 -53.5t-95 -36t-97.5 -23 q-16 -31 -50 -95l-51 -96q-3 -6 -11.5 -11t-14.5 -5h-238q-19 0 -27 14t0 31l76 149q-119 6 -202 18t-185 40q-86 -63 -150 -103.5t-147.5 -82.5t-169 -62.5t-174.5 -20.5q-76 0 -143.5 16t-126.5 50t-94 95.5t-35 143.5zM45 291q0 -74 32 -129.5t87 -86t117.5 -45 t132.5 -14.5q88 0 171.5 20.5t165.5 62.5t144 82t147 102q4 4 15 4h6q188 -50 428 -62l-98 -192h237l107 205q52 10 93 20.5t92 32t84.5 48t57 69t23.5 94.5q0 28 -19 57t-47 29h-4q11 -19 14.5 -26.5t6 -18.5t2.5 -27q0 -59 -43.5 -110.5t-106 -80t-121.5 -28.5v2l449 862 h-6q-110 0 -246.5 -73t-247.5 -164l-334 -273h-2q-119 118 -272.5 190t-308.5 72q-51 0 -100 -6.5t-104 -24t-88.5 -55.5t-33.5 -92q0 -47 27 -95.5t75.5 -90.5t99.5 -77.5t114.5 -68.5t105 -52t86.5 -38q8 -4 10 -6l-6 -8q-109 -109 -275 -179.5t-319 -70.5q-41 0 -84 7.5 t-88.5 24t-74.5 50t-29 78.5q0 32 10 39q39 -17 70 -17q44 0 71 29t27 72q0 47 -27.5 74.5t-72.5 27.5q-63 0 -106.5 -41t-43.5 -102zM535 723q0 39 23.5 67.5t60 43t72.5 21.5t71 7q161 0 320 -65.5t264 -180.5l-306 -274h-10q-9 0 -143 55q-352 153 -352 326zM582 707 q0 -144 333 -297q125 -54 132 -54q48 43 137 123.5t135 122.5q-102 96 -251 154.5t-290 58.5q-42 0 -83.5 -8.5t-77 -34.5t-35.5 -65zM1075 240q2 0 10 8q-4 -2 -10 -8zM1092 324l284 254h2q31 0 77.5 -130.5t51.5 -177.5q-179 3 -262.5 15.5t-152.5 38.5zM1167 319 q119 -29 320 -34q-16 67 -41.5 143.5t-44.5 97.5q-134 -117 -234 -207zM1417 616v2l254 228q91 85 217 145l-338 -651h-4q-44 176 -129 276zM1475 598q52 -70 100 -195q50 95 131 253.5t125 244.5q-74 -48 -123 -94zM1509 264v2v-2zM1733 1401q0 70 61 125t139 55 q77 0 137 -55t60 -125q0 -72 -60 -128t-137 -56q-78 0 -139 56t-61 128zM1745 1413q0 -61 53 -109.5t119 -48.5t118 48.5t52 109.5t-52 108.5t-118 47.5t-119 -47.5t-53 -108.5zM1812 1413q0 36 32.5 65t72.5 29t72 -28.5t32 -65.5t-32 -65.5t-72 -28.5t-72.5 29t-32.5 65z M1855 1401q0 -28 24.5 -50t53.5 -22q28 0 51 22t23 50q0 25 -23 46t-51 21q-29 0 -53.5 -21t-24.5 -46z" />
<glyph unicode="&#xc6;" horiz-adv-x="3102" d="M55 270v2q-8 75 38 126t124 51q57 0 96.5 -35t46.5 -95q6 -59 -25.5 -97t-90.5 -38q-31 0 -45 4q10 -35 40.5 -61t71.5 -39t78.5 -19t71.5 -6q137 0 280 60.5t240 155.5q-522 218 -549 436q-4 44 10 79.5t42.5 58t62.5 38t76 23.5t77 11t70 3q155 0 316 -69t296 -183 q81 74 283 254q66 58 140 109t173.5 94t180.5 43q17 0 25.5 -13t2.5 -30l-78 -195q68 -18 148 -18h6q21 77 84 134t147.5 85t163.5 40.5t156 12.5q35 0 57 -2t53 -10.5t53 -29.5t36 -54v-27q0 -47 -30.5 -86.5t-82.5 -65.5t-108.5 -45.5t-120.5 -31t-106.5 -17t-78.5 -8.5 q-2 -4 -2 -37q77 15 174 15h8q181 7 181 -74q0 -40 -31 -58t-68 -18h-22l-43 6q-111 17 -158 13q-87 -8 -181.5 -81t-157 -177.5t-62.5 -196.5q0 -70 41.5 -107t113.5 -37q48 0 107.5 12.5t122.5 35t122.5 57t106 75t75 93t28.5 108.5q0 50 -74 50q-142 0 -255 -80.5 t-155 -214.5q-13 -27 -57 -27q-12 0 -21.5 9.5t-9.5 21.5q0 82 48 157t121 125t158 79.5t161 29.5q82 0 130 -51t48 -135q0 -90 -44 -166t-114 -125t-158 -83.5t-173.5 -49.5t-164.5 -15q-134 0 -254 63t-159 177q-18 -6 -64 -16q-13 -34 -38 -100.5t-37 -100.5 q-3 -8 -12.5 -14.5t-16.5 -6.5h-238q-17 0 -25.5 12t-2.5 29l61 168q-220 12 -399 58q-81 -63 -140.5 -104t-138 -82.5t-161 -62t-171.5 -20.5q-60 0 -115.5 9.5t-110 31.5t-96.5 55.5t-71 86t-37 118.5zM70 291q9 -74 47.5 -129.5t96 -86t121.5 -45t134 -14.5 q88 0 169 20.5t158.5 63t134 81.5t136.5 102q2 4 12 4h6q115 -29 211 -42.5t226 -19.5l-76 -207h237l82 220q63 11 109 28q25 -119 140 -184.5t251 -65.5q75 0 156.5 14t165.5 46t150.5 77.5t108.5 116t42 154.5q0 70 -40 113t-108 43q-71 0 -150.5 -27.5t-148 -73.5 t-113 -115t-44.5 -145q25 0 30 10q44 142 164 227t272 85q46 0 75.5 -19.5t29.5 -60.5q0 -89 -64 -169t-157 -131.5t-193 -81.5t-178 -30q-87 0 -136.5 44t-49.5 130q0 98 67.5 210t168.5 189.5t194 86.5q16 5 52.5 2t51 -5t51 -8t52.5 -8h18q26 0 47 10.5t21 34.5 q0 11 -7 19t-20 12.5t-27 7.5t-32 4t-29.5 1t-26 -0.5t-16.5 -0.5q-63 0 -94.5 -2.5t-96.5 -15.5h-14q0 29 6.5 64t22.5 38q29 2 59 5.5t82.5 12t97 19t94.5 28.5t85.5 39t58.5 52t23 67v23q-10 24 -28 39.5t-44.5 21.5t-46 7.5t-49.5 1.5q-75 0 -153 -13t-160 -41.5 t-140.5 -85t-73.5 -133.5h-30q-102 0 -191 31l92 225h-6q-110 0 -238 -73t-229 -164l-303 -273h-2q-132 118 -293.5 190t-316.5 72q-51 0 -99.5 -6.5t-101.5 -24t-83 -55.5t-24 -92q6 -47 39 -95.5t86 -90.5t108.5 -77.5t123 -68.5t111 -52t90.5 -38q8 -4 10 -6l-4 -8 q-96 -109 -254.5 -179.5t-311.5 -70.5q-41 0 -85 7.5t-91.5 24t-80 50t-37.5 78.5q-8 30 6 39q39 -17 71 -17q43 0 67 28.5t19 72.5q-6 47 -36.5 74.5t-75.5 27.5q-63 0 -100 -40.5t-31 -102.5zM508 723q-4 39 16 67.5t55 43t70.5 21.5t69.5 7q161 0 326.5 -65.5 t285.5 -180.5l-274 -274h-10q-9 0 -150 55q-370 153 -389 326zM555 711q15 -148 371 -301q21 -10 77 -32l56 -22l244 244q-118 96 -274.5 155.5t-293.5 59.5q-41 0 -80.5 -8t-72 -33t-27.5 -63zM1110 324l256 254h2q31 0 92.5 -131t71.5 -177q-179 3 -264 15.5t-158 38.5z M1184 319q98 -29 321 -34q-77 210 -112 241q-36 -36 -105 -104t-104 -103zM1403 616v2l227 228q83 86 201 145l-264 -651h-4q-61 175 -160 276zM1460 598q74 -83 123 -190q60 147 203 495q-72 -49 -117 -96zM1534 264v2h2v-2h-2zM1792 297v2l240 592q108 -39 249 -39l3 -6 q36 -52 92 -111q-203 -26 -342 -119h-4q0 -2 2 -2q-164 -113 -164 -288v-15q-38 -14 -76 -14zM1954 559q35 35 80 66q126 83 297 114q-28 31 -52 66q-107 4 -213 33q-18 -43 -37 -90.5t-40.5 -102t-34.5 -86.5zM2482 909q0 47 72 101t156 87t129 33h38q58 -13 58 -47 q0 -51 -58 -88.5t-141.5 -54.5t-148 -24t-105.5 -7zM2537 924q53 3 110.5 11t123 23.5t107.5 44t42 64.5q0 5 -32 16h-33q-60 0 -173.5 -52t-144.5 -107z" />
<glyph unicode="&#xc7;" horiz-adv-x="1288" d="M49 899q0 65 36 116t90 80.5t123 49t127 26.5t110 7q27 0 78 -8t111.5 -23.5t104 -45t43.5 -65.5q0 -1 -1 -4t-1 -4q105 31 205 31q30 0 56.5 -5t53 -17t42.5 -37t16 -60q0 -60 -46 -113t-112.5 -87.5t-148.5 -61t-146.5 -39.5t-113.5 -18q-68 -59 -134.5 -209 t-66.5 -246q0 -98 113 -98q89 0 196 59.5t183.5 153.5t76.5 182q0 26 -43 26q-104 0 -198 -95t-117 -204q-2 -9 -11.5 -16.5t-19.5 -7.5h-26q-12 0 -21.5 9.5t-9.5 21.5q0 89 60.5 180t153 149t181.5 58q70 0 108 -40t38 -110q0 -80 -39 -154.5t-103 -131t-141 -97.5 t-158 -61q29 -29 29 -64q0 -56 -56.5 -93.5t-111.5 -37.5q-41 0 -67.5 19t-26.5 59q0 49 35 64v18l20 20l-6 -12v-4q0 -4 4 -4q11 0 34.5 13.5t37.5 13.5q31 0 31 -23q0 -33 -30 -68.5t-63 -35.5q-24 0 -24 22q28 0 33 7q4 5 4 18q0 12 -8.5 19t-20.5 7q-33 0 -33 -39 q0 -47 64 -47q45 0 91 29t46 72q0 39 -39 53q-42 13 -96 -16h-2l18 36l4 4q65 2 138 23.5t141.5 61t124 90.5t89.5 118t34 138q0 56 -30 87t-85 31q-82 0 -167.5 -53t-141.5 -136.5t-56 -166.5h27q25 119 128 221.5t218 102.5q31 0 52.5 -14t21.5 -44q0 -95 -81.5 -196.5 t-196 -165.5t-210.5 -64q-67 0 -105 32t-38 97q0 102 73.5 264.5t145.5 221.5q46 4 107.5 15.5t141 35.5t145 55t110.5 79t45 103q0 34 -23.5 55t-51.5 27t-62 6q-139 0 -274.5 -54t-241.5 -148q-2 -1 -55 -59t-60 -58q-38 0 -92 11.5t-112 33.5t-98 61.5t-40 86.5 q0 50 35.5 89t85.5 60t114 34t110.5 17t86.5 4q33 0 66 -4t72 -14t57.5 -15t63.5 -20l48 -16q0 37 -68.5 64t-134.5 36.5t-104 9.5q-49 0 -103 -6t-118.5 -23t-115 -43.5t-84.5 -72t-34 -103.5q0 -168 336 -239q-108 -181 -108 -326q0 -228 170 -307l80 -23v-4l-13 -22 q-51 0 -63 4q-95 45 -142 134.5t-47 201.5q0 141 91 305q-318 80 -318 260zM133 901q0 -40 36.5 -72.5t89 -51t102 -28.5t83.5 -10q-3 0 56 68q36 42 43 45q128 109 274 160q-4 2 -12 4t-12 4q-158 55 -258 55q-49 0 -106.5 -6.5t-129.5 -23t-119 -54t-47 -90.5zM686 725 q70 104 187 190t227 86h30q31 -12 31 -45q0 -54 -58.5 -101t-140 -73.5t-155.5 -41.5t-117 -15h-4zM772 745q57 8 116.5 23t120.5 38.5t99.5 58.5t38.5 75q0 10 -8 14h-23q-86 0 -180.5 -62.5t-163.5 -146.5z" />
<glyph unicode="&#xc8;" horiz-adv-x="987" d="M-6 963q0 58 34 102t88 68t111 35.5t113 11.5q34 0 66 -4h-5q-2 0 34 -6t86 -14t81 -13q23 0 27 -7.5t4 -31.5t-28.5 -40.5t-57.5 -16.5q-59 28 -172 34q-31 2 -73 -1t-92 -12t-84 -32.5t-34 -58.5q0 -43 28.5 -74.5t73.5 -47.5t89 -23t86 -7h2q21 67 78 116.5t132 75.5 t146.5 38t138.5 12q31 0 51 -2t48.5 -9t49 -25.5t32.5 -47.5v-29q0 -51 -40.5 -92t-96.5 -65t-128 -40.5t-120.5 -23t-88.5 -8.5q-8 -8 -12 -29q75 15 166 15h8q164 7 164 -70q0 -37 -28.5 -53.5t-63.5 -16.5h-21l-45 7q-68 13 -133 10q-57 -11 -120.5 -53.5t-115.5 -98.5 t-86 -124.5t-34 -127.5q0 -61 37 -93t100 -32q51 0 116 15t132 45t123 70t91.5 94.5t35.5 113.5q0 41 -64 41q-126 0 -226 -71.5t-136 -190.5q-13 -26 -53 -26q-12 0 -21.5 9t-9.5 21q0 74 43 142t108.5 113.5t142 72.5t144.5 27q74 0 118 -47t44 -123q0 -69 -27.5 -128 t-75 -101.5t-107 -75t-126 -52t-129.5 -29.5t-121 -10q-69 0 -136 19t-124 55.5t-92 97t-35 135.5q0 69 26.5 128.5t68 100.5t99 73.5t113.5 51.5t117 32q-25 27 -41 53q-48 1 -96.5 8.5t-103.5 25.5t-96.5 44.5t-69 70.5t-27.5 99zM8 979q0 -51 27.5 -91t69 -63t95.5 -38 t99.5 -20t89.5 -5l2 -4q31 -48 82 -101q-61 -8 -119.5 -23.5t-121 -45t-108.5 -68.5t-76 -98t-30 -129q0 -89 56 -154t135 -94t166 -29q66 0 138.5 12.5t147.5 41t134.5 69.5t97 104t37.5 138q0 62 -35 100.5t-96 38.5q-86 0 -179.5 -40.5t-161 -117t-67.5 -165.5 q22 0 27 10q39 126 146.5 202t242.5 76q41 0 67.5 -17t26.5 -54q0 -64 -37.5 -123.5t-97 -103t-130.5 -76.5t-140 -49.5t-123 -16.5q-77 0 -122.5 40t-45.5 116q0 88 60.5 187.5t151 169t173.5 77.5h61.5t61.5 -8t61 -9h17q24 0 42.5 9t18.5 30q0 10 -6.5 17.5t-18 11.5 t-23.5 6.5t-28 3.5t-26.5 1t-23.5 -0.5t-15 -0.5q-88 0 -170 -16h-13q0 88 25 92q38 3 81.5 8t112.5 20t121.5 35t91.5 56t39 80v20q-9 21 -25 34.5t-39 19t-41 7t-44 1.5q-67 0 -137 -11.5t-143 -36.5t-125.5 -75.5t-65.5 -118.5h-27q-47 0 -95.5 8.5t-98.5 27.5t-81.5 57 t-31.5 89q0 44 37.5 74.5t93.5 42.5t102 16t82 2q124 -6 181 -34h4q13 0 27 7.5t14 18.5q0 6 -7 7q-2 0 -3 0.5t-3 0.5q-175 33 -188 33q-36 3 -83.5 3.5t-99 -12.5t-95 -32.5t-71.5 -56.5t-28 -84zM276 1260l17 12l-6 -29q-2 2 -6 9t-5 8zM293 1280v2l2 2zM567 813 q0 43 64 91.5t139.5 78t116.5 29.5h35q51 -13 51 -43q0 -37 -36 -66.5t-86.5 -45.5t-111 -26.5t-103 -14t-69.5 -3.5zM625 827q48 3 96.5 9.5t106.5 20t94 38.5t36 57q0 5 -24 13h-31q-50 0 -148.5 -45.5t-129.5 -92.5z" />
<glyph unicode="&#xc9;" horiz-adv-x="997" d="M0 963q0 58 34 102t88 68t111 35.5t113 11.5q34 0 66 -4h-4q-2 0 34 -6t85.5 -14t80.5 -13q23 0 27 -7.5t4 -31.5t-28.5 -40.5t-57.5 -16.5q-59 28 -172 34q-31 2 -73 -1t-92 -12t-84 -32.5t-34 -58.5q0 -43 28.5 -74.5t73.5 -47.5t89 -23t86 -7h2q21 67 78 116.5 t132 75.5t146.5 38t138.5 12q31 0 51 -2t48.5 -9t49 -25.5t32.5 -47.5v-29q0 -51 -40.5 -92t-96.5 -65t-127.5 -40.5t-120 -23t-88.5 -8.5q-9 -9 -13 -29q75 15 166 15h8q164 7 164 -70q0 -37 -28.5 -53.5t-63.5 -16.5h-20l-45 7q-68 13 -134 10q-57 -11 -120.5 -53.5 t-115.5 -98.5t-86 -124.5t-34 -127.5q0 -61 37 -93t100 -32q51 0 116 15t132 45t123 70t91.5 94.5t35.5 113.5q0 41 -64 41q-126 0 -226 -71.5t-136 -190.5q-13 -26 -53 -26q-12 0 -21.5 9t-9.5 21q0 74 43 142t108.5 113.5t142 72.5t144.5 27q74 0 118 -47t44 -123 q0 -69 -27.5 -128t-75 -101.5t-107 -75t-126 -52t-129.5 -29.5t-121 -10q-69 0 -136 19t-124 55.5t-92 97t-35 135.5q0 69 26.5 128.5t68 100.5t99 73.5t113.5 51.5t117 32q-25 27 -41 53q-48 1 -96.5 8.5t-103.5 25.5t-96.5 44.5t-69 70.5t-27.5 99zM14 979q0 -51 27.5 -91 t69 -63t95.5 -38t99.5 -20t89.5 -5l2 -4q31 -48 82 -101q-61 -8 -119 -23.5t-120.5 -45t-108.5 -68.5t-76 -98t-30 -129q0 -54 21.5 -100.5t57 -78.5t81.5 -54.5t96 -33t100 -10.5q66 0 138.5 12.5t147.5 41t134.5 69.5t97 104t37.5 138q0 62 -35 100.5t-96 38.5 q-86 0 -179.5 -40.5t-161 -117t-67.5 -165.5q22 0 27 10q39 126 146.5 202t242.5 76q41 0 67.5 -17t26.5 -54q0 -64 -37.5 -123.5t-97 -103t-130.5 -76.5t-140 -49.5t-123 -16.5q-77 0 -122.5 40t-45.5 116q0 88 60.5 187.5t151 169t173.5 77.5h61.5t61.5 -8t61 -9h17 q24 0 42.5 9t18.5 30q0 10 -6.5 17.5t-18 11.5t-23.5 6.5t-28 3.5t-26.5 1t-23.5 -0.5t-15 -0.5q-88 0 -170 -16h-12q0 88 24 92q38 3 81.5 8t112.5 20t122 35t92 56t39 80v20q-17 39 -55.5 50.5t-94.5 11.5q-67 0 -137 -11.5t-143 -36.5t-125.5 -75.5t-65.5 -118.5h-27 q-47 0 -95.5 8.5t-98.5 27.5t-81.5 57t-31.5 89q0 44 37.5 74.5t94 42.5t102.5 16t82 2q123 -6 180 -34h4q13 0 27 7.5t14 18.5q0 6 -6 7q-4 1 -6 1q-175 33 -189 33q-36 3 -83.5 3.5t-99 -12.5t-95 -32.5t-71.5 -56.5t-28 -84zM573 813q0 43 64 91.5t139.5 78t116.5 29.5 h35q51 -13 51 -43q0 -37 -36 -66.5t-86.5 -45.5t-111 -26.5t-103 -14t-69.5 -3.5zM631 827q48 3 97 9.5t107 20t94 38.5t36 57q0 5 -25 13h-31q-50 0 -148.5 -45.5t-129.5 -92.5zM725 1280q16 26 49.5 83.5t48.5 80.5v-2q18 32 31 49l-2 -2q24 42 46 59t58 17q39 0 65 -26.5 t26 -63.5q0 -52 -54 -97l-67 -55l-11 -10q-92 -73 -116 -94q-8 -6 -19.5 -7t-19.5 5l-27 22zM735 1280l27 -23q103 87 129 107l67 55q23 20 31 33q10 17 10 39q0 25 -16 41q-16 18 -43 18t-43 -14q-20 -16 -35 -45q-95 -156 -127 -211z" />
<glyph unicode="&#xca;" horiz-adv-x="987" d="M-16 963q0 58 34 102t88 68t111 35.5t113 11.5q33 0 65 -4h-4q-2 0 34 -6t86 -14t81 -13q23 0 27 -7.5t4 -31.5t-28.5 -40.5t-57.5 -16.5q-59 28 -172 34q-31 2 -73 -1t-92 -12t-84 -32.5t-34 -58.5q0 -43 28 -74.5t73 -47.5t89 -23t86 -7h2q21 67 78.5 116.5t132.5 75.5 t146.5 38t138.5 12q31 0 51 -2t48 -9t48.5 -25.5t32.5 -47.5v-29q0 -51 -40.5 -92t-96.5 -65t-127.5 -40.5t-120 -23t-88.5 -8.5q-8 -8 -12 -29q75 15 166 15h8q164 7 164 -70q0 -37 -28.5 -53.5t-63.5 -16.5h-21l-45 7q-68 13 -133 10q-57 -11 -120.5 -53.5t-115.5 -98.5 t-86 -124.5t-34 -127.5q0 -61 37 -93t100 -32q51 0 116 15t132 45t123 70t91.5 94.5t35.5 113.5q0 41 -64 41q-126 0 -226 -71.5t-136 -190.5q-13 -26 -54 -26q-12 0 -21 9t-9 21q0 74 43 142t108.5 113.5t142 72.5t144.5 27q74 0 118 -47t44 -123q0 -69 -27.5 -128 t-75 -101.5t-107 -75t-126 -52t-129.5 -29.5t-121 -10q-69 0 -136 19t-124 55.5t-92 97t-35 135.5q0 69 26.5 128.5t68 100.5t99 73.5t113.5 51.5t117 32q-25 27 -41 53q-48 1 -96.5 8.5t-103.5 25.5t-96.5 44.5t-69 70.5t-27.5 99zM-2 979q0 -51 27.5 -91t69 -63t95.5 -38 t99.5 -20t89.5 -5l2 -4q31 -48 82 -101q-61 -8 -119.5 -23.5t-121 -45t-108.5 -68.5t-76 -98t-30 -129q0 -89 56 -154t135 -94t166 -29q66 0 138.5 12.5t147.5 41t134.5 69.5t97 104t37.5 138q0 62 -35.5 100.5t-96.5 38.5q-86 0 -179 -40.5t-160.5 -117t-67.5 -165.5 q22 0 27 10q39 126 146.5 202t242.5 76q41 0 67.5 -17t26.5 -54q0 -64 -38 -123.5t-97.5 -103t-130.5 -76.5t-140 -49.5t-123 -16.5q-77 0 -122 40t-45 116q0 88 60.5 187.5t151 169t173.5 77.5h61.5t61.5 -8t61 -9h16q24 0 43 9t19 30q0 10 -6.5 17.5t-18 11.5t-24 6.5 t-28.5 3.5t-26.5 1t-23.5 -0.5t-15 -0.5q-88 0 -170 -16h-12q0 88 25 92q38 3 81.5 8t112.5 20t121.5 35t91.5 56t39 80v20q-9 21 -25 34.5t-39 19t-41 7t-44 1.5q-67 0 -137 -11.5t-143 -36.5t-125.5 -75.5t-65.5 -118.5h-27q-47 0 -95.5 8.5t-98.5 27.5t-81.5 57t-31.5 89 q0 44 37.5 74.5t93.5 42.5t102 16t82 2q123 -6 180 -34h5q12 0 26 7.5t14 18.5q0 6 -6 7q-4 1 -6 1q-175 33 -188 33q-36 3 -83.5 3.5t-99 -12.5t-95 -32.5t-71.5 -56.5t-28 -84zM557 813q0 43 64 91.5t139.5 78t116.5 29.5h34q52 -14 52 -43q0 -37 -36 -66.5t-86.5 -45.5 t-111 -26.5t-103 -14t-69.5 -3.5zM614 827q48 3 97 9.5t107 20t94 38.5t36 57q0 5 -24 13h-31q-50 0 -149 -45.5t-130 -92.5z" />
<glyph unicode="&#xcb;" horiz-adv-x="987" d="M-6 963q0 58 34 102t88 68t111 35.5t113 11.5q34 0 66 -4h-5q-2 0 34 -6t86 -14t81 -13q23 0 27 -7.5t4 -31.5t-28.5 -40.5t-57.5 -16.5q-59 28 -172 34q-31 2 -73 -1t-92 -12t-84 -32.5t-34 -58.5q0 -43 28.5 -74.5t73.5 -47.5t89 -23t86 -7h2q21 67 78 116.5t132 75.5 t146.5 38t138.5 12q31 0 51 -2t48.5 -9t49 -25.5t32.5 -47.5v-29q0 -51 -40.5 -92t-96.5 -65t-128 -40.5t-120.5 -23t-88.5 -8.5q-8 -8 -12 -29q75 15 166 15h8q164 7 164 -70q0 -37 -28.5 -53.5t-63.5 -16.5h-21l-45 7q-68 13 -133 10q-57 -11 -120.5 -53.5t-115.5 -98.5 t-86 -124.5t-34 -127.5q0 -61 37 -93t100 -32q51 0 116 15t132 45t123 70t91.5 94.5t35.5 113.5q0 41 -64 41q-126 0 -226 -71.5t-136 -190.5q-13 -26 -53 -26q-12 0 -21.5 9t-9.5 21q0 74 43 142t108.5 113.5t142 72.5t144.5 27q74 0 118 -47t44 -123q0 -69 -27.5 -128 t-75 -101.5t-107 -75t-126 -52t-129.5 -29.5t-121 -10q-69 0 -136 19t-124 55.5t-92 97t-35 135.5q0 69 26.5 128.5t68 100.5t99 73.5t113.5 51.5t117 32q-25 27 -41 53q-48 1 -96.5 8.5t-103.5 25.5t-96.5 44.5t-69 70.5t-27.5 99zM8 979q0 -51 27.5 -91t69 -63t95.5 -38 t99.5 -20t89.5 -5l2 -4q31 -48 82 -101q-61 -8 -119.5 -23.5t-121 -45t-108.5 -68.5t-76 -98t-30 -129q0 -89 56 -154t135 -94t166 -29q66 0 138.5 12.5t147.5 41t134.5 69.5t97 104t37.5 138q0 62 -35 100.5t-96 38.5q-86 0 -179.5 -40.5t-161 -117t-67.5 -165.5 q22 0 27 10q39 126 146.5 202t242.5 76q41 0 67.5 -17t26.5 -54q0 -64 -37.5 -123.5t-97 -103t-130.5 -76.5t-140 -49.5t-123 -16.5q-77 0 -122.5 40t-45.5 116q0 88 60.5 187.5t151 169t173.5 77.5h61.5t61.5 -8t61 -9h17q24 0 42.5 9t18.5 30q0 10 -6.5 17.5t-18 11.5 t-23.5 6.5t-28 3.5t-26.5 1t-23.5 -0.5t-15 -0.5q-88 0 -170 -16h-13q0 88 25 92q38 3 81.5 8t112.5 20t121.5 35t91.5 56t39 80v20q-9 21 -25 34.5t-39 19t-41 7t-44 1.5q-67 0 -137 -11.5t-143 -36.5t-125.5 -75.5t-65.5 -118.5h-27q-47 0 -95.5 8.5t-98.5 27.5t-81.5 57 t-31.5 89q0 44 37.5 74.5t93.5 42.5t102 16t82 2q124 -6 181 -34h4q13 0 27 7.5t14 18.5q0 6 -7 7q-2 0 -3 0.5t-3 0.5q-175 33 -188 33q-36 3 -83.5 3.5t-99 -12.5t-95 -32.5t-71.5 -56.5t-28 -84zM449 1313q0 46 31 80t77 34q37 0 66.5 -25.5t38.5 -60.5q9 36 37.5 60 t66.5 24q45 0 76.5 -35.5t31.5 -78.5q0 -46 -31 -80.5t-77 -34.5q-39 0 -67 23.5t-37 60.5q-9 -35 -38.5 -58.5t-66.5 -23.5q-46 0 -77 34.5t-31 80.5zM463 1329q0 -33 22.5 -58.5t55.5 -25.5t55 25.5t22 58.5q0 32 -22 58t-55 26t-55.5 -25.5t-22.5 -58.5zM567 813 q0 43 64 91.5t139.5 78t116.5 29.5h35q51 -13 51 -43q0 -37 -36 -66.5t-86.5 -45.5t-111 -26.5t-103 -14t-69.5 -3.5zM625 827q48 3 96.5 9.5t106.5 20t94 38.5t36 57q0 5 -24 13h-31q-50 0 -148.5 -45.5t-129.5 -92.5zM672 1327q0 -33 22.5 -58.5t55.5 -25.5t55 25.5 t22 58.5q0 32 -22 58t-55 26t-55.5 -25.5t-22.5 -58.5z" />
<glyph unicode="&#xcc;" horiz-adv-x="1251" d="M31 252q0 66 36.5 108.5t102.5 42.5q55 0 97 -32t46 -88q1 -33 -7.5 -56t-27 -35.5t-32.5 -17.5t-37 -10q-27 -8 -27 -10q0 -41 67 -62.5t124 -21.5q99 0 187 41.5t142 117.5q-7 -1 -38.5 5t-38.5 8q-99 51 -161.5 132t-62.5 183q0 48 12.5 91.5t31.5 77.5t52 66t62 54 t76 45t78.5 36.5t84 30.5t79.5 24.5t77 21.5q172 45 316 53q68 60 150 98.5t163 38.5q39 0 67.5 -17.5t28.5 -60.5q0 -32 -20.5 -57t-52 -39.5t-60.5 -22t-55 -10.5q-8 0 -70 -8q-40 -4 -86 -12l4 2q-16 -4 -31 -23.5t-24 -40.5q-227 -531 -248 -579q90 27 167.5 118.5 t86.5 188.5q9 9 19 14t15 5.5t14 -0.5t10 -1q12 0 21 -9t9 -21q0 -175 -112.5 -279.5t-288.5 -118.5q-100 -121 -233 -187.5t-287 -66.5q-70 0 -140 14.5t-136.5 45.5t-108 89t-41.5 134zM45 268q0 -69 38.5 -120.5t100 -78.5t126.5 -40t130 -13q151 0 280.5 66.5 t225.5 187.5q167 9 276 106t109 261q-24 0 -28 -4q-7 -78 -60 -155.5t-128.5 -126t-145.5 -48.5v2l270 629q30 67 76 80q13 1 79.5 10t75.5 10q23 3 47.5 9t52 17t45 30t17.5 43q0 47 -65 47q-75 0 -153 -37.5t-142 -95.5q-2 -1 -7.5 -2.5t-7.5 -2.5q-138 -7 -311 -51 q-206 -56 -304 -106q-226 -115 -226 -312q0 -93 54.5 -166.5t141.5 -117.5q11 -3 60 -21t49 -22v-2q-58 -86 -158.5 -137.5t-206.5 -51.5q-26 0 -60 6t-72 18t-63.5 36t-25.5 55q0 22 20.5 32t45.5 12.5t45.5 23t19.5 61.5q-3 41 -36.5 65.5t-75.5 24.5q-52 0 -80.5 -34 t-28.5 -87zM504 561q0 68 39 131.5t102 110.5t141.5 86t160 63.5t154.5 38t128 13.5h2q-186 -100 -256 -261l-162 -356q-28 -64 -59 -100h-17q-95 0 -164 87.5t-69 186.5zM551 545q0 -88 60 -166t143 -78h2q29 41 45 82q26 58 81 178t81 178q54 120 163 205 q-92 -14 -188 -46.5t-185 -81t-145.5 -120t-56.5 -151.5zM1044 1264l17 12l-6 -29q-2 2 -6 9t-5 8zM1061 1284v2l2 2zM1335 1055q45 39 109.5 64.5t124.5 25.5q28 0 28 -12q0 -36 -116 -64q-108 -14 -121 -14h-25z" />
<glyph unicode="&#xcd;" horiz-adv-x="1251" d="M31 252q0 66 36.5 108.5t102.5 42.5q55 0 97 -32t46 -88q1 -33 -7.5 -56t-27 -35.5t-32.5 -17.5t-37 -10q-27 -8 -27 -10q0 -41 67 -62.5t124 -21.5q99 0 187 41.5t142 117.5q-7 -1 -38.5 5t-38.5 8q-99 51 -161.5 132t-62.5 183q0 48 12.5 91.5t31.5 77.5t52 66t62 54 t76 45t78.5 36.5t84 30.5t79.5 24.5t77 21.5q172 45 316 53q68 60 150 98.5t163 38.5q39 0 67.5 -17.5t28.5 -60.5q0 -32 -20.5 -57t-52 -39.5t-60.5 -22t-55 -10.5q-8 0 -70 -8q-40 -4 -86 -12l4 2q-16 -4 -31 -23.5t-24 -40.5q-227 -531 -248 -579q90 27 167.5 118.5 t86.5 188.5q9 9 19 14t15 5.5t14 -0.5t10 -1q12 0 21 -9t9 -21q0 -175 -112.5 -279.5t-288.5 -118.5q-100 -121 -233 -187.5t-287 -66.5q-70 0 -140 14.5t-136.5 45.5t-108 89t-41.5 134zM45 268q0 -69 38.5 -120.5t100 -78.5t126.5 -40t130 -13q151 0 280.5 66.5 t225.5 187.5q167 9 276 106t109 261q-24 0 -28 -4q-7 -78 -60 -155.5t-128.5 -126t-145.5 -48.5v2l270 629q30 67 76 80q13 1 79.5 10t75.5 10q23 3 47.5 9t52 17t45 30t17.5 43q0 47 -65 47q-75 0 -153 -37.5t-142 -95.5q-2 -1 -7.5 -2.5t-7.5 -2.5q-138 -7 -311 -51 q-206 -56 -304 -106q-226 -115 -226 -312q0 -93 54.5 -166.5t141.5 -117.5q11 -3 60 -21t49 -22v-2q-58 -86 -158.5 -137.5t-206.5 -51.5q-26 0 -60 6t-72 18t-63.5 36t-25.5 55q0 22 20.5 32t45.5 12.5t45.5 23t19.5 61.5q-3 41 -36.5 65.5t-75.5 24.5q-52 0 -80.5 -34 t-28.5 -87zM504 561q0 68 39 131.5t102 110.5t141.5 86t160 63.5t154.5 38t128 13.5h2q-186 -100 -256 -261l-162 -356q-28 -64 -59 -100h-17q-95 0 -164 87.5t-69 186.5zM551 545q0 -88 60 -166t143 -78h2q29 41 45 82q26 58 81 178t81 178q54 120 163 205 q-92 -14 -188 -46.5t-185 -81t-145.5 -120t-56.5 -151.5zM1323 1276q16 26 49.5 83.5t48.5 80.5v-2q18 32 31 49l-2 -2q24 42 46 59t58 17q39 0 65 -27t26 -64q0 -51 -54 -96l-67 -55l-11 -10q-71 -57 -116 -95q-8 -6 -19.5 -7t-19.5 5l-27 23zM1333 1276l27 -23 q103 87 129 107l67 55q23 20 31 33q10 17 10 39q0 25 -16 41q-16 18 -43 18t-43 -14q-20 -16 -35 -45q-95 -156 -127 -211zM1335 1055q45 39 109.5 64.5t124.5 25.5q28 0 28 -12q0 -36 -116 -64q-108 -14 -121 -14h-25z" />
<glyph unicode="&#xce;" horiz-adv-x="1251" d="M31 252q0 66 36.5 108.5t102.5 42.5q55 0 97 -32t46 -88q1 -33 -7.5 -56t-27 -35.5t-32.5 -17.5t-37 -10q-27 -8 -27 -10q0 -41 67 -62.5t124 -21.5q99 0 187 41.5t142 117.5q-7 -1 -38.5 5t-38.5 8q-99 51 -161.5 132t-62.5 183q0 48 12.5 91.5t31.5 77.5t52 66t62 54 t76 45t78.5 36.5t84 30.5t79.5 24.5t77 21.5q172 45 316 53q68 60 150 98.5t163 38.5q39 0 67.5 -17.5t28.5 -60.5q0 -32 -20.5 -57t-52 -39.5t-60.5 -22t-55 -10.5q-8 0 -70 -8q-40 -4 -86 -12l4 2q-16 -4 -31 -23.5t-24 -40.5q-227 -531 -248 -579q90 27 167.5 118.5 t86.5 188.5q9 9 19 14t15 5.5t14 -0.5t10 -1q12 0 21 -9t9 -21q0 -175 -112.5 -279.5t-288.5 -118.5q-100 -121 -233 -187.5t-287 -66.5q-70 0 -140 14.5t-136.5 45.5t-108 89t-41.5 134zM45 268q0 -69 38.5 -120.5t100 -78.5t126.5 -40t130 -13q151 0 280.5 66.5 t225.5 187.5q167 9 276 106t109 261q-24 0 -28 -4q-7 -78 -60 -155.5t-128.5 -126t-145.5 -48.5v2l270 629q30 67 76 80q13 1 79.5 10t75.5 10q23 3 47.5 9t52 17t45 30t17.5 43q0 47 -65 47q-75 0 -153 -37.5t-142 -95.5q-2 -1 -7.5 -2.5t-7.5 -2.5q-138 -7 -311 -51 q-206 -56 -304 -106q-226 -115 -226 -312q0 -93 54.5 -166.5t141.5 -117.5q11 -3 60 -21t49 -22v-2q-58 -86 -158.5 -137.5t-206.5 -51.5q-26 0 -60 6t-72 18t-63.5 36t-25.5 55q0 22 20.5 32t45.5 12.5t45.5 23t19.5 61.5q-3 41 -36.5 65.5t-75.5 24.5q-52 0 -80.5 -34 t-28.5 -87zM504 561q0 68 39 131.5t102 110.5t141.5 86t160 63.5t154.5 38t128 13.5h2q-186 -100 -256 -261l-162 -356q-28 -64 -59 -100h-17q-95 0 -164 87.5t-69 186.5zM551 545q0 -88 60 -166t143 -78h2q29 41 45 82q26 58 81 178t81 178q54 120 163 205 q-92 -14 -188 -46.5t-185 -81t-145.5 -120t-56.5 -151.5zM1335 1055q45 39 109.5 64.5t124.5 25.5q28 0 28 -12q0 -36 -116 -64q-108 -14 -121 -14h-25z" />
<glyph unicode="&#xcf;" horiz-adv-x="1251" d="M31 252q0 66 36.5 108.5t102.5 42.5q55 0 97 -32t46 -88q1 -33 -7.5 -56t-27 -35.5t-32.5 -17.5t-37 -10q-27 -8 -27 -10q0 -41 67 -62.5t124 -21.5q99 0 187 41.5t142 117.5q-7 -1 -38.5 5t-38.5 8q-99 51 -161.5 132t-62.5 183q0 48 12.5 91.5t31.5 77.5t52 66t62 54 t76 45t78.5 36.5t84 30.5t79.5 24.5t77 21.5q172 45 316 53q68 60 150 98.5t163 38.5q39 0 67.5 -17.5t28.5 -60.5q0 -32 -20.5 -57t-52 -39.5t-60.5 -22t-55 -10.5q-8 0 -70 -8q-40 -4 -86 -12l4 2q-16 -4 -31 -23.5t-24 -40.5q-227 -531 -248 -579q90 27 167.5 118.5 t86.5 188.5q9 9 19 14t15 5.5t14 -0.5t10 -1q12 0 21 -9t9 -21q0 -175 -112.5 -279.5t-288.5 -118.5q-100 -121 -233 -187.5t-287 -66.5q-70 0 -140 14.5t-136.5 45.5t-108 89t-41.5 134zM45 268q0 -69 38.5 -120.5t100 -78.5t126.5 -40t130 -13q151 0 280.5 66.5 t225.5 187.5q167 9 276 106t109 261q-24 0 -28 -4q-7 -78 -60 -155.5t-128.5 -126t-145.5 -48.5v2l270 629q30 67 76 80q13 1 79.5 10t75.5 10q23 3 47.5 9t52 17t45 30t17.5 43q0 47 -65 47q-75 0 -153 -37.5t-142 -95.5q-2 -1 -7.5 -2.5t-7.5 -2.5q-138 -7 -311 -51 q-206 -56 -304 -106q-226 -115 -226 -312q0 -93 54.5 -166.5t141.5 -117.5q11 -3 60 -21t49 -22v-2q-58 -86 -158.5 -137.5t-206.5 -51.5q-26 0 -60 6t-72 18t-63.5 36t-25.5 55q0 22 20.5 32t45.5 12.5t45.5 23t19.5 61.5q-3 41 -36.5 65.5t-75.5 24.5q-52 0 -80.5 -34 t-28.5 -87zM504 561q0 68 39 131.5t102 110.5t141.5 86t160 63.5t154.5 38t128 13.5h2q-186 -100 -256 -261l-162 -356q-28 -64 -59 -100h-17q-95 0 -164 87.5t-69 186.5zM551 545q0 -88 60 -166t143 -78h2q29 41 45 82q26 58 81 178t81 178q54 120 163 205 q-92 -14 -188 -46.5t-185 -81t-145.5 -120t-56.5 -151.5zM1102 1325q0 46 31 80.5t77 34.5q37 0 66.5 -25.5t38.5 -60.5q9 36 37.5 60t66.5 24q45 0 77 -36t32 -79q0 -46 -31.5 -80.5t-77.5 -34.5q-39 0 -67 23.5t-37 60.5q-9 -35 -38.5 -58.5t-66.5 -23.5q-46 0 -77 34.5 t-31 80.5zM1116 1341q0 -33 22.5 -58.5t55.5 -25.5t55.5 25.5t22.5 58.5q0 32 -22.5 58t-55.5 26t-55.5 -25.5t-22.5 -58.5zM1325 1339q0 -33 22.5 -58.5t55.5 -25.5t55.5 25.5t22.5 58.5q0 32 -22.5 58t-55.5 26t-55.5 -25.5t-22.5 -58.5zM1335 1055q45 39 109.5 64.5 t124.5 25.5q28 0 28 -12q0 -36 -116 -64q-108 -14 -121 -14h-25z" />
<glyph unicode="&#xd0;" horiz-adv-x="1656" d="M41 53q0 83 176 82h6h17q137 -8 217 -18q11 0 67 -8q47 13 125 114h-18q-12 0 -21.5 8.5t-9.5 20.5l-4 94q0 12 9.5 21.5t21.5 9.5h135q17 30 20 37q0 6 6 12l193 379q40 76 106 149h-71q-188 0 -336 -71t-266 -219q-95 -113 -95 -195q0 -33 35 -45h25q70 0 167 54.5 t170 137t77 152.5h-25q-45 0 -89 -22.5t-73 -61.5l-110 -149l-4 -5q-15 -15 -34.5 -7t-19.5 30v8q0 76 58 146.5t138.5 110.5t151.5 40h33q42 -4 63 -35.5t21 -72.5q0 -56 -37 -118.5t-96 -115t-128 -96t-138.5 -68t-122.5 -24.5q-87 0 -134.5 49t-47.5 135t36.5 164.5 t97 137.5t139 107.5t164 78.5t169 46.5t156.5 16.5q135 0 213 -25q172 138 294 138q29 0 56 -16t41 -40q11 -17 1 -32.5t-30 -14.5q-131 9 -211 -94q105 -49 178.5 -143t73.5 -211q0 -124 -60 -244t-154.5 -206.5t-217 -139.5t-242.5 -53h-24l-322 24h-8q-52 0 -62 -2 l-182 -31q-18 -4 -78 -4h-69q-117 19 -117 84zM55 70q0 -42 90 -54h52q71 0 86 4l184 31q10 2 65 2h11l321 -24h23q115 0 231.5 50.5t207 133t147.5 196t57 232.5q0 116 -78.5 207.5t-183.5 130.5q-4 0 -4 4v2q86 144 258 135q-11 18 -30.5 29.5t-39.5 11.5 q-112 0 -289 -141h-2q-77 29 -217 29q-85 0 -182 -21t-194.5 -65.5t-176.5 -104.5t-128.5 -146.5t-49.5 -183.5q0 -71 40 -112t112 -41q84 0 199.5 59t203.5 153t88 179q0 30 -13.5 52.5t-41.5 25.5h-31q-65 0 -138.5 -36t-126 -99t-52.5 -131v-9l8 9l104 141q32 44 82.5 70 t104.5 26h28q27 -5 27 -24q0 -76 -78.5 -167.5t-184 -152.5t-182.5 -61h-30q-60 12 -60 75q0 90 101 213q242 303 626 303q104 0 138 -6q-108 -112 -146 -188l-192 -379q-30 -52 -39 -66h-150l4 -92h80q-132 -176 -192 -176h-4q-3 1 -29.5 4.5t-32.5 3.5q-101 12 -213 19h-8 h-7q-153 2 -153 -51zM584 84q195 68 305 186h166l-4 92h-88q37 57 51 82q111 204 217 476q13 39 24 47q90 -39 130 -123t40 -193q-2 -258 -169 -421.5t-429 -163.5h-57q-152 10 -186 18zM723 84q58 -4 63 -4h58q249 0 407 155t160 400q0 204 -129 274q-1 -2 -2.5 -6 t-2.5 -6.5t-1 -3.5q-113 -285 -219 -481q-14 -24 -21 -35h31q12 0 21.5 -9.5t9.5 -21.5l4 -92q0 -12 -9.5 -21.5t-21.5 -9.5h-153q-83 -86 -195 -139z" />
<glyph unicode="&#xd2;" d="M68 395q0 150 71.5 295t185.5 250.5t262 170.5t294 65q18 0 57.5 -5t92.5 -16t90 -35t36 -55q-2 -15 -14 -23t-27 -4q-99 31 -145 31q-76 0 -158.5 -42t-154.5 -110.5t-138 -157t-113 -180t-74.5 -181.5t-27.5 -160q0 -75 38.5 -125t111.5 -50q104 0 194 52h-2 q83 49 168.5 125t159.5 165t125 190.5t61 192.5q-2 45 -23 78t-61 33q-79 0 -183.5 -79.5t-178.5 -188t-74 -187.5q0 -34 31 -34q48 0 94.5 33t77.5 79l135 195q13 19 34 11.5t21 -30.5q0 -61 -56 -152t-141 -161t-157 -70q-68 0 -103.5 42t-35.5 114q0 123 81 247 t206.5 202.5t248.5 78.5q98 0 146 -70.5t41 -166.5q-21 -151 -99.5 -296.5t-190 -254.5t-253.5 -175.5t-283 -66.5q-115 0 -200.5 61t-127.5 156.5t-42 208.5zM82 412q0 -105 39 -193.5t118 -145.5t183 -57q187 0 364 105t294.5 282t136.5 377q8 85 -31.5 145t-124.5 60 q-87 0 -179 -45t-163.5 -114.5t-117.5 -160.5t-46 -178q0 -58 27.5 -91.5t81.5 -33.5q66 0 143.5 64.5t128.5 148.5t51 140v4l-135 -197q-35 -52 -88 -89.5t-109 -37.5q-29 0 -45 18t-16 48q0 62 48.5 148t118.5 159.5t153.5 125.5t146.5 52q59 0 88 -41t27 -102 q-5 -95 -56 -201t-128.5 -198t-166.5 -169.5t-178 -130.5q-96 -55 -209 -55q-88 0 -134 58t-46 147q0 72 29 165.5t78 188.5t117.5 187t144 163t161.5 114.5t166 43.5q55 0 156 -33h4q0 28 -60 47.5t-112 25t-78 5.5q-113 0 -228 -39.5t-213 -111t-175.5 -163.5 t-121.5 -205.5t-44 -229.5zM555 1264l16 12l-6 -29q-2 2 -5.5 8.5t-4.5 8.5zM571 1284v2l2 2z" />
<glyph unicode="&#xd3;" d="M68 395q0 150 71.5 295t185.5 250.5t262 170.5t294 65q18 0 57.5 -5t92.5 -16t90 -35t36 -55q-2 -15 -14 -23t-27 -4q-99 31 -145 31q-76 0 -158.5 -42t-154.5 -110.5t-138 -157t-113 -180t-74.5 -181.5t-27.5 -160q0 -75 38.5 -125t111.5 -50q104 0 194 52h-2 q83 49 168.5 125t159.5 165t125 190.5t61 192.5q-2 45 -23 78t-61 33q-79 0 -183.5 -79.5t-178.5 -188t-74 -187.5q0 -34 31 -34q48 0 94.5 33t77.5 79l135 195q13 19 34 11.5t21 -30.5q0 -61 -56 -152t-141 -161t-157 -70q-68 0 -103.5 42t-35.5 114q0 123 81 247 t206.5 202.5t248.5 78.5q98 0 146 -70.5t41 -166.5q-21 -151 -99.5 -296.5t-190 -254.5t-253.5 -175.5t-283 -66.5q-115 0 -200.5 61t-127.5 156.5t-42 208.5zM82 412q0 -105 39 -193.5t118 -145.5t183 -57q187 0 364 105t294.5 282t136.5 377q8 85 -31.5 145t-124.5 60 q-87 0 -179 -45t-163.5 -114.5t-117.5 -160.5t-46 -178q0 -58 27.5 -91.5t81.5 -33.5q66 0 143.5 64.5t128.5 148.5t51 140v4l-135 -197q-35 -52 -88 -89.5t-109 -37.5q-29 0 -45 18t-16 48q0 62 48.5 148t118.5 159.5t153.5 125.5t146.5 52q59 0 88 -41t27 -102 q-5 -95 -56 -201t-128.5 -198t-166.5 -169.5t-178 -130.5q-96 -55 -209 -55q-88 0 -134 58t-46 147q0 72 29 165.5t78 188.5t117.5 187t144 163t161.5 114.5t166 43.5q55 0 156 -33h4q0 28 -60 47.5t-112 25t-78 5.5q-113 0 -228 -39.5t-213 -111t-175.5 -163.5 t-121.5 -205.5t-44 -229.5zM979 1282q16 26 49.5 83.5t48.5 80.5v-2q18 32 31 49l-2 -2q24 42 46 59t58 17q39 0 64.5 -26.5t25.5 -63.5q0 -53 -53 -97l-67 -55l-11 -10q-92 -73 -116 -94q-8 -6 -19.5 -7t-19.5 5l-27 22zM989 1282l27 -22q86 72 129 106l67 55q23 20 31 33 q10 17 10 39q0 25 -16 41q-16 18 -43 18t-43 -14q-20 -16 -35 -45q-95 -156 -127 -211z" />
<glyph unicode="&#xd4;" d="M68 395q0 150 71.5 295t185.5 250.5t262 170.5t294 65q18 0 57.5 -5t92.5 -16t90 -35t36 -55q-2 -15 -14 -23t-27 -4q-99 31 -145 31q-76 0 -158.5 -42t-154.5 -110.5t-138 -157t-113 -180t-74.5 -181.5t-27.5 -160q0 -75 38.5 -125t111.5 -50q104 0 194 52h-2 q83 49 168.5 125t159.5 165t125 190.5t61 192.5q-2 45 -23 78t-61 33q-79 0 -183.5 -79.5t-178.5 -188t-74 -187.5q0 -34 31 -34q48 0 94.5 33t77.5 79l135 195q13 19 34 11.5t21 -30.5q0 -61 -56 -152t-141 -161t-157 -70q-68 0 -103.5 42t-35.5 114q0 123 81 247 t206.5 202.5t248.5 78.5q98 0 146 -70.5t41 -166.5q-21 -151 -99.5 -296.5t-190 -254.5t-253.5 -175.5t-283 -66.5q-115 0 -200.5 61t-127.5 156.5t-42 208.5zM82 412q0 -105 39 -193.5t118 -145.5t183 -57q187 0 364 105t294.5 282t136.5 377q8 85 -31.5 145t-124.5 60 q-87 0 -179 -45t-163.5 -114.5t-117.5 -160.5t-46 -178q0 -58 27.5 -91.5t81.5 -33.5q66 0 143.5 64.5t128.5 148.5t51 140v4l-135 -197q-35 -52 -88 -89.5t-109 -37.5q-29 0 -45 18t-16 48q0 62 48.5 148t118.5 159.5t153.5 125.5t146.5 52q59 0 88 -41t27 -102 q-5 -95 -56 -201t-128.5 -198t-166.5 -169.5t-178 -130.5q-96 -55 -209 -55q-88 0 -134 58t-46 147q0 72 29 165.5t78 188.5t117.5 187t144 163t161.5 114.5t166 43.5q55 0 156 -33h4q0 28 -60 47.5t-112 25t-78 5.5q-113 0 -228 -39.5t-213 -111t-175.5 -163.5 t-121.5 -205.5t-44 -229.5z" />
<glyph unicode="&#xd6;" d="M68 395q0 150 71.5 295t185.5 250.5t262 170.5t294 65q18 0 57.5 -5t92.5 -16t90 -35t36 -55q-2 -15 -14 -23t-27 -4q-99 31 -145 31q-76 0 -158.5 -42t-154.5 -110.5t-138 -157t-113 -180t-74.5 -181.5t-27.5 -160q0 -75 38.5 -125t111.5 -50q104 0 194 52h-2 q83 49 168.5 125t159.5 165t125 190.5t61 192.5q-2 45 -23 78t-61 33q-79 0 -183.5 -79.5t-178.5 -188t-74 -187.5q0 -34 31 -34q48 0 94.5 33t77.5 79l135 195q13 19 34 11.5t21 -30.5q0 -61 -56 -152t-141 -161t-157 -70q-68 0 -103.5 42t-35.5 114q0 123 81 247 t206.5 202.5t248.5 78.5q98 0 146 -70.5t41 -166.5q-21 -151 -99.5 -296.5t-190 -254.5t-253.5 -175.5t-283 -66.5q-115 0 -200.5 61t-127.5 156.5t-42 208.5zM82 412q0 -105 39 -193.5t118 -145.5t183 -57q187 0 364 105t294.5 282t136.5 377q8 85 -31.5 145t-124.5 60 q-87 0 -179 -45t-163.5 -114.5t-117.5 -160.5t-46 -178q0 -58 27.5 -91.5t81.5 -33.5q66 0 143.5 64.5t128.5 148.5t51 140v4l-135 -197q-35 -52 -88 -89.5t-109 -37.5q-29 0 -45 18t-16 48q0 62 48.5 148t118.5 159.5t153.5 125.5t146.5 52q59 0 88 -41t27 -102 q-5 -95 -56 -201t-128.5 -198t-166.5 -169.5t-178 -130.5q-96 -55 -209 -55q-88 0 -134 58t-46 147q0 72 29 165.5t78 188.5t117.5 187t144 163t161.5 114.5t166 43.5q55 0 156 -33h4q0 28 -60 47.5t-112 25t-78 5.5q-113 0 -228 -39.5t-213 -111t-175.5 -163.5 t-121.5 -205.5t-44 -229.5zM780 1319q0 46 31.5 80.5t77.5 34.5q37 0 66 -25.5t38 -60.5q9 35 38 59.5t67 24.5q45 0 76.5 -36t31.5 -79q0 -46 -31 -80.5t-77 -34.5q-39 0 -67.5 24t-37.5 60q-9 -35 -38 -58.5t-66 -23.5q-46 0 -77.5 34.5t-31.5 80.5zM795 1335 q0 -33 22 -58.5t55 -25.5t55.5 25.5t22.5 58.5q0 32 -22.5 58t-55.5 26t-55 -25.5t-22 -58.5zM1004 1333q0 -33 22 -58.5t55 -25.5t55.5 25.5t22.5 58.5q0 32 -22.5 58t-55.5 26t-55 -25.5t-22 -58.5z" />
<glyph unicode="&#xd7;" horiz-adv-x="671" d="M69 787.5q0 12.5 9 21.5l61 63q9 9 22.5 9t22.5 -9l140 -141q23 22 76 75.5t75 74.5q21 17 41 0l66 -60q10 -9 9.5 -22.5t-9.5 -22.5l-154 -151q25 -25 72 -73.5t73 -74.5q8 -8 8.5 -20t-6.5 -21l-57 -67q-9 -11 -23.5 -12t-23.5 8l-154 153q-88 -88 -133 -131 q-20 -17 -41 0l-63 59q-9 9 -10 23t8 23l137 135q-102 102 -137 139q-9 9 -9 21.5zM84 485l63 -59l156 152l174 -175l58 68l-168 170l178 174l-66 59l-174 -169l-160 161l-61 -63l158 -162z" />
<glyph unicode="&#xd8;" horiz-adv-x="1308" d="M53 395q0 159 79 311t208 262t283 165v118q0 12 9 21.5t21 9.5h107q12 0 21.5 -9.5t9.5 -21.5v-80q58 5 75 5q18 0 58 -5t92.5 -16t90 -35t36.5 -55q-2 -15 -14 -23t-27 -4q-99 31 -146 31q-76 0 -158.5 -42t-154.5 -110.5t-137.5 -157t-112.5 -180t-74.5 -181.5 t-27.5 -160q0 -75 38 -125t111 -50q105 0 195 52h-2q83 49 168.5 125t159.5 165t125 190.5t61 192.5q-2 45 -23 78t-61 33q-79 0 -183.5 -79.5t-178.5 -188t-74 -187.5q0 -34 30 -34q48 0 94.5 33t77.5 79l136 195q13 19 34 11.5t21 -30.5q0 -61 -56 -152t-141 -161 t-157 -70q-68 0 -104 42.5t-36 113.5q0 92 49 188.5t124.5 170.5t173.5 121.5t190 47.5q98 0 145.5 -70.5t40.5 -166.5q-23 -213 -148.5 -400.5t-309.5 -289.5v-174q0 -11 -8.5 -20.5t-18.5 -10.5l-107 -17q-13 -1 -23.5 8t-10.5 23v117q-106 -29 -199 -29q-115 0 -201 61 t-128 156.5t-42 208.5zM68 412q0 -105 39 -193.5t118 -145.5t183 -57q114 0 229 41v-159l106 16v192q186 100 312.5 282.5t146.5 391.5q8 85 -31 145t-124 60q-87 0 -179 -45t-163.5 -114.5t-117.5 -160.5t-46 -178q0 -58 27 -91.5t81 -33.5q66 0 144 64.5t129 148.5t51 140 v4l-135 -197q-35 -52 -88 -89.5t-109 -37.5q-29 0 -45 18t-16 48q0 62 48.5 148t118.5 159.5t153.5 125.5t146.5 52q59 0 87.5 -41t26.5 -102q-5 -95 -55.5 -201t-128 -198t-166.5 -169.5t-178 -130.5q-96 -55 -209 -55q-88 0 -134 58t-46 147q0 72 29 165.5t78 188.5 t117.5 187t144 163t161.5 114.5t166 43.5q55 0 156 -33h4q0 28 -60 47.5t-112 25t-78 5.5q-49 0 -107 -10v117h-106v-142q-114 -37 -217.5 -108.5t-181.5 -164t-124 -208t-46 -233.5z" />
<glyph unicode="&#xd9;" horiz-adv-x="1323" d="M68 649q0 88 39 171t104.5 146t146.5 111.5t168.5 73.5t167.5 25h49q91 -15 143 -79t52 -159q0 -118 -59 -227q-19 -34 -56 -102.5t-55 -102.5l-186 -291q-45 -79 -45 -125q0 -33 24 -33q42 0 93.5 29t96 71.5t78 80t52.5 65.5q29 45 127.5 202.5t148.5 235.5v-2 q30 53 89.5 161t88.5 161l-2 -2q7 15 21.5 48t21.5 48q3 6 12.5 12.5t16.5 6.5q9 0 76 -15q30 -10 59 -10q25 0 55 10q57 15 70 15q12 0 21.5 -9.5t9.5 -21.5l-4 -19l-500 -837v2q-70 -123 -70 -183q0 -38 45 -38q171 0 369 280q22 31 34 63.5t14 50.5t5 56v14q0 29 5 34 t34 5q33 0 47.5 -28.5t14.5 -59.5q-2 -90 -49.5 -183t-121 -165.5t-171 -119t-193.5 -46.5q-47 0 -82 16.5t-54.5 41t-32 62.5t-16.5 71t-5 76q-86 -86 -129 -127q-56 -55 -130 -97.5t-137 -42.5q-42 0 -76 20t-54 50t-34 69.5t-19 75t-5 68.5q0 155 88 301l270 434 q17 25 17 57q0 13 -11.5 23.5t-25.5 13.5h-29q-117 0 -235.5 -74.5t-194.5 -191.5t-76 -233q0 -78 66 -78q15 0 33 4q15 3 25.5 -6.5t10.5 -24.5v-37q0 -12 -9 -21t-21 -9l-13 -2q-3 0 -9.5 -1t-8.5 -1q-53 0 -91.5 20t-59 55t-30 76.5t-9.5 91.5zM82 666q0 -93 37.5 -153 t122.5 -60q4 0 14 1l10 1l6 2v37q-22 -5 -39 -5q-50 0 -73 30t-23 79q0 92 48.5 188.5t124 171t173.5 122.5t191 48h35q61 -14 61 -67q0 -41 -20 -74l-271 -434q-84 -138 -84 -285q0 -39 8 -79t24.5 -80.5t49.5 -66.5t76 -26q62 0 128 39t118 92l180 177q2 -127 12 -173 q28 -135 148 -135q121 0 238 73t189.5 185.5t75.5 225.5q0 57 -30 57q-6 0 -7 -1t-1 -7q0 -2 -1 -19t-1.5 -20t-1.5 -18t-2.5 -20t-4 -18.5t-5 -20t-7 -19.5t-10 -22.5t-12.5 -21.5t-15 -24q-39 -55 -75 -97t-88 -91.5t-111.5 -77t-118.5 -27.5q-76 0 -76 70q0 69 74 196 l496 832l4 8h-2q-19 0 -60 -12t-63 -12t-67 12t-68 12l-43 -96l-179 -322l-276 -438q-18 -28 -53.5 -68t-83.5 -85t-105 -76t-104 -31q-56 0 -56 63q0 64 50 142l186 291l111 202q55 98 55 213q0 82 -45.5 138t-124.5 69h-43q-96 0 -201 -38t-193 -102t-145 -158.5 t-57 -196.5zM598 1264l16 12l-6 -29q-2 2 -5 8.5t-5 8.5zM614 1284v2l2 2z" />
<glyph unicode="&#xda;" horiz-adv-x="1323" d="M68 649q0 88 39 171t104.5 146t146.5 111.5t168.5 73.5t167.5 25h49q91 -15 143 -79t52 -159q0 -118 -59 -227q-19 -34 -56 -102.5t-55 -102.5l-186 -291q-45 -79 -45 -125q0 -33 24 -33q42 0 93.5 29t96 71.5t78 80t52.5 65.5q29 45 127.5 202.5t148.5 235.5v-2 q30 53 89.5 161t88.5 161l-2 -2q7 15 21.5 48t21.5 48q3 6 12.5 12.5t16.5 6.5q9 0 76 -15q30 -10 59 -10q25 0 55 10q57 15 70 15q12 0 21.5 -9.5t9.5 -21.5l-4 -19l-500 -837v2q-70 -123 -70 -183q0 -38 45 -38q171 0 369 280q22 31 34 63.5t14 50.5t5 56v14q0 29 5 34 t34 5q33 0 47.5 -28.5t14.5 -59.5q-2 -90 -49.5 -183t-121 -165.5t-171 -119t-193.5 -46.5q-47 0 -82 16.5t-54.5 41t-32 62.5t-16.5 71t-5 76q-86 -86 -129 -127q-56 -55 -130 -97.5t-137 -42.5q-42 0 -76 20t-54 50t-34 69.5t-19 75t-5 68.5q0 155 88 301l270 434 q17 25 17 57q0 13 -11.5 23.5t-25.5 13.5h-29q-117 0 -235.5 -74.5t-194.5 -191.5t-76 -233q0 -78 66 -78q15 0 33 4q15 3 25.5 -6.5t10.5 -24.5v-37q0 -12 -9 -21t-21 -9l-13 -2q-3 0 -9.5 -1t-8.5 -1q-53 0 -91.5 20t-59 55t-30 76.5t-9.5 91.5zM82 666q0 -93 37.5 -153 t122.5 -60q4 0 14 1l10 1l6 2v37q-22 -5 -39 -5q-50 0 -73 30t-23 79q0 92 48.5 188.5t124 171t173.5 122.5t191 48h35q61 -14 61 -67q0 -41 -20 -74l-271 -434q-84 -138 -84 -285q0 -39 8 -79t24.5 -80.5t49.5 -66.5t76 -26q62 0 128 39t118 92l180 177q2 -127 12 -173 q28 -135 148 -135q121 0 238 73t189.5 185.5t75.5 225.5q0 57 -30 57q-6 0 -7 -1t-1 -7q0 -2 -1 -19t-1.5 -20t-1.5 -18t-2.5 -20t-4 -18.5t-5 -20t-7 -19.5t-10 -22.5t-12.5 -21.5t-15 -24q-39 -55 -75 -97t-88 -91.5t-111.5 -77t-118.5 -27.5q-76 0 -76 70q0 69 74 196 l496 832l4 8h-2q-19 0 -60 -12t-63 -12t-67 12t-68 12l-43 -96l-179 -322l-276 -438q-18 -28 -53.5 -68t-83.5 -85t-105 -76t-104 -31q-56 0 -56 63q0 64 50 142l186 291l111 202q55 98 55 213q0 82 -45.5 138t-124.5 69h-43q-96 0 -201 -38t-193 -102t-145 -158.5 t-57 -196.5zM848 1286q16 26 49.5 83.5t48.5 80.5v-2q18 32 31 49l-2 -2q24 42 46 59t58 17q39 0 64.5 -26.5t25.5 -63.5q0 -53 -53 -97l-67 -55l-11 -10q-92 -73 -116 -94q-8 -6 -19.5 -7t-19.5 5l-27 22zM858 1286l27 -22q86 72 129 106l67 55q23 20 31 33q10 17 10 39 q0 25 -16 41q-16 18 -43 18t-43 -14q-20 -16 -35 -45q-95 -156 -127 -211z" />
<glyph unicode="&#xdb;" horiz-adv-x="1323" d="M68 649q0 88 39 171t104.5 146t146.5 111.5t168.5 73.5t167.5 25h49q91 -15 143 -79t52 -159q0 -118 -59 -227q-19 -34 -56 -102.5t-55 -102.5l-186 -291q-45 -79 -45 -125q0 -33 24 -33q42 0 93.5 29t96 71.5t78 80t52.5 65.5q29 45 127.5 202.5t148.5 235.5v-2 q30 53 89.5 161t88.5 161l-2 -2q7 15 21.5 48t21.5 48q3 6 12.5 12.5t16.5 6.5q9 0 76 -15q30 -10 59 -10q25 0 55 10q57 15 70 15q12 0 21.5 -9.5t9.5 -21.5l-4 -19l-500 -837v2q-70 -123 -70 -183q0 -38 45 -38q171 0 369 280q22 31 34 63.5t14 50.5t5 56v14q0 29 5 34 t34 5q33 0 47.5 -28.5t14.5 -59.5q-2 -90 -49.5 -183t-121 -165.5t-171 -119t-193.5 -46.5q-47 0 -82 16.5t-54.5 41t-32 62.5t-16.5 71t-5 76q-86 -86 -129 -127q-56 -55 -130 -97.5t-137 -42.5q-42 0 -76 20t-54 50t-34 69.5t-19 75t-5 68.5q0 155 88 301l270 434 q17 25 17 57q0 13 -11.5 23.5t-25.5 13.5h-29q-117 0 -235.5 -74.5t-194.5 -191.5t-76 -233q0 -78 66 -78q15 0 33 4q15 3 25.5 -6.5t10.5 -24.5v-37q0 -12 -9 -21t-21 -9l-13 -2q-3 0 -9.5 -1t-8.5 -1q-53 0 -91.5 20t-59 55t-30 76.5t-9.5 91.5zM82 666q0 -93 37.5 -153 t122.5 -60q4 0 14 1l10 1l6 2v37q-22 -5 -39 -5q-50 0 -73 30t-23 79q0 92 48.5 188.5t124 171t173.5 122.5t191 48h35q61 -14 61 -67q0 -41 -20 -74l-271 -434q-84 -138 -84 -285q0 -39 8 -79t24.5 -80.5t49.5 -66.5t76 -26q62 0 128 39t118 92l180 177q2 -127 12 -173 q28 -135 148 -135q121 0 238 73t189.5 185.5t75.5 225.5q0 57 -30 57q-6 0 -7 -1t-1 -7q0 -2 -1 -19t-1.5 -20t-1.5 -18t-2.5 -20t-4 -18.5t-5 -20t-7 -19.5t-10 -22.5t-12.5 -21.5t-15 -24q-39 -55 -75 -97t-88 -91.5t-111.5 -77t-118.5 -27.5q-76 0 -76 70q0 69 74 196 l496 832l4 8h-2q-19 0 -60 -12t-63 -12t-67 12t-68 12l-43 -96l-179 -322l-276 -438q-18 -28 -53.5 -68t-83.5 -85t-105 -76t-104 -31q-56 0 -56 63q0 64 50 142l186 291l111 202q55 98 55 213q0 82 -45.5 138t-124.5 69h-43q-96 0 -201 -38t-193 -102t-145 -158.5 t-57 -196.5z" />
<glyph unicode="&#xdc;" horiz-adv-x="1323" d="M68 649q0 88 39 171t104.5 146t146.5 111.5t168.5 73.5t167.5 25h49q91 -15 143 -79t52 -159q0 -118 -59 -227q-19 -34 -56 -102.5t-55 -102.5l-186 -291q-45 -79 -45 -125q0 -33 24 -33q42 0 93.5 29t96 71.5t78 80t52.5 65.5q29 45 127.5 202.5t148.5 235.5v-2 q30 53 89.5 161t88.5 161l-2 -2q7 15 21.5 48t21.5 48q3 6 12.5 12.5t16.5 6.5q9 0 76 -15q30 -10 59 -10q25 0 55 10q57 15 70 15q12 0 21.5 -9.5t9.5 -21.5l-4 -19l-500 -837v2q-70 -123 -70 -183q0 -38 45 -38q171 0 369 280q22 31 34 63.5t14 50.5t5 56v14q0 29 5 34 t34 5q33 0 47.5 -28.5t14.5 -59.5q-2 -90 -49.5 -183t-121 -165.5t-171 -119t-193.5 -46.5q-47 0 -82 16.5t-54.5 41t-32 62.5t-16.5 71t-5 76q-86 -86 -129 -127q-56 -55 -130 -97.5t-137 -42.5q-42 0 -76 20t-54 50t-34 69.5t-19 75t-5 68.5q0 155 88 301l270 434 q17 25 17 57q0 13 -11.5 23.5t-25.5 13.5h-29q-117 0 -235.5 -74.5t-194.5 -191.5t-76 -233q0 -78 66 -78q15 0 33 4q15 3 25.5 -6.5t10.5 -24.5v-37q0 -12 -9 -21t-21 -9l-13 -2q-3 0 -9.5 -1t-8.5 -1q-53 0 -91.5 20t-59 55t-30 76.5t-9.5 91.5zM82 666q0 -93 37.5 -153 t122.5 -60q4 0 14 1l10 1l6 2v37q-22 -5 -39 -5q-50 0 -73 30t-23 79q0 92 48.5 188.5t124 171t173.5 122.5t191 48h35q61 -14 61 -67q0 -41 -20 -74l-271 -434q-84 -138 -84 -285q0 -39 8 -79t24.5 -80.5t49.5 -66.5t76 -26q62 0 128 39t118 92l180 177q2 -127 12 -173 q28 -135 148 -135q121 0 238 73t189.5 185.5t75.5 225.5q0 57 -30 57q-6 0 -7 -1t-1 -7q0 -2 -1 -19t-1.5 -20t-1.5 -18t-2.5 -20t-4 -18.5t-5 -20t-7 -19.5t-10 -22.5t-12.5 -21.5t-15 -24q-39 -55 -75 -97t-88 -91.5t-111.5 -77t-118.5 -27.5q-76 0 -76 70q0 69 74 196 l496 832l4 8h-2q-19 0 -60 -12t-63 -12t-67 12t-68 12l-43 -96l-179 -322l-276 -438q-18 -28 -53.5 -68t-83.5 -85t-105 -76t-104 -31q-56 0 -56 63q0 64 50 142l186 291l111 202q55 98 55 213q0 82 -45.5 138t-124.5 69h-43q-96 0 -201 -38t-193 -102t-145 -158.5 t-57 -196.5zM657 1325q0 46 31.5 80.5t77.5 34.5q37 0 66 -25.5t38 -60.5q9 35 38 59.5t67 24.5q45 0 76.5 -36t31.5 -79q0 -46 -31 -80.5t-77 -34.5q-39 0 -67.5 24t-37.5 60q-9 -35 -38 -58.5t-66 -23.5q-46 0 -77.5 34.5t-31.5 80.5zM672 1341q0 -33 22.5 -58.5 t55.5 -25.5t55 25.5t22 58.5q0 32 -22 58t-55 26t-55.5 -25.5t-22.5 -58.5zM881 1339q0 -33 22 -58.5t55 -25.5t55.5 25.5t22.5 58.5q0 32 -22.5 58t-55.5 26t-55 -25.5t-22 -58.5z" />
</font>
</defs>
</svg>
