<?xml version="1.0" standalone="no"?>
<!DOCTYPE svg PUBLIC "-//W3C//DTD SVG 1.1//EN" "http://www.w3.org/Graphics/SVG/1.1/DTD/svg11.dtd" >
<svg xmlns="http://www.w3.org/2000/svg" xmlns:xlink="http://www.w3.org/1999/xlink" version="1.1">
<metadata></metadata>
<defs>
<font id="planet_benson_2regular" horiz-adv-x="1581" >
<font-face units-per-em="2048" ascent="1638" descent="-410" />
<missing-glyph horiz-adv-x="563" />
<glyph horiz-adv-x="0" />
<glyph horiz-adv-x="682" />
<glyph unicode=" "  horiz-adv-x="563" />
<glyph unicode="&#x09;" horiz-adv-x="563" />
<glyph unicode="&#xa0;" horiz-adv-x="563" />
<glyph unicode="!" horiz-adv-x="444" d="M-74 920q0 94 14.5 171.5t49.5 143.5q367 -47 444 -223q78 -184 78 -193l-23 -850v-184q0 -35 -24.5 -74t-58 -71.5t-69.5 -54t-58 -21.5q-41 0 -85 32.5t-69 73.5l-152 238q-29 68 -28 82q0 59 37.5 112.5t78.5 104.5q-25 33 -49 112.5t-42.5 182t-31 213t-12.5 205.5z M29 920q0 -88 7 -186.5t19.5 -185.5t26.5 -151.5t29 -85.5l131 6l20 760q0 18 -213 47q-20 -39 -20 -204zM47 -10q0 -23 26.5 -48.5t51.5 -25.5q12 0 31.5 12.5t38 30.5t32 40t13.5 42q0 23 -16.5 45.5t-47.5 22.5q-49 0 -89 -37t-40 -82z" />
<glyph unicode="&#x22;" horiz-adv-x="903" d="M-82 1139q10 6 59.5 20.5t106.5 29.5t107.5 26.5t62.5 11.5h29q47 -20 75 -105l64 -106q29 92 65.5 154.5t71.5 62.5q25 0 70 -20.5t90 -49.5q23 -14 42 -29.5t36 -31.5q33 -31 172 -287q8 -14 8 -22q0 -41 -47 -193q-57 -154 -140 -225.5t-176 -95.5q-31 31 -84 26 q-53 -4 -237 -43zM41 1092l160 -461q100 21 100 121q0 356 -37 372h-10q-10 0 -44 -4t-70 -10t-65.5 -11t-33.5 -7zM473 727q0 -70 16 -86q49 14 99.5 67.5t97.5 180.5q41 133 41 160q0 10 -20.5 24t-48 26.5t-56.5 21.5t-43 9t-29.5 -43t-28 -105t-20.5 -132t-8 -123z M946 840h2l29 -47z" />
<glyph unicode="#" horiz-adv-x="1208" d="M-82 532q29 123 54.5 297.5t47.5 409.5q57 0 103.5 3t81.5 7q10 74 15 115t5 49q72 2 132.5 3t111.5 1q66 0 176.5 -1t296.5 -5l143 -121q-14 -35 -24 -65.5t-17 -57.5l164 -163q-35 -160 -60.5 -310.5t-41.5 -304.5q-16 8 -67.5 13.5t-137.5 7.5q-20 -55 -20 -146v-18 q-430 0 -691 43zM61 655h144q-16 -63 -26.5 -103t-14.5 -60h164q12 12 17 18t7 21.5t5 47t12 97.5h143q0 -61 -12.5 -99t-28.5 -85q18 -2 33.5 -3.5t30.5 -1.5q31 0 50 7.5t32.5 26t26.5 51t32 83.5h184q0 16 10.5 59.5t10.5 104.5h-185q4 47 14.5 88t26.5 76h185 q0 121 20 164h-184q4 20 14 60t27 104h-164q0 -25 -5 -66t-16 -98h-163q16 63 26 103t15 61q-37 -4 -58.5 -6t-38.5 -2q-43 0 -67 8q0 -25 -5.5 -66t-15.5 -98h-184q0 -31 -3 -71t-11 -87q2 -2 28 -2q16 0 49 4t80 13l-20 -185h-164q0 -31 -5 -71.5t-16 -92.5zM389 819 q0 47 12.5 85t28.5 100h164q-8 -31 -18.5 -77t-22.5 -108h-164z" />
<glyph unicode="$" horiz-adv-x="880" d="M-102 1249q0 78 16 124t42 75t58.5 47t66.5 39.5t66.5 54.5t57.5 90q92 0 160.5 -10t128 -27.5t117 -40t126.5 -45.5l144 -143q0 -61 -1 -105t-9.5 -79t-25 -63.5t-46.5 -59.5q39 -39 62.5 -83t36.5 -87t18.5 -80t5.5 -57q0 -154 -61.5 -233t-184.5 -95q0 -27 1 -50.5 t1 -43.5q0 -41 -13.5 -55.5t-64.5 -14.5h-313l-367 348v119q0 172 -11 287t-11 188zM0 1229q0 -10 3 -31.5t27.5 -48.5t79 -54.5t156.5 -50.5v-225q-150 23 -225 62q-6 0 -10 -16.5t-6 -40t-3.5 -48t-1.5 -39.5q68 -6 133.5 -13t112.5 -7q0 -47 -10 -82t-10 -82h184 q0 23 -3 39t-7 31.5t-7 33t-3 39.5q141 16 203.5 80t62.5 187q0 57 -26.5 94t-63.5 57.5t-77 28.5t-67 8q-12 0 -32 -4v246q16 0 69 -9.5t115 -31.5q12 0 17 28.5t5 57.5q0 41 -26.5 52t-89.5 11q-37 0 -70 -6v61q0 14 -32.5 17.5t-110.5 3.5q-14 -14 -17.5 -25.5 t-3.5 -15.5v-41q-141 0 -203.5 -62.5t-62.5 -203.5zM102 1290q0 16 43 44t121 59v-226q-78 0 -121 31t-43 92zM389 1044q78 -16 121 -43.5t43 -58.5v-41q0 -29 -27.5 -55.5t-115.5 -26.5q0 78 -5.5 140.5t-15.5 84.5z" />
<glyph unicode="%" horiz-adv-x="1249" d="M-82 1044q0 111 33 201t110 168h82q61 0 183.5 -12t308.5 -29q0 31 12 58.5t29 44.5q123 0 491 -123v-21l144 -143q-78 -141 -164 -312t-164 -405q39 0 82 -5t86 -20.5t86 -44t84 -75.5q82 -94 90 -246q10 -166 -39 -438h-1249l-164 133q109 186 189.5 368.5t158.5 368.5 q-225 102 -293 207q-72 117 -84 192q-12 86 -12 133zM20 1044q0 -92 17.5 -151t57.5 -94t106.5 -48.5t167.5 -13.5h143q-106 -264 -194.5 -478t-194.5 -382h123q47 0 90 -2t74 -18l82 204q23 -70 47 -109.5t55 -61t71 -27.5t93 -6q264 0 323 71q55 68 66 113q8 43 14 81.5 t6 61.5q0 70 -34.5 110t-88 61.5t-119 27.5t-126.5 6h-164q123 330 225.5 554t163.5 347q-139 31 -204.5 48.5t-82.5 33.5q-16 -78 -45.5 -162t-56.5 -145q0 92 -44 142t-107.5 73t-134 27t-124.5 4h-123q-47 -47 -64.5 -110.5t-17.5 -156.5zM123 983q0 123 61 246h205 q47 0 75 -43t28 -121q0 -225 -37 -225h-107q-80 0 -125 5t-67.5 20.5t-27.5 43t-5 74.5zM614 102q0 47 15.5 105.5t46.5 120.5h225q123 -1 123 -185q0 -111 -33 -157.5t-110 -46.5q-84 0 -136.5 11t-81 32.5t-39 51t-10.5 68.5z" />
<glyph unicode="&#x26;" horiz-adv-x="1474" d="M-82 205q0 53 15.5 118.5t43 133t65.5 130t81 109.5q-55 156 -68.5 263.5t-13.5 187.5q0 111 47 204t158 165h737l143 -144q47 -78 64.5 -182t17.5 -227v-205h267l122 -164l-41 -410q-66 0 -99.5 -13t-33.5 -48q0 -39 52 -103l20 -368q-61 -31 -143 -46.5t-174 -25.5 t-912 -31q-254 307 -299 426q-49 119 -49 230zM41 205q0 -92 30.5 -185.5t92.5 -203.5q1053 61 1065 61q0 8 -5 53t-16 131h-225q-10 68 -15 124.5t-5 105.5q0 111 20 180q45 -6 109.5 -16.5t156.5 -24.5l-20 225q-287 0 -287 62q0 39 3 93t7 111.5t7.5 111.5t3.5 93 q0 78 -15.5 152t-46.5 135h-635q-61 -61 -92 -124.5t-31 -141.5q0 -39 7.5 -108.5t20.5 -144.5t32.5 -141.5t42.5 -97.5q-111 -141 -158 -249.5t-47 -200.5zM307 266q0 141 43 214t121 73l266 -21v-493h-225q-111 0 -158 58.5t-47 168.5zM389 1044v101q31 16 119 19t229 3 v-327q-43 -20 -102 -21q-246 0 -246 225z" />
<glyph unicode="'" horiz-adv-x="407" d="M-90 1051q0 35 28.5 74.5t69.5 73.5t83 56.5t71 22.5q20 0 44.5 -20.5t48.5 -49t43 -62.5t30 -59l121 -198l34 -457q-76 -47 -127 -77.5t-80 -43.5l-151 250zM12 1071l160 -377q12 4 27.5 13.5t33.5 19.5v332q0 10 -7 29.5t-18 39t-23.5 34t-22.5 14.5q-16 0 -42 -10.5 t-49.5 -26t-41 -34t-17.5 -34.5z" />
<glyph unicode="(" horiz-adv-x="839" d="M-41 553q0 569 183.5 878.5t553.5 370.5l144 -164q-10 -47 -16.5 -126.5t-6.5 -172.5v-45v-22q0 -16 2 -23q-172 -47 -260 -259t-88 -601q0 -123 9 -240.5t34 -210t69 -148.5t113 -56l144 -164q-10 -47 -18.5 -122t-8.5 -146q0 -57 6 -101q-170 16 -281.5 61.5 t-189.5 123.5q-115 92 -190.5 205.5t-119.5 255t-61.5 316.5t-17.5 390zM61 553q0 -299 22.5 -501t78 -328.5t151 -190t240.5 -86.5v82q0 47 2 76.5t18 46.5q-92 0 -157.5 63.5t-108.5 180t-62.5 283.5t-19.5 374q0 422 77 648t251 274v204q-492 -94 -492 -1126z" />
<glyph unicode=")" horiz-adv-x="839" d="M-61 -676q4 70 13 166t9 188v29q0 20 -2 27q348 96 348 839q0 115 -9 235t-31.5 218t-62.5 160.5t-102 62.5l-163 144v389q176 -12 310 -72.5t232.5 -157t163 -224.5t103 -276.5t55 -311t16.5 -330.5q0 -553 -182 -860.5t-535 -368.5zM61 -553q264 61 388 335.5 t124 770.5q0 299 -25.5 504t-85 336t-157.5 197.5t-244 88.5v-184q172 -47 260.5 -274.5t88.5 -647.5q0 -422 -77 -648t-251 -273v-88q0 -57 -4 -81t-17 -36z" />
<glyph unicode="*" horiz-adv-x="1331" d="M-123 942q61 111 114.5 219.5t69.5 231.5q111 -78 196 -133.5t132 -71.5q-31 154 -61 430q129 -20 244.5 -29.5t226.5 -11.5l143 -143q-51 -104 -51 -232v-26q139 47 235 114l144 -164q33 -98 57.5 -204.5t44.5 -225.5q-123 0 -215 -10t-153 -10q74 -104 245 -266 q-92 -53 -181 -124t-187 -163q-160 117 -226 287q-8 -23 -26.5 -55.5t-41 -71.5t-48 -80t-47.5 -80q-113 100 -246 206.5t-287 223.5l225 205q-12 -2 -23 -3t-22 -1q-25 0 -48 9t-50 36zM41 1004q139 -16 235.5 -51.5t174.5 -51.5q-47 -61 -122 -145t-186 -162 q61 -31 107.5 -63.5t77.5 -79.5q78 123 138 201.5t107 125.5q47 -47 92.5 -128t92.5 -220q61 61 107 104.5t77 59.5q-61 61 -122.5 135t-123.5 152q53 23 150.5 42t238.5 19q-6 100 -41 205q-88 -39 -189 -63.5t-218 -39.5v48q0 63 3 110t8 90t12.5 86t15.5 97 q-31 -6 -59.5 -8.5t-57.5 -2.5t-55.5 2t-52.5 9q16 -174 28.5 -278.5t12.5 -152.5q-154 31 -369 185q0 -78 -17.5 -128t-64.5 -97z" />
<glyph unicode="+" horiz-adv-x="1454" d="M184 512l37 541q70 -16 127.5 -28.5t102.5 -20.5q0 16 -12.5 75.5t-28.5 169.5l512 -41l327 -327q0 -326 -49 -475q-115 23 -237 24q25 -141 61 -205q-160 20 -307.5 31.5t-284.5 15.5l-12 168q-53 27 -111.5 44.5t-124.5 27.5zM287 696q109 27 196 27q31 0 49 -6 q-8 -63 -17 -113.5t-23 -91.5q53 -8 114.5 -18.5t130.5 -22.5q-10 51 -15 107.5t-5 117.5q154 -8 213 -30q10 39 23.5 97t29.5 138q-31 -16 -93.5 -18t-172.5 -2q31 154 61 245l-246 21q10 -51 15.5 -117.5t5.5 -148.5q-78 0 -138.5 17t-107.5 65z" />
<glyph unicode="," horiz-adv-x="499" d="M-78 86q0 203 236 203q94 0 164 -51q68 -53 221 -338q16 -31 26.5 -64t10.5 -72q0 -51 -32 -103t-86 -96t-129 -76t-161 -42l-149 281q37 25 36 79l-73 121q-29 35 -46.5 76t-17.5 82zM25 86q0 -25 10 -50.5t27.5 -46t40 -33.5t47.5 -13q35 0 69 30q2 -2 2 -18 q0 -41 -41 -135q31 4 58.5 22.5t48 47t32 62t11.5 68.5q0 72 -50.5 119t-121.5 47q-133 0 -133 -100z" />
<glyph unicode="-" horiz-adv-x="1036" d="M-53 393q8 41 17 78t24 70q27 68 61.5 109.5t77.5 41.5h256q51 0 94 -1t113 -17h-2q47 -6 114.5 -14.5t171.5 -18.5l236 -379q-16 -68 -48 -136.5t-73 -98.5q-86 0 -157.5 1t-112.5 1h-74q-27 0 -66.5 -3t-103 -8.5t-157 -14.5t-226.5 -21q-160 330 -145 411zM35 344 q133 12 206.5 19.5t115.5 11.5t69 5t66 1q41 0 111.5 -1t199.5 -1q14 10 30.5 58.5t28.5 101.5q-135 14 -213 24t-125 16.5t-75.5 8.5t-65.5 2h-256q-20 0 -36.5 -22.5t-29 -58.5t-19.5 -79t-7 -86z" />
<glyph unicode="." horiz-adv-x="382" d="M-79 -34q-13 46 18 104q35 82 122 120q39 20 99 21q55 0 94 -39q39 -41 123 -190q86 -152 86 -191q0 -41 -24.5 -80t-59.5 -71q-33 -33 -69 -54.5t-68 -21.5q-31 0 -76 33q-23 16 -71 86.5t-124 199.5q-37 37 -50 83zM20 -10q0 -23 27 -47q27 -27 45 -27t37 12 q29 16 56.5 49t27.5 64q0 23 -16.5 45.5t-46.5 22.5q-49 0 -89.5 -37t-40.5 -82z" />
<glyph unicode="/" horiz-adv-x="1175" d="M-92 70l934 1253l280 -145l146 -258l-949 -1260l-247 156zM57 98l84 -53l828 1098l-97 49z" />
<glyph unicode="0" horiz-adv-x="1325" d="M-74 362q0 182 60.5 356.5t163 309.5t235.5 217t281 82q399 0 565 -323q168 -322 168 -578q0 -195 -59.5 -366t-168 -298t-261 -199.5t-339.5 -72.5q-137 0 -231 57q-47 29 -115.5 115.5t-156.5 233.5q-141 172 -142 466zM29 362q0 -113 25.5 -208t74.5 -164.5 t122 -108.5t167 -39q166 0 300 65.5t230 179.5t148.5 266.5t52.5 328.5q0 543 -483 543q-127 0 -242 -74t-203 -194.5t-140 -276.5t-52 -318zM152 387q0 72 22.5 149.5t62 153.5t92 145.5t112 122t121 83t120.5 30.5t107.5 -33.5t82 -90t52 -133.5t18.5 -163q0 -74 -12 -125 q-20 -84 -67.5 -169t-109 -155.5t-131 -114.5t-133.5 -44q-166 0 -251.5 91t-85.5 253zM414 197q2 -25 10 -35t18.5 -14.5t22.5 -3.5t24 1q49 0 101.5 37t100.5 95.5t85 130t53 143.5q4 27 7.5 51.5t3.5 48.5q0 16 -1 33.5t-38 26.5q-33 8 -111 -47q-37 -27 -70.5 -62 t-66.5 -76q-63 -82 -104 -182q-41 -102 -35 -147z" />
<glyph unicode="1" horiz-adv-x="874" d="M-76 -43q0 39 17.5 97.5t56.5 123.5h195q10 78 22 149.5t25 141.5l-205 344q-18 43 -28.5 71.5t-15.5 50t-7 37t-2 27.5v21q8 100 479 307q6 0 50 -16.5t95 -38t97.5 -40t56.5 -22.5l190 -385q-45 -102 -78.5 -188t-60.5 -165t-47.5 -154.5t-36.5 -157.5l203 -262 l-144 -379q-135 25 -258 24q-238 0 -411 -112q-178 369 -185 428q-4 29 -6 53.5t-2 44.5zM27 -61q0 -18 2 -41t6 -52q76 49 340 50q129 0 196 -13l66 174h-16q-14 0 -38 2t-47.5 5.5t-43 5.5t-25.5 2q-10 0 -20.5 -1t-20.5 -3q20 172 41.5 300t52.5 242.5t76 234t113 275.5 q-6 4 -42 20.5t-76 35t-74 34.5l-34 15q-397 -176 -399 -213v-13q0 -39 15.5 -92t37.5 -84l328 162q-53 -186 -99.5 -408.5t-82.5 -500.5h-224q-33 -57 -32 -137z" />
<glyph unicode="2" horiz-adv-x="1251" d="M-72 846q0 123 37 229.5t112 186t185.5 126t257.5 46.5q63 0 132 -24t135.5 -63.5t128 -93t110.5 -114.5q35 -41 76 -103.5t88 -148.5q94 -174 115 -234q23 -74 22 -129q0 -182 -203 -368q113 -295 123 -406q8 -113 -37 -131q-66 -31 -161 -46t-232 -28 q-174 -16 -301 -44.5t-231 -75.5l-199 339q-39 125 -39 183q2 72 29.5 137.5t75.5 124.5q-223 446 -224 637zM31 846q0 -147 71 -344q55 16 96.5 28.5t88.5 28.5q68 25 124 46.5t56 37.5v2q0 8 -9 34t-22.5 52.5t-27 49t-19.5 26.5l-190 -94q-66 96 -66 178q0 51 35 101 t89 88t117.5 62.5t121.5 26.5h24q160 0 242 -98t108 -315v-13q0 -57 -53 -113.5t-132 -116.5t-172 -123.5t-173 -133.5t-134 -146.5t-56 -162.5q0 -68 30 -137q63 29 179 50t296 38q166 16 258.5 28.5t110.5 28.5q-8 35 -17.5 74t-18.5 73.5t-20.5 62.5t-23.5 40l-512 -195 q-10 16 -10 33q0 23 37 65t91 91t117.5 101t118 93t89 66.5t32.5 23.5q170 158 170 297q0 92 -53 189.5t-134 178.5t-179.5 132t-190.5 51q-123 0 -214 -38t-152.5 -104.5t-92 -154.5t-30.5 -188zM545 741.5q6 -51.5 67 -157.5q68 51 112 92t44 67q-2 16 -4 30.5t-4 29.5 q-29 14 -107 14q-20 -2 -39.5 -6t-35.5 -8q-39 -10 -33 -61.5z" />
<glyph unicode="3" horiz-adv-x="1327" d="M-76 211q0 63 37 98q35 35 23 135l196 410l-106 178l-27 33q39 63 104.5 116.5t145.5 91.5t167 59.5t169 21.5q100 0 198.5 -24.5t181.5 -68.5t143.5 -103.5t82.5 -129.5l121 -201q39 -63 39 -129q0 -59 -13.5 -105t-39.5 -83q-10 -16 -24.5 -32.5t-35.5 -35.5 q-35 -29 -14 -159q33 -63 50 -131t17 -175q0 -104 -57 -190t-145 -146.5t-193.5 -94t-200.5 -33.5q-98 0 -192 19t-176 54q-82 33 -144 86q-63 52 -219 312q-41 47 -64.5 104t-23.5 123zM27 211q0 -78 47 -141.5t124.5 -109.5t180 -70.5t211.5 -24.5q80 0 168 26.5 t161.5 74.5t122 116t48.5 151q0 82 -12.5 141.5t-40 105.5t-73.5 84t-114 79q63 33 118.5 62.5t95.5 64.5t62.5 79t22.5 105t-45 115.5t-119 94.5t-166 63.5t-186 23.5q-72 0 -142.5 -13t-133 -36.5t-110.5 -56.5t-73 -72l129 -151q72 70 117 109.5t78.5 60t66.5 24.5t82 4 q98 0 154.5 -54t56.5 -153q0 -66 -16.5 -114.5t-58.5 -80.5t-114.5 -47.5t-185.5 -15.5q-137 0 -256 64l-82 -172h418q43 0 93.5 -19.5t93.5 -51.5t71.5 -70.5t28.5 -77.5q0 -236 -283 -236h-51q-39 0 -82 5t-84 25.5t-80 61.5t-71 115q-18 -6 -48 -12t-57.5 -16.5t-47 -25 t-19.5 -34.5zM422 121q4 -6 7 -11.5t7 -9.5z" />
<glyph unicode="4" horiz-adv-x="1509" d="M-82 639l436 580l256 -136l68 271l260 45q35 0 65.5 -23.5t40.5 -66.5l136 -224q18 -31 18 -73q0 -23 6 -82.5t17 -157.5q47 0 74.5 -2t39.5 -4l82 -94v-13l148 -245q2 -53 3 -97.5t5 -85.5t12 -84q10 -41 -520 -96l-154 -610l-475 24l-162 250l19 269zM41 631l152 -287 l393 64l-176 -596l274 -15l152 606l489 5q-2 6 -4 70.5t-6 187.5q-8 2 -30.5 3t-63.5 1q-109 0 -342 -6q35 283 52 428t17 176q0 29 -4 28l-227 -41q2 0 -92 -591l-332 -50q-2 2 -2 4q0 33 268 375l-176 92z" />
<glyph unicode="5" horiz-adv-x="1243" d="M-74 602l295 729q100 -29 168 -42t107 -13q59 0 174.5 10t296.5 29q10 -10 61.5 -90t145.5 -234q6 -10 7 -18t1 -25q0 -4 -12.5 -30.5t-32.5 -65.5q-18 -41 -43 -86q-25 -47 -11.5 -101.5t41.5 -123.5l113 -187q80 -135 80 -323q0 -115 -37 -207t-106.5 -157.5 t-169 -101.5t-224.5 -38h-12q-440 0 -590 248l-121 198q-111 131 -110 355q0 100 33 207zM33 16q0 -4 2 -4zM35 10v2v-2zM49 328q0 -449 565 -449h13q205 4 322.5 113t117.5 295q0 528 -768 547q0 2 -1 3t-1 3q0 12 9 39.5t22.5 58.5t27 55.5t21.5 30.5h22q35 0 84 -2 t95.5 -4t78 -5t31.5 -5q0 -6 -6 -25.5t-13 -41t-13.5 -40t-6.5 -24.5l168 -41q2 -4 11.5 21.5t22.5 65.5t26.5 88t25.5 90t20.5 71.5t8.5 31.5t-2 2q0 2 -80 -6q-72 -8 -188 -18q-53 -4 -95.5 -6t-70.5 -2q-106 0 -213 32l-203 -501q219 0 375.5 -20.5t257 -65t147.5 -112 t47 -159.5q0 -139 -81 -200.5t-279 -61.5q-129 0 -207 90t-82 250q0 76 -18 86l-164 -4q-27 -72 -27 -180zM395 268q0 -4 4 -8zM543 23l6 -11q-4 4 -6 11z" />
<glyph unicode="6" horiz-adv-x="1263" d="M-78 375v12q0 104 38 217t103.5 220.5t152.5 203.5t186.5 169t205 116t207.5 43l526 -606q-129 -6 -249 -37q-117 -29 -117 -68q0 -37 63 -92q66 -53 158 -225q94 -168 94 -256q0 -152 -36.5 -257.5t-113.5 -174t-194 -103.5t-276 -43h-33q-160 0 -274.5 69.5 t-186.5 186.5q-180 266 -217 379t-37 246zM25 375q0 -111 31.5 -208t90 -168t143.5 -112t193 -41h31q135 6 234.5 36t164 87.5t96 145.5t31.5 213q0 106 -94 166.5t-250 60.5q-233 0 -409 -115q8 141 62 259t143.5 203t207 134t250.5 56l-176 161q-86 0 -174 -37.5 t-172 -102t-156.5 -152t-128 -183.5t-87 -196.5t-31.5 -194.5v-12zM287 207q0 45 23.5 80t61.5 59.5t87 37.5t100 13q229 0 229 -190q0 -41 -26.5 -74t-68.5 -57.5t-92 -37.5t-97 -13q-217 0 -217 182zM395 158q0 -2 2 -4z" />
<glyph unicode="7" horiz-adv-x="1318" d="M-72 -92q0 59 27 137t74 166t110.5 182t136.5 189l-149 12l-164 250q29 57 68 138t76.5 160t68.5 143.5t43 88.5l1043 -55v-16l147 -246v-99v-45v-20t-2 -21q-2 -82 -74 -167q-35 -43 -75.5 -80t-86 -74t-90.5 -75t-88 -81q-88 -88 -165.5 -187t-136 -200.5t-92.5 -200 t-34 -180.5v-18v-21q0 -20 1 -43.5t1 -42.5v-22l-479 78l-160 249v101zM31 -92v-12l286 -48q0 10 -1 17.5t-1 17.5q0 90 37 196.5t99.5 217.5t145.5 219.5t176 202.5t191.5 169t190.5 118q0 35 1 88t3 127l-876 47q-47 -102 -160 -332l285 -21q2 25 4 59t5 64.5t8 52 t15 21.5q66 -6 126.5 -12t113.5 -10q45 -4 89 -9.5t78 -10.5t54.5 -10t20.5 -7l-2 -2q-80 -39 -176.5 -119t-194.5 -182.5t-191.5 -220t-166 -232.5t-116.5 -216t-44 -173z" />
<glyph unicode="8" horiz-adv-x="1679" d="M-76 330v18q0 66 30 132.5t79 125.5q41 51 110 113q63 51 50 155q-6 55 -10.5 95.5t-2.5 73t10.5 62.5t26.5 62q29 45 74 82t101.5 63.5t122 41t132.5 14.5h17q117 -4 227 -26.5t199 -59.5q92 -35 149 -86q61 -49 147 -207q87 -157 87 -233q-8 -49 10 -84q18 -31 48 -77 t50 -93l117 -193q59 -96 59 -188q0 -139 -81 -262t-207 -214t-279.5 -143.5t-298.5 -52.5q-98 0 -205.5 34t-209 92t-187.5 136t-139 166l-115 189q-41 66 -76 130t-35 134zM27 348q0 -68 31.5 -135.5t86 -127.5t126 -112.5t150.5 -90.5t161 -59.5t155 -21.5q129 0 265.5 45 t249 123t184 182.5t71.5 225.5q0 70 -46 145.5t-114.5 138t-151.5 103.5t-157 43q180 57 185 235v2q0 45 -47.5 84t-125 68t-179 47.5t-209.5 22.5h-15q-72 0 -137.5 -17.5t-116.5 -48.5t-81.5 -74t-30.5 -92q0 -127 190 -262q-57 0 -134 -38t-145.5 -97t-116.5 -136 t-48 -153zM385 358q0 72 26.5 136.5t80 112.5t132 76t183.5 28q217 0 336 -82t119 -242q0 -74 -43 -135.5t-116 -105.5t-169 -69.5t-203 -25.5q-346 0 -346 307zM418 997v7q6 143 203 143q53 0 114.5 -13.5t113.5 -33t87 -43.5t35 -49q0 -33 -32 -67t-79 -61.5t-103.5 -46 t-105.5 -18.5q-100 0 -166.5 48t-66.5 134zM684 199q20 -45 47 -45q74 0 142.5 13t123.5 36q55 25 95 57q39 33 8.5 65.5t-139.5 32.5q-145 0 -222 -57q-78 -55 -55 -102z" />
<glyph unicode="9" horiz-adv-x="1576" d="M-63 -315v919h305q-57 61 -90 142t-33 167t54 173.5t136 159t179.5 116.5t185.5 45q131 0 250.5 -32t219 -90t174.5 -141t120 -188l106 -176q47 -78 71.5 -165t24.5 -191q0 -117 -28.5 -230.5t-82.5 -218t-129 -193.5t-168 -154.5t-201.5 -102.5t-227.5 -37h-23 q-61 2 -112.5 26.5t-98.5 62.5t-92 82t-94 87l-287 -303zM57 -55l164 184q59 -39 110.5 -88t100.5 -93t96 -75t101 -33h20q158 0 293 73t235.5 191.5t157 269t56.5 306.5q0 141 -55.5 256t-153 196.5t-228.5 127t-280 45.5q-72 0 -152 -36t-146.5 -92.5t-110.5 -126 t-44 -137.5q0 -78 36 -153.5t92.5 -135t129 -96t146.5 -36.5q106 0 184 11t141.5 40.5t119.5 81t120 129.5q0 -10 1 -22.5t1 -22.5q0 -119 -44 -245t-115.5 -229.5t-164 -170t-190.5 -66.5q-186 0 -336 211l213 92l-498 162v-518zM410 887q0 49 28.5 91t73.5 73.5t96 50 t99 18.5q82 0 150.5 -16.5t117.5 -48t76.5 -78t27.5 -103.5q0 -23 -23.5 -50t-62.5 -55t-86 -55.5t-94 -48t-89 -32.5t-69 -12h-4q-43 2 -87 26.5t-77.5 63.5t-55 85t-21.5 91z" />
<glyph unicode=":" horiz-adv-x="395" d="M-76 -10q0 49 29 96q29 57 35 145l-13 19q-23 27 -37 54.5t-14 53.5q0 41 19.5 81t51.5 71t74 50.5t87 19.5q66 0 104.5 -39t52.5 -86l131 -215q25 -41 25 -86q0 -37 -29 -84q-29 -51 4 -199q25 -41 25 -86q0 -35 -24.5 -74t-58.5 -71.5t-69.5 -54t-58.5 -21.5 q-41 0 -85 32.5t-69 73.5l-127 213q-25 25 -39 53.5t-14 53.5zM27 -10q0 -23 26.5 -48.5t50.5 -25.5q12 0 32 12.5t38.5 30.5t31.5 40t13 42q0 23 -16.5 45.5t-46.5 22.5q-49 0 -89 -37t-40 -82zM27 358q0 -23 26.5 -48t50.5 -25q14 0 34 12t38.5 30.5t30.5 41.5t12 41 q0 23 -16.5 45t-46.5 22q-49 0 -89 -37t-40 -82z" />
<glyph unicode=";" horiz-adv-x="501" d="M-76 86q0 119 82 168q-49 51 -49 104q0 41 19.5 81t51 71t73.5 50.5t87 19.5q66 0 105 -39t53 -86l131 -215q25 -41 25 -86q0 -25 -13 -52q-12 -29 58 -200q16 -29 26.5 -64t10.5 -74q0 -47 -33 -99t-90.5 -97t-133 -79t-161.5 -44l-164 248q8 16 15.5 32.5t15.5 30.5 q14 27 -43 170q-66 78 -66 160zM27 86q0 -25 10 -49.5t27.5 -46t40 -34.5t47.5 -13q35 0 69 30q2 -2 2 -20q0 -57 -39 -133q31 4 58.5 23.5t47 48t32 62t12.5 66.5q0 72 -50.5 119t-123.5 47q-133 0 -133 -100zM59 358q0 -23 27 -48t51 -25q14 0 33.5 12t38 30.5t31 41.5 t12.5 41q0 23 -16.5 45t-47.5 22q-49 0 -89 -37t-40 -82z" />
<glyph unicode="&#x3c;" horiz-adv-x="1576" d="M-41 696v287q61 35 143 82t171 97t179.5 98.5t167 87t135 62.5t85.5 24l143 -164q16 -61 38.5 -123t22.5 -123h349l143 -164v-409q-123 0 -241.5 10t-229.5 10q0 -111 -17.5 -211t-64.5 -178q-31 14 -95.5 47t-146.5 77t-174 93t-178 97t-156.5 89t-109.5 68zM61 758 q25 -25 81.5 -56.5t127 -67.5t149.5 -73t149.5 -71.5t127 -65.5t82.5 -55q14 16 21.5 45.5t10.5 62.5t5 64.5t4 52.5q-78 16 -158.5 56t-189.5 87q61 0 136 -3t173.5 -7t223 -7t286.5 -3v205h-798q92 47 170.5 87t156.5 56q0 31 -12 89t-29 136q-27 -27 -82 -57.5 t-126.5 -65t-150.5 -70.5t-150.5 -71t-127 -66.5t-80.5 -58.5v-143z" />
<glyph unicode="=" horiz-adv-x="1054" d="M-66 596q35 330 162 463q16 0 40 1t49.5 2t50 2t43.5 1q274 0 616 -57l229 -377q-8 -29 -17 -58.5t-22 -58.5q-25 -59 39 -252q-8 -35 -20 -69.5t-27.5 -67.5t-34 -58.5t-36.5 -39.5q-160 -6 -307.5 -13.5t-268.5 -13.5t-206 -11t-118 -7l-159 249q0 188 -13 365zM49 344 q66 6 254.5 15.5t513.5 19.5q14 10 31 58.5t29 101.5q-88 8 -175.5 13t-212.5 9h-71q-117 0 -303 -6q-66 0 -66 -211zM49 713q137 16 328.5 24t439.5 11q14 10 31 58t29 101q-336 55 -598 56q-35 0 -70 -1t-68 -4q-74 -78 -92 -245z" />
<glyph unicode="&#x3e;" horiz-adv-x="1576" d="M-41 655v410h246q78 0 136 -2t89 -19q0 53 6 100.5t15.5 93.5t20.5 94t20 102q20 -20 84.5 -60.5t152.5 -89.5t189.5 -101.5t194.5 -97.5t169 -78.5t111 -43.5l143 -144v-287q-61 -27 -142 -69.5t-171 -93t-180.5 -101.5t-168 -92t-136 -67.5t-83.5 -26.5l-143 143 q-23 39 -35 74t-20 69.5t-13.5 69.5t-13.5 74h-307zM61 758q84 0 197 -3t223.5 -7.5t207.5 -7.5t151 -3q-78 -47 -154 -87t-154 -56q0 -61 10.5 -112.5t10.5 -112.5q25 10 82 42.5t131 75.5t154.5 91.5t154.5 88.5t132.5 65.5t82.5 25.5v164q-31 0 -93 24.5t-138 62.5 t-158 82t-151.5 85t-117.5 72.5t-59 41.5q-16 -78 -28.5 -133t-12.5 -72q31 -8 72 -23t85 -35.5t88 -47.5t83 -57q-61 0 -133 6t-166 14t-216 14.5t-284 6.5v-205z" />
<glyph unicode="?" horiz-adv-x="1103" d="M-70 848q-8 166 47 268q41 74 101.5 128t132.5 90t149.5 53.5t155.5 17.5q86 0 167 -24.5t146 -67.5q66 -43 115 -101q27 -29 86.5 -128t153.5 -267l6 -92q0 -129 -18.5 -211t-74 -146.5t-154.5 -125t-261 -144.5q-47 -25 -47 -65q0 -20 -1 -52t-3 -77q-4 -90 -56 -111 q70 -100 80 -149q23 -104 -4 -179q-23 -66 -66.5 -105.5t-101.5 -39.5q-45 0 -82 25q-33 20 -149 217q-111 193 -111 250q0 119 60 184l-35 57q-59 53 -60 189q0 86 25 153q-190 276 -201 453zM25 881q0 -92 29.5 -168t101.5 -144q18 4 41 21q18 14 38.5 42t43.5 77 q-41 49 -63.5 100t-22.5 106q0 66 24.5 114t64.5 80t93 47t110 15q59 0 111.5 -18t92.5 -52t62.5 -82t22.5 -110q0 -104 -74.5 -188t-191.5 -133q-154 -61 -226.5 -138t-72.5 -208q0 -129 82 -129q70 2 131 39q-37 76 -37 137q0 98 98 151q147 76 236.5 128.5t138.5 106.5 t65.5 123.5t16.5 180.5q0 66 -36 125t-96 103t-136 70t-156 26q-86 0 -174 -26t-158.5 -78t-114.5 -132t-44 -186zM244 -188q0 -57 24.5 -98.5t61.5 -41.5q35 0 60.5 41.5t25.5 98.5q0 59 -25.5 100t-60.5 41q-37 0 -61.5 -41t-24.5 -100zM469 752q-18 -27 45 -47 q94 61 94 88t-33 20q-23 -6 -61 -22q-27 -14 -45 -39z" />
<glyph unicode="@" horiz-adv-x="1576" d="M-35 322q0 211 4 390t9.5 312t11.5 215t10 98q31 94 112 142.5t228 48.5q49 0 135 -5t178 -12.5t178.5 -12.5t135.5 -5h34q98 0 158 -5t103 -24.5t80.5 -57.5t95.5 -103q39 -47 63.5 -88t38.5 -79t19.5 -77t5.5 -84q0 -201 -4.5 -329t-10.5 -204.5t-15 -110.5t-19 -44 l40 -41l41 -512q-141 78 -276 110.5t-277 32.5q-63 0 -156 -6t-192.5 -14.5t-191.5 -14.5t-154 -6q-31 0 -58.5 2t-58 12.5t-66.5 31t-81 59.5q-49 41 -74.5 68.5t-34.5 41.5q-12 18 -12 271zM61 313q0 -74 5.5 -116.5t18.5 -63t37.5 -26t63.5 -5.5q55 0 123 2t157 5.5 t202.5 6.5t261.5 3q147 0 239.5 -18.5t161.5 -59.5l-20 246q-211 -41 -352.5 -51.5t-219.5 -10.5q-174 0 -275.5 11.5t-154.5 62.5t-68.5 158.5t-15.5 300.5q0 84 3 172t9.5 160.5t13.5 122t15 57.5h389q115 0 203 -12.5t147.5 -56.5t90 -130t30.5 -231q0 -174 -43 -251 t-120 -77q-47 0 -64.5 27.5t-17.5 74.5q0 27 6 65t14 85t14.5 103.5t6.5 117.5q0 72 -52.5 117t-185.5 45q-55 0 -95 -7t-74 -21.5t-68.5 -38t-77.5 -56.5l123 -123q16 47 59 75t104 28q47 0 64.5 -17.5t17.5 -64.5v-62h-184q-92 0 -138 -47t-46 -158q0 -246 245 -245 q31 0 54.5 25.5t41 56t29 56t19.5 25.5q6 -72 16 -112.5t26.5 -61t41 -25.5t61.5 -5h164q86 0 134 18.5t72.5 76.5t31 166.5t6.5 291.5q0 184 -9.5 280t-31.5 139q-10 20 -80 34t-199 14q-27 0 -73 2t-101 5t-114.5 6t-113.5 7t-97 7t-66 5q-2 2 -31 2h-28q-78 0 -131.5 -17 t-88 -46t-50 -63.5t-15.5 -71.5q0 -266 -10.5 -495.5t-10.5 -416.5zM492 635q0 123 61 123q23 0 59.5 -5.5t83.5 -15.5q0 -23 -10 -57.5t-27.5 -67t-40 -56.5t-45.5 -24q-47 0 -64 28t-17 75z" />
<glyph unicode="A" d="M-4 80q0 145 22 207q37 80 106 154.5t157 129.5l-58 99q-23 27 -44 62.5t-36.5 71.5t-24.5 67.5t-9 50.5q0 90 50 174t128 148.5t172 103t182 38.5q168 0 289 -83q123 -82 291 -408q79 -130 79 -318v-14q-2 -25 -2 -47v-43v-67v-80q2 -43 4.5 -93.5t6.5 -101.5 q143 -12 204 -76l175 -336q-14 -109 -27.5 -168t-39.5 -88.5t-71 -36t-120 -6.5h-17q-346 4 -428 125l-43 70q-182 -166 -410 -166q-213 0 -305 154q-231 324 -231 477zM98 27q0 -225 281 -226q147 0 271 81t231 255q61 103 69 103q12 0 13 -93q0 -123 -31 -321 q35 -49 328 -53h16q45 0 72.5 4t44 25.5t26 64.5t19.5 121q-41 43 -369 43q0 10 1 23.5t1 33.5q0 23 -1 57.5t-3 79.5q-2 47 -3 94.5t-5 94.5q-2 47 -4 118.5t-6 169.5v53q0 196 -27 261q-27 82 -82 143q-53 59 -130 92t-169 33q-72 0 -147.5 -29.5t-138 -81t-103.5 -117 t-41 -134.5q0 -16 6 -45t16.5 -57.5t22.5 -52.5t25 -30l172 51q6 307 127 308q74 0 135 -29t105 -78t68.5 -117.5t24.5 -148.5q0 -25 -7 -66t-18 -80.5t-25.5 -68.5t-28.5 -29q-66 41 -125.5 67.5t-133.5 31.5q-66 0 -147.5 -36t-155.5 -93q-70 -53 -125 -127 q-49 -72 -49 -295zM188 727q2 -10 9 -16zM285 180q0 86 92 137.5t246 51.5q16 0 40.5 -21t24.5 -39q0 -33 -32.5 -79t-76.5 -88t-90.5 -71.5t-72.5 -29.5q-131 0 -131 139zM664 700l6 -22q39 -4 67 -19q29 -12 51 17q23 29 5.5 48t-60.5 19t-69 -43zM1114 -166l2 -4 q-2 2 -2 4z" />
<glyph unicode="B" horiz-adv-x="1415" d="M-72 -225q10 59 15.5 83.5t5.5 28.5h2q4 31 11 63t18 64q12 37 12 151q0 64 -4 152q-53 47 -54 183q0 196 131 196h1l174 -6l-76 127l-6 -2l-54 250q2 16 48.5 45t116 60.5t154.5 64.5t167 60.5t149.5 44t102.5 16.5q193 0 321.5 -67.5t175.5 -196.5l123 -203 q47 -84 47 -182q0 -29 -21.5 -68t-57.5 -84q-35 -47 -80 -92q-46 -47 -56 -88q-5 -19 -4 -37q0 -20 6 -39l127 -211q31 -49 31 -98q0 -119 -84 -220.5t-222 -176t-316.5 -116.5t-364.5 -42q-211 0 -379 88l-147 246zM37 500q0 -106 14 -107q12 6 60.5 18.5t101.5 25t98 21.5 t54 9q14 0 14 -39v-78q0 -135 -5 -240.5t-5 -144.5v-18l-273 100q-20 -33 -31.5 -93t-21.5 -122q88 -45 270 -45q168 0 329 35t286 96.5t200.5 145t75.5 182.5q0 33 -28.5 71.5t-79.5 77.5q-25 20 -54.5 40t-64.5 38q-72 37 -101.5 53.5t7.5 40.5q47 31 111.5 83t124 108.5 t100.5 112t41 92.5q0 68 -30 122t-85 91.5t-132 57t-171 19.5q-33 0 -91.5 -11t-128 -27.5t-142 -38t-132 -42t-98.5 -39t-41 -28.5l24 -119l183 60q12 0 12 -56q0 -78 -10 -169t-31 -201l-324 12q-26 0 -26 -87v-7zM549 70q0 111 5 174t18.5 94t35 38t54.5 7 q47 0 104 -15.5t108.5 -39t85 -53t33.5 -60.5q0 -29 -22.5 -61.5t-58 -66.5t-81 -63.5t-88.5 -53t-80.5 -38t-60.5 -14.5q-53 0 -53 152zM559 682q0 100 11.5 184t35 143.5t57 92.5t78.5 33q37 0 79 -19.5t79 -48.5t60.5 -62.5t23.5 -62.5q0 -57 -45 -123.5t-109.5 -124 t-136 -95.5t-123.5 -38h-4q-6 43 -6 121z" />
<glyph unicode="C" horiz-adv-x="1536" d="M-104 498v37q0 29 2 32q16 178 64 318.5t122 239t173 152.5t216 60q4 2 41 2h84q102 0 195 -24q70 -16 120 -40t84.5 -48.5t57 -48t37.5 -39.5l249 186q29 -6 62 -33q18 -12 37.5 -27.5t40.5 -35.5q20 -16 81.5 -109.5t166.5 -261.5q6 -6 10 -18l-496 -430 q-117 106 -185.5 165.5t-112.5 88t-75.5 35t-72.5 6.5q-94 0 -170 -63.5t-127 -207.5q-16 -41 -22.5 -85t-6.5 -89q5 -127 59 -172q46 -38 110 -38q11 0 24 1q29 0 64.5 29t69 66.5t59.5 74.5t36 53q16 29 44 76t60 107q43 -6 91.5 -19.5t91.5 -36.5q43 -20 77 -55 q16 -16 66.5 -99t132.5 -233q-16 -127 -89 -233.5t-176.5 -185t-225 -122.5t-234.5 -44q-88 0 -167 26.5t-147.5 72.5t-126 109.5t-100.5 137.5l-96 162q-98 123 -148 270t-50 291zM-2 498q0 -121 41 -248t116.5 -231.5t182 -171t240.5 -66.5q98 0 202.5 36t193.5 100.5 t151.5 152.5t76.5 190q-16 41 -61 60.5t-86 25.5q-14 -25 -51 -89t-89.5 -133t-117 -122t-133.5 -53q-86 0 -166 33.5t-141.5 103.5t-98.5 177.5t-37 252.5q0 96 23.5 177t60.5 143.5t82 107.5t88 70q43 27 86 35t82 8q57 0 100 -8.5t89.5 -36t106.5 -78.5t153 -137l378 327 q-4 10 -17 24.5t-29.5 28t-33 24.5t-26.5 13l-297 -221q-2 27 -35 69t-95.5 81t-156.5 66.5t-221 27.5h-39h-31q-29 0 -78 -11.5t-114 -47.5q-129 -76 -214 -248t-85 -432z" />
<glyph unicode="D" horiz-adv-x="1503" d="M-66 -211l84 383q94 6 166 6q117 0 138 39q20 33 26 197q6 156 6 377l-233 6l-162 250q27 133 45.5 218t38.5 133t45 66.5t64 18.5h28q29 0 66 -5t71 -5h5q352 -12 574 -68.5t343 -175.5q80 -78 184 -271q106 -195 129 -319q25 -127 25 -287v-12q-2 -193 -65.5 -343.5 t-185.5 -253.5t-299 -157.5t-406 -54.5h-525zM61 -111l406 -6h32q191 0 335 45q156 49 266 142q111 94 168 226t57 325v17q0 184 -42 316q-44 138 -158.5 227t-310.5 134t-497 55q-18 0 -39.5 2t-42 3t-35 3t-20.5 2h-28q-8 0 -14.5 -9t-12.5 -33.5t-15.5 -67.5t-23.5 -111 l320 25h1q50 0 50 -393q0 -242 -6.5 -409t-20.5 -271q-4 -16 -328 -37zM594 104q10 59 16 254t6 541q0 219 -8 234q109 0 208 -43t174 -115t120 -168t45 -201v-8q-2 -80 -56.5 -164t-136 -154.5t-180 -118.5t-188.5 -57zM864 326q78 59 131 131q53 74 55 131q0 5 1 10 q0 50 -23 78q-20 33 -70 55q-34 17 -56 17q-6 0 -12 -2q-24 -8 -24 -37v-66v-170v-76v-37v-18t-2 -16z" />
<glyph unicode="E" horiz-adv-x="1492" d="M-27 399q0 205 62.5 385.5t173.5 321.5q106 137 252 221q143 82 276 82q123 0 207 -23q143 -45 221 -149q16 -23 48 -75t77 -130t72 -135t35 -94q2 -6 2 -13q0 -78 -176 -282q106 -47 200 -139l148 -246v-47q0 -70 -36 -148t-95.5 -153.5t-139 -146t-168 -125t-180.5 -87 t-176 -34.5h-22q-166 0 -294 74.5t-208 209.5l-102 172q-86 104 -131.5 245.5t-45.5 315.5zM76 399q0 -147 37 -269t104 -210q33 -41 73 -75.5t91 -61.5q98 -48 202 -48h5q106 1 188 29q100 35 198.5 99.5t175.5 143.5t124 164t47 161v4q-109 94 -197 110 q-14 -205 -101 -311t-235 -106q-72 0 -142.5 27.5t-127.5 73.5t-94 104.5t-39 121.5l782 607q-8 55 -25.5 116.5t-60.5 111.5t-119.5 83t-203.5 33q-129 0 -256 -74t-221 -199t-149.5 -289.5t-55.5 -345.5zM324 518q-5 9 -5 46t5 102q4 66 15 117t32 89q39 78 115.5 145.5 t193.5 86.5q40 7 74 7q57 0 92 -21q51 -33 98 -113l-573 -475q-39 -2 -47 16zM739 135q10 -2 16.5 -3t8.5 -1h24q135 0 201 197z" />
<glyph unicode="F" horiz-adv-x="1439" d="M-156 899q33 104 95.5 234.5t160.5 248.5q147 174 255 254t155 84q49 -8 113 -53q55 -39 239 -309q27 -6 53.5 -12.5t55.5 -14.5q12 -4 22 -4q36 0 47 45q7 23 7 45q0 30 -13 58q49 170 266 245q10 -20 18.5 -38.5t18.5 -36.5l115 -189q49 -80 79 -154.5t48 -144.5 t26.5 -132t12.5 -118q0 -143 -43 -293q-76 -6 -133 -6q-103 0 -144 19q88 -178 93 -486q-74 -18 -116 -24t-73 -6q-82 0 -124 19.5t-58 53.5l-6 13l6 -13l-88 148q-25 2 -49.5 4t-48.5 2q-6 -27 -10.5 -61.5t-8.5 -81.5q29 0 31 2h110q2 -18 7 -29l141 -234q8 -35 12 -55 q2 -10 4 -42q4 -65 4 -93q0 -112 -104 -199q-47 2 -111.5 4t-109.5 2h-164q-55 0 -124 -1t-137.5 -3t-129 -5t-99.5 -5l-151 252q-4 0 -5 -1t-5 -1l69 397l221 9q-8 47 -11 94t-3 94q0 43 4 94t12 107q-35 4 -100 19t-170 46l-147 248q6 0 -15 4zM-27 969q66 -18 108 -26.5 t62 -8.5h7q29 76 54 122t53 69.5t59.5 30.5t74.5 7q53 0 125 -22q-25 -78 -51.5 -178.5t-50 -204t-38 -202.5t-14.5 -175q0 -158 37 -287l-260 -10l-33 -188q78 4 171.5 6t203.5 2h164q45 0 91 -1t93 -3q47 41 48 145v23q0 25 -3 26q-29 -2 -55 -3t-53 -1h-31q-43 0 -75.5 5 t-54 26.5t-33 68t-11.5 127.5v39q12 262 49 336q156 0 344 -30q-8 -23 -8 -80v-41q0 -33 16.5 -55.5t86.5 -22.5q23 0 44 2t46 8q-2 215 -58 324l-448 32q0 94 80 267q41 -10 104.5 -20.5t143 -31t173 -54.5t195.5 -93q39 123 39 266q0 104 -27.5 210t-89.5 222 q-90 -31 -110 -110q47 -106 47 -203q0 -55 -12 -117q-459 145 -748 146h-35q72 127 213 250q-47 47 -102 57q-20 0 -107.5 -71.5t-210.5 -221.5q-98 -123 -144 -214t-69 -142zM674 209q0 -4 2 -6zM821 -37l2 -4q0 2 -2 2v2z" />
<glyph unicode="G" horiz-adv-x="1742" d="M-29 -494q0 262 174 263h2q29 2 54.5 3t48.5 3q23 0 23 35q0 38 -27 118q-74 88 -115 208t-41 261q0 113 37 235t101.5 238.5t149.5 221t180 183.5t196.5 125t195.5 46q152 0 235 -40t128 -106l198 318q186 -37 281 -94l4 -25l143 -237l29 -138q-49 -70 -106.5 -155.5 t-118.5 -184.5q-31 -47 -61.5 -96t-61.5 -98q-26 -43 -26 -125q0 -108 44 -285q-39 -205 -58 -511t-19 -734q-164 12 -327 29.5t-315.5 34t-291 27.5t-250.5 11q-104 0 -153.5 8.5t-69.5 43.5l-136 227q-33 20 -40 64.5t-7 125.5zM78 -557.5q4 -22.5 18.5 -34.5t44 -15 t82.5 -3q109 0 240 -10.5t272.5 -24.5t287.5 -30.5t288 -29.5q0 750 73 1131q-4 10 -37.5 30.5t-83 44t-106.5 49t-108.5 46t-90 34t-49.5 13.5q-10 0 -27.5 -20.5t-36 -47t-32.5 -52t-16 -38.5q41 -2 85 -3t79.5 -6t59 -16t23.5 -34q0 -80 -29.5 -146.5t-81.5 -115.5 t-122 -77t-149 -28q-160 0 -250 92.5t-90 251.5q0 74 22.5 152t63.5 151.5t94 139t116.5 116t131 79t135.5 28.5q88 0 145 -18.5t98 -59.5t75 -106.5t75 -159.5q113 193 226.5 368t230.5 343q-78 49 -172 67l-267 -430q-16 57 -35.5 106.5t-56.5 86.5t-96 57t-158 20 q-84 0 -173 -41.5t-173 -112.5t-158.5 -165t-131 -199.5t-89 -215t-32.5 -212.5q0 -115 31.5 -214t89 -175t137 -119t176.5 -43q147 0 389 260q86 90 84 91q16 0 30.5 -26t24.5 -69t15.5 -101t5.5 -122q0 -236 -48 -235h-2q-291 16 -443.5 25t-182.5 9q-35 0 -348 -12h-7 q-71 0 -71 -156q0 -45 4 -67.5zM571 174q39 -12 91 -12q80 0 145 37l-115 192q-4 0 -5 1t-5 1q4 27 31 78q10 19 10 29q0 9 -10 9q-8 0 -23 -7q-53 -111 -84 -193t-35 -135zM999 713q45 -18 100.5 -46t114.5 -57q-27 59 -68.5 83t-107.5 24q-10 0 -19 -1t-20 -3z" />
<glyph unicode="H" horiz-adv-x="1536" d="M-63 1180q0 66 29.5 122t82.5 107l600 12q109 -37 139 -51q12 -5 25 -5q25 0 51 21q43 31 90 37q35 -4 92.5 -10t143.5 -8q47 -2 83 -4t62 -6q55 -10 86 -25q33 -14 260 -389q31 -141 31 -231h-313q33 -184 56.5 -363.5t43 -359t38.5 -360.5t44 -367q-590 -98 -1124 -99 q-29 0 -69 1t-82 2t-82 2t-68 1q-182 315 -193 357q-10 57 -10 67q0 25 4 49.5t16 49.5q10 101 10 148q0 17 -1 26q-4 14 -6.5 24.5t-4.5 18.5q-2 11 -3 31q-1 23 -1 56q0 64 105 222l131 -4q4 72 9 141.5t5 161.5v27q0 20 2 24v10q2 20 3 40t1 40t1 40t3 40l-116 4 l-150 250h-10q-6 43 -10 85t-4 65zM39 1180q0 -10 1 -23.5t3 -26.5l276 -10q14 -20 15 -157q0 -43 -3 -138.5t-8 -212t-10.5 -240.5t-11.5 -225l-176 5q-57 -88 -57 -158v-19q0 2 4 -18q57 14 135 20.5t176 6.5q184 0 342 -7q8 25 8 64q0 68 -39 131q-72 -6 -123 -6 q-100 0 -122 22v369q4 66 18 86.5t59 20.5l445 -11q27 -2 46 -42t34.5 -139t27 -267t23.5 -426q-166 -25 -333 -36t-341 -11q-66 0 -127 1q-30 0 -57.5 0.5t-51.5 -0.5q-48 -1 -79 -7.5t-37 -18.5q-8 -25 -18 -59q-3 -10 -2 -23q0 -28 14 -67q59 -2 117.5 -3t115.5 -1 q537 0 1016 79q-25 182 -43.5 366.5t-38.5 369t-45 368t-62 365.5h332q0 47 -25.5 97t-60.5 81q-4 4 -32.5 7t-70.5 7t-91 7.5t-94.5 6.5t-80 6t-46.5 5q-43 -6 -76 -51t-33 -94q0 -39 25 -60l122 -8q0 -4 7.5 -41t14.5 -83t14 -88t7 -56q0 -31 -10 -37h-434q-25 2 -48.5 3 t-43 8t-31.5 22.5t-12 46.5l8 233h72q158 0 168 12q8 8 8 60v31q-4 74 -84 102l-545 -12q-51 -45 -51 -127zM696 311l2 -4v-33q12 0 24.5 1t27.5 4q16 -29 29.5 -54.5t23.5 -50.5l96 -158q27 -43 49.5 -79.5t44.5 -69.5q-8 147 -12 252.5t-8 183.5z" />
<glyph unicode="I" horiz-adv-x="786" d="M-72 1313q0 39 13.5 81t38 75.5t58.5 55t75 21.5q80 0 137 -44t78 -109l78 -127q29 10 58.5 24.5t67.5 40.5q104 -47 259 -344q24 -41 24 -96q0 -22 -11 -91t-26.5 -163t-34 -202.5t-32.5 -209.5l153 -260q0 -2 -3 -24.5t-7 -63.5q-10 -86 -18 -123q-10 -57 -46 -98 t-122 -41l-539 66l-160 249q0 51 12.5 117t34 123t50 96t59.5 39q14 0 32.5 -3t45.5 -7q6 43 14 91t16 101l-147 246l-6 -2q-16 49 -24.5 78t-12.5 45t-6 23v55q0 47 18 96l-73 127q-53 47 -54 158zM31 1313q0 -94 75 -94q20 0 44 9t42.5 24.5t31 34.5t12.5 42q0 47 -35 81 t-88 34q-18 0 -32.5 -12.5t-26 -31t-17.5 -42t-6 -45.5zM72 23l454 -56q29 0 42.5 18.5t19.5 46t7 57.5t5 52l-68 11q-2 2 -30 2h-78q-8 8 -8 47q0 10 11 79.5t27.5 168t36 212t36 215t27.5 175t11 92.5q0 63 -20 71q-41 -29 -108.5 -47t-135.5 -47t-115 -76t-47 -106 q0 -63 2 -66l260 125q6 -4 7 -32q0 -12 -8.5 -70.5t-20.5 -140.5t-27.5 -177.5t-29 -180.5t-22.5 -147.5t-11 -82.5q-104 37 -164 37q-10 0 -20.5 -18.5t-17.5 -46t-11 -59.5t-4 -56z" />
<glyph unicode="J" horiz-adv-x="1230" d="M-78 139q0 129 33 220.5t88 147.5t127 82.5t152 26.5q190 0 227 -135l129 -213q27 -45 27 -106q0 -8 -23 -45t-52.5 -79t-58 -76t-41.5 -34q-41 0 -79 27q-48 -9 -48 -41v-6q6 -41 17 -41q61 0 124.5 14.5t116 40t86 59t33.5 74.5q0 227 -219 650l-147 -64l-158 248 l-76 389q41 6 105.5 19.5t136.5 31t142.5 35.5t125.5 35v2q14 8 35 10v2q10 4 31.5 8t46.5 9h6q2 0 3 1t3 1q53 0 106.5 -48.5t73.5 -119.5l111 -183q23 -45 38 -82.5t15 -91.5q0 -84 -229 -133q14 -35 33.5 -81t40.5 -93q10 -23 18 -41t17.5 -37.5t20.5 -42t27 -53.5 q31 -61 71 -145t73 -170t54.5 -162t21.5 -139q0 -143 -109 -289h-2q-233 -307 -557 -307q-143 0 -268 69v-2q-78 39 -129.5 80t-85.5 96l-121 201q-33 37 -54.5 82t-35 102.5t-18.5 130t-5 166.5zM25 139q0 -92 5 -160.5t19 -121t37 -90t57 -68.5q23 -20 55.5 -42t77.5 -44 q90 -47 289 -47t402 268q90 121 90 232q0 70 -31 163t-76 193t-94 199.5t-86 179.5q-61 141 -90 216t-31 91q260 33 260 55q0 31 -9 60.5t-23.5 53t-31 38t-30.5 14.5q-12 0 -34.5 -7t-51.5 -17q-51 -14 -115.5 -32t-126 -33t-111.5 -27.5t-75 -16.5l31 -162l131 58 q420 -684 420 -1037q0 -47 -24.5 -88t-66.5 -75.5t-97.5 -61.5t-114.5 -43q-94 -23 -187 -23q-102 0 -186 72t-84 201q0 272 192 272q10 0 31 -14t31 -14q6 0 18.5 19t25.5 44t23.5 47.5t10.5 26.5q0 96 -133 96q-59 0 -112.5 -20.5t-94.5 -65.5t-65.5 -116.5t-24.5 -172.5z " />
<glyph unicode="K" horiz-adv-x="1564" d="M-18 -139q0 238 139 303l268 -64q2 78 3 147.5t1 135.5q-14 23 -66.5 105t-146.5 225q-33 39 -57.5 96t-38.5 129q49 39 111.5 90t124 103.5t117 99.5t89.5 78q47 -35 84 -84l650 245l376 -911l-342 182l-6 -6q20 -20 33 -61q156 -256 313 -572q0 -10 -5 -64t-13 -126 t-18.5 -148.5t-20.5 -130.5q-289 -35 -590 -184q-88 106 -113 106q-8 0 -10 -10q-4 -23 -9 -44t-9 -44l-705 154zM84 -55l534 -117q16 78 25.5 169t9.5 198v45v22q0 20 -2 23q0 2 22.5 19.5t57.5 43t76 55t80 54t69.5 41t42.5 16.5q33 0 49.5 -14.5t16.5 -61.5 q0 -16 -10.5 -59t-25.5 -99.5t-32.5 -119t-33 -119.5t-25.5 -101t-10 -63q0 -4 1 -8t1 -8q178 90 413 116q8 39 15.5 81t13.5 78t9 60.5t3 26.5q-203 -72 -315 -170q164 350 168 508v6q0 145 -139 193l-420 -277q100 186 209.5 345t232.5 290l191 -102l-113 321l-338 -127 q29 -8 59.5 -19t65.5 -28q-117 -129 -203 -248.5t-145 -236.5q-2 428 -105 500q-70 -59 -153.5 -130t-183.5 -151q20 -111 53 -127l211 141q37 -190 37 -528q0 -92 -2 -193.5t-9 -218.5l-354 84q-47 -23 -47 -110zM649 1157q4 -8 7 -15t8 -16l67 -110q18 25 36.5 49t41.5 49 q-68 18 -160 43z" />
<glyph unicode="L" horiz-adv-x="1445" d="M-63 -293q12 94 19 164q5 54 5 102v27q0 31 -2 50.5t-4 36.5t-5 34.5t-5 42.5h280l17 520l-129 -12l-150 250h-14l188 417l795 17q0 -2 -1 -6t-1 -11l149 -245q0 -100 -4 -171t-14 -137l-279 -110q-20 -100 -29.5 -215t-11.5 -250q72 6 142.5 11t120.5 7q14 47 39.5 112 t60.5 151l260 -187l147 -258l-125 -559q-250 8 -374 18q-62 4 -116 6q-23 1 -45 0q-28 0 -54 -1q-129 -10 -303.5 -22.5t-397.5 -31.5l-149 252q-4 0 -5 -1t-5 -1zM55 -180q299 23 457 35t197 12q20 0 131.5 -6t316.5 -17l92 418l-102 74q-57 -121 -57 -197 q-63 -10 -124 -14t-137 -10q-76 -4 -159.5 -10.5t-161.5 -10.5q-8 57 -12 129t-4 158q0 416 57 639h4q6 0 48 6t91 13.5t87 13.5t34 4q4 35 8 83t8 111l-624 -12l-90 -201l223 19l-12 -996h-263q2 -2 3 -69q0 -59 -3.5 -98t-7.5 -74z" />
<glyph unicode="M" horiz-adv-x="1847" d="M-80 -84l254 338q37 -23 76 -44.5t78 -41.5q-35 143 -59.5 301t-24.5 317q0 571 340 572q143 0 230 -51.5t138 -167.5q72 117 158 172t219 55q111 0 185.5 -42t113.5 -146l113 -189q33 -63 53.5 -146t20.5 -216q0 -123 -19.5 -227.5t-46.5 -180.5l168 -258l-64 -414 q-90 -8 -163.5 -21t-152.5 -38t-171 -63.5t-217 -98.5q-175 72 -294 72q-68 0 -118 -23l-653 287l-147 248zM80 -43l506 -221q80 35 125 196q-238 154 -238 488q0 184 36 265t99 81q72 0 129.5 -48t69.5 -134l49 -314q-4 0 13.5 1t41 3t43 6.5t19.5 10.5q6 160 18.5 263 t34 162.5t55 82t80.5 22.5q59 0 88 -39t29 -131q0 -164 -25.5 -295t-67.5 -224t-98.5 -149.5t-117.5 -72.5l78 -197q102 49 176.5 81t139 52.5t124 30.5t131.5 17l31 200l-334 -71q27 72 66.5 172t95.5 235q27 61 57.5 180t30.5 273q0 109 -14.5 182.5t-44 117.5t-73.5 62.5 t-104 18.5q-74 0 -130 -25t-102 -76t-88 -130t-87 -185q-16 111 -41 188.5t-65 125.5t-96 70.5t-136 22.5q-238 0 -238 -469q0 -111 13.5 -222t35 -217.5t48 -206t53.5 -183.5q-33 16 -105 57t-188 107z" />
<glyph unicode="N" horiz-adv-x="1482" d="M-139 999l590 336l6 -28l75 -125q4 4 8.5 7t8.5 7v-2q139 121 387 121h12q289 -5 510 -486q29 -125 29 -221q0 -111 -22.5 -245t-69.5 -263l96 -157h-2l6 -9q16 -16 27.5 -41.5t18.5 -52t10 -52.5t3 -44q0 -29 -7 -82t-21 -139q-546 33 -758 33q-99 0 -125 -7 q-35 -12 -69.5 -24t-69.5 -27q-68 -27 -129.5 -55.5t-102.5 -52.5l-149 250q-6 -2 -10 -7l10 422l172 103q-10 92 -22.5 173t-24.5 150l-76 -28q-61 33 -121 129q-184 260 -190 417zM-35 940q4 -92 62 -125l196 78q117 -160 183 -793l-183 -106l-4 -178q31 18 81 38.5 t105.5 39t108.5 33t88 18.5l-70 805q70 111 153 174t187 63q195 0 195 -194q0 -53 -12.5 -122t-44 -172.5t-86 -252t-136.5 -361.5l504 -8q12 70 13 123q0 98 -43 147q-78 -29 -140.5 -50t-109.5 -31q111 211 168 414.5t57 383.5q0 82 -13.5 147.5t-47 109.5t-89 67.5 t-139.5 23.5h-12q-111 0 -191.5 -29.5t-138 -75.5t-93.5 -103.5t-56 -112.5l-74 287zM784 467l21 -242q90 235 90 338q0 16 -2 29q-37 -37 -64.5 -67.5t-44.5 -57.5zM1491 -57q0 -4 4 -9l4 -6z" />
<glyph unicode="O" horiz-adv-x="1310" d="M-59 362q0 184 60 358.5t161.5 308.5t236 216t281.5 82q166 0 296 -83t243 -245q45 -66 80.5 -128t60 -129.5t38 -144.5t13.5 -171q0 -195 -59.5 -365t-167 -296.5t-260 -200.5t-338.5 -74q-70 0 -123 11.5t-98.5 36t-87 64.5t-91.5 99q-53 63 -98 146t-78 172.5 t-51 178.5t-18 164zM43 362q0 -113 25.5 -208t75 -164.5t122 -108.5t166.5 -39q166 0 300 66.5t229.5 180.5t147.5 266.5t52 326.5q0 543 -481 543q-127 0 -242.5 -73t-204 -193.5t-139.5 -276.5t-51 -320zM166 387q0 70 22.5 147.5t61.5 154.5t91 145.5t110.5 122t122 84 t122.5 30.5t107.5 -33.5t82.5 -90t52 -133.5t18 -163q0 -88 -14 -125q-20 -84 -66.5 -169t-107.5 -155.5t-130 -114.5t-134 -44q-166 0 -252 92t-86 252zM434 227q0 -82 70 -82q55 0 117.5 49.5t114.5 124t86 161.5t34 163q0 27 -8 47.5t-33 20.5q-47 0 -111.5 -49.5 t-125 -122t-102.5 -157.5t-42 -155z" />
<glyph unicode="P" horiz-adv-x="1343" d="M-70 -340q4 53 11.5 111.5t16.5 114t21.5 105.5t26.5 87q6 0 27.5 -1t52.5 -2t69 -4t74 -8q16 135 42 292t48 294l-190 -12l-152 250h-10q35 141 52.5 226t37 130t52 58.5t98.5 13.5h14q4 0 9.5 -1t9.5 -1h26q233 0 412.5 -21.5t307.5 -65.5t208 -113t115 -161l118 -196 q57 -94 58 -228q0 -104 -60.5 -192t-164.5 -152q-102 -66 -232 -98q-66 -16 -118 -35.5t-93 -42.5l150 -248q-10 -55 -21.5 -111.5t-30 -111.5t-44 -107.5t-64.5 -99.5q-10 2 -64.5 9.5t-129 15.5t-161.5 18.5t-163 18.5t-131.5 13t-67.5 5zM41 -238q10 0 54 -4t105.5 -11 t131 -15t130 -15.5t104.5 -13.5t52 -8q35 43 51.5 106.5t28.5 126.5l-241 17q12 104 30.5 219t40.5 246q27 -6 80 -7q119 0 231.5 28t200.5 79t141.5 120.5t53.5 153.5q0 117 -59.5 198t-184.5 131t-320.5 73.5t-465.5 23.5q-25 0 -39 -7t-24.5 -28.5t-19.5 -64.5t-24 -113 l301 21q61 0 62 -103q0 -14 -9.5 -73.5t-23.5 -145.5t-30.5 -189.5t-32 -205.5t-27.5 -196.5t-16 -159.5q-29 10 -69 16t-77 9t-65.5 4t-34.5 1q-12 -31 -21.5 -92t-13.5 -121zM567 551q31 147 31 338q0 20 -1 34.5t-3 24.5q68 0 130 -11t108.5 -32.5t74 -50.5t27.5 -66 q0 -53 -75 -109t-197 -104q-57 -26 -89 -26h-2q-4 0 -4 2z" />
<glyph unicode="Q" horiz-adv-x="1454" d="M-166 451q0 190 59.5 357t158 292t227.5 196.5t268 71.5h18q63 -4 110.5 -9t82.5 -13.5t62.5 -17.5t53.5 -19v-2q119 -45 218 -150q41 -37 76.5 -101.5t76.5 -133.5l90 -150q27 -45 53.5 -94t48 -104.5t35 -118t13.5 -133.5q0 -80 -16.5 -151t-43.5 -132 q-29 -68 -55 -109q-4 -7 -4 -20q0 -80 160 -385l-219 -647l-519 223l-149 248l-10 4l18 133q-2 -2 -24 -2h-27h-35q-88 0 -153.5 21.5t-115.5 57.5t-87 84t-70 103l-100 168q-47 59 -84 130t-63.5 143.5t-40 139t-13.5 120.5zM-63 451q0 -49 14 -114t40.5 -133.5t64.5 -135 t85 -117.5q49 -51 105.5 -83t161.5 -32h34q45 0 74 3t52.5 8.5t47 12.5t60.5 17l252 -436q-51 -2 -103.5 -5t-107.5 -9l379 -164l174 512l-205 -221q-4 14 -24.5 60t-48 104.5t-56.5 117t-49 98.5q63 74 107 124.5t87 103.5q27 31 53.5 74t49 96t37 114.5t14.5 128.5 q0 80 -22.5 159t-56.5 146.5t-70.5 121t-67.5 83.5q-41 43 -80 75t-89 54.5t-118.5 35t-167.5 16.5h-16q-117 0 -227.5 -64.5t-195.5 -175.5t-136 -259.5t-51 -315.5zM84 416v28q4 80 17.5 142.5t40 118t66.5 105.5t97 105q156 150 348 150q72 0 141.5 -39t124 -99.5 t87 -131t32.5 -131.5q0 -287 -219 -512l-192 395q-92 -51 -138 -119l109 -342q-61 -20 -182 -27q-78 0 -139.5 28t-104.5 77t-65.5 113.5t-22.5 138.5zM334 176q27 -14 76 -14q14 0 27.5 1t25.5 3q-65 85 -97 85q-28 0 -32 -63v-12zM371 10l6 -10q-4 4 -6 10zM700 627 l121 -201l31 -64q70 119 70 203q0 13 -2 25q-12 90 -43 106q-29 16 -70 17q-16 0 -37.5 -3.5t-46.5 -7.5q-12 -2 -23 -75zM1329 782l6 -10q-4 4 -6 10z" />
<glyph unicode="R" horiz-adv-x="1431" d="M-72 -242l41 336l234 -10q4 47 16 179t31 362l-33 -29l-151 252l18 344q205 29 351.5 51.5t232.5 32.5q0 -4 -1 -7t-1 -7l77 -132q47 20 98.5 32t100.5 12q131 0 225 -64q96 -63 224 -311q127 -250 127 -310q0 -66 -29 -121t-76 -96t-108.5 -64.5t-124.5 -23.5 q-127 0 -176 80q-110 116 -157 116q-15 0 -24 -13q-16 -25 -33.5 -53.5t-33.5 -61.5l-27 -176l88 -4l146 -262q-70 -254 -134 -324q-86 4 -190 8t-206.5 7t-192.5 5t-152 2zM45 -141q242 -4 588 -19q14 18 49 135l-252 13l78 551q194 372 388 372h1q33 0 64.5 -13 t58.5 -35.5t43 -50.5t16 -58q0 -27 -18 -35q-35 31 -66 31q-35 0 -56 -32t-21 -75q0 -106 108 -106q45 0 89 16t78 44t54.5 65.5t20.5 82.5q-1 46 -19 95q-86 231 -307 231q-68 0 -136.5 -24.5t-125.5 -65.5t-99 -95.5t-57 -111.5q4 66 12.5 162t18.5 221 q-61 -8 -153.5 -21.5t-221.5 -31.5l-20 -260q-6 0 28.5 4t77.5 8t79 8t30 4q-74 -862 -113 -888l-201 8z" />
<glyph unicode="S" horiz-adv-x="1591" d="M-82 -158q0 10 4 38t8 58.5t8.5 56t4.5 32.5q6 37 13 73.5t22.5 69.5t39 60.5t64.5 48.5h194l-24 38q-61 72 -96 180.5t-35 219.5q0 109 31.5 211t87 181t133.5 126t170 47q113 0 231 -82v4q23 -12 55.5 -45t69.5 -67l19 -19q23 61 55.5 131t70 129.5t75.5 98t73 38.5 q53 0 131 -40q80 -41 340 -369q-92 -135 -181 -268.5t-149 -237.5q55 -66 92 -147l111 -185l-10 17q43 -86 74.5 -171t39.5 -196v-8q0 -39 -20.5 -83t-57 -89t-86 -89t-106.5 -85q-78 -55 -162 -98.5t-170 -67.5q-74 -27 -229 -27q-143 0 -338 324q-66 -6 -164 -20.5 t-229 -37.5q-158 252 -160 250zM37 -37q260 43 373 43q33 0 49 -6q0 -322 270 -322q63 0 137 20.5t147.5 56.5t141.5 81t120 94.5t84 98.5t32 92v6q-6 100 -37 190.5t-83 158t-123 107.5t-157 40l-190 -31q-66 -10 -117 -16.5t-90 -6.5q-238 0 -238 181q0 196 145 196h1 q74 0 182.5 -51t237.5 -143q94 -68 92 -68q10 41 45 107.5t84 148.5t108.5 171t118.5 175q-63 37 -106 59.5t-72 22.5q-10 0 -29.5 -32.5t-45 -83t-53.5 -108t-53.5 -107.5t-46 -82.5t-30.5 -32.5q-4 0 -28.5 24.5t-58.5 56t-68 63.5t-54 46q-96 68 -182 68 q-70 0 -128.5 -39t-101.5 -103.5t-66.5 -148.5t-23.5 -172q0 -68 15.5 -137.5t42 -125t64.5 -90t83 -34.5q25 0 58.5 9t68.5 22.5t71 27.5t64 25q143 49 228 49q198 0 198 -253q0 -146 -88 -233.5t-235 -87.5q-76 0 -123 11.5t-81 42t-61.5 87t-62.5 146.5h-359 q-16 -8 -27 -30.5t-18.5 -52.5t-12.5 -63.5t-11 -66.5zM707 2q51 -10 86 -10q68 0 119 27.5t77 78.5q-37 -6 -80 -21.5t-94 -33.5q-29 -12 -55.5 -21.5t-52.5 -19.5zM766 -170l6 -10q-2 4 -3 5t-3 5z" />
<glyph unicode="T" horiz-adv-x="1212" d="M-266 674l301 508q68 0 129 -18.5t129 -28.5q-12 18 -14.5 31.5t-3.5 39t-3 70.5t-14 127q55 33 111.5 54.5t123 36.5t147.5 27.5t189 28.5l-4 -14l150 -250q41 -117 190 -403q31 -53 31 -172q0 -184 -102 -201l-129 -16q31 -23 59.5 -66t50.5 -92l135 -225 q16 -41 28.5 -70t18.5 -49q29 -86 29 -135q0 -57 -28.5 -119t-75.5 -120t-108.5 -109.5t-128 -90.5t-133.5 -61.5t-122 -22.5q-72 0 -139.5 19.5t-126.5 54.5t-109.5 83t-85.5 108l-116 192q-53 68 -84 148.5t-31 173.5q0 47 22.5 136t53.5 187q-53 -4 -100.5 -7t-73.5 -5z M-78 791q61 4 115.5 7t101.5 3t86 -3t72 -7v-3q0 -6 -14.5 -48t-37 -106.5t-47 -141t-47 -150.5t-37 -135.5t-14.5 -93.5q0 -88 36 -165t96.5 -135.5t139.5 -92t165 -33.5q72 0 158.5 40t162.5 101t127 137t51 148q0 31 -8 77t-21.5 89t-29.5 76.5t-35 41.5l-207 -104 q78 -102 78 -191v-6q0 -35 -16.5 -68.5t-50 -59t-83 -41t-116.5 -15.5q-39 0 -75 21.5t-62.5 55.5t-44 74.5t-19.5 77.5v29q0 106 45 267t125 378l412 47q18 2 18 105q0 125 -14 125q-127 -37 -361 -68l117 401q-129 -27 -208 -44t-109 -33q4 -33 7 -62t3 -55q0 -35 -2 -71 t-8 -64.5t-19.5 -47t-34.5 -18.5q-16 0 -53 6t-75.5 14.5t-68.5 14.5t-32 6zM604 18q53 8 80 31t27 47v6q0 23 -9 37l-47 78q-16 -53 -29.5 -103.5t-21.5 -95.5zM711 395l184 92l-158 -18q-8 -18 -13 -36.5t-13 -37.5zM819 -37l10 -16q-4 4 -5 8t-5 8z" />
<glyph unicode="U" horiz-adv-x="1673" d="M8 305q0 92 21.5 176t54.5 161t73 145.5t79 130.5l-117 194q-8 4 -15 6l154 361l641 -230l397 92l56 -106l96 -158l186 -348q-18 -6 -49 -18q-16 -6 -41.5 -16.5t-64.5 -24.5q-37 -14 -56.5 -22.5t-23.5 -10.5q8 -41 14 -88t12 -100q13 -97 306 -662l22 -68l-74 -122 q-35 -6 -91 -26t-134 -48l-2 2q-74 -29 -117 -47.5t-57 -22.5t-26.5 -10t-26.5 -10q-27 -10 -48.5 -18.5t-23.5 -8.5l-96 162q-66 -68 -137.5 -101.5t-169.5 -37.5h-9q-68 0 -239 65l-2 2q-164 70 -240 197l-119 199q-41 47 -66.5 101t-41 108.5t-20.5 106.5t-5 95zM111 307 q0 -53 10 -119.5t41 -132.5t84 -123t170 -102q57 -25 102 -35t80 -10q37 0 66.5 8t60.5 21q92 39 166 141t153 283q8 -35 12.5 -72t8.5 -87t8 -119t12 -165q2 0 29 10.5t67 25.5t88 33.5t94 35t85 30t59 17.5q-14 43 -34.5 87t-47.5 77l-186 -72q-6 74 -16.5 198.5 t-24.5 260t-29.5 259.5t-31.5 195q18 8 35.5 15.5t41 16.5t54 21.5t78.5 30.5l-93 172l-501 -223l59 -149q27 14 61.5 29.5t85.5 35.5q16 -41 24.5 -94t8.5 -113q0 -123 -31.5 -258t-91 -246.5t-147.5 -184.5t-201 -73q-104 0 -160.5 82t-66.5 207v31q0 86 26.5 199.5 t81 239.5t135 257t189.5 254l-410 148l-75 -174q53 -23 107 -45.5t110 -45.5q-41 -80 -100.5 -167t-114 -183t-93 -202.5t-38.5 -225.5z" />
<glyph unicode="V" horiz-adv-x="1376" d="M-328 1022l666 571q2 -10 4 -18t4 -12l141 -236q82 -315 125 -371q16 -20 30 -20q28 0 50 80q49 180 98.5 332.5t86.5 250.5l491 -331q-4 -4 -4 -8l149 -250q-2 -4 -6 -12.5t-8 -18.5t-15 -35.5t-32 -71.5q-35 -88 -55 -108q-16 -23 -43 -43.5t-68 -36.5l-110 66 q-37 -160 -93.5 -474.5t-128.5 -791.5l-415 22l-160 250l-164 822l-102 -97q-115 0 -441 541zM-201 993q76 -159 122 -159h1l291 274l252 -1253l256 -15q86 557 147.5 886t96.5 427l176 -106q25 12 45 66t51 120l-309 211q-25 -66 -57.5 -169.5t-67.5 -223t-69 -247.5 t-60.5 -241.5t-43 -203t-16.5 -132.5q-33 27 -333 1182z" />
<glyph unicode="W" horiz-adv-x="1665" d="M-193 901l562 469q118 -110 288 -436q63 37 146 37q2 -6 6 -16.5t10 -26.5l31 -49q-10 72 -18.5 143.5t-16.5 144.5q10 35 51 85.5t93.5 96.5t106.5 78.5t93 32.5h68q37 -72 78 -125t95 -97t123.5 -82t164.5 -77l10 -32q132 -344 132 -441q0 -18 -5 -28 q-14 -29 -27.5 -54.5t-25.5 -50.5q-25 -47 -41.5 -81t-20.5 -42l-278 178q4 -76 8 -131t6 -90q4 -29 6 -57.5t6 -54.5q6 -43 15.5 -80t25.5 -92l2 -3q10 -35 27.5 -99t36.5 -130q-4 -10 -30 -38.5t-60.5 -65.5t-75.5 -77t-77 -74t-60.5 -56.5t-28.5 -22.5q-27 0 -57.5 20.5 t-64.5 56.5t-68.5 84t-67.5 103l-96 158q-88 -180 -191.5 -318.5t-226.5 -244.5l-303 395l-131 219l-29 37q59 86 110.5 199t81.5 223l-20 -14q-33 8 -79 57t-81 107l-123 200q-31 41 -53 85t-27 77zM-84 860q2 -16 12.5 -36.5t22.5 -40t25.5 -34t23.5 -16.5l250 158 q84 -90 84 -264q0 -74 -16.5 -163t-45 -178t-66.5 -172t-81 -145l197 -256q223 193 417 693q20 -86 62.5 -189.5t92.5 -194t100 -151.5t85 -61q2 0 19.5 16t42 40.5t53.5 54.5t54.5 56.5t43 47t19.5 26.5q-31 111 -50.5 174.5t-30.5 107.5t-18.5 83t-12.5 104.5t-12 171 t-20 279.5l349 -223q14 32 129 239q-104 43 -180 82t-132.5 82t-96.5 92t-73 115h-4q-27 0 -64.5 -22.5t-74.5 -54.5t-64.5 -65.5t-35.5 -58.5q31 -262 65.5 -499.5t91.5 -442.5q-35 20 -70.5 70.5t-70.5 116t-66.5 139t-58.5 139t-46.5 117t-29.5 71.5q-37 0 -64.5 -54 t-52 -135t-49 -176t-54.5 -177t-67.5 -137.5t-87.5 -57.5q141 438 142 713q0 270 -135 391zM6 545l4 -6z" />
<glyph unicode="X" horiz-adv-x="1488" d="M-127 174l303 309l135 -180l152 221l-12 25l-164 -201l-279 656l412 415l303 -522l389 496l487 -623l-172 -412l-215 177l-47 -62l439 -547q-78 -80 -132.5 -136t-95.5 -100t-71.5 -82t-61.5 -82t-65.5 -98.5t-81.5 -129.5l-305 534l-400 -569zM-2 158l250 -459l422 598 l280 -549q41 66 67.5 106t61.5 80.5t88.5 96t147.5 151.5l-146 146q-23 -37 -55.5 -72t-66 -67.5t-61.5 -60.5t-40 -50l-182 479l278 373l193 -160l98 236l-215 231l-409 -524l-312 538l-274 -276l51 -170l174 213l234 -502l-267 -387l-149 199z" />
<glyph unicode="Y" horiz-adv-x="1550" d="M-78 -8q0 33 18.5 63.5t47.5 59.5h75q76 0 171.5 -7.5t195.5 -19.5l-29 45q-55 66 -86.5 152t-31.5 174q0 39 3 74.5t11 68.5l-295 535q78 72 183.5 154.5t212 156.5t196.5 127t137 65l352 -147l86 -164q33 -8 73 -20.5t78 -25.5t71.5 -28.5t56.5 -31.5q31 -23 172 -283 q0 -135 -18.5 -275.5t-61.5 -299.5q-6 -33 -27.5 -104t-52 -167t-64.5 -207.5t-67 -224.5t-58.5 -218.5t-37.5 -186.5q-168 53 -276.5 83.5t-184.5 47t-133 21.5t-123 5q-49 0 -108.5 -9t-124.5 -9q-8 0 -19.5 7t-33 38t-60.5 92t-102 170q-18 33 -44 74t-48.5 81t-38 75.5 t-15.5 58.5zM25 0q0 -18 11 -60t27.5 -85t33 -75t26.5 -32q129 18 239 19q72 0 129.5 -4.5t125 -17.5t158.5 -38.5t229 -68.5q8 51 30.5 139t53 190.5t64.5 211t63.5 202.5t51 163.5t27.5 96.5q35 147 58.5 276.5t23.5 260.5q0 10 -25.5 20t-59.5 18.5t-68.5 13.5t-55.5 5 q-55 -160 -112.5 -298t-113.5 -240.5t-108.5 -161t-97.5 -58.5q-23 0 -42 14.5t-35.5 37t-25.5 49t-9 51.5q0 27 25.5 101.5t68.5 184t102.5 243.5t126.5 282l-221 94q-37 -10 -110.5 -54t-160.5 -104.5t-174 -129t-151 -128.5l100 -194q70 84 141.5 155.5t136 126t117 88 t81.5 39.5q-66 -133 -124.5 -254t-101.5 -230.5t-68.5 -206.5t-25.5 -183q0 -59 17.5 -117.5t49 -106t73.5 -77t91 -29.5q125 0 236 154.5t217 486.5q72 225 78 225q35 0 35 -37q0 -8 -10.5 -58t-28 -127t-41 -172t-50 -193.5t-54 -191.5t-53 -166t-47 -117t-38.5 -44 q-63 27 -161.5 49.5t-210 39t-224 25.5t-201.5 9h-34q-4 -4 -4 -12z" />
<glyph unicode="Z" horiz-adv-x="1613" d="M-72 -260q29 61 81 141t121 170t149.5 188.5t166.5 194.5l-329 80l-150 248l-14 4l280 584q80 -14 186.5 -30.5t225.5 -32t240 -30t228.5 -25.5t192.5 -17.5t132 -6.5l100 -86l148 -258q4 -33 6 -62.5t2 -56.5q0 -131 -80 -163q-98 -41 -199.5 -108.5t-218.5 -168.5 q33 -12 219 -285q-47 -211 -94 -359t-94 -236q-229 18 -364.5 30.5t-217.5 20.5t-133 11t-113 3h-307zM92 -158h154h80q29 0 53 -1t57 -3t77 -7t112.5 -11t164 -15.5t230.5 -21.5q55 100 129 430q-184 59 -199 59q-18 0 -29.5 -41t-22.5 -89t-23.5 -89t-30.5 -41 q-66 -2 -120 -3t-99 -1q-117 0 -171.5 7.5t-66.5 7.5l264 288q229 250 416.5 396.5t353.5 218.5q23 10 23 75q0 20 -2 46t-6 59q-47 0 -129 6t-184.5 16.5t-217 24.5t-226.5 28.5t-212 29t-174 26.5l-193 -399l174 -41q33 86 69 164.5t83 158.5q33 -14 94.5 -31.5t135 -36 t153.5 -36t147.5 -32.5t115.5 -25.5t61 -14.5q-53 -23 -141.5 -93.5t-193 -168.5t-215 -216t-209 -232.5t-174 -218t-108.5 -173.5zM526 520q47 53 94.5 102.5t94.5 96.5q-27 8 -48.5 14t-41.5 12q-25 -47 -48.5 -103t-50.5 -122z" />
<glyph unicode="[" horiz-adv-x="778" d="M-20 -205q0 123 3 270.5t7 310.5t7 338t3 351v532h410q78 0 133 2.5t71 18.5l144 -164q16 -31 18 -89t2 -136v-123q0 -16 -12 -28.5t-29 -12.5q-47 0 -87 10t-56 10h-102q-16 -31 -18.5 -79t-2.5 -125v-820h123l143 -163q16 -31 18.5 -123t2.5 -246h-512zM82 -205h430 v164q-23 0 -59.5 -3t-76.5 -7t-80 -7t-71 -3v327q0 100 3 206t7.5 211t7.5 207.5t3 194.5v267q47 0 128 -10.5t158 -10.5q0 61 -2 104.5t-18 59.5h-410v-430q0 -176 -3 -351t-7 -338t-7 -310.5t-3 -270.5z" />
<glyph unicode="\" horiz-adv-x="1024" d="M-123 1413q23 23 88.5 36t142 25.5t149.5 25.5t112 36l163 -164q61 -360 193.5 -752.5t318.5 -844.5l-102 -123h-348l-143 143q-84 207 -158 420t-143.5 420t-136 404.5t-136.5 373.5zM20 1352q61 -145 123 -321.5t123.5 -367t123 -386t122.5 -379.5h287 q-203 451 -324 827.5t-168 687.5q-109 -16 -174 -30.5t-113 -30.5z" />
<glyph unicode="]" horiz-adv-x="778" d="M-47 -31q0 41 3 65.5t3 47.5q0 -8 36 -15.5t84 -13.5t96 -9t71 -3q0 100 3 229t7 267.5t7 275.5t3 252h-123l-163 143q-16 31 -18.5 92.5t-2.5 153.5l21 143h512l102 -102l143 -164q0 -123 -3 -270.5t-7 -310t-7 -337.5t-3 -352q0 -61 3 -131.5t7 -141.5t7 -138.5 t3 -120.5q-47 0 -102 10t-103 10q-111 0 -205 -10t-204 -10l-143 143q-16 117 -21.5 185.5t-5.5 111.5zM41 -41q0 -78 2 -123t18 -61q23 0 60 3t79 7t86 7t83 3h102v430q0 176 3 351.5t7 338t7.5 310t3.5 270.5h-431v-184q23 0 60 6t79 14t86 14.5t83 6.5v-348 q0 -205 -10.5 -409t-10.5 -390v-266q-23 0 -59.5 3t-78.5 7t-86 7t-83 3z" />
<glyph unicode="^" horiz-adv-x="2895" d="M127 0v600h2v96h137v58h-37v180h37v63h-37v76h899v-94q-14 27 -49 27q-94 0 -94 -158q0 -156 98 -156q31 0 64 39v-35h49v377h766v-53h70v53h737v-1073h-2642zM129 754v180h39v-180h-39zM129 997v76h39v-76h-39zM186 160h123v86h-45v301h-78v-387zM289 823 q0 -131 94 -131q29 0 51 17q0 -47 -57 -47h-31v-62h43q113 12 113 145v252h-68v-186q0 -53 -41 -53q-39 0 -39 53v186h-65v-174zM340 160h76v73h26v-73h82v141l-53 246h-84l-47 -246v-141zM416 291v39l12 102h4l10 -102v-39h-26zM524 600h68v115q14 -25 49 -25q94 0 94 156 t-98 155q-29 0 -64 -40v36h-49v-397zM555 160h78v170h22v-170h84v155l-30 43v7l30 41v100l-22 41h-162v-387zM586 793v102q12 31 43 31q43 0 43 -78q0 -88 -45 -88q-29 0 -41 33zM633 393v84h22v-84h-22zM750 844q0 -156 110 -156q113 0 113 156q0 160 -113 160 q-111 0 -110 -160zM770 160h78v73h24v-73h78v141l-49 246h-84l-47 -246v-141zM817 844q0 84 43 84q45 0 45 -84q0 -82 -45 -82q-43 0 -43 82zM848 291v39l10 102h6l8 -102v-39h-24zM983 160h162l22 43v127l-16 28v7l16 28v113l-22 41h-162v-387zM1049 846q0 88 45 88 q27 0 39 -33v-104q-12 -29 -41 -29q-43 0 -43 78zM1063 233v97h22v-97h-22zM1063 393v84h22v-84h-22zM1200 160h80v387h-80v-387zM1214 774q2 -86 93 -86q45 0 70.5 26.5t25.5 82.5h-31q-6 -39 -51 -39q-41 0 -41 28q0 37 41 37h20v37h-20q-41 0 -41 35q0 33 41 33 q35 0 51 -41h31v110h-31v-47q-23 53 -67 54q-88 0 -88 -89q0 -55 45 -73q-47 -18 -48 -68zM1311 160h131v86h-53v80h53v67h-53v72h53v82h-131v-387zM1425 696h91v58h-29v133q0 41 29 41q12 0 24 -13l23 68q-16 14 -35 16q-43 0 -64 -49v47h-39v-301zM1530 160h80v159h49v68 h-49v78h49v82h-129v-387zM1544 696h144v58h-39v125q0 47 39 47q31 0 30 -47v-183h105v58h-39v125q0 45 39 45q31 0 30 -45v-183h68v193q0 111 -96 110q-49 0 -64 -49q-18 49 -57 49q-35 0 -55 -49v47h-66v-243h-39v-58zM1692 203l20 -43h137l25 43v303l-23 41h-139l-20 -41 v-303zM1769 233v244h23v-244h-23zM1905 160h65v250h6l19 -250h119v387h-66v-250h-6l-23 250h-114v-387zM1931 934h31v-238h70v301h-101v-63zM2048 844q0 -154 104 -154q74 0 93 119h-33q-6 -47 -51 -47q-47 0 -47 82q0 84 47 84t51 -56h33v121h-33v-43q-25 53 -62 54 q-102 0 -102 -160zM2136 465h43v-305h80v305h43v82h-166v-82zM2324 203l23 -43h133l23 43v147l-27 43l-72 17v67h21v-49h78v78l-21 41h-135l-23 -41v-135l25 -41l76 -19v-78h-21v58h-80v-88z" />
<glyph unicode="_" horiz-adv-x="641" d="M0 -229h641v-138h-641v138z" />
<glyph unicode="`" horiz-adv-x="1269" d="M143 1597q78 78 111 159t33 190q92 -53 177 -93.5t164 -73t151.5 -61t142.5 -59.5l143 -164q-61 -78 -92 -133t-31 -72l-143 -41q-154 92 -492 185zM328 1638q53 -8 97 -23.5t86 -35.5t87 -46.5t98 -57.5q16 57 30.5 87.5t31.5 55.5q-53 23 -101.5 43t-94.5 39.5t-93 39 t-100 42.5q0 -16 -12.5 -49t-28.5 -95z" />
<glyph unicode="a" d="M-4 80q0 145 22 207q37 80 106 154.5t157 129.5l-58 99q-23 27 -44 62.5t-36.5 71.5t-24.5 67.5t-9 50.5q0 90 50 174t128 148.5t172 103t182 38.5q168 0 289 -83q123 -82 291 -408q79 -130 79 -318v-14q-2 -25 -2 -47v-43v-67v-80q2 -43 4.5 -93.5t6.5 -101.5 q143 -12 204 -76l175 -336q-14 -109 -27.5 -168t-39.5 -88.5t-71 -36t-120 -6.5h-17q-346 4 -428 125l-43 70q-182 -166 -410 -166q-213 0 -305 154q-231 324 -231 477zM98 27q0 -225 281 -226q147 0 271 81t231 255q61 103 69 103q12 0 13 -93q0 -123 -31 -321 q35 -49 328 -53h16q45 0 72.5 4t44 25.5t26 64.5t19.5 121q-41 43 -369 43q0 10 1 23.5t1 33.5q0 23 -1 57.5t-3 79.5q-2 47 -3 94.5t-5 94.5q-2 47 -4 118.5t-6 169.5v53q0 196 -27 261q-27 82 -82 143q-53 59 -130 92t-169 33q-72 0 -147.5 -29.5t-138 -81t-103.5 -117 t-41 -134.5q0 -16 6 -45t16.5 -57.5t22.5 -52.5t25 -30l172 51q6 307 127 308q74 0 135 -29t105 -78t68.5 -117.5t24.5 -148.5q0 -25 -7 -66t-18 -80.5t-25.5 -68.5t-28.5 -29q-66 41 -125.5 67.5t-133.5 31.5q-66 0 -147.5 -36t-155.5 -93q-70 -53 -125 -127 q-49 -72 -49 -295zM188 727q2 -10 9 -16zM285 180q0 86 92 137.5t246 51.5q16 0 40.5 -21t24.5 -39q0 -33 -32.5 -79t-76.5 -88t-90.5 -71.5t-72.5 -29.5q-131 0 -131 139zM664 700l6 -22q39 -4 67 -19q29 -12 51 17q23 29 5.5 48t-60.5 19t-69 -43zM1114 -166l2 -4 q-2 2 -2 4z" />
<glyph unicode="b" horiz-adv-x="1415" d="M-72 -225q10 59 15.5 83.5t5.5 28.5h2q4 31 11 63t18 64q12 37 12 151q0 64 -4 152q-53 47 -54 183q0 196 131 196h1l174 -6l-76 127l-6 -2l-54 250q2 16 48.5 45t116 60.5t154.5 64.5t167 60.5t149.5 44t102.5 16.5q193 0 321.5 -67.5t175.5 -196.5l123 -203 q47 -84 47 -182q0 -29 -21.5 -68t-57.5 -84q-35 -47 -80 -92q-46 -47 -56 -88q-5 -19 -4 -37q0 -20 6 -39l127 -211q31 -49 31 -98q0 -119 -84 -220.5t-222 -176t-316.5 -116.5t-364.5 -42q-211 0 -379 88l-147 246zM37 500q0 -106 14 -107q12 6 60.5 18.5t101.5 25t98 21.5 t54 9q14 0 14 -39v-78q0 -135 -5 -240.5t-5 -144.5v-18l-273 100q-20 -33 -31.5 -93t-21.5 -122q88 -45 270 -45q168 0 329 35t286 96.5t200.5 145t75.5 182.5q0 33 -28.5 71.5t-79.5 77.5q-25 20 -54.5 40t-64.5 38q-72 37 -101.5 53.5t7.5 40.5q47 31 111.5 83t124 108.5 t100.5 112t41 92.5q0 68 -30 122t-85 91.5t-132 57t-171 19.5q-33 0 -91.5 -11t-128 -27.5t-142 -38t-132 -42t-98.5 -39t-41 -28.5l24 -119l183 60q12 0 12 -56q0 -78 -10 -169t-31 -201l-324 12q-26 0 -26 -87v-7zM549 70q0 111 5 174t18.5 94t35 38t54.5 7 q47 0 104 -15.5t108.5 -39t85 -53t33.5 -60.5q0 -29 -22.5 -61.5t-58 -66.5t-81 -63.5t-88.5 -53t-80.5 -38t-60.5 -14.5q-53 0 -53 152zM559 682q0 100 11.5 184t35 143.5t57 92.5t78.5 33q37 0 79 -19.5t79 -48.5t60.5 -62.5t23.5 -62.5q0 -57 -45 -123.5t-109.5 -124 t-136 -95.5t-123.5 -38h-4q-6 43 -6 121z" />
<glyph unicode="c" horiz-adv-x="1536" d="M-104 498v37q0 29 2 32q16 178 64 318.5t122 239t173 152.5t216 60q4 2 41 2h84q102 0 195 -24q70 -16 120 -40t84.5 -48.5t57 -48t37.5 -39.5l249 186q29 -6 62 -33q18 -12 37.5 -27.5t40.5 -35.5q20 -16 81.5 -109.5t166.5 -261.5q6 -6 10 -18l-496 -430 q-117 106 -185.5 165.5t-112.5 88t-75.5 35t-72.5 6.5q-94 0 -170 -63.5t-127 -207.5q-16 -41 -22.5 -85t-6.5 -89q5 -127 59 -172q46 -38 110 -38q11 0 24 1q29 0 64.5 29t69 66.5t59.5 74.5t36 53q16 29 44 76t60 107q43 -6 91.5 -19.5t91.5 -36.5q43 -20 77 -55 q16 -16 66.5 -99t132.5 -233q-16 -127 -89 -233.5t-176.5 -185t-225 -122.5t-234.5 -44q-88 0 -167 26.5t-147.5 72.5t-126 109.5t-100.5 137.5l-96 162q-98 123 -148 270t-50 291zM-2 498q0 -121 41 -248t116.5 -231.5t182 -171t240.5 -66.5q98 0 202.5 36t193.5 100.5 t151.5 152.5t76.5 190q-16 41 -61 60.5t-86 25.5q-14 -25 -51 -89t-89.5 -133t-117 -122t-133.5 -53q-86 0 -166 33.5t-141.5 103.5t-98.5 177.5t-37 252.5q0 96 23.5 177t60.5 143.5t82 107.5t88 70q43 27 86 35t82 8q57 0 100 -8.5t89.5 -36t106.5 -78.5t153 -137l378 327 q-4 10 -17 24.5t-29.5 28t-33 24.5t-26.5 13l-297 -221q-2 27 -35 69t-95.5 81t-156.5 66.5t-221 27.5h-39h-31q-29 0 -78 -11.5t-114 -47.5q-129 -76 -214 -248t-85 -432z" />
<glyph unicode="d" horiz-adv-x="1503" d="M-66 -211l84 383q94 6 166 6q117 0 138 39q20 33 26 197q6 156 6 377l-233 6l-162 250q27 133 45.5 218t38.5 133t45 66.5t64 18.5h28q29 0 66 -5t71 -5h5q352 -12 574 -68.5t343 -175.5q80 -78 184 -271q106 -195 129 -319q25 -127 25 -287v-12q-2 -193 -65.5 -343.5 t-185.5 -253.5t-299 -157.5t-406 -54.5h-525zM61 -111l406 -6h32q191 0 335 45q156 49 266 142q111 94 168 226t57 325v17q0 184 -42 316q-44 138 -158.5 227t-310.5 134t-497 55q-18 0 -39.5 2t-42 3t-35 3t-20.5 2h-28q-8 0 -14.5 -9t-12.5 -33.5t-15.5 -67.5t-23.5 -111 l320 25h1q50 0 50 -393q0 -242 -6.5 -409t-20.5 -271q-4 -16 -328 -37zM594 104q10 59 16 254t6 541q0 219 -8 234q109 0 208 -43t174 -115t120 -168t45 -201v-8q-2 -80 -56.5 -164t-136 -154.5t-180 -118.5t-188.5 -57zM864 326q78 59 131 131q53 74 55 131q0 5 1 10 q0 50 -23 78q-20 33 -70 55q-34 17 -56 17q-6 0 -12 -2q-24 -8 -24 -37v-66v-170v-76v-37v-18t-2 -16z" />
<glyph unicode="e" horiz-adv-x="1492" d="M-27 399q0 205 62.5 385.5t173.5 321.5q106 137 252 221q143 82 276 82q123 0 207 -23q143 -45 221 -149q16 -23 48 -75t77 -130t72 -135t35 -94q2 -6 2 -13q0 -78 -176 -282q106 -47 200 -139l148 -246v-47q0 -70 -36 -148t-95.5 -153.5t-139 -146t-168 -125t-180.5 -87 t-176 -34.5h-22q-166 0 -294 74.5t-208 209.5l-102 172q-86 104 -131.5 245.5t-45.5 315.5zM76 399q0 -147 37 -269t104 -210q33 -41 73 -75.5t91 -61.5q98 -48 202 -48h5q106 1 188 29q100 35 198.5 99.5t175.5 143.5t124 164t47 161v4q-109 94 -197 110 q-14 -205 -101 -311t-235 -106q-72 0 -142.5 27.5t-127.5 73.5t-94 104.5t-39 121.5l782 607q-8 55 -25.5 116.5t-60.5 111.5t-119.5 83t-203.5 33q-129 0 -256 -74t-221 -199t-149.5 -289.5t-55.5 -345.5zM324 518q-5 9 -5 46t5 102q4 66 15 117t32 89q39 78 115.5 145.5 t193.5 86.5q40 7 74 7q57 0 92 -21q51 -33 98 -113l-573 -475q-39 -2 -47 16zM739 135q10 -2 16.5 -3t8.5 -1h24q135 0 201 197z" />
<glyph unicode="f" horiz-adv-x="1439" d="M-156 899q33 104 95.5 234.5t160.5 248.5q147 174 255 254t155 84q49 -8 113 -53q55 -39 239 -309q27 -6 53.5 -12.5t55.5 -14.5q12 -4 22 -4q36 0 47 45q7 23 7 45q0 30 -13 58q49 170 266 245q10 -20 18.5 -38.5t18.5 -36.5l115 -189q49 -80 79 -154.5t48 -144.5 t26.5 -132t12.5 -118q0 -143 -43 -293q-76 -6 -133 -6q-103 0 -144 19q88 -178 93 -486q-74 -18 -116 -24t-73 -6q-82 0 -124 19.5t-58 53.5l-6 13l6 -13l-88 148q-25 2 -49.5 4t-48.5 2q-6 -27 -10.5 -61.5t-8.5 -81.5q29 0 31 2h110q2 -18 7 -29l141 -234q8 -35 12 -55 q2 -10 4 -42q4 -65 4 -93q0 -113 -104 -199q-47 2 -111.5 4t-109.5 2h-164q-55 0 -124 -1t-137.5 -3t-129 -5t-99.5 -5l-151 252q-4 0 -5 -1t-5 -1l69 397l221 9q-8 47 -11 94t-3 94q0 43 4 94t12 107q-35 4 -100 19t-170 46l-147 248q6 0 -15 4zM-27 969q66 -18 108 -26.5 t62 -8.5h7q29 76 54 122t53 69.5t59.5 30.5t74.5 7q53 0 125 -22q-25 -78 -51.5 -178.5t-50 -204t-38 -202.5t-14.5 -175q0 -158 37 -287l-260 -10l-33 -188q78 4 171.5 6t203.5 2h164q45 0 91 -1t93 -3q47 41 48 145v23q0 25 -3 26q-29 -2 -55 -3t-53 -1h-31q-43 0 -75.5 5 t-54 26.5t-33 68t-11.5 127.5v39q12 262 49 336q156 0 344 -30q-8 -23 -8 -80v-41q0 -33 16.5 -55.5t86.5 -22.5q23 0 44 2t46 8q-2 215 -58 324l-448 32q0 94 80 267q41 -10 104.5 -20.5t143 -31t173 -54.5t195.5 -93q39 123 39 266q0 104 -27.5 210t-89.5 222 q-90 -31 -110 -110q47 -106 47 -203q0 -55 -12 -117q-459 145 -748 146h-35q72 127 213 250q-47 47 -102 57q-20 0 -107.5 -71.5t-210.5 -221.5q-98 -123 -144 -214t-69 -142zM674 209q0 -4 2 -6zM821 -37l2 -4q0 2 -2 2v2z" />
<glyph unicode="g" horiz-adv-x="1742" d="M-29 -494q0 262 174 263h2q29 2 54.5 3t48.5 3q23 0 23 35q0 38 -27 118q-74 88 -115 208t-41 261q0 113 37 235t101.5 238.5t149.5 221t180 183.5t196.5 125t195.5 46q152 0 235 -40t128 -106l198 318q186 -37 281 -94l4 -25l143 -237l29 -138q-49 -70 -106.5 -155.5 t-118.5 -184.5q-31 -47 -61.5 -96t-61.5 -98q-26 -43 -26 -125q0 -108 44 -285q-39 -205 -58 -511t-19 -734q-164 12 -327 29.5t-315.5 34t-291 27.5t-250.5 11q-104 0 -153.5 8.5t-69.5 43.5l-136 227q-33 20 -40 64.5t-7 125.5zM78 -557.5q4 -22.5 18.5 -34.5t44 -15 t82.5 -3q109 0 240 -10.5t272.5 -24.5t287.5 -30.5t288 -29.5q0 750 73 1131q-4 10 -37.5 30.5t-83 44t-106.5 49t-108.5 46t-90 34t-49.5 13.5q-10 0 -27.5 -20.5t-36 -47t-32.5 -52t-16 -38.5q41 -2 85 -3t79.5 -6t59 -16t23.5 -34q0 -80 -29.5 -146.5t-81.5 -115.5 t-122 -77t-149 -28q-160 0 -250 92.5t-90 251.5q0 74 22.5 152t63.5 151.5t94 139t116.5 116t131 79t135.5 28.5q88 0 145 -18.5t98 -59.5t75 -106.5t75 -159.5q113 193 226.5 368t230.5 343q-78 49 -172 67l-267 -430q-16 57 -35.5 106.5t-56.5 86.5t-96 57t-158 20 q-84 0 -173 -41.5t-173 -112.5t-158.5 -165t-131 -199.5t-89 -215t-32.5 -212.5q0 -115 31.5 -214t89 -175t137 -119t176.5 -43q147 0 389 260q86 90 84 91q16 0 30.5 -26t24.5 -69t15.5 -101t5.5 -122q0 -236 -48 -235h-2q-291 16 -443.5 25t-182.5 9q-35 0 -348 -12h-7 q-71 0 -71 -156q0 -45 4 -67.5zM571 174q39 -12 91 -12q80 0 145 37l-115 192q-4 0 -5 1t-5 1q4 27 31 78q10 19 10 29q0 9 -10 9q-8 0 -23 -7q-53 -111 -84 -193t-35 -135zM999 713q45 -18 100.5 -46t114.5 -57q-27 59 -68.5 83t-107.5 24q-10 0 -19 -1t-20 -3z" />
<glyph unicode="h" horiz-adv-x="1536" d="M-63 1180q0 66 29.5 122t82.5 107l600 12q109 -37 139 -51q12 -5 25 -5q25 0 51 21q43 31 90 37q35 -4 92.5 -10t143.5 -8q47 -2 83 -4t62 -6q55 -10 86 -25q33 -14 260 -389q31 -141 31 -231h-313q33 -184 56.5 -363.5t43 -359t38.5 -360.5t44 -367q-590 -98 -1124 -99 q-29 0 -69 1t-82 2t-82 2t-68 1q-182 315 -193 357q-10 57 -10 67q0 25 4 49.5t16 49.5q10 101 10 148q0 17 -1 26q-4 14 -6.5 24.5t-4.5 18.5q-2 11 -3 31q-1 23 -1 56q0 64 105 222l131 -4q4 72 9 141.5t5 161.5v27q0 20 2 24v10q2 20 3 40t1 40t1 40t3 40l-116 4 l-150 250h-10q-6 43 -10 85t-4 65zM39 1180q0 -10 1 -23.5t3 -26.5l276 -10q14 -20 15 -157q0 -43 -3 -138.5t-8 -212t-10.5 -240.5t-11.5 -225l-176 5q-57 -88 -57 -158v-19q0 2 4 -18q57 14 135 20.5t176 6.5q184 0 342 -7q8 25 8 64q0 68 -39 131q-72 -6 -123 -6 q-100 0 -122 22v369q4 66 18 86.5t59 20.5l445 -11q27 -2 46 -42t34.5 -139t27 -267t23.5 -426q-166 -25 -333 -36t-341 -11q-66 0 -127 1q-30 0 -57.5 0.5t-51.5 -0.5q-48 -1 -79 -7.5t-37 -18.5q-8 -25 -18 -59q-3 -10 -2 -23q0 -28 14 -67q59 -2 117.5 -3t115.5 -1 q537 0 1016 79q-25 182 -43.5 366.5t-38.5 369t-45 368t-62 365.5h332q0 47 -25.5 97t-60.5 81q-4 4 -32.5 7t-70.5 7t-91 7.5t-94.5 6.5t-80 6t-46.5 5q-43 -6 -76 -51t-33 -94q0 -39 25 -60l122 -8q0 -4 7.5 -41t14.5 -83t14 -88t7 -56q0 -31 -10 -37h-434q-25 2 -48.5 3 t-43 8t-31.5 22.5t-12 46.5l8 233h72q158 0 168 12q8 8 8 60v31q-4 74 -84 102l-545 -12q-51 -45 -51 -127zM696 311l2 -4v-33q12 0 24.5 1t27.5 4q16 -29 29.5 -54.5t23.5 -50.5l96 -158q27 -43 49.5 -79.5t44.5 -69.5q-8 147 -12 252.5t-8 183.5z" />
<glyph unicode="i" horiz-adv-x="786" d="M-72 1313q0 39 13.5 81t38 75.5t58.5 55t75 21.5q80 0 137 -44t78 -109l78 -127q29 10 58.5 24.5t67.5 40.5q104 -47 259 -344q24 -41 24 -96q0 -22 -11 -91t-26.5 -163t-34 -202.5t-32.5 -209.5l153 -260q0 -2 -3 -24.5t-7 -63.5q-10 -86 -18 -123q-10 -57 -46 -98 t-122 -41l-539 66l-160 249q0 51 12.5 117t34 123t50 96t59.5 39q14 0 32.5 -3t45.5 -7q6 43 14 91t16 101l-147 246l-6 -2q-16 49 -24.5 78t-12.5 45t-6 23v55q0 47 18 96l-73 127q-53 47 -54 158zM31 1313q0 -94 75 -94q20 0 44 9t42.5 24.5t31 34.5t12.5 42q0 47 -35 81 t-88 34q-18 0 -32.5 -12.5t-26 -31t-17.5 -42t-6 -45.5zM72 23l454 -56q29 0 42.5 18.5t19.5 46t7 57.5t5 52l-68 11q-2 2 -30 2h-78q-8 8 -8 47q0 10 11 79.5t27.5 168t36 212t36 215t27.5 175t11 92.5q0 63 -20 71q-41 -29 -108.5 -47t-135.5 -47t-115 -76t-47 -106 q0 -63 2 -66l260 125q6 -4 7 -32q0 -12 -8.5 -70.5t-20.5 -140.5t-27.5 -177.5t-29 -180.5t-22.5 -147.5t-11 -82.5q-104 37 -164 37q-10 0 -20.5 -18.5t-17.5 -46t-11 -59.5t-4 -56z" />
<glyph unicode="j" horiz-adv-x="1230" d="M-78 139q0 129 33 220.5t88 147.5t127 82.5t152 26.5q190 0 227 -135l129 -213q27 -45 27 -106q0 -8 -23 -45t-52.5 -79t-58 -76t-41.5 -34q-41 0 -79 27q-48 -9 -48 -41v-6q6 -41 17 -41q61 0 124.5 14.5t116 40t86 59t33.5 74.5q0 227 -219 650l-147 -64l-158 248 l-76 389q41 6 105.5 19.5t136.5 31t142.5 35.5t125.5 35v2q14 8 35 10v2q10 4 31.5 8t46.5 9h6q2 0 3 1t3 1q53 0 106.5 -48.5t73.5 -119.5l111 -183q23 -45 38 -82.5t15 -91.5q0 -84 -229 -133q14 -35 33.5 -81t40.5 -93q10 -23 18 -41t17.5 -37.5t20.5 -42t27 -53.5 q31 -61 71 -145t73 -170t54.5 -162t21.5 -139q0 -143 -109 -289h-2q-233 -307 -557 -307q-143 0 -268 69v-2q-78 39 -129.5 80t-85.5 96l-121 201q-33 37 -54.5 82t-35 102.5t-18.5 130t-5 166.5zM25 139q0 -92 5 -160.5t19 -121t37 -90t57 -68.5q23 -20 55.5 -42t77.5 -44 q90 -47 289 -47t402 268q90 121 90 232q0 70 -31 163t-76 193t-94 199.5t-86 179.5q-61 141 -90 216t-31 91q260 33 260 55q0 31 -9 60.5t-23.5 53t-31 38t-30.5 14.5q-12 0 -34.5 -7t-51.5 -17q-51 -14 -115.5 -32t-126 -33t-111.5 -27.5t-75 -16.5l31 -162l131 58 q420 -684 420 -1037q0 -47 -24.5 -88t-66.5 -75.5t-97.5 -61.5t-114.5 -43q-94 -23 -187 -23q-102 0 -186 72t-84 201q0 272 192 272q10 0 31 -14t31 -14q6 0 18.5 19t25.5 44t23.5 47.5t10.5 26.5q0 96 -133 96q-59 0 -112.5 -20.5t-94.5 -65.5t-65.5 -116.5t-24.5 -172.5z " />
<glyph unicode="k" horiz-adv-x="1564" d="M-18 -139q0 238 139 303l268 -64q2 78 3 147.5t1 135.5q-14 23 -66.5 105t-146.5 225q-33 39 -57.5 96t-38.5 129q49 39 111.5 90t124 103.5t117 99.5t89.5 78q47 -35 84 -84l650 245l376 -911l-342 182l-6 -6q20 -20 33 -61q156 -256 313 -572q0 -10 -5 -64t-13 -126 t-18.5 -148.5t-20.5 -130.5q-289 -35 -590 -184q-88 106 -113 106q-8 0 -10 -10q-4 -23 -9 -44t-9 -44l-705 154zM84 -55l534 -117q16 78 25.5 169t9.5 198v45v22q0 20 -2 23q0 2 22.5 19.5t57.5 43t76 55t80 54t69.5 41t42.5 16.5q33 0 49.5 -14.5t16.5 -61.5 q0 -16 -10.5 -59t-25.5 -99.5t-32.5 -119t-33 -119.5t-25.5 -101t-10 -63q0 -4 1 -8t1 -8q178 90 413 116q8 39 15.5 81t13.5 78t9 60.5t3 26.5q-203 -72 -315 -170q164 350 168 508v6q0 145 -139 193l-420 -277q100 186 209.5 345t232.5 290l191 -102l-113 321l-338 -127 q29 -8 59.5 -19t65.5 -28q-117 -129 -203 -248.5t-145 -236.5q-2 428 -105 500q-70 -59 -153.5 -130t-183.5 -151q20 -111 53 -127l211 141q37 -190 37 -528q0 -92 -2 -193.5t-9 -218.5l-354 84q-47 -23 -47 -110zM649 1157q4 -8 7 -15t8 -16l67 -110q18 25 36.5 49t41.5 49 q-68 18 -160 43z" />
<glyph unicode="l" horiz-adv-x="1445" d="M-63 -293q12 94 19 164q5 54 5 102v27q0 31 -2 50.5t-4 36.5t-5 34.5t-5 42.5h280l17 520l-129 -12l-150 250h-14l188 417l795 17q0 -2 -1 -6t-1 -11l149 -245q0 -100 -4 -171t-14 -137l-279 -110q-20 -100 -29.5 -215t-11.5 -250q72 6 142.5 11t120.5 7q14 47 39.5 112 t60.5 151l260 -187l147 -258l-125 -559q-250 8 -374 18q-62 4 -116 6q-23 1 -45 0q-28 0 -54 -1q-129 -10 -303.5 -22.5t-397.5 -31.5l-149 252q-4 0 -5 -1t-5 -1zM55 -180q299 23 457 35t197 12q20 0 131.5 -6t316.5 -17l92 418l-102 74q-57 -121 -57 -197 q-63 -10 -124 -14t-137 -10q-76 -4 -159.5 -10.5t-161.5 -10.5q-8 57 -12 129t-4 158q0 416 57 639h4q6 0 48 6t91 13.5t87 13.5t34 4q4 35 8 83t8 111l-624 -12l-90 -201l223 19l-12 -996h-263q2 -2 3 -69q0 -59 -3.5 -98t-7.5 -74z" />
<glyph unicode="m" horiz-adv-x="1847" d="M-80 -84l254 338q37 -23 76 -44.5t78 -41.5q-35 143 -59.5 301t-24.5 317q0 571 340 572q143 0 230 -51.5t138 -167.5q72 117 158 172t219 55q111 0 185.5 -42t113.5 -146l113 -189q33 -63 53.5 -146t20.5 -216q0 -123 -19.5 -227.5t-46.5 -180.5l168 -258l-64 -414 q-90 -8 -163.5 -21t-152.5 -38t-171 -63.5t-217 -98.5q-175 72 -294 72q-68 0 -118 -23l-653 287l-147 248zM80 -43l506 -221q80 35 125 196q-238 154 -238 488q0 184 36 265t99 81q72 0 129.5 -48t69.5 -134l49 -314q-4 0 13.5 1t41 3t43 6.5t19.5 10.5q6 160 18.5 263 t34 162.5t55 82t80.5 22.5q59 0 88 -39t29 -131q0 -164 -25.5 -295t-67.5 -224t-98.5 -149.5t-117.5 -72.5l78 -197q102 49 176.5 81t139 52.5t124 30.5t131.5 17l31 200l-334 -71q27 72 66.5 172t95.5 235q27 61 57.5 180t30.5 273q0 109 -14.5 182.5t-44 117.5t-73.5 62.5 t-104 18.5q-74 0 -130 -25t-102 -76t-88 -130t-87 -185q-16 111 -41 188.5t-65 125.5t-96 70.5t-136 22.5q-238 0 -238 -469q0 -111 13.5 -222t35 -217.5t48 -206t53.5 -183.5q-33 16 -105 57t-188 107z" />
<glyph unicode="n" horiz-adv-x="1482" d="M-139 999l590 336l6 -28l75 -125q4 4 8.5 7t8.5 7v-2q139 121 387 121h12q289 -5 510 -486q29 -125 29 -221q0 -111 -22.5 -245t-69.5 -263l96 -157h-2l6 -9q16 -16 27.5 -41.5t18.5 -52t10 -52.5t3 -44q0 -29 -7 -82t-21 -139q-546 33 -758 33q-99 0 -125 -7 q-35 -12 -69.5 -24t-69.5 -27q-68 -27 -129.5 -55.5t-102.5 -52.5l-149 250q-6 -2 -10 -7l10 422l172 103q-10 92 -22.5 173t-24.5 150l-76 -28q-61 33 -121 129q-184 260 -190 417zM-35 940q4 -92 62 -125l196 78q117 -160 183 -793l-183 -106l-4 -178q31 18 81 38.5 t105.5 39t108.5 33t88 18.5l-70 805q70 111 153 174t187 63q195 0 195 -194q0 -53 -12.5 -122t-44 -172.5t-86 -252t-136.5 -361.5l504 -8q12 70 13 123q0 98 -43 147q-78 -29 -140.5 -50t-109.5 -31q111 211 168 414.5t57 383.5q0 82 -13.5 147.5t-47 109.5t-89 67.5 t-139.5 23.5h-12q-111 0 -191.5 -29.5t-138 -75.5t-93.5 -103.5t-56 -112.5l-74 287zM784 467l21 -242q90 235 90 338q0 16 -2 29q-37 -37 -64.5 -67.5t-44.5 -57.5zM1491 -57q0 -4 4 -9l4 -6z" />
<glyph unicode="o" horiz-adv-x="1310" d="M1 720.5q60 174.5 161.5 308.5t235.5 216t282 82q403 0 639 -493q92 -154 92 -408q0 -195 -59.5 -365t-167 -296.5t-260 -200.5t-338.5 -74q-137 0 -232 57q-100 60 -342 433q-71 243 -71 378q0 188 60 362.5zM43 362q0 -113 25.5 -208t75 -164.5t122 -108.5t166.5 -39 q166 0 300 66.5t229.5 180.5t147.5 266.5t52 326.5q0 543 -481 543q-127 0 -242.5 -73t-204 -193.5t-139.5 -276.5t-51 -320zM166 387q0 70 22.5 147.5t61.5 154.5t91 145.5t110.5 122t122 84t122.5 30.5t107.5 -33.5t82.5 -90t52 -133.5t18 -163q0 -88 -14 -125 q-20 -84 -66.5 -169t-107.5 -155.5t-130 -114.5t-134 -44q-166 0 -252 92t-86 252zM438 196q16 -52 66 -51q49 0 101 37t99.5 95.5t84 130t53.5 143.5l2 6q6 18 8 42t2 52v17q0 12 -2 16q0 8 -9 17.5t-28 9.5q-18 0 -47 -10.5t-66 -36.5q-74 -53 -135 -136.5t-104 -181.5 q-30 -71 -30 -118q1 -18 5 -32z" />
<glyph unicode="p" horiz-adv-x="1343" d="M-70 -340q4 53 11.5 111.5t16.5 114t21.5 105.5t26.5 87q6 0 27.5 -1t52.5 -2t69 -4t74 -8q16 135 42 292t48 294l-190 -12l-152 250h-10q35 141 52.5 226t37 130t52 58.5t98.5 13.5h14q4 0 9.5 -1t9.5 -1h26q233 0 412.5 -21.5t307.5 -65.5t208 -113t115 -161l118 -196 q57 -94 58 -228q0 -104 -60.5 -192t-164.5 -152q-102 -66 -232 -98q-66 -16 -118 -35.5t-93 -42.5l150 -248q-10 -55 -21.5 -111.5t-30 -111.5t-44 -107.5t-64.5 -99.5q-10 2 -64.5 9.5t-129 15.5t-161.5 18.5t-163 18.5t-131.5 13t-67.5 5zM41 -238q10 0 54 -4t105.5 -11 t131 -15t130 -15.5t104.5 -13.5t52 -8q35 43 51.5 106.5t28.5 126.5l-241 17q12 104 30.5 219t40.5 246q27 -6 80 -7q119 0 231.5 28t200.5 79t141.5 120.5t53.5 153.5q0 117 -59.5 198t-184.5 131t-320.5 73.5t-465.5 23.5q-25 0 -39 -7t-24.5 -28.5t-19.5 -64.5t-24 -113 l301 21q61 0 62 -103q0 -14 -9.5 -73.5t-23.5 -145.5t-30.5 -189.5t-32 -205.5t-27.5 -196.5t-16 -159.5q-29 10 -69 16t-77 9t-65.5 4t-34.5 1q-12 -31 -21.5 -92t-13.5 -121zM567 551q31 147 31 338q0 20 -1 34.5t-3 24.5q68 0 130 -11t108.5 -32.5t74 -50.5t27.5 -66 q0 -53 -75 -109t-197 -104q-57 -26 -89 -26h-2q-4 0 -4 2z" />
<glyph unicode="q" horiz-adv-x="1454" d="M-166 451q0 190 59.5 357t158 292t227.5 196.5t268 71.5h18q63 -4 110.5 -9t82.5 -13.5t62.5 -17.5t53.5 -19v-2q119 -45 218 -150q41 -37 76.5 -101.5t76.5 -133.5l90 -150q27 -45 53.5 -94t48 -104.5t35 -118t13.5 -133.5q0 -80 -16.5 -151t-43.5 -132 q-29 -68 -55 -109q-4 -7 -4 -20q0 -80 160 -385l-219 -647l-519 223l-149 248l-10 4l18 133q-2 -2 -24 -2h-27h-35q-88 0 -153.5 21.5t-115.5 57.5t-87 84t-70 103l-100 168q-47 59 -84 130t-63.5 143.5t-40 139t-13.5 120.5zM-63 451q0 -49 14 -114t40.5 -133.5t64.5 -135 t85 -117.5q49 -51 105.5 -83t161.5 -32h34q45 0 74 3t52.5 8.5t47 12.5t60.5 17l252 -436q-51 -2 -103.5 -5t-107.5 -9l379 -164l174 512l-205 -221q-4 14 -24.5 60t-48 104.5t-56.5 117t-49 98.5q63 74 107 124.5t87 103.5q27 31 53.5 74t49 96t37 114.5t14.5 128.5 q0 80 -22.5 159t-56.5 146.5t-70.5 121t-67.5 83.5q-41 43 -80 75t-89 54.5t-118.5 35t-167.5 16.5h-16q-117 0 -227.5 -64.5t-195.5 -175.5t-136 -259.5t-51 -315.5zM84 416v28q4 80 17.5 142.5t40 118t66.5 105.5t97 105q156 150 348 150q72 0 141.5 -39t124 -99.5 t87 -131t32.5 -131.5q0 -287 -219 -512l-192 395q-92 -51 -138 -119l109 -342q-61 -20 -182 -27q-78 0 -139.5 28t-104.5 77t-65.5 113.5t-22.5 138.5zM334 176q27 -14 76 -14q14 0 27.5 1t25.5 3q-65 85 -97 85q-28 0 -32 -63v-12zM371 10l6 -10q-4 4 -6 10zM700 627 l121 -201l31 -64q70 119 70 203q0 13 -2 25q-12 90 -43 106q-29 16 -70 17q-16 0 -37.5 -3.5t-46.5 -7.5q-12 -2 -23 -75zM1329 782l6 -10q-4 4 -6 10z" />
<glyph unicode="r" horiz-adv-x="1431" d="M-72 -242l41 336l234 -10q4 47 16 179t31 362l-33 -29l-151 252l18 344q205 29 351.5 51.5t232.5 32.5q0 -4 -1 -7t-1 -7l77 -132q47 20 98.5 32t100.5 12q131 0 225 -64q96 -63 224 -311q127 -250 127 -310q0 -66 -29 -121t-76 -96t-108.5 -64.5t-124.5 -23.5 q-127 0 -176 80q-110 116 -157 116q-15 0 -24 -13q-16 -25 -33.5 -53.5t-33.5 -61.5l-27 -176l88 -4l146 -262q-70 -254 -134 -324q-86 4 -190 8t-206.5 7t-192.5 5t-152 2zM45 -141q242 -4 588 -19q14 18 49 135l-252 13l78 551q194 372 388 372h1q33 0 64.5 -13 t58.5 -35.5t43 -50.5t16 -58q0 -27 -18 -35q-35 31 -66 31q-35 0 -56 -32t-21 -75q0 -106 108 -106q45 0 89 16t78 44t54.5 65.5t20.5 82.5q-1 46 -19 95q-86 231 -307 231q-68 0 -136.5 -24.5t-125.5 -65.5t-99 -95.5t-57 -111.5q4 66 12.5 162t18.5 221 q-61 -8 -153.5 -21.5t-221.5 -31.5l-20 -260q-6 0 28.5 4t77.5 8t79 8t30 4q-74 -862 -113 -888l-201 8z" />
<glyph unicode="s" horiz-adv-x="1591" d="M-82 -158q0 10 4 38t8 58.5t8.5 56t4.5 32.5q6 37 13 73.5t22.5 69.5t39 60.5t64.5 48.5h194l-24 38q-61 72 -96 180.5t-35 219.5q0 109 31.5 211t87 181t133.5 126t170 47q113 0 231 -82v4q23 -12 55.5 -45t69.5 -67l19 -19q23 61 55.5 131t70 129.5t75.5 98t73 38.5 q53 0 131 -40q80 -41 340 -369q-92 -135 -181 -268.5t-149 -237.5q55 -66 92 -147l111 -185l-10 17q43 -86 74.5 -171t39.5 -196v-8q0 -39 -20.5 -83t-57 -89t-86 -89t-106.5 -85q-78 -55 -162 -98.5t-170 -67.5q-74 -27 -229 -27q-143 0 -338 324q-66 -6 -164 -20.5 t-229 -37.5q-158 252 -160 250zM37 -37q260 43 373 43q33 0 49 -6q0 -322 270 -322q63 0 137 20.5t147.5 56.5t141.5 81t120 94.5t84 98.5t32 92v6q-6 100 -37 190.5t-83 158t-123 107.5t-157 40l-190 -31q-66 -10 -117 -16.5t-90 -6.5q-238 0 -238 181q0 196 145 196h1 q74 0 182.5 -51t237.5 -143q94 -68 92 -68q10 41 45 107.5t84 148.5t108.5 171t118.5 175q-63 37 -106 59.5t-72 22.5q-10 0 -29.5 -32.5t-45 -83t-53.5 -108t-53.5 -107.5t-46 -82.5t-30.5 -32.5q-4 0 -28.5 24.5t-58.5 56t-68 63.5t-54 46q-96 68 -182 68 q-70 0 -128.5 -39t-101.5 -103.5t-66.5 -148.5t-23.5 -172q0 -68 15.5 -137.5t42 -125t64.5 -90t83 -34.5q25 0 58.5 9t68.5 22.5t71 27.5t64 25q143 49 228 49q198 0 198 -253q0 -146 -88 -233.5t-235 -87.5q-76 0 -123 11.5t-81 42t-61.5 87t-62.5 146.5h-359 q-16 -8 -27 -30.5t-18.5 -52.5t-12.5 -63.5t-11 -66.5zM707 2q51 -10 86 -10q68 0 119 27.5t77 78.5q-37 -6 -80 -21.5t-94 -33.5q-29 -12 -55.5 -21.5t-52.5 -19.5zM766 -170l6 -10q-2 4 -3 5t-3 5z" />
<glyph unicode="t" horiz-adv-x="1212" d="M-266 674l301 508q68 0 129 -18.5t129 -28.5q-12 18 -14.5 31.5t-3.5 39t-3 70.5t-14 127q55 33 111.5 54.5t123 36.5t147.5 27.5t189 28.5l-4 -14l150 -250q41 -117 190 -403q31 -53 31 -172q0 -184 -102 -201l-129 -16q31 -23 59.5 -66t50.5 -92l135 -225 q16 -41 28.5 -70t18.5 -49q29 -86 29 -135q0 -57 -28.5 -119t-75.5 -120t-108.5 -109.5t-128 -90.5t-133.5 -61.5t-122 -22.5q-72 0 -139.5 19.5t-126.5 54.5t-109.5 83t-85.5 108l-116 192q-53 68 -84 148.5t-31 173.5q0 47 22.5 136t53.5 187q-53 -4 -100.5 -7t-73.5 -5z M-78 791q61 4 115.5 7t101.5 3t86 -3t72 -7v-3q0 -6 -14.5 -48t-37 -106.5t-47 -141t-47 -150.5t-37 -135.5t-14.5 -93.5q0 -88 36 -165t96.5 -135.5t139.5 -92t165 -33.5q72 0 158.5 40t162.5 101t127 137t51 148q0 31 -8 77t-21.5 89t-29.5 76.5t-35 41.5l-207 -104 q78 -102 78 -191v-6q0 -35 -16.5 -68.5t-50 -59t-83 -41t-116.5 -15.5q-39 0 -75 21.5t-62.5 55.5t-44 74.5t-19.5 77.5v29q0 106 45 267t125 378l412 47q18 2 18 105q0 125 -14 125q-127 -37 -361 -68l117 401q-129 -27 -208 -44t-109 -33q4 -33 7 -62t3 -55q0 -35 -2 -71 t-8 -64.5t-19.5 -47t-34.5 -18.5q-16 0 -53 6t-75.5 14.5t-68.5 14.5t-32 6zM604 18q53 8 80 31t27 47v6q0 23 -9 37l-47 78q-16 -53 -29.5 -103.5t-21.5 -95.5zM711 395l184 92l-158 -18q-8 -18 -13 -36.5t-13 -37.5zM819 -37l10 -16q-4 4 -5 8t-5 8z" />
<glyph unicode="u" horiz-adv-x="1673" d="M8 305q0 92 21.5 176t54.5 161t73 145.5t79 130.5l-117 194q-8 4 -15 6l154 361l641 -230l397 92l56 -106l96 -158l186 -348q-18 -6 -49 -18q-16 -6 -41.5 -16.5t-64.5 -24.5q-37 -14 -56.5 -22.5t-23.5 -10.5q8 -41 14 -88t12 -100q13 -97 306 -662l22 -68l-74 -122 q-35 -6 -91 -26t-134 -48l-2 2q-74 -29 -117 -47.5t-57 -22.5t-26.5 -10t-26.5 -10q-27 -10 -48.5 -18.5t-23.5 -8.5l-96 162q-66 -68 -137.5 -101.5t-169.5 -37.5h-9q-68 0 -239 65l-2 2q-164 70 -240 197l-119 199q-41 47 -66.5 101t-41 108.5t-20.5 106.5t-5 95zM111 307 q0 -53 10 -119.5t41 -132.5t84 -123t170 -102q57 -25 102 -35t80 -10q37 0 66.5 8t60.5 21q92 39 166 141t153 283q8 -35 12.5 -72t8.5 -87t8 -119t12 -165q2 0 29 10.5t67 25.5t88 33.5t94 35t85 30t59 17.5q-14 43 -34.5 87t-47.5 77l-186 -72q-6 74 -16.5 198.5 t-24.5 260t-29.5 259.5t-31.5 195q18 8 35.5 15.5t41 16.5t54 21.5t78.5 30.5l-93 172l-501 -223l59 -149q27 14 61.5 29.5t85.5 35.5q16 -41 24.5 -94t8.5 -113q0 -123 -31.5 -258t-91 -246.5t-147.5 -184.5t-201 -73q-104 0 -160.5 82t-66.5 207v31q0 86 26.5 199.5 t81 239.5t135 257t189.5 254l-410 148l-75 -174q53 -23 107 -45.5t110 -45.5q-41 -80 -100.5 -167t-114 -183t-93 -202.5t-38.5 -225.5z" />
<glyph unicode="v" horiz-adv-x="1376" d="M-328 1022l666 571q2 -10 4 -18t4 -12l141 -236q82 -315 125 -371q16 -20 30 -20q28 0 50 80q49 180 98.5 332.5t86.5 250.5l491 -331q-4 -4 -4 -8l149 -250q-2 -4 -6 -12.5t-8 -18.5t-15 -35.5t-32 -71.5q-35 -88 -55 -108q-16 -23 -43 -43.5t-68 -36.5l-110 66 q-37 -160 -93.5 -474.5t-128.5 -791.5l-415 22l-160 250l-164 822l-102 -97q-115 0 -441 541zM-201 993q76 -159 122 -159h1l291 274l252 -1253l256 -15q86 557 147.5 886t96.5 427l176 -106q25 12 45 66t51 120l-309 211q-25 -66 -57.5 -169.5t-67.5 -223t-69 -247.5 t-60.5 -241.5t-43 -203t-16.5 -132.5q-33 27 -333 1182z" />
<glyph unicode="w" horiz-adv-x="1665" d="M-193 901l562 469q118 -110 288 -436q63 37 146 37q2 -6 6 -16.5t10 -26.5l31 -49q-10 72 -18.5 143.5t-16.5 144.5q10 35 51 85.5t93.5 96.5t106.5 78.5t93 32.5h68q37 -72 78 -125t95 -97t123.5 -82t164.5 -77l10 -32q132 -344 132 -441q0 -18 -5 -28 q-14 -29 -27.5 -54.5t-25.5 -50.5q-25 -47 -41.5 -81t-20.5 -42l-278 178q4 -76 8 -131t6 -90q4 -29 6 -57.5t6 -54.5q6 -43 15.5 -80t25.5 -92l2 -3q10 -35 27.5 -99t36.5 -130q-4 -10 -30 -38.5t-60.5 -65.5t-75.5 -77t-77 -74t-60.5 -56.5t-28.5 -22.5q-27 0 -57.5 20.5 t-64.5 56.5t-68.5 84t-67.5 103l-96 158q-88 -180 -191.5 -318.5t-226.5 -244.5l-303 395l-131 219l-29 37q59 86 110.5 199t81.5 223l-20 -14q-33 8 -79 57t-81 107l-123 200q-31 41 -53 85t-27 77zM-84 860q2 -16 12.5 -36.5t22.5 -40t25.5 -34t23.5 -16.5l250 158 q84 -90 84 -264q0 -74 -16.5 -163t-45 -178t-66.5 -172t-81 -145l197 -256q223 193 417 693q20 -86 62.5 -189.5t92.5 -194t100 -151.5t85 -61q2 0 19.5 16t42 40.5t53.5 54.5t54.5 56.5t43 47t19.5 26.5q-31 111 -50.5 174.5t-30.5 107.5t-18.5 83t-12.5 104.5t-12 171 t-20 279.5l349 -223q14 32 129 239q-104 43 -180 82t-132.5 82t-96.5 92t-73 115h-4q-27 0 -64.5 -22.5t-74.5 -54.5t-64.5 -65.5t-35.5 -58.5q31 -262 65.5 -499.5t91.5 -442.5q-35 20 -70.5 70.5t-70.5 116t-66.5 139t-58.5 139t-46.5 117t-29.5 71.5q-37 0 -64.5 -54 t-52 -135t-49 -176t-54.5 -177t-67.5 -137.5t-87.5 -57.5q141 438 142 713q0 270 -135 391zM6 545l4 -6z" />
<glyph unicode="x" horiz-adv-x="1488" d="M-127 174l303 309l135 -180l152 221l-12 25l-164 -201l-279 656l412 415l303 -522l389 496l487 -623l-172 -412l-215 177l-47 -62l439 -547q-78 -80 -132.5 -136t-95.5 -100t-71.5 -82t-61.5 -82t-65.5 -98.5t-81.5 -129.5l-305 534l-400 -569zM-2 158l250 -459l422 598 l280 -549q41 66 67.5 106t61.5 80.5t88.5 96t147.5 151.5l-146 146q-23 -37 -55.5 -72t-66 -67.5t-61.5 -60.5t-40 -50l-182 479l278 373l193 -160l98 236l-215 231l-409 -524l-312 538l-274 -276l51 -170l174 213l234 -502l-267 -387l-149 199z" />
<glyph unicode="y" horiz-adv-x="1550" d="M-78 -8q0 33 18.5 63.5t47.5 59.5h75q76 0 171.5 -7.5t195.5 -19.5l-29 45q-55 66 -86.5 152t-31.5 174q0 39 3 74.5t11 68.5l-295 535q78 72 183.5 154.5t212 156.5t196.5 127t137 65l352 -147l86 -164q33 -8 73 -20.5t78 -25.5t71.5 -28.5t56.5 -31.5q31 -23 172 -283 q0 -135 -18.5 -275.5t-61.5 -299.5q-6 -33 -27.5 -104t-52 -167t-64.5 -207.5t-67 -224.5t-58.5 -218.5t-37.5 -186.5q-168 53 -276.5 83.5t-184.5 47t-133 21.5t-123 5q-49 0 -108.5 -9t-124.5 -9q-8 0 -19.5 7t-33 38t-60.5 92t-102 170q-18 33 -44 74t-48.5 81t-38 75.5 t-15.5 58.5zM25 0q0 -18 11 -60t27.5 -85t33 -75t26.5 -32q129 18 239 19q72 0 129.5 -4.5t125 -17.5t158.5 -38.5t229 -68.5q8 51 30.5 139t53 190.5t64.5 211t63.5 202.5t51 163.5t27.5 96.5q35 147 58.5 276.5t23.5 260.5q0 10 -25.5 20t-59.5 18.5t-68.5 13.5t-55.5 5 q-55 -160 -112.5 -298t-113.5 -240.5t-108.5 -161t-97.5 -58.5q-23 0 -42 14.5t-35.5 37t-25.5 49t-9 51.5q0 27 25.5 101.5t68.5 184t102.5 243.5t126.5 282l-221 94q-37 -10 -110.5 -54t-160.5 -104.5t-174 -129t-151 -128.5l100 -194q70 84 141.5 155.5t136 126t117 88 t81.5 39.5q-66 -133 -124.5 -254t-101.5 -230.5t-68.5 -206.5t-25.5 -183q0 -59 17.5 -117.5t49 -106t73.5 -77t91 -29.5q125 0 236 154.5t217 486.5q72 225 78 225q35 0 35 -37q0 -8 -10.5 -58t-28 -127t-41 -172t-50 -193.5t-54 -191.5t-53 -166t-47 -117t-38.5 -44 q-63 27 -161.5 49.5t-210 39t-224 25.5t-201.5 9h-34q-4 -4 -4 -12z" />
<glyph unicode="z" horiz-adv-x="1613" d="M-72 -260q29 61 81 141t121 170t149.5 188.5t166.5 194.5l-329 80l-150 248l-14 4l280 584q80 -14 186.5 -30.5t225.5 -32t240 -30t228.5 -25.5t192.5 -17.5t132 -6.5l100 -86l148 -258q4 -33 6 -62.5t2 -56.5q0 -131 -80 -163q-98 -41 -199.5 -108.5t-218.5 -168.5 q33 -12 219 -285q-47 -211 -94 -359t-94 -236q-229 18 -364.5 30.5t-217.5 20.5t-133 11t-113 3h-307zM92 -158h154h80q29 0 53 -1t57 -3t77 -7t112.5 -11t164 -15.5t230.5 -21.5q55 100 129 430q-184 59 -199 59q-18 0 -29.5 -41t-22.5 -89t-23.5 -89t-30.5 -41 q-66 -2 -120 -3t-99 -1q-117 0 -171.5 7.5t-66.5 7.5l264 288q229 250 416.5 396.5t353.5 218.5q23 10 23 75q0 20 -2 46t-6 59q-47 0 -129 6t-184.5 16.5t-217 24.5t-226.5 28.5t-212 29t-174 26.5l-193 -399l174 -41q33 86 69 164.5t83 158.5q33 -14 94.5 -31.5t135 -36 t153.5 -36t147.5 -32.5t115.5 -25.5t61 -14.5q-53 -23 -141.5 -93.5t-193 -168.5t-215 -216t-209 -232.5t-174 -218t-108.5 -173.5zM526 520q47 53 94.5 102.5t94.5 96.5q-27 8 -48.5 14t-41.5 12q-25 -47 -48.5 -103t-50.5 -122z" />
<glyph unicode="{" horiz-adv-x="1126" d="M-41 369v471q96 0 150.5 34.5t84 91t44 128t32.5 145.5q18 76 48 147.5t86.5 128t145.5 90t228 33.5l226 -286l40 -246q-115 0 -180 -15.5t-98 -44t-41 -70.5t-8 -95v-205q0 -47 -31 -105.5t-92 -119.5q61 -61 92 -169t31 -282l20 -61h185l143 -164l-21 -348 q-260 0 -364 32q-53 16 -117.5 66.5t-127 115t-113 135t-72.5 130.5q-45 111 -45 319h-82zM61 492q80 0 128.5 -35t76 -92.5t40.5 -131t27.5 -150.5t36 -150.5t62.5 -131.5q20 -29 45 -53t61.5 -40.5t89 -26t130.5 -9.5v144q-119 0 -174.5 52t-78 133t-29.5 177t-26.5 185.5 t-67.5 158t-157 92.5q82 18 128 60.5t71 98.5t33 122t14 130.5t14.5 122.5t32.5 101q12 25 28.5 43.5t42 31.5t66.5 20.5t103 7.5v184q-117 0 -194 -36t-125 -95t-74.5 -134t-42 -154t-27.5 -154.5t-33 -135.5q-23 -68 -61.5 -98.5t-79.5 -30.5q-35 0 -60 19v-225z" />
<glyph unicode="|" horiz-adv-x="567" d="M47 -389q0 154 6 329t14.5 350t14.5 338t6 294v170q0 170 -41 362q41 4 106.5 14.5t163.5 30.5l222 -270q-8 -31 -15.5 -59.5t-13.5 -61.5t-9 -73t-3 -93v-1208q0 -143 41 -307l-328 20zM170 -266q18 0 56 -5t67 -16q-8 39 -15.5 83t-13.5 97.5t-9 120t-3 150.5v512 q0 86 3 182t7 191.5t7 184.5t3 159h-102q0 -84 3 -191.5t7 -218.5t7 -218.5t3 -191.5t-3 -205.5t-7 -244.5t-7 -229.5t-3 -159.5z" />
<glyph unicode="}" horiz-adv-x="1126" d="M-66 -168q0 27 1.5 61.5t5.5 45.5h284q23 84 34 180t26.5 188t43 173t81.5 134q-39 23 -62.5 63t-37 91t-18.5 106.5t-5 108.5q0 59 -12.5 83t-28.5 40h-123l-146 143q-12 61 -12 131q0 129 33 258q215 0 332 -47q51 -23 115.5 -76t122 -112.5t100.5 -112.5t53 -73 q31 -63 45 -134t27.5 -129.5t32 -96.5t55.5 -38q8 0 26.5 4t34.5 17l143 -164q-2 -100 -6 -213t-14 -238q-104 0 -161.5 -34.5t-88.5 -93t-43 -132.5t-26.5 -150.5t-40 -149.5t-81 -131t-150.5 -93t-249 -35q-125 0 -266 164q-25 125 -25 262zM102 -184v-144h41 q104 0 170 35t106 93.5t61.5 131t36.5 149.5t30.5 150.5t44.5 132t77 93.5t130 35q4 23 6 50t2 58q0 29 -2 57.5t-6 59.5q-59 0 -96 9t-61 25.5t-37 40t-23 52.5q-20 59 -29.5 133t-22 150.5t-35 149.5t-69.5 130t-124 92t-200 35v-182h41q78 0 121 -28t65.5 -74t30 -106.5 t11.5 -125t12 -129t31.5 -119.5t70.5 -96t129 -60q-98 -31 -139 -101.5t-55 -159.5t-17.5 -184t-27 -173t-84 -129t-189.5 -51z" />
<glyph unicode="~" horiz-adv-x="1331" d="M0 471q78 174 172 261t217 87q31 0 75 -16.5l92 -34.5t95 -34.5t86 -16.5q20 0 43 11t44.5 29.5t41 39t33.5 39.5q47 -59 106.5 -101.5t120.5 -58.5l144 -164q-61 -139 -138 -204.5t-169 -82.5q-53 0 -116 16.5t-120 35t-104.5 35t-69.5 16.5q-23 -23 -39 -51.5 t-25.5 -56t-13.5 -48t-4 -29.5zM143 532q31 0 64 -17t80 -64q31 123 123 122q39 0 74.5 -16t74.5 -34.5t82 -35t96 -16.5q31 0 70 8t76 25.5t64.5 44t35.5 65.5q-47 0 -77 28t-46 75q-16 -47 -46 -75t-77 -28q-31 0 -78 16.5t-99 35t-102 35t-89 16.5q-25 0 -60 -8.5 t-68.5 -30t-61 -57t-36.5 -89.5z" />
<glyph unicode="&#xa1;" horiz-adv-x="520" d="M0 98l33 836l110 4l-22 25q-43 23 -65.5 65.5t-22.5 83.5q0 37 25.5 77t60.5 73.5t71.5 55t59.5 21.5q39 0 82 -30.5t71 -71.5l117 -117q25 -25 41.5 -54.5t16.5 -55.5q0 -61 -41 -114.5t-101 -82.5l29 -27q23 -33 46.5 -112.5t41.5 -180t30.5 -210t12.5 -203.5 q0 -184 -66 -309q-270 35 -337 102l-127 127q-29 16 -47.5 46t-18.5 52zM113 76q0 -18 213 -47q20 39 20 204q0 88 -7 186.5t-19.5 185.5t-26.5 151.5t-29 85.5l-131 -6zM135 1112q0 -23 16.5 -45.5t47.5 -22.5q49 0 89 37t40 82q0 23 -27 48.5t-51 25.5q-12 0 -31.5 -12.5 t-38 -30.5t-32 -40t-13.5 -42z" />
<glyph unicode="&#xa2;" horiz-adv-x="1249" d="M-41 614v340q2 74 18.5 123t40 81t51 50.5t52.5 30.5q43 23 86 42t81 50t70 79t52 126h362l14 -172q197 -12 320 -53l143 -164q0 -111 -17.5 -201t-64.5 -168q-135 80 -286 82v-368q86 4 102 20l143 -164q27 -90 46.5 -179t35.5 -210h-307l21 -184q-61 -16 -99.5 -28.5 t-85.5 -12.5q-39 0 -81 5t-88 26.5t-96 67.5t-103 126q-59 0 -121 24.5t-115 65.5t-92 95.5t-53 115.5q-14 66 -21.5 154t-7.5 200zM61 614q0 -98 10.5 -194t30.5 -195q80 -10 172.5 -15t196.5 -5q0 -61 -10 -114.5t-10 -70.5q0 -18 35.5 -29t123.5 -11q23 0 37.5 3t28.5 17 q-10 29 -15.5 70t-5.5 110v25q41 0 112 5t175 15q0 90 -20 164q-51 -10 -123 -15t-164 -5v737q111 0 188.5 -15.5t139.5 -46.5q16 61 28.5 107.5t12.5 77.5q-109 16 -190 28.5t-159 12.5v160h-163v-160q-205 -16 -309.5 -80t-121.5 -186v-390zM223 797q0 76 7.5 125t35 81.5 t80.5 55t146 47.5v-737q-94 0 -147.5 3t-80 24.5t-33 66.5t-6.5 131q0 61 -1 111.5t-1 91.5z" />
<glyph unicode="&#xa3;" horiz-adv-x="1228" d="M-184 -143q78 141 138 250.5t107 220.5l-102 82q16 135 18 182q2 49 -5 124t-54 185h307q23 145 72 269t123 214.5t169 141.5t210 51q199 0 330 -66.5t202 -158.5q-53 -61 -87 -134t-56.5 -156t-41 -174t-40.5 -192q-53 96 -92 150.5t-64.5 81t-40 33t-18.5 6.5 q-12 0 -22.5 -9.5t-10.5 -23.5q0 -10 2 -12l82 -144v-348q0 -16 2 -30.5t19 -30.5h61l164 -185q0 -291 -62 -450q-53 0 -130.5 3t-166 7t-181.5 7t-177 3q-78 0 -192.5 -13t-298.5 -28zM20 0q117 10 193 15t115 5h327q111 0 170.5 -12t75.5 -28l21 61v225h-553 q10 47 24.5 118t36.5 169q68 -20 123 -21h143v287q-16 -16 -30.5 -18t-30.5 -2h-123q23 115 44.5 196.5t50 134t69.5 76t102 23.5q47 0 77 -17.5t46 -64.5q16 92 46 165.5t77 121.5q-78 16 -128 28.5t-97 12.5q-100 0 -181 -51.5t-142.5 -141.5t-103.5 -214t-65 -269h-246 q16 -16 18.5 -61.5t2.5 -123.5v-82q25 0 65.5 5.5t98.5 15.5q-23 -61 -46.5 -132t-50 -144.5t-58.5 -144.5t-71 -132z" />
<glyph unicode="&#xa9;" horiz-adv-x="1658" d="M-20 614q0 154 52 291t150.5 241.5t238.5 165t316 60.5q109 0 217.5 -38t209 -104.5t187.5 -154.5t150.5 -187.5t100 -207t36.5 -209.5q0 -154 -60 -291t-164.5 -241.5t-242 -165t-290.5 -60.5q-115 0 -225.5 38t-211 103.5t-185.5 153.5t-147.5 188.5t-97 208 t-34.5 209.5zM82 614q0 -131 48 -249.5t134 -208.5t207 -143.5t266 -53.5q131 0 247 53.5t202 143.5t136 208.5t50 249.5q0 145 -50 266t-136 207.5t-202 134.5t-247 48q-145 0 -266 -48t-207 -134.5t-134 -207.5t-48 -266zM143 614q0 131 44 240t123 187.5t187.5 122.5 t239.5 44q123 0 227.5 -44t181.5 -122.5t121 -187.5t44 -240q0 -123 -44 -228t-121 -182t-181.5 -120t-227.5 -43q-131 0 -239.5 43t-187.5 120t-123 182t-44 228zM348 614q0 -115 18.5 -196.5t66.5 -134t131 -76t214 -23.5q111 0 196 43t132 121q-31 31 -123 62 q-31 -47 -89 -75t-136 -28q-287 0 -287 287q0 174 62.5 261t203.5 87q78 0 136.5 -27.5t89.5 -74.5q61 0 83.5 12t38.5 29q-47 92 -136 138t-212 46q-205 0 -297 -107.5t-92 -343.5zM737 451l21 -41q92 0 184 122q39 -8 76 -22t67.5 -29.5t52 -29t29.5 -21.5v-20 q16 78 28.5 133t12.5 71q-16 -16 -56 -28.5t-87 -12.5q-47 45 -77 70t-48 37t-31.5 14t-27.5 2q-78 0 -111 -61.5t-33 -183.5z" />
<glyph unicode="&#xab;" horiz-adv-x="1269" d="M-20 430l12 240q264 178 540 436l164 -246q78 70 145.5 131.5t121.5 114.5q209 -272 249 -502q-84 -96 -127 -127q-20 -14 -40.5 -30.5t-40.5 -36.5q106 -68 245 -246q-27 -57 -40 -86t-21 -44.5t-13.5 -23.5t-14.5 -23.5t-26.5 -45t-48.5 -84.5q-27 20 -50 39.5 t-46 42.5l-42 42t-36 37q-39 43 -112 84q-53 -88 -88 -149.5t-56 -95.5q-186 154 -354 296t-321 277zM82 471q45 -37 75.5 -58.5t55.5 -37t46.5 -28.5t50 -35.5t66.5 -56.5t95 -91q27 43 47.5 79t34.5 64q-53 31 -101.5 65t-94.5 68.5t-93 68.5t-100 64q53 0 103 20.5 t96.5 49.5t88.5 60.5t80 54.5q-10 29 -25 69.5t-36 94.5q-61 -61 -107.5 -102.5t-88.5 -74t-87 -62.5t-106 -69v-143zM512 471q45 -37 75.5 -58.5t55.5 -37t46.5 -28.5t50 -35.5t66.5 -56.5t95 -91q8 23 18.5 39t21.5 31.5t22.5 33t19.5 39.5q-53 31 -101 65t-94.5 68.5 t-93.5 68.5t-100 64q53 0 103.5 20.5t96.5 49.5t88 60.5t81 54.5q-18 90 -62 164q-61 -61 -107 -102.5t-88 -74t-87.5 -62.5t-106.5 -69v-143z" />
<glyph unicode="&#xad;" horiz-adv-x="1036" d="M-53 393q8 41 17 78t24 70q27 68 61.5 109.5t77.5 41.5h256q51 0 94 -1t113 -17h-2q47 -6 114.5 -14.5t171.5 -18.5l236 -379q-16 -68 -48 -136.5t-73 -98.5q-86 0 -157.5 1t-112.5 1h-74q-27 0 -66.5 -3t-103 -8.5t-157 -14.5t-226.5 -21q-160 330 -145 411zM35 344 q133 12 206.5 19.5t115.5 11.5t69 5t66 1q41 0 111.5 -1t199.5 -1q14 10 30.5 58.5t28.5 101.5q-135 14 -213 24t-125 16.5t-75.5 8.5t-65.5 2h-256q-20 0 -36.5 -22.5t-29 -58.5t-19.5 -79t-7 -86z" />
<glyph unicode="&#xae;" horiz-adv-x="1433" d="M0 778q0 328 153.5 481.5t481.5 153.5q156 0 293 -70.5t240.5 -182t164 -250t60.5 -275.5q0 -123 -41 -234.5t-120 -195.5t-193.5 -134.5t-260.5 -50.5q-137 0 -275 60.5t-250 163t-182.5 240.5t-70.5 294zM102 778q0 -100 40 -192t111 -163t169 -114t213 -43 q100 0 192.5 43t163 114t113.5 163t43 192q0 115 -43 213.5t-113.5 169t-163 110.5t-192.5 40q-115 0 -213 -40t-169 -110.5t-111 -169t-40 -213.5zM184 778q0 236 107.5 343.5t343.5 107.5q84 0 165 -33t144.5 -92.5t102 -142t38.5 -183.5q0 -84 -38.5 -165t-102 -144 t-144.5 -102t-165 -39q-100 0 -183 39t-142.5 102t-92.5 144t-33 165zM389 492h123q-16 111 -18 153.5t-2 50.5q0 25 3 33t17 8q74 -45 131 -102t94 -143h185q-6 6 -38 36.5t-75 69.5t-90 78t-84 61h20q111 0 158 47t47 158q0 78 -61.5 121t-184.5 43h-225 q16 -31 20.5 -92.5t4.5 -153.5v-184q0 -61 -4 -107.5t-21 -76.5zM492 819v62q0 47 5 79.5t15 43.5h143q47 0 75 -17.5t28 -64.5q0 -31 -17.5 -50.5t-44 -32t-59.5 -16.5t-64 -4h-81z" />
<glyph unicode="&#xbb;" horiz-adv-x="1228" d="M-61 328q154 129 245 184l-245 225q45 72 80.5 164t62.5 205q82 -82 164 -153.5t164 -133.5q25 39 39 70t22 62.5t12 68.5t9 86q57 -41 189 -142.5t343 -267.5l184 -225v-205q-217 -129 -512 -409l-164 143q-20 39 -20 61q-74 -72 -130 -123t-95 -81l-164 143 q-115 141 -184 328zM82 307q27 -45 47.5 -79.5t34.5 -63.5q68 92 128 151.5t110.5 99.5t90 67.5t66.5 58.5q0 30 -6 73q-72 51 -113 82t-77.5 60.5t-85 66.5t-134.5 99q0 -31 -6 -51.5t-15 -38t-20.5 -35t-19.5 -39.5q51 -25 105.5 -55.5t103.5 -59.5t88 -50.5t61 -27.5 q-31 -25 -77 -57.5t-96 -67t-99 -69.5t-86 -64zM492 307q23 -23 46 -64.5t35 -78.5q55 76 111.5 130t108 95t93.5 72t70 59v19q0 16 1.5 37.5t5.5 37.5q-72 51 -113 83t-79 60.5t-86 65.5t-132 99q-18 -100 -61 -164q51 -25 105 -55.5t103.5 -59.5t87 -51.5t56.5 -30.5 q-25 -20 -69 -51t-95 -65.5t-101.5 -70.5t-86.5 -67z" />
<glyph unicode="&#xbf;" horiz-adv-x="1103" d="M-80 244q0 133 18.5 216t74 146.5t155.5 122.5t264 145q43 20 43 60q0 35 -65 178q82 49 147 74q-49 29 -81 88t-32 137q0 49 14.5 93t40 77t59.5 52.5t75 19.5q53 0 112.5 -35t108.5 -91.5t82 -127t33 -142.5q0 -63 -20.5 -113t-55.5 -81l55 -55q56 -56 56 -181 q0 -111 -41 -196q117 -92 171 -208t54 -235q0 -133 -53.5 -230t-137.5 -160.5t-188 -95.5t-209 -32q-45 0 -113.5 21.5t-144.5 59.5t-150.5 91.5t-135 117t-98.5 136t-38 148.5zM23 244q0 -66 35.5 -125.5t96 -103.5t136.5 -69.5t155 -25.5q86 0 174.5 25.5t159 78 t114.5 131t44 187.5q0 92 -29.5 168t-101.5 143q-23 -4 -54.5 -31.5t-68.5 -107.5q41 -49 63.5 -100.5t22.5 -106.5q0 -66 -24.5 -114t-64.5 -79.5t-93 -47t-111 -15.5q-59 0 -111.5 18.5t-92.5 52.5t-62.5 82t-22.5 109q0 104 75 189.5t192 132.5q154 61 226.5 138 t72.5 208q0 129 -82 129q-35 0 -69 -11.5t-62 -27.5q37 -78 37 -137q0 -102 -99 -152q-147 -76 -236 -128t-138.5 -106t-65.5 -124t-16 -180zM438 156q4 -2 19 -2h20q74 0 132.5 37.5t58.5 115.5q0 33 -23 84h-2q-92 -39 -148.5 -99.5t-56.5 -131.5v-4zM547 1411 q0 -59 25.5 -100t60.5 -41q37 0 61.5 41t24.5 100q0 57 -24.5 98t-61.5 41q-35 0 -60.5 -41t-25.5 -98z" />
<glyph unicode="&#xc0;" d="M-4 80q0 145 22 207q37 80 106 154.5t157 129.5l-58 99q-23 27 -44 62.5t-36.5 71.5t-24.5 67.5t-9 50.5q0 68 28.5 132t77.5 119.5t112.5 100.5t131.5 74q33 14 64.5 22t62.5 12q-37 10 -77 22.5t-81 25.5l-164 163q78 78 111 159t33 190q92 -53 177 -93.5t163.5 -73 t151.5 -61t142 -59.5l144 -164q-61 -78 -92 -133t-31 -72l-86 -24q106 -100 244 -367q82 -135 79 -332q-2 -25 -2 -47v-43v-67v-80q2 -43 4.5 -93.5t6.5 -101.5q143 -12 204 -76l175 -336q-14 -109 -27.5 -168t-39.5 -88.5t-71 -36t-120 -6.5h-17q-346 4 -428 125l-43 70 q-182 -166 -410 -166q-213 0 -305 154q-231 324 -231 477zM98 27q0 -225 281 -226q147 0 271 81t231 255q63 106 69 103q12 -18 13 -93q0 -123 -31 -321q35 -49 328 -53h16q45 0 72.5 4t44 25.5t26 64.5t19.5 121q-41 43 -369 43q0 10 1 23.5t1 33.5q0 23 -1 57.5t-3 79.5 q-2 47 -3 94.5t-5 94.5q-2 47 -4 118.5t-6 169.5q4 240 -27 314q-27 82 -82 143q-53 59 -130 92t-169 33q-72 0 -147.5 -29.5t-138 -81t-103.5 -117t-41 -134.5q0 -16 6 -45t16.5 -57.5t22.5 -52.5t25 -30l172 51q6 307 127 308q74 0 135 -29t105 -78t68.5 -117.5 t24.5 -148.5q0 -25 -7 -66t-18 -80.5t-25.5 -68.5t-28.5 -29q-66 41 -125.5 67.5t-133.5 31.5q-66 0 -147.5 -36t-155.5 -93q-70 -53 -125 -127q-49 -72 -49 -295zM188 727q2 -10 9 -16zM285 180q0 86 92 137.5t246 51.5q16 0 40.5 -21t24.5 -39q0 -33 -32.5 -79t-76.5 -88 t-90.5 -71.5t-72.5 -29.5q-131 0 -131 139zM449 1634q53 -8 97 -23.5t86 -36t87 -47t98 -57.5q16 57 30.5 88t31.5 56q-53 23 -101.5 43t-94.5 39.5t-93 39t-101 42.5q0 -16 -12 -49t-28 -95zM664 700l6 -22q39 -4 67 -19q29 -12 51 17q23 29 5.5 48t-60.5 19t-69 -43z M1114 -166l2 -4q-2 2 -2 4z" />
<glyph unicode="&#xc1;" d="M-4 80q0 145 22 207q37 80 106 154.5t157 129.5l-58 99q-23 27 -44 62.5t-36.5 71.5t-24.5 67.5t-9 50.5q0 92 50 175t128 146q37 31 78 55.5t86 44.5l-197 142q-33 137 -102 225q156 66 304 131.5t289 134.5l144 -164l123 -327q-152 -39 -291 -105q119 -14 209 -77 q123 -82 291 -408q82 -135 79 -332q-2 -25 -2 -47v-43v-67v-80q2 -43 4.5 -93.5t6.5 -101.5q143 -12 204 -76l175 -336q-14 -109 -27.5 -168t-39.5 -88.5t-71 -36t-120 -6.5h-17q-346 4 -428 125l-43 70q-182 -166 -410 -166q-213 0 -305 154q-231 324 -231 477zM98 27 q0 -225 281 -226q147 0 271 81t231 255q63 106 69 103q12 -18 13 -93q0 -123 -31 -321q35 -49 328 -53h16q45 0 72.5 4t44 25.5t26 64.5t19.5 121q-41 43 -369 43q0 10 1 23.5t1 33.5q0 23 -1 57.5t-3 79.5q-2 47 -3 94.5t-5 94.5q-2 47 -4 118.5t-6 169.5q4 240 -27 314 q-27 82 -82 143q-53 59 -130 92t-169 33q-72 0 -147.5 -29.5t-138 -81t-103.5 -117t-41 -134.5q0 -16 6 -45t16.5 -57.5t22.5 -52.5t25 -30l172 51q6 307 127 308q74 0 135 -29t105 -78t68.5 -117.5t24.5 -148.5q0 -25 -7 -66t-18 -80.5t-25.5 -68.5t-28.5 -29 q-66 41 -125.5 67.5t-133.5 31.5q-66 0 -147.5 -36t-155.5 -93q-70 -53 -125 -127q-49 -72 -49 -295zM188 727q2 -10 9 -16zM285 180q0 86 92 137.5t246 51.5q16 0 40.5 -21t24.5 -39q0 -33 -32.5 -79t-76.5 -88t-90.5 -71.5t-72.5 -29.5q-131 0 -131 139zM295 1669 q38 -57 61 -143q186 131 369 164q-35 57 -61 143q-94 -51 -185.5 -91t-183.5 -73zM664 700l6 -22q39 -4 67 -19q29 -12 51 17q23 29 5.5 48t-60.5 19t-69 -43zM1114 -166l2 -4q-2 2 -2 4z" />
<glyph unicode="&#xc2;" d="M-4 80q0 74 5 127t17 80q35 80 106 154.5t157 129.5l-58 99q-23 27 -44 62.5t-36.5 71.5t-24.5 67.5t-9 50.5q0 57 21.5 112.5t57 104.5t85 92t104.5 76l-311 364q141 61 260.5 133t230.5 133q47 -61 162 -124.5t289 -141.5l143 -164q-16 -16 -68.5 -67t-144.5 -144 q121 -90 283 -401q41 -70 60 -151.5t19 -180.5q-2 -12 -2 -24v-23v-43v-67v-80q0 -43 3.5 -93.5t7.5 -101.5q143 -12 204 -76l175 -336q-14 -109 -27.5 -168t-39.5 -88.5t-71 -36t-120 -6.5h-17q-344 2 -428 125l-43 70q-182 -166 -410 -166q-213 0 -305 154 q-231 324 -231 477zM98 27q0 -225 281 -226q147 0 271 81t231 255q63 106 69 103q12 -18 13 -93q0 -123 -31 -321q35 -49 328 -53h16q45 0 72.5 4t44 25.5t26 64.5t19.5 121q-41 43 -369 43q0 10 1 23.5t1 33.5q0 53 -1 108.5t-4 126t-7 161.5t-10 218v46q0 104 -7.5 170.5 t-20.5 109.5t-33.5 71.5t-47.5 59.5q-53 59 -130 92t-169 33q-72 0 -147.5 -29.5t-138 -81t-103.5 -117t-41 -134.5q0 -16 6 -45t16.5 -57.5t22.5 -52.5t25 -30l172 51q6 307 127 308q74 0 135 -29t105 -78t68.5 -117.5t24.5 -148.5q0 -25 -7 -66t-18 -80.5t-25.5 -68.5 t-28.5 -29q-66 41 -125.5 67.5t-133.5 31.5q-49 0 -108 -21.5t-118.5 -56.5t-112 -81t-89.5 -97q-49 -72 -49 -295zM188 727q4 -12 9 -16zM250 1651q16 -47 30.5 -66.5t30.5 -36.5l21 -20q31 23 58.5 39t52 31.5t48 33t46.5 39.5q47 -47 95 -79.5t109 -63.5l103 102 q-78 47 -152 92t-135 93q-78 -47 -153.5 -82t-153.5 -82zM285 180q0 86 92 137.5t246 51.5q16 0 40.5 -21t24.5 -39q0 -33 -32.5 -79t-76.5 -88t-90.5 -71.5t-72.5 -29.5q-131 0 -131 139zM664 700l6 -22q27 -2 48 -12.5t36 -10.5q16 0 31.5 16.5t15.5 33.5q0 16 -18.5 27 t-49.5 11q-43 0 -69 -43zM1114 -166l2 -4q-2 2 -2 4z" />
<glyph unicode="&#xc3;" d="M-4 80q0 74 5 127t17 80q35 80 106 154.5t157 129.5q-63 100 -97 157.5t-43 74.5q-14 37 -23 68.5t-9 50.5q0 63 24.5 122.5t66.5 111.5t97 96t115 75q-145 119 -283 197q61 154 139 230.5t189 76.5q33 0 65.5 -12.5t64 -26.5t60.5 -26.5t53 -12.5q35 0 61.5 21.5 t55.5 70.5q156 -117 234 -178l143 -164q-53 -94 -114.5 -149.5t-125.5 -71.5q117 -98 267 -387q41 -70 60 -151.5t19 -180.5q-2 -12 -2 -24v-23v-43v-67v-80q0 -43 3.5 -93.5t7.5 -101.5q143 -12 204 -76l175 -336q-14 -109 -27.5 -168t-39.5 -88.5t-71 -36t-120 -6.5h-17 q-344 2 -428 125l-43 70q-182 -166 -410 -166q-213 0 -305 154q-231 324 -231 477zM98 27q0 -225 281 -226q147 0 271 81t231 255q63 106 69 103q12 -18 13 -93q0 -123 -31 -321q35 -49 328 -53h16q45 0 72.5 4t44 25.5t26 64.5t19.5 121q-41 43 -369 43q0 10 1 23.5t1 33.5 q0 53 -1 108.5t-4 126t-7 161.5t-10 218v46q0 104 -7.5 170.5t-20.5 109.5t-33.5 71.5t-47.5 59.5q-53 59 -130 92t-169 33q-72 0 -147.5 -29.5t-138 -81t-103.5 -117t-41 -134.5q0 -16 6 -45t16.5 -57.5t22.5 -52.5t25 -30l172 51q6 307 127 308q74 0 135 -29t105 -78 t68.5 -117.5t24.5 -148.5q0 -25 -7 -66t-18 -80.5t-25.5 -68.5t-28.5 -29q-66 41 -125.5 67.5t-133.5 31.5q-49 0 -108 -21.5t-118.5 -56.5t-112 -81t-89.5 -97q-49 -72 -49 -295zM252 1585q47 -16 76.5 -40.5t46.5 -41.5q20 61 42.5 82t39.5 21q23 0 59.5 -16.5t76.5 -35 t80 -35t70 -16.5q123 0 185 123q-47 47 -77 66.5t-46 36.5l-103 -82q-31 0 -64.5 9t-66 21.5t-62.5 21.5t-52 9q-78 0 -133.5 -30.5t-71.5 -92.5zM285 180q0 86 92 137.5t246 51.5q16 0 40.5 -21t24.5 -39q0 -33 -32.5 -79t-76.5 -88t-90.5 -71.5t-72.5 -29.5 q-131 0 -131 139zM664 700l6 -22q27 -2 48 -12.5t36 -10.5q16 0 31.5 16.5t15.5 33.5q0 16 -18.5 27t-49.5 11q-43 0 -69 -43zM1114 -166l2 -4q-2 2 -2 4z" />
<glyph unicode="&#xc4;" d="M-4 80q0 74 5 127t17 80q35 80 106 154.5t157 129.5l-58 99q-23 27 -44 62.5t-36.5 71.5t-24.5 67.5t-9 50.5q0 92 49 176t129 145l55 43l-14 14q-41 51 -73 107.5t-32 103.5q0 41 20.5 80t54.5 70t77 49.5t90 18.5q25 0 43 -5.5t33.5 -18.5t34 -38t42.5 -61 q29 51 83.5 87t127.5 36q29 0 72 -27t83 -72t68.5 -102.5t28.5 -118.5q0 -41 -25.5 -83t-64.5 -77q53 -55 109.5 -143t120.5 -211q41 -70 60 -151.5t19 -180.5q-2 -12 -2 -24v-23v-43v-67v-80q0 -43 3.5 -93.5t7.5 -101.5q143 -12 204 -76l175 -336q-14 -109 -27.5 -168 t-39.5 -88.5t-71 -36t-120 -6.5h-17q-344 2 -428 125l-43 70q-182 -166 -410 -166q-213 0 -305 154q-231 324 -231 477zM98 27q0 -225 281 -226q147 0 271 81t231 255q63 106 69 103q12 -18 13 -93q0 -123 -31 -321q35 -49 328 -53h16q45 0 72.5 4t44 25.5t26 64.5t19.5 121 q-41 43 -369 43q0 10 1 23.5t1 33.5q0 53 -1 108.5t-4 126t-7 161.5t-10 218v46q0 104 -7.5 170.5t-20.5 109.5t-33.5 71.5t-47.5 59.5q-53 59 -130 92t-169 33q-72 0 -147.5 -29.5t-138 -81t-103.5 -117t-41 -134.5q0 -16 6 -45t16.5 -57.5t22.5 -52.5t25 -30l172 51 q6 307 127 308q74 0 135 -29t105 -78t68.5 -117.5t24.5 -148.5q0 -25 -7 -66t-18 -80.5t-25.5 -68.5t-28.5 -29q-66 41 -125.5 67.5t-133.5 31.5q-49 0 -108 -21.5t-118.5 -56.5t-112 -81t-89.5 -97q-49 -72 -49 -295zM188 727q4 -12 9 -16zM285 180q0 86 92 137.5t246 51.5 q16 0 40.5 -21t24.5 -39q0 -33 -32.5 -79t-76.5 -88t-90.5 -71.5t-72.5 -29.5q-131 0 -131 139zM326 1507q0 -12 8 -24.5t19.5 -23.5t23.5 -18t20 -7q14 0 36 11t40.5 29.5t31.5 40t13 44.5t-16 45t-47 22q-49 0 -89 -37t-40 -82zM664 700l6 -22q27 -2 48 -12.5t36 -10.5 q16 0 31.5 16.5t15.5 33.5q0 16 -18.5 27t-49.5 11q-43 0 -69 -43zM690 1507q0 -12 8.5 -24.5t19.5 -23.5t23.5 -18t20.5 -7q14 0 35.5 11t40 29.5t32 40t13.5 44.5t-16.5 45t-47.5 22q-49 0 -89 -37t-40 -82zM1114 -166l2 -4q-2 2 -2 4z" />
<glyph unicode="&#xc5;" d="M-4 80q0 74 5 127t17 80q35 80 106 154.5t157 129.5l-58 99q-23 27 -44 62.5t-36.5 71.5t-24.5 67.5t-9 50.5q0 68 28.5 131t75.5 118.5t110.5 99.5t131.5 75q-53 49 -86 108t-33 123q0 150 66.5 219.5t207.5 69.5q70 0 139.5 -35t126 -89t92.5 -122t36 -133 q0 -125 -66 -191q121 -90 283 -401q41 -70 60 -151.5t19 -180.5q-2 -12 -2 -24v-23v-43v-67v-80q0 -43 3.5 -93.5t7.5 -101.5q143 -12 204 -76l175 -336q-14 -109 -27.5 -168t-39.5 -88.5t-71 -36t-120 -6.5h-17q-344 2 -428 125l-43 70q-182 -166 -410 -166 q-213 0 -305 154q-231 324 -231 477zM98 27q0 -225 281 -226q147 0 271 81t231 255q63 106 69 103q12 -18 13 -93q0 -123 -31 -321q35 -49 328 -53h16q45 0 72.5 4t44 25.5t26 64.5t19.5 121q-41 43 -369 43q0 10 1 23.5t1 33.5q0 53 -1 108.5t-4 126t-7 161.5t-10 218v46 q0 104 -7.5 170.5t-20.5 109.5t-33.5 71.5t-47.5 59.5q-53 59 -130 92t-169 33q-72 0 -147.5 -29.5t-138 -81t-103.5 -117t-41 -134.5q0 -16 6 -45t16.5 -57.5t22.5 -52.5t25 -30l172 51q6 307 127 308q74 0 135 -29t105 -78t68.5 -117.5t24.5 -148.5q0 -25 -7 -66 t-18 -80.5t-25.5 -68.5t-28.5 -29q-66 41 -125.5 67.5t-133.5 31.5q-49 0 -108 -21.5t-118.5 -56.5t-112 -81t-89.5 -97q-49 -72 -49 -295zM188 727q4 -12 9 -16zM285 180q0 86 92 137.5t246 51.5q16 0 40.5 -21t24.5 -39q0 -33 -32.5 -79t-76.5 -88t-90.5 -71.5 t-72.5 -29.5q-131 0 -131 139zM412 1577q0 -166 213 -166q29 0 60.5 7t59 28.5t45 59.5t17.5 102q0 92 -46.5 137t-150.5 45q-106 0 -152 -54.5t-46 -158.5zM487 1591q0 138 123 138q57 0 89 -34t32 -104q0 -57 -31.5 -89t-89.5 -32q-59 0 -91 32t-32 89zM664 700l6 -22 q27 -2 48 -12.5t36 -10.5q16 0 31.5 16.5t15.5 33.5q0 16 -18.5 27t-49.5 11q-43 0 -69 -43zM1114 -166l2 -4q-2 2 -2 4z" />
<glyph unicode="&#xc6;" horiz-adv-x="2404" d="M-4 80q0 92 16.5 160.5t51 124t88 104.5t129.5 102q-37 35 -68 82t-54.5 96.5t-36.5 95.5t-13 77q0 90 50 174t128 148.5t172 103t182 38.5q72 0 132.5 -12t113.5 -43t104 -84t105 -137q53 66 116.5 120t132 94t139 62.5t138.5 22.5q86 0 151.5 -12.5t117 -34t90 -54 t69.5 -71.5q10 -12 30.5 -46t47 -80t54.5 -97t50.5 -97.5t37 -81t14.5 -47.5q0 -74 -177 -280q106 -47 201 -139l148 -246v-47q0 -70 -36 -148t-96.5 -153.5t-141.5 -146t-172 -125t-186 -87t-186 -34.5q-115 0 -208 16t-170.5 58t-142 114t-120.5 182q-31 -45 -86 -97 t-120.5 -98t-134 -77t-124.5 -31q-111 0 -209 51t-170.5 138.5t-114.5 201t-42 240.5zM98 27q0 -225 281 -226q96 0 189.5 26t173 74t142 119.5t99.5 163.5q23 -100 67 -183t107.5 -142.5t145 -92t180.5 -32.5q78 0 163 26.5t164.5 72.5t151.5 106.5t126 127t86 135 t32 130.5v4q-109 94 -197 110q-14 -205 -101 -311t-235 -106q-72 0 -142.5 27.5t-127.5 73.5t-94 104.5t-39 121.5l782 607q-8 55 -25.5 116.5t-60.5 111.5t-120 83t-204 33q-86 0 -166.5 -31t-153.5 -86t-135.5 -132t-109.5 -169q-14 82 -51 154.5t-92 126t-129 84 t-164 30.5q-72 0 -147.5 -29.5t-138 -81t-103.5 -117t-41 -134.5q0 -16 6 -45t16.5 -57.5t22.5 -52.5t25 -30l172 51q6 307 127 308q129 -14 198.5 -74.5t105.5 -145.5t50 -185.5t31 -192.5q-82 41 -183.5 60.5t-206.5 19.5q-109 0 -196.5 -44.5t-150 -120t-96.5 -176 t-34 -210.5zM285 180q0 86 92 137.5t246 51.5q16 0 40.5 -21t24.5 -39q0 -33 -32.5 -79t-76.5 -88t-90.5 -71.5t-72.5 -29.5q-131 0 -131 139zM664 700l6 -22q27 -2 48 -12.5t36 -10.5q16 0 31.5 16.5t15.5 33.5q0 16 -18.5 27t-49.5 11q-43 0 -69 -43zM1204 563 q0 109 20.5 208t71 175t133 121t209.5 45q70 0 111 -35t80 -100l-574 -475h-12q-23 0 -31 9t-8 52zM1624 135q8 -8 49 -8q135 0 201 201z" />
<glyph unicode="&#xc7;" horiz-adv-x="1536" d="M-104 498q0 209 54 365.5t148.5 263t223.5 159.5t276 53q119 0 205 -24.5t144.5 -57t93 -66.5t51.5 -52l249 186q23 -6 61 -31.5t79 -64.5q18 -18 80.5 -110.5t167.5 -260.5q2 -6 6 -10l4 -8l-496 -430q-117 106 -185.5 165.5t-112.5 88t-75.5 35t-72.5 6.5 q-61 0 -121 -36t-105 -96.5t-72.5 -138.5t-27.5 -160q0 -125 47 -175t119 -50h12q10 0 15 2q29 0 64.5 29t69 66.5t59.5 74.5t36 53q16 29 44 76t60 107q66 -10 137.5 -36t122.5 -75q16 -16 66.5 -99t132.5 -233q-141 -190 -243.5 -311t-172.5 -180q23 -33 32 -74t9 -88 q0 -84 -22.5 -136t-62.5 -81t-96 -39t-126 -10q-35 0 -71.5 7t-82 33.5t-101.5 79t-132 144.5q-25 29 -46.5 79t-37.5 128h31q18 0 28 2q-53 45 -95 97t-77 110l-96 162q-98 123 -148 270t-50 291zM-2 498q0 -109 34 -224.5t96 -216t151.5 -173t197.5 -93.5h72 q0 -68 13 -102.5t33.5 -51t45.5 -21.5t45.5 -12t33.5 -23.5t13 -55.5q0 -47 -27.5 -64.5t-74.5 -17.5h-19q-51 8 -84.5 23.5t-52.5 25.5q-18 -8 -49 -8q0 -39 20.5 -65.5t49 -44t60.5 -25.5t54 -8q111 0 168.5 43t57.5 120q0 68 -12.5 108t-33 59.5t-45 24.5t-51.5 5 q-18 0 -30.5 13.5t-12.5 76.5q63 8 88 14.5t41 12.5q76 25 147.5 68.5t129 101t96.5 127t49 145.5q-16 41 -61 60.5t-86 25.5q-10 -27 -46 -92.5t-90.5 -133t-120 -119.5t-134.5 -52q-86 0 -166 33.5t-141.5 103.5t-98.5 177.5t-37 252.5q0 121 34 221.5t91 171t134 109.5 t163 39q57 0 100 -8.5t89.5 -36t106.5 -78.5t153 -137l378 327q-4 10 -17 24.5t-29.5 28t-33 24.5t-26.5 13l-297 -221q-2 27 -35 69t-95.5 81t-156.5 66.5t-221 27.5q-113 0 -214 -48t-178 -142.5t-123 -231.5t-46 -317z" />
<glyph unicode="&#xc8;" horiz-adv-x="1492" d="M-27 399q0 205 62.5 385.5t173.5 321.5q133 170 319 256q-23 8 -47 14t-51 15l-164 163q78 78 111 159t33 190q92 -53 177 -93.5t163.5 -73t151.5 -61t142 -59.5l144 -164q-12 -14 -27.5 -33.5t-31 -40t-25.5 -38t-10 -25.5q0 -2 -2 -4q25 -20 43 -38t37.5 -45.5 t47 -73.5t70.5 -122q47 -86 78 -149.5t31 -94.5q0 -74 -176 -280q53 -23 103 -57.5t97 -81.5l148 -246v-47q0 -70 -36 -148t-95.5 -153.5t-139 -146t-168 -125t-180.5 -87t-176 -34.5h-22q-170 0 -295 75q-127 74 -262 281q-131 203 -179 346q-45 135 -45 315zM76 399 q0 -143 35.5 -265t102.5 -211t164 -139t220 -50q78 0 163 26.5t165 72.5t151.5 106.5t125.5 127t86 135t32 130.5v4q-109 94 -197 110q-14 -205 -101 -311t-235 -106q-72 0 -142.5 27.5t-127.5 73.5t-94 104.5t-39 121.5l782 607q-8 55 -25.5 116.5t-60.5 111.5t-119.5 83 t-203.5 33q-133 0 -257 -74t-218.5 -198t-150.5 -288.5t-56 -347.5zM319 563q0 109 20.5 208t71 175t133.5 121t210 45q70 0 110.5 -35t79.5 -100l-573 -475h-13q-23 0 -31 9t-8 52zM451 1595q53 -8 97 -23.5t86 -35.5t87 -47t98 -57l62 143q-53 23 -101.5 43t-94.5 39.5 t-93 39t-100 42.5q0 -16 -12.5 -49t-28.5 -95zM739 139q16 -8 49 -8q135 0 201 197z" />
<glyph unicode="&#xc9;" horiz-adv-x="1492" d="M-27 399q0 205 62.5 385.5t173.5 321.5q106 137 252 221l6 4l-88 64q-33 137 -103 225q156 66 304.5 131.5t289.5 134.5l144 -164l123 -327q-33 -10 -64 -17.5t-59 -17.5q94 -47 151 -123q16 -23 48 -75t77 -130t72 -135t35 -94q18 -72 -174 -295q106 -47 200 -139 l148 -246v-47q0 -70 -36 -148t-95.5 -153.5t-139 -146t-168 -125t-180.5 -87t-176 -34.5h-22q-166 0 -294 74.5t-208 209.5l-102 172q-86 104 -131.5 245.5t-45.5 315.5zM76 399q0 -147 37 -269t104 -210q33 -41 73 -75.5t91 -61.5q100 -49 206.5 -48t188.5 29 q100 35 198.5 99.5t175.5 143.5t124 164t47 161v4q-109 94 -197 110q-14 -205 -101 -311t-235 -106q-72 0 -142.5 27.5t-127.5 73.5t-94 104.5t-39 121.5l782 607q-8 55 -25.5 116.5t-60.5 111.5t-119.5 83t-203.5 33q-129 0 -256 -74t-221 -199t-149.5 -289.5t-55.5 -345.5 zM324 518q-10 18 0 148q4 66 15 117t32 89q39 78 115.5 145.5t193.5 86.5q109 20 166 -14q51 -33 98 -113l-573 -475q-39 -2 -47 16zM420 1579q38 -57 61 -143q186 131 369 163q-35 57 -62 144q-94 -51 -185 -91t-183 -73zM739 135q10 -2 16.5 -3t8.5 -1h24q135 0 201 197z " />
<glyph unicode="&#xca;" horiz-adv-x="1492" d="M-27 399q0 205 62.5 385.5t173.5 321.5q100 129 242 215l-238 281q141 61 261 132.5t231 133.5q47 -61 161.5 -125t288.5 -141l143 -164q-47 -47 -88 -94.5t-67 -79.5q-2 0 17.5 -29t47 -73t61.5 -98t62.5 -107.5t48 -98.5t19.5 -70q0 -74 -176 -280q53 -23 103 -57.5 t97 -81.5l148 -246v-47q0 -70 -36 -148t-95.5 -153.5t-139 -146t-168 -125t-180.5 -87t-176 -34.5h-22q-166 0 -294 74.5t-208 209.5l-102 172q-86 104 -131.5 245.5t-45.5 315.5zM76 399q0 -143 35.5 -265t102.5 -211t164 -139t220 -50q78 0 163 26.5t165 72.5t151.5 106.5 t125.5 127t86 135t32 130.5v4q-109 94 -197 110q-14 -205 -101 -311t-235 -106q-72 0 -142.5 27.5t-127.5 73.5t-94 104.5t-39 121.5l782 607q-8 55 -25.5 116.5t-60.5 111.5t-119.5 83t-203.5 33q-133 0 -257 -74t-218.5 -198t-150.5 -288.5t-56 -347.5zM319 563 q0 109 20.5 208t71 175t133.5 121t210 45q70 0 110.5 -35t79.5 -100l-573 -475h-13q-23 0 -31 9t-8 52zM397 1581q16 -47 30.5 -66.5t31.5 -35.5l20 -21q31 23 58.5 39t52 31.5t48.5 33t46 40.5q47 -47 95 -80t110 -64l102 103q-78 47 -151.5 92t-134.5 92q-78 -47 -154 -82 t-154 -82zM739 135q10 -2 16.5 -3t8.5 -1h24q135 0 201 197z" />
<glyph unicode="&#xcb;" horiz-adv-x="1492" d="M-27 399q0 205 62.5 385.5t173.5 321.5q51 66 111.5 121t132.5 96q-51 53 -89 116.5t-38 116.5q0 41 20.5 80t54 70t76.5 49.5t90 18.5q25 0 43.5 -5.5t33.5 -18.5t33.5 -37.5t43.5 -61.5q29 51 83 87t128 36q29 0 72 -27t82.5 -72t68.5 -102t29 -119q0 -39 -23.5 -78 t-58.5 -73q23 8 53.5 -21t63 -79t64.5 -112.5t57.5 -122t42 -108.5t16.5 -72q0 -74 -176 -280q53 -23 103 -57.5t97 -81.5l148 -246v-47q0 -70 -36 -148t-95.5 -153.5t-139 -146t-168 -125t-180.5 -87t-176 -34.5h-22q-166 0 -294 74.5t-208 209.5l-102 172 q-86 104 -131.5 245.5t-45.5 315.5zM76 399q0 -143 35.5 -265t102.5 -211t164 -139t220 -50q78 0 163 26.5t165 72.5t151.5 106.5t125.5 127t86 135t32 130.5v4q-109 94 -197 110q-14 -205 -101 -311t-235 -106q-72 0 -142.5 27.5t-127.5 73.5t-94 104.5t-39 121.5l782 607 q-8 55 -25.5 116.5t-60.5 111.5t-119.5 83t-203.5 33q-133 0 -257 -74t-218.5 -198t-150.5 -288.5t-56 -347.5zM319 563q0 109 20.5 208t71 175t133.5 121t210 45q70 0 111.5 -35t78.5 -100l-573 -475h-13q-23 0 -31 9t-8 52zM428 1552q0 -12 8 -24t19.5 -23.5t24 -18.5 t20.5 -7q14 0 35.5 11t40 29.5t32 40t13.5 44.5t-16.5 45t-47.5 22q-49 0 -89 -37t-40 -82zM739 135q10 -2 16.5 -3t8.5 -1h24q135 0 201 197zM793 1552q0 -12 8 -24t19 -23.5t23.5 -18.5t20.5 -7q14 0 36 11t40 29.5t31.5 40t13.5 44.5t-16 45t-47 22q-49 0 -89 -37 t-40 -82z" />
<glyph unicode="&#xcc;" horiz-adv-x="786" d="M-31 -70q0 51 12.5 117t34 123t50 96t59.5 39q14 0 32.5 -3t45.5 -7q6 43 14 91t16 101l-147 246l-6 -2q-25 72 -31 102.5t-12 43.5v55q0 47 55 201l314 133q4 2 8 3t8 3q-53 18 -115.5 36.5t-132.5 39.5l-164 163q78 78 111 159t33 190q92 -53 177 -93.5t163.5 -73 t151.5 -61t142 -59.5l144 -164q-61 -78 -92 -133t-31 -72l-123 -35q14 -25 36.5 -58.5t43 -70t35 -76.5t14.5 -77q0 -18 -11 -87t-26.5 -163t-34 -202.5t-32.5 -209.5l153 -260q0 2 -4 -25.5t-8 -64.5t-9 -72.5t-7 -48.5q-12 -57 -47 -98t-121 -41l-539 66zM72 23l454 -56 q29 0 42.5 18.5t19.5 46t7 57.5t5 52l-68 11q-2 2 -30 2h-78q-8 8 -8 47q0 10 11 79.5t27.5 168t36 212t36 215t27.5 175t11 92.5q0 63 -20 71q-23 -16 -62 -29.5t-84 -28.5t-91 -33.5t-84 -44t-61.5 -59.5t-23.5 -81q0 -63 2 -66l260 125q6 -4 7 -32q0 -12 -8.5 -70.5 t-20.5 -140.5t-27.5 -177.5t-29 -180.5t-22.5 -147.5t-11 -82.5q-104 37 -164 37q-10 0 -20.5 -18.5t-17.5 -46t-11 -59.5t-4 -56zM195 1552q53 -8 97 -23.5t86 -35.5t87 -46.5t98 -57.5q16 57 30.5 87.5t31.5 55.5q-53 23 -101.5 43t-94.5 39.5t-93 39t-100 42.5 q0 -16 -12.5 -49t-28.5 -95z" />
<glyph unicode="&#xcd;" horiz-adv-x="786" d="M-31 -70q0 51 12.5 117t34 123t50 96t59.5 39q14 0 32.5 -3t45.5 -7q6 43 14 91t16 101l-147 246l-6 -2q-16 49 -24.5 78t-12.5 45t-6 23v55q0 47 55 201l242 102l-211 151q-33 137 -103 226q156 66 304.5 131t289.5 135l144 -164l123 -328q-158 -41 -287 -100 q41 -41 90 -114.5t107 -184.5q25 -43 24 -100q0 -18 -11 -87t-26.5 -163t-34 -202.5t-32.5 -209.5l153 -260q0 -2 -3 -24.5t-7 -63.5q-10 -86 -18 -123q-10 -57 -46 -98t-122 -41l-539 66zM72 23l454 -56q29 0 42.5 18.5t19.5 46t7 57.5t5 52l-68 11q-2 2 -30 2h-78 q-8 8 -8 47q0 10 11 79.5t27.5 168t36 212t36 215t27.5 175t11 92.5q0 63 -20 71q-41 -29 -108.5 -47t-135.5 -47t-115 -76t-47 -106q0 -63 2 -66l260 125q6 -4 7 -32q0 -12 -8.5 -70.5t-20.5 -140.5t-27.5 -177.5t-29 -180.5t-22.5 -147.5t-11 -82.5q-104 37 -164 37 q-10 0 -20.5 -18.5t-17.5 -46t-11 -59.5t-4 -56zM164 1571q38 -58 61 -144q186 131 369 164q-35 57 -62 144q-94 -51 -185 -91t-183 -73z" />
<glyph unicode="&#xce;" horiz-adv-x="786" d="M-90 1571q141 61 261 133t230 133q47 -61 162 -124.5t289 -141.5l143 -164q-31 -31 -60.5 -63.5t-53.5 -61.5l-43 -51q-10 -10 -16.5 -17.5t-10.5 -11.5l-102 -20q-23 4 -41 12q16 -25 41.5 -60.5t49 -77.5t40 -86t16.5 -83q0 -18 -11 -87t-26.5 -163t-34 -202.5 t-32.5 -209.5l153 -260q0 2 -4 -25.5t-8 -64.5t-9 -72.5t-7 -48.5q-12 -57 -47 -98t-121 -41l-539 66l-160 249q0 51 12.5 117t34 123t50 96t59.5 39q14 0 32.5 -3t45.5 -7q6 43 14 91t16 101l-147 246l-6 -2q-25 72 -31 102.5t-12 43.5v55q0 47 55 201l141 59zM72 23 l454 -56q29 0 42.5 18.5t19.5 46t7 57.5t5 52l-68 11q-2 2 -30 2h-78q-8 8 -8 47q0 10 11 79.5t27.5 168t36 212t36 215t27.5 175t11 92.5q0 63 -20 71q-23 -16 -62 -29.5t-84 -28.5t-91 -33.5t-84 -44t-61.5 -59.5t-23.5 -81q0 -63 2 -66l260 125q6 -4 7 -32 q0 -12 -8.5 -70.5t-20.5 -140.5t-27.5 -177.5t-29 -180.5t-22.5 -147.5t-11 -82.5q-104 37 -164 37q-10 0 -20.5 -18.5t-17.5 -46t-11 -59.5t-4 -56zM94 1550q16 -47 30.5 -66.5t31.5 -35.5l20 -21q31 23 58.5 39.5t52 31.5t48 32.5t46.5 40.5q47 -47 95.5 -80t109.5 -64 l102 103q-78 47 -151.5 92t-135.5 92q-78 -47 -153.5 -82t-153.5 -82z" />
<glyph unicode="&#xcf;" horiz-adv-x="786" d="M-31 -70q0 51 12.5 117t34 123t50 96t59.5 39q14 0 32.5 -3t45.5 -7q6 43 14 91t16 101l-147 246l-6 -2q-25 72 -31 102.5t-12 43.5v55q0 47 55 201l158 65q-33 25 -69 60.5t-64.5 76.5t-48 83t-19.5 79q0 41 20.5 80t54.5 69.5t77 49t90 18.5q25 0 43 -5t33.5 -18.5 t34 -38t42.5 -61.5q29 51 83.5 87t127.5 36q29 0 72 -26.5t83 -71.5t68.5 -102.5t28.5 -118.5q0 -37 -23.5 -78t-57 -74t-71.5 -54.5t-69 -21.5q14 -25 36.5 -57.5t43 -69t35 -75.5t14.5 -78q0 -18 -11 -87t-26.5 -163t-34 -202.5t-32.5 -209.5l153 -260q0 2 -4 -25.5 t-8 -64.5t-9 -72.5t-7 -48.5q-12 -57 -47 -98t-121 -41l-539 66zM72 23l454 -56q29 0 42.5 18.5t19.5 46t7 57.5t5 52l-68 11q-2 2 -30 2h-78q-8 8 -8 47q0 10 11 79.5t27.5 168t36 212t36 215t27.5 175t11 92.5q0 63 -20 71q-23 -16 -62 -29.5t-84 -28.5t-91 -33.5t-84 -44 t-61.5 -59.5t-23.5 -81q0 -63 2 -66l260 125q6 -4 7 -32q0 -12 -8.5 -70.5t-20.5 -140.5t-27.5 -177.5t-29 -180.5t-22.5 -147.5t-11 -82.5q-104 37 -164 37q-10 0 -20.5 -18.5t-17.5 -46t-11 -59.5t-4 -56zM152 1493q0 -12 8 -24.5t19 -23.5t23.5 -18.5t20.5 -7.5 q14 0 36 11.5t40 30t31.5 40t13.5 43.5q0 23 -16 45.5t-47 22.5q-49 0 -89 -37t-40 -82zM516 1493q0 -12 8 -24.5t19.5 -23.5t24 -18.5t20.5 -7.5q14 0 35.5 11.5t40 30t32 40t13.5 43.5q0 23 -16.5 45.5t-47.5 22.5q-49 0 -89 -37t-40 -82z" />
<glyph unicode="&#xd0;" horiz-adv-x="1503" d="M-66 -211l84 383q25 2 56.5 3t48.5 1l-100 123l38 414h281l12 6v78h-233l-162 250q27 133 45.5 218t38.5 133t45 66.5t64 18.5q51 0 91 -5t74 -5h5q352 -12 574 -68.5t343 -175.5q86 -84 149.5 -191.5t105.5 -226.5t62.5 -239.5t20.5 -231.5q-2 -193 -65.5 -343.5 t-185.5 -253.5t-299 -157.5t-406 -54.5h-525zM61 -117h406q193 0 349.5 41t268 130t174 229.5t66.5 337.5q0 195 -44 333t-157.5 227t-308 134t-498.5 55q-18 0 -39.5 2t-42 3t-35 3t-20.5 2h-28q-8 0 -14.5 -9t-12.5 -33.5t-15.5 -67.5t-23.5 -111l320 25q27 0 39 -95.5 t12 -297.5v-166h-330l-6 -183l39 -26l293 20q-4 -104 -9.5 -185t-13.5 -140q-4 -16 -328 -37zM594 104q12 70 18 334l361 -16l26 20l-10 205l-28 27l-347 -33q2 29 2 59v64v135q0 219 -8 234q109 0 208 -43t174 -116t120 -170t45 -206q-2 -80 -56.5 -164t-136 -154.5 t-180 -118.5t-188.5 -57z" />
<glyph unicode="&#xd1;" horiz-adv-x="1482" d="M-139 999l559 318q-127 102 -250 170q61 154 139 230.5t189 76.5q33 0 65.5 -12.5t64 -26.5t60.5 -26.5t53 -12.5q35 0 61.5 21.5t55.5 70.5q156 -117 234 -178l143 -164q-72 -127 -154 -182q53 -23 124 -82t133.5 -147t105.5 -202t43 -245q0 -111 -22.5 -245t-69.5 -263 l96 -157q18 -20 30.5 -47t19.5 -54.5t10 -53.5t3 -44q0 -29 -7 -82t-21 -139q-283 16 -471.5 24.5t-292.5 8.5q-117 0 -198 -20.5t-137 -48.5t-92 -55.5t-63 -41.5q-16 33 -38.5 71.5t-46 73.5t-43 61.5t-31.5 36.5v422l182 103q-10 92 -22.5 173t-24.5 150l-76 -28 q-61 33 -121 129q-184 260 -190 417zM-35 940q4 -92 62 -125l196 78q117 -160 183 -793l-183 -106v-178q27 18 77 38.5t105.5 39t108.5 33t88 18.5l-70 805q70 111 153 174t187 63q195 0 195 -194q0 -53 -12.5 -122t-44 -172.5t-86 -252t-136.5 -361.5l504 -8q12 70 13 123 q0 98 -43 147q-78 -29 -140.5 -50t-109.5 -31q111 211 168 414.5t57 383.5q0 82 -13.5 147.5t-47 109.5t-89 67.5t-139.5 23.5h-12q-111 0 -191.5 -29.5t-138 -75.5t-93.5 -103.5t-56 -112.5l-74 287zM293 1548q47 -16 76.5 -40.5t46.5 -41.5q20 61 42.5 82t39.5 21 q23 0 59.5 -16.5t76.5 -35t80 -35t70 -16.5q123 0 185 123q-47 47 -77 67t-46 36q-16 -47 -35.5 -64.5t-67.5 -17.5q-31 0 -64.5 9t-66 21.5t-62.5 21.5t-52 9q-78 0 -133.5 -30.5t-71.5 -92.5zM784 467l21 -242q90 242 90 340q0 21 -2 27q-37 -37 -64.5 -67.5t-44.5 -57.5z " />
<glyph unicode="&#xd2;" horiz-adv-x="1310" d="M-59 362q0 154 43 302.5t117.5 273.5t176 218t216.5 136q-29 8 -57.5 16.5t-59.5 18.5l-164 164q78 78 110.5 159t32.5 189q92 -53 177 -93t164 -73t152 -61.5t142 -59.5l144 -163q-39 -49 -63.5 -89t-41.5 -71q-2 -4 -4 -6t-4 -6q172 -123 297 -383q92 -154 92 -408 q0 -195 -59.5 -365t-167 -296.5t-260 -200.5t-338.5 -74q-76 0 -130.5 14.5t-101.5 42.5q-51 29 -135 138t-207 295q-72 264 -71 382zM43 362q0 -113 25.5 -208t75 -164.5t122 -108.5t166.5 -39q166 0 300 66.5t229.5 180.5t147.5 266.5t52 326.5q0 543 -481 543 q-127 0 -242.5 -73t-204 -193.5t-139.5 -276.5t-51 -320zM166 387q0 70 22.5 147.5t61.5 154.5t91 145.5t110.5 122t122 84t122.5 30.5t107.5 -33.5t82.5 -90t52 -133.5t18 -163q0 -98 -14 -125q-20 -84 -66.5 -169t-107.5 -155.5t-130 -114.5t-134 -44q-166 0 -252 92 t-86 252zM397 1532q53 -8 97.5 -23.5t86.5 -36t87 -47t98 -57.5l61 143q-53 23 -101 43.5t-94 40t-93 39t-101 41.5q0 -16 -12 -49t-29 -94zM434 227q0 -82 70 -82q59 0 121.5 50.5t112.5 126t83 163.5t33 166q0 29 -8 44.5t-31 15.5q-47 0 -111.5 -49.5t-125 -122 t-102.5 -157.5t-42 -155z" />
<glyph unicode="&#xd3;" horiz-adv-x="1310" d="M-59 362q0 143 37.5 282.5t104.5 259.5t157 214t196 148l-90 65q-33 137 -102 225q156 66 304 131.5t290 135.5l143 -164l123 -328q-47 -12 -93 -26.5t-89 -30.5q86 -41 157.5 -108.5t139.5 -166.5q45 -66 80.5 -128t60 -129.5t38 -144.5t13.5 -171q0 -195 -59.5 -365 t-167 -296.5t-260 -200.5t-338.5 -74q-70 0 -123 11.5t-98.5 36t-87 64.5t-91.5 99q-53 63 -98 146t-78 172.5t-51 178.5t-18 164zM43 362q0 -113 25.5 -208t75 -164.5t122 -108.5t166.5 -39q166 0 300 66.5t229.5 180.5t147.5 266.5t52 326.5q0 543 -481 543 q-127 0 -242.5 -73t-204 -193.5t-139.5 -276.5t-51 -320zM166 387q0 70 22.5 147.5t61.5 154.5t91 145.5t110.5 122t122 84t122.5 30.5t107.5 -33.5t82.5 -90t52 -133.5t18 -163q0 -88 -14 -125q-20 -84 -66.5 -169t-107.5 -155.5t-130 -114.5t-134 -44q-166 0 -252 92 t-86 252zM387 1516q39 -58 62 -144q186 131 368 164q-35 57 -61 143q-94 -51 -185.5 -91t-183.5 -72zM434 227q0 -82 70 -82q55 0 117.5 49.5t114.5 124t86 161.5t34 163q0 27 -8 47.5t-33 20.5q-47 0 -111.5 -49.5t-125 -122t-102.5 -157.5t-42 -155z" />
<glyph unicode="&#xd4;" horiz-adv-x="1310" d="M-59 362q0 133 31.5 262.5t89 243t136 206.5t173.5 155l-242 284q139 62 260 134q61 35 119.5 68.5t112.5 64.5q47 -61 161.5 -125t288.5 -142l143 -163q-31 -31 -60.5 -64t-53.5 -61l-39 -45q41 -37 81 -82t77 -99q45 -66 80.5 -128t60 -129.5t38 -144.5t13.5 -171 q0 -195 -59.5 -365t-167 -296.5t-260 -200.5t-338.5 -74q-70 0 -123 11.5t-98.5 36t-87 64.5t-91.5 99q-53 63 -98 146t-78 172.5t-51 178.5t-18 164zM43 362q0 -113 25.5 -208t75 -164.5t122 -108.5t166.5 -39q166 0 300 66.5t229.5 180.5t147.5 266.5t52 326.5 q0 543 -481 543q-127 0 -242.5 -73t-204 -193.5t-139.5 -276.5t-51 -320zM166 387q0 70 22.5 147.5t61.5 154.5t91 145.5t110.5 122t122 84t122.5 30.5t107.5 -33.5t82.5 -90t52 -133.5t18 -163q0 -88 -14 -125q-20 -84 -66.5 -169t-107.5 -155.5t-130 -114.5t-134 -44 q-166 0 -252 92t-86 252zM313 1493q16 -47 30.5 -66.5t31.5 -35.5l20 -21q31 23 58.5 39t52 31.5t48.5 33t46 39.5q47 -47 95 -79.5t110 -63.5l102 103q-78 47 -151.5 92t-134.5 92q-78 -47 -154 -82t-154 -82zM434 227q0 -82 70 -82q55 0 117.5 49.5t114.5 124t86 161.5 t34 163q0 27 -8 47.5t-33 20.5q-47 0 -111.5 -49.5t-125 -122t-102.5 -157.5t-42 -155z" />
<glyph unicode="&#xd5;" horiz-adv-x="1310" d="M-59 362q0 135 33.5 266.5t93 247t141.5 209t178 152.5q-111 82 -215 141q61 154 139 231t189 77q33 0 65.5 -12.5t64.5 -27t60.5 -26.5t52.5 -12q35 0 61.5 21.5t55.5 70.5q156 -117 234 -178l143 -164q-74 -133 -164 -189q39 -35 75 -77.5t71 -92.5q45 -66 80.5 -128 t60 -129.5t38 -144.5t13.5 -171q0 -195 -59.5 -365t-167 -296.5t-260 -200.5t-338.5 -74q-70 0 -123 11.5t-98.5 36t-87 64.5t-91.5 99q-53 63 -98 146t-78 172.5t-51 178.5t-18 164zM43 362q0 -113 25.5 -208t75 -164.5t122 -108.5t166.5 -39q166 0 300 66.5t229.5 180.5 t147.5 266.5t52 326.5q0 543 -481 543q-127 0 -242.5 -73t-204 -193.5t-139.5 -276.5t-51 -320zM166 387q0 70 22.5 147.5t61.5 154.5t91 145.5t110.5 122t122 84t122.5 30.5t107.5 -33.5t82.5 -90t52 -133.5t18 -163q0 -88 -14 -125q-20 -84 -66.5 -169t-107.5 -155.5 t-130 -114.5t-134 -44q-166 0 -252 92t-86 252zM295 1440q47 -16 76.5 -41t46.5 -41q20 61 42.5 81.5t39.5 20.5q23 0 59.5 -16.5t76.5 -34.5t80 -34.5t70 -16.5q123 0 185 123q-47 47 -77 66.5t-46 35.5q-16 -47 -35.5 -64.5t-67.5 -17.5q-31 0 -64.5 9.5t-66 21.5 t-62.5 21.5t-52 9.5q-78 0 -133.5 -31t-71.5 -92zM434 227q0 -82 70 -82q55 0 117.5 49.5t114.5 124t86 161.5t34 163q0 27 -8 47.5t-33 20.5q-47 0 -111.5 -49.5t-125 -122t-102.5 -157.5t-42 -155z" />
<glyph unicode="&#xd6;" horiz-adv-x="1310" d="M-59 362q0 137 34.5 270.5t95 249t144.5 209t182 152.5q-47 51 -78.5 110.5t-31.5 106.5q0 41 20.5 80t54 69.5t76.5 49t90 18.5q25 0 43.5 -5t34 -18.5t33.5 -38t43 -61.5q29 51 83 87t128 36q29 0 72 -26.5t82.5 -71.5t68.5 -102.5t29 -118.5q0 -43 -27.5 -88 t-68.5 -80q45 -37 87 -85t83 -106q45 -66 80.5 -128t60 -129.5t38 -144.5t13.5 -171q0 -195 -59.5 -365t-167 -296.5t-260 -200.5t-338.5 -74q-70 0 -123 11.5t-98.5 36t-87 64.5t-91.5 99q-53 63 -98 146t-78 172.5t-51 178.5t-18 164zM43 362q0 -113 25.5 -208t75 -164.5 t122 -108.5t166.5 -39q166 0 300 66.5t229.5 180.5t147.5 266.5t52 326.5q0 543 -481 543q-127 0 -242.5 -73t-204 -193.5t-139.5 -276.5t-51 -320zM166 387q0 70 22.5 147.5t61.5 154.5t91 145.5t110.5 122t122 84t122.5 30.5t107.5 -33.5t82.5 -90t52 -133.5t18 -163 q0 -88 -14 -125q-20 -84 -66.5 -169t-107.5 -155.5t-130 -114.5t-134 -44q-166 0 -252 92t-86 252zM389 1456q0 -12 8.5 -24.5t19.5 -23.5t23.5 -18.5t20.5 -7.5q14 0 35.5 11.5t40 30t32 40t13.5 43.5q0 23 -16.5 45.5t-47.5 22.5q-49 0 -89 -37t-40 -82zM434 227 q0 -82 70 -82q55 0 117.5 49.5t114.5 124t86 161.5t34 163q0 27 -8 47.5t-33 20.5q-47 0 -111.5 -49.5t-125 -122t-102.5 -157.5t-42 -155zM754 1456q0 -12 8 -24.5t19.5 -23.5t23.5 -18.5t20 -7.5q14 0 36 11.5t40.5 30t31.5 40t13 43.5q0 23 -16 45.5t-47 22.5 q-49 0 -89 -37t-40 -82z" />
<glyph unicode="&#xd8;" horiz-adv-x="1310" d="M-164 -334l195 283q-31 33 -49.5 83t-27.5 106.5t-11 115.5t-2 108q0 184 60 358.5t161.5 308.5t236 216t281.5 82q166 0 305 -90l137 147l285 -182l39 -205l-129 -157q47 -88 70.5 -186.5t23.5 -227.5q0 -195 -59.5 -365t-167 -296.5t-260 -200.5t-338.5 -74 q-86 0 -145.5 16.5t-112.5 53.5l-103 -146l-168 21zM-70 -322l121 -129l236 322q70 -29 145 -29q166 0 300 66.5t229.5 180.5t147.5 266.5t52 326.5q0 176 -53 301l172 234l-143 81l-131 -176q-121 102 -326 103q-127 0 -242.5 -73t-204 -193.5t-139.5 -276.5t-51 -320 q0 -119 27.5 -217t81.5 -168zM166 387q0 70 22.5 147.5t61.5 154.5t91 145.5t110.5 122t122 84t122.5 30.5q57 0 103.5 -31.5t81.5 -85.5l-619 -831q-96 90 -96 264zM420 49l526 717q4 -29 7 -57.5t3 -57.5q0 -88 -14 -125q-20 -84 -66.5 -169t-107.5 -155.5t-130 -114.5 t-134 -44q-45 0 -84 6z" />
<glyph unicode="&#xd9;" horiz-adv-x="1673" d="M8 305q0 92 21.5 176t54.5 161t73 145.5t79 130.5l-117 194q-8 4 -15 6l154 361l203 -74l-107 108q78 78 111 159t33 190q92 -53 177 -93t164 -73t151.5 -61.5t142.5 -59.5l143 -164q-20 -25 -35.5 -47.5t-30.5 -42.5l86 20l56 -106l96 -158l186 -348l-28 -11 q-27 -11 -64 -26.5t-77 -31t-66 -23.5q8 -41 14 -88t12 -100q12 -96 306 -662l22 -68l-74 -122q-35 -6 -91 -26t-134 -48l-2 2l-114 -46.5t-57 -23.5t-28.5 -11t-27.5 -9q-27 -10 -48.5 -19.5t-23.5 -7.5l-96 162q-66 -68 -137.5 -101.5t-169.5 -37.5h-9q-68 0 -239 65l-2 2 q-164 70 -240 197l-119 199q-41 47 -66.5 101t-41 108.5t-20.5 106.5t-5 95zM111 307q0 -49 7 -114.5t37.5 -132t91 -128t169.5 -102.5q57 -25 102 -35t80 -10q68 0 126 25.5t111.5 81t104.5 141.5t104 205q8 -35 12.5 -72t8.5 -87t8 -119t12 -165q-6 0 29 10l66 27 q41 14 89 32.5t94 35t85 30t59 17.5q-14 43 -34.5 87t-47.5 77l-186 -72q-6 74 -16.5 198.5t-24.5 260t-29.5 259.5t-31.5 195q18 8 35.5 15.5t41 16.5t54 21.5t78.5 30.5l-93 172l-501 -223l59 -149q27 14 61.5 29.5t85.5 35.5q16 -41 24.5 -94t8.5 -113q0 -123 -31.5 -258 t-91 -246.5t-147.5 -184.5t-201 -73q-104 0 -160.5 82t-66.5 207v31q0 86 26.5 199.5t81 239.5t135 257t189.5 254l-410 148l-75 -174q53 -23 107 -45.5t110 -45.5q-41 -80 -100.5 -167t-114 -183t-93 -202.5t-38.5 -225.5zM539 1554q53 -8 97 -23t86 -35.5t87 -47t98 -57.5 q16 57 30.5 87.5t31.5 55.5q-53 23 -101.5 43t-94.5 39.5t-93 39t-100 42.5q0 -16 -12.5 -49t-28.5 -95z" />
<glyph unicode="&#xda;" horiz-adv-x="1673" d="M8 305q0 92 21.5 176t54.5 161t73 145.5t79 130.5l-132 200l154 361l272 -99q-31 100 -86 172q156 66 304.5 131.5t289.5 135.5l144 -164l452 -926q-78 -31 -133 -53.5t-102 -38.5q8 -41 14 -88t12 -100q13 -95 306 -662l-52 -190l-526 -189l-96 162 q-66 -68 -137.5 -101.5t-169.5 -37.5q-55 0 -128 21.5t-142.5 57t-129 84t-90.5 101.5l-119 199q-41 47 -66.5 101t-41 108.5t-20.5 106.5t-5 95zM111 307q0 -49 7 -114.5t37.5 -132t91 -128t169.5 -102.5q57 -25 102 -35t80 -10q68 0 126 25.5t111.5 81t104.5 140.5 t104 206q8 -35 12.5 -72t8.5 -87t8 -119t12 -165q68 27 114 43.5t69 26.5q25 10 48 18t46 17q47 16 86 29.5t59 17.5q-14 43 -34.5 87t-47.5 77l-186 -72q-6 74 -16.5 198.5t-24.5 260t-29.5 259.5t-31.5 195q18 8 35.5 15.5t41 16.5t54 21.5t78.5 30.5l-93 172l-501 -223 l59 -149q27 14 61.5 29.5t85.5 35.5q16 -41 24.5 -94t8.5 -113q0 -123 -31.5 -258t-91 -246.5t-147.5 -184.5t-201 -73q-104 0 -160.5 82t-66.5 207v31q0 131 59.5 314.5t182.5 381.5q41 66 88 127.5t100 124.5l-4 4l-404 146l-75 -174q53 -23 107 -45.5t110 -45.5 q-41 -80 -100.5 -167t-114 -183t-93 -202.5t-38.5 -225.5zM588 1511q41 -59 61 -143q184 129 369 164q-35 59 -62 143q-94 -51 -185 -91t-183 -73z" />
<glyph unicode="&#xdb;" horiz-adv-x="1673" d="M8 305q0 92 21.5 176t54.5 161t73 145.5t79 130.5l-117 194q-8 4 -15 6l154 361l166 -60l-92 135q141 61 261 133t230 134q47 -61 162 -125t289 -142l143 -163q-23 -23 -47 -50.5t-47 -50.5l311 -561l-28 -11q-27 -11 -64 -26.5t-77 -31t-66 -23.5q10 -115 45 -228.5 t82 -222t101 -210t104 -189.5l-52 -190q-121 -45 -196.5 -73t-122.5 -45.5t-71.5 -25.5t-43 -14t-38 -12.5t-54.5 -18.5l-96 162q-66 -68 -137.5 -101.5t-169.5 -37.5q-57 0 -129 21.5t-141.5 58t-129 85t-90.5 99.5q-84 123 -134 217t-75.5 167t-34 128t-8.5 98zM111 307 q0 -49 7 -114.5t37.5 -132t91 -128t169.5 -102.5q57 -25 102 -35t80 -10q68 0 126 25.5t111.5 81t104.5 140.5t104 206q8 -35 12.5 -72t8.5 -87t8 -119t12 -165q37 14 98.5 39t125 48.5t118.5 42t80 22.5q-14 43 -34.5 87t-47.5 77l-186 -72q-6 74 -16.5 198.5t-24.5 260 t-29.5 259.5t-31.5 195q18 8 35.5 15.5t41 16.5t54 21.5t78.5 30.5l-93 172l-501 -223l59 -149q27 14 61.5 29.5t85.5 35.5q16 -41 24.5 -94t8.5 -113q0 -123 -31.5 -258t-91 -246.5t-147.5 -184.5t-201 -73q-104 0 -165.5 82t-61.5 207q0 98 26.5 218t81 248t135 260 t189.5 255l-410 148l-75 -174q53 -23 107 -45.5t110 -45.5q-41 -80 -100.5 -167t-114 -183t-93 -202.5t-38.5 -225.5zM516 1534q16 -47 30.5 -66.5t31.5 -35.5l20 -21q31 23 58.5 39t52 31.5t48 33t46.5 39.5q47 -47 95.5 -79.5t109.5 -63.5l102 102q-78 47 -151.5 92.5 t-135.5 92.5q-78 -47 -153.5 -82t-153.5 -82z" />
<glyph unicode="&#xdc;" horiz-adv-x="1673" d="M8 305q0 92 21.5 176t54.5 161t73 145.5t79 130.5l-117 194q-6 2 -15 6l154 361l197 -72q-31 43 -51.5 88t-20.5 82q0 41 20.5 80t54.5 69.5t77 49t90 18.5q25 0 43 -5t33.5 -18.5t34 -38t42.5 -61.5q29 51 83 87t128 36q29 0 72 -26.5t83 -71.5t68.5 -102.5t28.5 -118.5 q0 -43 -29.5 -89.5t-70.5 -80.5l155 36l56 -106l96 -158l186 -348l-28 -11q-27 -11 -64 -26.5t-77 -31t-66 -23.5q8 -41 14 -88t12 -100q12 -94 306 -662l22 -68l-74 -122q-35 -6 -91 -26t-134 -48l-2 2l-114 -46.5t-57 -23.5t-28.5 -11t-27.5 -9q-27 -10 -48.5 -19.5 t-23.5 -7.5l-96 162q-66 -68 -137.5 -101.5t-169.5 -37.5h-9q-66 0 -239 65l-2 2q-164 70 -240 197l-119 199q-41 47 -66.5 101t-41 108.5t-20.5 106.5t-5 95zM111 307q0 -49 7 -114.5t37.5 -132t91 -128t169.5 -102.5q57 -25 102 -35t80 -10q68 0 126 25.5t111.5 81 t104.5 140.5t104 206q8 -35 12.5 -72t8.5 -87t8 -119t12 -165q-8 0 29 10l66 27q41 14 89 32.5t94 35t85 30t59 17.5q-14 43 -34.5 87t-47.5 77l-186 -72q-6 74 -16.5 198.5t-24.5 260t-29.5 259.5t-31.5 195q18 8 35.5 15.5t41 16.5t54 21.5t78.5 30.5l-93 172l-501 -223 l59 -149q27 14 61.5 29.5t85.5 35.5q16 -41 24.5 -94t8.5 -113q0 -123 -31.5 -258t-91 -246.5t-147.5 -184.5t-201 -73q-104 0 -160.5 82t-66.5 207v31q0 86 26.5 199.5t81 239.5t135 257t189.5 254l-410 148l-75 -174q53 -23 107 -45.5t110 -45.5q-41 -80 -100.5 -167 t-114 -183t-93 -202.5t-38.5 -225.5zM485 1573q0 -12 8.5 -24.5t19.5 -24t23.5 -18.5t20.5 -7q14 0 35.5 11.5t40 30t32 40t13.5 43.5q0 23 -16.5 45.5t-47.5 22.5q-49 0 -89 -37t-40 -82zM764 1296l135 -47l64 15q-23 14 -49.5 43.5t-61.5 89.5q-16 -27 -37.5 -52.5 t-50.5 -48.5zM850 1573q0 -12 8 -24.5t19.5 -24t23.5 -18.5t21 -7q14 0 35.5 11.5t40 30t31.5 40t13 43.5q0 23 -16 45.5t-47 22.5q-49 0 -89 -37t-40 -82z" />
<glyph unicode="&#xdd;" horiz-adv-x="1550" d="M-78 -8q0 33 18.5 63.5t47.5 59.5h75q76 0 171.5 -7.5t195.5 -19.5l-29 45q-55 66 -86.5 152t-31.5 174q0 39 3 74.5t11 68.5l-295 535q78 72 183.5 154.5t212 156.5t196.5 127t137 65l127 -53q-29 57 -61 105q156 66 304 131t290 135l143 -164l123 -328 q-219 -57 -402 -159q68 -20 117 -42t76 -42q31 -23 172 -283q6 -10 6 -18q0 -244 -86 -557l2 -3q-8 -31 -30.5 -101.5t-53.5 -166.5t-64.5 -207.5t-65.5 -225.5t-57.5 -218.5t-37.5 -185.5q-168 53 -276.5 83.5t-184.5 47t-133 21.5t-123 5q-96 0 -225 -18q-10 0 -19.5 2 t-31 28.5t-61.5 90t-111 186.5q-18 33 -44 74t-48.5 81t-38 75.5t-15.5 58.5zM25 0q0 -18 11 -60t27.5 -85t33 -75t26.5 -32q129 18 239 19q72 0 129.5 -4.5t125 -17.5t158.5 -38.5t229 -68.5q8 51 30.5 139t53 190.5t64.5 211t63.5 202.5t51 163.5t27.5 96.5 q35 147 59.5 276.5t22.5 245.5v15q0 10 -25.5 20t-59.5 18.5t-68.5 13.5t-55.5 5q-63 -152 -121.5 -289t-112.5 -241.5t-103.5 -166t-94.5 -61.5q-23 0 -42 14.5t-35.5 37t-25.5 49t-9 51.5q0 27 25.5 102.5t68.5 183t101.5 240.5t123.5 279l-20 16l-197 84 q-37 -10 -110.5 -54t-160.5 -104.5t-174 -129t-151 -128.5l100 -194q80 78 154 149.5t135.5 126.5t109.5 91t77 42q-66 -133 -124.5 -254t-101.5 -230.5t-68.5 -206.5t-25.5 -183q0 -59 17.5 -117.5t49 -106t73.5 -77t91 -29.5q125 0 236 154.5t217 486.5q72 225 78 225 q35 0 35 -37q0 -8 -10.5 -58t-28 -127t-41 -172t-50 -193.5t-54 -191.5t-53 -166t-47 -117t-38.5 -44q-63 27 -161.5 49.5t-210 39t-224 25.5t-201.5 9h-34q-4 -4 -4 -12zM940 1651q35 -53 55 -121l23 -10q178 116 352 151q-35 59 -61 144q-94 -51 -185.5 -91.5 t-183.5 -72.5zM1245 670l2 -2z" />
<glyph unicode="&#xde;" horiz-adv-x="1343" d="M-70 -340q2 37 9.5 106.5t18.5 139t26.5 121t31.5 51.5q18 0 55.5 -2t82.5 -6l73 -7q16 92 39 232.5t51 339.5l-190 -12l-162 249q35 141 52.5 226.5t37 130.5t52 58t98.5 13q119 -4 199.5 -7t141 -6t105.5 -7t92 -12q8 -25 15.5 -61t13.5 -72.5t11 -70.5t8 -56 q115 -23 209 -73t166.5 -115.5t126 -141.5t87 -151.5t50 -144.5t16.5 -120q0 -78 -37 -150.5t-102.5 -132t-153.5 -102.5t-192 -63q-6 -61 -8.5 -102.5t-8.5 -61.5q-16 -86 -48 -168t-89 -152q-10 2 -64.5 9.5t-129 15.5t-161.5 18.5t-163 18.5t-131.5 13t-67.5 5zM41 -238 q10 0 54 -4t105.5 -11t131 -15t130 -15.5t104.5 -13.5t52 -8q35 43 55.5 108.5t24.5 124.5l-241 17q4 45 7 65.5t3 22.5v-4q4 0 22 114q27 -6 80 -6q119 0 231.5 28t201 79t141.5 120.5t53 153.5q0 55 -11 100.5t-40 85t-77 75.5t-122 73q-66 33 -133.5 49.5t-165.5 18.5 q-4 16 -6 83.5t-4 172.5q-92 10 -200.5 15t-233.5 5q-49 0 -71.5 -45t-35.5 -168l301 21q61 0 62 -103v-24q0 -16 -4 -53.5t-17.5 -119t-37 -221t-62.5 -360.5q-6 -35 -9 -79t-7 -99q-29 10 -69 16t-77 9t-65.5 4t-34.5 1q-12 -31 -21.5 -92t-13.5 -121zM528 285 q31 147 31 338q0 20 -1 34.5t-3 24.5q68 0 130.5 -11.5t108.5 -33t73.5 -50t27.5 -65.5q0 -55 -75 -109.5t-197 -103.5q-31 -12 -50.5 -19t-35.5 -7q-8 0 -9 2z" />
<glyph unicode="&#xdf;" horiz-adv-x="3182" d="M-82 -158q0 10 4 38t8 58.5t8.5 56t4.5 32.5q6 37 13 73.5t22.5 69.5t39 60.5t64.5 48.5h194l-24 38q-61 72 -96 180.5t-35 219.5q0 109 31.5 211t87 181t133.5 126t170 47q113 0 231 -82v4q23 -31 55.5 -54.5t69.5 -57.5l19 -19q23 61 55.5 131t70 129.5t75.5 98 t73 38.5q53 0 131 -40q78 -39 340 -369q-92 -135 -181 -268.5t-149 -237.5q55 -66 92 -147l111 -185l-10 17q10 -20 19 -41t20 -41q18 37 39.5 67.5t68.5 53.5h195l-25 38q-61 72 -96 180.5t-35 219.5q0 109 32 211t87 181t133 126t170 47q113 0 231 -82v4q23 -31 56 -54.5 t69 -57.5l19 -19q23 61 55.5 131t70.5 129.5t75.5 98t72.5 38.5q53 0 131 -40q78 -39 340 -369q-92 -135 -181 -268.5t-148 -237.5q55 -66 92 -147l110 -185l-10 17q43 -86 75 -171t40 -196v-8q0 -66 -56.5 -142.5t-143.5 -149.5t-194.5 -132t-207.5 -88q-51 -27 -230 -27 q-143 0 -338 324q-66 -6 -164 -20.5t-229 -37.5q-27 41 -47 74t-37 60q-33 -55 -94 -112.5t-136 -109t-158 -91.5t-159 -60q-41 -12 -96 -19.5t-133 -7.5q-143 0 -338 324q-66 -6 -164 -20.5t-229 -37.5q-158 252 -160 250zM37 -37q260 43 373 43q33 0 49 -6 q0 -322 270 -322q63 0 137 20.5t147.5 56.5t141.5 81t120 94.5t84 98.5t32 92v6q-6 100 -37 190.5t-83 158t-123 107.5t-157 40l-190 -31q-66 -10 -117 -16.5t-90 -6.5q-238 0 -238 181q0 197 146 196q74 0 182.5 -51t237.5 -143q94 -68 92 -68q10 41 45 107.5t84 148.5 t108.5 171t118.5 175q-63 37 -106 59.5t-72 22.5q-10 0 -29.5 -32.5t-45 -83t-53.5 -108t-53.5 -107.5t-46 -82.5t-30.5 -32.5q-4 2 -28.5 24.5t-59.5 54.5l-68 64q-66 61 -124 87t-111 28q-70 0 -128.5 -39t-101.5 -103.5t-66.5 -148.5t-23.5 -172q0 -68 15.5 -137.5 t42 -125t64.5 -90t83 -34.5q25 0 57.5 9t68.5 22.5t70.5 27.5t65.5 25q72 25 129.5 36t98.5 13q199 0 198 -256q0 -143 -88 -230.5t-235 -87.5q-76 0 -123 11.5t-81 42t-61.5 87t-62.5 146.5h-359q-16 -8 -27 -30.5t-18.5 -52.5t-12.5 -63.5t-11 -66.5zM707 2q29 -4 50 -7 t36 -3q68 0 119 27.5t77 78.5q-37 -6 -80 -21.5t-94 -33.5q-29 -12 -55.5 -21.5t-52.5 -19.5zM766 -170q2 -2 2 -4zM768 -174l4 -6q-2 2 -2 4zM1628 -35v-2q260 43 373 43q33 0 49 -6q0 -322 270 -322q63 0 137 20.5t148 56.5t141.5 81t119.5 94.5t84 98.5t32 92v6 q-6 100 -37 190.5t-83 158t-122.5 107.5t-156.5 40l-191 -31q-66 -10 -117 -16.5t-90 -6.5q-238 0 -237 181q0 197 145 196q74 0 182.5 -51t237.5 -143q94 -68 92 -68q10 41 45 107.5t84 148.5t108.5 171t118.5 175q-63 37 -106 59.5t-72 22.5q-10 0 -29.5 -32.5t-45 -83 t-53 -108t-53.5 -107.5t-46.5 -82.5t-30.5 -32.5q-4 2 -28.5 24.5t-59.5 54.5l-67 64q-66 61 -124.5 87t-111.5 28q-70 0 -128 -39t-101 -103.5t-66.5 -148.5t-23.5 -172q0 -68 15 -137.5t41.5 -125t64.5 -90t83 -34.5q25 0 57.5 9t68.5 22.5t71 27.5t65 25q72 25 129.5 36 t98.5 13q199 0 198 -256q0 -143 -88 -230.5t-235 -87.5q-76 0 -123 11.5t-81 42t-61.5 87t-62.5 146.5h-358q-16 -8 -27.5 -30.5t-18.5 -52.5t-12.5 -63.5t-11.5 -64.5zM2298 2q29 -4 50.5 -7t35.5 -3q68 0 119 27.5t77 78.5q-37 -6 -80 -21.5t-94 -33.5 q-29 -12 -55.5 -21.5t-52.5 -19.5zM2357 -170q2 -2 2 -4zM2359 -174l4 -6q-2 2 -2 4z" />
<glyph unicode="&#xe0;" d="M-4 80q0 145 22 207q37 80 106 154.5t157 129.5l-58 99q-23 27 -44 62.5t-36.5 71.5t-24.5 67.5t-9 50.5q0 68 28.5 132t77.5 119.5t112.5 100.5t131.5 74q33 14 64.5 22t62.5 12q-37 10 -77 22.5t-81 25.5l-164 163q78 78 111 159t33 190q92 -53 177 -93.5t163.5 -73 t151.5 -61t142 -59.5l144 -164q-61 -78 -92 -133t-31 -72l-86 -24q106 -100 244 -367q82 -135 79 -332q-2 -25 -2 -47v-43v-67v-80q2 -43 4.5 -93.5t6.5 -101.5q143 -12 204 -76l175 -336q-14 -109 -27.5 -168t-39.5 -88.5t-71 -36t-120 -6.5h-17q-346 4 -428 125l-43 70 q-182 -166 -410 -166q-213 0 -305 154q-231 324 -231 477zM98 27q0 -225 281 -226q147 0 271 81t231 255q63 106 69 103q12 -18 13 -93q0 -123 -31 -321q35 -49 328 -53h16q45 0 72.5 4t44 25.5t26 64.5t19.5 121q-41 43 -369 43q0 10 1 23.5t1 33.5q0 23 -1 57.5t-3 79.5 q-2 47 -3 94.5t-5 94.5q-2 47 -4 118.5t-6 169.5q4 240 -27 314q-27 82 -82 143q-53 59 -130 92t-169 33q-72 0 -147.5 -29.5t-138 -81t-103.5 -117t-41 -134.5q0 -16 6 -45t16.5 -57.5t22.5 -52.5t25 -30l172 51q6 307 127 308q74 0 135 -29t105 -78t68.5 -117.5 t24.5 -148.5q0 -25 -7 -66t-18 -80.5t-25.5 -68.5t-28.5 -29q-66 41 -125.5 67.5t-133.5 31.5q-66 0 -147.5 -36t-155.5 -93q-70 -53 -125 -127q-49 -72 -49 -295zM188 727q2 -10 9 -16zM285 180q0 86 92 137.5t246 51.5q16 0 40.5 -21t24.5 -39q0 -33 -32.5 -79t-76.5 -88 t-90.5 -71.5t-72.5 -29.5q-131 0 -131 139zM449 1634q53 -8 97 -23.5t86 -36t87 -47t98 -57.5q16 57 30.5 88t31.5 56q-53 23 -101.5 43t-94.5 39.5t-93 39t-101 42.5q0 -16 -12 -49t-28 -95zM664 700l6 -22q39 -4 67 -19q29 -12 51 17q23 29 5.5 48t-60.5 19t-69 -43z M1114 -166l2 -4q-2 2 -2 4z" />
<glyph unicode="&#xe1;" d="M-4 80q0 145 22 207q37 80 106 154.5t157 129.5l-58 99q-23 27 -44 62.5t-36.5 71.5t-24.5 67.5t-9 50.5q0 92 50 175t128 146q37 31 78 55.5t86 44.5l-197 142q-33 137 -102 225q156 66 304 131.5t289 134.5l144 -164l123 -327q-152 -39 -291 -105q119 -14 209 -77 q123 -82 291 -408q82 -135 79 -332q-2 -25 -2 -47v-43v-67v-80q2 -43 4.5 -93.5t6.5 -101.5q143 -12 204 -76l175 -336q-14 -109 -27.5 -168t-39.5 -88.5t-71 -36t-120 -6.5h-17q-346 4 -428 125l-43 70q-182 -166 -410 -166q-213 0 -305 154q-231 324 -231 477zM98 27 q0 -225 281 -226q147 0 271 81t231 255q63 106 69 103q12 -18 13 -93q0 -123 -31 -321q35 -49 328 -53h16q45 0 72.5 4t44 25.5t26 64.5t19.5 121q-41 43 -369 43q0 10 1 23.5t1 33.5q0 23 -1 57.5t-3 79.5q-2 47 -3 94.5t-5 94.5q-2 47 -4 118.5t-6 169.5q4 240 -27 314 q-27 82 -82 143q-53 59 -130 92t-169 33q-72 0 -147.5 -29.5t-138 -81t-103.5 -117t-41 -134.5q0 -16 6 -45t16.5 -57.5t22.5 -52.5t25 -30l172 51q6 307 127 308q74 0 135 -29t105 -78t68.5 -117.5t24.5 -148.5q0 -25 -7 -66t-18 -80.5t-25.5 -68.5t-28.5 -29 q-66 41 -125.5 67.5t-133.5 31.5q-66 0 -147.5 -36t-155.5 -93q-70 -53 -125 -127q-49 -72 -49 -295zM188 727q2 -10 9 -16zM285 180q0 86 92 137.5t246 51.5q16 0 40.5 -21t24.5 -39q0 -33 -32.5 -79t-76.5 -88t-90.5 -71.5t-72.5 -29.5q-131 0 -131 139zM295 1669 q38 -57 61 -143q186 131 369 164q-35 57 -61 143q-94 -51 -185.5 -91t-183.5 -73zM664 700l6 -22q39 -4 67 -19q29 -12 51 17q23 29 5.5 48t-60.5 19t-69 -43zM1114 -166l2 -4q-2 2 -2 4z" />
<glyph unicode="&#xe2;" d="M-4 80q0 74 5 127t17 80q35 80 106 154.5t157 129.5l-58 99q-23 27 -44 62.5t-36.5 71.5t-24.5 67.5t-9 50.5q0 57 21.5 112.5t57 104.5t85 92t104.5 76l-311 364q141 61 260.5 133t230.5 133q47 -61 162 -124.5t289 -141.5l143 -164q-16 -16 -68.5 -67t-144.5 -144 q121 -90 283 -401q41 -70 60 -151.5t19 -180.5q-2 -12 -2 -24v-23v-43v-67v-80q0 -43 3.5 -93.5t7.5 -101.5q143 -12 204 -76l175 -336q-14 -109 -27.5 -168t-39.5 -88.5t-71 -36t-120 -6.5h-17q-344 2 -428 125l-43 70q-182 -166 -410 -166q-213 0 -305 154 q-231 324 -231 477zM98 27q0 -225 281 -226q147 0 271 81t231 255q63 106 69 103q12 -18 13 -93q0 -123 -31 -321q35 -49 328 -53h16q45 0 72.5 4t44 25.5t26 64.5t19.5 121q-41 43 -369 43q0 10 1 23.5t1 33.5q0 53 -1 108.5t-4 126t-7 161.5t-10 218v46q0 104 -7.5 170.5 t-20.5 109.5t-33.5 71.5t-47.5 59.5q-53 59 -130 92t-169 33q-72 0 -147.5 -29.5t-138 -81t-103.5 -117t-41 -134.5q0 -16 6 -45t16.5 -57.5t22.5 -52.5t25 -30l172 51q6 307 127 308q74 0 135 -29t105 -78t68.5 -117.5t24.5 -148.5q0 -25 -7 -66t-18 -80.5t-25.5 -68.5 t-28.5 -29q-66 41 -125.5 67.5t-133.5 31.5q-49 0 -108 -21.5t-118.5 -56.5t-112 -81t-89.5 -97q-49 -72 -49 -295zM188 727q4 -12 9 -16zM250 1651q16 -47 30.5 -66.5t30.5 -36.5l21 -20q31 23 58.5 39t52 31.5t48 33t46.5 39.5q47 -47 95 -79.5t109 -63.5l103 102 q-78 47 -152 92t-135 93q-78 -47 -153.5 -82t-153.5 -82zM285 180q0 86 92 137.5t246 51.5q16 0 40.5 -21t24.5 -39q0 -33 -32.5 -79t-76.5 -88t-90.5 -71.5t-72.5 -29.5q-131 0 -131 139zM664 700l6 -22q27 -2 48 -12.5t36 -10.5q16 0 31.5 16.5t15.5 33.5q0 16 -18.5 27 t-49.5 11q-43 0 -69 -43zM1114 -166l2 -4q-2 2 -2 4z" />
<glyph unicode="&#xe3;" d="M-4 80q0 74 5 127t17 80q35 80 106 154.5t157 129.5q-63 100 -97 157.5t-43 74.5q-14 37 -23 68.5t-9 50.5q0 63 24.5 122.5t66.5 111.5t97 96t115 75q-145 119 -283 197q61 154 139 230.5t189 76.5q33 0 65.5 -12.5t64 -26.5t60.5 -26.5t53 -12.5q35 0 61.5 21.5 t55.5 70.5q156 -117 234 -178l143 -164q-53 -94 -114.5 -149.5t-125.5 -71.5q117 -98 267 -387q41 -70 60 -151.5t19 -180.5q-2 -12 -2 -24v-23v-43v-67v-80q0 -43 3.5 -93.5t7.5 -101.5q143 -12 204 -76l175 -336q-14 -109 -27.5 -168t-39.5 -88.5t-71 -36t-120 -6.5h-17 q-344 2 -428 125l-43 70q-182 -166 -410 -166q-213 0 -305 154q-231 324 -231 477zM98 27q0 -225 281 -226q147 0 271 81t231 255q63 106 69 103q12 -18 13 -93q0 -123 -31 -321q35 -49 328 -53h16q45 0 72.5 4t44 25.5t26 64.5t19.5 121q-41 43 -369 43q0 10 1 23.5t1 33.5 q0 53 -1 108.5t-4 126t-7 161.5t-10 218v46q0 104 -7.5 170.5t-20.5 109.5t-33.5 71.5t-47.5 59.5q-53 59 -130 92t-169 33q-72 0 -147.5 -29.5t-138 -81t-103.5 -117t-41 -134.5q0 -16 6 -45t16.5 -57.5t22.5 -52.5t25 -30l172 51q6 307 127 308q74 0 135 -29t105 -78 t68.5 -117.5t24.5 -148.5q0 -25 -7 -66t-18 -80.5t-25.5 -68.5t-28.5 -29q-66 41 -125.5 67.5t-133.5 31.5q-49 0 -108 -21.5t-118.5 -56.5t-112 -81t-89.5 -97q-49 -72 -49 -295zM252 1585q47 -16 76.5 -40.5t46.5 -41.5q20 61 42.5 82t39.5 21q23 0 59.5 -16.5t76.5 -35 t80 -35t70 -16.5q123 0 185 123q-47 47 -77 66.5t-46 36.5l-103 -82q-31 0 -64.5 9t-66 21.5t-62.5 21.5t-52 9q-78 0 -133.5 -30.5t-71.5 -92.5zM285 180q0 86 92 137.5t246 51.5q16 0 40.5 -21t24.5 -39q0 -33 -32.5 -79t-76.5 -88t-90.5 -71.5t-72.5 -29.5 q-131 0 -131 139zM664 700l6 -22q27 -2 48 -12.5t36 -10.5q16 0 31.5 16.5t15.5 33.5q0 16 -18.5 27t-49.5 11q-43 0 -69 -43zM1114 -166l2 -4q-2 2 -2 4z" />
<glyph unicode="&#xe4;" d="M-4 80q0 74 5 127t17 80q35 80 106 154.5t157 129.5l-58 99q-23 27 -44 62.5t-36.5 71.5t-24.5 67.5t-9 50.5q0 92 49 176t129 145l55 43l-14 14q-41 51 -73 107.5t-32 103.5q0 41 20.5 80t54.5 70t77 49.5t90 18.5q25 0 43 -5.5t33.5 -18.5t34 -38t42.5 -61 q29 51 83.5 87t127.5 36q29 0 72 -27t83 -72t68.5 -102.5t28.5 -118.5q0 -41 -25.5 -83t-64.5 -77q53 -55 109.5 -143t120.5 -211q41 -70 60 -151.5t19 -180.5q-2 -12 -2 -24v-23v-43v-67v-80q0 -43 3.5 -93.5t7.5 -101.5q143 -12 204 -76l175 -336q-14 -109 -27.5 -168 t-39.5 -88.5t-71 -36t-120 -6.5h-17q-344 2 -428 125l-43 70q-182 -166 -410 -166q-213 0 -305 154q-231 324 -231 477zM98 27q0 -225 281 -226q147 0 271 81t231 255q63 106 69 103q12 -18 13 -93q0 -123 -31 -321q35 -49 328 -53h16q45 0 72.5 4t44 25.5t26 64.5t19.5 121 q-41 43 -369 43q0 10 1 23.5t1 33.5q0 53 -1 108.5t-4 126t-7 161.5t-10 218v46q0 104 -7.5 170.5t-20.5 109.5t-33.5 71.5t-47.5 59.5q-53 59 -130 92t-169 33q-72 0 -147.5 -29.5t-138 -81t-103.5 -117t-41 -134.5q0 -16 6 -45t16.5 -57.5t22.5 -52.5t25 -30l172 51 q6 307 127 308q74 0 135 -29t105 -78t68.5 -117.5t24.5 -148.5q0 -25 -7 -66t-18 -80.5t-25.5 -68.5t-28.5 -29q-66 41 -125.5 67.5t-133.5 31.5q-49 0 -108 -21.5t-118.5 -56.5t-112 -81t-89.5 -97q-49 -72 -49 -295zM188 727q4 -12 9 -16zM285 180q0 86 92 137.5t246 51.5 q16 0 40.5 -21t24.5 -39q0 -33 -32.5 -79t-76.5 -88t-90.5 -71.5t-72.5 -29.5q-131 0 -131 139zM326 1507q0 -12 8 -24.5t19.5 -23.5t23.5 -18t20 -7q14 0 36 11t40.5 29.5t31.5 40t13 44.5t-16 45t-47 22q-49 0 -89 -37t-40 -82zM664 700l6 -22q27 -2 48 -12.5t36 -10.5 q16 0 31.5 16.5t15.5 33.5q0 16 -18.5 27t-49.5 11q-43 0 -69 -43zM690 1507q0 -12 8.5 -24.5t19.5 -23.5t23.5 -18t20.5 -7q14 0 35.5 11t40 29.5t32 40t13.5 44.5t-16.5 45t-47.5 22q-49 0 -89 -37t-40 -82zM1114 -166l2 -4q-2 2 -2 4z" />
<glyph unicode="&#xe5;" d="M-4 80q0 74 5 127t17 80q35 80 106 154.5t157 129.5l-58 99q-23 27 -44 62.5t-36.5 71.5t-24.5 67.5t-9 50.5q0 68 28.5 131t75.5 118.5t110.5 99.5t131.5 75q-53 49 -86 108t-33 123q0 150 66.5 219.5t207.5 69.5q70 0 139.5 -35t126 -89t92.5 -122t36 -133 q0 -125 -66 -191q121 -90 283 -401q41 -70 60 -151.5t19 -180.5q-2 -12 -2 -24v-23v-43v-67v-80q0 -43 3.5 -93.5t7.5 -101.5q143 -12 204 -76l175 -336q-14 -109 -27.5 -168t-39.5 -88.5t-71 -36t-120 -6.5h-17q-344 2 -428 125l-43 70q-182 -166 -410 -166 q-213 0 -305 154q-231 324 -231 477zM98 27q0 -225 281 -226q147 0 271 81t231 255q63 106 69 103q12 -18 13 -93q0 -123 -31 -321q35 -49 328 -53h16q45 0 72.5 4t44 25.5t26 64.5t19.5 121q-41 43 -369 43q0 10 1 23.5t1 33.5q0 53 -1 108.5t-4 126t-7 161.5t-10 218v46 q0 104 -7.5 170.5t-20.5 109.5t-33.5 71.5t-47.5 59.5q-53 59 -130 92t-169 33q-72 0 -147.5 -29.5t-138 -81t-103.5 -117t-41 -134.5q0 -16 6 -45t16.5 -57.5t22.5 -52.5t25 -30l172 51q6 307 127 308q74 0 135 -29t105 -78t68.5 -117.5t24.5 -148.5q0 -25 -7 -66 t-18 -80.5t-25.5 -68.5t-28.5 -29q-66 41 -125.5 67.5t-133.5 31.5q-49 0 -108 -21.5t-118.5 -56.5t-112 -81t-89.5 -97q-49 -72 -49 -295zM188 727q4 -12 9 -16zM285 180q0 86 92 137.5t246 51.5q16 0 40.5 -21t24.5 -39q0 -33 -32.5 -79t-76.5 -88t-90.5 -71.5 t-72.5 -29.5q-131 0 -131 139zM412 1577q0 -166 213 -166q29 0 60.5 7t59 28.5t45 59.5t17.5 102q0 92 -46.5 137t-150.5 45q-106 0 -152 -54.5t-46 -158.5zM487 1591q0 138 123 138q57 0 89 -34t32 -104q0 -57 -31.5 -89t-89.5 -32q-59 0 -91 32t-32 89zM664 700l6 -22 q27 -2 48 -12.5t36 -10.5q16 0 31.5 16.5t15.5 33.5q0 16 -18.5 27t-49.5 11q-43 0 -69 -43zM1114 -166l2 -4q-2 2 -2 4z" />
<glyph unicode="&#xe6;" horiz-adv-x="2404" d="M-4 80q0 92 16.5 160.5t51 124t88 104.5t129.5 102q-37 35 -68 82t-54.5 96.5t-36.5 95.5t-13 77q0 90 50 174t128 148.5t172 103t182 38.5q72 0 132.5 -12t113.5 -43t104 -84t105 -137q53 66 116.5 120t132 94t139 62.5t138.5 22.5q86 0 151.5 -12.5t117 -34t90 -54 t69.5 -71.5q10 -12 30.5 -46t47 -80t54.5 -97t50.5 -97.5t37 -81t14.5 -47.5q0 -74 -177 -280q106 -47 201 -139l148 -246v-47q0 -70 -36 -148t-96.5 -153.5t-141.5 -146t-172 -125t-186 -87t-186 -34.5q-115 0 -208 16t-170.5 58t-142 114t-120.5 182q-31 -45 -86 -97 t-120.5 -98t-134 -77t-124.5 -31q-111 0 -209 51t-170.5 138.5t-114.5 201t-42 240.5zM98 27q0 -225 281 -226q96 0 189.5 26t173 74t142 119.5t99.5 163.5q23 -100 67 -183t107.5 -142.5t145 -92t180.5 -32.5q78 0 163 26.5t164.5 72.5t151.5 106.5t126 127t86 135 t32 130.5v4q-109 94 -197 110q-14 -205 -101 -311t-235 -106q-72 0 -142.5 27.5t-127.5 73.5t-94 104.5t-39 121.5l782 607q-8 55 -25.5 116.5t-60.5 111.5t-120 83t-204 33q-86 0 -166.5 -31t-153.5 -86t-135.5 -132t-109.5 -169q-14 82 -51 154.5t-92 126t-129 84 t-164 30.5q-72 0 -147.5 -29.5t-138 -81t-103.5 -117t-41 -134.5q0 -16 6 -45t16.5 -57.5t22.5 -52.5t25 -30l172 51q6 307 127 308q129 -14 198.5 -74.5t105.5 -145.5t50 -185.5t31 -192.5q-82 41 -183.5 60.5t-206.5 19.5q-109 0 -196.5 -44.5t-150 -120t-96.5 -176 t-34 -210.5zM285 180q0 86 92 137.5t246 51.5q16 0 40.5 -21t24.5 -39q0 -33 -32.5 -79t-76.5 -88t-90.5 -71.5t-72.5 -29.5q-131 0 -131 139zM664 700l6 -22q27 -2 48 -12.5t36 -10.5q16 0 31.5 16.5t15.5 33.5q0 16 -18.5 27t-49.5 11q-43 0 -69 -43zM1204 563 q0 109 20.5 208t71 175t133 121t209.5 45q70 0 111 -35t80 -100l-574 -475h-12q-23 0 -31 9t-8 52zM1624 135q8 -8 49 -8q135 0 201 201z" />
<glyph unicode="&#xe7;" horiz-adv-x="1536" d="M-104 498q0 209 54 365.5t148.5 263t223.5 159.5t276 53q119 0 205 -24.5t144.5 -57t93 -66.5t51.5 -52l249 186q23 -6 61 -31.5t79 -64.5q18 -18 80.5 -110.5t167.5 -260.5q2 -6 6 -10l4 -8l-496 -430q-117 106 -185.5 165.5t-112.5 88t-75.5 35t-72.5 6.5 q-61 0 -121 -36t-105 -96.5t-72.5 -138.5t-27.5 -160q0 -125 47 -175t119 -50h12q10 0 15 2q29 0 64.5 29t69 66.5t59.5 74.5t36 53q16 29 44 76t60 107q66 -10 137.5 -36t122.5 -75q16 -16 66.5 -99t132.5 -233q-141 -190 -243.5 -311t-172.5 -180q23 -33 32 -74t9 -88 q0 -84 -22.5 -136t-62.5 -81t-96 -39t-126 -10q-35 0 -71.5 7t-82 33.5t-101.5 79t-132 144.5q-25 29 -46.5 79t-37.5 128h31q18 0 28 2q-53 45 -95 97t-77 110l-96 162q-98 123 -148 270t-50 291zM-2 498q0 -109 34 -224.5t96 -216t151.5 -173t197.5 -93.5h72 q0 -68 13 -102.5t33.5 -51t45.5 -21.5t45.5 -12t33.5 -23.5t13 -55.5q0 -47 -27.5 -64.5t-74.5 -17.5h-19q-51 8 -84.5 23.5t-52.5 25.5q-18 -8 -49 -8q0 -39 20.5 -65.5t49 -44t60.5 -25.5t54 -8q111 0 168.5 43t57.5 120q0 68 -12.5 108t-33 59.5t-45 24.5t-51.5 5 q-18 0 -30.5 13.5t-12.5 76.5q63 8 88 14.5t41 12.5q76 25 147.5 68.5t129 101t96.5 127t49 145.5q-16 41 -61 60.5t-86 25.5q-10 -27 -46 -92.5t-90.5 -133t-120 -119.5t-134.5 -52q-86 0 -166 33.5t-141.5 103.5t-98.5 177.5t-37 252.5q0 121 34 221.5t91 171t134 109.5 t163 39q57 0 100 -8.5t89.5 -36t106.5 -78.5t153 -137l378 327q-4 10 -17 24.5t-29.5 28t-33 24.5t-26.5 13l-297 -221q-2 27 -35 69t-95.5 81t-156.5 66.5t-221 27.5q-113 0 -214 -48t-178 -142.5t-123 -231.5t-46 -317z" />
<glyph unicode="&#xe8;" horiz-adv-x="1492" d="M-27 399q0 205 62.5 385.5t173.5 321.5q133 170 319 256q-23 8 -47 14t-51 15l-164 163q78 78 111 159t33 190q92 -53 177 -93.5t163.5 -73t151.5 -61t142 -59.5l144 -164q-12 -14 -27.5 -33.5t-31 -40t-25.5 -38t-10 -25.5q0 -2 -2 -4q25 -20 43 -38t37.5 -45.5 t47 -73.5t70.5 -122q47 -86 78 -149.5t31 -94.5q0 -74 -176 -280q53 -23 103 -57.5t97 -81.5l148 -246v-47q0 -70 -36 -148t-95.5 -153.5t-139 -146t-168 -125t-180.5 -87t-176 -34.5h-22q-170 0 -295 75q-127 74 -262 281q-131 203 -179 346q-45 135 -45 315zM76 399 q0 -143 35.5 -265t102.5 -211t164 -139t220 -50q78 0 163 26.5t165 72.5t151.5 106.5t125.5 127t86 135t32 130.5v4q-109 94 -197 110q-14 -205 -101 -311t-235 -106q-72 0 -142.5 27.5t-127.5 73.5t-94 104.5t-39 121.5l782 607q-8 55 -25.5 116.5t-60.5 111.5t-119.5 83 t-203.5 33q-133 0 -257 -74t-218.5 -198t-150.5 -288.5t-56 -347.5zM319 563q0 109 20.5 208t71 175t133.5 121t210 45q70 0 110.5 -35t79.5 -100l-573 -475h-13q-23 0 -31 9t-8 52zM451 1595q53 -8 97 -23.5t86 -35.5t87 -47t98 -57l62 143q-53 23 -101.5 43t-94.5 39.5 t-93 39t-100 42.5q0 -16 -12.5 -49t-28.5 -95zM739 139q16 -8 49 -8q135 0 201 197z" />
<glyph unicode="&#xe9;" horiz-adv-x="1492" d="M-27 399q0 205 62.5 385.5t173.5 321.5q106 137 252 221l6 4l-88 64q-33 137 -103 225q156 66 304.5 131.5t289.5 134.5l144 -164l123 -327q-33 -10 -64 -17.5t-59 -17.5q94 -47 151 -123q16 -23 48 -75t77 -130t72 -135t35 -94q18 -72 -174 -295q106 -47 200 -139 l148 -246v-47q0 -70 -36 -148t-95.5 -153.5t-139 -146t-168 -125t-180.5 -87t-176 -34.5h-22q-166 0 -294 74.5t-208 209.5l-102 172q-86 104 -131.5 245.5t-45.5 315.5zM76 399q0 -147 37 -269t104 -210q33 -41 73 -75.5t91 -61.5q100 -49 206.5 -48t188.5 29 q100 35 198.5 99.5t175.5 143.5t124 164t47 161v4q-109 94 -197 110q-14 -205 -101 -311t-235 -106q-72 0 -142.5 27.5t-127.5 73.5t-94 104.5t-39 121.5l782 607q-8 55 -25.5 116.5t-60.5 111.5t-119.5 83t-203.5 33q-129 0 -256 -74t-221 -199t-149.5 -289.5t-55.5 -345.5 zM324 518q-10 18 0 148q4 66 15 117t32 89q39 78 115.5 145.5t193.5 86.5q109 20 166 -14q51 -33 98 -113l-573 -475q-39 -2 -47 16zM420 1579q38 -57 61 -143q186 131 369 163q-35 57 -62 144q-94 -51 -185 -91t-183 -73zM739 135q10 -2 16.5 -3t8.5 -1h24q135 0 201 197z " />
<glyph unicode="&#xea;" horiz-adv-x="1492" d="M-27 399q0 205 62.5 385.5t173.5 321.5q100 129 242 215l-238 281q141 61 261 132.5t231 133.5q47 -61 161.5 -125t288.5 -141l143 -164q-47 -47 -88 -94.5t-67 -79.5q-2 0 17.5 -29t47 -73t61.5 -98t62.5 -107.5t48 -98.5t19.5 -70q0 -74 -176 -280q53 -23 103 -57.5 t97 -81.5l148 -246v-47q0 -70 -36 -148t-95.5 -153.5t-139 -146t-168 -125t-180.5 -87t-176 -34.5h-22q-166 0 -294 74.5t-208 209.5l-102 172q-86 104 -131.5 245.5t-45.5 315.5zM76 399q0 -143 35.5 -265t102.5 -211t164 -139t220 -50q78 0 163 26.5t165 72.5t151.5 106.5 t125.5 127t86 135t32 130.5v4q-109 94 -197 110q-14 -205 -101 -311t-235 -106q-72 0 -142.5 27.5t-127.5 73.5t-94 104.5t-39 121.5l782 607q-8 55 -25.5 116.5t-60.5 111.5t-119.5 83t-203.5 33q-133 0 -257 -74t-218.5 -198t-150.5 -288.5t-56 -347.5zM319 563 q0 109 20.5 208t71 175t133.5 121t210 45q70 0 110.5 -35t79.5 -100l-573 -475h-13q-23 0 -31 9t-8 52zM397 1581q16 -47 30.5 -66.5t31.5 -35.5l20 -21q31 23 58.5 39t52 31.5t48.5 33t46 40.5q47 -47 95 -80t110 -64l102 103q-78 47 -151.5 92t-134.5 92q-78 -47 -154 -82 t-154 -82zM739 135q10 -2 16.5 -3t8.5 -1h24q135 0 201 197z" />
<glyph unicode="&#xeb;" horiz-adv-x="1492" d="M-27 399q0 205 62.5 385.5t173.5 321.5q51 66 111.5 121t132.5 96q-51 53 -89 116.5t-38 116.5q0 41 20.5 80t54 70t76.5 49.5t90 18.5q25 0 43.5 -5.5t33.5 -18.5t33.5 -37.5t43.5 -61.5q29 51 83 87t128 36q29 0 72 -27t82.5 -72t68.5 -102t29 -119q0 -39 -23.5 -78 t-58.5 -73q23 8 53.5 -21t63 -79t64.5 -112.5t57.5 -122t42 -108.5t16.5 -72q0 -74 -176 -280q53 -23 103 -57.5t97 -81.5l148 -246v-47q0 -70 -36 -148t-95.5 -153.5t-139 -146t-168 -125t-180.5 -87t-176 -34.5h-22q-166 0 -294 74.5t-208 209.5l-102 172 q-86 104 -131.5 245.5t-45.5 315.5zM76 399q0 -143 35.5 -265t102.5 -211t164 -139t220 -50q78 0 163 26.5t165 72.5t151.5 106.5t125.5 127t86 135t32 130.5v4q-109 94 -197 110q-14 -205 -101 -311t-235 -106q-72 0 -142.5 27.5t-127.5 73.5t-94 104.5t-39 121.5l782 607 q-8 55 -25.5 116.5t-60.5 111.5t-119.5 83t-203.5 33q-133 0 -257 -74t-218.5 -198t-150.5 -288.5t-56 -347.5zM319 563q0 109 20.5 208t71 175t133.5 121t210 45q70 0 111.5 -35t78.5 -100l-573 -475h-13q-23 0 -31 9t-8 52zM428 1552q0 -12 8 -24t19.5 -23.5t24 -18.5 t20.5 -7q14 0 35.5 11t40 29.5t32 40t13.5 44.5t-16.5 45t-47.5 22q-49 0 -89 -37t-40 -82zM739 135q10 -2 16.5 -3t8.5 -1h24q135 0 201 197zM793 1552q0 -12 8 -24t19 -23.5t23.5 -18.5t20.5 -7q14 0 36 11t40 29.5t31.5 40t13.5 44.5t-16 45t-47 22q-49 0 -89 -37 t-40 -82z" />
<glyph unicode="&#xec;" horiz-adv-x="786" d="M-31 -70q0 51 12.5 117t34 123t50 96t59.5 39q14 0 32.5 -3t45.5 -7q6 43 14 91t16 101l-147 246l-6 -2q-25 72 -31 102.5t-12 43.5v55q0 47 55 201l314 133q4 2 8 3t8 3q-53 18 -115.5 36.5t-132.5 39.5l-164 163q78 78 111 159t33 190q92 -53 177 -93.5t163.5 -73 t151.5 -61t142 -59.5l144 -164q-61 -78 -92 -133t-31 -72l-123 -35q14 -25 36.5 -58.5t43 -70t35 -76.5t14.5 -77q0 -18 -11 -87t-26.5 -163t-34 -202.5t-32.5 -209.5l153 -260q0 2 -4 -25.5t-8 -64.5t-9 -72.5t-7 -48.5q-12 -57 -47 -98t-121 -41l-539 66zM72 23l454 -56 q29 0 42.5 18.5t19.5 46t7 57.5t5 52l-68 11q-2 2 -30 2h-78q-8 8 -8 47q0 10 11 79.5t27.5 168t36 212t36 215t27.5 175t11 92.5q0 63 -20 71q-23 -16 -62 -29.5t-84 -28.5t-91 -33.5t-84 -44t-61.5 -59.5t-23.5 -81q0 -63 2 -66l260 125q6 -4 7 -32q0 -12 -8.5 -70.5 t-20.5 -140.5t-27.5 -177.5t-29 -180.5t-22.5 -147.5t-11 -82.5q-104 37 -164 37q-10 0 -20.5 -18.5t-17.5 -46t-11 -59.5t-4 -56zM195 1552q53 -8 97 -23.5t86 -35.5t87 -46.5t98 -57.5q16 57 30.5 87.5t31.5 55.5q-53 23 -101.5 43t-94.5 39.5t-93 39t-100 42.5 q0 -16 -12.5 -49t-28.5 -95z" />
<glyph unicode="&#xed;" horiz-adv-x="786" d="M-31 -70q0 51 12.5 117t34 123t50 96t59.5 39q14 0 32.5 -3t45.5 -7q6 43 14 91t16 101l-147 246l-6 -2q-16 49 -24.5 78t-12.5 45t-6 23v55q0 47 55 201l242 102l-211 151q-33 137 -103 226q156 66 304.5 131t289.5 135l144 -164l123 -328q-158 -41 -287 -100 q41 -41 90 -114.5t107 -184.5q25 -43 24 -100q0 -18 -11 -87t-26.5 -163t-34 -202.5t-32.5 -209.5l153 -260q0 -2 -3 -24.5t-7 -63.5q-10 -86 -18 -123q-10 -57 -46 -98t-122 -41l-539 66zM72 23l454 -56q29 0 42.5 18.5t19.5 46t7 57.5t5 52l-68 11q-2 2 -30 2h-78 q-8 8 -8 47q0 10 11 79.5t27.5 168t36 212t36 215t27.5 175t11 92.5q0 63 -20 71q-41 -29 -108.5 -47t-135.5 -47t-115 -76t-47 -106q0 -63 2 -66l260 125q6 -4 7 -32q0 -12 -8.5 -70.5t-20.5 -140.5t-27.5 -177.5t-29 -180.5t-22.5 -147.5t-11 -82.5q-104 37 -164 37 q-10 0 -20.5 -18.5t-17.5 -46t-11 -59.5t-4 -56zM164 1571q38 -58 61 -144q186 131 369 164q-35 57 -62 144q-94 -51 -185 -91t-183 -73z" />
<glyph unicode="&#xee;" horiz-adv-x="786" d="M-90 1571q141 61 261 133t230 133q47 -61 162 -124.5t289 -141.5l143 -164q-31 -31 -60.5 -63.5t-53.5 -61.5l-43 -51q-10 -10 -16.5 -17.5t-10.5 -11.5l-102 -20q-23 4 -41 12q16 -25 41.5 -60.5t49 -77.5t40 -86t16.5 -83q0 -18 -11 -87t-26.5 -163t-34 -202.5 t-32.5 -209.5l153 -260q0 2 -4 -25.5t-8 -64.5t-9 -72.5t-7 -48.5q-12 -57 -47 -98t-121 -41l-539 66l-160 249q0 51 12.5 117t34 123t50 96t59.5 39q14 0 32.5 -3t45.5 -7q6 43 14 91t16 101l-147 246l-6 -2q-25 72 -31 102.5t-12 43.5v55q0 47 55 201l141 59zM72 23 l454 -56q29 0 42.5 18.5t19.5 46t7 57.5t5 52l-68 11q-2 2 -30 2h-78q-8 8 -8 47q0 10 11 79.5t27.5 168t36 212t36 215t27.5 175t11 92.5q0 63 -20 71q-23 -16 -62 -29.5t-84 -28.5t-91 -33.5t-84 -44t-61.5 -59.5t-23.5 -81q0 -63 2 -66l260 125q6 -4 7 -32 q0 -12 -8.5 -70.5t-20.5 -140.5t-27.5 -177.5t-29 -180.5t-22.5 -147.5t-11 -82.5q-104 37 -164 37q-10 0 -20.5 -18.5t-17.5 -46t-11 -59.5t-4 -56zM94 1550q16 -47 30.5 -66.5t31.5 -35.5l20 -21q31 23 58.5 39.5t52 31.5t48 32.5t46.5 40.5q47 -47 95.5 -80t109.5 -64 l102 103q-78 47 -151.5 92t-135.5 92q-78 -47 -153.5 -82t-153.5 -82z" />
<glyph unicode="&#xef;" horiz-adv-x="786" d="M-31 -70q0 51 12.5 117t34 123t50 96t59.5 39q14 0 32.5 -3t45.5 -7q6 43 14 91t16 101l-147 246l-6 -2q-25 72 -31 102.5t-12 43.5v55q0 47 55 201l158 65q-33 25 -69 60.5t-64.5 76.5t-48 83t-19.5 79q0 41 20.5 80t54.5 69.5t77 49t90 18.5q25 0 43 -5t33.5 -18.5 t34 -38t42.5 -61.5q29 51 83.5 87t127.5 36q29 0 72 -26.5t83 -71.5t68.5 -102.5t28.5 -118.5q0 -37 -23.5 -78t-57 -74t-71.5 -54.5t-69 -21.5q14 -25 36.5 -57.5t43 -69t35 -75.5t14.5 -78q0 -18 -11 -87t-26.5 -163t-34 -202.5t-32.5 -209.5l153 -260q0 2 -4 -25.5 t-8 -64.5t-9 -72.5t-7 -48.5q-12 -57 -47 -98t-121 -41l-539 66zM72 23l454 -56q29 0 42.5 18.5t19.5 46t7 57.5t5 52l-68 11q-2 2 -30 2h-78q-8 8 -8 47q0 10 11 79.5t27.5 168t36 212t36 215t27.5 175t11 92.5q0 63 -20 71q-23 -16 -62 -29.5t-84 -28.5t-91 -33.5t-84 -44 t-61.5 -59.5t-23.5 -81q0 -63 2 -66l260 125q6 -4 7 -32q0 -12 -8.5 -70.5t-20.5 -140.5t-27.5 -177.5t-29 -180.5t-22.5 -147.5t-11 -82.5q-104 37 -164 37q-10 0 -20.5 -18.5t-17.5 -46t-11 -59.5t-4 -56zM152 1493q0 -12 8 -24.5t19 -23.5t23.5 -18.5t20.5 -7.5 q14 0 36 11.5t40 30t31.5 40t13.5 43.5q0 23 -16 45.5t-47 22.5q-49 0 -89 -37t-40 -82zM516 1493q0 -12 8 -24.5t19.5 -23.5t24 -18.5t20.5 -7.5q14 0 35.5 11.5t40 30t32 40t13.5 43.5q0 23 -16.5 45.5t-47.5 22.5q-49 0 -89 -37t-40 -82z" />
<glyph unicode="&#xf0;" horiz-adv-x="1503" d="M-66 -211l84 383q25 2 56.5 3t48.5 1l-100 123l38 414h281l12 6v78h-233l-162 250q27 133 45.5 218t38.5 133t45 66.5t64 18.5q51 0 91 -5t74 -5h5q352 -12 574 -68.5t343 -175.5q86 -84 149.5 -191.5t105.5 -226.5t62.5 -239.5t20.5 -231.5q-2 -193 -65.5 -343.5 t-185.5 -253.5t-299 -157.5t-406 -54.5h-525zM61 -117h406q193 0 349.5 41t268 130t174 229.5t66.5 337.5q0 195 -44 333t-157.5 227t-308 134t-498.5 55q-18 0 -39.5 2t-42 3t-35 3t-20.5 2h-28q-8 0 -14.5 -9t-12.5 -33.5t-15.5 -67.5t-23.5 -111l320 25q27 0 39 -95.5 t12 -297.5v-166h-330l-6 -183l39 -26l293 20q-4 -104 -9.5 -185t-13.5 -140q-4 -16 -328 -37zM594 104q12 70 18 334l361 -16l26 20l-10 205l-28 27l-347 -33q2 29 2 59v64v135q0 219 -8 234q109 0 208 -43t174 -116t120 -170t45 -206q-2 -80 -56.5 -164t-136 -154.5 t-180 -118.5t-188.5 -57z" />
<glyph unicode="&#xf1;" horiz-adv-x="1482" d="M-139 999l559 318q-127 102 -250 170q61 154 139 230.5t189 76.5q33 0 65.5 -12.5t64 -26.5t60.5 -26.5t53 -12.5q35 0 61.5 21.5t55.5 70.5q156 -117 234 -178l143 -164q-72 -127 -154 -182q53 -23 124 -82t133.5 -147t105.5 -202t43 -245q0 -111 -22.5 -245t-69.5 -263 l96 -157q18 -20 30.5 -47t19.5 -54.5t10 -53.5t3 -44q0 -29 -7 -82t-21 -139q-283 16 -471.5 24.5t-292.5 8.5q-117 0 -198 -20.5t-137 -48.5t-92 -55.5t-63 -41.5q-16 33 -38.5 71.5t-46 73.5t-43 61.5t-31.5 36.5v422l182 103q-10 92 -22.5 173t-24.5 150l-76 -28 q-61 33 -121 129q-184 260 -190 417zM-35 940q4 -92 62 -125l196 78q117 -160 183 -793l-183 -106v-178q27 18 77 38.5t105.5 39t108.5 33t88 18.5l-70 805q70 111 153 174t187 63q195 0 195 -194q0 -53 -12.5 -122t-44 -172.5t-86 -252t-136.5 -361.5l504 -8q12 70 13 123 q0 98 -43 147q-78 -29 -140.5 -50t-109.5 -31q111 211 168 414.5t57 383.5q0 82 -13.5 147.5t-47 109.5t-89 67.5t-139.5 23.5h-12q-111 0 -191.5 -29.5t-138 -75.5t-93.5 -103.5t-56 -112.5l-74 287zM293 1548q47 -16 76.5 -40.5t46.5 -41.5q20 61 42.5 82t39.5 21 q23 0 59.5 -16.5t76.5 -35t80 -35t70 -16.5q123 0 185 123q-47 47 -77 67t-46 36q-16 -47 -35.5 -64.5t-67.5 -17.5q-31 0 -64.5 9t-66 21.5t-62.5 21.5t-52 9q-78 0 -133.5 -30.5t-71.5 -92.5zM784 467l21 -242q90 242 90 340q0 21 -2 27q-37 -37 -64.5 -67.5t-44.5 -57.5z " />
<glyph unicode="&#xf2;" horiz-adv-x="1310" d="M-59 362q0 154 43 302.5t117.5 273.5t176 218t216.5 136q-29 8 -57.5 16.5t-59.5 18.5l-164 164q78 78 110.5 159t32.5 189q92 -53 177 -93t164 -73t152 -61.5t142 -59.5l144 -163q-39 -49 -63.5 -89t-41.5 -71q-2 -4 -4 -6t-4 -6q172 -123 297 -383q92 -154 92 -408 q0 -195 -59.5 -365t-167 -296.5t-260 -200.5t-338.5 -74q-76 0 -130.5 14.5t-101.5 42.5q-51 29 -135 138t-207 295q-72 264 -71 382zM43 362q0 -113 25.5 -208t75 -164.5t122 -108.5t166.5 -39q166 0 300 66.5t229.5 180.5t147.5 266.5t52 326.5q0 543 -481 543 q-127 0 -242.5 -73t-204 -193.5t-139.5 -276.5t-51 -320zM166 387q0 70 22.5 147.5t61.5 154.5t91 145.5t110.5 122t122 84t122.5 30.5t107.5 -33.5t82.5 -90t52 -133.5t18 -163q0 -98 -14 -125q-20 -84 -66.5 -169t-107.5 -155.5t-130 -114.5t-134 -44q-166 0 -252 92 t-86 252zM397 1532q53 -8 97.5 -23.5t86.5 -36t87 -47t98 -57.5l61 143q-53 23 -101 43.5t-94 40t-93 39t-101 41.5q0 -16 -12 -49t-29 -94zM434 227q0 -82 70 -82q59 0 121.5 50.5t112.5 126t83 163.5t33 166q0 29 -8 44.5t-31 15.5q-47 0 -111.5 -49.5t-125 -122 t-102.5 -157.5t-42 -155z" />
<glyph unicode="&#xf3;" horiz-adv-x="1310" d="M-59 362q0 143 37.5 282.5t104.5 259.5t157 214t196 148l-90 65q-33 137 -102 225q156 66 304 131.5t290 135.5l143 -164l123 -328q-47 -12 -93 -26.5t-89 -30.5q86 -41 157.5 -108.5t139.5 -166.5q45 -66 80.5 -128t60 -129.5t38 -144.5t13.5 -171q0 -195 -59.5 -365 t-167 -296.5t-260 -200.5t-338.5 -74q-70 0 -123 11.5t-98.5 36t-87 64.5t-91.5 99q-53 63 -98 146t-78 172.5t-51 178.5t-18 164zM43 362q0 -113 25.5 -208t75 -164.5t122 -108.5t166.5 -39q166 0 300 66.5t229.5 180.5t147.5 266.5t52 326.5q0 543 -481 543 q-127 0 -242.5 -73t-204 -193.5t-139.5 -276.5t-51 -320zM166 387q0 70 22.5 147.5t61.5 154.5t91 145.5t110.5 122t122 84t122.5 30.5t107.5 -33.5t82.5 -90t52 -133.5t18 -163q0 -88 -14 -125q-20 -84 -66.5 -169t-107.5 -155.5t-130 -114.5t-134 -44q-166 0 -252 92 t-86 252zM387 1516q39 -58 62 -144q186 131 368 164q-35 57 -61 143q-94 -51 -185.5 -91t-183.5 -72zM434 227q0 -82 70 -82q55 0 117.5 49.5t114.5 124t86 161.5t34 163q0 27 -8 47.5t-33 20.5q-47 0 -111.5 -49.5t-125 -122t-102.5 -157.5t-42 -155z" />
<glyph unicode="&#xf4;" horiz-adv-x="1310" d="M-59 362q0 133 31.5 262.5t89 243t136 206.5t173.5 155l-242 284q139 62 260 134q61 35 119.5 68.5t112.5 64.5q47 -61 161.5 -125t288.5 -142l143 -163q-31 -31 -60.5 -64t-53.5 -61l-39 -45q41 -37 81 -82t77 -99q45 -66 80.5 -128t60 -129.5t38 -144.5t13.5 -171 q0 -195 -59.5 -365t-167 -296.5t-260 -200.5t-338.5 -74q-70 0 -123 11.5t-98.5 36t-87 64.5t-91.5 99q-53 63 -98 146t-78 172.5t-51 178.5t-18 164zM43 362q0 -113 25.5 -208t75 -164.5t122 -108.5t166.5 -39q166 0 300 66.5t229.5 180.5t147.5 266.5t52 326.5 q0 543 -481 543q-127 0 -242.5 -73t-204 -193.5t-139.5 -276.5t-51 -320zM166 387q0 70 22.5 147.5t61.5 154.5t91 145.5t110.5 122t122 84t122.5 30.5t107.5 -33.5t82.5 -90t52 -133.5t18 -163q0 -88 -14 -125q-20 -84 -66.5 -169t-107.5 -155.5t-130 -114.5t-134 -44 q-166 0 -252 92t-86 252zM313 1493q16 -47 30.5 -66.5t31.5 -35.5l20 -21q31 23 58.5 39t52 31.5t48.5 33t46 39.5q47 -47 95 -79.5t110 -63.5l102 103q-78 47 -151.5 92t-134.5 92q-78 -47 -154 -82t-154 -82zM434 227q0 -82 70 -82q55 0 117.5 49.5t114.5 124t86 161.5 t34 163q0 27 -8 47.5t-33 20.5q-47 0 -111.5 -49.5t-125 -122t-102.5 -157.5t-42 -155z" />
<glyph unicode="&#xf5;" horiz-adv-x="1310" d="M-59 362q0 135 33.5 266.5t93 247t141.5 209t178 152.5q-111 82 -215 141q61 154 139 231t189 77q33 0 65.5 -12.5t64.5 -27t60.5 -26.5t52.5 -12q35 0 61.5 21.5t55.5 70.5q156 -117 234 -178l143 -164q-74 -133 -164 -189q39 -35 75 -77.5t71 -92.5q45 -66 80.5 -128 t60 -129.5t38 -144.5t13.5 -171q0 -195 -59.5 -365t-167 -296.5t-260 -200.5t-338.5 -74q-70 0 -123 11.5t-98.5 36t-87 64.5t-91.5 99q-53 63 -98 146t-78 172.5t-51 178.5t-18 164zM43 362q0 -113 25.5 -208t75 -164.5t122 -108.5t166.5 -39q166 0 300 66.5t229.5 180.5 t147.5 266.5t52 326.5q0 543 -481 543q-127 0 -242.5 -73t-204 -193.5t-139.5 -276.5t-51 -320zM166 387q0 70 22.5 147.5t61.5 154.5t91 145.5t110.5 122t122 84t122.5 30.5t107.5 -33.5t82.5 -90t52 -133.5t18 -163q0 -88 -14 -125q-20 -84 -66.5 -169t-107.5 -155.5 t-130 -114.5t-134 -44q-166 0 -252 92t-86 252zM295 1440q47 -16 76.5 -41t46.5 -41q20 61 42.5 81.5t39.5 20.5q23 0 59.5 -16.5t76.5 -34.5t80 -34.5t70 -16.5q123 0 185 123q-47 47 -77 66.5t-46 35.5q-16 -47 -35.5 -64.5t-67.5 -17.5q-31 0 -64.5 9.5t-66 21.5 t-62.5 21.5t-52 9.5q-78 0 -133.5 -31t-71.5 -92zM434 227q0 -82 70 -82q55 0 117.5 49.5t114.5 124t86 161.5t34 163q0 27 -8 47.5t-33 20.5q-47 0 -111.5 -49.5t-125 -122t-102.5 -157.5t-42 -155z" />
<glyph unicode="&#xf6;" horiz-adv-x="1310" d="M-59 362q0 137 34.5 270.5t95 249t144.5 209t182 152.5q-47 51 -78.5 110.5t-31.5 106.5q0 41 20.5 80t54 69.5t76.5 49t90 18.5q25 0 43.5 -5t34 -18.5t33.5 -38t43 -61.5q29 51 83 87t128 36q29 0 72 -26.5t82.5 -71.5t68.5 -102.5t29 -118.5q0 -43 -27.5 -88 t-68.5 -80q45 -37 87 -85t83 -106q45 -66 80.5 -128t60 -129.5t38 -144.5t13.5 -171q0 -195 -59.5 -365t-167 -296.5t-260 -200.5t-338.5 -74q-70 0 -123 11.5t-98.5 36t-87 64.5t-91.5 99q-53 63 -98 146t-78 172.5t-51 178.5t-18 164zM43 362q0 -113 25.5 -208t75 -164.5 t122 -108.5t166.5 -39q166 0 300 66.5t229.5 180.5t147.5 266.5t52 326.5q0 543 -481 543q-127 0 -242.5 -73t-204 -193.5t-139.5 -276.5t-51 -320zM166 387q0 70 22.5 147.5t61.5 154.5t91 145.5t110.5 122t122 84t122.5 30.5t107.5 -33.5t82.5 -90t52 -133.5t18 -163 q0 -88 -14 -125q-20 -84 -66.5 -169t-107.5 -155.5t-130 -114.5t-134 -44q-166 0 -252 92t-86 252zM389 1456q0 -12 8.5 -24.5t19.5 -23.5t23.5 -18.5t20.5 -7.5q14 0 35.5 11.5t40 30t32 40t13.5 43.5q0 23 -16.5 45.5t-47.5 22.5q-49 0 -89 -37t-40 -82zM434 227 q0 -82 70 -82q55 0 117.5 49.5t114.5 124t86 161.5t34 163q0 27 -8 47.5t-33 20.5q-47 0 -111.5 -49.5t-125 -122t-102.5 -157.5t-42 -155zM754 1456q0 -12 8 -24.5t19.5 -23.5t23.5 -18.5t20 -7.5q14 0 36 11.5t40.5 30t31.5 40t13 43.5q0 23 -16 45.5t-47 22.5 q-49 0 -89 -37t-40 -82z" />
<glyph unicode="&#xf8;" horiz-adv-x="1310" d="M-164 -334l195 283q-31 33 -49.5 83t-27.5 106.5t-11 115.5t-2 108q0 184 60 358.5t161.5 308.5t236 216t281.5 82q166 0 305 -90l137 147l285 -182l39 -205l-129 -157q47 -88 70.5 -186.5t23.5 -227.5q0 -195 -59.5 -365t-167 -296.5t-260 -200.5t-338.5 -74 q-86 0 -145.5 16.5t-112.5 53.5l-103 -146l-168 21zM-70 -322l121 -129l236 322q70 -29 145 -29q166 0 300 66.5t229.5 180.5t147.5 266.5t52 326.5q0 176 -53 301l172 234l-143 81l-131 -176q-121 102 -326 103q-127 0 -242.5 -73t-204 -193.5t-139.5 -276.5t-51 -320 q0 -119 27.5 -217t81.5 -168zM166 387q0 70 22.5 147.5t61.5 154.5t91 145.5t110.5 122t122 84t122.5 30.5q57 0 103.5 -31.5t81.5 -85.5l-619 -831q-96 90 -96 264zM420 49l526 717q4 -29 7 -57.5t3 -57.5q0 -88 -14 -125q-20 -84 -66.5 -169t-107.5 -155.5t-130 -114.5 t-134 -44q-45 0 -84 6z" />
<glyph unicode="&#xf9;" horiz-adv-x="1673" d="M8 305q0 92 21.5 176t54.5 161t73 145.5t79 130.5l-117 194q-8 4 -15 6l154 361l203 -74l-107 108q78 78 111 159t33 190q92 -53 177 -93t164 -73t151.5 -61.5t142.5 -59.5l143 -164q-20 -25 -35.5 -47.5t-30.5 -42.5l86 20l56 -106l96 -158l186 -348l-28 -11 q-27 -11 -64 -26.5t-77 -31t-66 -23.5q8 -41 14 -88t12 -100q12 -96 306 -662l22 -68l-74 -122q-35 -6 -91 -26t-134 -48l-2 2l-114 -46.5t-57 -23.5t-28.5 -11t-27.5 -9q-27 -10 -48.5 -19.5t-23.5 -7.5l-96 162q-66 -68 -137.5 -101.5t-169.5 -37.5h-9q-68 0 -239 65l-2 2 q-164 70 -240 197l-119 199q-41 47 -66.5 101t-41 108.5t-20.5 106.5t-5 95zM111 307q0 -49 7 -114.5t37.5 -132t91 -128t169.5 -102.5q57 -25 102 -35t80 -10q68 0 126 25.5t111.5 81t104.5 141.5t104 205q8 -35 12.5 -72t8.5 -87t8 -119t12 -165q-6 0 29 10l66 27 q41 14 89 32.5t94 35t85 30t59 17.5q-14 43 -34.5 87t-47.5 77l-186 -72q-6 74 -16.5 198.5t-24.5 260t-29.5 259.5t-31.5 195q18 8 35.5 15.5t41 16.5t54 21.5t78.5 30.5l-93 172l-501 -223l59 -149q27 14 61.5 29.5t85.5 35.5q16 -41 24.5 -94t8.5 -113q0 -123 -31.5 -258 t-91 -246.5t-147.5 -184.5t-201 -73q-104 0 -160.5 82t-66.5 207v31q0 86 26.5 199.5t81 239.5t135 257t189.5 254l-410 148l-75 -174q53 -23 107 -45.5t110 -45.5q-41 -80 -100.5 -167t-114 -183t-93 -202.5t-38.5 -225.5zM539 1554q53 -8 97 -23t86 -35.5t87 -47t98 -57.5 q16 57 30.5 87.5t31.5 55.5q-53 23 -101.5 43t-94.5 39.5t-93 39t-100 42.5q0 -16 -12.5 -49t-28.5 -95z" />
<glyph unicode="&#xfa;" horiz-adv-x="1673" d="M8 305q0 92 21.5 176t54.5 161t73 145.5t79 130.5l-132 200l154 361l272 -99q-31 100 -86 172q156 66 304.5 131.5t289.5 135.5l144 -164l452 -926q-78 -31 -133 -53.5t-102 -38.5q8 -41 14 -88t12 -100q13 -95 306 -662l-52 -190l-526 -189l-96 162 q-66 -68 -137.5 -101.5t-169.5 -37.5q-55 0 -128 21.5t-142.5 57t-129 84t-90.5 101.5l-119 199q-41 47 -66.5 101t-41 108.5t-20.5 106.5t-5 95zM111 307q0 -49 7 -114.5t37.5 -132t91 -128t169.5 -102.5q57 -25 102 -35t80 -10q68 0 126 25.5t111.5 81t104.5 140.5 t104 206q8 -35 12.5 -72t8.5 -87t8 -119t12 -165q68 27 114 43.5t69 26.5q25 10 48 18t46 17q47 16 86 29.5t59 17.5q-14 43 -34.5 87t-47.5 77l-186 -72q-6 74 -16.5 198.5t-24.5 260t-29.5 259.5t-31.5 195q18 8 35.5 15.5t41 16.5t54 21.5t78.5 30.5l-93 172l-501 -223 l59 -149q27 14 61.5 29.5t85.5 35.5q16 -41 24.5 -94t8.5 -113q0 -123 -31.5 -258t-91 -246.5t-147.5 -184.5t-201 -73q-104 0 -160.5 82t-66.5 207v31q0 131 59.5 314.5t182.5 381.5q41 66 88 127.5t100 124.5l-4 4l-404 146l-75 -174q53 -23 107 -45.5t110 -45.5 q-41 -80 -100.5 -167t-114 -183t-93 -202.5t-38.5 -225.5zM588 1511q41 -59 61 -143q184 129 369 164q-35 59 -62 143q-94 -51 -185 -91t-183 -73z" />
<glyph unicode="&#xfb;" horiz-adv-x="1673" d="M8 305q0 92 21.5 176t54.5 161t73 145.5t79 130.5l-117 194q-8 4 -15 6l154 361l166 -60l-92 135q141 61 261 133t230 134q47 -61 162 -125t289 -142l143 -163q-23 -23 -47 -50.5t-47 -50.5l311 -561l-28 -11q-27 -11 -64 -26.5t-77 -31t-66 -23.5q10 -115 45 -228.5 t82 -222t101 -210t104 -189.5l-52 -190q-121 -45 -196.5 -73t-122.5 -45.5t-71.5 -25.5t-43 -14t-38 -12.5t-54.5 -18.5l-96 162q-66 -68 -137.5 -101.5t-169.5 -37.5q-57 0 -129 21.5t-141.5 58t-129 85t-90.5 99.5q-84 123 -134 217t-75.5 167t-34 128t-8.5 98zM111 307 q0 -49 7 -114.5t37.5 -132t91 -128t169.5 -102.5q57 -25 102 -35t80 -10q68 0 126 25.5t111.5 81t104.5 140.5t104 206q8 -35 12.5 -72t8.5 -87t8 -119t12 -165q37 14 98.5 39t125 48.5t118.5 42t80 22.5q-14 43 -34.5 87t-47.5 77l-186 -72q-6 74 -16.5 198.5t-24.5 260 t-29.5 259.5t-31.5 195q18 8 35.5 15.5t41 16.5t54 21.5t78.5 30.5l-93 172l-501 -223l59 -149q27 14 61.5 29.5t85.5 35.5q16 -41 24.5 -94t8.5 -113q0 -123 -31.5 -258t-91 -246.5t-147.5 -184.5t-201 -73q-104 0 -165.5 82t-61.5 207q0 98 26.5 218t81 248t135 260 t189.5 255l-410 148l-75 -174q53 -23 107 -45.5t110 -45.5q-41 -80 -100.5 -167t-114 -183t-93 -202.5t-38.5 -225.5zM516 1534q16 -47 30.5 -66.5t31.5 -35.5l20 -21q31 23 58.5 39t52 31.5t48 33t46.5 39.5q47 -47 95.5 -79.5t109.5 -63.5l102 102q-78 47 -151.5 92.5 t-135.5 92.5q-78 -47 -153.5 -82t-153.5 -82z" />
<glyph unicode="&#xfc;" horiz-adv-x="1673" d="M8 305q0 92 21.5 176t54.5 161t73 145.5t79 130.5l-117 194q-6 2 -15 6l154 361l197 -72q-31 43 -51.5 88t-20.5 82q0 41 20.5 80t54.5 69.5t77 49t90 18.5q25 0 43 -5t33.5 -18.5t34 -38t42.5 -61.5q29 51 83 87t128 36q29 0 72 -26.5t83 -71.5t68.5 -102.5t28.5 -118.5 q0 -43 -29.5 -89.5t-70.5 -80.5l155 36l56 -106l96 -158l186 -348l-28 -11q-27 -11 -64 -26.5t-77 -31t-66 -23.5q8 -41 14 -88t12 -100q12 -94 306 -662l22 -68l-74 -122q-35 -6 -91 -26t-134 -48l-2 2l-114 -46.5t-57 -23.5t-28.5 -11t-27.5 -9q-27 -10 -48.5 -19.5 t-23.5 -7.5l-96 162q-66 -68 -137.5 -101.5t-169.5 -37.5h-9q-66 0 -239 65l-2 2q-164 70 -240 197l-119 199q-41 47 -66.5 101t-41 108.5t-20.5 106.5t-5 95zM111 307q0 -49 7 -114.5t37.5 -132t91 -128t169.5 -102.5q57 -25 102 -35t80 -10q68 0 126 25.5t111.5 81 t104.5 140.5t104 206q8 -35 12.5 -72t8.5 -87t8 -119t12 -165q-8 0 29 10l66 27q41 14 89 32.5t94 35t85 30t59 17.5q-14 43 -34.5 87t-47.5 77l-186 -72q-6 74 -16.5 198.5t-24.5 260t-29.5 259.5t-31.5 195q18 8 35.5 15.5t41 16.5t54 21.5t78.5 30.5l-93 172l-501 -223 l59 -149q27 14 61.5 29.5t85.5 35.5q16 -41 24.5 -94t8.5 -113q0 -123 -31.5 -258t-91 -246.5t-147.5 -184.5t-201 -73q-104 0 -160.5 82t-66.5 207v31q0 86 26.5 199.5t81 239.5t135 257t189.5 254l-410 148l-75 -174q53 -23 107 -45.5t110 -45.5q-41 -80 -100.5 -167 t-114 -183t-93 -202.5t-38.5 -225.5zM485 1573q0 -12 8.5 -24.5t19.5 -24t23.5 -18.5t20.5 -7q14 0 35.5 11.5t40 30t32 40t13.5 43.5q0 23 -16.5 45.5t-47.5 22.5q-49 0 -89 -37t-40 -82zM764 1296l135 -47l64 15q-23 14 -49.5 43.5t-61.5 89.5q-16 -27 -37.5 -52.5 t-50.5 -48.5zM850 1573q0 -12 8 -24.5t19.5 -24t23.5 -18.5t21 -7q14 0 35.5 11.5t40 30t31.5 40t13 43.5q0 23 -16 45.5t-47 22.5q-49 0 -89 -37t-40 -82z" />
<glyph unicode="&#xfd;" horiz-adv-x="1550" d="M-78 -8q0 33 18.5 63.5t47.5 59.5h75q76 0 171.5 -7.5t195.5 -19.5l-29 45q-55 66 -86.5 152t-31.5 174q0 39 3 74.5t11 68.5l-295 535q78 72 183.5 154.5t212 156.5t196.5 127t137 65l127 -53q-29 57 -61 105q156 66 304 131t290 135l143 -164l123 -328 q-219 -57 -402 -159q68 -20 117 -42t76 -42q31 -23 172 -283q6 -10 6 -18q0 -244 -86 -557l2 -3q-8 -31 -30.5 -101.5t-53.5 -166.5t-64.5 -207.5t-65.5 -225.5t-57.5 -218.5t-37.5 -185.5q-168 53 -276.5 83.5t-184.5 47t-133 21.5t-123 5q-96 0 -225 -18q-10 0 -19.5 2 t-31 28.5t-61.5 90t-111 186.5q-18 33 -44 74t-48.5 81t-38 75.5t-15.5 58.5zM25 0q0 -18 11 -60t27.5 -85t33 -75t26.5 -32q129 18 239 19q72 0 129.5 -4.5t125 -17.5t158.5 -38.5t229 -68.5q8 51 30.5 139t53 190.5t64.5 211t63.5 202.5t51 163.5t27.5 96.5 q35 147 59.5 276.5t22.5 245.5v15q0 10 -25.5 20t-59.5 18.5t-68.5 13.5t-55.5 5q-63 -152 -121.5 -289t-112.5 -241.5t-103.5 -166t-94.5 -61.5q-23 0 -42 14.5t-35.5 37t-25.5 49t-9 51.5q0 27 25.5 102.5t68.5 183t101.5 240.5t123.5 279l-20 16l-197 84 q-37 -10 -110.5 -54t-160.5 -104.5t-174 -129t-151 -128.5l100 -194q80 78 154 149.5t135.5 126.5t109.5 91t77 42q-66 -133 -124.5 -254t-101.5 -230.5t-68.5 -206.5t-25.5 -183q0 -59 17.5 -117.5t49 -106t73.5 -77t91 -29.5q125 0 236 154.5t217 486.5q72 225 78 225 q35 0 35 -37q0 -8 -10.5 -58t-28 -127t-41 -172t-50 -193.5t-54 -191.5t-53 -166t-47 -117t-38.5 -44q-63 27 -161.5 49.5t-210 39t-224 25.5t-201.5 9h-34q-4 -4 -4 -12zM940 1651q35 -53 55 -121l23 -10q178 116 352 151q-35 59 -61 144q-94 -51 -185.5 -91.5 t-183.5 -72.5zM1245 670l2 -2z" />
<glyph unicode="&#xfe;" horiz-adv-x="1343" d="M-70 -340q2 37 9.5 106.5t18.5 139t26.5 121t31.5 51.5q18 0 55.5 -2t82.5 -6l73 -7q16 92 39 232.5t51 339.5l-190 -12l-162 249q35 141 52.5 226.5t37 130.5t52 58t98.5 13q119 -4 199.5 -7t141 -6t105.5 -7t92 -12q8 -25 15.5 -61t13.5 -72.5t11 -70.5t8 -56 q115 -23 209 -73t166.5 -115.5t126 -141.5t87 -151.5t50 -144.5t16.5 -120q0 -78 -37 -150.5t-102.5 -132t-153.5 -102.5t-192 -63q-6 -61 -8.5 -102.5t-8.5 -61.5q-16 -86 -48 -168t-89 -152q-10 2 -64.5 9.5t-129 15.5t-161.5 18.5t-163 18.5t-131.5 13t-67.5 5zM41 -238 q10 0 54 -4t105.5 -11t131 -15t130 -15.5t104.5 -13.5t52 -8q35 43 55.5 108.5t24.5 124.5l-241 17q4 45 7 65.5t3 22.5v-4q4 0 22 114q27 -6 80 -6q119 0 231.5 28t201 79t141.5 120.5t53 153.5q0 55 -11 100.5t-40 85t-77 75.5t-122 73q-66 33 -133.5 49.5t-165.5 18.5 q-4 16 -6 83.5t-4 172.5q-92 10 -200.5 15t-233.5 5q-49 0 -71.5 -45t-35.5 -168l301 21q61 0 62 -103v-24q0 -16 -4 -53.5t-17.5 -119t-37 -221t-62.5 -360.5q-6 -35 -9 -79t-7 -99q-29 10 -69 16t-77 9t-65.5 4t-34.5 1q-12 -31 -21.5 -92t-13.5 -121zM528 285 q31 147 31 338q0 20 -1 34.5t-3 24.5q68 0 130.5 -11.5t108.5 -33t73.5 -50t27.5 -65.5q0 -55 -75 -109.5t-197 -103.5q-31 -12 -50.5 -19t-35.5 -7q-8 0 -9 2z" />
<glyph unicode="&#xff;" horiz-adv-x="1550" d="M-78 -8q0 33 18.5 63.5t47.5 59.5h75q76 0 171.5 -7.5t195.5 -19.5l-29 45q-55 66 -86.5 152t-31.5 174q0 39 3 74.5t11 68.5l-295 535q78 72 183.5 154.5t212 156.5t196.5 127t137 65l131 -55q-33 57 -33 109q0 41 20.5 79.5t54.5 69.5t77 49.5t90 18.5q25 0 43.5 -5 t33.5 -18.5t33.5 -38t43.5 -61.5q29 51 83 87t128 36q29 0 71.5 -26.5t82.5 -72t69 -102.5t29 -119q0 -37 -24 -77.5t-57.5 -73.5t-71.5 -54.5t-69 -21.5q-12 0 -27.5 3t-36 17.5t-46 45t-58.5 83.5q-27 -43 -69.5 -83.5t-85.5 -57.5l26 -43q33 -8 73 -20.5t78 -25.5 t71.5 -28.5t56.5 -31.5q31 -23 172 -283q6 -10 6 -18q0 -244 -86 -557l2 -3q-8 -31 -30.5 -101.5t-53.5 -166.5t-64.5 -207.5t-65.5 -225.5t-57.5 -218.5t-37.5 -185.5q-168 53 -276.5 83.5t-184.5 47t-133 21.5t-123 5q-96 0 -225 -18q-10 0 -19.5 2t-31 28.5t-61.5 90 t-111 186.5q-18 33 -44 74t-48.5 81t-38 75.5t-15.5 58.5zM25 0q0 -18 11 -60t27.5 -85t33 -75t26.5 -32q129 18 239 19q72 0 129.5 -4.5t125 -17.5t158.5 -38.5t229 -68.5q8 51 30.5 139t53 190.5t64.5 211t63.5 202.5t51 163.5t27.5 96.5q35 147 58.5 276.5t23.5 245.5v15 q0 10 -25.5 20t-59.5 18.5t-68.5 13.5t-55.5 5q-63 -152 -121.5 -289t-112.5 -241.5t-103.5 -166t-94.5 -61.5q-23 0 -42 14.5t-35.5 37t-25.5 49t-9 51.5q0 27 25.5 101.5t68.5 184t102.5 243.5t126.5 282l-221 94q-37 -10 -110.5 -54t-160.5 -104.5t-174 -129t-151 -128.5 l100 -194q80 78 154 149.5t135.5 126.5t109.5 91t77 42q-66 -133 -124.5 -254t-101.5 -230.5t-68.5 -206.5t-25.5 -183q0 -59 17.5 -117.5t49 -106t73.5 -77t91 -29.5q125 0 236 154.5t217 486.5q72 225 78 225q35 0 35 -37q0 -8 -10.5 -58t-28 -127t-41 -172t-50 -193.5 t-54 -191.5t-53 -166t-47 -117t-38.5 -44q-63 27 -161.5 49.5t-210 39t-224 25.5t-201.5 9h-34q-4 -4 -4 -12zM932 1690q0 -12 8 -24.5t19.5 -24t23.5 -18.5t21 -7q14 0 35.5 11t40 29.5t31.5 40t13 44.5t-16 45t-47 22q-49 0 -89 -36.5t-40 -81.5zM1296 1690 q0 -12 8.5 -24.5t19.5 -24t23.5 -18.5t20.5 -7q14 0 35.5 11t40 29.5t32 40t13.5 44.5t-16.5 45t-47.5 22q-49 0 -89 -36.5t-40 -81.5z" />
<glyph unicode="&#x152;" horiz-adv-x="2543" d="M-59 362q0 184 60 358.5t161.5 308.5t235.5 216t282 82q150 0 272.5 -69.5t229.5 -210.5q10 16 21 30.5t22 28.5q106 137 252 221q143 82 276 82q123 0 207 -23q143 -45 221 -149q16 -23 48 -75t77 -130t71.5 -135t35.5 -94q18 -72 -175 -295q106 -47 201 -139l148 -246 v-47q0 -70 -36 -148t-95.5 -153.5t-139.5 -146t-168 -125t-180 -87t-176 -34.5h-23q-166 0 -293.5 74.5t-207.5 209.5l-70 117q-111 -135 -265.5 -214t-346.5 -79q-70 0 -123 11.5t-98.5 36t-87 64.5t-91.5 99q-53 63 -98 146t-78 172.5t-51 178.5t-18 164zM43 362 q0 -113 25.5 -208t75 -164.5t122 -108.5t166.5 -39q188 0 354 100.5t312 331.5q4 -18 8 -45.5t22 -99.5q37 -121 105 -209q33 -41 73 -75.5t91 -61.5q100 -49 206.5 -48t188.5 29q100 35 198.5 99.5t175.5 143.5t124 164t47 161v4q-109 94 -197 110q-14 -205 -101 -311 t-235 -106q-72 0 -142.5 27.5t-127.5 73.5t-94 104.5t-39 121.5l782 607q-8 55 -25.5 116.5t-60.5 111.5t-119.5 83t-203.5 33q-129 0 -256 -74t-222 -199q-68 -88 -118 -207q-27 80 -67 153t-99.5 127t-140 86t-191.5 32q72 -172 130 -311.5t94 -226.5t46.5 -112.5 t-13.5 32t-86.5 207t-170.5 411.5q-127 0 -242.5 -73t-204 -193.5t-139.5 -276.5t-51 -320zM166 387q0 70 22.5 147.5t61.5 154.5t91 145.5t110.5 122t122 84t122.5 30.5t107.5 -33.5t82.5 -90t52 -133.5t18 -163q0 -88 -14 -125q-20 -84 -66.5 -169t-107.5 -155.5 t-130 -114.5t-134 -44q-166 0 -252 92t-86 252zM434 227q0 -82 70 -82q55 0 117.5 49.5t114.5 124t86 161.5t34 163q0 27 -8 47.5t-33 20.5q-47 0 -111.5 -49.5t-125 -122t-102.5 -157.5t-42 -155zM1339 518q-10 18 0 148q4 66 15.5 117t31.5 89q39 78 116 145.5t194 86.5 q109 20 166 -14q51 -33 98 -113l-574 -475q-39 -2 -47 16zM1755 135q10 -2 16.5 -3t8.5 -1h24q135 0 201 197z" />
<glyph unicode="&#x153;" horiz-adv-x="2543" d="M-59 362q0 184 60 358.5t161.5 308.5t235.5 216t282 82q150 0 272.5 -69.5t229.5 -210.5q10 16 21 30.5t22 28.5q106 137 252 221q143 82 276 82q123 0 207 -23q143 -45 221 -149q16 -23 48 -75t77 -130t71.5 -135t35.5 -94q18 -72 -175 -295q106 -47 201 -139l148 -246 v-47q0 -70 -36 -148t-95.5 -153.5t-139.5 -146t-168 -125t-180 -87t-176 -34.5h-23q-166 0 -293.5 74.5t-207.5 209.5l-70 117q-111 -135 -265.5 -214t-346.5 -79q-70 0 -123 11.5t-98.5 36t-87 64.5t-91.5 99q-53 63 -98 146t-78 172.5t-51 178.5t-18 164zM43 362 q0 -113 25.5 -208t75 -164.5t122 -108.5t166.5 -39q188 0 354 100.5t312 331.5q4 -18 8 -45.5t22 -99.5q37 -121 105 -209q33 -41 73 -75.5t91 -61.5q100 -49 206.5 -48t188.5 29q100 35 198.5 99.5t175.5 143.5t124 164t47 161v4q-109 94 -197 110q-14 -205 -101 -311 t-235 -106q-72 0 -142.5 27.5t-127.5 73.5t-94 104.5t-39 121.5l782 607q-8 55 -25.5 116.5t-60.5 111.5t-119.5 83t-203.5 33q-129 0 -256 -74t-222 -199q-68 -88 -118 -207q-27 80 -67 153t-99.5 127t-140 86t-191.5 32q72 -172 130 -311.5t94 -226.5t46.5 -112.5 t-13.5 32t-86.5 207t-170.5 411.5q-127 0 -242.5 -73t-204 -193.5t-139.5 -276.5t-51 -320zM166 387q0 70 22.5 147.5t61.5 154.5t91 145.5t110.5 122t122 84t122.5 30.5t107.5 -33.5t82.5 -90t52 -133.5t18 -163q0 -88 -14 -125q-20 -84 -66.5 -169t-107.5 -155.5 t-130 -114.5t-134 -44q-166 0 -252 92t-86 252zM434 227q0 -82 70 -82q55 0 117.5 49.5t114.5 124t86 161.5t34 163q0 27 -8 47.5t-33 20.5q-47 0 -111.5 -49.5t-125 -122t-102.5 -157.5t-42 -155zM1339 518q-10 18 0 148q4 66 15.5 117t31.5 89q39 78 116 145.5t194 86.5 q109 20 166 -14q51 -33 98 -113l-574 -475q-39 -2 -47 16zM1755 135q10 -2 16.5 -3t8.5 -1h24q135 0 201 197z" />
<glyph unicode="&#x178;" horiz-adv-x="1550" d="M-78 -8q0 33 18.5 63.5t47.5 59.5h75q76 0 171.5 -7.5t195.5 -19.5l-29 45q-55 66 -86.5 152t-31.5 174q0 39 3 74.5t11 68.5l-295 535q78 72 183.5 154.5t212 156.5t196.5 127t137 65l131 -55q-33 57 -33 109q0 41 20.5 79.5t54.5 69.5t77 49.5t90 18.5q25 0 43.5 -5 t33.5 -18.5t33.5 -38t43.5 -61.5q29 51 83 87t128 36q29 0 71.5 -26.5t82.5 -72t69 -102.5t29 -119q0 -37 -24 -77.5t-57.5 -73.5t-71.5 -54.5t-69 -21.5q-12 0 -27.5 3t-36 17.5t-46 45t-58.5 83.5q-27 -43 -69.5 -83.5t-85.5 -57.5l26 -43q33 -8 73 -20.5t78 -25.5 t71.5 -28.5t56.5 -31.5q31 -23 172 -283q6 -10 6 -18q0 -244 -86 -557l2 -3q-8 -31 -30.5 -101.5t-53.5 -166.5t-64.5 -207.5t-65.5 -225.5t-57.5 -218.5t-37.5 -185.5q-168 53 -276.5 83.5t-184.5 47t-133 21.5t-123 5q-96 0 -225 -18q-10 0 -19.5 2t-31 28.5t-61.5 90 t-111 186.5q-18 33 -44 74t-48.5 81t-38 75.5t-15.5 58.5zM25 0q0 -18 11 -60t27.5 -85t33 -75t26.5 -32q129 18 239 19q72 0 129.5 -4.5t125 -17.5t158.5 -38.5t229 -68.5q8 51 30.5 139t53 190.5t64.5 211t63.5 202.5t51 163.5t27.5 96.5q35 147 58.5 276.5t23.5 245.5v15 q0 10 -25.5 20t-59.5 18.5t-68.5 13.5t-55.5 5q-63 -152 -121.5 -289t-112.5 -241.5t-103.5 -166t-94.5 -61.5q-23 0 -42 14.5t-35.5 37t-25.5 49t-9 51.5q0 27 25.5 101.5t68.5 184t102.5 243.5t126.5 282l-221 94q-37 -10 -110.5 -54t-160.5 -104.5t-174 -129t-151 -128.5 l100 -194q80 78 154 149.5t135.5 126.5t109.5 91t77 42q-66 -133 -124.5 -254t-101.5 -230.5t-68.5 -206.5t-25.5 -183q0 -59 17.5 -117.5t49 -106t73.5 -77t91 -29.5q125 0 236 154.5t217 486.5q72 225 78 225q35 0 35 -37q0 -8 -10.5 -58t-28 -127t-41 -172t-50 -193.5 t-54 -191.5t-53 -166t-47 -117t-38.5 -44q-63 27 -161.5 49.5t-210 39t-224 25.5t-201.5 9h-34q-4 -4 -4 -12zM932 1690q0 -12 8 -24.5t19.5 -24t23.5 -18.5t21 -7q14 0 35.5 11t40 29.5t31.5 40t13 44.5t-16 45t-47 22q-49 0 -89 -36.5t-40 -81.5zM1296 1690 q0 -12 8.5 -24.5t19.5 -24t23.5 -18.5t20.5 -7q14 0 35.5 11t40 29.5t32 40t13.5 44.5t-16.5 45t-47.5 22q-49 0 -89 -36.5t-40 -81.5z" />
<glyph unicode="&#x2000;" horiz-adv-x="988" />
<glyph unicode="&#x2001;" horiz-adv-x="1976" />
<glyph unicode="&#x2002;" horiz-adv-x="988" />
<glyph unicode="&#x2003;" horiz-adv-x="1976" />
<glyph unicode="&#x2004;" horiz-adv-x="658" />
<glyph unicode="&#x2005;" horiz-adv-x="494" />
<glyph unicode="&#x2006;" horiz-adv-x="329" />
<glyph unicode="&#x2007;" horiz-adv-x="329" />
<glyph unicode="&#x2008;" horiz-adv-x="247" />
<glyph unicode="&#x2009;" horiz-adv-x="395" />
<glyph unicode="&#x200a;" horiz-adv-x="109" />
<glyph unicode="&#x2010;" horiz-adv-x="1036" d="M-53 393q8 41 17 78t24 70q27 68 61.5 109.5t77.5 41.5h256q51 0 94 -1t113 -17h-2q47 -6 114.5 -14.5t171.5 -18.5l236 -379q-16 -68 -48 -136.5t-73 -98.5q-86 0 -157.5 1t-112.5 1h-74q-27 0 -66.5 -3t-103 -8.5t-157 -14.5t-226.5 -21q-160 330 -145 411zM35 344 q133 12 206.5 19.5t115.5 11.5t69 5t66 1q41 0 111.5 -1t199.5 -1q14 10 30.5 58.5t28.5 101.5q-135 14 -213 24t-125 16.5t-75.5 8.5t-65.5 2h-256q-20 0 -36.5 -22.5t-29 -58.5t-19.5 -79t-7 -86z" />
<glyph unicode="&#x2011;" horiz-adv-x="1036" d="M-53 393q8 41 17 78t24 70q27 68 61.5 109.5t77.5 41.5h256q51 0 94 -1t113 -17h-2q47 -6 114.5 -14.5t171.5 -18.5l236 -379q-16 -68 -48 -136.5t-73 -98.5q-86 0 -157.5 1t-112.5 1h-74q-27 0 -66.5 -3t-103 -8.5t-157 -14.5t-226.5 -21q-160 330 -145 411zM35 344 q133 12 206.5 19.5t115.5 11.5t69 5t66 1q41 0 111.5 -1t199.5 -1q14 10 30.5 58.5t28.5 101.5q-135 14 -213 24t-125 16.5t-75.5 8.5t-65.5 2h-256q-20 0 -36.5 -22.5t-29 -58.5t-19.5 -79t-7 -86z" />
<glyph unicode="&#x2012;" horiz-adv-x="1036" d="M-53 393q8 41 17 78t24 70q27 68 61.5 109.5t77.5 41.5h256q51 0 94 -1t113 -17h-2q47 -6 114.5 -14.5t171.5 -18.5l236 -379q-16 -68 -48 -136.5t-73 -98.5q-86 0 -157.5 1t-112.5 1h-74q-27 0 -66.5 -3t-103 -8.5t-157 -14.5t-226.5 -21q-160 330 -145 411zM35 344 q133 12 206.5 19.5t115.5 11.5t69 5t66 1q41 0 111.5 -1t199.5 -1q14 10 30.5 58.5t28.5 101.5q-135 14 -213 24t-125 16.5t-75.5 8.5t-65.5 2h-256q-20 0 -36.5 -22.5t-29 -58.5t-19.5 -79t-7 -86z" />
<glyph unicode="&#x2013;" horiz-adv-x="1228" d="M-20 471l16 367h1198l16 -244v-164l-102 -102h-371q-84 0 -179 -3t-181 -7.5t-154.5 -7.5t-99.5 -3zM74 737q4 -51 6 -92t2 -72h883v164h-891z" />
<glyph unicode="&#x2014;" horiz-adv-x="1679" d="M-20 471l16 367h1626l16 -244v-164l-102 -102h-799q-84 0 -179 -3t-181 -7.5t-154.5 -7.5t-99.5 -3zM74 737q4 -51 6 -92t2 -72h1311v164h-1319z" />
<glyph unicode="&#x2018;" horiz-adv-x="487" d="M-92 1040q0 57 28.5 102.5t66.5 75t77 45t59 15.5q23 0 55.5 -24.5t61.5 -57.5q16 -18 45 -68.5t69 -142.5t90 -231.5t111 -335.5l-200 -105zM10 1075q0 -6 2 -8l240 -373q10 4 24.5 13.5t30.5 19.5q-25 100 -43 169t-31.5 114t-22.5 71.5t-15 44.5q-8 20 -22.5 35 t-33.5 15q-25 0 -48 -13.5t-40.5 -30t-29 -34t-11.5 -23.5z" />
<glyph unicode="&#x2019;" horiz-adv-x="415" d="M-80 1063q4 31 39 68.5t81 69.5t91 54.5t68 22.5q20 0 38.5 -9t39 -34t48 -71t68.5 -120q27 -51 45.5 -88.5t28.5 -67.5t16.5 -53.5t8.5 -46.5l-95 -382q-23 -12 -36 -20.5t-33.5 -18t-56 -22.5t-101.5 -34l-158 248zM23 1067l67 -373q14 4 30.5 13.5t39.5 19.5 q84 264 84 350q0 14 -4 31.5t-10.5 32t-14.5 25t-16 10.5q-14 0 -43 -11.5t-57.5 -28t-51 -36t-24.5 -33.5z" />
<glyph unicode="&#x201a;" horiz-adv-x="614" d="M-80 -246q4 31 39 68.5t81 69.5t91 54.5t68 22.5q20 0 38.5 -9t39 -34t48 -71t68.5 -120q27 -51 45.5 -88.5t28.5 -67.5t16.5 -53.5t8.5 -46.5l-95 -382q-23 -12 -36 -20.5t-33.5 -18t-56 -22.5t-101.5 -34l-158 248zM23 -242l67 -373q14 4 30.5 13.5t39.5 19.5 q84 264 84 350q0 14 -4 31.5t-10.5 32t-14.5 25t-16 10.5q-14 0 -43 -11.5t-57.5 -28t-51 -36t-24.5 -33.5z" />
<glyph unicode="&#x201c;" horiz-adv-x="927" d="M-86 1106q6 6 30.5 17.5t58.5 24.5t73 27.5t73.5 25.5t61.5 18.5t35 7.5h33q59 -25 120 -164l29 -51v63q0 39 2 69t13.5 49t36 29.5t71.5 10.5q23 0 68 -16.5t91 -39t83.5 -48t46.5 -46.5l157 -299v-59q0 -113 -20.5 -191.5t-55 -131t-78.5 -82t-91 -44.5 q-27 20 -103 150q-23 -121 -215 -160zM43 1092l285 -461q74 14 73 80q0 18 -6 41q-98 358 -137 372h-12q-12 0 -44 -4t-67 -10t-62.5 -11t-29.5 -7zM530 1065q0 -61 7.5 -131t18.5 -131.5t26.5 -105.5t31.5 -56q25 8 49.5 28.5t43 59.5t30 100.5t11.5 151.5q-1 43 -7 68 q-4 10 -28.5 24t-55 26.5t-61.5 21.5t-45 9t-17.5 -12t-3.5 -35v-18z" />
<glyph unicode="&#x201d;" horiz-adv-x="880" d="M-68 1130q6 6 52.5 21.5t102.5 33t106.5 30t64.5 12.5h31q41 -14 60.5 -35t25.5 -53l47 -80q45 74 85 124t58 50q14 0 42 -10.5t58.5 -26.5t61.5 -37.5t53 -46.5q6 -8 21.5 -33.5t36 -60.5t42 -73t40 -70.5t30 -54t11.5 -23.5l-5 -31q-31 -109 -104.5 -197t-154.5 -152.5 t-152.5 -102.5t-95.5 -44l-62 101q-80 -78 -254 -111l-160 248zM37 1092l31 -461q106 21 133 121q76 254 75 344q0 27 -8 28h-10q-12 0 -47 -4t-73 -10t-68.5 -11t-32.5 -7zM354 659q0 2 1 -3l3 -15q16 4 63.5 34t103 82t107.5 126t79 166v4q0 12 -17.5 25.5t-42 24.5 t-49 19t-37.5 8q-10 0 -29.5 -27.5t-43 -70.5t-48 -97t-45 -106.5t-33 -97.5t-12.5 -72z" />
<glyph unicode="&#x201e;" horiz-adv-x="860" d="M-68 -117q6 6 52.5 21.5t102.5 33t106.5 30t64.5 12.5h31q41 -14 60.5 -35t25.5 -53l47 -80q45 74 85 124t58 50q14 0 42 -10.5t58.5 -26.5t61.5 -37.5t53 -46.5q6 -8 21.5 -33.5t36 -60.5t42 -73t40 -70.5t30 -54t11.5 -23.5l-5 -31q-31 -109 -104.5 -197t-154.5 -152.5 t-152.5 -102.5t-95.5 -44l-62 101q-80 -78 -254 -111l-160 248zM37 -155l31 -461q106 21 133 121q76 254 75 344q0 27 -8 28h-10q-12 0 -47 -4t-73 -10t-68.5 -11t-32.5 -7zM354 -588q0 2 1 -3l3 -15q16 4 63.5 34t103 82t107.5 126t79 166v4q0 12 -17.5 25.5t-42 24.5 t-49 19t-37.5 8q-10 0 -29.5 -27.5t-43 -70.5t-48 -97t-45 -106.5t-33 -97.5t-12.5 -72z" />
<glyph unicode="&#x2022;" horiz-adv-x="1392" d="M184 594q0 92 17.5 168t61.5 129t119.5 83t190.5 30q139 0 220 -35t141 -105q55 -66 92 -121t59.5 -107t31.5 -102.5t9 -103.5q0 -186 -92 -277.5t-297 -91.5q-111 0 -185.5 17.5t-121.5 64.5l-111 121q-29 35 -53 68t-42.5 70.5t-29 83.5t-10.5 108zM287 594 q0 -287 286 -287q307 0 308 287q0 307 -287 307q-100 0 -160.5 -16.5t-93.5 -53t-43 -95t-10 -142.5z" />
<glyph unicode="&#x2026;" horiz-adv-x="1058" d="M-72 -10q0 41 19.5 81t51.5 70.5t74 50t87 19.5q53 0 90 -27.5t55 -64.5q35 41 82 66.5t100 25.5t90 -27.5t56 -64.5q35 41 82 66.5t100 25.5q66 0 104.5 -39t53.5 -86l131 -215q25 -41 24 -86q0 -35 -24.5 -74t-58 -71.5t-69.5 -54t-58 -21.5q-41 0 -85.5 32.5 t-68.5 73.5l-8 13q-37 -47 -87.5 -83t-78.5 -36q-41 0 -85 32.5t-69 73.5l-8 13q-37 -47 -87 -83t-79 -36q-41 0 -85 32.5t-68 73.5l-127 213q-25 25 -39.5 53.5t-14.5 53.5zM31 -10q0 -23 26.5 -48.5t51.5 -25.5q12 0 31.5 12.5t38 30.5t31.5 40t13 42q0 23 -16.5 45.5 t-46.5 22.5q-49 0 -89 -37t-40 -82zM358 -10q0 -23 27 -48.5t51 -25.5q12 0 31.5 12.5t38 30.5t32 40t13.5 42q0 23 -16.5 45.5t-47.5 22.5q-49 0 -89 -37t-40 -82zM686 -10q0 -23 26.5 -48.5t51.5 -25.5q12 0 31.5 12.5t38 30.5t32 40t13.5 42q0 23 -16.5 45.5t-47.5 22.5 q-49 0 -89 -37t-40 -82z" />
<glyph unicode="&#x202f;" horiz-adv-x="395" />
<glyph unicode="&#x2039;" horiz-adv-x="868" d="M16 422v229q203 127 531 453l151 -164l142 -377q-18 -10 -53 -33.5t-71 -48t-65.5 -44t-38.5 -23.5q23 -23 93.5 -75t162.5 -144q-45 -94 -90 -172t-98 -166q-397 328 -664 565zM119 471q47 -37 77.5 -57.5t55 -37t46 -29.5t49.5 -35.5t66 -56.5t95 -91q27 43 47 79 t35 64q-53 31 -101.5 65t-94.5 68.5t-93 68.5t-100 64q53 0 103 20.5t96 49.5t88 60.5t81 54.5q-33 66 -61 164q-61 -61 -107.5 -102.5t-88.5 -74t-87 -62.5t-106 -69v-143z" />
<glyph unicode="&#x203a;" horiz-adv-x="860" d="M-61 328q61 61 245 184l-231 246l129 348l717 -635v-205q-23 0 -60 -18.5t-97 -64.5t-146 -124.5t-209 -201.5zM82 307q8 -23 19.5 -40t22.5 -32.5t21.5 -32t18.5 -38.5q68 92 137.5 137t125.5 81t91 84t35 148q-72 51 -113 83t-77.5 60.5t-85 65.5t-134.5 99 q0 -31 -6 -51.5t-15 -38t-20.5 -35t-19.5 -39.5q53 -25 107.5 -54.5t102.5 -58.5t88 -52.5t64 -35.5q-31 -14 -78 -44t-98 -65.5t-100 -73.5t-86 -67z" />
<glyph unicode="&#x205f;" horiz-adv-x="494" />
<glyph unicode="&#x20ac;" horiz-adv-x="1331" d="M-90 807q0 76 2 154.5t6 164.5h123q47 231 204.5 341t450.5 110q31 0 75 -7t101 -18q29 -6 57.5 -10t62.5 -10t76 -18.5t97 -34.5q74 -154 74 -248q0 -59 -43 -141t-102 -199q-45 -86 -103.5 -211t-130.5 -291q133 0 205 41q262 -305 307 -532q-41 -25 -84 -44.5 t-111.5 -31.5t-173 -19.5t-266.5 -7.5q-217 0 -347 20.5t-189 71.5q-53 45 -82 83t-43.5 76t-20.5 81t-14 98l-102 103q-16 104 -22.5 224t-6.5 255zM0 799q47 0 76.5 2t46.5 18v-184h-82v-225h82q8 -53 27.5 -113.5t52.5 -122.5q33 -61 154.5 -97t338.5 -36 q154 0 258.5 15.5t151.5 45.5l-82 226q-23 -23 -69 -35t-104 -18.5t-120.5 -7.5t-116.5 -1q-84 0 -134 2t-80.5 15.5t-50 43t-42.5 83.5h246q47 47 64.5 95t17.5 109h-328v205q78 0 189.5 -10t220.5 -10q47 47 66.5 95t35.5 110h-512q33 98 68 148t86 71.5t122.5 23.5 t178.5 2q61 0 103 -3t57 -17q47 47 66.5 102t35.5 103q-53 8 -97 15t-82 13t-74 9.5t-75 3.5q-279 0 -418 -110t-155 -341h-123v-225z" />
<glyph unicode="&#x2122;" horiz-adv-x="1638" d="M-41 1024l23 328h858l184 -246l170 248l240 -23l143 -164v-819h-1270l-164 144l21 389l-41 -21zM82 1126h164v-532h143q0 78 -10 159t-10 189q0 111 17 158t65 47q16 0 45.5 -10.5t76.5 -10.5v41q0 16 10.5 41t10.5 41h-492zM614 594h123v430q47 -78 92 -189.5t93 -220.5 l102 -20q61 184 184 430v-430h123q0 61 -10 149t-10 199v123q0 61 2 107.5t18 76.5h-82q-20 0 -43.5 -29.5t-48 -74.5t-49.5 -100.5t-48.5 -107.5t-43 -95t-33.5 -64q-61 111 -109.5 229.5t-95.5 241.5q-16 -16 -28 -18q-2 -2 -13 -2h-61q-16 0 -20.5 2t-20.5 18v-430 q0 -78 -2 -128t-19 -97z" />
<glyph unicode="&#x25fc;" horiz-adv-x="1423" d="M0 0v1423h1423v-1423h-1423z" />
</font>
</defs>
</svg>
