<?xml version="1.0" standalone="no"?>
<!DOCTYPE svg PUBLIC "-//W3C//DTD SVG 1.1//EN" "http://www.w3.org/Graphics/SVG/1.1/DTD/svg11.dtd" >
<svg xmlns="http://www.w3.org/2000/svg" xmlns:xlink="http://www.w3.org/1999/xlink" version="1.1">
<metadata></metadata>
<defs>
<font id="reliant_shadow_freeregular" horiz-adv-x="460" >
<font-face units-per-em="2048" ascent="1638" descent="-410" />
<missing-glyph horiz-adv-x="669" />
<glyph horiz-adv-x="0" />
<glyph horiz-adv-x="682" />
<glyph unicode=" "  horiz-adv-x="669" />
<glyph unicode="&#x09;" horiz-adv-x="669" />
<glyph unicode="&#xa0;" horiz-adv-x="669" />
<glyph unicode="!" horiz-adv-x="380" d="M98 238l181 952q3 20 17 33.5t34 13.5q19 0 31.5 -14t15.5 -35v-14q0 -15 -2 -21l-248 -909q-7 -27 -18 -27q-4 0 -7.5 3.5t-3.5 6.5v11zM180 156l125 657q17 60 47 172.5t43 161.5h-2q0 1 1 2t1 2q8 4 17 4q19 0 31.5 -14t15.5 -35v-14q0 -15 -2 -21l-248 -909 q-7 -27 -19 -27q-10 0 -10 10v11zM2 72q0 36 25.5 63t60.5 27q31 0 50.5 -20.5t19.5 -51.5q0 -36 -26 -63t-62 -27q-30 0 -49 21t-19 51zM152 -82q-28 0 -46.5 18.5t-21.5 45.5q37 4 63 32t31 66q27 -3 44.5 -23.5t17.5 -48.5q0 -36 -26 -63t-62 -27z" />
<glyph unicode="&#x22;" horiz-adv-x="446" d="M252 545q0 6 4 12l63 272h103l-66 -297q-15 -30 -61 -30q-45 0 -45 33zM31 545q0 6 4 12l61 272h103l-64 -297q-19 -30 -63 -30q-41 0 -45 33zM334 463q0 6 4 12l4 19q29 21 35 34l47 220h80l-66 -297q-16 -31 -61 -31t-45 33zM231 545l-2 -10q0 -13 2 -19l-14 -65 q-19 -31 -63 -31q-41 0 -45 33l4 10q0 6 4 12l4 21q22 13 35 32l47 220h76q-7 -31 -22 -94t-21 -91q-5 -8 -5 -18z" />
<glyph unicode="#" horiz-adv-x="1216" d="M530 41q0 5 5 20l83 240h-190l-133 -346q-11 -29 -41 -29q-17 0 -28 12t-11 29v10l90 240l2 6q9 24 26.5 69.5t26.5 69.5h281l-23 -61h21l29 82h-322l-133 -346q-11 -29 -41 -29q-17 0 -28 12t-11 29v10l121 324h-205q-13 0 -25 14.5t-12 28.5t11.5 27.5t25.5 13.5h238 l139 362h-379q-6 2 -10 2q-25 13 -25 39q0 15 12 29t25 14h406l114 297q7 17 31 27h10q19 0 30 -12t11 -31v-6l-102 -275h305l104 295q9 23 39 23q16 0 28.5 -11t12.5 -28q0 -12 -2 -16l-92 -263h223q16 0 27.5 -13.5t11.5 -29.5q0 -26 -26 -39l-9 -2h-256l-127 -362h381 q14 0 24.5 -13.5t10.5 -27.5q0 -31 -22 -39q-2 0 -8 -2t-7 -2h-409l-29 -82h21l-35 -96l-17 -45l74 202h399q10 5 13 5q18 7 26 18h41q14 0 24.5 -13.5t10.5 -27.5q0 -31 -22 -39q-2 0 -8 -2t-7 -2h-409l-125 -352q-10 -31 -39 -31q-19 0 -31 12t-12 29q0 8 2 14l63 187 q-40 -112 -47 -135q-13 -45 -57 -45q-28 0 -46 17.5t-18 43.5zM379 467h319l127 362h-309zM997 748l-92 -261h-90l59 168q49 133 56 154h241q7 2 13 2q13 5 28 20h37q16 0 27.5 -13.5t11.5 -29.5q0 -25 -26 -38l-9 -2h-256zM408 487l100 261h-2q21 53 24 61h269 q-16 -46 -21 -61h-180l-98 -261h-92zM733 1106l-65 -172h-93l76 194q7 17 31 27h10q19 0 30 -12t11 -31v-6zM1118 1094l-57 -160h-88q23 71 47 135l20 57q9 23 39 23q16 0 28.5 -11t12.5 -28q0 -12 -2 -16zM94 788q0 12 6 21h297q-3 -8 -24 -61h-244q-6 2 -10 2 q-25 12 -25 38zM94 344q0 12 4 18h129l-24 -61h-72q-13 0 -25 14.5t-12 28.5z" />
<glyph unicode="$" horiz-adv-x="1021" d="M154 -70v2q2 3 2 5l55 88v2q-94 34 -150.5 103t-56.5 165q0 129 103 229.5t235 100.5q98 0 180 -58v2l156 269l2 6l-8 55l-4 66v6q0 82 48 154t124 96q35 7 59 4l2 2l49 84l2 2h2l33 -23l-41 -73v-3q64 -33 64 -77q0 -21 -16 -33t-36 -12q-13 0 -22.5 8t-9.5 24v4 q5 9 10 11l29 14l-4 4q-10 10 -33 23h-2l-189 -328l66 -240l20 -96l4 -76v-12q0 -211 -165 -336q-5 -2 -24 -16.5t-24 -16.5q-98 -65 -239 -65q-57 0 -109 14q-10 0 -14 4l-62 -104l-34 22h-2zM272 47l4 -2q44 -10 99 -10q113 0 198 49q2 0 11 4.5t10 5.5q107 69 149 174 q21 65 21 140v16q0 6 -1 25t-1 20l-12 82l-54 229q0 -2 -2 -3.5t-2 -2.5l-141 -242q0 -2 2 -4q6 -12 6 -14q6 -6 6 -14q15 -30 15 -66q0 -103 -88 -162q-29 -19 -43 -24q-50 -12 -70 -12l-2 -3zM41 295q0 -72 42 -129.5t112 -95.5q4 -1 12.5 -4t14.5 -6t7 -3l105 181l-2 2 q-6 2 -10 2q-2 0 -9 2t-8 2q-43 11 -74 57q-10 10 -10 23q0 18 19 18q5 0 9 -2.5t9 -10t6 -9.5q4 -6 15 -17q14 -13 35.5 -23t35.5 -10q0 2 2 4l146 250l2 4v2q-4 7 -6 7q-1 1 -7.5 6t-7.5 6q-43 31 -127 31q-114 0 -212.5 -86t-98.5 -201zM791 903q1 -18 10 -72h4l137 242 q4 -2 16 -2q24 0 39 10l-178 -311l66 -240l20 -96l4 -76v-12q0 -210 -166 -336q-5 -2 -23.5 -16.5t-23.5 -16.5q-98 -65 -239 -65q-57 0 -109 14q-10 0 -14 4l-62 -104l-34 22h-2v2q2 3 2 5l55 88v2q-29 11 -45 20q3 5 8 13t6 10q9 -3 39 -8q3 -1 6 -3t4 -2v2q32 -4 47 -4 l-4 -8l4 -2q44 -10 99 -10q113 0 198 49q2 0 11 4.5t10 5.5q107 69 149 174q21 64 21 140v16q0 21 -2 31q4 32 4 55v12l-4 80l-21 96q-10 39 -31.5 117t-31.5 117q28 51 31 55v-2zM487 195l7 2q17 3 26 8q45 24 75 62.5t30 86.5q0 13 -13 56h-2l-16 -27q6 21 6 51 q0 35 -12 62q3 -1 5.5 -2.5t5.5 -4.5t5 -4v2l98 168q2 -10 7.5 -30.5t7.5 -30.5l-84 -143q0 -3 2 -5q6 -12 6 -14q6 -6 6 -14q15 -30 15 -66q0 -102 -89 -162q-29 -19 -43 -24q-50 -12 -69 -12l-2 -2l-56 -97h-47l60 101l-2 2q-7 2 -11 2q-2 0 -8.5 2t-7.5 2q-12 3 -22 8 q3 5 10 16.5t10 16.5q30 -15 47 -15q0 3 2 5l21 34q21 9 49 27q24 16 35 27zM123 213q0 -41 12 -76q-35 35 -49 62v14q0 129 103 229.5t235 100.5q19 0 29 -2q2 -1 7 -3t7 -3l2 -3q2 -3 4 -4v-2q-14 -23 -16 -26h-23q-114 0 -212.5 -86t-98.5 -201zM709 985q1 -18 10 -72h4 l154 271v2q-28 0 -58 -19q-49 -25 -78 -74.5t-32 -107.5zM406 276l6 3q17 3 26 8q45 24 75 62.5t30 86.5q0 13 -13 56h-2zM1042 1075q-20 15 -28 19q13 17 16 36q24 -13 43 -33t19 -42q0 -21 -16 -33t-36 -12q-13 0 -22.5 8t-9.5 24v5q4 8 10 10l29 14zM1069 1208l-39 -69 q0 28 -20 51l22 39l2 2h2zM901 1085q-2 -2 -4 -2q2 3 6 10.5t6 10.5q0 -4 4 -12zM176 10l-12 13q3 -1 8 -3.5t8 -3.5z" />
<glyph unicode="%" horiz-adv-x="1292" d="M20 866q0 40 9 78q19 86 67 148q22 35 60 65q87 80 190 80q106 0 165.5 -74t59.5 -184q0 -85 -36.5 -165t-100.5 -134q-81 -68 -172 -68q-66 0 -123 31.5t-90 89.5q-29 59 -29 133zM719 250q0 55 16 108q33 107 119 187t193 80q17 0 45 -7q34 -6 63 -22q17 -10 33 -23 q15 -13 33 -34q14 -16 30 -56q19 -59 19 -121q0 -83 -38.5 -166t-111 -139.5t-159.5 -56.5q-72 0 -125 33q-117 67 -117 217zM801 250q0 -58 13 -106t50 -84.5t94 -36.5q44 0 83 20.5t67.5 55t48.5 72.5t33 79q16 57 16 129q0 96 -38 159.5t-124 63.5q-71 0 -128 -56 t-85 -130q-23 -64 -28 -105q0 -3 -1 -25t-1 -26v-10zM100 866l1 -12q1 -11 1 -16q0 -21 2 -25q8 -77 45.5 -126.5t110.5 -49.5q96 0 162 90q33 44 49 86q25 66 27 78q10 55 10 100q0 44 -8 81.5t-25.5 70.5t-50.5 52t-78 19q-46 0 -87.5 -25t-70.5 -65t-49 -84t-30 -88 q0 -2 -2.5 -14t-2.5 -14zM227 29q0 10 13 14l47 20q10 5 37 23q41 26 65 57q4 4 15 17l12 12l30 47l29 53l215 529l62 114l55 89l49 63l57 59q1 2 18.5 16.5t22.5 18.5q52 42 99 66q20 10 30 10q21 0 21 -18q0 -14 -14 -21q-2 0 -13 -4.5t-12 -5.5q-89 -51 -125 -103 q-2 -3 -9.5 -12t-13 -16.5t-6.5 -9.5l-32 -54l-263 -610l-55 -102l-39 -60l-41 -51l-28 -29l-45 -43l-17 -12q-17 -13 -22 -18q-3 -1 -15.5 -9.5t-15.5 -9.5t-37 -18q-1 -1 -8.5 -4t-16.5 -7t-12 -6l-6 -2h-6q-6 0 -15.5 5t-9.5 12zM309 -53q0 10 13 14l47 21q16 8 37 22 q41 26 65 57q4 3 15 16l12 13l30 47l29 53l66 160l8 17q33 80 196 454l7 13l55 88l49 63l57 59q2 2 19.5 16.5t21.5 18.5q52 42 99 66q20 10 30 10q21 0 21 -18q0 -13 -15 -21q-2 0 -12.5 -4.5t-11.5 -5.5q-91 -52 -125 -102q-28 -38 -29 -39l-32 -54l-185 -430 q-38 -52 -61 -116q-10 -27 -13 -54l-4 -10l-55 -102l-39 -60l-41 -51l-28 -29l-46 -43l-17 -12q-16 -13 -21 -18q-3 -1 -15.5 -9.5t-15.5 -9.5t-37 -18q-1 -1 -8.5 -4t-16.5 -7t-12 -6l-6 -2h-6q-6 0 -15.5 5t-9.5 12zM918 -49q-37 21 -62 49q53 -16 84 -18q41 -41 100 -41 q44 0 83 20.5t67.5 55t48.5 72.5t33 79q16 57 16 129v22q2 14 2 43q0 68 -20 127l-2 3h2q13 -10 33 -35q14 -16 30 -56q19 -59 19 -120q0 -83 -38.5 -166t-111.5 -140t-160 -57q-71 0 -124 33zM344 530q-110 0 -184 80q41 -15 84 -18q37 -37 98 -37q96 0 162 90q33 44 49 86 q25 66 27 78q10 55 10 100v23q2 14 2 47q0 66 -25 127q41 -35 63.5 -90.5t22.5 -118.5q0 -85 -36.5 -165t-100.5 -134q-81 -68 -172 -68zM121 866l2 41q25 66 55 103q22 35 60 65q87 80 190 80h10q2 -3 6.5 -8t7.5 -9t5 -8q-12 3 -29 3q-46 0 -87.5 -25t-71 -65t-49.5 -84.5 t-30 -88.5q0 -2 -2 -14t-2 -14l-4 -58l1 -12q1 -11 1 -16q0 -21 2 -25q2 -17 11 -59q-61 37 -72 145q-2 4 -2 21q0 3 -1 11t-1 11v6zM821 250v10q0 1 1 11.5t1 17.5v6q36 102 119.5 175t185.5 73h9q11 -11 18 -25q-4 0 -14 1t-15 1q-71 0 -128 -56t-85 -130 q-23 -64 -28 -105q0 -3 -1 -25t-1 -26v-10q0 -62 14 -111q-76 47 -76 193z" />
<glyph unicode="&#x26;" horiz-adv-x="1509" d="M485 6l-84 17q-2 0 -15.5 3.5t-30.5 8.5t-23 6q-142 41 -225.5 137.5t-83.5 237.5q0 147 102 274q11 11 14 17q4 3 14.5 14t10.5 12l88 70l49 33l2 2q-3 2 -11 8.5t-9 9.5q-18 15 -33 33q-41 52 -41 129q0 113 80 217q6 9 28 31q129 139 299 139q149 0 209 -123 q17 -31 17 -61q0 -32 -20 -53t-52 -21q-24 0 -38.5 17t-14.5 42q0 41 28 41q5 0 18 -3t21 -3h15q0 9 -11 31q-44 94 -174 94q-56 0 -112 -18q-120 -43 -174 -172q-41 -87 -41 -185q0 -34 10 -82q0 -2 3 -10.5t3 -9.5l2 -2l25 -25q1 -1 5 -4t5 -4q93 51 176 51q43 0 85 -19 t42 -57q0 -22 -14 -38t-36 -23.5t-42.5 -10.5t-40.5 -3q-66 0 -131 30q-1 1 -21 11q-6 0 -20 14h-6q-3 -2 -23.5 -15.5t-23.5 -15.5q-3 -3 -43 -33q-1 -1 -11 -8.5t-12 -9.5q-10 -5 -10 -10l-35 -58l-6 -11q-5 -10 -10.5 -20.5t-7.5 -15.5q-35 -81 -35 -168q0 -187 178 -321 q111 -86 307 -86h23l90 8q19 0 49 6q95 17 184 72q86 51 144.5 133.5t58.5 175.5q0 67 -32.5 132t-92 108t-129.5 43q-66 0 -122 -36t-56 -99q0 -39 22.5 -70t59.5 -31q23 0 26 8v2q-28 42 -28 60q0 12 13.5 19t29.5 7q19 0 31 -12t12 -31q0 -39 -22 -62.5t-60 -23.5 q-61 0 -97 47.5t-36 110.5q0 72 40 127.5t107 91.5q5 1 20 9t17 10q5 1 19 5.5t24 7.5t12 3l340 74q2 1 14.5 4.5t25 7.5t16.5 6q157 53 157 168q0 73 -61 122.5t-135 49.5q-59 0 -100 -31t-50 -88q4 -4 8 -4l45 -4q2 0 4 -2v-6q0 -55 -36 -55q-19 0 -35.5 12.5t-20.5 30.5 q-4 10 -4 26q0 53 40 95.5t93 58.5q27 6 56 6q80 0 145 -47q40 -27 62 -72t22 -96q0 -166 -199 -250q-4 -1 -14 -4.5t-20.5 -7t-12.5 -4.5q-42 -14 -57 -14l-311 -54q-15 0 -31 -8q-71 -22 -100 -63l-7 -11v-2q64 58 152 58q79 0 147.5 -47.5t107 -121t38.5 -151.5 q0 -83 -43 -164q-39 -67 -103 -125q-111 -94 -249 -125q-38 -8 -43 -10l-91 -10h-92zM567 -76l-84 17q-2 0 -15.5 3.5t-30.5 8.5t-23 6q-120 37 -191 100q52 -25 103 -39v3q2 -1 11.5 -4t16.5 -5q10 -4 43 -12l76 -14q87 -33 209 -33h23l90 8q19 0 49 6q95 17 184 72 q86 51 144.5 133.5t58.5 175.5q0 55 -27 117q-5 56 -35 117q46 -46 72.5 -107.5t26.5 -124.5q0 -83 -43 -164q-39 -67 -103 -125q-110 -93 -250 -124q-35 -7 -43 -11l-90 -10h-92zM197 362q0 -90 36 -161q-98 109 -98 243q0 38 4 56q21 51 68 108q11 11 14 17q4 3 14.5 14 t10.5 12l88 70l49 33l2 2q-4 0 -12 8q59 -25 110 -31q55 -22 111 -22h18q1 0 12 1t13 1q49 14 49 35q0 18 -41 30q10 10 17 35q41 -14 55 -39q-41 -44 -58 -94q-33 -8 -67 -8q-66 0 -131 30q-1 1 -21 11q-6 0 -20 14h-6q-3 -2 -23.5 -15.5t-23.5 -15.5q-2 -2 -10.5 -8.5 t-19.5 -14t-13 -9.5q-1 -1 -11 -9t-12 -10q-10 -5 -10 -10l-35 -57q0 -1 -6 -11t-11.5 -21t-7.5 -16q-34 -78 -34 -168zM369 909v-18q-25 -10 -29 -12q-4 2 -10 8h-4l-7 14q1 -1 2 -1q3 0 -2 5q-2 2 -2 8q-10 48 -10 78q0 35 2 51q21 60 62 111q6 9 28 31q129 139 299 139 h19q27 -15 45 -45q-30 6 -66 6q-56 0 -112 -18q-120 -43 -174 -172q-41 -87 -41 -185zM823 614q64 58 152 58h10q39 -22 68 -54q-47 15 -76 15q-74 0 -125 -39q-4 2 -12 2q-24 0 -44 -12t-20 -35q0 -19 17 -49q-29 0 -43 28q0 84 61 148q41 18 84 18q15 0 35 -4 q-73 -22 -101 -63l-6 -11v-2zM1290 1241q27 6 56 6h6q33 -16 61 -51q-34 12 -67 12q-59 0 -100 -30.5t-50 -87.5q5 -5 8 -5l45 -4q2 0 4 -2v-6q0 -55 -36 -55q-19 0 -35.5 12.5t-20.5 30.5q-4 8 -4 22q35 16 35 76l-4 12q42 52 102 70zM870 1190q-2 3 -5 8t-5 8q2 4 2 15 q0 24 -10 51q35 -27 55 -72q17 -31 17 -61q0 -32 -20 -53t-52 -21q-24 0 -38.5 17t-14.5 42v4q28 9 45 33q8 -2 22 -2h15q0 9 -11 31zM516 866q-38 0 -104 -20l-37 -15v-2l8 -4q66 -32 129 -32h18q1 0 12 1t13 1q49 14 49 34q0 19 -31.5 28t-56.5 9zM883 365q-70 0 -109 63 q8 -2 27 -2q14 0 20 2q24 -31 60 -31q23 0 26 9v2q-26 35 -28 51q10 14 16 28q14 7 27 7q19 0 31 -12t12 -31q0 -39 -22 -62.5t-60 -23.5zM520 813q19 4 53 8q-18 -6 -20 -6q-4 -2 -14 -2h-19z" />
<glyph unicode="'" horiz-adv-x="202" d="M20 545q0 2 2 5.5t3 6.5l61 272h104l-65 -297q-6 -12 -24 -21t-38 -9q-21 0 -33 9.5t-12 23.5zM102 463q0 2 0.5 3.5t1.5 4t2 4.5l5 19q26 19 34 34l48 220h79l-65 -297q-6 -12 -24 -21.5t-38 -9.5q-21 0 -33 9.5t-12 23.5z" />
<glyph unicode="(" horiz-adv-x="651" d="M281 -322l-52 33q-10 5 -32 27q-39 39 -39 45q-6 10 -37 51l-37 68l-31 71q-8 39 -22 86q-2 10 -6.5 30t-6.5 30l-6 86v76q1 14 4 40.5t4 38.5q3 19 11 51.5t10 45.5l18 61l27 80q6 13 19.5 42t19.5 42q7 15 22 42.5t17 31.5q7 12 22.5 37t22.5 36q10 13 30 41.5t25 36.5 q7 8 41 47.5t51 61.5h-2l60 57v-2l37 35q7 6 23.5 21.5t23.5 21.5q51 31 63 41l51 29q11 8 25 8q4 0 9 -6.5t5 -12.5q-8 -12 -16 -16q-3 -3 -19 -10.5t-20 -7.5q-20 -11 -54.5 -40t-59.5 -52l-25 -23l-29 -33l-74 -102l-63 -111l-53 -106l-58 -132l-57 -282l-10 -109l2 -75 l10 -99l20 -69l23 -72l20 -39q37 -53 64 -82q15 -15 33 -27q-1 0 1 -1.5t7 -4.5t6 -4t6 -4t6 -4q6 -6 6 -10q-14 -14 -16 -15h-20zM227 -141l23 -72l8 -16q-41 47 -51 67q-16 27 -21 39l2 -2l-22 72q-3 10 -10.5 34.5t-10.5 34.5q-1 17 -5 48t-5 47q0 11 -1 34.5t-1 36.5 q1 16 5 53t5 54q9 47 29 141t29 141l-2 -4q11 27 47 107q7 12 22.5 37.5t22.5 36.5q11 14 31.5 43t23.5 34q7 8 41 47.5t51 61.5h-2l60 57v-2l36 35q7 6 24 21.5t24 21.5q51 31 63 41l51 29q11 8 25 8q4 0 9 -6.5t5 -12.5q-8 -12 -16 -16q-3 -3 -19 -10.5t-20 -7.5 q-20 -11 -54.5 -40t-59.5 -52l-25 -23l-29 -33l-74 -102l-63 -111l-54 -106l-57 -131l-57 -283l-10 -109l2 -75l10 -99zM362 -403l-51 32q-10 5 -32 27l-3 2h29q15 10 21 16l8 -8q12 -12 33 -26q-1 0 3.5 -3.5t10.5 -7.5q1 -1 6 -4t6 -4q6 -6 6 -10q-12 -12 -16 -14h-21z " />
<glyph unicode=")" horiz-adv-x="634" d="M6 -297q4 8 8 12q53 27 127 80l21 23q4 4 9.5 9t9.5 8.5t5 4.5l47 49l54 68q0 5 10 18q6 8 20 29l11 16q20 30 39 68l53 115l33 100l26 103l8 34l15 99l12 114l-4 109l-10 106l-21 97q-4 12 -11 36.5t-11 36.5q-8 24 -15 31q-10 30 -45 78q-19 7 -32 24q-12 9 -15 15 q-4 2 -6 4q-16 12 -22 14q-9 9 -7 19q4 11 19 16q8 0 20 -6l43 -31v2q7 -7 22.5 -21.5t22.5 -21.5h-2q25 -35 37 -51q7 -14 25.5 -43.5t25.5 -42.5q7 -18 22.5 -55t18.5 -43l27 -80q2 -14 7 -41.5t7 -40.5q1 -17 5.5 -54.5t5.5 -56.5q0 -9 -1.5 -39.5t-1.5 -40.5 q-1 -11 -2 -24.5t-2 -30.5t-2 -26q0 -1 -2 -5.5t-2 -5.5q0 -2 -1 -5.5t-1 -4.5q0 -17 -10 -47q-6 -24 -6 -31q-4 -15 -9.5 -31t-12 -35.5t-9.5 -29.5q-6 -14 -18.5 -43.5t-18.5 -44.5l-43 -86q-29 -45 -49 -74q-10 -13 -30.5 -41.5t-30.5 -42.5h2q-69 -75 -82 -88l-53 -53v2 q-9 -7 -29 -23.5t-29 -23.5l-57 -41q-1 -3 -20.5 -13.5t-28.5 -13.5q-1 0 -4 -2l-23 -12l-10 -4q-4 -2 -8 -2q-9 0 -16.5 2.5t-4.5 9.5zM88 -379q4 8 8 12q53 27 127 80l21 23q4 4 9.5 9t9.5 8.5t5 4.5l47 49l54 68q0 6 10 19q6 8 20 29l11 16q22 33 39 67l53 115l2 6l37 74 l18 43q3 7 8 19.5t8 19.5q4 12 16.5 49t18.5 55q0 9 6 33l-2 -2q13 46 13 53v4q0 1 2 5l4 12q0 4 1 15t1 15q1 8 2 25t2 24q0 4 1 19t1 24v41q-1 9 -3 29t-3 29q-4 36 -4 55q-1 5 -4 18t-4 21q-1 7 -4.5 24.5t-4.5 24.5l-22 66q-3 6 -21.5 50t-25.5 62q-5 7 -23 39 q-14 18 -16 23q3 -3 9 -8.5t9 -8.5h-2q25 -35 37 -51q7 -13 25.5 -42.5t25.5 -43.5q7 -18 22.5 -55t18.5 -43l27 -80q2 -14 7 -41.5t7 -40.5q1 -17 5 -54.5t5 -56.5q0 -9 -1 -39t-1 -40q-1 -15 -3.5 -45t-2.5 -37q0 -1 -2 -5.5t-2 -5.5q0 -2 -1 -5.5t-1 -4.5q0 -17 -10 -47 q-6 -24 -6 -31q-4 -15 -9.5 -31t-12 -35.5t-9.5 -29.5q-6 -14 -18.5 -44t-18.5 -44l-43 -86q-29 -45 -49 -74q-10 -14 -30.5 -42t-30.5 -42h2q-69 -75 -82 -88l-54 -53v2q-9 -7 -28.5 -23.5t-28.5 -23.5l-57 -41q-1 -3 -20.5 -13.5t-28.5 -13.5q-1 0 -4 -2l-23 -12l-10 -4 q-4 -2 -8 -2q-9 0 -16.5 2.5t-4.5 9.5z" />
<glyph unicode="*" horiz-adv-x="501" d="M39 762q1 1 1.5 4t2 5.5t4.5 4.5l148 152l-172 67q-13 6 -9 25q3 9 12 16.5t19 7.5q4 0 8 -2l162 -63l45 197q1 8 11 14t20 6q8 0 14.5 -5.5t5.5 -12.5l-43 -199l197 65h4q12 0 17.5 -7.5t2.5 -18.5q-4 -19 -22 -25l-197 -63l82 -150q7 -5 4 -18q-2 -8 -9.5 -15.5 t-16.5 -7.5q-18 0 -21 9l-84 145l-143 -145q-12 -9 -23 -9q-9 0 -15 7t-5 16zM391 666l-37 63q17 13 23 29q6 18 -8 35q-11 20 -32.5 62t-33.5 63l55 18l-8 -39l197 66h4q12 0 17.5 -8t2.5 -19q-4 -19 -22 -25l-197 -63l82 -150q7 -5 4 -18q-2 -8 -9.5 -15.5t-16.5 -7.5 q-18 0 -21 9zM121 680q6 13 8 14l115 119q4 -7 13 -20.5t13 -20.5l-106 -106q-12 -9 -23 -9q-9 0 -15 7t-5 16zM393 1096l-12 -60l-57 -18l18 76q1 8 11 14t20 6q8 0 14.5 -5.5t5.5 -12.5zM96 938q0 4 2 6q8 -4 18 -8t22.5 -8.5t19.5 -7.5l-21 -21l-33 14q-12 6 -8 25z" />
<glyph unicode="+" horiz-adv-x="770" d="M297 250q-8 0 -16 8t-5 18l74 338h-327q-10 0 -15 9t0 20q4 8 14 16.5t19 8.5h317l72 325q1 8 10.5 11.5t16.5 1.5q11 -2 18 -10.5t4 -20.5l-65 -307h342q8 0 10 -9.5t-2 -15.5q-12 -29 -35 -29h-326l-73 -346q-6 -22 -33 -18zM379 168q-8 0 -16 8.5t-5 18.5l74 337h-26 l12 54h22l2 8h56l-2 -8h342q8 0 10 -9.5t-2 -15.5q-12 -29 -35 -29h-326l-73 -346q-6 -22 -33 -18zM561 893l-43 -205h-55l49 223q1 8 10.5 11.5t16.5 1.5q11 -2 18 -10.5t4 -20.5zM90 561q4 8 14 16.5t19 8.5h199q-4 -18 -13 -54h-205q-10 0 -14.5 9t0.5 20z" />
<glyph unicode="," horiz-adv-x="229" d="M25 -117q4 15 14 25q5 5 15.5 15t16.5 16t14 15.5t13 18.5q0 1 2 5t5 9.5t4 6.5l2 4l2 2q-4 0 -12.5 -1t-12.5 -1q-28 0 -41.5 20.5t-7.5 49.5q7 41 41 70.5t74 29.5q30 0 44 -15t13.5 -38t-4.5 -49q-27 -122 -127 -203q-16 -13 -31 -13q-12 0 -19.5 9t-4.5 24zM106 -199 q3 13 15 25q5 5 15.5 15t16.5 16t14 15.5t13 18.5q0 1 10 21l3 4l2 2q-4 0 -12.5 -1t-12.5 -1h-8q47 61 65 145q1 4 2 12.5t2 12.5h5q30 0 44 -15t13.5 -38t-4.5 -49q-27 -122 -127 -203q-15 -12 -31 -12q-13 0 -20.5 9t-4.5 23z" />
<glyph unicode="-" d="M117 260q2 7 10 16t16 9h355q8 0 11 -8.5t1 -16.5q-2 -11 -11 -20t-20 -9h-344q-9 0 -14.5 9t-3.5 20zM35 342q2 7 10 16t16 9h355q8 0 11 -8.5t1 -16.5q-2 -11 -11 -20t-20 -9h-344q-9 0 -14.5 9t-3.5 20z" />
<glyph unicode="." horiz-adv-x="225" d="M25 68q0 42 30 74t72 32q31 0 52.5 -21t21.5 -53q0 -41 -32 -73.5t-73 -32.5q-30 0 -50.5 21.5t-20.5 52.5zM178 -88q-28 0 -48.5 17.5t-23.5 43.5q43 4 76.5 39t38.5 78q27 -3 44.5 -23t17.5 -49q0 -41 -32 -73.5t-73 -32.5z" />
<glyph unicode="/" horiz-adv-x="847" d="M2 16q0 10 10 13q115 51 168 123q3 3 31 45q4 7 18.5 31.5t14.5 25.5l202 500l60 116l55 86q3 3 26.5 32.5t28.5 35.5q44 50 99 90q13 13 43 33q21 12 49 24q7 5 20 5h7q12 -4 12 -17q0 -5 -3.5 -9t-7 -6t-11 -5t-9.5 -4q-94 -46 -156 -140q-3 -5 -10 -17t-12.5 -22 t-7.5 -12l-252 -584q-19 -49 -37 -75q-4 -9 -25 -40.5t-28 -39.5q-5 -9 -22.5 -31.5t-22.5 -26.5l-49 -49q-74 -70 -158 -98h-8q-25 0 -25 16z" />
<glyph unicode="0" horiz-adv-x="1155" d="M393 12l-51 17q-33 9 -84 37q-107 71 -164 170l-10 15l-2 5v2q-1 2 -4 9t-4 12l-11 20l-16 53q-1 2 -1.5 8t-1 14.5t-1.5 14.5l-6 19q0 26 -2 38q0 6 -1 14l-1 7v61l10 80q0 32 6 41q0 9 6 32.5t8 27.5l7.5 20t10.5 26l9 21q2 6 19 41.5t22 48.5q17 21 41 62 q7 9 22.5 29.5t22.5 29.5h-2l35 39l53 57v-2q53 41 55 43q5 5 17 11q16 13 31 18q107 64 223 76q1 0 5 1t7 1h33q66 0 127 -17q43 -10 127 -57q8 -13 30 -24v-3l52 -45h-2l14 -18q12 -13 22 -41q76 -130 76 -303v-29l-6 -67q0 -40 -8 -60v2q-1 -3 -6.5 -28.5t-7.5 -32.5 q11 11 2 -7q-4 -8 -14 -27l-7 -13q-8 -24 -33 -74q-4 -11 -9.5 -22.5t-13 -25t-11.5 -22.5q-9 -11 -26 -33.5t-22 -29.5q-7 -10 -23.5 -29.5t-21.5 -25.5q-8 -8 -25.5 -29t-19.5 -23q-24 -24 -39 -34q-6 -1 -23.5 -13t-25.5 -20q-79 -52 -182 -74q-8 -4 -41 -4q-2 -2 -16 -2 h-58q-8 2 -12 2q-10 2 -33 2q-12 0 -24 2q-9 6 -21 6zM190 399l7 -71q4 -4 10 -35q0 -2 1 -5.5t1 -4.5q13 -34 18 -41h-2q36 -100 107.5 -153.5t175.5 -53.5q77 0 153 39t132 102q33 33 41 45q3 6 16 24t18 23q6 8 17 26.5t12 24.5q29 58 33 70l28 82l23 74l14 71l9 105v70 q0 2 -1.5 11.5t-1.5 16.5v25q0 16 -4 22q-1 5 -4 19.5t-4 19.5l-14 60q-13 27 -17 45l-6 14q-6 14 -6 18q-41 76 -111 116t-157 40q-149 0 -287 -141l-22 -21q-2 -3 -17 -18h4l-20 -29l-39 -59l-39 -80l-35 -82q-2 -14 -9 -42t-9 -40l-12 -70l-7 -84v-75zM393 -8q6 0 15 -6 q12 -2 30 -2h13q60 -31 139 -31q77 0 152.5 38.5t131.5 102.5q33 33 41 45q3 6 16.5 24t18.5 23q6 8 17 27t12 25q3 10 14 28q0 2 4 6q4 6 12.5 16.5t12.5 16.5l14 29v-2q8 14 23 47q8 13 31 70l8 16q8 17 31 57q39 69 30 70q-6 1 -33 -23q9 41 9 56l6 67v31q0 166 -70 297 l21 -16h-2l14 -19q12 -13 22 -41q76 -130 76 -303v-29l-6 -67q0 -40 -8 -60v2q-1 -3 -6.5 -28.5t-7.5 -32.5q11 11 2 -7q-4 -8 -14 -27l-7 -13q-8 -24 -33 -74q-5 -15 -18.5 -38.5t-16.5 -30.5q-9 -11 -25 -33.5t-22 -30.5q-7 -10 -23.5 -29.5t-21.5 -25.5q-3 -3 -45 -51 q-27 -27 -39 -35q-6 -1 -23.5 -13t-25.5 -20q-79 -52 -182 -74q-8 -4 -41 -4q-2 -2 -16 -2h-58q-8 2 -12 2q-10 2 -33 2q-12 0 -24 2q-9 6 -21 6q-3 1 -15.5 5.5t-22 7.5t-13.5 4q-33 9 -84 37q-39 28 -59 45q23 -11 55 -21q36 -9 51 -14zM211 401l-4 56v73l3 42l3 42v-2 l12 70l6 37q2 11 7.5 28.5t5.5 18.5q3 9 32 76q28 50 39 78q1 2 7 10t10 14l53 57v-2q53 41 55 43q5 5 17 11q17 14 30 18q107 64 224 76q1 0 5 1t7 1h33q37 0 55 -2q35 -18 72 -55q-59 24 -123 24q-149 0 -287 -141l-22 -21q-2 -3 -17 -18h4l-20 -29l-39 -59l-39 -80 l-35 -82q-2 -14 -9 -42t-9 -40l-13 -69l-6 -84v-76l4 -58l7 -71q4 -4 10 -35q0 -2 1 -5.5t1 -4.5q13 -34 18 -41h-2q6 -18 12 -33q-50 50 -77 129l-13 31q0 3 -1 6t-1 4q-5 25 -10 35z" />
<glyph unicode="1" horiz-adv-x="538" d="M162 6v8l256 1096q-37 -28 -112 -88t-99 -78l-129 -90q-35 -14 -62 -14h-14l444 366q25 25 46 25q14 0 22 -14t8 -31v-21q-17 -73 -117.5 -500t-152.5 -653v2q-4 -14 -12 -14h-76q-2 0 -2 6zM244 -76v8l12 54q14 14 16 24q51 222 172 733l91 387q27 19 38 19 q14 0 22.5 -14t8.5 -31v-21q-17 -73 -117.5 -500t-152.5 -653v2q-4 -14 -12 -14h-76q-2 0 -2 6zM98 758h-14l285 235l-19 -84q-5 -4 -61 -47l-129 -90q-35 -14 -62 -14z" />
<glyph unicode="2" horiz-adv-x="1083" d="M29 18q0 8 10 15l459 254l100 71l100 82l39 49l49 56l35 57q0 6 10 16l15 29q28 60 37 135q4 16 4 35v21q0 63 -25 133q-11 33 -53 86q-20 33 -66 57q-85 60 -190 60q-148 0 -274 -113v2q-10 -3 -29 -29l-37 -49q-1 -3 -10 -19t-10 -18q-31 -68 -39 -92q-23 -76 -23 -176 v-12q0 -4 1 -16t1 -17v-8q4 -35 13.5 -99.5t11.5 -78.5q-31 31 -48.5 82t-19.5 100q-2 18 -2 26l2 66l10 61q0 9 9 45q0 3 2 9l2 6q4 22 20 53q33 89 96 163t144 120l49 18q2 1 55 21q4 1 20 6t25 6l58 8h6q4 0 9 1l5 1h29q170 0 290.5 -102t120.5 -269q0 -148 -98 -286 q-3 -9 -39 -45q-1 -1 -3 -4.5l-4 -7t-3 -3.5l-66 -63v2q-46 -40 -129 -103q-25 -14 -252 -153l-100 -51l2 -9h434q19 0 49 5q67 4 113 38q3 1 6.5 3t5 4t2.5 2l5 6l51 51q0 6 8 10q6 2 13.5 8.5t8.5 6.5q-2 -6 -4 -17t-4 -18q-3 -6 -8.5 -20t-10.5 -25.5t-9 -18.5 q-6 -11 -23.5 -40.5t-21.5 -35.5l-48 -65q-27 -39 -94 -39q-11 0 -116 -1t-179 -1h-485q-12 3 -12 18zM780 279q-18 -11 -184 -111h-84l68 37l100 71l100 82l39 50l49 55l15 24q4 4 11.5 11t10.5 10q2 2 10 14l5 4q27 27 38 49v-4q103 147 103 299q0 87 -37 166 q98 -105 98 -248q0 -148 -98 -286q-3 -9 -39 -45q-1 -1 -3 -4.5l-4 -7t-3 -3.5l-66 -63v2q-35 -30 -129 -102zM111 -63q0 7 10 14l51 29h354q43 0 117.5 1t101.5 1h76q77 0 111 47l37 51q31 9 57 29q3 1 6.5 3t5 3.5t2.5 1.5l4 6l52 51q0 6 8 10q6 2 13.5 8.5t8.5 6.5 q-2 -6 -4 -17t-4 -18q-3 -6 -8.5 -20t-10.5 -25.5t-9 -18.5q-6 -11 -24 -39.5t-22 -35.5l-47 -66q-27 -39 -94 -39q-11 0 -116 -1t-179 -1h-485q-12 3 -12 19zM559 1137q4 1 20 6t25 6q74 -13 133 -55q35 -25 47 -37q-72 35 -149 35q-149 0 -275 -113v2q-8 -3 -28 -29 l-37 -49q-1 -3 -10 -18.5t-11 -18.5q-27 -59 -38 -92q-23 -76 -23 -176v-12q0 -4 1 -16t1 -17v-8q4 -35 13.5 -99.5t11.5 -78.5q-31 31 -48.5 82t-19.5 100q-2 18 -2 26l2 66l10 61q0 14 8 46q0 4 2 9l3 5q4 22 20 53q33 89 96 163t144 120l49 18q2 1 55 21z" />
<glyph unicode="3" horiz-adv-x="960" d="M23 233q0 45 30.5 80t79.5 35q30 0 52 -15.5t22 -45.5q0 -41 -60 -41h-14q-5 0 -9.5 1t-6.5 1q-25 0 -36 -10t-11 -33q0 -54 48 -95t105 -57q40 -8 45 -8l-4 2q15 -4 25 -8q8 -2 22 -2q2 0 13.5 -1t19.5 -1h25q90 0 157 33l33 20q34 26 53 35q4 2 33 31q46 43 70 84 q51 91 51 192q0 123 -76 193q-14 14 -18 16l-8 4q-9 -4 -33 -13.5t-33 -13.5q-10 -5 -33 -13.5t-28 -10.5h2l-27 -6q-16 -4 -20 -4q-40 -11 -86 -11q-42 0 -68 7t-47 30q-17 17 -17 47q0 7 17 47q31 39 110 54q23 2 70 2h16q1 0 11 -1t14 -1h16q13 -1 37 -4t29 -4 q21 -8 57 -15h-2l49 -18l33 20l33 33h-2q61 61 61 166q0 73 -47.5 134.5t-118.5 88.5q-42 19 -104 19q-106 0 -203 -76q-2 -2 -12 -11.5t-12 -13.5q-6 -8 -18 -20.5t-15 -14.5q-17 -25 -53 -73t-50 -68v6q0 30 15 60l6 16l41 59q20 30 35 45q132 154 325 154q54 0 93 -10 q63 -13 116.5 -48.5t79.5 -90.5q23 -45 23 -101q0 -98 -84 -203h2l-43 -45q-8 -8 -13 -8l-49 -35q156 -100 156 -256q0 -116 -86 -235h2l-12 -12q-11 -11 -11 -13l-30 -30q-36 -32 -54 -41l-38 -27q-1 -1 -7.5 -7t-11.5 -7l-8 -9v2q-36 -18 -43 -18q-4 -4 -23 -10t-26 -6 l-41 -15l-68 -10q-8 -4 -41 -4h-30q-107 0 -197 37q-84 47 -125 115q-20 33 -20 81zM250 -45q-52 27 -86 61q42 -14 88 -24q16 -7 53 -21q40 -8 45 -8l-4 2q15 -4 25 -8q8 -2 22 -2q2 0 13.5 -1t19.5 -1h25q90 0 157 33l33 20q34 25 53 35q4 2 33 31q46 43 70 84q1 3 4 8 t4 8l2 2q0 2 4 6q2 1 4.5 3.5t4.5 5.5t3 4q90 131 90 249q0 58 -28 123q90 -90 90 -205q0 -116 -86 -235h2l-1 -1q-1 -2 -2 -3l-2.5 -2.5l-3 -3t-3.5 -2.5q-11 -11 -11 -13l-30 -30q-36 -32 -54 -41l-39 -27l-7 -7t-11 -7l-8 -8v2q-38 -19 -43 -19q-4 -4 -23 -10t-26 -6 l-41 -15l-68 -10q-8 -4 -41 -4h-31q-106 0 -196 37zM868 651l-26 -18l-25 24l29 29h-2q57 57 61 160q39 73 39 143q0 50 -14 88q36 -36 53 -69q23 -45 23 -101q0 -97 -84 -202h2l-43 -46q-8 -8 -13 -8zM311 655q0 -49 95 -49q36 0 106 17q48 13 109 41l-5 8q-4 0 -4 4 q-65 30 -123 41q-5 0 -13.5 1t-12.5 1q-15 0 -21 4q-3 0 -10.5 -2t-9.5 -2q-40 -2 -75.5 -18t-35.5 -46zM369 1004q103 118 245 145q17 -3 35 -10q59 -22 99 -68q-2 1 -5 2t-4 2q-42 19 -104 19q-106 0 -203 -76q-2 -2 -12 -11.5t-12 -13.5q-6 -8 -18 -20.5t-15 -14.5 q-17 -25 -53 -73t-50 -68v6q0 30 15 60l6 16l41 59q22 33 35 46zM152 123v-14q-39 30 -48 47q0 38 25 69h18q66 0 78 41q26 -3 45 -18.5t19 -42.5q0 -41 -60 -41h-14q-5 0 -10 1t-6 1q-25 0 -36 -10t-11 -33zM373 526q-7 7 -15 27q12 -2 41 -2q17 -27 88 -27q37 0 107 17 q56 16 106 39q2 -3 19 -31q-14 -4 -39 -14q-4 -2 -62 -25h3l-27 -6q-16 -4 -21 -4q-40 -11 -86 -11q-42 0 -67 7t-47 30zM483 674q23 2 70 2h6q9 -4 23 -8q-38 -15 -76 -25h2q-66 -16 -102 -16h-27q29 32 104 47zM686 598q-13 7 -39 14q1 1 6.5 4.5t8.5 4.5q13 -13 14 -13z " />
<glyph unicode="4" horiz-adv-x="1142" d="M614 14l68 271l-326 63q-11 0 -53 6h-61l-60 -8q-30 -2 -81.5 -10t-63.5 -10h-6q-29 0 -29 16q0 10 4 14q770 733 877 834q2 2 18 10q1 1 8.5 7t8.5 7v-2q27 18 49 21q15 -5 27 -17t12 -24q0 -8 -5 -16l-202 -803l63 -6h15q63 0 122 20h-2l13 4l12 6q16 10 48.5 29 t49.5 29l-2 -6h2q-4 -4 -4 -9q-18 -41 -69 -69q-5 -7 -20.5 -17t-20.5 -12q-3 0 -12 -3.5t-19 -7.5t-12 -5q-34 -17 -41 -17q-6 -1 -28 -7.5t-32 -8.5q-23 0 -47 -8q-1 0 -7 -1t-9 -1q-8 -2 -23 -2q-13 -46 -36 -136.5t-33 -126.5v2q-6 -20 -35 -20h-27q-6 0 -8 2 q-15 4 -23 12zM887 1108l-10 10q-7 0 -11 -4l-792 -747q5 1 23.5 6t23.5 6q36 7 100.5 21t85.5 18h17q5 0 16.5 1t15.5 1h64q45 0 49 -2l238 -31l180 711v10zM1083 1094l-178 -707h-41q-6 1 -19.5 2t-19.5 2q25 101 189 748q17 8 35 12q15 -5 26.5 -17t11.5 -24 q0 -10 -4 -16zM696 -68l15 60q9 4 16 22q10 39 33 123t33 123q6 0 10 2q2 0 6 1t6 1q32 8 51 8l37 13l-2 -2q2 1 8 2t9 2l26 -2h14q64 0 123 20h-2l13 4l12 6q17 10 49.5 29t48.5 29l-2 -6h2q-4 -4 -4 -9q-18 -40 -70 -69q-5 -7 -20.5 -17t-20.5 -12q-3 0 -12 -3.5t-19 -7.5 t-12 -5q-34 -17 -40 -17q-6 -1 -28 -7.5t-32 -8.5q-23 0 -47 -8q-1 0 -7 -1t-9 -1q-8 -2 -23 -2q-10 -37 -22 -81.5t-26 -97.5t-22 -83v2q-6 -21 -34 -21h-27q-6 0 -8 2q-15 4 -23 12zM248 426q98 93 294.5 281.5t295.5 281.5q-3 -12 -10.5 -39.5t-10.5 -42.5l-500 -469h-14 q-10 -2 -55 -12zM84 260q0 10 4 14q8 7 24.5 22.5t24.5 22.5q4 1 21 3.5t26 3.5q11 0 17 2l-45 -43q5 1 23.5 6t23.5 6q22 4 46.5 9t53.5 12t45 10h4q51 -9 152.5 -30t152.5 -30l-12 -43l-207 41q-11 0 -53 6h-61l-60 -8q-30 -2 -81.5 -10t-63.5 -10h-6q-29 0 -29 16z" />
<glyph unicode="5" horiz-adv-x="980" d="M20 231q0 54 31.5 88.5t85.5 34.5h27q20 -9 37.5 -25t17.5 -32q0 -43 -53 -43q-2 0 -8 1t-8 1q-6 2 -27 2q-24 0 -39.5 -18t-15.5 -45q0 -26 28 -58q48 -43 80 -57q6 0 12 -6q2 -2 7 -2q79 -39 184 -39q98 0 174 24q87 30 155.5 86.5t104.5 132.5q23 56 29 80 q10 39 10 88q0 173 -160 271v-2q-2 2 -13.5 9.5t-12.5 8.5q-5 0 -17 4q-13 5 -18 10q-1 0 -21 5q-4 2 -17 6l-5 2h2l-53 14q-8 0 -30.5 2t-31.5 2q-16 2 -24 2q-74 0 -129 -16q-40 -7 -48 -12l-71 -25l-6 -4q-9 0 -9 20q0 9 2 15q71 210 148 422q16 20 22 20l281 2l133 14 l162 33l6 2q0 -14 -4 -20q-6 -23 -31 -39q-35 -32 -112 -70l-19 -4q-15 -3 -43 -10t-43 -10q-92 -11 -100 -11l-252 -4l-74 -213q27 3 129 17h10q7 0 19 1t14 1h51l74 -8l62 -9q2 0 8 -2q31 -10 35 -12q63 -19 131 -57q63 -40 114 -129q37 -75 37 -168q0 -100 -41 -190 t-114 -154q-1 -1 -12 -11t-17 -16q-8 -6 -16 -14v2q-14 -7 -56 -35q-7 -2 -51 -27l-59 -20q-8 -3 -45 -14h2q-15 -5 -60 -15q-9 0 -57 -8h-72q-21 0 -31 2l-8 2q-35 8 -57 10q-4 2 -6 2q-2 2 -17 2q-35 18 -36 19q-69 26 -122 76.5t-53 117.5zM276 -45q-76 30 -122 78 q15 -9 30 -15q1 -1 23 -10q10 -6 20 -10q11 0 13 -2l10 -2q14 0 20 -2q2 -2 6 -2q79 -39 185 -39q97 0 174 24q87 30 155.5 87t104.5 133q24 58 29 79q4 15 8 41q37 84 37 187q0 95 -37 170q29 -29 61 -84q37 -75 37 -168q0 -100 -41.5 -190t-114.5 -154q-1 -1 -11.5 -11 t-16.5 -16q-12 -9 -17 -14v2q-10 -5 -55 -35q-8 -2 -51 -27l-59 -20q-6 -3 -46 -14h3q-15 -5 -60 -15q-9 0 -57 -8h-72q-21 0 -31 2l-8 2q-35 8 -57 10q-4 2 -6 2q-3 3 -17 3q-4 2 -14 6t-16 7t-7 5zM420 999l-33 -94l-37 -6q20 63 58 162l182 4q64 4 92 8q1 0 4.5 1t5.5 1 q36 6 47 10q7 2 21.5 5.5t21.5 5.5q11 4 13 4l8 2q23 10 61 33l154 30l6 2q0 -14 -4 -20q-6 -23 -31 -39q-35 -32 -112 -70l-19 -4q-15 -3 -43 -10t-43 -10q-73 -8 -100 -10zM272 674q17 51 21 61q4 1 18.5 3t18.5 3q58 17 121 17l22 -2q19 0 31 -2q4 0 14 -1t14 -1 q42 -12 54 -15q5 -2 9.5 -3.5t6.5 -2.5q18 -6 23 -6l16 -8q12 -6 18 -6l5 -2q11 -11 14 -11l4 -4q36 -22 59 -45q-1 1 -5 2t-5 2q-12 5 -18 11q-5 0 -21 4q-4 2 -17 6l-5 2h2l-54 14q-8 0 -30 2t-31 2q-17 2 -25 2q-74 0 -129 -16q-39 -6 -47 -12l-71 -25l-6 -4q-9 0 -9 20 q0 9 2 15zM205 176q-23 0 -38 -16t-17 -41q-18 12 -39 33h2q-1 1 -5.5 4.5t-5.5 5.5q3 45 31 76q3 0 9 -1t8 -1q1 0 3.5 -1.5t4.5 -1.5h8q57 0 70 39h10q20 -9 37.5 -25t17.5 -32q0 -43 -53 -43q-2 0 -8.5 1t-8.5 1q-6 2 -26 2z" />
<glyph unicode="6" horiz-adv-x="1171" d="M25 412l4 53l14 57l8 25q2 5 5 17.5t3 13.5q5 11 14 33.5t11 25.5q29 46 41 74q2 4 45 61q8 10 24.5 32t24.5 32q3 3 15.5 17t17.5 21h-2q50 46 82 78v-2q12 9 106 82q5 3 50 31.5t67 40.5l129 61q95 31 104 33h-2q87 26 93 27l84 14h6q3 0 8 1t6 1h14q49 0 88 -20v2 q0 -1 2 -2q1 -1 1.5 -1t1.5 -1q-27 -4 -83 -11.5t-83 -11.5q-2 0 -7.5 -1t-13 -2.5l-12.5 -2.5q-5 0 -14.5 -1t-14.5 -1q-4 -4 -20 -8q-6 -2 -37 -17v2l-68 -28l-75 -35l-70 -47l-66 -54l-90 -90l-55 -61l-59 -78l-39 -67l-11 -31l2 -2q13 12 39.5 35t38.5 36v-2 q17 11 48.5 33.5t37.5 26.5l68 39l49 24l9 3q8 3 14 7q15 6 18 9l70 20q1 0 9.5 1.5t19.5 3.5t16 3h26q7 0 16 1t11 1h22q116 0 209 -53t131 -155q19 -59 19 -109q0 -63 -37 -176q-4 -5 -14 -33q-11 -18 -11 -20q-5 -8 -16.5 -25.5t-15.5 -26.5q-8 -13 -39 -49h2l-10 -10 l-23 -23l-27 -28l-8 -10q-148 -135 -321 -179q-13 -2 -19 -4q-4 -1 -9 -2.5t-7.5 -2.5t-3.5 -1q-9 0 -51 -6h-37q-152 0 -269 63q-68 34 -119 92.5t-73 127.5q0 11 -6 20q-2 8 -2 12q0 25 -2 33l-2 10v54zM182 313q0 -138 79.5 -208t221.5 -70h43l66 8l12 4q2 0 5.5 1t6.5 1 q3 1 17.5 6.5t19.5 7.5q3 1 9 4.5t11.5 7t6.5 3.5q76 42 123 98q32 29 82 92q2 5 13.5 27t14.5 29l33 61q0 4 2 8q2 5 8 21t7 20q20 75 20 141q0 117 -68 197q-88 88 -192 88q-82 0 -168 -39q-40 -16 -43 -16l-55 -33l-56 -39q-6 -4 -14.5 -11t-18 -16.5t-14.5 -13.5 q-27 -27 -35 -39h3q-56 -56 -93 -135q-47 -100 -47 -205zM311 -18q-60 31 -92 63q73 -43 180 -59q65 -33 166 -33h43l66 8l12 4q2 0 5.5 1t6.5 1q35 14 37 15q3 1 9 4.5t11.5 6.5t6.5 3q76 42 123 98q32 29 82 92l2 4l28 31l19 19l14 14q36 45 39 51q4 10 14 25q15 20 21 32 l4 9q10 31 16 37q41 125 41 188q0 56 -20 115q-8 16 -10 24q51 -51 73 -112q19 -59 19 -109q0 -63 -37 -176q-4 -4 -14 -33q-11 -18 -11 -20q-5 -8 -16.5 -25.5t-15.5 -26.5q-8 -13 -39 -49h2l-11 -10q-4 -3 -8 -7t-8.5 -9t-5.5 -6l-27 -29l-8 -10q-148 -135 -321 -179 q-13 -2 -19 -4q-4 -1 -9 -2.5t-7.5 -2.5t-3.5 -1q-10 0 -52 -6h-36q-150 0 -269 64zM203 313q0 99 45 197q30 71 90 131q3 9 31 37q2 2 7.5 6.5t8.5 7.5q17 17 27 23q6 4 22 16l-31 -41l-38 -67l-11 -31l2 -2q13 12 39.5 35.5t38.5 36.5v-3q17 11 48.5 33.5t37.5 26.5l68 39 l49 24l22 11q18 7 19 8l70 20q1 0 7.5 1t16.5 2.5t16 2.5q59 -18 111 -67v-2q-41 20 -94 20q-82 0 -168 -39q-40 -16 -43 -16l-55 -33l-56 -39q-6 -4 -14.5 -11t-18 -16.5t-14.5 -13.5q-27 -27 -35 -39h2q-54 -54 -92 -135q-47 -100 -47 -205q0 -64 19 -116q-80 67 -80 198z M608 920l-14 -15l-6 -2q-1 -1 -5 -4t-5 -4q-1 0 -3.5 -1t-3.5 -1q7 4 -2 1q-17 -9 -18 -9l-55 -27l-64 -37q-7 -5 -44 -32t-54 -37q2 2 6 10l-2 -2q9 13 29.5 39t29.5 39q8 9 23.5 26.5t23.5 26.5q13 9 38 29.5t38 29.5q5 3 50 31.5t67 40.5l129 61q95 31 104 33h-2 q87 26 93 27l83 14h7q3 0 8 1t6 1h14q49 0 88 -20v2l4 -4q-26 -4 -82.5 -11.5t-82.5 -11.5q-2 0 -7.5 -1t-13 -2.5l-12.5 -2.5q-5 0 -14.5 -1t-14.5 -1q-4 -4 -20 -8q-6 -2 -37 -17v2l-68 -28l-76 -35l-69 -47zM1102 1221v-11q-5 0 -8 9q1 0 3.5 1t4.5 1zM1184 1139v-11 q-5 0 -8 9q1 0 3.5 1t4.5 1z" />
<glyph unicode="7" horiz-adv-x="1120" d="M154 203q0 49 6 69q14 27 16 39l21 45q6 7 26 41l172 215h-2l176 176v-2l389 318q-37 -2 -124 -17q-1 0 -4.5 -0.5t-9.5 -1t-11 -0.5q-16 -2 -53 -2h-78l-356 21h-60q-2 0 -10 -1t-14 -1h-23q-60 -3 -106 -49l-31 -29h2l-10 -8q-1 -2 -4.5 -6.5t-5.5 -6t-5.5 -5t-6.5 -5 t-7 -3t-8 -1.5q1 5 6 15.5t6 15.5v-2l61 100q3 5 66 101q10 1 32 5t32 5h16q3 0 10 1l6 1h60q10 -1 39 -4t45 -4l266 -45l84 -7h61l125 9l80 10q-2 -3 2 -2q2 0 7 2l12 4q8 4 10 4q10 2 16 6l15 6v-2l12 4q12 0 12 -16q0 -12 -2 -14v2l-299 -242l-141 -135l-195 -223 q-10 -13 -31 -43.5t-30 -42.5l-35 -58q-1 -1 -3.5 -8.5t-4.5 -11.5q-12 -24 -15 -33l-20 -57q-4 -15 -8 -27q-11 -37 -11 -88q0 -54 17 -92q20 -43 51.5 -60.5t83.5 -17.5q30 0 61 8l82 29q-5 -10 -26 -31q-27 -27 -78.5 -39t-101.5 -12q-65 0 -117 16q-63 22 -100 71.5 t-37 115.5zM401 133q0 -34 5 -57q-36 16 -52 55q-14 32 -14 84q0 48 10 82h-2l10 27h-2l21 57q0 7 14 31q1 2 4 9t4 9q3 6 11 14l67 86h-2l176 177v-2l389 317q-50 -3 -114 -14q9 7 50.5 39.5t63.5 50.5l70 10q-2 -3 2 -2q2 1 6 2q8 3 12 4q8 4 11 4q10 2 16 6l14 6v-2 q12 4 13 4q12 0 12 -16q0 -12 -2 -14v2l-299 -242l-141 -135l-195 -223q-10 -13 -31 -43.5t-30 -42.5l-35 -58q-1 -1 -3.5 -9t-4.5 -11q-12 -24 -15 -33l-20 -57q-4 -15 -8 -27q-11 -37 -11 -88zM188 1036q4 8 14.5 23.5t14.5 21.5h21q3 0 7.5 1t6.5 1h67l357 -20h80 q39 0 55 2q5 0 13 1t10 1q5 1 25.5 4t31.5 4l-90 -74h-41l-357 21h-59q-2 0 -10.5 -1t-14.5 -1h-22q-61 -3 -107 -49l-30 -29h2l-10 -8q-1 -2 -4.5 -6.5t-5.5 -6t-5.5 -5t-6.5 -5t-7 -3t-8 -1.5q1 5 6 15.5t6 15.5v-2zM373 -66q-60 22 -94 64q4 0 6 -2q52 -16 123 -16 q37 0 57 4q34 -21 88 -21q30 0 61 8l82 29q-5 -10 -26 -31q-26 -26 -78.5 -38.5t-102.5 -12.5q-64 0 -116 16z" />
<glyph unicode="8" horiz-adv-x="1120" d="M414 4l-66 10l-57 17q-1 0 -9.5 3t-20 7t-17.5 6q-121 55 -189 143q-29 47 -35 95v18q0 59 30.5 113t78.5 88q2 1 5 3.5t8.5 7.5t11.5 9l6 4q5 4 10 9v-2l14 8h-2l13 4q37 19 86 41l231 78q-14 13 -76 61v-2l-16 16l-15 10l-4 3q-36 36 -59 73q-29 39 -29 97q0 51 35 123 q59 92 168.5 144t224.5 52q70 0 125 -16q71 -15 128.5 -54t80.5 -100q0 -1 1 -3t1 -3q4 -16 4 -27v-36q0 -4 -0.5 -8.5t-1 -7t-0.5 -3.5q-16 -65 -57 -106q-1 -2 -2 -5t-2 -4q-3 -2 -8 -6t-8 -6.5t-5 -3.5q-35 -30 -39 -35v2q-35 -21 -59 -37l-80 -39l-102 -51l143 -73 q11 -4 45 -31q7 -1 33 -21l27 -22q92 -75 92 -182q0 -51 -23 -105q-22 -49 -53 -80q-45 -62 -147 -112q-5 -5 -33 -19l-13 -4l-61 -16q-6 -1 -29.5 -8t-33.5 -9q-15 -1 -46.5 -5t-46.5 -5l-24 -2h-82q-8 0 -25.5 2t-25.5 2zM111 289q0 -62 31.5 -113.5t86.5 -81.5 q50 -29 115 -41q3 -3 55 -12l80 -6h92l80 8l78 16q26 13 39 13q140 53 186 155q15 30 15 76q0 90 -84 160q-12 10 -23.5 18.5t-11.5 5.5l-2 5l-60 34l-233 117q-36 -13 -108 -35t-97 -30q-28 -9 -41 -19q-81 -47 -139.5 -119t-58.5 -151zM397 989q0 -56 33 -103.5t86 -78.5 q11 -11 31 -23l10 -6l111 -59l143 53q8 4 24 14t29 17.5t25 11.5h-2l18 12q15 11 17 11q104 78 104 166q0 46 -17.5 82t-45.5 58.5t-66 37t-76.5 20.5t-79.5 6h-22q-27 0 -47 -4l-62 -10q-6 -1 -15 -3.5t-19.5 -6t-14.5 -4.5q-5 -1 -20.5 -8.5t-18.5 -8.5 q-56 -25 -90.5 -69.5t-34.5 -104.5zM496 -78l-66 10l-57 17q-1 0 -9.5 3t-20 7t-17.5 6q-85 40 -136 86q42 -21 50 -24q17 -3 32 -11l15 -6l55 -16l10 -2h2q34 -12 72 -21q3 -3 55 -12l80 -6h92l80 8l78 16q26 13 39 13q140 53 186 155q15 30 15 76q0 4 -1 11.5t-1 11.5t4 8 q24 53 24 113q0 45 -16 88q78 -75 78 -170q0 -51 -23 -105q-22 -49 -53 -80q-44 -61 -148 -112q-6 -6 -32 -19l-13 -4l-61 -16q-5 -1 -29.5 -8t-34.5 -9q-15 -1 -46.5 -5t-45.5 -5l-24 -2h-82q-8 0 -25.5 2t-25.5 2zM131 289q0 26 10 59q29 47 70 74q2 1 5 3.5t8.5 7.5 t11.5 9l6 4q5 4 10 9v-2l14 8h-2l12 4q37 19 86 41l232 78q-2 2 -19 15.5t-26 21.5q4 0 6 2q39 -20 112.5 -58t112.5 -57h-2l64 -37q16 -15 28 -25l7 -6l-7 4l-233 117q-36 -13 -108 -35t-97 -30q-28 -9 -41 -19q-81 -47 -139.5 -119t-58.5 -151q0 -37 10 -70 q-72 59 -72 152zM901 664l-41 -21q-8 3 -21.5 11t-17.5 10l72 26q8 4 24 14t29 17.5t25 11.5h-2l18 12q15 11 17 11q104 78 104 166q0 25 -8 57v2q0 3 1 11.5t1 11.5v36q0 15 -4 31q0 1 -1 1t-1 1q-2 2 -2 4q43 -37 63 -86q0 -1 1 -3t1 -3q4 -16 4 -27v-36q0 -4 -0.5 -8.5 t-1 -7t-0.5 -3.5q-16 -65 -57 -106q-1 -1 -2 -4.5t-2 -4.5q-3 -2 -8 -6t-8 -6.5t-5 -3.5q-35 -30 -39 -35v2q-35 -21 -59 -37zM479 907q0 -34 8 -55q-50 40 -65 96q1 3 4 8.5t4 8.5q59 92 168.5 144t224.5 52q42 0 82 -6q49 -25 68 -53q-70 24 -150 24h-22q-27 0 -47 -4 l-62 -10l-49 -14q-5 -1 -20.5 -8.5t-18.5 -8.5q-56 -25 -90.5 -69.5t-34.5 -104.5z" />
<glyph unicode="9" horiz-adv-x="1165" d="M172 0q-54 0 -94 25l164 16l77 18l64 21l74 33l71 45l66 45l86 73l76 78l49 64l59 84l31 61l-4 6q-9 -9 -57 -51q-59 -46 -74 -57q-7 -4 -33 -22.5t-39 -24.5q-12 -6 -35.5 -18.5t-36.5 -18.5q-16 -6 -51 -21h2l-61 -16q-2 -2 -20.5 -6t-26.5 -4q-5 0 -13.5 -1t-13.5 -1 q-36 -4 -53 -4h-12q-17 0 -25 2q-5 0 -12 1l-6 1l-6 1q-6 1 -11 1h-6l-51 12q-1 0 -7 2l-13.5 4.5l-10.5 3.5q-22 6 -69 37q-60 46 -91.5 113.5t-31.5 142.5q0 63 18 127q0 5 10 25l13 26q16 36 24 56l37 53q0 4 7.5 12.5t17.5 18t12 12.5q19 27 45 53l12 12 q130 121 316 174q1 0 4 1.5t8 3t8 2.5l15 3l9 2l-1 -1q16 4 30 6q3 0 11 2t10 2h65q1 0 8 -2t13 -2q8 -2 39 -2q2 -1 47 -8q1 0 4 -1t4 -1l4 -5q28 -5 33 -10q8 -4 27.5 -10t27.5 -10l53 -23l13 -10q10 -10 30 -18q46 -35 81.5 -88t47.5 -111q3 -11 7 -19q0 -3 1 -9t1 -7 t1 -6.5t1 -7.5v-60l-8 -51q-1 -9 -5.5 -26t-5.5 -25l-20 -68h4q-6 -5 -10 -16q-7 -25 -19 -37q-7 -14 -19.5 -34.5t-17.5 -30.5q-4 -11 -11 -22t-17 -26t-15 -22q-9 -10 -51 -64q-5 -7 -33 -41h2l-81 -73v2q-14 -12 -42.5 -34.5t-41.5 -35.5q-18 -11 -61.5 -36.5 t-55.5 -32.5q-26 -17 -123 -64q-14 -7 -45 -20t-41 -17h2q-30 -7 -111 -31q-32 -4 -88 -16q-2 0 -9.5 -1t-10.5 -1q-10 -2 -17 -2h-18zM184 664q0 -155 117 -242q47 -29 66 -33q62 -8 79 -8q123 0 263 88q38 21 53 39q6 0 20 10l23 23l39 37l6 8l39 51q5 8 16.5 26.5 t14.5 22.5h-5l22 37l1 2h-2l6 6q5 10 31 92q1 5 2 14.5t2 14.5q8 31 8 68q0 123 -64 193.5t-184 82.5q-37 0 -49 4h-12q-4 0 -13.5 -1t-13.5 -1q-12 -1 -37.5 -4t-36.5 -4l-24 -8q-55 -13 -123 -66q-28 -17 -39 -33l-57 -59l-25 -33l-37 -51q0 -2 -2 -6t-6 -10t-6 -11 q-8 -16 -12 -20q-60 -117 -60 -229zM254 -82q-54 0 -94 25l164 16l77 18l64 21l74 33l71 45l66 45l86 74l49 51q16 11 37 28h-2l90 78l-2 4q19 19 31 37q0 2 6 8q14 19 37 45q2 3 9 12.5t9 12.5q24 34 33 57l12 25q19 28 25 39l-2 -2q17 29 22 43h-2q0 2 12 14l17 72 q0 6 4 22q1 4 6 29l8 53v62q0 1 -1 4.5t-1 5.5v8q0 2 -1 8.5t-1 8.5l-6 18q-7 29 -25 74q68 -71 86 -160q3 -10 7 -18q0 -4 1 -10t1 -7t1 -6.5t1 -7.5v-60l-9 -51q-1 -9 -5 -26.5t-5 -24.5l-20 -68h4q-6 -5 -10 -16q-7 -25 -19 -37q-7 -14 -19.5 -34.5t-17.5 -30.5 q-4 -11 -11 -22t-17 -26t-15 -22q-15 -16 -51 -63q-5 -7 -33 -41h2l-82 -74v2q-14 -13 -42 -35.5t-42 -34.5q-18 -12 -62 -37.5t-54 -31.5q-26 -17 -123 -64q-14 -7 -45 -20t-41 -17h2q-42 -9 -111 -30q-18 -2 -88 -17q-2 0 -9.5 -1t-10.5 -1q-10 -2 -17 -2h-18zM205 664 q0 105 57 219l-2 -2q8 12 12 20v-1q7 7 11 18q1 4 4 8q1 3 2 4q13 16 26 39q130 112 306 164q1 0 4 1t8 2.5t8 2.5l15 3l9 2l-1 -1q16 4 30 6q3 0 11 2t10 2h65q1 0 8 -2t13 -2q6 -2 33 -2q43 -22 69 -51q-43 13 -84 18q-37 0 -49 4h-12q-4 0 -13.5 -1t-13.5 -1 q-11 -1 -37 -4t-37 -4l-24 -8q-55 -13 -123 -66q-28 -17 -39 -33l-57 -59l-25 -33l-37 -51q0 -2 -2 -6t-6 -10t-6 -11q-8 -16 -12 -20q-60 -117 -60 -229q0 -70 23 -123q-84 78 -84 205zM231 307q-9 6 -32 29q8 -4 14 -4l-2 2q17 -4 27 -8q1 0 3.5 -2t4.5 -2l51 -13 q5 0 10 -0.5t8 -1t4 -0.5h9q2 0 5 -1t5 -1q8 -2 29 -2h12q23 0 51 4h19q62 -8 79 -8q95 0 191 47q-9 -9 -26.5 -27.5t-26.5 -27.5v2l-25 -21l-53 -14q-2 -2 -20.5 -6t-26.5 -4q-5 0 -13.5 -1t-13.5 -1q-36 -4 -53 -4h-12q-17 0 -25 2q-5 0 -12 1l-6 1l-6 1q-6 1 -11 1h-6 l-51 12q-1 0 -7 2l-13.5 4.5l-10.5 3.5q-24 6 -70 37zM152 -51q4 -4 8 -6h-8v6zM70 31q4 -4 8 -6h-8v6z" />
<glyph unicode=":" horiz-adv-x="235" d="M27 68q0 42 30 74t72 32q31 0 52.5 -21t21.5 -53q0 -41 -32 -73.5t-73 -32.5q-30 0 -50.5 21.5t-20.5 52.5zM37 788q0 39 25.5 68t64.5 29q34 0 58 -24.5t24 -59.5q0 -37 -27 -66.5t-63 -29.5t-59 25t-23 58zM180 -88q-28 0 -48 17.5t-23 43.5q42 4 75.5 39t38.5 78 q27 -3 44.5 -23t17.5 -49q0 -41 -32 -73.5t-73 -32.5zM201 623q-30 0 -51 17t-29 44q44 1 76 36.5t32 80.5q27 -8 44.5 -30.5t17.5 -51.5q0 -37 -27 -66.5t-63 -29.5z" />
<glyph unicode=";" horiz-adv-x="215" d="M47 -113q0 6 1.5 11t5.5 11.5t6 9t9 10.5l7 8q19 19 30 61q3 2 3 4q-4 0 -11.5 -1t-11.5 -1q-27 0 -46.5 21t-19.5 49q0 42 28 72t69 30q71 0 71 -102q0 -110 -69 -191q-21 -24 -41 -24q-31 0 -31 32zM23 788q0 39 25.5 68t64.5 29q34 0 58 -24.5t24 -59.5 q0 -37 -27.5 -66.5t-63.5 -29.5t-58.5 24.5t-22.5 58.5zM129 -195q0 6 1.5 11t5.5 11.5t6 9t9 10.5l7 8q19 19 30 61q2 2 2 4q-4 0 -9.5 -1t-8.5 -1q37 67 37 152v20q61 -7 61 -102q0 -110 -69 -191q-21 -24 -41 -24q-31 0 -31 32zM186 623q-30 0 -51 17t-29 44 q44 1 76.5 36.5t32.5 80.5q27 -8 44 -30.5t17 -51.5q0 -37 -27 -66.5t-63 -29.5z" />
<glyph unicode="&#x3c;" horiz-adv-x="516" d="M8 590l430 596l72 -39l-401 -559l159 -549l-84 -39h-2q-2 0 -2 2zM262 -80l-24 84l55 25q-16 51 -158 542l385 533l72 -39l-402 -559l160 -549l-84 -39h-2q-2 0 -2 2z" />
<glyph unicode="=" horiz-adv-x="774" d="M176 764q2 7 10.5 15.5t18.5 8.5h606q9 0 13.5 -8.5t2.5 -15.5q-3 -12 -12 -20.5t-20 -8.5h-598q-12 0 -18 9t-3 20zM94 846q2 7 10.5 15.5t18.5 8.5h606q9 0 13.5 -8.5t2.5 -15.5q-3 -12 -12 -20.5t-20 -8.5h-598q-12 0 -18 9t-3 20zM31 547q2 7 9 15.5t15 8.5h611 q9 0 12.5 -8t1.5 -16q-2 -9 -9.5 -18t-15.5 -9h-608q-8 0 -13 9.5t-3 17.5zM113 465q2 7 9 15.5t15 8.5h611q9 0 12.5 -8t1.5 -16q-2 -9 -9.5 -18t-15.5 -9h-608q-8 0 -13 9.5t-3 17.5z" />
<glyph unicode="&#x3e;" horiz-adv-x="516" d="M508 596l-430 -596l-72 41l402 557l-160 551l84 37h2q2 0 2 -2zM530 594l-145 498l29 12h2q2 0 2 -2l172 -588l-430 -596l-72 41l401 557l-4 14z" />
<glyph unicode="?" horiz-adv-x="761" d="M188 289q0 72 64 129q2 4 33 35l211 172l65 71l47 54q2 1 12.5 17.5t14.5 20.5q57 89 70 205q4 4 4 56v6q0 43 -9 80q-27 90 -108.5 143t-177.5 53q-119 0 -228 -88q-8 -5 -15 -12t-16.5 -19t-13.5 -16q-1 -1 -7 -9t-7 -9q-66 -94 -66 -203q0 -63 27 -119.5t78 -85.5 q48 -25 88 -25q82 0 140.5 67t58.5 151q0 52 -29.5 83t-79.5 31q-28 0 -59 -14q0 -1 -7.5 -3.5t-9.5 -2.5q-2 -2 -8 -2q-14 0 -14 12q0 21 41 35q37 16 71 16q64 0 101 -44.5t37 -110.5q0 -71 -45 -136q-38 -54 -94.5 -87t-120.5 -33q-51 0 -99 20q-59 26 -89 88t-30 133 q0 159 109.5 283t265.5 141h37q113 0 204 -67t111 -175q5 -5 5 -32q2 -4 2 -21v-57l-7 -68q0 -20 -10 -55q-15 -67 -49 -131q-3 -6 -15 -24.5t-14 -20.5l-45 -64l-61 -63l-98 -86l-158 -113q-10 -10 -25 -20q-51 -51 -51 -88q0 -41 62 -41q34 0 71 16l25 -8v-2 q-25 -8 -35 -12q-46 -17 -78 -17q-33 0 -54.5 17.5t-21.5 48.5zM352 293l-16 -17q-30 -10 -55 -10q17 39 53 70q2 4 33 35l211 172l65 71l47 54q2 1 12.5 18t14.5 21q56 88 69 204q5 5 5 56v6q0 43 -9 80q-2 5 -5 14t-5 14q0 15 -2 21q-1 5 -4 19.5t-4 19.5l4 -6 q-6 32 -21 63q68 -68 82 -149q4 -4 4 -33q3 -6 3 -21v-57l-7 -68q0 -20 -10 -55q-15 -67 -49 -131q-3 -6 -15 -24.5t-14 -20.5l-45 -64l-61 -63l-98 -86l-158 -113q-10 -10 -25 -20zM522 1290q66 -27 105 -69q-64 28 -131 28q-119 0 -228 -88q-8 -5 -15 -12t-16.5 -19 t-13.5 -16q-1 -1 -7 -9t-7 -9q-66 -94 -66 -203q0 -41 17 -94q-40 27 -60 80q5 154 113.5 274t261.5 137h47zM219 645q-42 18 -67 53q41 -12 84 -12h16q39 -22 84 -22q83 0 141 66.5t58 150.5q0 40 -19 69v13q0 34 -8 55q33 -20 51.5 -57t18.5 -80q0 -70 -46 -136 q-38 -54 -94.5 -87t-120.5 -33q-50 0 -98 20zM147 82q0 38 28 68t67 30q32 0 53.5 -24.5t21.5 -57.5q0 -40 -26.5 -69t-63.5 -29q-34 0 -57 24.5t-23 57.5zM309 -82q-30 0 -51 17.5t-27 44.5q43 1 74 35.5t33 80.5q26 -4 43.5 -28t17.5 -52q0 -40 -26.5 -69t-63.5 -29z M369 1020q35 12 37 12q16 -16 22 -37h-2q-27 0 -59 -14q0 -1 -7.5 -3.5t-9.5 -2.5q-2 -2 -8 -2q-14 0 -14 12q0 21 41 35zM346 141h-18q-16 44 -58 56v6q21 0 31 2q0 -41 61 -41q35 0 72 16l25 -8v-2q-25 -8 -35 -12q-46 -17 -78 -17z" />
<glyph unicode="@" horiz-adv-x="1333" d="M547 8l-74 15l-65 20l-50 18l-55 29l-51 35q-3 3 -35 27q-2 1 -7.5 6.5t-6.5 5.5l-41 43l-27 35l-33 49l-28 55l-17 39l-16 61l-12 64q0 1 -2 24.5t-2 30.5v56q6 97 41 186q10 25 20 45l31 53l35 51l47 58l51 47l55 45l64 43l61 29l55 24l66 19l57 12l54 4h67l88 -6 l78 -12q11 -5 49 -13q181 -57 275 -205q19 -31 34 -69q3 -4 8 -17.5t5 -15.5l16 -53l10 -55q2 -20 2 -60q0 -61 -10 -102q-6 -32 -12 -43l-19 -49l-14 -35l-29 -45l-34 -45q-17 -17 -29 -33q-118 -109 -238 -109q-75 0 -125 39q-4 2 -10 10t-8 9l-4 6l-2 2q-79 -62 -176 -62 q-45 0 -76 15q-34 14 -53 48t-19 73q0 46 25 108q44 96 137 156q10 6 55 31q49 18 82 18q52 0 90 -35q14 -14 17 -20q1 0 3 -3t3 -3l10 38q0 11 8 11h66q4 0 4 -9l-80 -276l-6 -47v-23q0 -1 1 -4t1 -4q5 -20 41 -20h16q63 0 119 30q20 10 37 27q38 24 68 59q108 123 108 289 v15l-6 51q0 19 -6 37q-22 80 -51 125q-11 22 -21 32l-29 39q-1 2 -6.5 7t-12.5 11.5t-9 8.5q-65 59 -150 88q-5 2 -25 6.5t-22 5.5l-74 15l-94 8h-59q-4 0 -24 -2t-23 -2q-6 0 -25 -3.5t-20 -3.5l-58 -16q-5 0 -53 -16q-3 -1 -43 -21q-15 -9 -49 -26l-49 -35l-49 -39 l-54 -53l-41 -52l-32 -47l-29 -57q-1 -2 -8.5 -20.5t-9.5 -22.5l-15 -43q-8 -40 -8 -45l-8 -55v-37q0 -6 0.5 -18t1 -21t0.5 -10l10 -62l14 -55l15 -35l22 -49q13 -26 19 -35q17 -28 53 -70q4 -3 16.5 -15t14.5 -13l41 -37l49 -29q1 -1 18.5 -10.5t22.5 -11.5q25 -10 47 -21 l65 -20l70 -13l66 -8h59l82 6l70 13l69 20l62 23q1 1 19.5 9.5t23.5 10.5q3 2 23.5 13.5t23.5 13.5q10 10 26 18l33 -41v-2q-29 -20 -41 -26q-22 -17 -39 -25l-71 -33l-72 -22l-68 -17l-75 -10q-12 -4 -52 -4h-65zM522 440q0 -54 23 -90.5t73 -36.5q45 0 87.5 24.5 t66.5 63.5q26 45 41 97q12 54 12 80q0 108 -92 108q-39 0 -67 -14q-93 -40 -136 -172q-8 -24 -8 -60zM223 254l4 -8q-38 44 -51 65q-14 27 -16 33q-3 7 -11.5 24.5t-11.5 24.5q-11 21 -14 35l2 -4q-2 8 -7 27.5t-7 27.5q-1 4 -2.5 12.5t-2.5 12.5v35q6 97 41 186q6 15 21 45 l31 53l34 51l48 58l51 47l55 45l64 43l61 29l55 24l66 19l57 12l53 4h54q8 -2 28 -2l74 -14q3 0 19 -4l14 -3.5t8.5 -2.5t3.5 -1q82 -28 141 -84l5 -4q-9 4 -29 12.5t-29 12.5q-5 2 -25 6.5t-22 5.5l-74 15l-94 8h-59q-4 0 -24 -2t-23 -2q-6 0 -25 -3t-20 -3l-58 -17 q-5 0 -53 -16q-3 -1 -43 -21q-15 -9 -49 -26l-49 -35l-49 -39l-54 -53l-41 -52l-32 -47l-29 -57q-1 -1 -9 -19.5t-10 -23.5l-14 -43q-8 -40 -8 -45l-8 -55v-37q0 -6 0.5 -18t1 -21t0.5 -10l10 -62l14 -55l15 -35zM1317 717l-1 7q-1 6 -1 11q0 38 -2 58l-10 59 q-2 8 -8.5 25.5t-8.5 25.5v-2q-2 5 -8.5 22.5t-7.5 20.5q-3 5 -9 19.5t-10 21.5q29 -36 49 -65q20 -34 35 -70q3 -4 8 -17.5t5 -15.5l16 -53l10 -55q2 -20 2 -60q0 -61 -10 -102q-6 -32 -12 -43l-19 -49l-14 -35l-29 -45l-35 -45q-13 -13 -28 -33q-67 -64 -142 -92v2l-8 -4 q-43 -15 -88 -15q-75 0 -125 39q-4 2 -10.5 10t-7.5 9l-4 6l-2 2q-78 -61 -176 -61q-47 0 -76 14q-36 14 -55 51q16 -4 49 -4q35 0 51 2q29 -25 65 -25q59 0 109 37q40 -18 100 -18q25 0 35 2q8 -6 31 -6h16q63 0 119 30q20 10 37 27q35 23 67 59q109 125 109 289v15z M541 -12l88 -8h10l66 -9h59l82 6l69 13l70 20l62 23q1 1 19.5 9.5t23.5 10.5q3 2 23.5 13.5t23.5 13.5q10 10 26 18l33 -41v-2q-29 -20 -41 -26q-22 -17 -39 -25l-72 -33l-71 -22l-68 -17l-76 -10q-12 -4 -51 -4h-65l-84 8l-74 15l-66 20l-49 19l-55 28l-51 35q-3 3 -35 27 l51 -27l49 -20l66 -21zM1018 621l-78 -271q-10 -2 -31 -2h-16q-17 0 -21 2l-2 2q17 35 25 64q12 54 12 80q0 16 -2 24l19 64q1 0 3 -2t3 -2l10 38q0 11 8 11h66q4 0 4 -8zM604 358v-24q-61 11 -61 102q44 96 137 156q10 6 55 31q32 11 56 16q9 -14 12 -35q-35 -4 -55 -14 q-93 -40 -136 -172q-8 -24 -8 -60z" />
<glyph unicode="A" horiz-adv-x="1527" d="M20 137v10q2 20 16.5 36t35.5 16q20 0 31.5 -14t11.5 -31q0 -29 -27 -29h-10h-15q0 -11 3 -14v2q22 -36 72 -52t102 -16q91 0 161 33q50 23 113 86q33 33 33 41l47 61v-2q85 157 147 295q-4 -2 -22 -2q-100 -26 -150 -51h2q-2 -2 -12 -2q-24 0 -24 26q0 13 12 21 q4 1 20 7t27 11l43 19v-2l20 8q3 1 11.5 3t11.5 3q12 4 16 6q49 13 80 15q6 10 20.5 33t18.5 30q17 28 62 104l57 78l63 80l52 51l61 52l53 32l-2 3q-2 2 -4 3q-1 1 -3 2.5t-3 2.5h2q-7 2 -23 18v-2q-79 54 -165 74q-66 16 -136 16l-43 -2q-5 -1 -17 -3t-17 -3 q-16 -4 -29 -4l-16 -4q-9 0 -13 -2q-12 -4 -16 -4q-141 -45 -242 -117q-4 -3 -13 -10t-15.5 -12t-8.5 -7l-24 -24q-4 -4 -12 -13t-11 -12q-4 -3 -20 -22t-21 -27q-50 -65 -71 -125q-50 -116 -50 -232v-24q5 -51 23 -117q31 -86 68 -139q2 -6 11 -21t13 -18q2 -2 2 -10 q0 -19 -20 -19q-11 0 -17 6l4 5l-11 10l1 -2v-2l-12 20v-2q-1 1 -2 2.5t-3.5 5t-4.5 6.5q-4 4 -4 11q-4 4 -7 10q-1 1 -2 3t-2 3l-30 64l-25 65l-14 66l-11 80q0 1 -1 3t-1 3v71l9 74q2 2 6 25q3 16 8 32q49 179 199 299q83 61 208 109q0 -1 6 0.5t13 3.5q35 12 41 14 q23 4 41 9q12 2 41 10q43 6 63 8h88l70 -6q19 0 39 -8q6 -2 12 -2q122 -31 234 -111l12 6l31 17q10 4 33.5 12t33.5 12l78 19q19 0 19 -19q0 -11 -13 -16l-45 -15q-3 -2 -14.5 -6t-14.5 -6q-9 -5 -29.5 -13t-23.5 -9l-2 -2q-14 -8 -28 -13q20 -16 40 -41q15 -20 29 -34 q92 -136 92 -308l-6 -94q1 0 29 -6q5 -1 14.5 -4t14.5 -4q26 -9 26 -27q0 -24 -31 -24l-61 16q-5 -25 -16.5 -78t-16.5 -82q-9 -50 -31 -160l-12 -92v-53q0 -5 5.5 -17t11.5 -18q51 30 98 140q5 14 12 14q19 0 19 -25q-3 -20 -15 -37l-2 -4q0 -1 -1 -3t-1 -3q-4 -8 -4 -10 q-16 -39 -53.5 -78t-73.5 -39q-80 0 -80 125v29q0 2 1 7.5t1 8.5q4 20 4 25q11 55 35 166q5 25 19.5 93.5t21.5 102.5q-10 2 -37 2h-20q-72 0 -168 -28q-4 0 -8 -2l-19 -5l-8 -8q29 -41 29 -73q0 -40 -23.5 -73.5t-62.5 -33.5q-35 0 -55.5 25.5t-20.5 58.5t8 53.5t29 46.5 l-2 2q-56 21 -123 31l-25 4q-28 -52 -118 -237l-58 -90l-47 -58l-35 -35q-148 -145 -327 -145q-34 0 -72 6q-60 13 -103 44.5t-43 86.5zM852 614h-2q4 -2 8 -2h8q65 -10 123 -37q9 -4 19 -8q14 -6 18 -8q42 21 66 29q1 0 3 1t3 1q34 8 45 14l74 12h8q25 5 41 5h8q18 0 39 -3 q23 0 26 3q0 19 4 43q1 7 2.5 23.5t2.5 23.5v18q0 57 -9 107q-14 53 -53.5 112t-85.5 101q-58 -36 -115 -90t-96 -111q-1 -1 -43 -60q-4 -4 -4 -6zM862 1157h88l39 -4q66 -20 129 -61l10 -11l-8 -6q-47 19 -73 25q-66 16 -136 16l-43 -2q-5 -1 -17 -3t-17 -3q-16 -4 -29 -4 l-17 -4q-8 0 -12 -2q-12 -4 -16 -4q-141 -45 -242 -117q-4 -3 -13 -10t-15.5 -12t-8.5 -7l-24 -24q-4 -4 -12 -13t-11 -12q-4 -3 -20 -22t-21 -27q-50 -65 -71 -125q-50 -116 -50 -231v-25q5 -51 23 -117q32 -89 67 -139q2 -5 11.5 -20.5t13.5 -18.5q2 -2 2 -10 q0 -19 -20 -19q-10 0 -17 7l4 4l-11 10l1 -2v-2l-12 20v-2q-1 1 -2 3t-3 5.5t-5 6.5q-5 5 -5 10q-4 4 -6 8q15 9 15 33q0 15 -11 26q-11 7 -20 35q-30 42 -57 113l-11 76q0 1 -1 3t-1 3v71l9 74q2 2 6 25q3 18 8 33q49 179 199 299q80 59 208 108q0 -1 6 0.5t13 3.5 q35 12 41 14q23 4 41 9q12 2 41 10q43 6 63 8zM248 -76q-96 20 -131 76q8 -3 45 -14q45 -5 55 -6q50 -17 105 -17q91 0 161 33q50 23 113 86q33 33 33 41l47 61v-2q85 157 147 295q-4 -2 -22 -2h-2l30 60q4 1 14 2t15 2q7 -1 82 -19q-12 -18 -18 -39l-17 2 q-38 -71 -119 -237l-57 -90l-47 -58l-35 -35q-148 -145 -328 -145q-33 0 -71 6zM1456 311q-3 -16 -9 -47.5t-9 -48.5q-6 -6 -11 -16v2q-36 -87 -75 -119v6v51l12 92q2 11 9.5 47.5t10.5 57.5q2 9 5.5 26.5t5.5 26.5q3 18 10 48.5t8 37.5q7 27 10 53l41 -12q17 0 33 4 q1 0 29 -6q5 -1 14 -4t14 -4q27 -9 27 -27q0 -24 -31 -24l-61 16q-5 -25 -16.5 -78t-16.5 -82zM1130 915l62 52l35 22q5 -6 15 -19.5t15 -19.5q-114 -76 -186 -184q-3 -3 -43 -59q-4 -4 -4 -7l-51 -96q-23 8 -62 21q39 70 47 82l58 77l63 80zM1094 262q-29 0 -48.5 17.5 t-25.5 44.5q28 3 49 18q0 -13 7 -23t18 -10q15 0 23.5 19.5t8.5 38.5q0 18 -16 34q8 21 8 50q0 8 -4 28q36 18 60 27q1 0 3 1t3 1q34 8 45 14l73 13h5q-4 -18 -13 -54q-50 -9 -104 -24q-4 0 -8 -2l-19 -4l-8 -9q29 -41 29 -73q0 -40 -23.5 -73.5t-62.5 -33.5zM1503 614 l-2 -20q-8 6 -28 14q-5 0 -7 2q-2 1 -9 3t-9 3q-2 0 -6 1t-6 1l6 76q0 145 -64 264q2 -2 4 -2q15 -20 29 -34q92 -136 92 -308zM1409 -74q-59 0 -74 62q39 6 78 45v-27q0 -5 5.5 -17t11.5 -18q51 30 98 140q5 14 12 14q19 0 19 -25q-3 -20 -15 -37l-2 -4q0 -1 -1 -3t-1 -3 q-4 -8 -4 -10q-16 -39 -53.5 -78t-73.5 -39zM1370 1010q-11 -7 -16 -9q0 1 -3.5 6t-4.5 9q-19 19 -23 24q5 3 16 9l9 4q10 4 33.5 12t33.5 12l78 19q18 0 18 -19q0 -11 -12 -16l-45 -14q-3 -2 -14.5 -7t-14.5 -6q-9 -5 -29.5 -13t-23.5 -9zM987 432q0 -16 6.5 -28.5 t18.5 -12.5q15 0 23.5 19.5t8.5 38.5q0 26 -24 40q-33 -39 -33 -57zM629 469q4 1 20 7t27 11l12 5q-3 -6 -9.5 -19.5t-12.5 -25t-11 -21.5q-1 0 -2 -1t-2 -1h2q-2 -2 -12 -2q-11 0 -18 7.5t-7 19.5q0 11 13 20zM197 72v-4q-50 7 -84 26q19 23 41 23q20 0 31.5 -14t11.5 -31z " />
<glyph unicode="B" horiz-adv-x="1527" d="M18 240q0 62 32.5 111.5t90.5 80.5h-2q3 3 20 11.5t25 9.5q8 4 19 4v8q-4 36 -4 70v10q0 23 4 43q6 50 8 57q5 23 8 33q7 26 10 33q3 16 19 53l14 29q1 3 4 10q7 18 10 24q29 55 64 103q30 37 80 84q8 8 12 10l27 27l8 4h-2q3 2 17 9.5t25 14t13 8.5l68 39l92 41l102 37 l99 23q14 3 55 8q2 0 7 1t9 1q17 0 29 2q4 0 12 1t11 1h45q81 0 161 -18q25 -5 37 -9q101 -36 167.5 -99t66.5 -157q0 -86 -62 -151q-2 -2 -9.5 -8.5t-8.5 -7.5q-6 -6 -15 -9h3q-26 -17 -25 -10q-9 -5 -49 -25.5t-62 -29.5h2q-1 -1 -24 -19q76 -26 127 -55q137 -92 137 -260 q0 -148 -108.5 -260.5t-256.5 -112.5q-55 0 -104 20.5t-70 63.5v-2q-14 22 -14 58q0 27 17 44t47 17q34 0 41 -33q0 -35 -39 -35q-13 0 -17 2q-10 0 -12 2v-6q0 -22 16 -41q37 -51 133 -51q32 0 86 12q91 39 150 131t59 189q0 121 -77 192q-21 21 -25 21l-131 84 q-12 8 -12 22q0 12 20 25l6 6q4 4 10 4q6 2 25.5 12.5t22.5 12.5q35 20 45 26q9 10 20 13h-2q86 63 86 149q0 42 -25 94v-2q-54 65 -133 105q-1 -1 -3 -4t-3 -4l-102 -99q-3 -1 -20 -21.5t-23 -29.5q-35 -43 -72 -131q-3 -6 -7.5 -23t-4.5 -20l-66 -340l-18 -72 q-5 -15 -25 -55q-42 -79 -94 -145q-17 -17 -20 -21q-2 -2 -6 -6.5t-5 -5.5q-80 -86 -198 -129q-26 -7 -45 -16l-66 -15l-96 -8h-29q-93 0 -157 20q-76 22 -125.5 82.5t-49.5 137.5zM1233 1155q-45 18 -94 27q-46 8 -97 8q-24 -4 -45 -4q-14 -2 -43 -2q-8 -1 -24.5 -4 t-24.5 -4q-7 0 -26 -4.5t-21 -4.5q-7 -2 -23.5 -6t-23.5 -6q-31 -8 -47 -10q-6 -3 -21.5 -9.5t-21.5 -9.5q-35 -13 -45 -16q-16 -6 -58 -27h3l-70 -34q-15 -11 -27 -21q-2 -1 -8 -5t-8 -5q-6 -3 -6 -6q-90 -68 -152.5 -166t-87.5 -205q-10 -46 -10 -109v-57q12 0 24 4 q4 1 13.5 3t13.5 3q3 0 35 4q30 5 33 5h55q2 0 11 -1t14 -1q21 -3 34 -3q9 0 25 -4q2 0 7 -1t7 -1q16 -4 21 -4q69 -18 106 -37q7 0 19 -8q2 -2 6 -2q4 -4 6 -4q14 -11 14 -27q0 -26 -24 -26q-13 0 -17 4q-8 8 -28 18q-4 4 -49 21q-1 0 -3.5 1t-3.5 1q-24 8 -32 8 q-63 14 -133 14h-19q-87 -4 -121 -16q19 -44 54.5 -80.5t78.5 -56.5q9 -5 9 -19q0 -22 -27 -22h-8q-109 47 -158 164q-20 -8 -39 -23q-50 -25 -80 -64.5t-30 -84.5q0 -54 29.5 -96t80.5 -66q41 -19 94 -25q30 -6 68 -6h27q146 0 262 60t180 182l14 28q21 42 23 50t6.5 26.5 t5.5 22.5q2 8 7 24.5t7 24.5q15 73 33 153q5 28 17 80.5t16 73.5l20 72q0 13 7 20l4 4l4 13q54 115 127 182q1 1 3.5 2.5t4.5 3.5q4 4 12 6h-2q20 16 27 23q4 3 11 8t11 8q2 1 11 9t14 10q25 14 35 20zM1315 1073q-35 13 -80 23l22 22q26 -14 78 -55q-1 -1 -3 -4t-3 -4 l-102 -99q-3 -1 -20 -21.5t-23 -29.5q-35 -43 -72 -131q-3 -6 -7.5 -23t-4.5 -20l-66 -340l-18 -72q-5 -15 -25 -55q-2 -3 -9.5 -17.5t-12.5 -21.5q-47 -18 -47 -75l-25 -31q-17 -17 -20 -21q-2 -2 -6 -6.5t-5 -5.5q-80 -86 -198 -129q-26 -7 -45 -16l-66 -15l-96 -8h-29 q-91 0 -158 21q-68 20 -116 71q15 -7 28 -10q52 -15 113 -18q46 -10 53 -11q30 -6 68 -6h26q146 0 262.5 60.5t180.5 181.5l14 29q21 43 23 49q2 8 6.5 26.5t5.5 22.5q2 8 7 24.5t7 24.5q1 7 4.5 22.5t4.5 22.5l10 35l20 108q4 22 13.5 61.5t13.5 57.5l20 72q0 14 6 20l5 4 l4 13q54 115 127 182q1 1 3.5 2.5t4.5 3.5q4 4 12 6h-2q20 16 27 23q4 3 11 8t11 8q2 1 11 9t14 10q25 14 35 20zM1182 1151l-13 -9q-6 -4 -8 -5q-3 -2 -10 -9q-4 -4 -6 -4q-2 -1 -7.5 -5t-7.5 -5l-6 -6q-24 -4 -45 -4q-14 -2 -43 -2q-8 -1 -24.5 -4t-24.5 -4q-7 0 -26 -4.5 t-21 -4.5q-7 -2 -23.5 -6t-23.5 -6q-31 -8 -47 -10q-6 -3 -21.5 -9.5t-21.5 -9.5q-35 -13 -45 -16q-16 -6 -58 -27h2l-69 -34q-15 -11 -27 -21q-2 -1 -8 -5t-8 -5q-6 -3 -6 -6q-90 -68 -152.5 -166t-87.5 -205q-4 -15 -8 -49h-2q-7 -1 -15.5 -2.5t-13.5 -2.5t-6 -1 q-2 -2 -14 -2h-2q0 1 1 2t1 2q6 50 8 57q5 22 8 33q7 26 10 33q3 16 19 53l14 29q1 3 4 10q7 18 10 24q29 55 64 103q30 37 80 84q8 8 12 10l27 27l8 4h-2l55 33l68 38l92 41l102 37l99 23q14 3 55 8q2 0 7 1t9 1q17 0 29 2q4 0 11.5 1t10.5 1h56q13 -4 39 -8h2zM1296 -20 q91 39 150 130t59 187q11 53 11 86q0 75 -31 139q92 -89 92 -221q0 -148 -108.5 -260.5t-256.5 -112.5q-52 0 -99 18t-71 56q36 -7 64 -10q36 -25 104 -25q28 0 86 13zM1493 866q0 15 -2 23q10 33 10 69q0 44 -16 84q78 -68 78 -165q0 -87 -62 -152q-2 -2 -9.5 -8.5 t-8.5 -7.5q-6 -6 -15 -9h2q-27 -18 -24 -10q-15 -7 -40 -20.5t-30 -16.5q-4 2 -8 6q-4 1 -15 7t-18 8q1 1 4 2t4 2q21 12 46 27q8 8 20 12h-2q86 63 86 149zM469 360q-86 -4 -119 -16q-37 32 -55 70q18 3 39 6v-27q12 0 24 4q4 1 13.5 3t13.5 3q1 0 6 1t13.5 2t15.5 2 q24 4 33 4h55q1 0 7.5 -1t10.5 -1q2 -2 9 -2q9 0 36 -9q1 0 3.5 -1t3.5 -1q2 -1 3 -1t3 -1l2 -2q24 -8 28 -12q22 -11 27 -16q11 -11 31 -11q28 0 37 17q10 -4 24 -11q7 0 19 -8q2 -2 6 -2q4 -4 6 -4q14 -11 14 -27q0 -26 -24 -26q-13 0 -17 4q-8 8 -28 18q-4 4 -50 21 q-1 0 -3 1t-3 1q-24 8 -32 8q-63 14 -134 14h-18zM100 172q6 115 123 178q17 -27 33 -43q-50 -25 -79.5 -64.5t-29.5 -84.5q0 -28 5 -45q-38 26 -52 59zM455 166q-61 26 -95 63q1 0 4 -1t5 -1h12q30 0 41 17q35 -28 59 -37q8 -4 8 -19q0 -22 -26 -22h-8zM1128 96 q0 -19 -10 -26q-57 0 -90 24q18 35 59 35q34 0 41 -33zM1272 596q-7 3 -10 10l53 -33q12 -10 16 -14l6 -6z" />
<glyph unicode="C" horiz-adv-x="940" d="M16 432v27q0 26 7 61q1 5 6 35q1 3 3 17t3 20l14 59l29 76l37 70l55 92l51 67l35 39l70 68l69 53l62 37l63 33l55 24q19 10 46 15q49 16 120 16q121 0 189.5 -64.5t68.5 -183.5q0 -49 -12 -102q-5 -35 -14 -53q-2 -4 -5 -15.5t-5 -15.5q-10 -24 -11 -31q0 -6 -4 -10 l-20 -39q-8 -22 -25 -43l-18 -25q-6 -9 -17 -20l-18 -25q-41 -52 -46 -51l1 2l-14 -14l-48 -35q-1 -1 -4 -2t-4 -2q-14 -9 -14 -12q-71 -45 -164 -45q-44 0 -82 14q-100 50 -100 180q0 97 59 178t152 131q31 18 47 23q1 0 2.5 1.5t3.5 2.5l5 1l7 3q6 2 23 2q14 0 14 -6 q0 -8 -8 -16q-37 -25 -57 -39q-7 -6 -33 -23q-3 0 -17.5 -11t-17.5 -15q-50 -44 -74 -90q-45 -78 -45 -162q0 -32 8 -56q1 -3 23 -34q52 -52 102 -52q65 0 150 62q66 46 112 104v-2q4 11 15 25l8 8v-2q40 68 57 139q19 71 19 137q0 20 -4 56q0 2 -1 7t-1 7v14l-6 19 q-24 71 -81.5 105t-136.5 34q-98 0 -196 -55h2q-6 -6 -12 -10q-28 -19 -29 -19h2q-51 -40 -59 -45q-10 -9 -42 -40t-38 -38l-49 -55q-3 -4 -9.5 -14.5t-9.5 -14.5q-12 -20 -18 -28q-5 -8 -19.5 -31t-19.5 -31v2q-3 -6 -9.5 -19.5t-9.5 -19.5q-2 -5 -8.5 -19t-9.5 -20 l-12 -36q-9 -27 -11 -37l-20 -80q-1 -7 -4 -21.5t-4 -21.5l-9 -41v-14q0 -4 -1 -14.5t-1 -14.5v-43q0 -109 42 -205.5t130 -144.5q73 -25 136 -25q188 0 344 193q2 3 7 10t7 10l25 25q0 11 8 22q10 10 10 12q5 15 16 15q16 0 21 -21v-12q-18 -27 -27 -45q-7 -3 -22 -29 l-6 -8l-43 -49l-47 -47l-37 -29q-4 -3 -13.5 -8t-13.5 -8q-9 -10 -27 -17h2q-9 -9 -22 -12q-16 -8 -19 -8q-83 -39 -178 -39q-60 0 -131 23q-74 28 -106 51q-45 38 -74 84q-70 113 -70 274zM186 338q0 -117 43 -209q-53 52 -78.5 130t-25.5 161v57q0 2 1 7.5t1 7.5v14l8 37 q0 4 4 20l-2 -2q1 4 3 13.5t3 11.5l13 49l4 10l37 70l55 92l51 67l35 39l70 68l69 53l62 37l63 33l55 24q20 10 45 15q38 12 103 16q43 -19 69 -55q-41 14 -92 14q-98 0 -196 -55h2q-4 -4 -13 -10q-4 -3 -10.5 -7.5t-10.5 -7.5t-7 -4h2q-45 -35 -60 -45q-9 -10 -40.5 -41 t-38.5 -37l-50 -55q-3 -4 -9 -14.5t-9 -14.5q-12 -20 -18 -28q-5 -8 -19.5 -31t-19.5 -31v2q-3 -6 -9.5 -19.5t-9.5 -19.5q-2 -4 -8.5 -18t-9.5 -20l-12 -37q-9 -27 -11 -37l-20 -80q-1 -7 -4 -21.5t-4 -21.5l-9 -41v-14q0 -4 -1 -14.5t-1 -14.5v-43zM1012 877q0 16 -2 24 q10 48 10 92q0 59 -19 111q80 -64 80 -193q0 -49 -12 -102q-5 -35 -14 -53q-2 -4 -5.5 -15.5t-5.5 -15.5q-8 -19 -10 -31q0 -6 -4 -10l-20 -39q-8 -22 -25 -43l-18 -24q-8 -12 -17 -21l-18 -25q-37 -46 -47 -51l-13 -12l-47 -35q-1 -1 -4 -2t-4 -2q-14 -9 -14 -12 q-71 -45 -164 -45q-44 0 -82 14q-45 22 -65 55q31 -8 65 -8h18q40 -28 76 -28q67 0 150 61q66 46 112 104v-2q4 11 15 25l8 8v-2q40 68 57 139q19 71 19 138zM242 -8q-12 10 -33 31l49 -19q62 -21 125 -24q59 -17 111 -17q188 0 344 193q2 3 7 10t7 10l25 25q0 11 8 22 q10 10 10 13q5 14 16 14q16 0 21 -21v-12q-18 -27 -27 -45q-7 -3 -22 -29l-6 -8l-43 -49l-48 -47l-36 -29q-4 -3 -13.5 -8t-13.5 -8q-9 -10 -27 -17h2q-9 -9 -22 -12q-16 -8 -19 -8q-83 -39 -178 -39q-60 0 -131 23q-74 28 -106 51zM518 547v-23q-16 8 -35 27l-20 29 q-4 8 -4 16q9 88 66 161t143 120q27 15 47 22q1 0 2.5 1.5t3.5 2.5l5 1l7 3q6 2 23 2q14 0 14 -6q0 -8 -8 -16q-37 -25 -57 -39q-8 -6 -33 -23q-3 0 -17.5 -11t-17.5 -15q-50 -44 -74 -90q-45 -78 -45 -162z" />
<glyph unicode="D" horiz-adv-x="1230" d="M70 117q0 31 26 57q40 35 144 35h30q3 0 9 -1t8 -1h8l59 -12q3 -1 9.5 -2.5t9.5 -2.5q12 -4 20 -4l53 -22l70 -35q15 10 21 16q13 7 26 21q21 21 29 27q43 50 65 86l5 -3l4 25q1 2 4 9t4 9q2 5 6 16.5t6 16.5q6 9 10 21q1 9 11 43l12 43q25 139 26 145q4 26 13.5 76.5 t13.5 71.5l29 96l33 78q21 42 28 49l-2 2q32 56 82 106q6 8 25 27l6 6q6 6 8 10q-6 0 -6 2q-1 1 -4 2.5t-4 2.5q-4 4 -6 4q-95 59 -216 59h-24q-2 0 -7.5 -1t-8.5 -1q-17 0 -19 -2l-72 -10q-49 -14 -53 -15q-15 -5 -51 -14q-3 0 -31 -8l-24 -8q-1 -1 -6.5 -4t-9.5 -5t-5 -2 q-157 -80 -246 -211v3q-2 -4 -8.5 -14.5t-9.5 -16.5q-1 -2 -3 -5t-3 -5q0 -1 -2 -4.5t-2 -4.5q-22 -44 -25 -53l-24 -63q-2 -6 -5.5 -19.5t-5.5 -19.5l-10 -37q0 -5 -8 -53q0 -25 -2 -31q0 -2 -1 -8t-1 -9v-12q0 -94 28 -151q29 -60 101 -93q0 -2 4 -2q2 -2 8 -2l4 -4 q5 -2 14.5 -5t14.5 -5q12 -4 20 -6q1 0 4.5 -1t4.5 -1q12 -4 18 -4q29 -6 29 -23q0 -16 -27 -16q-160 22 -238 149q-27 49 -43 162v68l7 61q2 2 6 25q2 6 2 16q10 30 10 39q7 27 10 35l4 10q11 22 13 27l14 28l35 64l31 41l38 45l48 43l51 37l35 22l94 49l80 31l86 25l75 14 q30 6 54 6h57q13 0 55 -6q37 -3 80 -18q74 -31 121 -66q4 4 8 6q20 10 37 27l10 4h-2q6 6 23 10q8 4 10 6q9 9 23 9q8 0 13 -7t5 -14q0 -14 -10 -16q-24 -12 -49 -27t-37 -27q4 -5 19 -24t22 -27q12 -12 16 -18q12 -15 31 -64q1 -3 4 -8t4 -8l4 -8q6 -11 10 -33l4 -12 l15 -60l6 -37q1 -7 4 -18.5t4 -15.5l4 -66v-74l-6 -80q0 -21 -12 -69q-4 -23 -15 -62q-2 -4 -2 -8q-4 -24 -22 -78l-10 -16v2q-6 -15 -11 -25q-66 -131 -178 -219t-243 -88q-72 0 -166 37q-6 0 -31 10l-8 4q-3 -2 -14.5 -6t-14.5 -6q-9 -5 -29.5 -13t-23.5 -9l-53 -17h2 q-3 -2 -27 -6q-2 -2 -14 -2q-18 -4 -62 -4q-38 0 -86 10q-42 13 -75 40t-33 67zM563 109l49 -21q7 0 9 -2q1 0 2 -1t2 -1l24 -6q27 -8 74 -8q100 0 190 65q18 12 29 23q49 46 92 98l4 -2q8 24 17 39q21 42 41 78q1 1 2 4t2.5 8.5t3.5 9.5l8 25q2 4 2 8q16 48 16 59l17 101 l6 92v43q0 3 -1 9t-1 9v9l-6 67l-4 16t-4 19l-7 37q0 11 -16 51q-25 79 -102 156q-2 -3 -8 -10t-7 -9q-60 -60 -96 -149q-15 -30 -22 -58q-11 -32 -11 -34q-1 -3 -4 -17.5t-4 -17.5q-13 -74 -31 -174q-19 -112 -28 -174l-21 -62q-5 -25 -20 -45v2q-31 -69 -101 -147 q-31 -31 -34 -33q-2 -2 -9 -7l-26 -22q-6 -5 -15 -13.5t-14 -12.5q0 -2 2 -2zM260 -72q-73 22 -98 66q1 0 3 -1t3 -1q52 -12 96 -12h10q38 -9 76 -9q66 0 133 25q45 13 45 16t-45 23l9 4q6 0 8 2q21 -12 35 -12q88 -37 170 -37q22 0 34 2q27 -6 66 -6q100 0 190 65 q18 12 29 23q49 46 92 98l4 -2q8 24 17 39q21 42 41 78q1 1 2 4t2.5 8.5t3.5 9.5l8 25q2 4 2 8q16 48 16 59l17 101l6 92v43q0 3 -1 9t-1 9v9l-6 67q-1 2 -2 6t-2 6l-2 50q0 1 -7 22v-2q-1 3 -2 10.5t-2 10.5l2 -2q-1 5 -3 16t-3 16q0 2 -2 9.5t-5 19t-5 18.5q-6 13 -4 21 l2 -4l-4 12q-5 25 -12 37l-2 8q-6 6 -9 12q-12 24 -14 29q8 -12 29 -33q12 -12 16 -18q12 -15 31 -64q1 -3 4 -8t4 -8l4 -8q6 -11 10 -33l4 -12l15 -60l6 -36q1 -7 4 -19l4 -16l4 -66v-74l-6 -79q0 -22 -12 -70q-4 -23 -15 -62q-2 -4 -2 -8q-4 -24 -22 -78l-10 -16v2 q-4 -10 -11 -24q-66 -131 -178.5 -219.5t-243.5 -88.5q-71 0 -165 37q-6 0 -31 10l-8 5q-3 -2 -14.5 -7t-14.5 -6q-9 -5 -29.5 -13t-23.5 -9l-54 -17h3q-3 -2 -27 -6q-2 -2 -14 -2q-18 -4 -62 -4q-38 0 -86 10zM741 1159q30 6 54 6h39q58 -15 114 -45q-2 -2 -6 -5.5t-7 -6.5 t-5 -6q-53 12 -103 12h-24q-2 0 -8 -1t-9 -1q-16 0 -18 -2l-72 -10q-49 -14 -53 -15q-15 -5 -51 -14q-3 0 -31 -8l-24 -8q-1 -1 -6.5 -4t-9.5 -5t-5 -2q-158 -81 -246 -210v2q-2 -3 -8.5 -13.5t-9.5 -17.5q-1 -2 -3 -5t-3 -5q0 -1 -2 -4.5t-2 -4.5q-22 -44 -25 -53l-24 -63 q-2 -6 -5.5 -19.5t-5.5 -19.5l-10 -37q0 -5 -8 -53q0 -25 -2 -31q0 -2 -1 -7.5t-1 -8.5v-13q0 -75 14 -121q-37 29 -49 60q-16 31 -23 78v49l7 61q2 2 6 25q2 6 2 16q10 30 10 39q7 27 10 35l4 10q11 22 13 27l14 28l35 64l30 41l39 45l47 43l52 37l35 22l94 50l80 30l86 25 zM1024 1001q6 9 18 21q5 -8 15 -22t12 -17q-54 -56 -86 -139q-15 -30 -22 -58q-11 -32 -11 -34q-1 -3 -4 -17.5t-4 -17.5q-14 -74 -31 -174q-19 -112 -28 -174l-21 -62q-5 -25 -20 -45v2q-31 -69 -101 -147l-26 -27q-42 0 -58 6q3 3 9 8t8 7q43 50 65 86l4 -2l5 24 q1 2 4 9.5t4 9.5q2 5 6 16t6 16q6 9 10 21q2 16 10 43l13 43q0 2 1 7.5t1 8.5l16 47q5 33 17 102.5t14 78.5q1 8 3.5 21.5t4.5 25t4 22.5q0 9 4 21l17 55l32 78q20 40 29 49l-2 2q32 56 82 106zM121 115q0 -9 10 -19q41 -43 137 -43q66 0 133 25q45 13 45 16q0 1 -23.5 12.5 t-35.5 16.5l-8 4q-2 1 -5 2t-5 2q-22 9 -23 10q-74 17 -104 17q-42 0 -78 -8q-43 -5 -43 -35zM178 92q40 35 141 35q12 -4 17 -4q10 -6 24 -10h2q8 -4 11 -4l2 -3q2 -1 6.5 -2t9 -2.5t8.5 -3.5q-53 -19 -94 -22q-4 0 -13 -1t-13 -1h-11q-56 0 -92 16zM1176 1073 q-20 -12 -35 -24l-11 22l-12 12q20 10 35 25l10 4h-2q6 6 23 10q8 4 10 6q9 9 23 9q8 0 13 -7t5 -14q0 -14 -10 -16q-24 -12 -49 -27zM223 229q-15 12 -30 27q50 -21 106 -27h6q5 -2 14 -5.5t13 -4.5l-33 8h-12q-5 0 -10 1t-7 1h-47z" />
<glyph unicode="E" horiz-adv-x="923" d="M10 340q0 90 56.5 178t138.5 150q10 6 16 10q7 2 21 10l8 4q6 2 22 10l17 9l33 11t43 15q15 4 39.5 13.5t35.5 13.5q14 3 37 20h4q-19 6 -82 33q-94 48 -94 131q0 47 23 101q42 90 129.5 141t189.5 51q161 0 223 -104q15 -27 15 -60v-8q-2 -18 -17.5 -34.5t-36.5 -16.5 q-12 0 -23 7.5t-11 21.5q0 26 34 26q7 0 11 -2h4v8q0 17 -8 33q-7 7 -9 16v-2q-1 0 -3 4t-5 7q-65 65 -172 65q-100 0 -182 -75.5t-82 -174.5q0 -45 15.5 -72t58.5 -38q4 -3 18 -8t17 -5q34 -11 34 -30q0 -22 -20 -37q-6 -6 -12 -6l-17 -8q-16 -12 -104 -54 q-16 -8 -51.5 -26t-49.5 -25h2q-6 -4 -12 -6q-2 -2 -10 -8q-2 0 -6 -4q-148 -103 -148 -267q0 -64 25 -125q9 -25 37 -71l37 -39l13 -9q14 -11 19 -14q5 -4 29 -22h-2q85 -39 199 -39h18l62 6q-1 0 1.5 0.5t9.5 1.5t11.5 2t13 2.5t9.5 1.5q12 6 26 6q102 43 175 122.5 t73 176.5q0 96 -54 163t-149 67q-81 0 -153.5 -48.5t-122.5 -127.5q-3 -3 -11 -15.5t-8 -15.5l-12 -25q-1 -2 -3 -7t-3 -7l-4 -8q-2 -13 -4 -19q-4 -8 -4 -10q-4 -7 -13 -12q-2 0 -6 -2q-21 0 -18 24l20 56q0 10 6 16v-2q3 7 6.5 12t4.5 6q6 13 8 15q51 93 136 151t181 58 q67 0 121 -30.5t86 -88.5q37 -67 37 -154q0 -106 -62 -186.5t-167 -126.5q-99 -41 -211 -41h-25q-15 0 -63 6q-17 0 -19 2q-2 0 -6 1t-6 1l-19 6l3 -2q-20 3 -37 9q-21 4 -39 12q-7 7 -43 16q-5 0 -21 8q-24 9 -32 15q-3 3 -23 18q-2 2 -16.5 15.5t-16.5 15.5l-4 -4 q-80 83 -80 221zM209 10q-4 2 -29 27q9 -6 21 -6q25 -6 32 -13q41 -14 48 -16l-2 2q23 -8 51 -12l4 8q4 0 8 -4h-2q85 -39 199 -39h18l61 6q-1 0 2 0.5l9 1.5l12 2t13 2.5t10 1.5q12 6 26 6q102 43 175 122.5t73 176.5q0 54 -23 111q-3 47 -22 100q30 -26 49 -61 q37 -67 37 -154q0 -106 -62 -186.5t-167 -126.5q-99 -41 -211 -41h-25q-15 0 -63 6q-17 0 -19 2q-2 0 -6 1t-6 1l-19 6l2 -2q-18 3 -36 9q-21 4 -39 12q-7 7 -43 16q-5 0 -21 8q-26 11 -33 15q-6 6 -22 18zM207 152q0 -7 4 -15l-4 4q-11 11 -27 31q-32 58 -37 70 q-22 58 -22 116v27q55 118 166 201q10 6 16 10q7 2 21 10l8 4l22 11l17 8q1 0 30 10t45 16q15 4 40 14t36 13q14 3 37 20h4q-16 4 -74 29h3q1 1 4 2t4 2l20 10q9 9 15 17q2 -2 6 -2q4 -3 17.5 -7.5t16.5 -4.5q35 -12 35 -31q0 -22 -20 -37q-6 -6 -12 -6l-17 -8 q-16 -12 -104 -54q-15 -8 -51 -26l-50 -25h2q-6 -4 -12 -6q-2 -2 -10 -8q-2 0 -6 -4q-148 -103 -148 -267q0 -63 25 -124zM467 870v-10l-2 2q-34 10 -46.5 31.5t-12.5 58.5v4q0 3 4 11q42 90 129.5 141t189.5 51q17 0 27 -2q22 -10 51 -35l2 -2q1 -2 3 -7t3 -7 q-38 14 -84 14q-100 0 -182 -75.5t-82 -174.5zM418 336q51 93 136 151t181 58h6q29 -17 52 -47q-32 8 -58 8q-81 0 -153.5 -48.5t-122.5 -127.5q-3 -3 -11 -15.5t-8 -15.5l-12 -25q-1 -2 -3 -7t-3 -7l-4 -8q-2 -13 -4 -19q-4 -8 -4 -10q-4 -7 -13 -12q-2 0 -6 -2 q-21 0 -18 24l20 56q0 10 6 16v-2q3 7 6.5 12.5t4.5 6.5q6 12 8 14zM911 1044q-1 0 -3 4t-5 7q0 2 1 6t1 6v10q0 23 -2 33q29 -23 49 -55q15 -27 15 -60v-8q-2 -18 -17.5 -34.5t-36.5 -16.5q-12 0 -23 7.5t-11 21.5q0 26 34 26q7 0 11 -2h4v8q0 17 -8 33q-6 6 -9 17v-3z M420 778q-1 1 -3 4t-3 4q4 -2 16 -6q-4 -2 -10 -2zM172 37l-8 8h2l8 -4v-2z" />
<glyph unicode="F" horiz-adv-x="980" d="M16 254q0 70 38.5 130t99.5 101q3 0 12 9q18 14 18 8q2 0 6 2q10 2 25 10q4 2 8 6q-57 96 -57 209q0 129 76 252q0 1 14 23q0 4 6 10q2 2 14 18q6 6 9 12q7 7 8 7l18 18q10 10 15 10q14 14 26 23q4 3 11.5 10t11.5 10l49 33q6 2 14 6v-2q7 7 23 15q86 40 166 53 q20 4 32 4h56l82 -10l180 -37h8q24 -4 43 -4h39q2 0 7 1t7 1h9q11 2 75 16q13 3 38.5 9.5t37.5 9.5q13 0 16 -15v-12q0 -54 -34 -84l-11 -8q-4 0 -12 -4q-13 -7 -45.5 -22t-40.5 -19q-10 -7 -24 -17q-74 -53 -117 -172q-8 -40 -8 -41l-17 -116q11 0 45 -1t49 -1h99 q14 -7 14 -25t-20 -27h-193l-4 -32t-4 -37q-4 -26 -8 -70l-15 -70q0 -4 -2 -8q0 -1 -2 -5t-2 -5q-10 -25 -10 -31q-2 -5 -9.5 -22.5t-8.5 -18.5l-37 -71l-29 -41q-4 -4 -10 -13q-24 -28 -29 -39q-6 -3 -27 -24l-16 -16q-30 -24 -45 -39l-45 -33q-6 -2 -10 -4q0 -1 -4.5 -4.5 t-8.5 -6.5q-123 -63 -251 -63q-61 0 -127 16q-94 25 -158 87.5t-64 150.5zM55 254q0 -66 49.5 -118t120.5 -79q69 -16 140 -16q106 0 208 50.5t164 137.5q45 73 72 152q0 1 1 4.5t1 5.5q1 6 4.5 18t3.5 13q3 18 8 22h-2l37 209h-170q-20 0 -20 27q0 19 10 22l8 5h178 q1 5 4.5 13.5t4.5 10.5q4 16 13 49t13 49l31 78q0 1 1 3t1 3q4 18 10 29l6 14q48 74 86 99q10 3 19 12l12 8l107 49q1 1 6 4.5t6 4.5h-2q24 24 28 34q-4 -2 -12 -2q-2 -2 -14 -2q-20 -4 -63 -12t-62 -12l-80 -9h-65l-287 29q-143 0 -264 -94q-67 -70 -113.5 -163.5 t-46.5 -174.5q0 -53 16 -106q5 -20 21 -48q16 -32 22 -38q16 4 31 10q16 4 22 4q1 0 3.5 1t3.5 1q22 5 24 6l70 4h20q138 0 258 -63q15 -5 15 -21q0 -4 -8 -11t-13 -7q-2 0 -6 2q-116 63 -244 63q-61 0 -116 -14q-9 0 -33 -6q75 -68 174 -96l39 -7q6 -1 19 -2t20 -2 q24 -4 41 -4q16 -5 16 -20q0 -7 -5.5 -11t-10.5 -4h-11q-52 0 -77 2q-150 25 -248 123h-6q-1 0 -4 -1t-4 -1q-9 -5 -9 -6l-24 -10q-65 -35 -106.5 -89.5t-41.5 -121.5zM319 -66q-97 26 -157 86q38 -17 69 -24q9 -2 26.5 -5t25.5 -5q4 -1 24 -11q69 -16 139 -16 q106 0 208.5 51t164.5 137q45 73 72 152q0 1 1 4.5t1 5.5q1 6 4.5 18t3.5 13q3 18 8 22h-2l2 21q4 0 4 4h-2l2 10q9 18 11 23l6 16l-2 -8q4 12 4 16l14 64q4 48 8 72q1 5 2 19t2 19q0 1 1.5 7t1.5 8h69v-8q11 0 45 -1t49 -1h99q14 -7 14 -25t-20 -27h-193l-4 -32t-4 -37 q-4 -26 -8 -70l-15 -70q0 -4 -2 -8q0 -1 -2 -5t-2 -5q-10 -25 -10 -31q-2 -4 -10 -21.5t-9 -19.5l-36 -71l-29 -41q-4 -4 -10 -13q-25 -30 -29 -38q-4 -2 -27 -25l-16 -16q-30 -24 -45 -39l-45 -33q-6 -2 -10 -4q-1 0 -5 -3t-8 -7q-125 -64 -252 -64q-61 0 -127 16z M1067 1102q1 0 4 -1t4 -1l-18 -8q-5 -5 -13 -9q-9 -9 -18 -12q-6 -4 -29 -22l-284 28q-143 0 -264 -94q-67 -70 -113.5 -163.5t-46.5 -174.5q0 -46 8 -82q-8 0 -12 -2q-4 -4 -11 -4l-14 29q-6 6 -10 18q-2 14 -2 43q0 129 76 252q0 1 14 23q0 4 6 10q2 2 14 18q5 5 9 13 q6 6 8 6l18 18q10 10 15 10q14 14 26 23q4 3 11.5 10t11.5 10l49 33q6 2 14 6v-2q7 7 23 15q66 30 119 43h2l251 -25h68l25 2l51 -10h8zM1047 741l-3 -16h-2q-6 0 -25 1t-28 1h-10q1 3 3 10.5t3 10.5l31 77q0 1 1 3t1 3q4 18 10 29l6 14q48 74 86 99q10 3 19 12l12 8l106 49 q1 1 6.5 4.5t6.5 4.5h-2q24 24 28 34q-4 -2 -12 -2q-2 -2 -14 -2q-30 -7 -76 -14q3 1 6 2.5l6 3t4 2.5q1 0 4 1t5 1q16 13 18 15q18 18 23 26q10 3 31.5 8.5t31.5 8.5q13 0 16 -15v-12q0 -54 -34 -84l-11 -8q-4 0 -12 -4q-13 -7 -45.5 -22t-40.5 -19q-11 -7 -25 -17 q-72 -52 -116 -172q-8 -40 -8 -41zM137 172q0 -25 6 -43q-31 24 -45 49q3 132 138 225q3 0 12 9q18 14 18 8q2 0 6 2q1 0 5 1t6 1q28 -19 39 -25h-5q-8 -4 -8 -6l-24 -10q-65 -35 -106.5 -89.5t-41.5 -121.5zM524 442q-40 0 -78 -6q-22 7 -63 27q12 4 18 4q1 0 3.5 1t3.5 1 q22 5 24 6l70 4h20q28 0 90 -8q30 -12 64 -29q8 -4 16 -4q9 0 17 8q35 -11 71 -30q10 -5 13 -15q0 -2 -1 -5.5t-1 -4.5t-1.5 -3t-1.5 -3v6q-2 -4 -2 -8q-6 -6 -12 -6q-2 0 -6 2q-116 63 -244 63zM580 279q-137 21 -234 108q68 -35 146 -47q6 -2 20 -2q17 -9 37 -12l39 -7 q6 -1 19 -2t20 -2q24 -4 41 -4q16 -5 16 -20q0 -7 -5.5 -11t-10.5 -4h-11q-39 0 -77 3zM764 621l8 4h64l-11 -54h-51q-20 0 -20 27q0 20 10 23z" />
<glyph unicode="G" horiz-adv-x="966" d="M12 172q0 48 33 90q19 31 53 55q83 58 230 58q51 0 90 -10q102 -9 176 -74h-2q8 -8 8 -12q0 -17 -25 -17q-119 84 -249 84q-66 0 -121 -16q-63 -17 -111.5 -59.5t-48.5 -100.5q0 -48 38.5 -80.5t90.5 -44.5q50 -12 102 -12h21q2 0 7.5 1t8.5 1q15 0 17 2l61 10l25 6 q4 1 13 3t13 3t29 11t29 12q38 19 39 20q86 52 143 129l12 19q10 15 15 20l34 70q26 71 35 98q2 8 9 32t10 38q3 12 9 31.5t9 31.5l-24 -24q-5 -5 -15 -14t-14 -13l-49 -37q-3 -3 -29 -16q-1 -1 -3 -2t-3 -2q-105 -57 -205 -57h-10q-2 0 -4.5 1t-3.5 1h-17q-2 0 -6 -2 q-4 2 -10 2q-8 2 -25 2q-123 19 -192.5 95.5t-69.5 199.5q0 25 8 83q0 1 1 3.5t1 3.5q7 21 7 22l8 25q4 18 10 26q19 38 25 52q2 6 6 12q12 20 14 22t6 9.5t6 9.5l21 28l28 31l46 41q16 8 45 37l63 37l55 27l78 34q1 0 3 1t3 1q25 10 37 13q61 18 123 18h19q56 -3 98 -22 q104 -55 104 -140q0 -52 -39 -84.5t-96 -44.5q-16 0 -16 17q0 9 10 16q1 0 4 1t4 1q4 0 8 2l19 6q30 13 52 36.5t22 49.5q0 41 -33 72.5t-78 44.5q-41 12 -80 12q-98 0 -203 -55q-44 -18 -49 -27l-33 -26q-13 -6 -36 -25h-5q-2 -1 -5 -3q-5 -4 -5 -5q-106 -95 -153 -211 q-33 -78 -33 -149q0 -65 27.5 -124.5t80.5 -97.5q2 -2 23 -16q19 -6 22 -12h-2q4 -2 13 -2q66 -15 106 -15q37 0 85.5 13.5t84.5 31.5q1 0 21 12.5t30 16.5h-2q5 4 23.5 18.5t23.5 18.5q1 1 4.5 3t4.5 3l18 18l76 78v-2q4 13 10 19l8 8q10 10 27 10q14 0 14 -18l-2 -19 l-31 -135l-26 -90l-33 -76l-31 -63l-28 -45q-8 -17 -31 -45q-15 -20 -29 -27h2q-3 -3 -10 -9t-10 -9q-13 -13 -19 -17q-4 -4 -10 -6h2q-2 -2 -10 -6h2l-8 -8q-35 -26 -35 -23l-12 -6l-15 -10q-4 -4 -10 -4q-109 -49 -170 -60q-53 -12 -110 -12q-55 0 -99 8 q-71 15 -119.5 56.5t-48.5 107.5zM262 -74q-92 21 -139 76q20 -7 53 -14q7 0 23 -4q39 -17 57 -21q50 -12 102 -12h21q2 0 7.5 1t8.5 1q15 0 17 2l61 10l25 6q4 1 13 3t13 3t29 11t29 12q38 19 39 20q85 51 143 130l12 18q10 15 15 20l34 70q26 71 35 98q2 8 9 32t10 38 q3 11 9 31t9 32l-18 -18l12 39l6 33l29 28v-2q4 13 10 19l8 8q10 10 27 10q14 0 14 -18l-2 -19l-31 -135l-26 -90l-33 -76l-31 -63l-28 -45q-8 -17 -31 -45q-15 -20 -29 -27h2q-3 -3 -10 -9t-10 -9q-13 -13 -19 -17q-4 -4 -10 -6h2q-2 -2 -10 -6h2l-8 -8q-35 -26 -35 -23 l-12 -6q-2 -1 -4.5 -3t-4.5 -3t-3.5 -2t-2.5 -2q-4 -4 -10 -4q-109 -49 -170 -60q-53 -12 -111 -12q-54 0 -98 8zM287 625q0 -59 20 -109q-82 76 -82 191q0 1 1 3t1 3q6 18 6 22l9 25q4 18 10 26q12 24 24 52q3 6 7 12q12 20 14 22t6 9.5t6 9.5q3 5 21 29l28 30l45 41 q18 9 46 37l63 37l55 27l78 34q1 0 3 1t3 1q25 10 37 13q62 18 123 18h18q2 0 6.5 -1t6.5 -1q31 -16 45 -43q-41 12 -78 12q-98 0 -203 -55q-44 -18 -49 -27l-33 -26q-15 -8 -37 -25h-4q-2 -1 -5 -3q-5 -4 -5 -5q-107 -96 -154 -211q-32 -75 -32 -149zM127 88v-4 q-15 7 -33 22q5 40 33 74q20 33 53 56q82 57 230 57q51 0 90 -10h2q10 -5 21 -12t24.5 -15.5t21.5 -13.5q31 0 41 10l43 -25q-4 -5 -12 -14t-12 -14q-106 65 -221 65q-66 0 -121 -16q-63 -17 -111.5 -59.5t-48.5 -100.5zM999 997q0 38 -30 68q0 2 1 6.5t1 7.5q0 13 -4 33 q65 -51 65 -115q0 -52 -39 -84.5t-96 -44.5q-16 0 -16 17q0 9 10 16q1 0 4 1t4 1q4 0 8 2l19 6q30 13 51.5 36.5t21.5 49.5zM727 403q2 1 10 6.5t13 8.5q-1 -3 -19 -51q-72 -37 -149 -43q-26 21 -62 36q12 -2 37 -2q37 0 85.5 13.5t84.5 31.5zM315 395q-4 3 -22 21 q32 -18 59 -23q-8 2 -24 2h-13zM354 393h8h-8z" />
<glyph unicode="H" horiz-adv-x="1794" d="M31 248q0 133 139 260q-133 160 -133 328q0 70 22 141q52 104 119 162q104 94 238 137q1 0 4.5 1t5.5 1q3 1 11.5 3t11.5 3q8 4 10 4q2 1 8.5 3t7.5 3l84 11l45 2h94l95 -4l170 -29q20 -4 57 -4q46 0 104 12h23q43 0 43 -25q0 -18 -6 -24l-8 -8l-13 -11l-76 -61 q-88 -66 -112 -188q-8 -48 -8 -58l-15 -194q5 -1 14.5 -3t14.5 -3q25 -5 33 -5q61 -20 82 -32q2 0 6 4q2 1 11 6t11 6l152 39q4 10 18 38t21 44q15 32 43 94l51 84q2 3 7.5 12.5t9 15.5t4.5 7l22 22q3 6 10 13q0 -1 6.5 4.5t12.5 11.5l-2 4q4 0 20 21q4 6 14 16l37 33 q67 51 125 51q38 0 66 -27.5t33 -68.5v-17q0 -153 -201 -280q-45 -22 -49 -31l-33 -16q-10 -4 -22.5 -10t-21 -10t-11.5 -5q-54 -18 -70 -24q-2 -1 -11.5 -3.5t-11.5 -3.5q-2 -2 -10 -2q-3 -12 -10 -38t-10 -39q-8 -23 -10 -37q6 2 22 6q-1 -5 -3 -16.5t-3 -16.5t-4 -12.5 t-4 -9.5l2 2q-1 -6 -4 -18.5t-4 -18.5q-3 -15 -7 -31q-2 -8 -6 -20l2 4l25 88l22 55q-3 -1 -8 -3t-8 -3q2 10 10 35l4 12l19 6q9 21 22 47q35 14 68 25q2 0 10 4q-2 -2 -2 -6q-1 -2 -22 -51l45 14q108 51 190 110q57 44 99 101.5t42 113.5q0 33 -18 54q0 4 1 13.5t1 14.5v19 q0 1 -1 2t-1 2q53 -21 63 -88v-17q0 -153 -200 -280q-45 -22 -49 -31l-33 -16q-10 -4 -22.5 -10t-21 -10t-11.5 -5q-54 -18 -70 -24q-2 -1 -11.5 -3.5t-11.5 -3.5q-2 -2 -10 -2q-3 -12 -10 -38t-10 -39q-9 -32 -21 -80q-2 -13 -7.5 -36t-6.5 -30q-6 -23 -14 -63 q-1 -12 -4.5 -33.5t-4.5 -30.5q-4 -20 -8 -65q-2 -18 -2 -66v-33h-6q-21 0 -35.5 12.5t-15.5 35.5q0 22 -2 32l-4 11l2 24q0 46 2 64q3 34 8 63q0 9 4 29q1 4 2 17t2 18q4 24 8 38l-20 -71q-2 -12 -6 -35.5t-6 -34.5q-1 -8 -4.5 -23.5t-4.5 -23.5q0 -13 -4 -41q-2 -4 -2 -10 v-19q2 -4 2 -10q2 -10 2 -28q3 -30 23.5 -49t48.5 -19q55 0 96 76q5 18 17 37q4 12 14 32q10 28 16 39q5 10 19 10q16 0 16 -24l-24 -72q-25 -60 -78 -111t-109 -51q-16 0 -24 2q3 -11 10 -22q-41 4 -69 29t-41 64.5t-18 75t-5 73.5v30q0 13 4 33v-2q4 28 4 39t4 27 q1 4 2 12t2 12q0 3 2 12t2 13h-8q-30 0 -49 16t-19 45q25 3 41 19q-2 -6 -2 -19q0 -10 9 -17t20 -7q9 0 14 8q-1 -6 -2 -18t-2 -17q-1 -2 -1 -5.5t-1 -4.5q14 0 23 6q1 5 6 35l20 69q-2 12 -10 27q3 1 9.5 2t9.5 2l18 66l23 55q-13 -4 -36 -10.5t-36 -10.5q-21 -7 -70 -22 q15 -30 15 -64q0 -73 -62 -73q-30 0 -48.5 16t-18.5 45q0 25 12 57q0 3 8 11l1 1q1 2 2 3l2.5 2.5l3 3t3.5 2.5l6 6q-20 11 -36 14l-60 13q-7 -33 -14 -78q-4 -19 -14 -80l-23 -96q-2 -7 -12.5 -34t-14.5 -32v2q-68 -136 -116 -186q-80 -80 -186.5 -124t-225.5 -44 q-76 0 -144.5 26t-116.5 84t-48 138zM92 815q0 -151 92 -256l23 -18l33 22q6 4 18 13.5t18 13.5l74 45q1 0 9 3t22 9t25 10q1 1 9 4.5t9 4.5q31 16 65 24l95 21l80 10l104 6l104 -2q0 1 17 94q3 16 8 49t8 50l23 79q9 38 20 52v-2q45 95 115 147q36 31 55 43 q-46 -12 -100 -12q-31 0 -49 2l-215 35q-20 0 -52 4q-8 1 -24.5 2t-24.5 2h-14q-94 0 -195.5 -30.5t-175.5 -84.5q-33 -33 -49 -45l-12 -12q-2 -2 -6.5 -6t-5.5 -5q-47 -58 -75 -131t-28 -141zM70 248q0 -54 34 -103q34 -53 99.5 -77.5t138.5 -24.5q55 0 127 14 q177 50 270 219l4 9q3 4 5 6q1 2 4 7t4 7q12 20 12 23q0 16 16 37v-3q9 22 9 23l26 94q3 15 10.5 49.5t10.5 53.5q15 85 18 100q-16 0 -24 2q-3 0 -9.5 1t-9.5 1h-100q-3 0 -10 -1t-11 -1q-6 -2 -26 -2q-24 -4 -52 -8q-20 -4 -34 -4q-7 -2 -22.5 -6.5t-22.5 -6.5l-43 -12 l-70 -22q-1 0 -55 -27q-2 -1 -27 -16q-2 -1 -5 -3.5t-5 -3.5q-7 -3 -16.5 -8t-10.5 -6l2 -2q-10 -8 -31.5 -24.5t-31.5 -24.5q2 -1 5 -3t5.5 -3.5t3.5 -1.5q75 -52 184 -62q36 -6 64 -6h92q23 0 23 -22q0 -8 -7 -14.5t-14 -8.5h-20q-3 0 -9.5 -1t-9.5 -1h-16q-1 -3 -35 2 q-1 0 -5 1t-5 1q-5 0 -15 1t-14 1h-12q-2 1 -15.5 3t-30 4t-20.5 3q-112 22 -190 80l-13 -12q-120 -112 -120 -221zM1374 795q-5 -10 -13.5 -30.5t-8.5 -21.5l45 15q108 51 190 110q57 44 99.5 101.5t42.5 113.5q0 29 -15 49.5t-43 20.5q-40 0 -106 -57q-2 -1 -14 -12 t-15 -13q-14 -25 -45 -65q-3 -5 -17 -26.5t-22 -31.5q-22 -31 -29 -49q-5 -9 -26 -51q0 -1 -9.5 -22t-13.5 -31zM174 733q0 -94 35 -168h-2l-8 8q-64 70 -80 168v13q0 70 22 141q52 104 119 162q104 94 238 137q1 0 4.5 1t5.5 1q3 1 11 3t11 3q8 4 11 4q2 1 8.5 3t7.5 3 l84 11l45 2h94l94 -4l156 -27q-15 -12 -39 -41l-155 27q-20 0 -52 4q-8 1 -24.5 2t-24.5 2h-14q-94 0 -195.5 -30.5t-175.5 -84.5q-33 -33 -49 -45l-12 -12q-2 -2 -7 -5.5t-6 -4.5q-46 -58 -74 -131.5t-28 -141.5zM1049 825l-9 -112q-3 1 -12 4.5t-14 5.5q-9 0 -29 4h-12 l2 35l12 74l23 79q10 38 20 52v-2q45 95 115 147q22 22 53 41q-48 -10 -92 -10l63 49q6 1 18.5 4t18.5 4h23q43 0 43 -24q0 -19 -6 -25l-9 -8l-12 -10l-76 -62q-88 -66 -112 -188q-8 -48 -8 -58zM152 166q0 -30 8 -51q-22 14 -39 41q-6 6 -8 10q0 132 137 258v2h2l-2 -2 q67 -31 139 -43q11 0 19 -2q8 0 12 -2q62 -19 104 -21q36 -6 64 -6h92q22 0 22 -22q0 -8 -6.5 -14.5t-13.5 -8.5h-20q-3 0 -9.5 -1t-9.5 -1h-16q-1 -3 -35 2q-1 0 -5 1t-5 1q-5 0 -15 1t-14 1h-12q-2 1 -15.5 3t-30 4t-20.5 3q-112 22 -190 80l-13 -12q-120 -112 -120 -221z M666 629l79 10l82 4q-4 -20 -4 -29q-2 -4 -2 -10h-24q-3 0 -10 -1t-11 -1q-6 -2 -26 -2q-24 -4 -52 -8q-20 -4 -34 -4q-7 -2 -23 -6.5t-23 -6.5l-43 -12l-69 -22q-1 0 -55 -27q-2 -1 -27 -16q-2 -1 -5 -3t-5 -3q-7 -3 -16.5 -8.5t-10.5 -6.5l2 -2q-1 -1 -4 -3t-4 -3 q-38 8 -53 16q5 3 30 23l74 45q1 0 8.5 3t21.5 9t25 10q1 1 9.5 4.5t9.5 4.5q31 16 65 24zM1370 -63q-61 0 -96 61h14q34 0 68 18q19 -16 47 -16q55 0 96 76q5 18 17 37q4 12 14 32q11 28 16 39q6 11 19 11q16 0 16 -25l-25 -72q-25 -60 -77.5 -110.5t-108.5 -50.5z M1632 1063q43 30 72 41q4 -12 4 -21q0 -10 -4 -26q-25 -15 -57 -43q-2 -1 -14 -12t-15 -13q-14 -25 -45 -65q-3 -5 -17 -26.5t-22 -31.5q-1 -2 -4 -5.5t-5 -6.5t-3 -6q-65 -40 -95 -53l13 24l51 84q2 4 7 12.5t8.5 15t4.5 7.5l23 23q2 4 10 12q0 -1 6.5 4.5t12.5 11.5l-2 4 q4 0 20 21q4 6 14 16zM1042 559q0 -10 9 -17t20 -7q16 0 25 22v12q0 34 -15 49q-39 -27 -39 -59zM1184 592q2 1 11 6t11 6h2l-30 -110q-5 33 -15 43q-12 -9 -18 -15q8 19 8 49q0 5 -1 15t-1 14q15 -6 27 -12q2 0 6 4z" />
<glyph unicode="I" horiz-adv-x="1052" d="M6 270q0 78 46.5 148t117.5 114q113 70 266 70h43h8q-2 10 -2 31v16q0 101 62 219q9 28 20 39v-2l6 15l50 59q3 5 11 14t11 13q13 13 25 28l61 53q11 7 19 13q-3 -1 3 3l2 1q9 6 11 8q9 3 16 10q74 41 103 52q6 0 33 10q5 1 13 4.5t9 3.5q4 0 12 4q2 1 6.5 2t6.5 2 q61 12 122 12h25q103 -8 141 -53q23 -23 23 -55q0 -23 -14.5 -42.5t-36.5 -19.5h-23q-1 0 -3 1t-3 1q-52 0 -84 -23t-57 -75q0 -1 -1 -3t-1 -3l-6 -14q-3 -3 -3 -11q0 -1 -1 -5t-1 -5q-8 -13 -8 -18q-1 -6 -3.5 -20t-2.5 -17q-5 -30 -6 -35q-3 -24 -10.5 -76t-10.5 -80 q-12 -106 -18 -155l-14 -66l-21 -76q-6 -6 -6 -10q-2 -2 -2 -4q-8 -16 -8 -20q-11 -22 -21 -37q-3 -7 -13 -24.5t-11 -18.5q-3 -3 -9.5 -10.5t-9.5 -10.5q-12 -12 -16 -18l-47 -53l-43 -33q-8 -6 -21.5 -16.5t-21.5 -16.5l-62 -35l-57 -20q-10 -4 -18 -6l-27 -9 q-67 -20 -143 -20q-106 0 -209 39q-87 32 -142 90.5t-55 140.5zM45 270q0 -60 37.5 -106t95.5 -76q24 -5 41 -16h-2q5 -1 14.5 -4.5t14.5 -4.5l30 -6q3 -2 21.5 -6t24.5 -4q58 -8 96 -8q130 0 248 65q90 66 153 164v-2q18 36 21 45q3 6 12 33q0 1 2 6t2 6l16 68 q20 130 27 172q6 44 29 174l16 72q2 10 6 18q11 22 11 27q26 56 59 102q68 88 176 88h27q6 0 6 2q-2 5 -2 13q-16 32 -33 38q-39 12 -72 15h-67q-5 -1 -17.5 -2t-17.5 -2q-24 -4 -35 -4q-5 -1 -16.5 -4.5t-16.5 -4.5q-12 -2 -32 -6q-8 0 -23 -6q-20 -5 -23 -6q-2 0 -4.5 -1 t-3.5 -1q-18 -12 -30 -12q-1 0 -3.5 -1.5t-7.5 -3.5l-10 -4l2 -4q-12 -6 -18 -8h-6v-2q-34 -17 -41 -24q-25 -15 -41 -31l-41 -43v2q-10 -15 -11 -16t-3 -4.5t-3 -4.5l-18 -24q-111 -135 -111 -279v-22q0 -2 1 -5.5t1 -5.5v-22l60 -12l65 -23l70 -27l74 -38v-13 q0 -18 -27 -18q-4 0 -8 4l-6 6q-34 19 -39 21q-52 26 -60 28q-24 5 -32 8q-18 4 -31 11q-17 0 -29 4q-3 1 -11 3t-11 3l2 -8q30 -80 129 -150q6 -6 6 -18q0 -17 -19 -17h-12q0 4 -12 13q-100 76 -150 188q-2 0 -6.5 1t-7.5 1h-37q-84 0 -172 -24q-2 0 -4 -2q-30 -15 -63 -37 q-64 -39 -107 -101t-43 -127zM285 -43q-88 35 -135 84q17 -10 47 -21h-2q36 -15 104 -30h4q3 -1 11 -4t14 -4l30 -7q3 -2 21 -6t24 -4q58 -8 97 -8q128 0 248 66q91 67 153 163v-2q18 36 21 45q3 6 12 33q0 1 2 6t2 6l10 43q0 3 4 7q0 4 4 12q2 7 11 16l22 82l15 66 q3 24 18 157q2 13 5 41t5 41q8 39 10 64v2q24 52 60 102q68 88 176 88h27q6 0 6 2q-2 5 -2 13q-15 30 -33 39q20 23 20 55v2q23 -10 39 -29q23 -23 23 -55q0 -23 -14.5 -42t-36.5 -19h-23q-1 0 -3 1t-3 1q-51 0 -83.5 -23.5t-57.5 -75.5q0 -1 -1 -3t-1 -3l-7 -14 q-2 -2 -2 -10q0 -1 -1 -5.5t-1 -5.5q-8 -13 -8 -18q-1 -6 -3.5 -20t-2.5 -17q-5 -30 -6 -35q-3 -24 -10.5 -75.5t-10.5 -79.5q-14 -119 -18 -156l-14 -66l-21 -75q-6 -6 -6 -11q-2 -2 -2 -4q-8 -16 -8 -20q-11 -22 -21 -37q-3 -7 -13 -24.5t-11 -18.5q-3 -3 -9.5 -10.5 t-9.5 -10.5q-12 -12 -16 -18l-47 -53l-43 -33q-8 -6 -21.5 -16.5t-21.5 -16.5l-62 -35l-57 -20q-10 -4 -18 -6q-6 -2 -16 -5t-11 -3q-71 -21 -143 -21q-106 0 -209 39zM1047 1118q5 1 16 3t16 3h43q35 -3 66 -12q4 -2 12 -14h-4q-74 0 -139 -45q-3 -1 -8 -2.5t-8.5 -2.5 t-6.5 -1q-7 -1 -18.5 -3.5t-14.5 -3.5q-7 0 -22 -6q-20 -5 -23 -6q-2 0 -4.5 -1t-3.5 -1q-18 -12 -30 -12q-1 0 -3.5 -1l-7.5 -3l-10 -4l2 -5q-12 -6 -18 -8h-7v-2q-32 -16 -40 -24q-25 -15 -41 -31l-41 -43v2q-10 -15 -11 -16t-3 -4.5t-3 -4.5l-18 -24q-100 -126 -111 -250 l-16 6q-4 1 -11 2t-10 2q8 85 60 180q9 28 20 39v-2l6 15l50 59q3 4 11 13.5t11 13.5q13 13 25 28l61 54q10 6 18 12q-2 -1 0 1q1 1 5 3l12 8q9 3 16 10q74 41 103 52q5 0 32 10q5 1 13.5 4.5t9.5 3.5q4 0 12 4q2 1 6.5 2t6.5 2zM127 188q0 -25 6 -49q-27 24 -45 54 q1 76 47.5 145t116.5 113q98 61 225 67q4 -6 12.5 -19.5t12.5 -19.5q-75 -3 -158 -24q-2 0 -4 -2q-34 -17 -64 -37q-63 -39 -106 -101t-43 -127zM625 461q0 -4 2 -6q-40 40 -52 65h13q4 -4 20 -8l4 -2h6q11 -4 29 -8q19 -4 49 -21q1 -1 3 -2t3 -2q29 -14 41 -22l2 -2 q11 -11 23 -11q23 0 35 9l47 -27l-8 -39l-6 6q-34 19 -39 21q-52 26 -60 28q-19 4 -32 9q-22 5 -31 10q-17 0 -29 4q-3 1 -11 3t-11 3zM717 289q-27 21 -55 49q23 0 32 20q17 -17 60 -47q6 -6 6 -18q0 -17 -19 -17h-12q0 4 -12 13z" />
<glyph unicode="J" horiz-adv-x="727" d="M12 231q0 87 70 199q71 89 135 135q-39 93 -39 178q0 101 41 197q3 12 21 47l32 57l35 50l43 51l56 51l51 43l78 43h-3q30 19 46 27h-3q4 4 11 4q90 41 190 41q70 0 129 -21q25 -10 45.5 -32.5t20.5 -49.5q0 -55 -60 -55q-1 0 -4.5 1t-5.5 1q-6 2 -22 2q-50 0 -91 -59 q-17 -17 -32 -51q-1 -1 -2 -5t-2 -6l-2 -4l-7 -20l-14 -70q-8 -37 -10 -51q-6 -37 -16.5 -110.5t-12.5 -88.5q-21 -142 -28 -198l-29 -125q0 -5 -8.5 -29.5t-12.5 -30.5v2q-6 -11 -8 -26q0 -7 -2 -9v3q-8 -17 -10 -17h4q-6 -18 -14 -26v2q-1 -2 -3.5 -7.5t-3.5 -7.5l-8 -16 q-24 -35 -45 -72l-43 -45q-21 -21 -33 -37q-110 -96 -225 -96q-97 0 -153 66t-56 165zM49 231q0 -80 46.5 -137t125.5 -57q76 0 150 51t116 123q1 1 4 8t5 12l8 17l33 80q6 22 17 65t13 53q1 8 19 106.5t26 149.5q7 38 15.5 81.5t19 95t15.5 79.5l24 86q4 9 6 15q1 2 3 7 t3 7l4 6q37 68 58 95q37 42 71 55q24 6 48 6q1 0 4.5 -1t5.5 -1h26q9 0 17 6.5t8 13.5q0 21 -47 33q-41 10 -92 10q-52 0 -72 -4q-4 0 -24 -4q-1 0 -12.5 -1t-18.5 -1v-4q-5 -2 -35 -12l-31 -10q-17 -11 -51 -17q-8 -4 -14 -10l-15 -6q-8 -8 -41 -19l2 -4l-6 -2 q-79 -57 -144 -134t-93 -155l-8 -24l-9 -29l-12 -65q0 -2 -1 -9t-1 -10q-2 -10 -2 -33q0 -67 25 -137l8 -16q0 -2 2 -4q3 2 7 5t7 5l43 31l101 49q5 3 32.5 16.5t32.5 16.5l88 28q19 0 19 -18q0 -7 -7 -14l-69 -25q-6 -2 -21.5 -9t-21.5 -9q-16 -8 -43 -17q-6 -3 -21 -11.5 t-24 -12.5q-4 -2 -39 -23q-6 -4 -17.5 -12.5t-17.5 -12.5q-4 -3 -16.5 -11t-16.5 -11q36 -52 64 -78q1 -3 13.5 -15t14.5 -12q9 -6 9 -16q0 -16 -17 -16q-8 0 -10 2q-68 54 -102 114q-48 -39 -84 -84q-103 -103 -103 -215zM303 -82q-99 0 -160 74q35 -9 70 -12 q45 -25 90 -25q76 0 150 51t116 123q1 1 4 9t5 12l8 16l32 80q10 35 31 119q2 16 23 127l10 40q1 8 3 26.5t3 23.5q3 18 6 39q20 105 49 256l25 86q4 8 6 14q1 2 3 7t3 7l4 6q37 68 58 95q37 42 71 55q24 6 48 6q1 0 4.5 -1t5.5 -1h26q9 0 17 6.5t8 13.5q0 11 -15 20t-30 13 q14 17 14 45q25 -13 43.5 -34t18.5 -46q0 -55 -60 -55q-1 0 -4.5 1t-5.5 1q-6 2 -22 2q-50 0 -91 -59q-17 -17 -32 -51q-1 -1 -2 -5t-2 -6l-3 -4l-6 -20l-14 -70q-8 -37 -10 -51q-6 -37 -16.5 -110.5t-12.5 -88.5q-28 -192 -29 -198l-28 -125q0 -5 -8.5 -29.5t-12.5 -30.5v2 q-6 -11 -8 -26q0 -6 -2 -8v2q-8 -17 -10 -17h4q-6 -18 -14 -26v2q-1 -2 -3.5 -7.5t-3.5 -7.5l-8 -16q-24 -35 -45 -72l-43 -45q-21 -21 -33 -37q-110 -96 -225 -96zM668 1231q90 41 190 41h4q12 -3 27 -6q31 -6 31 -13h-31q-1 0 -3 1t-3 1q-30 0 -54 -6q-42 -18 -69 -45h-4 v-4q-5 -2 -35 -12l-31 -10q-17 -11 -51 -17q-8 -4 -14 -10l-15 -6q-8 -8 -41 -19l2 -4l-6 -2q-79 -57 -144 -134t-93 -155q-1 -2 -4.5 -10.5t-4.5 -13.5l-8 -29l-12 -65q0 -2 -1 -9t-1 -10q-2 -10 -2 -32v-19h-2q-4 -3 -9.5 -7t-12 -9.5t-9.5 -8.5q-2 14 -2 44q0 100 41 196 q3 12 21 47l32 58l35 49l43 51l55 51l52 43l77 43h-2q29 19 45 27h-2q4 4 11 4zM131 150q0 -41 10 -70q-26 17 -47 49v21q0 86 70 198q65 77 96 105q11 -11 31 -27q-30 -26 -58 -61q-102 -102 -102 -215zM379 492q-2 -1 -12 -7t-15 -10q-8 8 -8 10q-28 23 -51 60q8 4 16 12 q2 -14 10 -33l9 -16q0 -2 2 -4q3 2 7 5t7 5l43 31l100 49q5 3 33 16.5t33 16.5l27 8q-6 -20 -9 -43q-3 -1 -9.5 -4t-11.5 -5t-9 -3q-16 -8 -43 -17q-5 -3 -20.5 -11.5t-24.5 -12.5q-4 -2 -39 -23q-6 -4 -17.5 -12t-17.5 -12zM420 334q-46 36 -66 59q24 4 29 25 q12 -15 27 -27q1 -3 13.5 -14.5t14.5 -11.5q8 -5 8 -17q0 -16 -16 -16q-8 0 -10 2z" />
<glyph unicode="K" horiz-adv-x="1742" d="M25 186v23q0 135 133 242q-27 122 -27 217l6 90l15 92q0 10 22 76q73 187 186 295q34 28 62 47l57 43q18 13 62 28q93 37 159 37q117 0 209 -92q19 -23 33 -49q21 -40 35 -78q12 -36 24 -104q7 -56 7 -58v-86l-11 -92l-22 -125l-33 -123l-33 -84l-37 -75l-38 -60l-54 -74 l-32 -34l-72 -70l-68 -51l-61 -41q-2 -2 -8 -4q-6 -3 -24.5 -12t-22.5 -11q-128 -53 -230 -53h-24q-90 8 -146.5 53.5t-66.5 132.5zM66 209q0 -81 56 -122.5t138 -41.5q45 0 123 12q163 48 293 185q8 6 28.5 28t24.5 29q34 45 37 55l35 62q2 3 28 55q13 47 25 70q2 7 12 47 q2 9 7.5 25t7.5 22q8 40 12 63q2 10 6 32t6 32q1 10 3 33.5t3 31.5q1 13 4 38t3 30v61q0 1 -1.5 3.5t-1.5 3.5v18q0 1 -1 4.5t-1 5.5q0 3 -1 8.5t-1 8.5l-4 41l-14 65q-8 8 -8 23q-2 2 -2 8q-2 8 -6 16q-7 14 -7 17q-32 63 -85.5 106t-116.5 43q-103 0 -217 -88l-25 -25 q-4 -2 -8 -6q-6 -3 -17 -14q-4 -5 -13 -15.5t-13 -15.5q-5 -5 -14 -14.5t-13 -13.5q-25 -25 -47 -58q-42 -56 -70 -125q0 -6 -2 -8q-1 -2 -3 -8t-3 -8t-4 -9.5t-5.5 -14t-2.5 -7.5l-23 -82q-2 -5 -6 -30t-4 -33q-6 -24 -6 -70v-23q0 -104 23 -188q98 54 188 72q73 16 170 16 h20q25 0 45 -4q6 -1 12.5 -7t6.5 -9q0 -20 -19 -23h-24q-3 0 -7.5 1t-6.5 1h-29q-169 0 -326 -80h2q-6 -4 -18 -10q36 -102 115 -203q4 -4 4 -14q0 -23 -23 -23q-13 0 -18 7q-59 73 -115 206q-45 -36 -75.5 -88t-30.5 -104zM1221 240l-35 237q-12 52 -15 60q-37 -13 -63 -13 q-50 0 -92.5 26t-42.5 75q0 33 24.5 54t59.5 21q42 0 76.5 -29.5t58.5 -72.5q1 0 6 4t8 8q25 25 43 49q2 3 6.5 11.5t6.5 11.5v-2l92 295l30 76l9 14l6 10q4 12 8 12q33 59 81 97.5t105 38.5q75 0 113 -52q18 -29 18 -55q0 -24 -14 -42.5t-39 -18.5q-20 0 -32.5 11t-12.5 30 q0 33 35 41l6 2h2v2q-32 41 -67 41q-87 0 -148 -113q-24 -42 -29 -47h5q-3 -8 -8.5 -24.5t-8.5 -24.5q-11 -29 -16 -47q-21 -70 -23 -80q-7 -23 -20 -78q-20 -40 -21 -43q-14 -44 -45 -88q-27 -39 -80 -88q24 -83 58 -191q7 -25 27 -89t30 -99q1 -2 3 -9t3 -9q3 -9 8 -19 q4 -8 4 -10q8 -15 24 -28t30 -13q26 0 53 25.5t45 54.5q4 10 8 16q0 4 6 10q5 29 21 29q22 0 22 -22q0 -25 -18 -43v2q-23 -53 -70 -88t-104 -35q-32 0 -59.5 21.5t-43.5 53.5q-2 9 -6 17v-2q-4 4 -4 12q-7 26 -10 33zM319 -82q-116 10 -172 80q27 -10 89 -18h12 q49 -17 94 -17t123 12q163 48 293 185q8 6 28.5 28t24.5 29q34 45 37 55l35 62q2 3 28 55q13 47 25 70q2 7 12 47q2 9 7.5 25t7.5 22q0 6 4 18q19 -36 65 -53l-8 -31l-33 -84l-37 -75l-39 -60l-53 -73l-33 -35l-71 -70l-68 -51l-61 -41q-2 -2 -8 -4q-7 -3 -26 -12t-22 -11 q-128 -53 -229 -53h-25zM1348 276q16 -55 53 -174h-6q-14 0 -35 31l-4 8q-1 3 -5 11.5t-5 11.5q-3 6 -3 12q-3 12 -36 113h2q-5 15 -13.5 41.5t-11.5 34.5h2q-5 17 -25.5 79.5t-29.5 96.5q10 10 16 14q5 -6 27 -39q1 0 6 4t8 8q22 22 43 50q2 3 6 11t6 11v-2l93 295l30 76 l9 14l6 10q4 13 8 13q51 90 125 122q-8 -20 -8 -32q0 -15 2 -21q-40 -30 -72 -88q-24 -42 -29 -47h4q-3 -8 -8 -24.5t-8 -24.5q-11 -29 -16 -47q-21 -70 -23 -80q-7 -23 -20 -78q-20 -40 -21 -43q-14 -44 -45 -88q-27 -39 -80 -88q24 -83 58 -191zM623 1257q69 27 110 33 q44 -23 72 -55q-30 10 -55 10q-104 0 -218 -88l-24 -24q-2 -1 -8 -7q-6 -3 -17 -14q-4 -5 -13 -15.5t-13 -15.5q-5 -5 -14 -14.5t-13 -13.5q-25 -25 -47 -58q-42 -56 -70 -125q0 -6 -2 -8q-1 -2 -3 -8t-3 -8t-4 -9.5t-5.5 -14t-2.5 -7.5l-23 -82q-2 -5 -6 -30t-4 -33 q-6 -24 -6 -70v-78q-6 -3 -18.5 -8t-18.5 -8q-4 50 -4 80l6 90l14 92q0 7 23 76q73 187 186 295q34 28 62 47l57 43q18 13 62 28zM369 113q-25 29 -41 59q20 10 20 39q0 14 -10 29q-73 96 -105 178l5 2q8 4 28 12q2 -16 10 -43q98 53 189 72q73 16 170 16h20q25 0 45 -4 q6 -1 12.5 -7t6.5 -9q0 -20 -19 -23h-24q-3 0 -7.5 1t-6.5 1h-29q-169 0 -326 -80h2q-6 -4 -18 -10q36 -102 115 -203q4 -4 4 -14q0 -23 -23 -23q-13 0 -18 7zM1079 735l-4 -16q-3 0 -9 1t-9 1q-31 0 -60 -16l21 110l10 92v88q0 12 -6 60q-10 57 -27 108q-3 7 -11 27.5 t-11 28.5q3 -2 18 -17q19 -23 33 -49q21 -40 35 -78q12 -36 24 -104q7 -56 7 -58v-86zM1440 -51q-57 0 -94 61h12q34 0 76 17q19 -27 43 -27q26 0 53 25.5t45 54.5q4 10 8 16q0 4 6 10q5 29 21 29q22 0 22 -22q0 -25 -18 -43v2q-23 -53 -70 -88t-104 -35zM1751 1059l-16 16 q10 20 10 41v10q26 -13 43 -36q18 -29 18 -56q0 -24 -14 -42.5t-39 -18.5q-20 0 -32.5 11t-12.5 30q0 33 35 41l6 2h2v2zM147 127q0 -20 3 -35q-30 19 -44 41q3 102 80 186q5 -11 23 -43q-62 -72 -62 -149zM1018 625q0 -28 29 -44t61 -16q22 0 41 8h-2q2 2 4 2q0 1 -1 4.5 t-1 4.5l-6 12q-34 59 -88 59q-14 0 -25.5 -8.5t-11.5 -21.5zM1169 442q-86 12 -108 68q24 -6 47 -6h12q19 -13 41 -19q0 -2 2 -7t2 -7v4zM1071 590q7 9 33 22q2 -2 20 -26h-16q-25 0 -37 4zM1038 625q0 10 17 10h6l-4 -25l-4 -10q-15 11 -15 25zM1167 469l-2 2z" />
<glyph unicode="L" horiz-adv-x="1323" d="M6 129q0 51 41 92q8 6 8 8q47 33 117 43h12q2 0 6.5 1t6.5 1q54 7 92 7q71 0 174 -15q44 -9 151 -45q2 2 4.5 6t4 7t2.5 4q38 41 51 104q0 6 4 14l4 13q3 63 10.5 190t10.5 189l12 77l10 58l25 61q0 4 2 6q2 3 16 31q41 70 98 131q54 49 166 105q13 0 19 6q80 34 164 34 q45 0 81 -8q82 -27 123 -89.5t41 -145.5q0 -110 -67 -223q-24 -38 -66 -86l-26 -27q-112 -107 -273 -129q-58 -12 -125 -12q-31 0 -31 24q0 23 27 23q13 0 45 4q6 1 23 2t24 2q4 1 16.5 3t16.5 3q5 1 16.5 4t16.5 4l12 4q1 0 4 1t4 1q9 0 13 4q72 20 120 60q133 104 166 285 q6 30 6 63q0 86 -45.5 138t-134.5 52q-67 0 -147 -34q-48 -18 -82 -43q-106 -69 -139 -156q-19 -38 -19 -43l-18 -61q-8 -16 -15 -64q-4 -28 -4 -65l-6 -242q0 -37 -4 -57q-12 -84 -53 -164q-4 -4 -4 -11q-13 -21 -47 -75q6 -2 31.5 -11.5t37.5 -15.5q88 -35 125 -47 q12 -4 47 -14q44 -11 51 -13q4 -4 60 -10q1 0 5 -1t5 -1h29q22 0 36 2t28 12.5t14 30.5q0 12 -8.5 22t-20.5 13q-17 3 -28 5.5t-27.5 9t-26.5 14t-17.5 21t-7.5 30.5q0 27 20.5 44t49.5 17q37 0 37 -26q0 -16 -10 -23h-33q-3 0 -6.5 -4t-3.5 -8q0 -16 26 -21q9 -2 17 -2 q8 -2 16 -2q40 -7 58 -29t18 -61v-14q-11 -68 -90 -78q-9 0 -21 -4l-8 -2h-47l-72 8l-84 12l-260 88l-49 -37q-6 -2 -10 -4h2q-7 -6 -17 -10l-16 -8l-65 -29l-72 -24l-49 -15l-80 -12q-16 -2 -51 -2h-31q-64 5 -113 36.5t-49 92.5zM795 193l-13 -19q-21 7 -39 16 q-2 0 -5 1.5t-5 1.5q15 25 25 67q0 6 4 14l4 13q0 11 1 34t1 35q19 54 23 88q4 20 4 62l6 242v6l8 47l25 61q0 4 2 6q2 3 16 31q41 70 98 131q54 49 166 105q13 0 19 6q73 32 151 35q33 -20 51 -50q-25 7 -51 7q-65 0 -147 -35q-48 -18 -82 -43q-106 -69 -139 -156 q-19 -38 -19 -43l-18 -61q-8 -16 -15 -64q-4 -28 -4 -65l-2 -80q-6 -9 -6 -25q0 -12 4 -24l-2 -113q0 -37 -4 -57q-12 -84 -53 -164q-4 -4 -4 -10zM250 -82q-112 13 -148 74q28 -8 64 -12h41q37 -9 69 -9h25q1 0 7 1t11 1l74 7q7 2 47 12l29 8l2 2q2 2 14 6l39 12v5 q16 4 49 26l29 12q2 1 6 4.5t6 4.5h-2l6 4q-34 9 -47 14q8 5 21.5 15.5t17.5 13.5l260 -88l76 -11l74 -8h35q42 -6 45 -6q1 0 5 -1t5 -1h29q22 0 36 2t28 12.5t14 30.5t-19 31q7 14 10 33v22q62 -17 62 -86v-14q-11 -68 -90 -78q-9 0 -21 -4l-8 -2h-47l-72 8l-84 12l-260 88 l-49 -36l-10 -5h2q-7 -6 -17 -10l-16 -8l-66 -29l-71 -24l-49 -15l-80 -12q-16 -2 -51 -2h-31zM55 129q0 -23 15 -39.5t39 -23.5t44.5 -10t41.5 -3h24q1 0 8 1t11 1l73 6q35 10 47 13l31 10q2 2 14 6l39 12v4q15 4 50 27l28 12q2 1 6 4.5t6 4.5h-2q3 2 4 2.5t1.5 0.5t1.5 1 q-38 11 -80 26q-15 5 -44.5 14.5t-43.5 14.5q-11 0 -15 2q-12 4 -14 4q-1 0 -3 1t-3 1q-6 2 -12 2q-21 0 -31 2q-1 0 -6 1t-9 1h-53q-7 0 -49 -6q-41 -8 -80 -33t-39 -59zM1460 879q0 2 1 6t1 6q21 68 21 123q0 52 -19 104q80 -68 80 -186q0 -110 -67 -223q-24 -38 -66 -86 l-27 -27q-113 -107 -272 -129q-58 -12 -125 -12q-31 0 -31 24q0 23 27 23q13 0 45 4q6 1 23 2t24 2q5 1 17 3t16 3q5 1 16.5 4t16.5 4l12 4q1 0 4 1t4 1q8 0 13 5q74 21 120 59q133 104 166 285zM279 193q10 1 31.5 3t31.5 3q15 -6 25 -6q27 -12 39 -15q7 -2 22.5 -7 t22.5 -7l-2 2q29 -14 45 -19q-1 -1 -5.5 -4.5t-5.5 -5.5l-4 13q-8 -8 -37 -19q-4 0 -6 2q-12 4 -14 4q-1 0 -3 1t-3 1q-6 2 -13 2q-20 0 -30 2q-1 0 -6 1t-9 1h-53q-7 0 -49 -6q-30 -5 -62.5 -22t-48.5 -41q-29 6 -49 18q12 24 33 45q8 6 8 8q47 33 117 43h12q2 0 6.5 1.5 t6.5 1.5zM1104 113q-18 15 -21 34q3 0 9.5 -1t9.5 -1q12 -4 12 -14q0 -11 -10 -18zM1167 223q16 -4 19 -16q-2 3 -19 16z" />
<glyph unicode="M" horiz-adv-x="1994" d="M606 16l131 652q2 24 8.5 76t8.5 75v8q0 3 1 9l1 6v51q0 84 -19 168q-20 78 -53 127q-40 50 -96.5 80t-114.5 30q-84 0 -161 -50.5t-126 -122.5t-73 -152q-35 -116 -35 -246v-31q0 -14 2 -26q4 -47 8 -64q17 -127 72.5 -229t158.5 -154q1 -1 3.5 -1t3.5 -1h-2 q20 -10 34 -14q3 -1 13 -3t12 -3l14 -4q9 -1 29 -4.5t29 -4.5q10 0 16 -8.5t6 -17.5q0 -19 -22 -25h-9q-76 0 -135 29q-76 35 -133 97t-89 139.5t-47 158.5t-15 166q0 161 47 295q50 134 157.5 230t241.5 96q92 0 182 -56q37 -23 66 -61q115 -133 115 -375v-20l-15 -174 l-108 -496q51 125 146.5 360.5t125.5 309.5l86 159q2 3 10 15.5t14.5 23.5t8.5 15q1 2 15.5 23t17.5 26q88 88 161 88q44 0 79 -35t46 -80q4 -27 4 -76v-24l-141 -795q31 77 116 286.5t128 319.5l53 103q3 6 21 30q14 17 14 21q6 6 20 29l21 26q86 86 156 86q127 0 127 -166 v-8l-11 -92l-20 -119l-107 -391q-3 -16 -9 -54t-9 -54q0 -32 -4 -56v-28q0 -11 4 -23q0 -6 2.5 -16.5t5.5 -10.5q12 0 35 15q73 44 92 139q9 12 27 12q24 0 24 -26q0 -27 -14 -52q-73 -141 -176 -141q-82 0 -82 96v13l6 88l27 149l114 451q2 16 7.5 46t7.5 46q0 19 4 43v8 q0 80 -47 80q-31 0 -66.5 -24.5t-56.5 -53.5l-6 -6q-16 -20 -27 -31q-5 -8 -22.5 -37t-24.5 -43q-14 -27 -39 -81t-39 -80q-31 -79 -94.5 -241t-93.5 -241l-41 -82q-1 -2 -10.5 -19t-10.5 -19q-46 -62 -88 -62q-31 0 -31 45q0 11 2 17q23 114 75.5 357t76.5 357q3 22 9 72 t9 72q5 25 5 71v33q-9 98 -60 98q-29 0 -74 -34l-20 -19q-4 -4 -12 -16q-5 -5 -12 -13t-11.5 -13.5t-5.5 -6.5v2q-9 -16 -28.5 -49.5t-28.5 -50.5q-19 -40 -59 -120l-60 -120q-35 -88 -107.5 -270.5t-107.5 -270.5l-39 -77q-1 0 -14 -25q-2 -2 -3.5 -4.5t-2.5 -3.5t-1 -2 q-1 -1 -1 -2t-1 -2q-18 -27 -36 -31h-23l-33 4v12zM688 -66l12 66q3 3 5.5 6.5t6 8.5t5.5 8l2 6l-4 -4l18 24l45 90q50 133 64 166l-47 -221q51 125 146.5 360.5t125.5 309.5l86 159q2 3 10 15.5t14.5 23.5t8.5 15q1 2 15.5 23t17.5 26q48 48 94 69q8 -19 12 -53 q-13 -6 -31 -20l-20 -19q-4 -4 -12 -16q-5 -5 -12 -13t-11.5 -13.5t-5.5 -6.5v2q-9 -16 -28.5 -50t-28.5 -50l-60 -120t-59 -120q-35 -88 -107.5 -270t-107.5 -270l-39 -78q-3 0 -15 -25q-6 -9 -6 -10q-1 -1 -1 -2t-1 -2q-18 -27 -37 -31h-22l-33 4v12zM1253 -14q0 8 4 20 q24 20 52 55q4 11 8 17l8 16l43 86q4 11 13.5 33.5t13.5 34.5l-27 -154q31 77 116 286.5t128 319.5l53 103q4 9 21 31q14 18 14 20q7 7 20 29l21 26q52 52 100 74q4 -12 4 -37v-4q-2 -6 -2 -16q-39 -23 -65 -60l-6 -6q-16 -20 -27 -31q-5 -9 -22.5 -37t-24.5 -42 q-14 -26 -39.5 -80.5t-38.5 -81.5q-31 -79 -94 -241t-94 -241l-41 -81q-1 -2 -10.5 -19.5t-10.5 -19.5q-46 -62 -88 -62q-31 0 -31 45q0 11 2 17zM1886 219l-12 -69q-23 -41 -57 -60q-13 -10 -17 -10q2 0 4 2t2 4q-4 12 -4 23v24q4 20 4 57q3 22 9 50q3 28 10 57v-2l106 389 l21 121l10 96v10q0 37 -6 72q67 -32 67 -154v-8l-10 -92l-20 -119zM156 940q48 130 151 225t232 101q54 -19 108 -70q-54 21 -92 21q-84 0 -161 -51t-126 -123t-73 -152q-35 -116 -35 -246v-31q0 -14 2 -26q4 -47 8 -64q13 -117 61 -209q-93 100 -122 291v39q0 161 47 295z M1405 700q1 10 4 35.5t4 40.5l35 191v28q0 57 -4 84l-2 2q47 -35 63 -92q4 -27 4 -76v-24l-34 -191q-12 -28 -49 -122t-58 -144q-4 -10 -12.5 -28.5t-12.5 -28.5l35 198q4 23 13.5 65.5t13.5 61.5zM918 754l-5 -41q-13 -32 -49 -121q-14 -32 -39.5 -95t-38.5 -94l56 254 l14 177v22q0 182 -61 301l8 -8q115 -133 115 -375v-20zM1864 -76q-66 0 -80 62q42 3 82 22l2 -4q0 -6 2.5 -16.5t5.5 -10.5q12 0 35 15q73 44 92 139q9 12 27 12q24 0 24 -26q0 -27 -14 -51q-73 -142 -176 -142zM393 84q-58 26 -108 72q3 -1 9 -4.5t9 -4.5q56 -30 143 -30 h19l14 -2q9 -1 29 -4.5t29 -4.5q10 0 16 -8.5t6 -17.5q0 -19 -22 -25h-9q-76 0 -135 29z" />
<glyph unicode="N" horiz-adv-x="1503" d="M1196 94v8q0 24 4 52v10q6 60 19 110l161 582q1 5 2 17t2 16q1 9 4.5 27.5t4.5 27.5q4 20 4 45v21q0 129 -86 129q-36 0 -78 -21t-70 -49l-10 -10q-2 -2 -4 -5t-4 -5l-8 -9v2q-8 -14 -26 -44.5t-26 -45.5q-15 -30 -47 -93.5t-47 -92.5q-102 -252 -246 -586 q-12 -33 -40 -96q-20 -30 -27 -37q-10 -14 -14.5 -20t-14.5 -12.5t-22 -6.5q-2 0 -8 1t-9 1q-8 2 -26 2l18 92l133 545q4 28 14.5 85t14.5 85q0 15 2 48t2 48q-3 114 -27 179q-5 15 -22 50.5t-19 39.5v-2q-44 55 -111.5 89t-133.5 34q-133 0 -254 -142q-66 -76 -88 -143 q0 -8 -2 -10q-1 -4 -4.5 -14.5t-4.5 -14.5q0 -23 -6 -29v2q-3 -14 -9 -42.5t-9 -41.5q-1 -14 -5 -46t-5 -46v-45l4 -90q2 -16 8 -46.5t8 -45.5q2 -10 7 -31t7 -31q0 -2 7 -16q2 -2 6 -10q14 -27 12 -29q30 -68 87.5 -127.5t121.5 -83.5l24 -8q24 -6 29 -6q3 0 11 -1t12 -1 q5 -1 17.5 -2t16.5 -2q19 -14 19 -23q0 -12 -7 -19t-16 -7q-19 0 -69 8q-1 0 -3 1t-3 1q-30 12 -60 22q-31 15 -84 52q-10 8 -30 20q-74 74 -121 197q-23 61 -23 65q-3 35 -14 84q0 13 -4 37l-6 43v94l10 103q0 13 12 55q14 78 55 168q60 102 160 182q92 62 189 62 q143 0 260 -105q10 -10 24 -31q2 -5 9.5 -13.5t9.5 -10.5q45 -66 65 -146q17 -64 17 -163v-23q0 -12 -5 -74q-4 -32 -4 -45l-53 -256l-80 -315l6 -2q7 18 160 393q33 78 113 279l71 139q-4 -4 -1 1q1 1 4 5l6 8q40 56 55 86l20 29l13 8q88 78 176 78q80 0 122 -64t42 -147 v-18q-1 -6 -3 -19.5t-3 -19.5q-5 -30 -5 -35q-9 -37 -18 -72q-10 -50 -12 -59l-135 -453q-4 -22 -12.5 -68.5t-12.5 -68.5q-1 -8 -3 -28.5t-3 -28.5v-13q0 -37 10 -47q1 0 2 1t2 1q28 4 39 15q39 28 62 61q21 33 43 98q3 17 20 17q21 0 21 -23v-8q-2 -15 -21 -59 q-29 -62 -76.5 -107t-105.5 -45h-13q-61 10 -61 94zM1223 1030q60 54 129 72q17 -17 20 -47q-72 -13 -127 -68l-10 -10q-2 -2 -4 -5t-4 -5l-8 -9v3q-8 -15 -26 -46t-26 -45l-46.5 -93t-47.5 -93q-102 -252 -246 -586q-7 -21 -41 -96q-22 -33 -26 -37q-10 -14 -14.5 -20 t-14.5 -12.5t-22 -6.5q-2 0 -8 1t-9 1q-8 2 -26 2l16 88q2 2 12 17q7 7 27 37q22 46 43 100q11 26 84 201l-72 -289l6 -2q7 18 160 393q33 78 113 279l71 139q-4 -4 -1 1q1 1 4 5l6 8q40 56 55 86l20 29zM1386 221q-6 -25 -14 -82q-19 -27 -57 -57q-5 -4 -21 -10h-2 q2 6 2 24v13q0 14 2 24q0 13 4 29q11 57 13 67q0 7 4 23l69 252l74 246q8 36 13 61v-2q3 11 18 74q0 11 4 35q0 16 2 22q0 9 4 21v18q0 53 -18 102q39 -28 59.5 -78t20.5 -106v-18q-1 -6 -3.5 -19.5t-3.5 -19.5q-4 -24 -4 -35q-9 -37 -18 -72q-10 -50 -12 -59zM532 1266h15 q63 -24 117 -74q-71 31 -127 31q-133 0 -254 -142q-66 -76 -88 -143q0 -8 -2 -10q-1 -4 -4.5 -14.5t-4.5 -14.5q0 -23 -6 -29v2q-3 -13 -9 -41.5t-9 -42.5q-1 -14 -5 -46t-5 -46v-45l4 -90q2 -15 8 -45.5t8 -46.5q2 -10 7 -30.5t7 -30.5q0 -5 6 -17q4 -4 7 -10 q14 -27 12 -29q1 -3 4 -9t4 -9q-47 50 -72 108l-4 -22q-2 35 -8 49l2 -2q-4 6 -10 18q-1 6 -4 18.5t-4 18.5q0 13 -4 37l-7 43v94l11 103q0 13 12 55q14 78 55 168q60 102 160 182q92 62 188 62zM918 750q-70 -172 -76 -185q-6 -15 -17.5 -43t-17.5 -43q-17 -34 -27 -59 l37 147q2 21 10 60.5t9 46.5l12 59q0 13 4 41q4 62 4 82v23q0 109 -16 170v-2q-12 55 -43 108q5 -5 20 -25q2 -5 9.5 -13.5t9.5 -10.5q46 -66 65 -145q17 -64 17 -164v-47zM1339 -82q-48 8 -59 62q35 3 76 24q0 -27 10 -37q1 0 2 1t2 1q28 4 39 15q37 27 61 61q21 33 43 98 q3 17 21 17q20 0 20 -23v-8q-2 -18 -20 -59q-29 -62 -76.5 -107t-105.5 -45h-13zM274 176q-4 2 -8 6q14 -7 29 -12l20 -7.5t26 -10.5l21 -9q5 -2 7 -2q46 -8 71 -8h2q24 -6 29 -6q3 0 11 -1t12 -1q5 -1 17.5 -2t16.5 -2q19 -14 19 -23q0 -12 -7 -19t-16 -7q-19 0 -69 8 q-1 0 -3 1t-3 1q-30 12 -60 22q-31 15 -84 52q-7 6 -31 20z" />
<glyph unicode="O" horiz-adv-x="1210" d="M47 279q-20 60 -29 127l-2 18v29q0 102 37 200q0 3 8 19l7 14q0 1 1 3t1 3l26 49q5 8 15.5 24.5t19.5 31t14 24.5l60 70l51 49l49 43l60 43q15 10 26 10q18 6 23 11l20 10q1 0 3 1t3 1q30 13 54 16q6 0 10 2q2 0 6 4q34 34 97.5 69t123.5 58q43 13 105 13h36 q53 -6 103 -29q60 -32 100 -72l17 -16q96 -129 96 -334v-29l-8 -71q0 -7 -4 -19l-13 -61q-2 -4 -3.5 -9.5t-2.5 -9t-2 -4.5h2q-5 -13 -15.5 -39t-15.5 -39q-15 -35 -22 -49q-5 -10 -13 -30l-10 -25l-51 -74l-45 -57l-39 -41l-57 -57q-7 -7 -35 -27q-8 -8 -16 -12 q-2 -1 -8.5 -5.5t-8.5 -5.5q-21 -12 -39 -18q-5 -2 -14 -8l-12 -8q-5 -3 -29 -15l-53 -20l-64 -21q-15 -4 -45 -8q-2 0 -6.5 -1t-7.5 -1q-42 -6 -49 -6h-29q-107 0 -201 40.5t-159 117.5q-31 39 -66 121zM104 451q0 -91 27 -160q42 -114 136.5 -176t219.5 -62q28 0 74 4 q81 15 150 52q4 0 23.5 10t25.5 14l49 29h-2q2 1 11.5 8t15.5 12q4 3 13 10.5t13 10.5l51 51l50 55q2 3 8 10.5t8 10.5q5 6 16 20.5t17 20.5q2 4 8.5 15t9.5 17q16 24 16 29q7 7 23 47q11 22 20 49q11 28 11 47l10 68q0 11 4 39q1 6 2 19.5t2 19.5v70q0 2 -1 7.5t-1 8.5 l-4 29q-1 12 -4 34t-4 33q0 13 -4 25q-4 4 -4 12q-10 15 -15 39q-40 80 -107.5 134t-148.5 54q-71 0 -147 -34q-1 0 -3 -1.5t-3 -1.5q-3 -2 -13 -8t-24 -14l-31 -21q33 0 45 -4q19 -3 19 -20q0 -27 -25 -27h-33q-2 0 -6 1t-6 1h-31q-10 0 -30 -10q-5 -5 -5 -6q-1 -1 -3 -4 t-3 -4q-21 -25 -24 -33q-25 -41 -43 -76l-6 -12l-5 -10q-20 -72 -20 -127q0 -50 16.5 -99.5t54.5 -87t89 -37.5q54 0 98.5 47.5t69.5 112.5q0 5 4 13q4 12 4 16l8 53q3 21 27 21q10 0 19 -7.5t9 -21.5q-5 -50 -23 -98.5t-47 -90.5t-73.5 -68t-97.5 -26q-50 0 -92 25.5 t-67 66.5t-38.5 88t-13.5 93q0 128 78 254q-3 -1 -13 -6q-85 -42 -164 -121l-30 -39l-6 -6h-2l-6 -10q-7 -9 -11 -15t-14 -16q-3 -8 -9.5 -18.5t-7.5 -12.5q-3 -5 -16 -31q-8 -18 -14 -28l-6 -15q-2 0 -2 -6q-22 -60 -29 -104q-8 -48 -12 -56q0 -4 -1.5 -15t-1.5 -15 q-2 -12 -2 -31v-14zM555 -82q-192 0 -324 117q107 -55 242 -55h8q65 -9 88 -9q28 0 74 4q81 15 150 52q4 0 23.5 10t25.5 14l49 29h-2q16 12 26 20q4 3 13.5 10.5t13.5 10.5l51 51l49 55q2 3 8 10t9 11q5 6 16 20.5t17 20.5q2 3 8.5 14.5t9.5 18.5q16 24 16 28q7 7 23 47 q11 22 20 49q11 27 11 48l10 67q0 11 4 39q1 6 2 19.5t2 19.5v20q0 7 2 9l8 71v31q0 161 -57 272q1 -1 3 -2t3 -2l17 -16q96 -129 96 -334v-29l-8 -71q0 -4 -5 -19l-12 -61q-2 -4 -3.5 -9.5t-2.5 -9t-2 -4.5h2q-5 -12 -15.5 -38.5t-15.5 -38.5q-18 -42 -22 -50 q-5 -10 -13 -30l-10 -25l-51 -74l-45 -57l-39 -41l-57 -57q-7 -7 -35 -27q-8 -8 -16 -12q-2 -1 -8.5 -5t-8.5 -5q-25 -14 -39 -19q-5 -2 -14 -8l-12 -8q-5 -3 -29 -15l-53 -20l-64 -21q-15 -4 -45 -8q-2 0 -6.5 -1t-7.5 -1q-42 -6 -49 -6h-29zM813 1126q37 11 70 11 q61 -18 110 -70q-41 18 -88 18q-71 0 -147 -34q-1 0 -3 -1t-3 -1q-3 -1 -13 -8t-24 -15l-31 -20q30 0 45 -5q19 -3 19 -20q0 -27 -25 -27h-33q-2 0 -6 1t-6 1h-31q-11 0 -31 -10q-4 -4 -4 -6q-1 -1 -3 -4t-3 -4q-21 -25 -24 -33q-25 -41 -43 -76q-2 -2 -7 -12q-4 -8 -4 -10 q-20 -72 -20 -127q0 -54 18 -103q-54 36 -71 117q3 121 77 240q-4 -1 -8 -4q-3 -1 -4 -2l-43 -25q20 42 41 76q0 2 2 2q0 2 2 2q31 13 53 16q7 0 11 2q2 0 6 4q14 14 18 17h31q45 0 45 47v4q53 33 127 59zM125 451v14q0 15 2 27v18q0 1 1 5t1 5q3 7 12 58v10q2 0 2 2l7 14 q0 1 1 3t1 3l26 49q5 8 15.5 24.5t19.5 31t14 24.5l60 70l51 49l35 31q-17 -67 -19 -92q-2 -2 -7 -8t-11.5 -15t-9.5 -12l-7 -6h-2q-10 -15 -16 -25q-4 -6 -14 -16q-3 -8 -9.5 -18.5t-7.5 -12.5q-3 -5 -16 -31q-8 -18 -14 -28l-7 -15q-2 0 -2 -6q-20 -55 -28 -104 q-7 -45 -13 -56q0 -4 -1 -15t-1 -15q-2 -12 -2 -31v-14q0 -91 27 -160q2 -6 7 -18.5t7 -18.5q-51 54 -77 125q-25 65 -25 154zM666 401q-84 0 -144 70q24 -8 62 -8q18 0 26 2q22 -14 58 -14q54 0 98.5 47t69.5 112q0 5 4 13q4 12 4 16l8 53q3 21 27 21q10 0 19 -7.5t9 -21.5 q-5 -50 -23 -98.5t-47 -90.5t-73.5 -68t-97.5 -26z" />
<glyph unicode="P" horiz-adv-x="1351" d="M14 287q0 128 131 215l45 16q24 8 39 14q1 0 31 9l19 4q-31 74 -31 147q0 121 69.5 222.5t178.5 170.5q6 0 10 2q0 2 16 13q4 2 17.5 9t17.5 9h-2q3 3 18 8q1 0 6 2.5l9 4.5l30 12l78 29l74 20l80 12l4 1q4 1 8 1q12 2 37 2h64q15 0 47 -4q10 -2 18 -2l55 -10 q10 0 45 -14q57 -21 99 -50q52 -38 81 -97t29 -128q0 -78 -30 -160q-1 -9 -11.5 -28.5t-15.5 -22.5v2q-97 -182 -236 -182q-38 0 -69 10q-1 0 -3 1t-3 1q-31 8 -31 29q0 27 29 27q46 -17 80 -17q77 0 159 105q66 84 66 194q0 76 -37 146v-2q-47 77 -135 116t-187 39h-18 q-3 0 -9 -1t-9 -1q-11 0 -15 -2h-16l2 -2q-31 0 -49 -6l-76 -21q-16 -6 -80 -28q-8 -4 -20 -8q-14 -7 -17 -7q-18 -6 -22 -10h2l-13 -4h2q-6 -4 -12 -6h2q-20 -12 -26 -14q-45 -33 -50 -37q-9 -9 -18 -15h2q-2 -2 -7 -6t-7 -6l-33 -33q-16 -16 -18 -20q-48 -54 -77.5 -119.5 t-29.5 -130.5v-29q0 -2 1 -5t1 -5v-8q4 -16 4 -29q0 -12 8 -28l4 -7v3q1 -1 2.5 -4.5t2.5 -4.5q0 -9 10 -14h10q2 0 7 1t7 1q36 4 68 4l76 -4q5 0 53 -8q71 -13 141 -47q13 -9 13 -27q0 -26 -19 -26q-10 0 -12 2q-12 11 -37 20q-42 23 -119 31q-39 10 -98 10h-41l-25 -6 q0 -2 4 -2q0 -1 5 -6q81 -96 219 -113q18 -5 18 -25t-26 -20q-86 6 -160 48.5t-121 113.5q-94 -26 -164 -81.5t-70 -135.5q0 -68 46 -125.5t114 -79.5q9 -4 23 -8l14 -4q1 0 11 -3t16 -4q16 -4 28 -4q31 -4 43 -4q10 -2 35 -2q86 0 162 33q47 19 74 35q81 55 135 155 q8 8 12 21q2 3 6 14.5t6 14.5q10 24 19 38q46 184 55 222q11 45 32 128.5t24 94.5l22 67l43 91q4 14 18 36q46 66 82 91q14 14 29 14q23 0 23 -23q0 -9 -7 -16q-60 -50 -90 -102q-6 -6 -6 -13l-18 -41q-11 -33 -15 -47q-10 -40 -12 -47q-7 -30 -18.5 -93t-16.5 -87 q-22 -114 -34 -180q0 -1 -5 -21q-4 -20 -6 -28l-6 -23q-37 -101 -88 -170q-16 -20 -33 -37l-22 -22q-4 -4 -12 -11t-11 -10q-2 -2 -19 -17t-20 -18q-40 -24 -102 -53q-100 -47 -203 -47h-29q-69 5 -151 31q-86 29 -141.5 97.5t-55.5 158.5zM293 -51q-71 24 -121 74 q17 -10 33 -13q78 -24 155 -30h9q20 -5 28 -5q31 -4 43 -4q10 -2 35 -2q86 0 162 33q47 19 74 35q80 55 135 156q8 8 12 20q2 3 6 14.5t6 14.5q10 26 19 39q2 7 5 21.5t5 21.5q15 15 29 79q1 4 6 29q4 12 4 25q2 20 10 55q12 -6 17 -6h4q27 -12 53 -12q-22 -112 -23 -119 q0 -5 -4 -21q-4 -20 -6 -28l-6 -23q-37 -101 -88 -170q-16 -20 -33 -37l-22 -22q-4 -4 -12 -11t-11 -10q-2 -2 -19 -17t-20 -18q-40 -24 -102 -53q-100 -47 -203 -47h-29q-69 5 -151 31zM1071 1108q-18 -12 -35 -29q-7 0 -20.5 1t-20.5 1h-18q-3 0 -9.5 -1t-9.5 -1 q-10 0 -14 -2h-16l2 -2q-31 0 -49 -6l-76 -20q-55 -20 -80 -29q-8 -4 -20 -8q-12 -6 -17 -6q-16 -6 -22 -11h2l-13 -4h2q-6 -4 -12 -6h2q-20 -12 -26 -14q-45 -33 -50 -37q-6 -6 -18 -14h2q-2 -2 -7 -6.5t-7 -6.5l-33 -33q-18 -18 -19 -20q-48 -53 -77 -119t-29 -131v-24 q-5 0 -15 -1t-12 -1q-1 0 -3 -1.5t-3 -1.5h-8q-2 4 -2 9q-6 6 -10 18v8q0 121 69.5 223t178.5 171q6 0 10 2q0 1 16 12q4 2 17.5 9t17.5 9h-2q3 3 18 8q1 0 6 2.5l9 4.5l30 12l78 29l74 20l80 12l4 1q4 1 8 1q12 2 37 2h43q25 -6 51 -16zM1354 782q0 17 -4 45q8 36 8 78 q0 61 -27 123q88 -82 88 -205q0 -77 -30 -159q-1 -9 -11.5 -29t-15.5 -23v2q-97 -182 -236 -182q-38 0 -69 10q-1 0 -3 1t-3 1q-31 8 -31 29q0 12 6 21h35q42 -11 67 -11q78 0 160 105q66 84 66 194zM1069 735q-6 -28 -16.5 -83.5t-12.5 -65.5q-31 0 -71 16l30 123l23 68 l43 90q4 16 18 37q45 64 82 90q14 14 29 14h2q3 -3 21 -27q-2 -7 -7 -12q-60 -50 -90 -102q-6 -6 -6 -13l-18 -41q-11 -33 -15 -47q-10 -40 -12 -47zM145 203q0 -29 11 -66q-43 36 -60 84q8 117 131 199l45 16q27 9 37 13q18 -21 39 -39q-85 -29 -144 -81.5t-59 -125.5z M659 258q-132 9 -227 98q74 -34 143 -37h15q42 -13 78 -16q18 -5 18 -24q0 -21 -27 -21zM1180 1042q-18 9 -33 15q2 2 6 10q4 -4 13.5 -12.5t13.5 -12.5zM406 487v-4q-1 1 -3 2.5t-3.5 3t-2.5 3.5h6q0 -5 3 -5z" />
<glyph unicode="Q" horiz-adv-x="1214" d="M682 -203l-344 127q-25 -21 -39 -39q-79 -63 -180 -63q-38 0 -70.5 20t-32.5 58q0 42 36.5 68.5t82.5 35.5q25 4 74 4h31q14 0 22 -2q24 -4 35 -4l12 -4q8 -4 10 -4l9 8q1 1 20 33q-105 34 -145 65q-29 21 -62 58q-2 2 -8 9.5t-11 15t-9 12.5q-10 10 -17 24q0 9 -6 21 q-53 95 -53 223q0 186 106 350q140 186 314 248q15 0 43 14q18 0 22 4q74 68 149.5 103t168.5 35q73 0 132.5 -25.5t99 -68t67 -100t39.5 -120t12 -129.5v-29l-8 -75q0 -16 -11 -54q-3 -18 -16 -57l-27 -80l-38 -88l-50 -69l-57 -74l-65 -62v2q-5 -10 -48 -47q0 -1 -4 -4 l-8 -6l-29 -22q-41 -27 -61 -33q-125 -66 -250 -66q-48 0 -121 13q-12 -21 -20 -41q41 -13 129 -41.5t129 -40.5l41 -13q6 -1 18.5 -4t18.5 -4q9 -3 39 -8q18 -2 28 -4q16 -4 21 -4h39q128 0 188 117h19l-3 -3q-4 -20 -4 -26q-23 -65 -67.5 -111t-104.5 -59q-18 -4 -59 -4 h-18q-30 0 -54 6q-20 4 -28 6q-12 3 -27 8zM444 102q-3 -4 -6 -10t-6 -13t-4 -9l27 -4q2 0 6 -1.5t6 -1.5h14q1 0 8 -1t13 -1h14q139 0 295 101q10 10 14 12q30 24 35 29q3 3 11 11.5t12 12.5q13 13 22 25l49 57q4 4 4 6q30 39 46 52v-2q2 4 11 21t15 26v-2l11 18 q11 19 16 29q0 4 2 8l6 14q0 4 4 8v-2q2 4 12 29l6 16q4 24 9 39q1 6 4 19.5t4 19.5q0 6 2 10q0 2 1 5.5t1 5.5t1 7t1 7q4 16 4 21q0 20 2 32q0 27 4 35v27q0 60 -12 127q-15 96 -71.5 175.5t-143.5 96.5q-34 6 -62 6q-112 0 -215 -73q37 0 66 -5q20 -5 20 -22 q0 -25 -24 -25q-2 0 -7 1t-7 1h-33q-7 0 -28.5 -1t-22.5 -1q-2 0 -6.5 -1t-6.5 -1q-12 -6 -18 -6l-19 -24q-13 -17 -26 -39q-62 -97 -62 -205q0 -40 9 -80q19 -57 59.5 -95t97.5 -38q42 0 81 32t61 78q16 43 22 99v10q0 3 1 9.5t1 10.5q0 25 27 25q8 0 16 -5.5t8 -14.5v-15 q0 -49 -14 -92q0 -1 -1 -4t-1 -4q-10 -37 -23 -57v2q-28 -56 -75.5 -89.5t-102.5 -33.5q-67 0 -120.5 39.5t-77.5 103.5q-21 62 -21 119q0 126 76 246q-8 -4 -12 -4q-154 -75 -230 -185q-8 -8 -8 -10l-20 -37q-76 -145 -76 -280q0 -139 69 -259q58 -110 156 -143l29 -10 q4 7 15 25.5t15 25.5q2 4 12 20t13 23q1 1 3 5t5.5 10t5.5 10q3 6 7 10v-2q1 3 7 9t9 7h-2q2 4 6 6q54 54 135 70h14q7 1 16 -8.5t9 -18.5q0 -21 -20 -24q-95 -13 -144 -94q-10 -10 -20 -15h4zM850 -6q-123 -63 -244 -66q-16 5 -47.5 15.5l-46.5 15.5q-19 5 -55 18.5 t-51 18.5q2 4 2 8q27 -3 61 -8t41 -6v-2l27 -4q2 0 6 -1t6 -1h14q1 0 8 -1t13 -1h14q141 0 295 100q10 10 14 12q30 24 35 29q3 3 11 11.5t12 12.5q13 13 22 25l49 57q4 4 4 6q32 41 45 52v-2q25 44 27 47v-2l11 18q11 19 16 29q0 4 2 8l6 14q0 5 4 9v-3q2 4 12 29l6 17 q4 22 9 38q1 6 4 19.5t4 19.5q0 7 2 11q0 2 1 5t1 5t1 7t1 7q4 16 4 21q0 20 2 32q0 27 4 35v19l8 75v31q0 152 -57 266q59 -62 89 -154.5t30 -193.5v-28l-8 -76q0 -14 -11 -53q-3 -20 -16 -58l-27 -80l-39 -88l-49 -69l-57 -74l-66 -62v2q-1 -3 -19 -20.5t-28 -26.5l-4 -3 q-4 -3 -8 -7l-29 -22q-41 -27 -61 -33zM676 -221q2 -1 8 -3t11.5 -4t9.5 -3l28 -7q36 -6 58 -6h18q45 0 63 4q30 10 52 21q126 3 186 117h18l-2 -2q-4 -21 -4 -27q-23 -65 -67.5 -111t-104.5 -59q-18 -4 -59 -4h-19q-29 0 -53 6q-20 4 -28 6q-12 3 -27 8l-344 127 q-25 -21 -39 -39q-79 -63 -180 -63q-34 0 -64 16t-37 47q6 -2 19 -2q25 0 37 2q15 -12 43 -12q41 0 83.5 18t73.5 48q-27 5 -32 8q-2 1 -7.5 2t-7.5 2q2 2 4 2q7 10 31 31zM719 1083q85 47 178 52q47 -15 96 -64q-3 1 -9 2t-9 2q-35 6 -62 6q-112 0 -215 -73q43 0 66 -4 q20 -5 20 -23q0 -25 -24 -25q-2 0 -7.5 1t-7.5 1h-32q-7 0 -28.5 -1t-22.5 -1q-2 0 -6.5 -1t-6.5 -1q-12 -6 -18 -6l-19 -24q-13 -17 -26 -39q-62 -97 -62 -205q0 -44 8 -80q0 -5 3 -8q-44 33 -64 90q0 124 76 244q-8 -4 -12 -4q-18 -9 -46 -25q13 31 31 59q0 4 17 21 q0 2 2 2q15 0 43 14q18 0 22 4t12.5 11.5t12.5 11.5h35q1 0 3 -1t3 -1h8q45 0 45 45q0 8 -4 20zM225 731q74 100 166 168q-16 -59 -20 -86q-40 -36 -66 -76q-8 -8 -8 -10l-21 -37q-75 -143 -75 -280q0 -136 61 -246q-28 28 -55 80q-68 120 -68 248q0 41 4 61q25 89 82 178z M690 418q-96 0 -160 74q41 -13 78 -13h21q27 -12 61 -12q42 0 80.5 32.5t60.5 78.5q17 47 23 98v10q0 3 1 10t1 11q0 24 27 24q8 0 16 -5.5t8 -14.5v-15q0 -49 -14 -92q0 -1 -1 -4t-1 -4q-10 -37 -23 -57v2q-28 -56 -75.5 -89.5t-102.5 -33.5zM705 166q-87 -13 -136 -80 q-32 -4 -53 -4h-12q2 2 6 10q1 1 3 5t5.5 10t5.5 10q4 8 6 10v-2q5 10 17 16h-2q2 4 6 6q54 54 135 70h14q7 1 16 -8.5t9 -18.5q0 -21 -20 -24zM68 -98q0 -15 16 -22t33 -7q41 0 83.5 18t73.5 48q-27 5 -32 8q-6 1 -19.5 4t-19.5 4h-8q-38 0 -50 -2q-26 -4 -51.5 -18 t-25.5 -33zM276 25q-18 12 -30 24q29 -14 69 -24q0 -1 -1 -3.5t-1 -3.5l-16 5q-13 0 -21 2zM150 -102q29 17 63 24q-17 -10 -63 -24z" />
<glyph unicode="R" horiz-adv-x="1402" d="M14 260q0 85 45.5 154.5t124.5 111.5l29 15q4 0 10 6q7 0 15 4l22 10q-10 48 -10 90q0 114 57 228l12 20l15 25l37 45q12 16 24 28l39 39l58 41l65 39l68 33q27 9 49 20q51 22 108 31q66 14 146 14q98 0 176 -22q221 -69 221 -256q0 -66 -27 -125q-30 -52 -86.5 -93 t-119.5 -65q-1 -1 -8 -3t-9 -3t-7 -2t-7 -2l-19 -6q-29 -7 -51 -10l-49 -9l-6 -2h2l-4 -4q14 -5 33.5 -14.5t23.5 -13.5h-2q61 -29 96 -117q9 -27 9 -31q7 -30 21.5 -93t21.5 -93q2 -4 4 -10q3 -8 10 -35q0 -6 6 -12l6 -7q0 -8 8 -24v2q1 -1 2.5 -3t2.5 -3l4 -8v2 q32 -58 69 -58q40 0 68 62q0 1 1 3t1 3l6 12q12 29 27 29q26 0 26 -29q0 -20 -10 -33v2l-6 -12q-21 -39 -58.5 -68.5t-78.5 -29.5t-73 33t-52 75q0 7 -15 45q-2 6 -6.5 20t-5.5 17q-8 23 -10 37q-6 30 -19.5 91t-19.5 91q-12 31 -14 41q-19 45 -62 64q-4 4 -22 15t-23 13 q-22 15 -22 41q0 14 12.5 26t28.5 17l18 9l147 34q5 1 9 3q1 0 3 1t3 1q16 4 20 4v2q61 25 98 79.5t37 120.5q0 54 -30 119v-2q-41 69 -124.5 102t-176.5 33h-17q-16 -4 -35 -4q-10 -2 -34 -2q-6 -1 -18.5 -4t-18.5 -4l-37 -6q-22 -6 -47 -17q-4 -1 -19 -6q-5 -2 -16 -6 t-16 -6q-30 -10 -33 -10q-50 -25 -66 -29h2q-10 -6 -26 -18q-4 -3 -11.5 -8.5t-11.5 -8.5q-12 -6 -16 -10q-22 -16 -29 -27q-81 -70 -128.5 -161.5t-47.5 -188.5v-16q0 -19 4 -27q0 -14 2 -18l2 -13q57 13 107 13q90 0 205 -49q1 0 3 -2t3 -2q3 0 8 -5h-2q16 -8 24 -8 q11 -7 11 -20q0 -25 -33 -25q-114 60 -221 60q-47 0 -90 -11q39 -59 111 -105.5t143 -60.5q8 -1 14 -8t6 -12q0 -27 -29 -27l-59 15q-4 2 -10 4q-22 9 -35 12q-6 0 -23 10h2q-119 49 -170 160q-22 -10 -32 -14q-77 -37 -128 -100t-51 -140q0 -81 50.5 -134t132.5 -69 q30 -6 67 -6q71 0 152.5 29.5t140.5 75.5q52 52 72 90q10 15 27 49q6 43 14 51q3 9 8.5 30.5t7.5 29.5q1 5 4 15t4 15q28 147 33 172q5 31 17 89.5t16 82.5l18 72l25 66q10 18 20 34q1 1 2.5 3t2.5 3v-2q49 96 114 138q7 5 23 13.5t20 10.5q3 2 7 3t8 3l32 11 q-20 -31 -22 -33l-10 -8v2l-7 -13q-31 -28 -65 -67q-21 -21 -35 -49q-16 -27 -16 -35l-21 -53l-12 -54q-6 -25 -10 -51q-3 -24 -10.5 -71t-10.5 -70q-12 -94 -18 -139l-17 -78q0 -1 -4 -13.5t-8 -24.5t-6 -16q0 -1 -4.5 -7.5t-5.5 -10.5q-1 -2 -3 -7t-3 -7q-9 -9 -9 -15 q-8 -12 -8 -18q-3 -4 -9 -15.5t-11 -20.5t-8 -13l-37 -53v2l-9 -21q-1 -1 -2 -3t-2 -3q-12 -16 -16 -20q-135 -132 -336 -150h-41q-124 0 -207.5 69.5t-83.5 190.5zM387 -82q-148 0 -229 90q67 -28 147 -28h2q3 -1 10.5 -2.5t10.5 -2.5q30 -6 67 -6q71 0 152.5 29.5 t140.5 75.5q52 52 72 90q6 9 26 49q6 42 15 51q3 9 8.5 30.5t7.5 29.5q0 3 1 6.5t2.5 8l2.5 7.5l6 12q14 48 19 56l16 75q2 14 5 41.5t5 40.5q2 -2 17 -12q5 -2 23 -13.5t22 -15.5l4 -4q-2 -21 -7 -59t-7 -55l-17 -78q-16 -48 -18 -53l-5 -7q-4 -8 -5 -12l-7 -14 q-8 -8 -8 -15q-8 -12 -8 -18q-8 -14 -29 -49l-36 -53v2l-9 -21q-1 -1 -2 -3t-2 -3q-12 -16 -16 -20q-135 -132 -336 -150h-41zM559 918q-73 -63 -119 -144t-55 -168q-8 0 -17 -1t-19.5 -2.5t-16.5 -2.5q10 107 57 197l12 20l15 25l37 45q12 16 24 28l39 39l57 41l66 39 l68 33q27 9 49 20q51 22 108 31q70 15 146 15h8l-8 -5q-20 -15 -29 -18q-27 -19 -43 -33h-16q-6 -1 -18.5 -4t-18.5 -4l-37 -6q-29 -8 -47 -16q-5 -1 -11 -3.5t-8 -3.5q-5 -2 -16 -6t-16 -6q-30 -10 -33 -10q-52 -26 -64 -29q-10 -6 -26 -18q-4 -3 -11.5 -8.5t-11.5 -8.5 q-12 -6 -16 -10q-23 -18 -29 -26zM1339 831q0 23 -2 33q9 38 9 72q0 49 -17 98q78 -71 78 -180q0 -67 -27 -125q-30 -52 -86.5 -93t-119.5 -65q-1 -1 -8 -3t-9 -3t-7 -2t-7 -2l-19 -6q-29 -7 -51 -10l-6 -2q-21 29 -43 43l145 35q5 0 9 2q1 0 3 1t3 1q16 4 20 4v2 q61 25 98 79.5t37 120.5zM893 698q0 7 4 23l12 49l25 66q10 18 20 34q1 1 2 3.5t2 3.5v-3q48 95 115 138q7 5 23 13.5t20 10.5q3 2 6.5 3t7.5 3l33 11q-20 -31 -22 -33l-11 -8v2l-6 -13q-31 -28 -65 -67q-21 -21 -35 -49q-16 -27 -16 -35l-21 -53q-1 -6 -3.5 -17.5 t-4.5 -20.5t-4 -16q-7 -28 -10 -49l-29 -6l-21 -10v2q-20 -8 -28 -14q4 20 6 32zM145 178q0 -20 9 -61q-40 30 -58 76q3 80 48 145t122 106l25 13q13 -24 28 -41q-75 -38 -124.5 -100.5t-49.5 -137.5zM1307 -49q-50 0 -99 61h17q35 0 67 19q19 -19 39 -19q40 0 68 62 q0 1 1 3t1 3l6 12q12 29 27 29q26 0 26 -29q0 -20 -10 -33v2l-6 -12q-21 -39 -58.5 -68.5t-78.5 -29.5zM496 455q-33 0 -68 -6q-43 29 -70 63q4 0 14 1t15 1q0 -6 2 -8l2 -12q53 12 107 12h4q63 -15 127 -49q30 0 45 12q8 -4 28 -12q1 0 3.5 -2t3.5 -2q4 0 8 -4h-2 q5 -5 8 -5v-4l2 2l-2 -11v1q-8 -16 -8 -22q-1 -2 -2 -6.5t-2 -6.5q-113 58 -215 58zM1233 123v-4q-23 19 -35 43l2 -10l-4 14l-4 4q-8 12 -8 25l-13 12v2q-5 21 -12 39v-2l-4 12l2 -2q-18 71 -22 90q-6 23 -21 94q0 3 -12 39q-2 2 -2 6q39 -30 67 -100q9 -27 9 -31 q7 -31 21.5 -93.5t21.5 -92.5q2 -4 4 -10q3 -8 10 -35zM526 272q-65 24 -108 70q8 -4 14 -6q14 -12 29 -12q9 -2 31 -11l14 -6l59 -14q21 0 29 4q30 -12 65 -18l13 -7q-5 -10 -13 -18q-1 -2 -6 -10t-8 -13l-53 15q-4 2 -10 4q-22 9 -35 12q-6 0 -23 10h2zM1186 1049 q-58 24 -121 30v2l8 6q7 7 19 25q63 -27 94 -63z" />
<glyph unicode="S" horiz-adv-x="995" d="M406 692q64 0 124.5 -22.5t104 -72t43.5 -116.5q0 -92 -77 -157.5t-171 -65.5q-107 0 -164 86q-16 16 -16 37q0 9 7 18t17 9q18 0 29 -33v2q19 -29 54 -48.5t71 -19.5q75 0 137 49.5t62 120.5q0 51 -33.5 88t-80 52.5t-97.5 15.5q-84 0 -167 -37.5t-139.5 -108 t-56.5 -153.5q0 -86 56 -150.5t143 -101.5q75 -33 178 -33q147 0 262 92q32 22 82 76q72 80 96 199q11 64 11 117v16l-13 252v59q0 4 1 12.5t1 12.5v16l15 86q0 9 12 39q31 81 105 142t155 61q83 0 129 -62q19 -29 19 -49q0 -26 -19 -40.5t-43 -14.5q-45 0 -45 39q0 8 21 22 q8 0 16 4q6 3 12 9l-4 4q-30 37 -88 37t-116 -42t-85 -98l-6 -18q0 -1 -1 -3t-1 -3q0 -6 -2 -8q0 -1 -1 -2t-1 -2q-6 -40 -6 -80v-11q8 -111 14 -170q2 -29 7.5 -86.5t7.5 -83.5v-92q0 -4 -1 -11.5t-1 -10.5v-8q-16 -126 -84 -209q-5 -5 -17 -21t-14 -18l-51 -49l-54 -45 l-41 -29q-4 -1 -22 -12.5t-21 -14.5q-89 -42 -184 -51h-8q-1 0 -5 -1t-7 -1h-25q-171 0 -311 100q-3 0 -6 6q-11 4 -11 9q-69 62 -88 137v-2q-2 2 -2 10q0 1 -1 4.5t-1 5.5q-4 12 -4 23q0 1 -1 4t-1 4v51q0 6 2 10q19 94 83 172.5t153 118.5q15 5 39 17q75 22 125 22z M184 33q-4 2 -12 10q104 -55 227 -61q60 -13 113 -13q147 0 262 92q32 22 82 76q66 75 92 178q27 68 35 134v20q0 2 1 6t1 6v92q-1 12 -3 41t-3 41q-1 16 -4 45.5t-4 44.5q-2 17 -6.5 57t-6.5 62l9 43q0 9 12 39q27 72 90.5 129.5t136.5 69.5h2q-30 -20 -30 -41v-17 q-44 -17 -82.5 -53t-59.5 -76l-6 -18q0 -1 -1 -3t-1 -3q0 -6 -2 -8q0 -1 -1 -2t-1 -2q-6 -40 -6 -80v-11q8 -108 14 -169q2 -29 7.5 -86.5t7.5 -83.5v-93q0 -4 -1.5 -11.5t-1.5 -10.5v-8q-16 -128 -83 -209q-5 -5 -17 -21t-14 -18l-51 -49l-54 -45l-41 -29q-4 -1 -22 -12.5 t-21 -14.5q-89 -42 -184 -51h-8q-1 0 -5 -1t-7 -1h-25q-171 0 -311 100q-3 0 -6 7q-11 4 -11 8zM362 588q56 17 103 22q91 -19 125 -71q-43 14 -92 14q-84 0 -167 -37.5t-139.5 -108t-56.5 -153.5q0 -40 17 -86q-49 42 -66 96v6q0 7 2 11q18 94 82.5 172t153.5 118 q12 4 38 17zM709 397q0 32 -13 58q0 4 1 12.5t1 13.5q0 32 -10 62q72 -59 72 -144q0 -92 -77 -157.5t-171 -65.5q-100 0 -156 72q38 -10 74 -10h25q29 -11 55 -11q75 0 137 49.5t62 120.5zM1325 1061q-2 2 -7 6t-7 6q14 21 14 47v6q21 -13 43 -39q18 -27 18 -49 q0 -26 -18.5 -40.5t-42.5 -14.5q-45 0 -45 39q0 9 20 22q7 0 17 5q8 4 12 8z" />
<glyph unicode="T" horiz-adv-x="940" d="M16 254q0 75 40 140.5t104 107.5v-2l8 8q9 6 18 6q13 3 35 21q4 0 6 2q-18 29 -32 69q-27 69 -27 139q0 161 121 306l37 34q10 6 39 35l59 39l53 31q3 2 16.5 8.5t18.5 9.5q53 21 104 27h13q1 0 5 1t7 1h45l66 -8l209 -55q20 -5 53 -5q58 0 116 25h-2q2 2 16.5 8.5 t20.5 7.5q14 7 25 7q21 0 33 -14t12 -36q0 -33 -29 -51q-3 -2 -7 -4.5t-11.5 -7t-13.5 -8.5q-21 -14 -54 -29h2q-4 -4 -12 -8l-10 -10q-2 -2 -10 -7l-9 -6q-74 -61 -106 -129q-2 -6 -6 -22q-3 -12 -8 -17h2q-2 -12 -8.5 -36.5t-8.5 -36.5l-31 -295q0 -3 -4 -23q-1 -4 -3 -14 t-3 -14q0 -5 -4 -13q-4 -12 -4 -18q-16 -44 -20 -51l-25 -50l-41 -65l-45 -59q-23 -28 -41 -43q-6 -4 -23 -21q-4 -4 -12 -10t-10 -8q-139 -111 -322 -111q-58 0 -116 15.5t-109.5 45t-84 80t-32.5 113.5zM68 254q0 -41 19 -75.5t49 -57t69.5 -38.5t79 -23t77.5 -7 q124 0 220 51q128 74 182 195q1 1 2 5t2 5q0 7 8 15l6 16l27 82q20 109 33 176q6 33 17 94t15 84l25 84h4v10q9 31 17 39v-2q49 111 124 168q7 3 25 17l23 16q5 3 43 25q3 2 13 8.5t17 9.5q-46 -17 -84 -27q-74 -12 -112 -12q-27 0 -39 2q-30 6 -47 6l-178 37q-11 0 -31 4 q-4 1 -13 2t-14 2h-47q-17 0 -37 -4q-68 -14 -119 -51q-38 -23 -108 -88q-115 -142 -115 -277q0 -101 66 -190q10 0 26 4q5 1 14.5 2t14.5 2q7 0 27 4q3 0 7.5 1t6.5 1h68q18 0 26 -2q3 0 11.5 -1t11.5 -1l90 -12l104 -29q5 -3 10 -11.5t5 -12.5q0 -27 -29 -27l-72 21 q-35 5 -47 8q-21 3 -47 10q-31 0 -37 2q-21 0 -37 4h-16q-41 0 -57 -2q-12 -4 -19 -4q-6 -2 -18 -2l-2 -2l14 -14q97 -62 186 -76q9 0 45 -6q10 0 17.5 -7t7.5 -18q0 -27 -29 -27q-139 10 -243 80q-15 9 -39 25l-27 29l-4 -2l-4 -3q-9 -3 -39 -18q-61 -31 -103 -90t-42 -127 zM440 -82q-76 0 -154 27.5t-128 77.5q93 -43 200 -43h2q65 -9 84 -9q122 0 220 52q129 74 182 194q1 1 2 5t2 5q0 7 8 15l6 16l27 82q0 3 1 8t1 8l2 2q1 2 5 11.5t9.5 24t8.5 22.5q0 10 2 14v-2q6 18 6 21q0 8 2 14q0 2 4 10q4 16 4 25l20 196l25 84h4v10q9 32 16 39v-2 q48 109 125 168q7 4 25 17l23 16q4 3 43 25q3 1 10.5 6.5t11.5 7.5q-16 -6 -43 -13.5t-33 -9.5q-15 -4 -49 -8l6 6q6 2 15 11q28 13 51 28l12 8q4 2 6 5t4 4q23 16 33 30q2 2 6 2q14 7 25 7q21 0 33 -14t12 -36q0 -33 -29 -51q-3 -2 -14 -8.5t-19 -11.5q-24 -16 -53 -29h2 q-4 -4 -12 -8l-10 -10q-2 -2 -10 -7l-9 -6q-74 -61 -106 -129q-2 -6 -6 -22q-3 -11 -9 -17h2q-2 -12 -8 -36.5t-8 -36.5l-31 -295q0 -3 -4 -23q-1 -4 -3 -14t-3 -14q0 -5 -4 -13q-4 -12 -4 -18q-13 -36 -21 -51l-24 -49l-41 -66l-45 -59q-23 -28 -41 -43q-6 -4 -23 -21 q-4 -5 -12 -11t-10 -7q-139 -111 -322 -111zM594 1126q31 14 57 19q2 -2 8 -2q7 0 11 -2q16 -4 35 -4l174 -37q17 0 47 -6q12 -2 43 -2q41 0 61 2h4l-2 -2q-24 -19 -57 -56l-10 2l-179 37q-10 0 -30 4q-4 1 -13 2t-14 2h-47q-17 0 -37 -4q-68 -14 -119 -51q-38 -23 -108 -88 q-115 -142 -115 -276q0 -44 12 -84h-6q-2 0 -6 -2.5t-6 -2.5q-34 45 -47 107q6 148 121 287l37 35q10 6 38 34l60 39l53 31q3 2 16.5 8.5t18.5 9.5zM150 172q0 -15 4 -39q-39 25 -56 64q7 68 46 126.5t98 96.5v-2l8 8q9 6 18 6q5 0 17 8q3 -2 9.5 -6t11.5 -7t9 -5 q3 -3 21 -12l-2 -2q-3 -1 -39 -19q-61 -31 -103 -90t-42 -127zM596 430h-4q-4 2 -14 2q-36 6 -50 6q-57 11 -122 41q12 0 18 2q7 0 27 4q3 0 7.5 1t6.5 1h59l31 -6q4 -2 12.5 -3.5t18 -2.5t12.5 -2l78 -20q23 0 35 6l65 -17q7 -7 10 -16l-10 -33q-4 -2 -14 -2l-72 21 q-35 5 -47 8q-21 3 -47 10zM369 383l-19 18q107 -55 217 -61h17q16 -4 26 -4q9 0 45 -6q10 0 17.5 -7t7.5 -18q0 -26 -29 -26q-140 10 -243 79q-15 9 -39 25z" />
<glyph unicode="U" horiz-adv-x="1560" d="M469 201v8l6 55l14 70l39 115l113 274l25 86q8 16 14 59q8 40 8 80l2 6v25q0 119 -94 172q-68 31 -125 31q-52 0 -106 -23q-75 -28 -166 -131q-127 -165 -127 -364q0 -80 26 -163t72 -145q35 -41 82 -71h-2l12 -6q23 -14 41 -19q11 0 23 -4q32 -9 32 -31q0 -9 -6 -17.5 t-18 -8.5q-105 21 -180.5 98.5t-108.5 183.5q-20 105 -20 185v28l8 72q0 23 10 63q20 70 60.5 140.5t95 130.5t126.5 97.5t146 37.5q73 0 145 -37q52 -31 64 -45q76 -64 76 -211v-16l-6 -74q0 -27 -7 -55q-12 -48 -22 -68h4q-17 -44 -51.5 -130.5t-48.5 -121.5 q-5 -12 -50 -123l-14 -43q-1 -4 -5.5 -20t-6.5 -23q0 -2 -1 -7l-2.5 -12.5t-2.5 -10.5q-4 -16 -4 -27q0 -2 -1 -6t-1 -6q-2 -8 -2 -17v-10q0 -23 6 -41q11 -36 49.5 -57t81.5 -21q67 0 159 76l17 16q25 25 33 31q11 17 28 37l31 37q6 9 22.5 34.5t22.5 34.5v-2q17 30 70 134 q15 37 98 237q12 28 45.5 112t52.5 128l45 86q0 7 7 14q8 8 18 23q41 57 104 96q22 14 52 14q61 0 61 -53q0 -17 -9.5 -33t-19.5 -25t-28 -22q-4 -4 -8 -7.5t-9.5 -9.5t-9.5 -10q-17 -17 -37 -49l-12 -18v2q0 2 -1 0q0 -1 -1 -3q-2 -6 -4 -9l14 -9l17 21q22 35 38 51 q12 12 13 14q2 2 6 5.5t6 5.5q50 40 59 67h7q61 0 61 -53q0 -17 -9.5 -33t-19.5 -25t-28 -22q-5 -4 -27 -26q-15 -15 -37 -50l-12 -18v2l-9 -16q-2 -5 -3 -7q-3 -7 -8.5 -16t-6.5 -10q-9 -18 -16 -39q-3 -8 -8 -21t-6 -16l-19 -57l-16 -56q-7 -29 -18.5 -85.5t-16.5 -79.5 q-8 -43 -25 -120.5t-20 -94.5q-1 -7 -4 -31t-4 -35q-2 -10 -2 -29q-31 -35 -52 -35q-14 0 -14 37v41q1 9 3 33t3 29l86 360l49 146l37 79q16 37 25 46l14 28q12 18 17 23q23 29 45 49q2 0 6 4.5t4 5.5l6 2q8 4 14 12q19 19 19 25q0 2 -8 2q-15 0 -37 -18q-46 -36 -68 -64 q-6 -6 -15 -19.5t-9 -15.5l-78 -153l6 22q0 7 8 23q1 2 3 8t3 8q2 10 6 17q3 6 6 18q-29 -60 -36 -55q-2 2 0 14v-2l-19 -57q-3 -8 -6 -18.5t-6 -22t-4 -15.5q-7 -29 -18.5 -86t-16.5 -80q-8 -43 -25 -120.5t-20 -94.5q-1 -7 -4 -30.5t-4 -34.5q-4 -46 -6 -66v-43 q0 -20 9 -38.5t25 -18.5q19 0 39.5 16t32.5 35q4 4 10 13q3 6 11 10q1 3 8 16.5t8 16.5q4 8 12 28q13 23 17 33q4 4 18 4q27 0 27 -27q-2 -4 -2 -8q-8 -25 -27 -55l-2 -4q-68 -133 -162 -133q-100 0 -100 139v10l12 115l94 393l49 146l37 79q15 35 25 45q1 1 3.5 7.5 t5.5 12.5t5 9q12 18 17 23q23 29 45 49q2 0 6 4.5t4 5.5l6 2q8 4 14 12q19 19 19 25q0 2 -8 2q-15 0 -37 -18q-46 -36 -68 -64q-6 -6 -15 -19.5t-9 -15.5l-88 -174q-16 -36 -47 -112.5t-39 -96.5q-14 -32 -84 -209l-70 -127l-51 -75l-45 -58l-43 -43q-105 -98 -213 -98 q-66 0 -123 41q-35 26 -55.5 69.5t-20.5 90.5zM616 84q-45 17 -57 53q-4 12 -4 27l2 18l14 70l39 115l113 274l25 86q7 7 12 51q1 3 2 8t2 7q6 21 6 57l2 20l4 54v18q0 78 -22 137l8 -8q76 -64 76 -211v-16l-7 -74q0 -31 -6 -55q-12 -48 -22 -68h4q-17 -44 -51.5 -130.5 t-48.5 -121.5q-5 -12 -50 -123l-14 -43q-1 -3 -5.5 -19.5t-6.5 -23.5q0 -2 -1 -7l-2.5 -12.5t-2.5 -10.5q-4 -16 -4 -27q0 -2 -1.5 -6t-1.5 -6q-2 -8 -2 -17v-16zM125 748q20 68 58 135.5t89.5 126t119 97.5t138.5 44q21 -4 58 -18h-2q35 -21 55 -50q-49 17 -88 17 q-53 0 -107 -23q-73 -28 -165 -131q-127 -165 -127 -364q0 -128 55 -238q-17 17 -23 25q-52 69 -80 178v65l9 72q0 24 10 64zM627 -41q-14 10 -35 35q44 -14 76 -14q18 0 28 2q33 -11 58 -11q67 0 159 76l17 16q25 25 33 31q11 17 28 37l31 37q7 9 23 35.5t22 34.5v-2 q23 41 70 133q4 12 10 25.5t13 30t11 26.5l-36 -150l-7 -61l-26 -47l-51 -76l-45 -58l-43 -43q-105 -98 -213 -98q-66 0 -123 41zM1325 -51q-66 0 -90 61h8q36 0 66 15q11 -21 26 -21q19 0 39.5 16t32.5 35q4 4 10 13q3 7 10 10q1 3 8.5 16.5t8.5 16.5q4 8 12 28 q13 23 17 33q4 4 18 4q27 0 27 -26q-2 -5 -2 -9q-8 -25 -27 -55l-2 -4q-68 -133 -162 -133zM416 117q-96 17 -172 90q38 -20 86 -29q22 0 30 8q4 -1 12.5 -4t12.5 -4q11 0 23 -4q32 -9 32 -31q0 -9 -6 -17.5t-18 -8.5z" />
<glyph unicode="V" horiz-adv-x="1427" d="M354 43q0 12 19 27q2 0 8 6q7 2 25.5 9.5t21.5 10.5q89 44 143 121q5 4 7 10q1 1 5.5 6.5t6.5 6.5q1 1 3 7t5 12.5t6 10.5q3 5 9.5 17.5t9.5 17.5v-2l12 31q2 5 9 21.5t9 21.5q13 39 15 43q13 39 16 45q2 18 10 53l13 55q6 56 10 115v82l-2 104q-1 6 -4 18.5t-4 18.5 q-6 17 -9 37q0 3 -4 15q0 2 -1 5.5t-1 4.5l-6 22q-13 42 -43 88q-34 46 -90 76.5t-111 30.5q-73 0 -140 -36.5t-116 -98.5q-20 -27 -28 -31q0 -1 -1 -5t-1 -5q-4 -14 -6 -15q-4 -9 -14.5 -29.5t-14.5 -29.5q-2 -5 -5 -16.5t-5 -16.5q-6 -15 -11 -30q-1 -5 -4 -16.5t-4 -16.5 q-4 -11 -8 -33q-1 -6 -3 -19.5t-3 -19.5q-4 -24 -4 -39v-31q0 -6 -1 -18t-1 -16l4 -74q0 -34 10 -64q12 -58 33 -106q49 -115 137 -172q31 -27 43 -29q4 -4 10 -4l13 -6q2 -1 9 -4t9 -4l4 -4q16 -12 16 -23q0 -26 -22 -26q-8 0 -8 2q-156 52 -242 211l-4 8q-16 32 -16 35 q0 1 -1 3t-1 3l-7 14q-9 24 -14 39q0 15 -8 43l-4 20q-1 6 -3 20t-3 19q-4 24 -4 45q0 2 -1.5 6.5t-1.5 6.5v49q0 148 52 282q5 12 34 72q15 25 19 33q3 2 15.5 20t15.5 25q110 135 288 135q74 0 148 -33q213 -108 213 -438v-22l-6 -86l-19 -103l-26 -98l-25 -74l-43 -96 l-53 -88h-4q-1 -2 -4 -9t-6 -13t-3 -7q-63 -69 -149 -119h25q89 0 151 21q4 2 16 6q19 4 23 8l70 37h-2q2 2 22 12h-2q3 2 10.5 6.5t10.5 6.5q10 6 30 22q5 4 16.5 11.5t16.5 11.5q3 3 10 8.5t13.5 10.5t11.5 9l37 31q33 38 73 78q27 31 82 104q4 6 16.5 27t16.5 27 q3 5 16 25t19 28v-2q3 7 22 45q4 7 12.5 22.5t12.5 22.5q9 27 16 41q2 6 8 21t9 22q6 21 12 45q2 7 6 22.5t6 22.5q0 15 4 27l3.5 10.5t3.5 13.5q-121 27 -177 148q-22 53 -22 82q0 47 28.5 75.5t75.5 28.5q29 0 66 -16q50 -29 71 -92t21 -132v-22q0 -2 -1 -6t-1 -6v-9h10 l49 7q27 0 27 -25q0 -8 -6.5 -17t-15.5 -12q-27 -6 -72 -6q-4 -13 -8 -39q-5 -18 -9 -41l-30 -94l-39 -100l-70 -125l-69 -101l-84 -96l-78 -76q-2 -2 -13 -10t-26.5 -19.5t-20.5 -15.5q-57 -41 -157 -92q-5 0 -27.5 -8t-30.5 -12q-92 -29 -172 -29h-26q-23 0 -35 6 q-6 2 -19 2q-16 2 -32.5 11t-16.5 24zM436 -39q0 13 8 21q4 -2 13 -2h26q45 0 82 6q-1 -1 -16 -11h24q90 0 152 21q4 2 16 6q19 4 23 8l70 37h-3q1 1 23 12h-2q3 2 10 6.5t10 6.5q14 8 31 22q5 4 16.5 11.5t16.5 11.5q3 3 10 8.5t13.5 10.5t11.5 9l37 31q33 38 73 78 q27 31 82 104q4 6 16.5 27t16.5 27q3 5 16 25t19 28v-2q3 7 22 45q4 7 12.5 22.5t12.5 22.5q9 27 16 41q2 6 8 21t9 22q6 21 12 45q2 7 6 22.5t6 22.5q0 15 4 27l3.5 10.5t3.5 13.5q-1 0 -10.5 2t-14.5 4q3 23 8 37q0 3 1 9t1 8q33 0 53 4q14 3 25 12v-4q0 -2 -1 -6t-1 -6 v-9h10l49 7q27 0 27 -25q0 -8 -7 -17t-16 -12q-27 -6 -71 -6q-4 -13 -8 -39q-5 -18 -9 -41l-30 -94l-39 -100l-70 -125l-69 -101l-84 -96l-78 -76l-60 -45q-57 -41 -157 -92q-5 0 -27.5 -8t-30.5 -12q-92 -29 -172 -29h-26q-23 0 -35 6q-6 2 -19 2q-16 2 -32.5 11t-16.5 24z M768 211l-43 -72l-53 -28q-5 -5 -6 -5q-7 -2 -17 -5.5t-12 -4.5q-4 -1 -11.5 -4t-11.5 -4q15 15 39 47q4 4 6 10q1 1 4 4.5t5 5.5t4 3q1 1 3 7t5 12.5t6 10.5q3 5 9.5 17.5t9.5 17.5v-2l12 31q2 5 9 21.5t9 21.5q13 39 15 43q13 39 16 45q2 18 10 53l12 56q0 6 5 36l8 29 l18 100l6 91v24q0 176 -57 287q119 -124 119 -369v-22l-6 -86l-19 -103l-26 -98l-25 -74zM238 1026q103 124 260 133q64 -18 112 -69q-43 18 -86 18q-73 0 -140 -36.5t-116 -98.5q-20 -27 -28 -31q0 -1 -1 -5t-1 -5q-4 -10 -7 -14q-4 -9 -14 -30t-14 -30q-2 -5 -5 -16.5 t-5 -16.5q-6 -15 -11 -30q-1 -5 -4 -16.5t-4 -16.5q-4 -10 -8 -33q-1 -6 -3 -19.5t-3 -19.5q-4 -24 -4 -39v-30q0 -7 -1 -19t-1 -16l4 -74q0 -33 10 -63q13 -60 33 -107q3 -10 10 -25q-53 56 -74 115q-17 38 -28 90q-3 5 -7 27v45q0 149 52 283q1 2 34 71q15 25 19 33 q3 2 15.5 20t15.5 25zM1122 1079q0 -18 17 -57q19 -42 54 -69t77 -31q0 2 1 5.5t1 6.5v18q0 28 -3.5 55.5t-12.5 59t-29.5 51t-50.5 19.5q-24 0 -39 -16t-15 -42zM1204 997q0 -14 6 -32q-35 21 -53 65l-6 12q13 47 57 62q21 -15 31 -53q-35 -11 -35 -54zM1329 1087 q61 -48 76 -153q-12 4 -23 4l-32 -4q-2 4 -2 10v10q0 72 -19 133zM365 90q-55 25 -103 70q20 -11 49 -21q0 -2 1 -3.5t2.5 -2.5t3 -1.5t4 -0.5h4.5h6h6q24 0 33 12q4 -2 10 -2q4 -4 10 -4l12 -6q2 -1 9.5 -4t9.5 -4l4 -4v-2q-1 -1 -4.5 -2t-5.5 -2q-10 -10 -45 -19z M1235 834l-16 16q3 -1 10 -3t10 -3q-2 -2 -2 -6q-2 -2 -2 -4z" />
<glyph unicode="W" horiz-adv-x="1851" d="M319 35h-4q-10 7 -10 20q0 25 35 33q4 2 6 4l10 4q1 1 7.5 3.5t9.5 4.5q10 5 18 13q85 51 139 139q2 5 13.5 24t13.5 25l43 101q14 49 16 55q3 9 8.5 28.5t8.5 28.5q2 20 10 55q2 9 5 28t5 28q0 25 4 57q1 9 2.5 28.5t2.5 28.5v66q-5 15 -5 39q-2 14 -2 41 q-11 85 -45 161t-94 111q-56 27 -104 27q-96 0 -168 -69t-117 -169q-7 -15 -14 -41q-5 -16 -7 -24q-1 -7 -3 -16t-3.5 -15t-1.5 -8q-1 -8 -4 -21t-4 -18q-1 -7 -3 -20.5t-3 -20.5l-1 -4q-1 -4 -1 -8q-2 -12 -2 -39v-33q0 -179 74 -324q20 -41 79 -100q2 -2 17 -12 q5 -5 26 -19h-2q37 -16 37 -37q0 -24 -24 -24h-11q-124 63 -192 221v4q-10 17 -10 27q-2 7 -10 26t-9 23q-2 4 -2 10q-3 12 -12 66q-1 6 -3 20.5t-3 20.5q-4 20 -4 39q-2 4 -2 10v55q0 117 30 219q20 61 52.5 117.5t76.5 106t102.5 79t121.5 29.5q103 0 185.5 -58.5 t119.5 -154.5q8 -27 10 -33q12 -42 12 -49q0 -13 4 -41q1 -6 2.5 -20.5t2.5 -20.5v-8q0 -2 1 -7.5t1 -8.5v-25q0 -3 -1 -10.5t-1 -11.5v-15q0 -5 -5 -55q-2 -14 -2 -29l-22 -117l-25 -90l-39 -104l-47 -94q0 -6 -6 -15q-28 -41 -29 -47q-57 -97 -161 -168h4q14 -4 39 -4 q61 0 121 32t106 83q10 10 16 18l11 11q22 26 22 28l49 72v-2q7 14 23 38.5t18 28.5q2 5 13.5 29.5t15.5 32.5l18 31h-4l21 51q7 14 16 41q14 43 19 61q3 10 10 32t10 32q8 40 12 63q2 8 7.5 30.5t7.5 35.5q0 17 4 53l6 55v9q0 2 1 7t1 7v20q0 88 -21 152h3q-11 11 -11 26 q-8 16 -8 23q0 29 25 29q13 0 47 -17q13 -7 23 -14.5t22 -19t14 -13.5q11 -11 31 -39q2 -2 5 -6t5 -6q2 -6 4 -10q0 -6 4 -6q28 -55 41 -95q0 -1 1 -4t1 -4q0 -2 2 -4q5 -28 13 -53l12 -86q4 -24 4 -51v-88l-10 -105l-19 -110q0 -3 -4 -19q-9 -38 -16 -57 q-55 -156 -141 -248q-53 -53 -113 -64q10 -2 35 -2q70 0 176 62h-2q30 24 45 29h-2q12 9 36 28.5t36 28.5q58 54 94 90q7 8 23.5 26.5t21.5 24.5q24 24 45 51q12 20 35 50q5 6 16 23.5t18 25.5v-2q10 23 29 51q5 8 15.5 25.5t15.5 25.5v-2q22 55 33 78q0 1 1 3t1 3 q5 10 18 51q3 10 11 27.5t10 23.5q1 2 2 8l2.5 15t3.5 16q4 18 6 25q6 27 6 74q-1 0 -4 -1t-4 -1h-10q-6 -2 -23 -2q-59 0 -116.5 24.5t-94.5 67.5q-35 47 -35 94q0 51 36.5 83t88.5 32t99 -37q44 -35 75.5 -88t38.5 -109q23 11 68 43l18 19q2 1 6 4.5t8 6t8 5.5l6 4.5 t1 1.5q4 2 6 4t8 2q12 0 19.5 -7.5t7.5 -14.5q0 -15 -6 -21q-41 -44 -107 -84q-4 -4 -8 -4q-1 0 -4 -1t-4 -1q-2 -1 -7 -4t-7 -4h2l-13 -8q-9 -155 -78 -295q-43 -86 -45 -88q-36 -67 -71 -123l-103 -125l-102 -105l-72 -59l-67 -49q-1 -1 -4.5 -2t-4.5 -2q-2 -1 -14 -8 t-18 -9q-104 -51 -170 -51q-36 0 -71.5 15t-35.5 47q0 39 66 49q12 0 16 2q41 16 78.5 60t60.5 93q5 20 11 35l6 17l12 41q8 18 16 51q7 58 9 65q4 43 10 66q0 47 2 59q0 38 4 62v55q-4 28 -4 59q-2 18 -2 62q-1 8 -4 24.5t-4 24.5t-3 25.5t-3 25.5q0 12 -11 39 q-19 62 -53 94l-10 11q14 -60 14 -140v-14l-8 -102l-25 -136l-28 -108l-56 -152l-69 -131l-41 -76q-7 -7 -17 -22q-3 -4 -10 -13.5t-10 -13.5q-12 -12 -14 -16q-18 -27 -72 -76q-109 -92 -229 -92q-54 0 -134 35zM1010 -72q-36 0 -71.5 15t-35.5 47v2q8 -2 25 -2 q50 0 137 35q-41 -35 -90 -43q10 -2 35 -2q72 0 176 61h-2q30 24 45 29h-2q12 9 36 28.5t35 28.5q73 67 95 90q7 8 23.5 26.5t21.5 24.5q24 24 45 51q12 20 35 50q5 6 16 23.5t18 25.5v-2q10 22 29 51q5 8 15.5 25.5t15.5 25.5v-2q22 55 33 78q0 1 1 3t1 3q4 10 18 51 q3 10 11 27.5t10 23.5q1 2 2 8l2.5 15t3.5 16q4 17 6 25q6 27 6 74q-1 0 -4 -1t-4 -1h-10l6 49q6 0 10 2q0 13 -4 29q1 1 3 2t3 2q4 0 4 1v1q13 0 19 6q3 2 10 6t10 6q3 -9 8 -39q23 11 68 43l18 19q2 1 6 4.5t8 6t8 5.5l6 4.5t1 1.5q4 2 6 4t8 2q12 0 19.5 -7.5t7.5 -14.5 q0 -15 -6 -21q-41 -44 -107 -84q-4 -4 -8 -4q-1 0 -4 -1t-4 -1q-2 -1 -7.5 -4t-7.5 -4h3l-13 -8q-9 -155 -78 -295q-43 -86 -45 -88q-36 -67 -71 -123l-103 -125l-102 -104l-72 -60l-67 -49q-1 -1 -4.5 -2t-4.5 -2l-32 -16q-106 -52 -170 -52zM401 -47h-4q-10 7 -10 20 q0 11 2 15q46 -8 64 -8q29 0 53 6q-2 -2 -6 -5.5t-6 -5.5h4q14 -4 39 -4q61 0 121 32t106 83q10 10 16 18l11 11q22 26 22 28l49 72v-2q5 10 12.5 22t16 25.5t12.5 20.5q2 5 13.5 28.5t15.5 32.5l18 31h-4l21 51q7 14 16 41q10 29 18 61q3 10 10.5 32t10.5 32q8 40 12 63 q2 8 7.5 30.5t7.5 35.5q0 17 4 53l6 55v9q0 2 1 7t1 7v20q0 58 -8 105q0 5 -1 14.5t-1 14.5q2 -4 5 -12.5t5 -12.5l10 -31q0 -22 2 -30q0 -13 4 -25q0 -9 4 -25q1 -3 2 -12t2 -12q0 -44 2 -60q0 -29 5 -59v-49q0 -1 -1 -4t-1 -4l-9 -50l-28 -108l-56 -152l-69 -131l-41 -75 q-1 -1 -3.5 -5t-4.5 -6q-78 -9 -78 -69q0 -11 4 -23q-7 -7 -21 -20t-20 -19q-109 -92 -229 -92q-54 0 -134 35zM737 299l-45 -90l-10 -10q-9 -12 -14 -17q-53 -59 -117 -88q35 38 61 80q2 5 13.5 24t13.5 25l43 101q14 49 16 55q3 9 8.5 28.5t8.5 28.5q2 22 10 56 q2 9 5 27.5t5 27.5v6l4 14l23 121q0 17 2 31q4 40 4 57v15q0 2 1 6t1 6v35q0 2 -1 5.5t-1 4.5v14q-2 6 -2 21q0 3 -1 11t-1 11q-4 32 -4 39q0 1 -3 11t-6.5 23.5t-5.5 20.5l-10 33q-2 5 -7 15.5t-7 15.5q51 -51 78 -119q8 -27 10 -33q12 -42 12 -49q0 -13 4 -41q1 -7 2 -21 t2 -20v-8q0 -2 1 -7.5t1 -8.5v-25q0 -3 -1 -10.5t-1 -11.5v-15q0 -15 -4 -55q-2 -14 -2 -29l-22 -116l-25 -91zM1169 338q1 8 3.5 31.5t3.5 29.5q2 5 8 29q4 12 4 23l18 104l11 109v90q0 20 -5 55l-12 80q-6 12 -12 59l-4 10q-13 38 -33 80q1 0 2 -1t2 -1q11 -11 31 -39 q2 -2 5 -6t5 -6q2 -6 4 -10q0 -6 4 -6q28 -55 41 -95q0 -1 1 -4t1 -4q0 -2 2 -4q5 -28 13 -53l12 -86q4 -24 4 -51v-88l-10 -105l-19 -110q0 -3 -4 -19q-9 -38 -16 -57q-15 -42 -29 -72q-5 -4 -16.5 -12t-16.5 -12t-15.5 -14t-14.5 -13q-1 0 -41 -27q20 36 28 52q4 17 11 34 l6 17l12 41q8 18 16 51zM141 825q19 58 49.5 112.5t72 102.5t96 79.5t114.5 35.5q30 -10 35 -12h-2q32 -19 53 -49q-30 12 -65 12q-96 0 -168 -69t-117 -169q-7 -15 -14 -41q-5 -17 -7 -24q-1 -7 -3 -16t-3.5 -15t-1.5 -8q-1 -8 -4 -21t-4 -18q-1 -7 -3 -20.5t-3 -20.5 l-1 -4q-1 -4 -1 -8q-2 -12 -2 -39v-33q0 -174 65 -307q-43 46 -55 74q-46 91 -61 188v51q0 117 30 219zM1393 1094q0 -31 10 -41q45 -84 160 -84h12q39 0 47 2q0 23 -4 35q-22 86 -94 137h2q-1 0 -3 1t-3 1q-7 0 -9 2h2q-8 4 -10 4q-20 10 -39 10q-28 0 -49.5 -20t-21.5 -47 zM1475 1012v-4q-32 16 -52 49q18 52 74 71q2 -4 19 -4q22 -14 47 -47q-3 0 -9 1t-8 1q-28 0 -49.5 -20t-21.5 -47zM1597 844q-83 19 -139 78q58 -25 115 -25q1 0 29 -6q-1 -5 -2.5 -19t-2.5 -20l2 2q-2 -4 -2 -10zM322 104q-27 18 -50 41h15q32 0 41 21q0 -2 4 -2 q5 -5 26 -19h-2q3 -2 23 -12q-6 -6 -14 -10q-2 -1 -7.5 -3t-7.5 -3l-2 -2l-10 -2l-4 -4q-2 -1 -6 -2.5t-6 -2.5zM1673 1071q26 -30 35 -43q-14 -9 -16 -10q-5 21 -19 53z" />
<glyph unicode="X" horiz-adv-x="1460" d="M23 268q0 103 65 168q0 4 6 10l4 5v2l13 6q8 4 14 10q-4 8 -4 12q0 1 -1 4t-1 4t-1 3.5t-1 3.5l-2 16l-2 -2q-17 73 -17 141q0 118 41 236q1 4 4.5 15t8.5 23.5t6 16.5q12 27 22 45l8 17q0 1 2 4t2 4q5 10 11 16q2 3 8 13.5t8 13.5q24 30 72 78q119 110 295 110 q118 0 190.5 -63t97.5 -181q15 -73 15 -157q0 -4 -1 -12t-1 -11v-47q24 54 28 62q11 32 33 71q20 41 37 64v-2q10 19 35 51q18 30 53 57q92 76 209 76q103 0 143 -51q0 -2 2 -4q17 -42 17 -49q0 -30 -20.5 -45t-49.5 -15q-26 0 -26 27q0 4 1 7.5t2 6t4 4.5l4.5 3t6 2.5 t6 1.5t7.5 1.5t7 1.5l11 5q0 3 -11 14q-27 37 -104 37q-120 0 -199 -88q-6 -6 -17 -21t-11 -18l-39 -53v2q-5 -9 -14.5 -27t-14.5 -27q-25 -45 -29 -53q-27 -62 -28 -65q-17 -40 -27 -64h176q11 0 18 -9t7 -18q0 -7 -7 -15.5t-18 -8.5h-198l-5 -17q0 -35 -2 -43q0 -3 -1 -12 t-1 -12v-57q0 -34 2 -52q0 -16 5 -51q1 -4 3 -16.5t3 -16.5q2 -12 6 -32q0 -18 12 -48q21 -72 73 -135t116 -63q40 0 77 24.5t60 61.5q3 6 22 55q0 1 1 4t1 4q0 5 2 9q12 18 25 18q11 0 18 -9.5t7 -19.5q-3 -28 -21 -63q-30 -63 -84 -101t-119 -38q-79 0 -138.5 47.5 t-86.5 124.5q-12 36 -12 47q-1 4 -4 14.5t-4 17.5l-7 35l-16 152q-2 -3 -10.5 -21.5t-14.5 -29.5l-15 -30l-18 -36t-12 -27l-30 -57v2q-7 -13 -23 -35q-16 -16 -16 -22q-25 -36 -64 -70q-157 -135 -317 -135q-117 0 -192.5 75.5t-75.5 192.5zM74 266q0 -91 61.5 -152 t153.5 -61q89 0 170 43q29 12 73 49q57 46 82 78l11 10q2 2 7 9.5t7 9.5l16 22q5 5 7 9q13 19 22 36q47 91 49 95q6 14 19 45t18 43q6 15 20.5 47.5t18.5 42.5v41h-141q-10 0 -17.5 8.5t-7.5 15.5q0 8 7.5 17.5t17.5 9.5h141v57q-4 40 -4 78q-2 25 -2 80l-6 31q-4 16 -4 31 q-2 2 -2 12q0 2 -1.5 5t-1.5 5q-4 8 -4 12q-1 2 -3 8.5t-3 8.5q-6 12 -6 16q-15 29 -43 70q-68 90 -170 90q-91 0 -173.5 -51.5t-133.5 -132.5q-37 -49 -47 -82q-19 -38 -25 -62q-7 -17 -10 -33q-4 -12 -8 -32q-8 -24 -8 -60v-8q0 -3 -1 -9t-1 -9q-2 -12 -2 -27v-31 q0 -65 12 -127q0 -4 2 -8q3 -13 10 -20q75 30 150 30h22v-4l8 2h2q21 0 29 -2q1 0 4 -1t4 -1q8 -2 21 -2q53 -11 65 -14q6 -2 21 -7.5t24 -7.5q40 -10 47 -12q21 -3 21 -26q0 -7 -8.5 -15t-20.5 -8l-100 27l-37 6q-5 1 -18 4t-21 4q-1 0 -5 1t-7 1q-12 2 -31 2h-18 q-79 0 -136 -22q24 -54 68 -95.5t98 -58.5q24 -8 41 -8q8 -1 13.5 -10t5.5 -15q0 -9 -9.5 -17.5t-23.5 -8.5q-15 4 -21 6q-10 0 -16 6q-66 20 -118 64t-81 104l-4 -2q-69 -69 -69 -150zM371 1051q103 93 243 108q50 -17 88 -61q-36 8 -61 8q-91 0 -173.5 -51.5 t-133.5 -132.5q-37 -49 -47 -82q-19 -38 -25 -62q-7 -17 -10 -33q-4 -12 -8 -32q-8 -24 -8 -60v-8q0 -3 -1.5 -9t-1.5 -9q-2 -12 -2 -27v-31q0 -1 -0.5 -17t0.5 -17q-34 -8 -49 -15v8q-4 12 -4 21v20q0 118 41 236q1 4 4.5 15t8.5 23.5t6 16.5q12 27 22 45l8 17q0 1 2 4t2 4 q5 10 11 16q2 3 8 13.5t8 13.5q24 30 72 78zM373 -82q-124 0 -201 84q55 -22 119 -22h18q41 -9 62 -9q89 0 170 43q29 12 73 49q57 46 82 78l11 11q2 2 7 9t7 9l16 23q4 4 6 8q15 21 23 37q4 9 19 35t22 40v-4q0 -12 2 -18q0 -19 6 -25v2q1 -3 3 -12t3 -12v-11l-28 -55v2 q-6 -13 -23 -35q-16 -16 -16 -22q-25 -36 -64 -70q-157 -135 -317 -135zM983 195q6 -25 23 -60q-59 53 -82 137q-15 45 -15 56q-4 20 -6 32q0 3 -4 15q0 2 -1 8t-1 8q-4 28 -4 51q-2 18 -2 50v69q0 1 1 4t1 4q2 8 2 43h92q-4 -8 -4 -10h176q11 0 18 -9t7 -18q0 -7 -7 -15.5 t-18 -8.5h-198l-5 -16q0 -35 -2 -43q0 -3 -1 -12.5t-1 -12.5v-57q0 -34 2 -52q0 -23 4 -51q5 -25 7 -33q2 -12 6 -32q0 -17 12 -47zM1038 731q-4 -10 -12 -26h-53q9 21 22 47q11 32 33 71q20 41 37 64v-2q10 19 35 51q18 30 53 57q83 70 188 76q8 -3 19 -10q-35 -11 -35 -45 q-98 -13 -162 -86q-6 -6 -17 -21t-11 -18l-39 -53v2q-5 -9 -14.5 -27t-14.5 -27q-25 -45 -29 -53zM1161 -59q-103 0 -170 77q43 -16 88 -16q29 0 43 4q27 -10 49 -10q40 0 77.5 24.5t60.5 61.5q3 6 22 55q0 1 1 4t1 4q0 5 2 9q12 18 25 18q11 0 17.5 -9.5t6.5 -19.5 q-4 -31 -20 -63q-30 -63 -84 -101t-119 -38zM408 391q-79 0 -136 -22q-33 29 -55 71l25 6l2 -4q0 -4 2 -8q3 -13 10 -20q69 27 141 30l18 -4h-1h12q18 -3 33 -6l100 -26q15 0 27 6q12 -4 20 -6q12 -3 47 -13q21 -3 21 -26q0 -7 -8.5 -15t-20.5 -8l-100 27l-37 6q-5 1 -18 4 t-21 4q-1 0 -5 1t-7 1q-12 2 -31 2h-18zM104 201q3 87 60 147q5 -7 37 -39q-45 -57 -45 -125q0 -40 10 -69q-45 35 -62 86zM1466 979q-12 12 -20 18q16 19 16 50v4q20 -10 43 -33q0 -2 2 -4q17 -43 17 -49q0 -30 -20.5 -45t-49.5 -15q-27 0 -27 27q0 11 7 17t12 7.5t20 4.5 l11 4q0 3 -11 14zM428 168q-75 20 -135 80q23 -13 47 -19h-2q9 -6 24 -6l-6 2l21 -8q15 0 31 8q20 -8 30 -10q24 -8 41 -8q8 -1 13.5 -10t5.5 -15q0 -9 -9.5 -17.5t-23.5 -8.5q-15 4 -21 6q-10 0 -16 6zM864 1090q57 -52 82 -142q-2 -3 -18 -35v2q-12 -16 -21 -43 q-4 82 -14 132q-7 37 -29 86zM725 575q0 8 7.5 17.5t17.5 9.5h38v-6l-12 -31q-1 -2 -4 -7t-4 -7h-18q-10 0 -17.5 8.5t-7.5 15.5zM967 737v-32h-37q2 6 16 34q10 28 19 45q0 3 4 11v-35q0 -4 -1 -12t-1 -11z" />
<glyph unicode="Y" horiz-adv-x="1150" d="M334 135q0 36 17 64t52 28q50 0 50 -49q0 -15 -12 -25t-33 -10q0 9 -5.5 18.5t-15.5 10.5q-8 -19 -8 -47q0 -80 131 -80q118 0 211 96l4 6l8 11v-2q11 22 17 28q9 15 12 21q2 4 6 11t6 11q3 6 12 33q2 10 15 35q20 77 58 233t54 217l45 125q2 10 25 56q20 40 27 47l18 24 q10 13 10 17l27 33q-12 -3 -18 -9l-19 -18l-24 -35q-2 -4 -9.5 -15.5t-9.5 -15.5q-15 -25 -18 -28v2l-54 -111q-28 -57 -57 -121l-84 -141l-63 -92q-8 -12 -43 -47q-9 -9 -15 -17l-18 -22q-13 -13 -45 -29q-7 -4 -21 -14q-64 -37 -116 -37q-18 0 -33 6q-32 5 -70 27 q-6 0 -6 16q0 8 6 14q4 0 23 19l12 10q4 4 15.5 16.5t15.5 16.5l12 12l8 10q5 12 29 41q2 2 5.5 7t4.5 6v-2q6 14 14 30l13 21v-2q5 11 16 33t16 34l27 80q5 28 8 35q1 8 11 37l8 65q0 1 1 5t1 6q2 8 2 24v25q0 130 -61 218.5t-183 88.5q-91 0 -158 -51t-98 -127.5 t-31 -165.5q0 -76 27.5 -149t81.5 -125q49 -44 141 -62q13 -10 13 -22q0 -20 -21 -23q-37 2 -88 25q-98 47 -147.5 146t-49.5 214v23l7 55q0 11 4 27q33 127 115 203.5t208 76.5q90 0 166 -43t113 -123q26 -66 26 -170v-12l-4 -62l-6 -67l-20 -72l-25 -69l-18 -37 q-14 -28 -15 -31l-10 -20q-1 -2 -3 -7.5t-3 -7.5l-8 -16q-2 -2 -5.5 -7.5t-5.5 -7.5q-8 -12 -16 -20l-61 -74l-47 -45q24 -4 43 -4q74 0 149 68l35 35q1 2 6 7.5t6 8.5q15 21 39 49q26 39 41 64q22 35 43 63v-2l172 332q3 15 23 45q52 74 116 74q11 0 43 -9q5 -2 10 -7t5 -9 q0 -12 -4 -16l-52 -54q-8 -12 -12 -16q-3 -4 -9 -14l-5 -7q-1 -2 -6.5 -10.5t-10.5 -16t-8 -11.5l-12 -19q0 -1 -2 -4t-2 -4l-25 -59q-1 -2 -6 -17q-4 -12 -4 -16q-2 -11 -13.5 -76t-17.5 -100q-5 -31 -11.5 -65.5t-14 -74.5t-11.5 -63l-22 -82l-27 -70l-22 -51 q-22 -33 -27 -43q-28 -40 -80 -92q-109 -84 -225 -84h-23q-153 11 -153 135zM569 -82q-104 7 -139 70q17 -4 55 -8h17q38 -17 90 -17q118 0 211 96l4 6l8 11v-2q12 24 16 28q2 4 5 8.5l5 7.5t3 5q2 4 6 11t6 11q3 6 12 33q2 10 15 35q20 77 58 233t54 218l45 124q2 10 25 56 q20 40 27 47q2 3 5 7t7 9t6 8q10 13 10 17l27 33q-13 -3 -19 -9l-18 -18l-25 -35q-2 -4 -9 -15.5t-9 -15.5q-15 -25 -18 -28v2l-54 -111q-1 -2 -4 -7t-4 -7q2 12 7 38t7 38q0 8 3 14q0 2 6 14l22 54l8 22l-4 -12q2 2 6.5 9t6.5 9q9 12 26 45q3 3 6 9l4 4q2 2 7.5 9t7.5 9 l12 12q23 13 51 13q11 0 43 -9q5 -2 10 -7t5 -9q0 -12 -4 -16l-52 -54q-8 -12 -12 -16q-3 -4 -8 -12l-6 -8q0 -1 -10.5 -17.5t-14.5 -21.5l-12 -19q0 -1 -2 -4t-2 -4l-25 -59q-1 -2 -6 -17q-4 -12 -4 -16q-2 -11 -13.5 -76t-17.5 -100q-5 -31 -11.5 -65.5t-14 -74.5 t-11.5 -63l-22 -82l-27 -70l-22 -51q-22 -33 -27 -43q-28 -40 -80 -92q-109 -84 -225 -84h-23zM707 610l-23 -61q-4 -8 -14 -23v2q-12 -12 -39 -51q-1 -2 -3 -5t-3 -5l-39 -39q-28 -25 -54 -39q2 2 6.5 7t6.5 7t5.5 7t4.5 6v-2q6 14 14 30l13 21v-2q5 12 16 34t16 33l27 80 q5 28 8 35q2 14 10 37l9 66q0 1 1 4.5t1 5.5q2 8 2 24v47l4 64v12q0 98 -27 172q38 -35 62 -84q26 -66 26 -170v-12l-4 -61l-6 -68zM109 879q33 127 115 203.5t208 76.5q41 -16 74 -57q-37 12 -78 12q-91 0 -158 -51t-98 -127.5t-31 -165.5q0 -95 37 -176q-52 52 -78 125 q-2 18 -2 55v23l6 55q0 7 5 27zM809 496q24 39 33 49q-4 -16 -16 -64.5t-19 -74.5l-16 -25q-8 -12 -43 -47q-9 -9 -15 -17l-18 -22q-13 -13 -45 -29q-7 -4 -21 -14q-64 -37 -117 -37q-17 0 -32 6q-32 5 -70 27q-6 0 -6 16q0 8 4 12h23q28 0 55 9l-17 -17q24 -4 43 -4 q75 0 150 68l35 35q1 2 6 7.5t6 8.5q15 21 39 49q26 39 41 64zM469 90q-6 -9 -6 -20q-27 3 -43 16q15 59 65 59t50 -49q0 -20 -21 -30h-25q-4 21 -20 24zM295 414q-50 23 -88 61q48 -21 94 -24q8 0 16 4q38 -15 74 -21q0 -1 1 -2t1 -2l-10 -10q-10 -10 -12 -14 q-9 -7 -15 -13l-2 -2q-13 3 -59 23z" />
<glyph unicode="Z" horiz-adv-x="1271" d="M23 51q0 42 57 66l96 33q8 2 39 16q4 2 12.5 5.5t14.5 6.5t10 6l17 10q17 11 24 15h-2q26 17 43 27h-2q27 18 41 28q7 5 20.5 15.5t20.5 15.5q20 16 37 33q21 21 41 37q4 4 18 21t22 26q6 7 21.5 23.5t21.5 23.5q19 30 39 57q17 25 58 80q-16 0 -46 2t-46 2q-15 2 -15 21 q0 10 7 19t18 9h117q35 54 63 92q30 46 66 95l55 67l276 242l-8 -2q-21 -8 -68 -25.5t-69 -25.5h2q-4 -4 -27 -7q-4 -2 -12 -2q-24 -6 -45 -6h-12l-92 13l-269 61q-6 1 -21.5 3t-21.5 3q-35 5 -41 6h-32q-83 0 -161 -31.5t-132 -96t-54 -146.5q0 -96 76 -156.5t176 -60.5 q96 0 161 55.5t65 149.5q0 2 -1 5t-1 5v37q0 26 26 26q8 0 16.5 -7.5t10.5 -14.5q2 -18 2 -54q0 -117 -79 -185t-200 -68q-77 0 -145.5 31t-114 93t-45.5 142q0 132 111 225q84 71 198 111q59 16 117 16h19l57 -6l78 -16l203 -60q3 -3 30 -6q8 -2 19 -2q18 -6 39 -6h22 q54 0 113 16q39 13 43 15q23 7 45 16q19 8 47 8q33 0 53 -22q6 -6 6 -23q0 -10 -8 -18q-105 -85 -266 -224q-25 -25 -35 -37q-6 -6 -17 -17.5t-16 -16.5l-55 -74l-43 -61q-7 -10 -20.5 -28t-20.5 -28h162q11 0 17.5 -8.5t6.5 -17.5q0 -18 -8 -23l-6 -4h-205q-36 -56 -53 -78 q-9 -15 -27 -40.5t-24 -35.5l-84 -92l-78 -78l-51 -43l-64 -47l-96 -51l-74 -35l-98 -35l-8 -6q-2 -2 -4 -2h18q33 8 101.5 26.5t83.5 22.5q26 6 186 50l70 10l57 2h53l74 -10l293 -72q12 -4 35 -4q30 0 57.5 14.5t40.5 38.5q14 25 14 59q0 15 -10.5 30.5t-22.5 21.5h-8 q-23 0 -57 -15q-2 0 -10 -8q-4 -4 -11 -4q-4 -4 -14 -4q-12 0 -20.5 7.5t-8.5 19.5q0 11 17 22q60 33 102 33q46 0 71 -28.5t25 -76.5q0 -46 -26 -87t-68 -60q-51 -21 -88 -21h-45l-67 7l-297 59q-29 0 -35 2q-21 0 -33 4l-10 2h-25l-55 -6l-98 -18q-107 -30 -129 -35 q-37 -10 -130 -33q-8 -2 -22 -2q-61 0 -61 51zM104 -31v13h7q6 1 20.5 4t20.5 4q15 4 44.5 12t45.5 12h-2q5 1 25 5.5t32 7.5l-29 -13l-98 -34l-8 -7q-1 0 -2 -1t-2 -1h18q33 8 99 26t85 23q41 10 187 50h6q8 -2 31 -2q5 -2 32 -2l295 -60l72 -6h47q15 0 43 4l21 -4 q12 -4 34 -4q30 0 58 14.5t41 38.5q14 25 14 60q0 17 -14 34q6 21 6 45q0 3 -1 8.5t-1 8.5q63 -18 63 -99q0 -46 -26 -87t-68 -60q-48 -20 -88 -20h-45l-68 6l-297 59q-28 0 -34 2q-21 0 -33 4l-10 2h-25l-55 -6l-99 -18q-107 -30 -129 -35q-44 -12 -129 -33q-8 -2 -22 -2 q-62 0 -62 51zM1038 1061l-69 -62l-51 9l-269 61q-6 1 -21.5 3t-21.5 3q-35 5 -41 6h-33q-83 0 -160.5 -31.5t-131.5 -96t-54 -146.5q0 -29 11 -62q-47 38 -64 86q11 113 111 199q84 71 198 111q5 0 7 2h30q5 -1 21.5 -3t21.5 -3q12 -4 19 -4q12 -3 22 -3l266 -61l97 -12h14 q31 0 47 4h51zM553 190l-10 -8h-11l-75 -10q-11 -4 -29 -8q4 3 13.5 9t13.5 9q7 5 20.5 15.5t20.5 15.5q15 12 36 33t41 37q6 7 41 47q6 7 21.5 23.5t21.5 23.5q19 30 39 57q17 25 58 80q-29 0 -43 2q8 10 30 49l-2 -2q0 2 2 4h47q2 2 5 8h63l-4 -8h162q11 0 17.5 -8.5 t6.5 -17.5q0 -18 -8 -23l-6 -4h-205q-36 -56 -53 -78q-9 -15 -27 -40.5t-24 -35.5l-84 -92zM936 684l-10 -14h-68q10 15 30.5 43t29.5 41l55 67l276 242l-8 -2q-61 -24 -100 -37q70 59 110 90q6 2 23 2q33 0 53 -22q6 -6 6 -23q0 -10 -8 -18q-105 -85 -266 -224 q-30 -30 -35 -36q-6 -6 -17 -18t-16 -17zM438 539q-67 0 -129 24.5t-106 69.5q67 -33 153 -33h4q31 -10 78 -10q60 0 107 20q5 -27 30 -30q15 0 23 -2q-65 -39 -160 -39zM717 793q0 -63 -31 -123h-65q43 53 43 125q0 2 -1 5t-1 5v37q0 26 26 26q8 0 16.5 -7.5t10.5 -14.5 q2 -18 2 -53zM1096 178q2 1 17.5 9t23.5 12q2 -4 2 -9q0 -23 -13 -49q-1 -2 -3 -5t-3 -5q-4 -2 -12 -2q-12 0 -20.5 7.5t-8.5 19.5q0 11 17 22z" />
<glyph unicode="[" horiz-adv-x="526" d="M131 -166q-21 0 -25 -2l-59 -6h-6q-17 0 -23 2l-10 2l283 1323q12 2 14 2h25l55 -4q4 -4 25 -4q45 0 69 27q11 8 19 28q0 1 1 7t2 9t4 6t7 3q9 0 12 -8l-4 -13q-24 -116 -108 -116h-9l-63 10l-260 -1219h2q42 10 74 10q86 0 61 -114q0 -11 -4 -15q-3 -6 -10 -6 q-6 0 -10 6v2l2 15q1 29 -17 42t-47 13zM422 1018l-238 -1108q-8 2 -28 2q-21 0 -31 -2l248 1161q4 0 8 2l20 -4h11q16 0 24 2l31 -2q4 -4 25 -4q45 0 69 27q11 8 19 28q0 1 1 7t2 9t4 6t7 3q9 0 12 -8l-4 -13q-24 -116 -108 -116h-9zM276 -303q3 48 -47 55q9 14 9 21l6 37 q43 -1 55.5 -38t-0.5 -77q0 -10 -4 -14q-3 -7 -10 -7q-6 0 -11 7v2zM131 -186q24 0 33 -7l-2 -8h2q1 0 2 1t2 1q6 -6 6 -18q-2 -21 -2 -23q4 -8 6 -10l-49 -6h-6q-17 0 -23 2l-10 2l12 64h9q4 2 20 2z" />
<glyph unicode="\" horiz-adv-x="847" d="M846 16q0 -16 -25 -16h-8q-80 25 -160 98q-3 4 -24 25t-23 24q-6 4 -24 27t-23 31q-29 37 -51 80q-22 34 -39 75l-250 584q-2 2 -8 11.5t-14 22.5t-11 17q-59 94 -153 140q-2 1 -9.5 4t-11 5t-7 6t-3.5 9q0 13 12 17h6q14 0 21 -5q40 -20 47 -24q6 -3 24 -16.5t21 -16.5 q59 -45 98 -90q6 -7 28.5 -36t25.5 -32l57 -86l59 -116l203 -500q1 -1 15.5 -25.5t17.5 -31.5q1 -2 7.5 -12.5t12.5 -20t9 -12.5q57 -75 170 -123q10 -3 10 -13zM686 172q0 -3 25 -43q-17 17 -29 35l-14 22q-7 10 -9 13q-1 1 -2 4t-2 4q-8 20 -22 41v-2q-1 2 -3.5 6 t-3.5 5.5t-1 0.5l-205 504l-58 112l-26 37q6 -7 13 -15.5t11.5 -14t6.5 -7.5l57 -86l59 -116zM928 -66q0 -16 -25 -16h-8q-64 20 -145 86q27 -15 57 -24h14q5 0 21 4q28 -16 76 -37q10 -3 10 -13zM113 1053l-6 3t-7 3t-6 3t-5 4t-3.5 5t-1.5 6q25 -20 29 -24z" />
<glyph unicode="]" horiz-adv-x="528" d="M2 -238q4 8 4 17q24 117 107 117h8l65 -11l263 1225h-3q-58 -10 -77 -10q-83 0 -58 121q2 8 2 12q4 4 11 4q10 0 10 -4l2 -4l-4 -15q0 -57 65 -57q19 0 27 4l57 6h17q6 -2 8 -2l14 -2l-282 -1331q-4 -4 -17 -4h-24l-56 6q-6 4 -24 4q-38 0 -64 -20q-16 -16 -18 -25 q-1 -1 -3 -6t-3 -6q0 -1 -1 -5.5t-2 -7t-2.5 -6t-4 -5t-5.5 -1.5q-9 0 -12 6zM84 -319q4 8 4 16q19 98 82 113l25 -3h26q4 3 8 3h2l37 -7l262 1225h-2q-3 -1 -8 -2t-8 -2l12 57l39 4h17q6 -2 8 -2l14 -2l-283 -1331q-4 -4 -16 -4h-24l-56 6q-6 4 -24 4q-38 0 -64 -20 q-16 -16 -18 -25q-1 -1 -3 -6t-3 -6q0 -1 -1 -5.5t-2 -7t-2.5 -6t-4 -5t-5.5 -1.5q-8 0 -12 7zM408 1030q-18 18 -21 49q13 0 33 4q-2 -9 -6 -26.5t-6 -26.5z" />
<glyph unicode="^" horiz-adv-x="950" d="M29 784q8 12 132 197.5t132 198.5q25 35 40 54.5t39 44t49 35.5t52 11q81 0 152 -102q50 -31 90 -95l289 -415q12 -21 12 -47q0 -31 -14 -50.5t-37 -19.5q-7 0 -12.5 1.5t-11.5 7t-8.5 7.5t-10 12.5t-9.5 12.5q-5 5 -30 41q-7 0 -12.5 1.5t-11.5 7t-8.5 7.5t-10 12.5 t-9.5 12.5q-83 116 -266 379q-4 2 -10 2q-17 0 -36.5 -15t-28.5 -26t-29 -37q-4 -10 -131 -200t-131 -197q-14 -22 -24.5 -31.5t-27.5 -9.5q-22 0 -35.5 19.5t-13.5 49.5q0 23 4 33q-14 -20 -36 -20t-36 20t-14 49q0 26 13 49zM377 1102l18 24q-12 -16 -16 -22z" />
<glyph unicode="_" horiz-adv-x="1146" d="M119 -459q2 9 9 17t15 8h1035q19 0 14 -25q-5 -26 -23 -26h-1038q-6 0 -10 9t-2 17zM37 -377q2 9 9 17t15 8h1035q19 0 14 -25q-5 -26 -23 -26h-1038q-6 0 -10 9t-2 17z" />
<glyph unicode="`" horiz-adv-x="251" d="M152 1128l81 -172h-90l-135 172h144zM233 1047l82 -173h-90l-49 62h76l8 12l-47 99h20z" />
<glyph unicode="a" horiz-adv-x="780" d="M23 170v31q0 1 1 10.5t1 11.5l6 29l14 43l14 41l23 39l31 47l34 37l31 33l43 32l35 25l82 37q8 0 24 8q30 6 62 6q71 0 121 -47q14 -14 26 -35h2l17 55q6 11 12 11h82q6 0 6 -9v-4l-131 -462q-2 -4 -2 -17q0 -35 33 -35q28 0 61 29q0 2 2.5 4.5t5.5 3.5l3 2l22 27l72 102 v-2q2 0 2 -12v-8q0 -21 -2 -31q-8 -47 -54 -100q-64 -64 -127 -64q-54 0 -96 45q-1 1 -7 8.5t-7 8.5q0 2 -3.5 6t-4.5 4v2l-37 -29q-3 0 -12.5 -4.5t-12.5 -7.5q-78 -41 -176 -41h-18q-81 3 -129 51q-42 48 -49 119zM137 223q0 -59 21.5 -106.5t72.5 -61.5q12 -4 37 -4 q105 0 183 88q4 6 4 8q2 1 7.5 8t6.5 7q2 2 5 7.5t5.5 9.5t3.5 5l19 39l18 45l17 62l6 37q2 2 2 32v9q0 65 -30 105t-93 40q-30 0 -60 -6q-8 -2 -10 -4q-81 -27 -131 -92q-7 -14 -16 -23l-21 -37l-22 -45l-12 -43q0 -1 -3.5 -13t-3.5 -16q-4 -4 -4 -26q-2 -17 -2 -25z M772 489l-98 -344q-4 -8 -6 -10t-10.5 -11t-10.5 -11l-10 -11q-29 -24 -47 -24q-12 0 -12 14q0 6 4 14l110 396h74q6 0 6 -8v-5zM158 223l2 23q0 16 4 20q0 19 2 23v-2q1 1 2 4.5t2 5.5l2 8l23 35l34 37l31 33l43 32l35 25l82 37q8 0 24 8q20 4 33 4q24 -15 37 -45h-10 q-30 0 -60 -6q-8 -2 -10 -4q-81 -27 -131 -92q-7 -14 -16 -23l-21 -37l-22 -45l-13 -43q0 -1 -3 -13t-3 -15q-4 -4 -4 -27q-2 -17 -2 -25q0 -43 6 -63q-67 29 -67 145zM154 -31q-3 3 -8.5 10.5t-8.5 10.5q18 -5 64 -10h18q22 0 68 4q19 -10 26 -11q12 -4 37 -4q74 0 139 49 q23 -16 43 -22l-30 -25q-3 0 -12.5 -4.5t-12.5 -7.5q-78 -41 -176 -41h-18q-81 3 -129 51zM547 -12q0 1 -1 2t-1 2q20 -4 30 -4q24 0 64 12q4 -25 33 -25q28 0 61 29q0 2 2.5 4.5t4.5 3.5l3 2l23 27l72 102v-2q2 0 2 -12v-8q0 -21 -2 -31q-8 -47 -54 -100q-64 -64 -127 -64 q-54 0 -96 45q-1 1 -7 8.5t-7 8.5z" />
<glyph unicode="b" horiz-adv-x="598" d="M12 121v12l41 250l283 1176q8 46 8 69q0 41 -18 41q-13 0 -32.5 -20.5t-27.5 -36.5q-3 -4 -9.5 -21t-6.5 -20q-10 -10 -21 -10q-9 0 -15.5 6.5t-6.5 15.5q0 4 2 10q16 41 33 60q21 31 52.5 51t65.5 20q27 0 48.5 -12t27.5 -37q6 -12 6 -18v-45l-8 -60l-252 -1075 q47 54 111.5 85.5t132.5 31.5q71 0 111.5 -39.5t46.5 -110.5v-26q0 -98 -47 -185t-127 -147q-111 -86 -232 -86q-57 0 -103.5 20t-60.5 66q-2 12 -2 35zM109 119q0 -76 77 -76q54 0 109.5 25.5t89.5 66.5q41 41 68 107q36 77 36 153q0 57 -27 98.5t-81 41.5q-86 0 -157 -76 t-87 -164l-24 -107l-4 -59v-10zM516 1470l-207 -876q-43 -16 -90 -53l236 1005l8 64v30q47 -11 55 -47q6 -12 6 -18v-45zM260 -82q-51 0 -95 16.5t-63 53.5q33 -8 76 -8q21 0 31 2q18 -21 59 -21q54 0 109.5 25.5t89.5 66.5q41 41 68 107q21 50 28 88q41 80 41 170v28 q-4 30 -8 43q61 -37 70 -127v-26q0 -98 -47 -185t-127 -147q-111 -86 -232 -86zM129 119v10q0 9 2 27.5t2 27.5l25 107q11 55 45 108t82 84l-21 -88q68 78 164 105q21 -18 31 -47q-84 -1 -154 -77.5t-86 -162.5l-24 -107l-5 -43h-4q-57 0 -57 56zM291 1511q14 36 22 48 l-16 -76q-8 5 -8 18q0 4 2 10z" />
<glyph unicode="c" horiz-adv-x="550" d="M37 125q-16 50 -14 78q3 121 81 225q3 2 13.5 13.5t13.5 13.5q3 6 27 30l49 39l43 29q1 1 5.5 3t10 4t6.5 3q66 29 127 29q49 0 91 -21.5t42 -64.5q0 -57 -61 -78q-1 -1 -16 -6q-5 -2 -9 -2q0 7 2.5 21t2.5 20q0 90 -84 90q-89 0 -160 -107q-1 -2 -7 -12t-7 -12 q-20 -40 -23 -43q0 -5 -10 -25l-13 -53l-12 -47q0 -8 -1 -30t-1 -34q0 -135 96 -135q19 0 58 13l20 8l41 18l103 60q4 8 14 8q4 0 4 -2q0 -7 -6 -13q-36 -50 -86 -88q-74 -57 -156 -57q-100 0 -162 78q0 1 -5 8.5t-5 9.5q-2 4 -6 14.5t-6 14.5zM215 106v-32q-61 10 -61 114 q0 6 1 18t1 17v29q0 2 2 4v-2q12 36 8 35q3 15 10 43q1 2 4.5 6.5t5.5 7.5q3 2 13.5 13.5t13.5 13.5q3 6 27 30l49 39l43 29q1 1 5.5 3t10 4t6.5 3q24 12 66 23q6 -10 10 -37q-79 -10 -141 -105q-1 -2 -7.5 -12t-7.5 -12q-21 -42 -22 -43q0 -5 -10 -25l-13 -53l-12 -47 q0 -8 -1 -30t-1 -34zM303 -82q-97 0 -160 76q44 -14 78 -14q13 0 41 4q26 -13 49 -13q19 0 58 13l20 8l41 18l102 60q4 8 15 8q4 0 4 -2q0 -7 -6 -13q-36 -50 -86 -88q-74 -57 -156 -57zM532 379q0 34 -12 55q30 26 33 64q61 -22 61 -74q0 -57 -61 -78q-1 -1 -16 -6 q-5 -2 -9 -2q0 7 2 21t2 20z" />
<glyph unicode="d" horiz-adv-x="768" d="M4 182q0 104 66 204t161 161q77 43 142 43q81 0 125 -41q1 -1 10 -11t14 -14l2 2l254 1065q0 3 2 22t2 25q0 1 2 10t2 11v2q0 14 -5 29.5t-15 15.5q-19 0 -47 -45q-14 -17 -31 -55q-3 -11 -20 -11q-19 0 -19 23q0 3 -1 5q1 2 1 3q56 135 158 135h14q49 -9 64 -55 q2 -8 2 -10v-49l-8 -60l-330 -1448q-2 -12 -2 -39q0 -32 18 -32q16 0 34.5 13.5t29.5 27.5l80 110l10 10v-18q0 -39 -12 -61q-70 -140 -185 -140q-35 0 -56.5 21.5t-23.5 56.5q-111 -88 -249 -88h-27q-73 6 -117.5 57t-44.5 125zM121 217q0 -53 21.5 -98.5t66.5 -55.5 q12 -6 35 -6q70 0 131 41.5t86 106.5q9 18 20 51l21 80l10 59v17q0 33 -2 45q-9 46 -45.5 73t-83.5 27q-75 0 -135 -50.5t-92 -125.5q-33 -97 -33 -164zM961 1505l-302 -1319l-47 -65q-28 -33 -47 -33q2 2 2 12q0 25 2 35l330 1446l8 64v32q45 -9 60 -53q2 -8 2 -10v-49z M141 217q0 37 11 86q61 98 161 162q77 43 142 43h2q19 -19 26 -35q-8 2 -20 2q-75 0 -135 -50.5t-92 -125.5q-33 -97 -33 -164q0 -15 4 -51q-34 11 -50 50.5t-16 82.5zM248 -82q-79 6 -127 70q13 -4 43 -8h29q43 0 79 8l19 -6q14 -7 35 -7q68 0 129 39q19 -19 49 -22 q-107 -74 -230 -74h-26zM604 -72q-30 0 -51 17t-27 45q60 3 103 30v-2q0 -32 18 -32q16 0 34.5 13.5t29.5 27.5l80 110l10 10v-18q0 -38 -13 -61q-70 -140 -184 -140zM731 1544q7 21 27 53v-2l-19 -79q-8 5 -8 20q0 3 -1 5q1 2 1 3z" />
<glyph unicode="e" horiz-adv-x="550" d="M20 219q0 8 5 53q6 18 6 27l16 41l14 35l19 33l24 34l35 37l33 33l41 33l31 18q6 6 14 10q3 0 12 4.5t11 6.5q2 1 11 4t11 4q41 12 82 12h14q61 -3 95 -36t34 -93q0 -69 -47 -113q-14 -14 -22 -18q-21 -14 -25 -18l-35 -21l-45 -20l-39 -13l-59 -14q-2 0 -16 -2t-17 -2 q-2 0 -17 -2t-18 -2h-12l-39 4q-2 -2 -2 -4v-31q0 -3 1 -13t1 -11l4 -33q0 -9 6 -21q18 -79 78 -92q21 -6 41 -6q30 0 60 10q12 0 20 8q20 10 25 15l30 20l27 21l90 86h2q0 -35 -26 -78q0 -1 -6.5 -9t-6.5 -10l-18 -18l-23 -20l-39 -27q-2 -2 -18 -10q-24 -15 -53 -21 q-12 -6 -25 -6l-37 -4h-37l-28 2q-11 0 -19 4q-74 17 -119 77t-45 136zM141 299l37 -2h10q4 0 16 1t13 1q25 0 33 4l37 8q4 0 28 8q1 1 9.5 4.5t9.5 4.5q71 30 90 92q12 30 12 57q0 52 -33 70q-2 1 -7 3t-7 3q-21 6 -39 6q-75 0 -127 -74q-10 -10 -18 -26q-15 -15 -15 -25 l-20 -43l-16 -43l-13 -47v-2zM223 217l37 -2h10q4 0 16 1t13 1q25 0 33 4l37 8q1 0 28 9q1 1 9.5 4t9.5 4q71 30 90 92q8 22 10 35q33 51 33 102q0 11 -4 31q65 -29 65 -113q0 -68 -47 -112q-16 -16 -22 -19q-21 -14 -25 -18l-35 -21l-45 -20l-39 -13l-59 -14q-2 0 -16 -2 t-17 -2q-2 0 -17 -2t-18 -2h-12l-39 4q-2 -2 -2 -4v-31q0 -3 1 -13t1 -11l4 -33q0 -6 2 -10q-43 12 -57 75q-6 12 -6 17l-4 33q0 7 -1 15t-1 9v10h32q19 0 25 2q3 0 6 1t4 1h4l-4 -14v-2zM266 -76q-66 14 -114 72q5 -2 14 -5t14 -5q8 -4 23 -4l28 -2h37l6 2q15 -9 33 -15 q21 -6 41 -6q30 0 60 10q11 0 20 9q22 11 25 14l30 20l27 21l90 86h2q0 -34 -27 -78q0 -1 -6 -8.5t-6 -9.5q-2 -1 -6 -5t-8 -9l-4 -5l-23 -20l-39 -27q-2 -2 -18 -10q-24 -15 -53 -21q-12 -6 -25 -6l-37 -4h-37l-28 2q-11 0 -19 4zM168 317q0 1 4 23l2 2l12 18l35 37l33 33 l41 33l31 18q8 8 14 11q3 0 11.5 4t10.5 6q2 1 11.5 4t11.5 4q3 1 10 2t11 2q10 -17 10 -37v-2q-68 -9 -111 -72q-10 -10 -18 -26q-15 -15 -15 -25l-12 -26l-14 -2q-10 -5 -29 -5h-8q-3 0 -11 -1t-10 -1h-20z" />
<glyph unicode="f" horiz-adv-x="483" d="M-164 -432q0 29 19.5 48t48.5 19h10q0 -6 1 -27t1 -26q0 -12 8.5 -22.5t22.5 -10.5q32 0 56.5 31t35.5 68q1 3 5.5 20t4.5 19l144 776h-150q-6 0 -11 6t-5 12q0 8 5 18.5t11 10.5h158l149 809q0 6 12.5 47.5t14.5 52.5q4 8 19.5 48.5t17.5 45.5q39 92 102 157t148 65h18 q32 -4 49 -26.5t17 -55.5v-17q-4 -21 -20 -33t-38 -12q-2 0 -6.5 -0.5t-8 -0.5h-7.5t-6.5 1.5t-2.5 3.5q11 37 11 58q0 33 -31 33q-48 0 -88 -70q-8 -8 -8 -21l-37 -98l-203 -987h139q1 0 5.5 -3t5.5 -3q8 -12 8 -23q0 -7 -5.5 -12.5t-13.5 -5.5h-147l-127 -621 q0 -7 -12 -49.5t-19 -58.5q-4 -24 -35 -86q-34 -73 -73 -116.5t-101 -43.5h-14q-34 6 -56 27.5t-22 52.5zM-4 -594q-64 14 -76 62h8q42 0 72 18q7 -18 29 -18q32 0 56.5 30.5t35.5 67.5q1 3 5.5 20t4.5 19l19 104q2 5 4.5 12t3.5 9q7 17 17.5 56.5t12.5 51.5q20 99 62 301.5 t61 302.5h76l-2 -14h139q1 0 5.5 -3t5.5 -3q8 -12 8 -23q0 -7 -5.5 -12.5t-13.5 -5.5h-147l-127 -621q0 -7 -12 -49.5t-19 -58.5q-4 -24 -35 -86q-34 -73 -73 -116.5t-101 -43.5h-14zM588 1415l-182 -889q-32 0 -78 4q34 162 99 481.5t99 481.5v2q56 91 119 129 q-2 -6 -6 -22q0 -32 16 -35q-9 -11 -22 -33q-8 -8 -8 -21zM752 1571q0 12 -4 20q13 13 20 41v21q29 -6 45 -28.5t16 -53.5v-17q-9 -45 -57 -45q-2 0 -6.5 -0.5t-8 -0.5h-7.5t-6.5 1.5t-2.5 3.5q11 37 11 58zM109 399q0 8 5 18.5t11 10.5h39l-8 -47h-31q-6 0 -11 6t-5 12z " />
<glyph unicode="g" horiz-adv-x="716" d="M41 -293q0 39 24.5 68.5t63.5 29.5q23 0 37 -12.5t14 -36.5q0 -28 -30 -41q-7 0 -11 -2q-16 -13 -16 -37q0 -45 70 -45q117 0 194 140q0 4 10 24q3 5 9.5 20.5t7.5 16.5l57 231l-109 -57l-32 -16q-47 -17 -99 -17q-116 0 -170 76q-31 39 -38 103v18q0 59 26 129 q19 55 66 115q75 99 209 161q59 27 114 27q75 0 137 -59q11 -14 17 -27h2l18 57q0 11 13 11l65 4h4q8 0 8 -6v-4l-178 -689l-24 -69q-2 -2 -11 -21.5t-12 -23.5q-65 -130 -196 -174q-49 -11 -82 -11t-70 11q-40 13 -64 40.5t-24 65.5zM143 188q0 -25 7 -53q23 -78 79 -94 q21 -6 45 -6q34 0 72 10q109 39 160 143q6 25 14 33l17 58l16 83l6 46v8q0 62 -31 98.5t-92 36.5q-47 0 -82 -14q-84 -34 -143 -115q-11 -22 -16 -27q-1 -5 -10 -22t-9 -19l-22 -55q0 -1 -2 -9.5t-2 -10.5q-7 -44 -7 -72v-19zM211 -481q-59 20 -78 59q40 -8 66 -8h14 q16 -21 61 -21q118 0 195 140q0 4 10 24q3 5 9.5 20.5t7.5 16.5l6 25q4 12 8 18l6 14l33 97l156 598h2l65 4h4q8 0 8 -6v-4l-178 -689l-24 -69q-2 -2 -11 -21.5t-12 -23.5q-65 -129 -197 -174q-49 -11 -81 -11q-33 0 -70 11zM164 188v19q0 30 6 67q0 9 2 13l-2 2l6 14 q7 11 21 29q76 101 209 162q38 18 83 24q28 -15 41 -49h-12q-47 0 -82 -14q-84 -34 -143 -115q-10 -20 -17 -27q-1 -5 -9.5 -22t-8.5 -19l-22 -55q0 -1 -2.5 -9.5t-2.5 -10.5q-6 -37 -6 -72v-19q0 -15 4 -43q-44 21 -59 78v-2q-6 24 -6 49zM313 -109q-114 0 -168 74 q41 -12 86 -12q38 0 74 8q4 0 6 -2q21 -6 45 -6q32 0 70 10q-7 -23 -14 -55q-47 -17 -99 -17zM262 -326v-4q-41 -18 -69 -18q-50 0 -50 24q0 13 2 17l2 2h7q20 9 34 26q9 3 23 3q23 0 37 -13t14 -37z" />
<glyph unicode="h" horiz-adv-x="751" d="M14 51l338 1512q8 33 8 71v17q-6 24 -16 24q-16 0 -25 -14q-33 -28 -53 -84q-8 -10 -20 -10q-23 0 -23 22q0 10 10 25q23 52 63 88.5t91 36.5q43 0 58.5 -27t15.5 -74v-16l-8 -61l-330 -1469l-8 -20q11 7 30 34l27 44l129 249l43 70q1 1 10 15t11 16q85 100 176 100 q48 0 70 -31.5t22 -83.5v-14l-4 -51l-60 -223q-10 -34 -10 -78q0 -58 25 -58q26 0 61 41l78 91l18 18v-12q0 -70 -84 -150q-53 -49 -116 -49q-76 0 -76 96q0 38 4 54l72 288l8 58v10q0 45 -29 45q-20 0 -35 -6q-44 -20 -92 -86q-7 -7 -20 -26t-13 -23l-149 -283l-12 -21 q-12 -20 -17 -26q-59 -80 -121 -80q-47 0 -47 27v24zM535 1479l-234 -1041l-29 -47q-22 -41 -57.5 -112t-52.5 -103l311 1378l8 66v37q62 -7 62 -101v-16zM96 -31l4 17q49 17 99 82q10 10 20 34q2 2 3.5 5l2.5 5t2 3l2 2l-24 -107l-8 -20q10 6 30 35l27 43l129 249l43 70 q1 1 9.5 15t10.5 16q41 49 80 71q-1 -8 -3 -23.5t-3 -23.5q-1 -3 -2 -7.5t-2 -6.5q-21 -21 -41 -51q-7 -7 -20 -26t-13 -23l-149 -283l-12 -21q-12 -20 -17 -26q-59 -80 -121 -80q-47 0 -47 27v24zM711 338l-49 -182l-33 -39q-29 -35 -45 -35q-4 0 -4 37t10 71l59 226l4 55 v14q0 21 -2 29q64 -17 64 -111v-14zM623 -82q-60 0 -74 62q42 3 92 32q4 -32 25 -32q27 0 61 40l78 91l18 18v-12q0 -70 -84 -150q-53 -49 -116 -49zM315 1532q7 18 15 31l-17 -76q-8 8 -8 20q0 10 10 25z" />
<glyph unicode="i" horiz-adv-x="356" d="M63 92v12q0 5 2.5 21.5t2.5 17.5l79 301q5 22 5 62v10q0 23 -9 23q-3 0 -8.5 -3t-7.5 -4l-10 -8l-92 -86q-1 0 -9 -8l-6 -2q0 -2 -4 -2v4q17 34 23 43q17 34 26 43q0 2 4.5 8.5t11 14.5t7.5 10l10 10q2 2 10 9.5t10.5 10t10.5 9t11.5 9t11 6.5t12.5 6t12 3.5t14 1.5 q33 0 53.5 -26.5t20.5 -59.5v-4l-10 -73l-84 -295q-6 -12 -6 -47q0 -52 28 -52q26 0 47 25q21 21 21 24l84 109l8 8v-16q0 -71 -63 -141q-62 -66 -134 -66q-47 0 -64.5 22.5t-17.5 69.5zM326 369l-60 -209l-37 -47q0 -3 -16 -19t-31 -16q-8 0 -8 31q0 29 8 45l82 288l10 80 v8q28 -4 45 -29t17 -55v-4zM227 -82q-70 0 -80 62q43 0 89 24q8 -29 28 -29q26 0 47 25q21 21 21 25l84 108l8 8v-16q0 -70 -64 -141q-62 -66 -133 -66zM186 831q0 25 17.5 42.5t44.5 17.5q24 0 40.5 -17.5t16.5 -42.5q0 -26 -17 -44.5t-40 -18.5q-27 0 -44.5 18.5 t-17.5 44.5zM268 750q41 13 54 59h8q25 0 41 -17t16 -42q0 -26 -17 -45t-40 -19q-27 0 -44.5 19t-17.5 45zM88 348q19 38 21 41l-9 -39l-2 -2l-6 -2q0 -2 -4 -2v4zM111 391l-2 -2l2 4v-2z" />
<glyph unicode="j" horiz-adv-x="313" d="M-209 -238q0 25 14.5 41.5t40.5 16.5q25 0 25 -23q0 -6 -2 -18.5t-2 -18.5q0 -14 8.5 -27.5t22.5 -13.5t28.5 15t20.5 28l37 84l43 129l123 498q4 24 4 37q0 25 -9 25q-4 0 -8 -2.5t-9 -7t-7 -5.5l-84 -78q-10 -10 -14 -10q-5 0 -5 4q0 2 2.5 6.5t2.5 6.5q2 2 11.5 19 t10.5 19q24 45 62.5 80t80.5 35h11q45 -11 45 -82v-14q0 -39 -4 -43l-115 -475l-35 -94l-33 -70q-1 -1 -5 -9t-9.5 -18t-7.5 -14q-59 -94 -148 -94h-16q-31 3 -55.5 23t-24.5 50zM-47 -393q-27 3 -50.5 19.5t-27.5 41.5h12q32 0 62 10q0 -14 8.5 -27t22.5 -13t28.5 15 t20.5 28l37 83l30 97l10 18l44 119q19 79 55 230.5t55 230.5l-4 -6q8 20 8 53v14h17q45 -11 45 -82v-14q0 -39 -4 -43l-115 -475l-35 -94l-33 -70q-1 -1 -5 -9t-9.5 -18t-7.5 -14q-59 -94 -148 -94h-16zM201 844q0 22 15.5 37.5t35.5 15.5q24 0 39.5 -15.5t15.5 -37.5 q0 -24 -15 -41t-38 -17q-22 0 -37.5 17.5t-15.5 40.5zM283 762v10q30 13 39 41q4 2 12 2q24 0 39.5 -15.5t15.5 -37.5q0 -24 -15 -40.5t-38 -16.5q-22 0 -37.5 17t-15.5 40z" />
<glyph unicode="k" horiz-adv-x="747" d="M8 4l266 1233l68 190l37 91l51 92q1 3 10 18.5t11 18.5q75 106 178 106q43 0 70.5 -19t27.5 -59q0 -33 -23.5 -51t-56.5 -18v30q0 56 -41 56q-23 0 -49 -20t-39 -44l-26 -57l-68 -195l-231 -962q30 24 75 24q34 0 62 -14q5 -3 14.5 -11t13.5 -10h2l2 3l91 110l30 31 q59 51 111 51q36 0 55 -21t19 -57q0 -27 -16 -47t-44 -20h-6l-8 2v49q0 10 -6.5 22t-16.5 13h-8q-23 0 -61 -33l-33 -33q-48 -60 -49 -61q-3 -6 -10 -16t-12 -17t-5 -8l23 -37l86 -172q0 -8 22 -37q19 -19 19 -25q18 -22 39 -22q36 0 63 67q1 3 12.5 31.5t14.5 34.5l6 14 q8 8 8 15l2 2q6 -16 6 -47q0 -65 -41 -121.5t-104 -69.5h-14q-81 0 -115 86q-2 2 -6 15t-4 14q-11 28 -11 45l-18 121q-9 26 -23 49q-55 -47 -96 -47q-28 0 -51 14t-33 41l-2 -4l-57 -258q-9 -42 -31 -59.5t-65 -20.5h-15v4zM506 1294l-203 -839q-24 4 -35 4q-31 0 -45 -4 q38 160 110.5 459t110.5 458l-2 -2q3 9 14 39.5t17 48.5l39 70q1 3 10 19t10 18q41 61 93 86q2 -4 2 -15v-51h6q-24 -20 -33 -39l-27 -57zM90 -78l19 90q21 21 30 64q8 37 24.5 107.5t24.5 107.5q28 -25 74 -25q25 0 41 8q6 -20 39 -20q15 0 23 2q1 -7 6 -47q-8 -4 -27 -4 q-28 0 -51 14t-33 41l-2 -4l-57 -258q-9 -41 -31.5 -59t-65.5 -21h-14v4zM616 -78q-71 0 -104 64q8 -2 23 -2h18q44 10 72 32q16 -20 39 -20q36 0 63 67q1 3 12.5 31.5t14.5 34.5l6 14q8 8 8 15l2 2q6 -16 6 -47q0 -65 -41 -121.5t-104 -69.5h-15zM475 289l23 -37l75 -152 q-10 6 -12 11q3 -12 -14 13q-2 3 -5 9q-2 3 -3 4q-17 26 -17 29l-80 156l2 2l91 110l30 31q4 4 8 6v-37l19 -2l-41 -41q-48 -60 -49 -61q-3 -6 -10 -16t-12 -17t-5 -8zM729 1554q0 39 -22 50q38 23 41 63q61 -14 61 -74q0 -33 -23.5 -51t-56.5 -18v30zM676 422q0 20 -14 31 q22 22 26 63q62 -9 62 -78q0 -27 -16 -47t-44 -20h-6l-8 2v49zM221 362q0 -12 12.5 -19t26.5 -7q39 0 66 31q-20 26 -58 26q-17 0 -32 -7.5t-15 -23.5zM242 362q0 11 26 11q7 0 15 -4l-2 -9q-6 -4 -21 -4q-18 0 -18 6z" />
<glyph unicode="l" horiz-adv-x="294" d="M10 98v15q6 41 20.5 123.5t20.5 123.5l287 1223l6 53v13v5q0 13 -0.5 20t-4.5 14.5t-13 7.5q-17 0 -35 -23l-6 -6q-25 -25 -39 -72q-8 -8 -19 -8q-7 0 -12.5 6.5t-5.5 14.5q0 10 6 22q27 55 60.5 86t84.5 31q64 0 78 -49q4 -8 4 -23v-39q-1 -10 -4 -30.5t-4 -30.5 l-313 -1364l-15 -88v-21q0 -43 23 -43q17 0 45 23q27 27 45 57q12 18 34.5 51.5t33.5 51.5v-17q0 -75 -60.5 -150t-132.5 -75q-42 0 -63 26.5t-21 71.5zM516 1493l-305 -1329q-2 -2 -5.5 -7t-4.5 -7q-16 -29 -39 -52q-30 -18 -33 -18q-2 0 -2 22v19q2 14 7 43t7 43l314 1364 q0 11 4 31q1 5 2 15t2 15v31q46 -6 57 -47q4 -8 4 -23v-39q-1 -10 -4 -30.5t-4 -30.5zM176 -82q-67 0 -80 62q40 0 92 32q0 -35 23 -35q17 0 45 23q27 27 45 57q12 17 34.5 51.5t33.5 51.5v-17q0 -75 -60.5 -150t-132.5 -75zM297 1548q14 28 20 37l-18 -78q-8 5 -8 19 q0 10 6 22z" />
<glyph unicode="m" horiz-adv-x="1243" d="M72 47v6q0 6 1 21l1 14l92 356l8 45v7q0 28 -18 28q-11 0 -17 -6l-108 -108h-2v4l12 37q6 26 22 49q31 42 82 75q31 23 58 23q33 0 51 -25.5t18 -60.5v-10l-16 -84l-74 -295q-6 -24 -6 -31v-4h4q4 4 4 6q2 1 6 5.5t5 4.5l182 320l37 51q5 10 28 33q3 5 17 19.5t18 17.5 q62 51 115 51q40 0 67 -24.5t27 -63.5v-8l-10 -72l-66 -295l-6 -45l10 12l37 60l125 237l43 64l33 43q0 2 20 22q82 74 152 74q41 0 60.5 -28.5t19.5 -71.5q0 -25 -4 -35l-78 -359q-2 -4 -2 -12q0 -14 8 -22.5t21 -8.5q5 0 9.5 1t9 3.5t7.5 4t8 6t7 6t7.5 7.5t6.5 7l10 13 l80 110l8 11q8 10 12 14h3v-17q0 -56 -54 -125q-69 -104 -159 -104q-50 0 -66 39q-6 6 -6 18v29l16 113l53 258q3 15 3 32v15q-4 35 -27 35q-18 0 -43 -21q-10 -4 -25 -18q-1 -1 -6.5 -7.5t-10.5 -11.5t-7 -6l-33 -41l-45 -69l-127 -244q-1 -2 -13.5 -20t-15.5 -23 q-10 -16 -41 -47q-36 -29 -69 -29q-36 0 -39 21q0 2 -1 12t-1 12v10l2 35l78 348q0 1 1 7t2 14t1 12q2 8 2 23v14q-4 31 -27 31q-17 0 -47 -25q-27 -24 -39 -37q-2 -2 -11.5 -13.5t-10.5 -12.5l-48 -70l-145 -260q-11 -11 -25 -39q-62 -84 -118 -84q-27 0 -35 10t-8 37z M154 -35v23q44 15 96 84q15 30 26 41q4 6 11 20l-23 -92q-6 -24 -6 -31v-4h4q4 4 4 6q2 1 5.5 6t4.5 5l183 319l37 51q5 10 28 33q3 5 17 19.5t18 17.5l2 2q0 -2 -1 -7t-1 -7l-14 -66l-13 -14l-47 -70l-145 -260q-11 -11 -25 -39q-62 -84 -118 -84q-27 0 -35 10t-8 37z M582 -10q25 11 41 24q31 31 45 54v-2q1 1 7.5 10.5t10.5 15.5l-2 -2q13 18 14 21l13 24l-19 -84l-6 -45l10 12l37 60l125 237l43 64l33 43q0 2 20 22q11 11 27 23v-6l-14 -68l-33 -41l-45 -69l-127 -244q-1 -2 -13.5 -20t-15.5 -23q-10 -16 -41 -47q-36 -29 -69 -29 q-36 0 -39 21q0 2 -1 12t-1 12v25zM1182 383l-45 -207q-30 -38 -39 -53q-7 -8 -11 -12q-27 -27 -38 -27q-9 0 -9 10q0 4 2 8q13 59 39.5 179t38.5 180l-2 -2q6 14 6 41v16q32 -6 47 -33.5t15 -64.5q0 -25 -4 -35zM1020 -43q-6 6 -6 18v5q44 3 88 32q0 -30 28 -30q22 0 56 34 l10 13l80 110q0 1 8 11t12 14h2v-17q0 -56 -53 -124q-30 -45 -71.5 -75t-88.5 -30q-49 0 -65 39zM354 430v-4q-23 -43 -69 -120t-64 -109l55 217l17 84v18q29 -3 45 -28t16 -58zM768 426v-4l-12 -19l-111 -210l51 229l11 76v10q28 -8 44.5 -29.5t16.5 -52.5zM123 369 l-10 -41h-2v4zM125 381l4 10q-1 -2 -2 -5.5t-2 -4.5zM123 369q0 2 1 6t1 6z" />
<glyph unicode="n" horiz-adv-x="837" d="M72 45v4l2 37l96 379q1 2 3 13.5t3 13.5v12q0 26 -18 26q-14 0 -19 -8l-108 -108h-2v-2q-2 0 -2 4q1 2 7 23t11 32q23 51 72 90q1 1 10 7t10 7q37 29 68 29q33 0 51 -26t18 -60v-6l-10 -70l-84 -331v-9l4 2l181 299l51 70l51 62l25 20l22 16q1 0 5.5 4t6.5 5q43 24 82 24 q43 0 64.5 -29.5t21.5 -74.5v-2l-2 -21l-18 -90l-49 -199l-13 -63v-21q0 -41 27 -41q13 0 41 19q8 4 16 12q2 2 11 10t10 9l94 114l4 6v-10q0 -42 -39 -106q-16 -16 -16 -21l-27 -28q-20 -20 -22 -21q-61 -47 -119 -47q-74 0 -74 82v18l4 39l68 320q4 4 4 22v13q0 45 -27 45 q-18 0 -41 -19q-12 -6 -20 -14q-2 -2 -12 -11t-11 -10l-30 -34l-43 -60l-179 -295l-28 -41q-2 0 -10 -8q-43 -47 -82 -47q-22 0 -30.5 10.5t-8.5 34.5zM154 -37v29q26 11 53 41q1 1 0 1q-1 1 -4 1l16 8l29 41q10 16 47 78l-33 -133v-9l4 3l180 299l52 69l51 62l22 18v-2 l-16 -78l-20 -22l-43 -60l-179 -295l-28 -41q-3 0 -11 -8q-43 -47 -81 -47q-22 0 -30.5 10.5t-8.5 34.5zM756 305l-41 -164q-2 -3 -7.5 -8t-7.5 -8l-4 -2l-14 -14q-8 -8 -14 -11q-18 -14 -29 -14q-6 0 -6 20v17q2 9 6 31.5t6 31.5l49 199l19 90q0 19 2 25q0 14 -2 20 q63 -14 63 -100v-2l-2 -21zM674 -82q-64 0 -74 62q44 3 94 30q4 -28 27 -28q14 0 41 18q8 4 16 12q2 2 11 10t10 9l94 114l4 7v-11q0 -42 -39 -106q-16 -16 -16 -21l-27 -28q-20 -20 -22 -21q-61 -47 -119 -47zM356 430l-2 -4l-10 -16l-115 -191l56 217l10 74v12 q29 -4 45 -29t16 -57v-6zM127 389q1 2 2 5.5t2 4.5l-16 -65l-2 -2h-2v-2q-2 0 -2 4q1 2 7 23t11 32z" />
<glyph unicode="o" horiz-adv-x="665" d="M23 238q0 42 16 88q0 3 4 13.5t6 12.5q0 3 4 12t6 11l23 37l29 34l36 33l60 51l43 27q18 10 22 14q74 31 136 31h14q20 0 24 -4l29 -4q11 0 27 -8t22 -8q89 -44 113 -132q0 -10 6 -22q2 -19 2 -25v-32l-2 -33l-8 -35q-1 -1 -4 -12t-4 -13q-8 -24 -13 -24l-16 -33l-27 -39 l-30 -37l-37 -39l-31 -24l-31 -23l-26 -14l-33 -16l-33 -11l-28 -8q-2 0 -13 -2t-14 -2q-2 0 -11.5 -1t-11.5 -1h-28q-4 0 -19 1t-16 1l-27 6q-8 2 -10 2q-81 28 -121 103q0 1 -3 8t-3 8q-1 2 -3.5 8t-4.5 10.5t-2 6.5l-6 26q0 2 -2 12t-2 13q-2 4 -2 18v15zM135 184 q12 -93 62 -121q31 -16 69 -16h17q42 5 51 8q16 0 24 8l31 15q1 0 25 12q51 33 82 82q2 3 7.5 13.5t6.5 11.5l16 39q2 2 5.5 12t3.5 14q8 24 8 31l8 37v55q0 61 -16 102t-62 62q-30 12 -63 12q-52 0 -105 -29q-16 -8 -20 -12q-4 -1 -13.5 -7.5t-11.5 -8.5l-22 -23 q-2 0 -8 -5.5t-7 -8.5q-2 -1 -5 -4.5t-5.5 -7t-3.5 -4.5t-6 -8.5t-6 -8.5l-15 -26l-18 -43l-14 -43l-9 -52l-6 -47v-39zM254 -72q-60 20 -98 68q4 -2 16 -6l5 -2h1l27 -6h16q5 0 13 -1t10 -1h39q30 -15 65 -15h17q42 5 51 8q4 0 13 3.5t11 5.5l31 14q1 0 25 12q51 33 82 82 q2 3 7.5 13.5t6.5 11.5l16 39q2 2 5 12t3 14q9 27 9 31l4 25q1 1 2 3t2 3l-2 -2l2 6q3 5 7.5 14t6.5 12l6 17l11 41l2 37v28l-2 33q-7 14 -7 25q-4 8 -4 12q48 -39 66 -100q0 -11 6 -23q2 -19 2 -25v-32l-2 -33l-8 -35q-1 -1 -4 -11.5t-4 -12.5q-8 -25 -13 -25l-16 -33 l-27 -39l-30 -37l-37 -39l-31 -24l-31 -23l-26 -14l-33 -16l-33 -11l-29 -8q-2 0 -12.5 -2t-13.5 -2q-2 0 -11.5 -1t-11.5 -1h-28q-4 0 -19 1t-16 1l-27 6q-8 2 -10 2zM156 186v35l6 47q1 6 4 23.5t4 23.5q0 2 12 37l11 13l36 32l60 52l43 26q18 10 22 14q73 29 129 31 q20 -17 33 -43q-4 0 -12 1t-12 1q-54 0 -105 -28q-14 -7 -20 -13q-13 -4 -25 -16l-23 -23q-1 0 -7 -5.5t-7 -8.5q-2 -1 -5 -4.5t-5.5 -7t-3.5 -4.5t-6 -8.5t-6 -8.5l-15 -26l-18 -43l-15 -43l-8 -52l-6 -47v-39q0 -10 4 -26q-6 2 -14 6q-38 22 -51 104z" />
<glyph unicode="p" horiz-adv-x="630" d="M-190 -375q0 9 6.5 16t15.5 7q4 0 13 -2t14 -2q33 0 61 26t41 60q10 20 10 24l185 744l-146 -107q8 49 51 96q67 52 109 70l53 170l31 72q5 15 18 41q70 112 187 112q27 0 43 -2q49 -15 49 -71q0 -49 -47 -70q-12 -4 -21 -4v2q2 12 2 39q0 53 -41 53q-47 0 -92 -53l-4 -8 l-10 -21q-14 -28 -14 -33l-58 -194q58 8 86 8q62 0 103 -16q73 -25 119.5 -87t46.5 -139q0 -126 -99 -252q-1 -2 -9 -11t-9 -11q-93 -96 -201 -96q-86 0 -135 92l-4 12q-4 11 -4 16l-2 3l80 14h2v-27q0 -14 8 -26q12 -39 63 -39q64 0 112.5 45.5t69.5 107t21 123.5 q0 67 -22 121q-25 61 -64 92t-102 31h-9q-2 0 -10 -1t-10 -1q-1 0 -10 -1t-11 -1q-1 0 -5 -1t-5 -1q-2 -1 -5.5 -1t-5.5 -1t-3 -4l-186 -762q-7 -40 -7 -60q0 -73 60 -73q27 0 55 14q16 8 25 8t14.5 -6t5.5 -14q0 -18 -10 -21q-58 -26 -92 -26q-79 0 -111 98 q-27 -33 -41.5 -49t-43.5 -32.5t-62 -16.5q-49 0 -49 26zM393 -51q81 0 133 67.5t66 157.5q49 96 49 182q0 41 -18 93q79 -69 79 -175q0 -126 -98 -251q-1 -2 -9 -11.5t-9 -11.5q-93 -96 -201 -96q-73 0 -121 65q24 -4 39 -4q13 0 37 4q20 -20 53 -20zM270 524q1 0 3 1t3 1 t6 1t7 1h18q2 0 5.5 1t4.5 1h9q5 0 14 -1t14 -1l-6 -20q8 1 23.5 3t23.5 3q31 -16 54 -49q-24 4 -41 4h-9q-2 0 -10 -1t-10 -1q-1 0 -10 -1t-11 -1q-1 0 -5 -1t-5 -1q-14 -4 -14 -6l-76 -312l-2 2l-82 -16q46 197 96 393zM147 -305q-4 -20 -4 -27q-20 -4 -24 -4 q-39 0 -39 53q0 26 6 56q50 210 70 284q27 -48 63 -67zM406 702l-25 -86q-10 2 -29 2q-17 0 -57 -4l10 31l31 72q5 15 18 41q47 76 109 98q2 -4 2 -10q0 -26 -4 -51l2 -2q-16 -13 -29 -29l-4 -8l-10 -21q-14 -28 -14 -33zM199 -483q-66 0 -97 63q4 -2 15 -2q13 0 37 4 q13 -20 47 -20q27 0 55 14q16 8 25 8t14.5 -6t5.5 -14q0 -18 -10 -21q-58 -26 -92 -26zM567 764q0 39 -20 49q21 21 24 57q2 0 6.5 -1t6.5 -1q49 -15 49 -71q0 -49 -47 -70q-12 -4 -21 -4v2q2 12 2 39zM-109 -457q0 9 7 16t16 7q4 0 13 -2t14 -2q49 0 86 57q20 -20 39 -31 q-29 -34 -57.5 -52.5t-67.5 -18.5q-50 0 -50 26z" />
<glyph unicode="q" horiz-adv-x="624" d="M360 -281q0 33 2 45l76 314l-2 -2q-12 -6 -33 -27q-38 -25 -84 -43q-53 -24 -108 -24q-40 0 -92 20q-115 55 -115 209q0 35 10 90q17 66 43 109q51 77 137 129.5t171 52.5q91 0 151 -66q2 0 8.5 -8t7.5 -12q1 0 4 -3t3 -5h2l90 385q15 64 88 78h26q57 0 80 -23 q2 -2 5.5 -4.5t5.5 -4t4 -5t2 -6.5q0 -11 -17 -11q-6 0 -21 3t-22 3q-42 0 -55 -47l-268 -1120q-4 -4 -4 -22q0 -2 -1 -13.5t-1 -13.5q0 -46 30 -51h6q45 0 70 53q18 34 43 94q8 -21 8 -47q0 -47 -27 -89t-69 -54q-12 -4 -35 -4q-119 0 -119 120zM100 193q0 -68 29 -116 t92 -48q42 0 90 20q51 21 91.5 58.5t58.5 85.5q7 22 10 22l39 166q2 10 2 33q0 88 -80 123q-34 12 -72 12q-86 0 -151 -82q-39 -42 -57 -80q-1 -6 -11.5 -26.5t-11.5 -22.5q-3 -8 -8.5 -24t-9.5 -29.5t-7 -24.5q-4 -20 -4 -67zM809 784l-248 -1034q-2 -5 -9.5 -19.5 t-10.5 -23.5q-24 -39 -49 -41q-8 3 -13.5 12.5t-5.5 18.5v12q0 3 1 9l1 6q0 10 2 12q48 206 140.5 589t127.5 529q21 18 56 25h26q57 0 80 -23q2 -2 5.5 -4.5t5.5 -4t4 -5t2 -6.5q0 -11 -17 -11q-6 0 -21 3t-22 3q-42 0 -55 -47zM121 193q0 37 2 55q0 -1 1 1t2.5 7t3.5 10.5 t4 13t4 13.5t4 13.5t3 10.5l-2 -2q1 2 3.5 9.5t3.5 9.5q2 2 4 6q6 12 8 20q53 64 128.5 106.5t149.5 43.5q30 -20 41 -47q-24 4 -39 4q-86 0 -151 -82q-41 -44 -58 -80q-1 -6 -11.5 -27t-10.5 -22q-3 -8 -8.5 -24t-9.5 -29.5t-7 -24.5q-4 -20 -4 -67q0 -40 4 -58 q-65 27 -65 140zM561 -483q-85 0 -110 63q10 -2 28 -2q23 0 41 6v-2l19 6q7 -21 26 -24h6q45 0 70 53q18 34 43 94q8 -21 8 -47q0 -47 -27 -89t-69 -54q-12 -4 -35 -4zM201 -80q-43 21 -70 55q35 -14 80 -14q5 0 15.5 1t15.5 1q26 -16 61 -16q43 0 84 18l-12 -51 q-47 -14 -82 -14q-40 0 -92 20z" />
<glyph unicode="r" horiz-adv-x="647" d="M88 47v4l2 23l94 352l9 55q2 0 2 27v18q0 5 -3.5 12t-7.5 7t-16 -6l-135 -127q-4 -4 -8 -4h-2v2q0 8 4 16q0 1 2 5t2 5q1 2 3.5 6t4.5 7t2 4q2 3 6.5 12t5.5 10l27 33l26 27l31 24l23 16q0 1 2.5 2.5t5.5 3.5t4 3q21 12 47 12q32 0 52 -26.5t20 -59.5v-6l-4 -39l-72 -287 l98 207l43 76l37 49l17 16q2 3 9.5 11.5t10.5 9.5q58 51 123 51q19 0 29 -2q25 -6 41 -25.5t18 -44.5v-8q0 -63 -51 -78l-15 -4l-45 -10l21 51q4 20 4 31v6q-1 13 -14 23t-27 10q-20 0 -45 -21l-14 -12l-21 -25l-37 -47l-51 -92l-135 -293q-3 -6 -18 -26q-22 -31 -62 -31 q-12 0 -18 2q-25 4 -25 45zM170 -35v4l2 21q31 20 37 28q4 4 7 9.5t6.5 10.5t4.5 7l123 270l-53 -219l98 207l43 76l37 49l17 16q2 3 9.5 11.5t10.5 9.5q3 2 9 7t9 7l-24 -61l8 -15l-35 -43l-51 -92l-135 -293q-1 -2 -19 -26q-22 -31 -61 -31q-12 0 -18 2q-25 4 -25 45z M637 432q0 4 -4 8q25 25 29 74h2q25 -6 41 -25.5t18 -44.5v-8q0 -63 -51 -78l-15 -4l-45 -10l21 51q4 20 4 31v6zM311 512q22 -3 39 -23l-14 -20l-41 -76l-6 -12l18 80l4 43v8zM135 393l27 33l-19 -70l-28 -26q-4 -4 -9 -4h-2v2q0 6 5 16q0 1 2 5t2 5q1 2 3.5 6t4.5 7t2 4 q2 3 6.5 12t5.5 10z" />
<glyph unicode="s" horiz-adv-x="505" d="M14 147q0 29 23 52q22 26 51 26q18 0 29.5 -14t11.5 -33q0 -17 -8 -25.5t-27 -11.5q-1 0 -3 -2t-3 -2q-14 -14 -14 -28q0 -17 14 -35q33 -41 92 -41h23l24 6l29 8q5 0 23 6q53 24 65 76q2 8 2 25q0 39 -20 65q-4 6 -15 17l-22 14l-88 57q-13 8 -15 12l-6 5l-16 16 q-35 38 -35 92q0 36 18 69t48 54q29 20 61 33q2 1 13.5 4t13.5 4q12 6 26 6l31 4h22q1 0 10 -1t11 -1q1 -1 5 -2t5 -2q60 -12 82 -61q10 -20 10 -41q0 -27 -13.5 -42.5t-39.5 -15.5q-43 0 -43 33q0 24 17 41l8 8h2l-2 4q-22 49 -82 49q-36 0 -74 -20q-47 -20 -47 -61 q0 -35 39 -74l12 -10l105 -70q1 -1 8.5 -7.5t9.5 -8.5q59 -49 59 -125t-65 -131q-1 -2 -4.5 -5t-7.5 -6t-5 -4l-24 -14q-7 -7 -23 -12q-18 -9 -22 -9q-24 -8 -27 -8l-28 -6q-19 -4 -25 -4h-23q-109 0 -153 74q-1 0 -3 4t-3 4q-17 34 -17 65zM272 -82q-106 0 -151 70 q17 -4 59 -8q37 -29 82 -29h23l24 6l29 8q4 0 22 6q54 24 66 76q2 8 2 25q0 10 -2 16q39 51 39 111q0 19 -8 51q4 -2 10 -8q59 -49 59 -125t-65 -131q-1 -2 -4.5 -5t-7.5 -6t-5 -4l-24 -14q-6 -7 -23 -12q-16 -8 -22 -8l-27 -9l-29 -6q-18 -4 -24 -4h-23zM496 444q-2 2 -2 5 q12 18 12 49v10q34 -15 51 -51q10 -20 10 -41q0 -27 -13.5 -42.5t-39.5 -15.5q-43 0 -43 33q0 25 16 41l9 8h2zM170 55l-2 -2q-43 6 -64 33q-4 0 -4 4q3 11 19 27q22 26 51 26q18 0 29.5 -14t11.5 -33q0 -17 -8 -25.5t-27 -11.5q-1 0 -3 -2t-3 -2zM340 473q-47 -20 -47 -61 l-21 14l-8 8q-4 2 -8.5 8t-5.5 7q7 9 26 24q27 19 62 33q2 1 13.5 4t13.5 4l7 2q6 2 11 2q-11 -15 -14 -33q-8 -2 -29 -12zM262 242q-2 0 -10 8q14 -10 27 -17h-3q2 -2 11.5 -7.5t11.5 -6.5q6 -6 8 -10l-24 16q-13 9 -15 13z" />
<glyph unicode="t" horiz-adv-x="380" d="M29 88v12q0 19 4 27l112 428h-125v47h136l63 252v14q0 37 -24 37q-23 0 -45 -26l-7 -11l-47 -73q0 -1 -2 -4t-4.5 -6t-3.5 -5q-7 -14 -16 -14q-5 0 -9 5t-4 9q0 17 9 35l18 41q0 2 5.5 11t6.5 12q52 88 133 88q80 0 80 -86q0 -25 -2 -33l-12 -68l-45 -178h121v-47h-133 l-103 -395q0 -11 -6 -35v-23q0 -43 21 -43q17 0 38 17q15 10 21 16l35 37l63 80q4 8 12 12v-10q0 -24 -8 -43q-9 -18 -10 -18l-27 -44q-4 -4 -22 -28q-18 -25 -43 -39q-45 -39 -103 -39q-77 0 -77 88zM319 473l-83 -319q-1 -2 -4.5 -6.5t-4.5 -6.5q-5 -6 -17 -18.5 t-17 -18.5q-2 -2 -17 -12q-24 -12 -26 -12v41q6 24 6 35q15 62 49 189.5t49 189.5h82l-4 -15h121v-47h-134zM377 698l-21 -75h-80l39 153l13 68q2 8 2 37v2q61 -9 61 -84q0 -25 -2 -33zM188 -82q-65 0 -75 62q45 3 98 32q0 -35 20 -35q18 0 39 17q15 10 21 16l35 37l63 80 q4 8 12 12v-10q0 -24 -8 -43q-9 -18 -10 -18l-27 -43q-1 -1 -22 -29q-18 -25 -43 -39q-45 -39 -103 -39zM178 797l6 12q-5 -20 -14 -62.5t-14 -62.5h-4q-5 0 -9 5t-4 9q0 19 8 35l19 41q0 2 5.5 11t6.5 12zM102 473v47h13q-3 -12 -13 -47z" />
<glyph unicode="u" horiz-adv-x="862" d="M156 102v21l20 102l55 201l9 57q2 4 2 15q0 41 -27 41q-17 0 -45 -19q-1 -1 -8 -6t-8 -6q-1 -2 -4.5 -5.5t-7.5 -6.5l-5 -4l-39 -41l-78 -101v4q0 36 17 70q12 18 12 27l21 30l26 31l31 33q1 0 4.5 2.5t7.5 5.5t6 4q52 45 113 45q78 0 78 -86v-33l-76 -338l-1 -9 q-1 -10 -1 -13v-14q0 -46 29 -46q17 0 41 19q2 1 11 8t11 8q0 2 4.5 6.5t5.5 4.5l31 32l47 58l191 305q0 9 22 31q9 16 31 34q37 33 70 33q24 0 32.5 -11t8.5 -36v-6l-5 -31l-98 -387l-6 -27v-4q0 -28 18 -28q16 0 23 10l111 106l2 2v-2l-11 -38q-1 -1 -2.5 -4t-3 -7.5 t-2.5 -5.5l-8 -16q-31 -53 -92 -94q-35 -23 -64 -23q-33 0 -52 25.5t-19 60.5v8l10 66l86 332v10q-2 -2 -2 -4l-2 -2l-187 -301l-43 -60l-57 -63l-16 -17q-25 -23 -60 -39t-67 -16q-45 0 -67.5 28t-22.5 74zM418 401l-60 -266l-12 -12l6 2q-4 -2 -11.5 -11t-8.5 -10l4 9 q-1 -1 -5.5 -4t-6.5 -5t-5 -2q-23 -18 -32 -18q-8 0 -8 25v14q0 2 1 5.5t1 6.5l75 344v39q62 -8 62 -84v-33zM870 436l-63 -248l-98 -94q-2 -2 -7 -2q3 0 3 8q3 15 6 27l98 387v2q16 4 25 4q24 0 32 -11t8 -36v-6zM328 -82q-69 0 -86 62h4q40 0 94 26q4 -24 29 -24 q19 0 41 18q2 1 11 8t11 8q0 2 4.5 6.5t5.5 4.5l31 32l47 58l68 108l-15 -57l-10 -66l-35 -49l-57 -63l-16 -17q-25 -23 -60 -39t-67 -16zM737 -82q-28 0 -46 18t-23 44q28 5 63 26q11 7 37 29l-2 -12v-5q0 -28 18 -28q16 0 23 10l111 106l2 3v-3l-11 -38q-1 -1 -2.5 -4 t-3 -7.5t-2.5 -5.5l-8 -16q-31 -53 -92 -94q-35 -23 -64 -23zM209 463l8 4q-1 -4 -2.5 -12t-2.5 -13.5t-1 -9.5l-12 -45l-19 -18l-78 -101v4q0 36 17 70q12 18 12 27l21 30l26 31z" />
<glyph unicode="v" horiz-adv-x="694" d="M170 68v8l18 373l-2 20q0 14 -2 18q-2 21 -11.5 39.5t-27.5 18.5q-14 0 -39 -25q-2 -2 -7.5 -9.5t-6.5 -8.5l-63 -92q0 -2 -3 -5.5t-6 -3.5q-2 0 -2 5v8q0 2 1 7.5t1 6.5q0 2 2.5 9.5t2.5 8.5l12 29l12 25l21 37q1 0 2.5 2t3 4.5t2.5 3.5q49 55 121 55h12q58 -6 72 -74 q6 -30 6 -57v-10l-25 -375l98 70l82 73l52 56l45 59l24 41l13 27l8 22l3 11q3 11 3 14q4 24 4 37q0 28 -12.5 47.5t-38.5 19.5q-21 0 -62 -18q-1 -1 -5 -3.5t-7.5 -4.5t-5.5 -2q-1 -3 -7.5 -9t-8.5 -6l-41 -41q4 17 6 21q5 16 16 39q6 9 27 30q21 15 51 25q6 0 10 4 q28 4 43 4q45 0 81 -24.5t40 -67.5v-8q0 -18 -6 -33l-6 -18l-15 -29q0 -2 -6.5 -15.5t-7.5 -15.5q-17 -26 -23 -29l-94 -114l-78 -80l-90 -72l-139 -94l-2 4q-9 -6 -18 -6q-20 0 -25 33q-2 12 -2 35zM252 -14v18l98 62l-4 -62l98 70l82 73l52 56l45 59l24 41l12 27l9 22 l3 11q3 11 3 14q4 24 4 37v8l10 20q6 15 8 23q6 14 6 37v6q56 -25 62 -80v-8q0 -18 -6 -33l-6 -18l-15 -29q0 -2 -6.5 -15.5t-7.5 -15.5q-17 -25 -23 -28l-94 -115l-78 -80l-90 -72l-139 -94l-2 4q-9 -6 -18 -6q-20 0 -25 33q-2 12 -2 35zM371 379l-15 -201l-6 -6 q-22 -15 -61 -45l20 332v12q0 15 -4 47q47 -14 60 -72q6 -30 6 -57v-10zM160 465l6 6v-4q2 -12 2 -18l-2 -41l-55 -80q0 -2 -3 -5.5t-6 -3.5q-2 0 -2 5v8q0 2 1 7.5t1 6.5q0 2 2 10t2 9l13 28l12 25l21 37q1 0 2.5 2t3 4.5t2.5 3.5zM539 487q28 17 36 19v-10q0 -7 -4 -31 q-1 0 -3 -1t-3 -1q-1 -1 -5 -3.5t-7.5 -4.5t-5.5 -2q-1 -3 -8 -9t-9 -6l-41 -41q5 17 7 21q5 16 16 39q6 9 27 30z" />
<glyph unicode="w" horiz-adv-x="1036" d="M514 154l16 204l-81 -165l-41 -60q-2 -3 -27 -37l-14 -14q-78 -82 -156 -82q-50 0 -77.5 31t-27.5 82v10l11 76l61 254q2 4 2 18q0 41 -26 41q-18 0 -54 -31l-20 -22l-53 -74v4q0 1 2 12t2 15q15 73 65.5 128.5t120.5 55.5h21q41 -12 41 -78v-8q-5 -25 -5 -37l-71 -350 q-2 -15 -2 -21v-6q0 -44 26 -51q29 0 74 31q8 8 10 8l25 27l26 35l44 63l147 291l37 59q17 25 39 25q30 0 30 -51v-2l-2 -25l-43 -297q-4 -8 -4 -51v-19q0 -37 4 -57q7 -41 37 -41q56 0 115 51q2 3 9.5 11.5t10.5 9.5q2 2 15.5 16.5t15.5 16.5t7 9t9.5 12.5t4.5 6.5l34 58 l23 43l20 53l15 53q0 13 6 37q0 2 1 10.5t1 9.5v11q0 24 -4 36q-13 62 -55 62q-37 0 -74 -41q-4 -6 -21 -23l-28 -38l-2 -3v5q0 95 96 139q24 12 57 12q38 0 67 -21.5t36 -58.5q2 -10 2 -33v-12q0 -2 -1 -12t-1 -12q-1 -2 -5.5 -18.5t-5.5 -18.5q0 -6 -6 -25t-6 -20l-41 -90 l-47 -86l-33 -50l-24 -32q-16 -20 -60 -60q-72 -53 -155 -53q-59 0 -82.5 28.5t-30.5 90.5v35zM709 -82q-81 0 -103 62h21q37 0 71 12q11 -29 35 -29q56 0 115 51q2 3 9.5 11.5t10.5 9.5q2 2 15.5 16.5t15.5 16.5t7 9t9.5 12.5t4.5 6.5l34 58l23 43l20 53l15 53q0 13 6 37 q0 2 1 10.5t1 9.5v11q0 20 -2 30q0 3 1 8t1 7q0 5 6 20q0 4 4 8v21q0 2 1 6.5t1 5.5v35q48 -20 60 -72q2 -10 2 -32v-13q0 -2 -1 -12t-1 -12q-1 -2 -5.5 -18.5t-5.5 -18.5q0 -6 -6 -25t-6 -20l-41 -90l-47 -86l-33 -50l-24 -32q-16 -20 -60 -60q-72 -53 -155 -53zM356 395 l-59 -293q-2 0 -8 -6q-31 -23 -56 -26q-12 6 -12 30l2 25v-2l72 350q0 17 4 37v8h20q41 -12 41 -78v-8q-4 -20 -4 -37zM692 80v-4q-23 -10 -41 -10q-13 0 -16 24q-4 20 -4 53v19q0 39 4 47l39 276q21 21 37 21q18 0 26 -27q-4 -24 -4 -41l6 -2v-8l-43 -297q-4 -8 -4 -51z M444 68l43 63l7 12v-26q4 -32 6 -49l-11 -17q-3 -7 -26 -37l-14 -14q-78 -82 -156 -82q-73 0 -96 62h14q37 0 74 16q4 -23 24 -29q29 0 74 31q8 8 10 8l25 27zM836 369q0 83 75 129q7 -21 7 -43q-12 -8 -31 -27q-2 -3 -21 -22l-28 -39l-2 -2v4zM113 334q9 47 37 92l-25 -98 l-16 -25v4q0 1 2 12t2 15z" />
<glyph unicode="x" horiz-adv-x="813" d="M18 86q0 31 19 54.5t49 23.5q1 0 13 -2t18 -4q0 -2 -2 -2q-35 -31 -35 -60q0 -23 16 -35t41 -12q32 0 68 29q2 1 6 4t7.5 5.5t4.5 2.5l25 27l127 168l-33 174q-4 16 -6 20q-2 6 -7.5 15.5t-6.5 11.5q-19 29 -52 29q-22 0 -41 -23q-3 -2 -10 -8.5t-8 -9.5l-33 -39 q-1 0 -12 -11q-2 -1 -5.5 -3.5t-6.5 -4.5t-4 -2h-3q9 37 35 78q54 74 135 74q60 0 99 -58q0 -4 4 -8l8 -20l27 -105l75 94l35 41q1 0 12.5 10t14.5 11q32 23 45 31q30 20 70 20q33 0 57 -25t24 -59q0 -32 -19.5 -52t-51.5 -20l10 23q4 10 4 33q0 43 -45 43q-35 0 -72 -33 q-3 -2 -10.5 -8.5t-7.5 -7.5l-35 -37l-94 -121l43 -203q0 -10 6 -22q21 -60 62 -60q24 0 47 23l16 16l33 41l10 10q9 9 21 13v-2q-5 -9 -5 -13q-46 -139 -165 -139q-69 0 -95 57q-1 0 -4.5 6.5t-3.5 8.5l-6 12l-39 143l-82 -112l-35 -39q-3 -6 -22 -25q-1 -1 -12 -8.5 t-13 -9.5q-14 -11 -30 -17q-35 -18 -70 -18q-43 0 -74 23t-31 63zM643 377l-94 -121l37 -182h-8q-14 0 -27 15.5t-19 37.5q0 1 -1 6t-1 6q-7 33 -20.5 96.5t-20.5 96.5l31 41l17 -60l75 95l35 41q1 0 12.5 9.5t14.5 10.5q2 1 15.5 10.5t21.5 14.5q0 -17 -2 -19l-17 -41l2 -4 l-16 -16zM205 -82q-36 0 -65 16.5t-38 47.5q6 -2 21 -2q26 0 47 6q16 -19 49 -19q32 0 68 29q2 1 6 4t7.5 5.5t4.5 2.5l25 27l63 84l17 -53l-23 -31l-35 -39q-3 -6 -22 -25q-1 -1 -12 -8.5t-13 -9.5q-10 -8 -31 -16q-36 -19 -69 -19zM522 -23q-4 0 -4 5h17q39 0 79 16 q19 -27 45 -27q25 0 48 23l16 16l33 41l10 10q9 9 20 13v-2q-4 -9 -4 -13q-46 -139 -166 -139q-68 0 -94 57zM813 420q0 32 -27 39q23 26 23 59q26 -7 43.5 -30.5t17.5 -51.5q0 -32 -19.5 -51.5t-51.5 -19.5l10 22q4 10 4 33zM264 430q26 34 49 49l6 -12l3 -12q0 -2 1 -6.5 t1 -6.5l-13 -12q-3 -2 -10 -8.5t-8 -9.5l-33 -39q-1 0 -12 -11q-2 -1 -6 -3.5t-7 -4.5t-4 -2h-2q9 37 35 78zM451 492q16 -8 32 -27q-3 -3 -18 -23zM131 70q15 12 37 12q1 0 2 -1t2 -1q-20 -10 -35 -10h-6z" />
<glyph unicode="y" horiz-adv-x="802" d="M109 -268q0 41 24 78.5t60 60.5q2 2 6.5 4.5t8 4.5t3.5 3l41 23l215 74l55 253l-39 -65l-30 -43q0 -2 -8.5 -12t-12.5 -13q-90 -100 -213 -100q-80 0 -102 80q0 1 -2 7.5t-2 8.5l-2 17v37l4 36l71 279q7 17 7 37q0 37 -23 37q-12 0 -29 -13l-14 -12l-94 -92 q-1 -1 -2 -2.5t-2 -2.5t-2 -1h-4v6q0 12 8 24q7 15 8 15l12 24l27 33l39 37q0 1 6.5 6.5t9.5 7.5q40 35 84 35q39 0 58.5 -23.5t19.5 -64.5v-8q-2 -6 -2 -27l-84 -358q-2 -10 -2 -27v-10q4 -28 18 -35q8 -4 21 -4q78 0 147 76q3 2 8.5 8.5t10.5 13t6 7.5l35 51l61 106l31 76 l45 145q4 7 6 9q25 61 94 61q32 0 67.5 -12.5t35.5 -36.5v-4q0 -6 -5 -6h-4q-8 0 -19.5 2t-14.5 2h-13q-35 -5 -53 -43q-12 -24 -12 -33q-1 -2 -3 -8t-3.5 -10t-1.5 -5l-91 -415h2l3 2l49 28l45 35l90 78l2 2q0 -12 -6 -24q-9 -42 -66 -99q-19 -9 -22 -16l-37 -25l-74 -43 l-33 -88l-28 -59l-39 -62l-31 -43l-31 -30q-2 -1 -13.5 -12t-14.5 -13q-49 -41 -125 -41q-58 0 -96.5 28t-38.5 83zM326 -461q-45 0 -79.5 17t-47.5 49q28 -4 45 -4h12q24 -19 72 -19q85 0 137 86q1 2 6 11t9.5 16t6.5 8q0 11 15 41l33 102h-5l15 27q5 13 14 40t14 40l64 37 l31 20l-13 -61h2l2 2l50 29l45 34l90 78l2 2q0 -12 -6 -24q-9 -42 -66 -99q-19 -9 -22 -16l-37 -25l-74 -43l-33 -88l-28 -59l-39 -62l-31 -43l-31 -30q-2 -1 -13.5 -12t-14.5 -13q-49 -41 -125 -41zM152 -268q0 -36 27 -52t67 -16q85 0 137 86q1 2 6.5 11t10 16t6.5 8 q0 13 14 41l33 102l-181 -63l-32 -17q-8 -8 -27 -14q-61 -46 -61 -102zM745 365l-47 -218q-8 -7 -23.5 -19.5t-17.5 -14.5h2q-3 -2 -11.5 -9.5t-16.5 -13.5t-13 -10q-4 0 -10 -6l76 368q0 7 2 11v-2l6 18q0 1 1.5 5t3.5 10t3 8q29 26 72 26q31 0 66.5 -12.5t35.5 -36.5v-4 q0 -6 -4 -6h-4q-8 0 -20 2t-15 2h-12q-35 -5 -53 -43q-12 -24 -12 -33q-1 -2 -3 -7.5t-4 -9.5t-2 -5zM375 399l-76 -321q-27 -10 -53 -10q-9 0 -13 2q-2 1 -6 18v8q0 17 2 23l84 358q0 25 2 31v12q62 -9 62 -86v-8q-2 -6 -2 -27zM293 -199l41 23l69 24q0 -4 -4 -16l2 2 q-11 -23 -16 -39l-31 -12l-32 -16q-9 -9 -27 -15q-41 -28 -55 -67q-27 0 -43 8q22 65 77 96q2 2 6.5 4.5t8.5 4.5t4 3zM328 -35q65 0 127 55q-2 -10 -6 -26l-195 -66q-34 15 -49 52h14q41 0 72 8q7 -15 16 -19q8 -4 21 -4zM121 379l12 24l23 29l-17 -70l-24 -22 q-1 -1 -2 -2.5t-2 -2.5t-2 -1h-5v6q0 12 9 25q7 14 8 14z" />
<glyph unicode="z" horiz-adv-x="720" d="M199 68q-17 0 -27 -2l-29 -5l-37 -8q-14 0 -26 -8q-23 -7 -53 -33v8q0 25 14 60l8 16l19 29l98 111l219 215l-135 71l-33 15q-12 4 -14 4q-10 4 -33 4q-16 0 -20 -2q-23 -6 -39.5 -23t-16.5 -39v-4l2 -4q0 -4 2 -6q0 -4 2 -4l33 12q6 4 19 4q17 0 24.5 -14t7.5 -31 q0 -20 -15 -31.5t-34 -11.5q-35 0 -60.5 28t-25.5 62q0 42 32 71.5t75 39.5q42 10 71 10q2 0 56 -6q2 -1 8.5 -2.5t11.5 -3t6 -2.5l37 -13l57 -26l54 -31l2 2l26 19l29 16q3 0 23 10q34 17 69 17q6 0 16 -1t15 -1q24 -7 41.5 -24.5t17.5 -41.5q0 -42 -38.5 -65t-86.5 -29 q-14 -2 -41 -2h-8l-33 2q-12 0 -36 6q-1 0 -11 3t-12 3l-266 -266l-33 -37l19 10l28 8l33 5l13 2q13 2 18 2h22q49 0 98 -17l15 -6l69 -43q1 0 5 -2t8.5 -4.5t7.5 -3.5q27 -12 59 -12q74 0 74 59q0 57 -72 57h-8l-110 -16v2q48 61 127 61q45 0 77.5 -29t32.5 -73 q0 -25 -12 -49q-31 -63 -107 -76q0 -4 -16 -4h-39q-17 0 -29 4q-16 0 -24 4q-18 6 -27 6l-92 37q-3 0 -35 8q-30 9 -67 9zM199 47q34 0 61 -8q6 -2 8 -2q24 -6 29 -6l92 -37q17 0 25 -4h-2q6 -6 30 -6q8 -4 31 -4h39q8 0 25 10l-5 -6q22 4 31 8q21 -6 45 -6q74 0 74 59 q0 28 -20 45q6 18 6 39v10q27 -12 44 -37t17 -55q0 -25 -12 -49q-31 -63 -107 -76q0 -4 -16 -4h-39q-17 0 -29 4q-16 0 -24 4q-18 6 -27 6l-92 37q-3 0 -35 8q-30 9 -67 9q-17 0 -27 -2l-29 -4l-37 -9q-14 0 -26 -8q-23 -7 -53 -33v9q0 24 14 59l8 16l16 27l29 4q10 2 23 2z M512 350l-182 -182q-40 8 -60 8l197 193l-47 24l16 17l15 -4q28 -7 38 -7l33 -2h8q31 0 43 2q9 0 29 4q30 -12 62 -12q22 0 32 4q37 9 37 35q0 22 -33 27h-2q14 18 17 41h4q24 -7 41.5 -24.5t17.5 -41.5q0 -42 -38.5 -65t-86.5 -29q-14 -2 -41 -2h-8l-33 2q-12 0 -36 6 q-1 0 -11 3t-12 3zM211 309q-25 1 -46 18.5t-30 43.5q28 0 45 14q0 -4 2 -4l33 12q6 4 18 4q14 0 22.5 -10.5t10.5 -24.5zM502 496q7 -7 12 -7q37 -16 68 -16q22 0 32 4q37 9 37 35q0 22 -33 27h-8q-46 0 -108 -43zM184 487q29 16 47 21q1 0 5 -2t6 -2q21 -10 54 -30t54 -30 l-10 -10l-8 6l-33 15q-12 4 -14 4q-10 4 -33 4q-17 0 -21 -2q-26 -10 -28 -12q-4 23 -19 38zM494 92q36 39 81 51q5 -10 5 -16q0 -20 -15 -31l-55 -8q-3 1 -8 2t-8 2z" />
<glyph unicode="{" horiz-adv-x="237" d="M72 -23l18 103q0 3 6 33q23 91 29 120q20 99 -6 142q-8 25 -39 45q-16 13 -45 24q-1 1 -8 3t-12.5 4t-4.5 6q0 2 1.5 3t4 2t4.5 3q53 23 66 31q81 48 109 178q4 21 10 60t10 59q7 29 8 30l35 129l21 58q1 1 4.5 8t8 16.5t5.5 12.5q35 64 89.5 115t119.5 75h10 q18 0 25 -10v-6q0 -1 -3.5 -4t-5.5 -3q-49 -20 -81.5 -45t-55.5 -67q0 -1 -8 -25l-6 -20l-94 -352q0 -1 -4 -10t-9 -20.5t-6 -15.5q-22 -66 -71 -118.5t-115 -81.5v-2q53 -20 86 -65t37 -105q6 -32 2 -41l-8 -68l-52 -323v-23q-6 -80 52 -121q1 0 7 -4t7 -4q16 -8 20 -8 q6 -6 5 -10q-3 -15 -27 -15q-19 0 -45 21q-8 0 -12 8q-75 69 -84 180q0 31 -4 33zM350 578q-43 -123 -155 -187q-9 15 -21 27q74 50 102 174q2 9 5.5 27.5t5.5 27.5q0 4 2 6l-2 -2q2 9 6 19v-2q11 28 14 32v-2l70 265l2 2q35 64 89.5 115t119.5 75h10q18 0 25 -10v-6 q0 -1 -3.5 -3.5t-5.5 -2.5q-96 -39 -137 -113q0 -1 -8 -25l-6 -20l-94 -352q0 -1 -4 -10t-8.5 -20t-6.5 -15zM229 -250q-3 -16 0 -31q-2 1 -5 2t-4.5 2t-2.5 1l-6 4q-49 35 -43 108v14l51 326q1 10 4 33t4 33q3 17 -2 49q-2 20 -10 55q66 -53 72 -141q6 -32 2 -41l-8 -68 l-52 -323v-23zM236 -383q-14 11 -31 33h6q22 0 37 12q12 -18 33 -33q1 0 7 -4t7 -4q16 -8 20 -8q5 -5 4 -10q-3 -15 -26 -15q-19 0 -45 21q-8 0 -12 8zM92 375v2q1 -1 3 -4t3 -4q-9 0 -6 6z" />
<glyph unicode="|" horiz-adv-x="172" d="M131 1169v-1505h-96v1544q0 7 2 11h94q0 -9 2 -13v-14q0 -15 -2 -23zM213 1087v-1505h-96v62h35v1493h61q0 -9 2 -13v-14q0 -15 -2 -23z" />
<glyph unicode="}" horiz-adv-x="385" d="M-176 -311q0 8 6 8q50 19 82 45t51 70q3 3 6.5 11.5t3.5 10.5q13 26 13 31l90 344q0 3 6.5 19.5t7.5 19.5q56 135 168 192q22 11 27 11q1 0 9.5 3t10.5 3q-44 26 -71.5 69t-28.5 95q-2 8 -2 38l6 68l49 311q4 12 4 37q3 59 -31 101q0 1 -6 6q-1 0 -7.5 6t-8.5 6l-21 10 l-12 4q-8 4 -4 11q0 7 8 10q4 6 21 6q15 0 39 -16q19 -15 47 -50q44 -41 51 -125q0 -4 1 -19t1 -17l-4 -66l-19 -121q-4 -20 -6 -28q-8 -41 -28 -123q-16 -56 -6 -108t57 -79q0 -2 4 -4.5t9 -5t7 -4.5q13 -4 15 -4q1 -1 3 -1.5t3 -2t0 -4.5q-3 -8 -19 -8q-7 -2 -65 -27 q-98 -49 -127 -186q-8 -42 -21 -121l-8 -33l-33 -127l-22 -55q0 -2 -8.5 -17.5t-12.5 -21.5q-51 -108 -176 -174q-25 -15 -37 -15q-9 0 -17 5t-5 12zM-94 -393q0 8 6 8q50 19 82 45t51 70q3 3 6.5 11.5t3.5 10.5q13 26 13 31l26 100q4 15 6 17l21 49q5 20 17.5 64t17.5 65 v-2q6 25 8 35q4 20 6 32q0 7 4 27q56 132 166 188q22 11 27 11q1 0 9.5 3t10.5 3q-32 16 -53 43q16 8 22 10q12 0 21 6q19 -23 39 -33q0 -2 4 -4.5t9 -5t7 -4.5q13 -4 15 -4q1 -1 3 -1.5t3 -2t0 -4.5q-3 -8 -19 -8q-7 -2 -65 -27q-98 -49 -127 -186q-8 -42 -21 -121l-8 -33 l-33 -127l-22 -55q0 -2 -8.5 -17.5t-12.5 -21.5q-51 -108 -176 -174q-25 -15 -37 -15q-9 0 -17 5t-5 12zM365 588q-14 -61 -9 -96q-2 0 -2 4q-59 35 -59 100q0 37 8 70q26 107 29 122l6 29l18 121l4 70v12q0 4 -1 15t-1 12q-3 38 -14 69q4 -5 12.5 -14.5t12.5 -14.5 q44 -41 51 -124q0 -5 1 -20t1 -17l-4 -66l-19 -121q-4 -20 -6 -28q-8 -41 -28 -123z" />
<glyph unicode="~" horiz-adv-x="1024" d="M295 559q86 0 250.5 -49t253.5 -49q67 0 112 22q13 13 29 41t30.5 47t30.5 19v-6q-8 -11 -8 -13q-21 -51 -40.5 -86t-51.5 -71.5t-77.5 -55t-104.5 -18.5t-128.5 18.5t-123 40t-122 40t-126.5 18.5q-41 0 -73 -14t-49.5 -33.5t-30 -39.5t-20 -34t-13.5 -14h-13 q16 53 36 92t51 74t78.5 53t109.5 18zM102 240q45 144 121 196q17 0 34.5 -2t36.5 -6t32.5 -6.5t35.5 -9t31.5 -9.5t35 -11.5t32.5 -10.5q8 -3 31 -11t32.5 -11t31 -10t33 -10t31 -8t33.5 -7t32 -3.5t34 -1.5q102 0 172 60q57 0 102 22q13 13 29 41t30.5 47t30.5 19v-6 q-8 -11 -8 -13q-21 -51 -40.5 -86t-51.5 -71.5t-77.5 -55t-104.5 -18.5t-128.5 18.5t-123 40t-122 40t-126.5 18.5q-41 0 -73 -14t-49.5 -33.5t-30 -39.5t-20 -34t-13.5 -14h-13z" />
<glyph unicode="&#xa1;" horiz-adv-x="380" d="M184 -35q-3 -20 -17 -33.5t-34 -13.5q-19 0 -31.5 14t-15.5 35v13q0 14 2 22l6 23q-18 -25 -43 -25q-19 0 -31.5 14t-15.5 35v12q0 15 2 23l248 909q7 27 18 27q4 0 7.5 -3.5t3.5 -6.5v-11l-177 -925l230 837q7 27 18 27q4 0 7.5 -3.5t3.5 -6.5v-10zM379 1163v-10 q4 2 14 2q30 0 49 -21.5t19 -52.5q0 -35 -25 -62.5t-61 -27.5q-30 0 -50 21.5t-20 52.5v8h-12q-30 0 -50 21.5t-20 52.5q0 36 26 63t62 27q30 0 49 -21.5t19 -52.5z" />
<glyph unicode="&#xa2;" horiz-adv-x="1026" d="M59 -72q0 9 13 19q95 36 153 94q-109 52 -159 156t-50 235v31q3 83 33 186q1 3 6 16t9.5 24t7.5 13l30 74l43 72l62 86l49 55l70 64l55 49l63 43q2 2 12.5 7.5t24 12t19.5 9.5q119 61 235 61q8 0 21 -1t20 -1l66 59q1 1 10 7.5t20 15t15 12.5q1 1 8.5 6.5t16 10.5t12.5 6 q2 2 34 18q12 6 27 6q27 0 27 -20q0 -10 -6 -16.5t-20 -12.5t-17 -8q-55 -21 -115 -84l-12 -12v-2q41 -20 57 -33q88 -63 88 -199v-22q0 -33 -4 -41l-14 -66q0 -3 -8 -26.5t-9 -30.5q-39 -99 -114 -187q-70 -75 -137 -114t-152 -39q-45 0 -74 14q-52 18 -77 65t-25 109 q0 69 34 132.5t91 111.5q61 55 137 82q0 1 2.5 1.5t5.5 1t4 1.5l15 6h14q2 0 2 -6q0 -4 -10 -14l-93 -56q-14 -14 -32 -26q-42 -31 -66 -80q-51 -84 -51 -174q0 -38 12 -66q14 -34 47.5 -56t71.5 -22q62 0 143 47q49 36 66 54q53 40 82 88q11 17 33 69q1 1 5.5 10t4.5 11 q35 119 35 192q0 122 -56.5 184t-175.5 62q-109 0 -217 -67q-40 -32 -41 -33l-69 -55l-68 -74q-2 -2 -21 -27t-24 -31q-30 -45 -33 -51q-27 -36 -37 -61q-1 -3 -13 -30t-13 -32q-4 -7 -15 -38t-12 -33l-18 -84l-17 -84q0 -1 -1 -27t-1 -33v-22q0 -220 121 -318 q74 -63 188 -63q43 0 129 20q75 33 125 78q16 8 35 27l49 55l29 33l39 65q5 5 14 5q17 0 17 -13q0 -2 -2 -4l-31 -53l-37 -49q-3 -2 -18 -19.5t-17 -19.5q-4 -3 -14.5 -13t-19.5 -18.5t-11 -9.5l-45 -39q-1 -1 -17.5 -12t-21.5 -13q-107 -57 -213 -57q-27 0 -106 18h-2 q-57 -50 -158 -98q-15 -8 -25 -10q-4 -2 -10 -2q-11 0 -22 5t-11 13zM176 338q0 -120 39 -209q-100 92 -100 291v22q0 3 1 19t1 24v17q1 11 6 33t6 30q2 0 2 2q1 3 6 16t9.5 24.5t7.5 13.5l30 73l43 72l62 86l49 55l70 64l55 49l63 43q2 2 12.5 7.5t24 12t19.5 9.5 q119 61 235 61h2q31 -20 47 -45q-40 12 -90 12q-109 0 -217 -67q-40 -32 -41 -33l-69 -55l-68 -74q-2 -2 -11 -13.5t-19.5 -25t-14.5 -18.5q-28 -42 -33 -52q-27 -36 -37 -61q-1 -3 -13 -30t-13 -32q-4 -7 -15 -38t-12 -33l-18 -84l-17 -84q0 -1 -1 -27t-1 -33v-22z M1008 874q0 20 -4 52q4 20 4 39v22q0 56 -19 111q80 -64 80 -193v-22q0 -33 -4 -41l-14 -66q0 -3 -8 -26.5t-9 -30.5q-39 -99 -114 -187q-70 -75 -137 -114t-152 -39q-45 0 -74 14q-47 14 -72 56q23 -9 64 -9q37 -37 90 -37q60 0 143 48q52 37 66 53q53 40 82 88q9 15 33 70 q1 2 5.5 10t4.5 10q35 119 35 192zM141 -154q0 9 13 19q95 36 153 94q-8 3 -21.5 11t-17.5 10l25 18l3 -1l1 -1q30 -8 55 -10q59 -29 133 -29q43 0 129 20q75 33 125 78q16 8 35 27l49 55l29 33l39 66q4 4 14 4q17 0 17 -13q0 -2 -2 -4l-31 -53l-37 -49q-3 -2 -18 -19.5 t-17 -19.5q-4 -3 -14.5 -13t-19.5 -18.5t-11 -9.5l-45 -39q-2 -1 -18.5 -12t-20.5 -13q-107 -57 -213 -57q-23 0 -106 19h-2q-60 -52 -158 -99q-15 -8 -25 -10q-4 -2 -10 -2q-11 0 -22 5t-11 13zM508 547v-31q-39 20 -51 55q-2 0 -2 4q1 66 35.5 127.5t89.5 108.5 q61 55 137 82q0 1 2.5 1.5t5.5 1t4 1.5l14 6h15q2 0 2 -6q0 -4 -10 -14l-93 -56q-14 -14 -32 -26q-42 -31 -66 -80q-51 -84 -51 -174zM1051 1235q-50 -19 -101 -70q-18 21 -37 35l11 10l20 14q19 15 25 21q1 1 8.5 6.5t16 10.5t12.5 6q2 2 34 18q12 6 27 6q27 0 27 -20 q0 -10 -6 -16.5t-20 -12.5t-17 -8z" />
<glyph unicode="&#xa3;" horiz-adv-x="1462" d="M6 125q0 57 53.5 93.5t114.5 43.5q52 8 115 8h24l84 -8l88 -12q1 0 68 -19q2 0 25 -7t30 -7q58 73 66 160q6 36 6 53v6h-281v45h283q2 40 6 125t6 125q0 3 6 39l5 25q12 68 43 139q43 88 100 145q98 98 225 138q72 20 127 20h25q166 -13 209 -168q8 -33 8 -72v-20 q0 -1 -1 -7t-1 -9q-2 -6 -2 -15q-6 -24 -6 -35l-21 -59l-8 -16l-2 -5l-19 -36q-42 -74 -109 -123t-145 -49q-66 0 -118 34q-86 62 -86 172q0 73 48 132t120 59q63 0 112 -59q17 -23 17 -31q0 -21 -17 -21q-14 0 -22 19v-2q-1 1 -2 3t-2 3q-36 45 -86 45q-57 0 -93 -49 t-36 -107q0 -63 44.5 -108t108.5 -45t123 45.5t88 109.5q28 61 35 142q2 12 2 39q0 92 -44 144t-132 52q-80 0 -160 -41q-151 -70 -205 -192q-10 -20 -10 -21q-8 -16 -8 -20q-8 -24 -8 -29l-19 -72q-1 -13 -4 -40t-4 -37q-1 -40 -3 -133.5t-3 -133.5h276v-45l-282 -2 q-23 -126 -109 -241q35 -12 104.5 -38t104.5 -38q16 -4 47.5 -12.5t46.5 -12.5q4 -4 35 -8q6 -2 17 -2q8 -4 34 -4h11q73 0 73 47q0 21 -32 39q-9 2 -30 8.5t-24 7.5q-20 4 -33.5 21.5t-13.5 38.5q0 24 22 40.5t48 16.5q31 0 31 -23q0 -22 -41 -22q-11 -6 -11 -10 q0 -16 21 -21l53 -14q10 0 25 -10q28 -17 28 -70q0 -56 -35.5 -76t-97.5 -20h-16q-27 0 -39 2q-3 0 -9 1t-7 1l-101 18l-266 84q-11 -11 -21 -16q-3 -2 -10 -7l-10 -8q-29 -22 -49 -26q-31 -19 -62 -31l-71 -22l-76 -19l-72 -8h-22q-33 0 -64 5.5t-62 18.5t-50 39t-19 62z M53 125q0 -66 107 -76h18q4 0 11 -1t10 -1q33 0 63 6q10 0 34.5 3t27.5 5l65 19q18 4 45 18q24 10 51 25l54 33q-77 29 -187 57q-52 10 -102 10q-49 0 -72 -4q-45 -8 -85 -32t-40 -62zM283 -82q-57 0 -110 18t-75 58q39 -11 86 -14q30 -10 58 -13h18q4 0 11 -1t10 -1 q33 0 63 6q10 0 34.5 3.5t27.5 5.5l65 18q18 4 45 18q24 10 51 25l54 33l-54 18q4 1 17 10q4 2 14 11l252 -78l106 -21q3 0 9 -1t8 -1q12 -2 43 -2h18q4 -4 35 -8q6 -2 16 -2q8 -4 35 -4h10q74 0 74 47q0 13 -26 35q8 24 8 49l8 -2q10 0 25 -10q28 -17 28 -70 q0 -56 -35.5 -76t-97.5 -20h-16q-27 0 -39 2q-3 0 -10 1l-7 1l-100 18l-266 84q-11 -11 -21 -16l-20 -14q-31 -23 -49 -27q-31 -19 -62 -31l-71 -22l-76 -19l-72 -8h-22zM852 666q-1 -25 -2 -81t-2 -83h-64q0 65 2 112q0 80 2 115q10 53 41 123q42 86 101 145q98 98 225 138 q68 20 125 20q21 -15 37 -41q-28 4 -47 4q-80 0 -160 -41q-38 -17 -90 -53q-69 -30 -100 -113q-6 -8 -15 -26q-10 -20 -10 -21q-8 -16 -8 -20q-8 -24 -8 -29l-19 -72q-1 -13 -4 -40t-4 -37zM1444 883q0 1 1 4.5t1 5.5l6 18q0 7 6 31q0 13 2 19q0 2 1 6t1 6v24q0 43 -8 76 q-2 5 -5 15.5t-5 15.5q52 -45 72 -117q8 -33 8 -72v-20q0 -1 -1 -7t-1 -9q-2 -6 -2 -15q-7 -28 -7 -35l-20 -59l-8 -16l-2 -4l-19 -37q-42 -74 -109 -123t-145 -49q-66 0 -118 34q-27 20 -43 39q38 -12 79 -12q32 -16 70 -16q64 0 123 45.5t88 109.5q28 61 35 142zM840 352 q-18 -97 -70 -184l-10 4q-27 9 -37 14q27 50 33 109q6 36 6 53v6h-2q10 30 16 60h70v-15h276v-45zM256 180q49 8 109 8q69 -17 131 -36q-6 -3 -21 -13v2q-10 -8 -26 -14q-7 0 -15 4q-52 10 -102 10q-49 0 -72 -4q-95 -21 -119 -65q-27 4 -45 14q19 39 66 64t94 30zM1044 739 q0 -17 3 -32q-28 18 -41 38v3q0 64 39 119t100 67q6 -4 16 -14q7 -15 8 -15q4 -7 9 -10h-4q-57 0 -93.5 -49t-36.5 -107zM481 354v45h176q-1 -3 -2 -8t-2 -8q-1 -5 -2 -15t-2 -14h-168zM1260 850q-20 25 -54 39q13 0 22 8.5t11 22.5q22 -12 47 -41q17 -23 17 -31 q0 -21 -17 -21q-14 0 -22 19v-2q-1 1 -2 3t-2 3zM1094 109q-18 18 -23 36q2 0 6 -1t6 -1q19 -11 19 -18q0 -8 -8 -16zM1171 193v-7q-12 20 -24 27h2q-2 0 -2 2q24 -4 24 -22z" />
<glyph unicode="&#xa4;" horiz-adv-x="1378" d="M872 340q-135 -98 -280 -98q-158 0 -244 106l-242 -201q-12 -10 -34 -10q-20 0 -30.5 13.5t-6.5 33.5q3 18 20 35l244 203l-14 41l-15 45l-4 37l-4 49q2 25 4 33q0 3 2 15t2 15q4 17 6 23q0 15 5 20l14 50q0 1 2.5 7t5.5 13.5t4 9.5q33 74 96 150q9 10 11 12v2l-154 203 q-10 10 -6 33q3 20 20 34.5t39 14.5q24 0 33 -15l152 -196q143 98 282 98q36 0 84 -10l25 -8l41 -17q1 -1 12.5 -7.5t13.5 -8.5q22 -11 29 -18l19 -19q2 0 6 -3.5t4 -4.5h4l246 203q14 14 36 14q20 0 31.5 -14.5t7.5 -34.5q-3 -23 -18 -35l-252 -207l8 -31l17 -43 q6 -12 6 -34q14 -76 -4 -164q-4 -12 -4 -19l-17 -47q-3 -6 -12 -33q-28 -68 -94 -147q-9 -10 -13 -12l2 -4l160 -207q10 -16 4 -37q-3 -19 -20.5 -33t-38.5 -14t-29 14zM373 678q-18 -93 8 -172t94 -125q52 -39 139 -39q134 0 244 100.5t137 235.5q19 83 -1.5 158t-78.5 122 q-64 58 -155 58q-136 0 -246.5 -100.5t-140.5 -237.5zM1051 346q-5 -4 -7 -8q-11 15 -32 41t-25 31q33 42 49 73q24 37 45 84q1 1 4 9t6.5 17t6.5 13l14 43q0 16 6 31q8 50 8 88q0 40 -6 74q0 15 -8 39l2 -2q-2 6 -8 21.5t-8 21.5q-1 2 -3 8t-3 8q2 0 2 2l2 -2h4l246 203 q14 14 36 14q20 0 31.5 -14.5t7.5 -34.5q-3 -23 -18 -35l-252 -207l8 -30l17 -43q6 -12 6 -35q14 -76 -4 -164q-4 -12 -4 -19l-17 -47q-4 -8 -12 -32q-29 -70 -94 -148zM393 674q11 49 41 108q9 11 26.5 33.5t24.5 32.5q9 10 11 12v2l-4 2q47 50 86 74l2 -2q10 7 45 29 q68 30 135 30q82 0 141 -53q2 -2 11 -9.5t12 -12.5q-35 14 -82 14q-136 0 -246.5 -100.5t-140.5 -237.5q-18 -101 12 -182q-80 68 -80 192q0 30 6 68zM674 160q-145 0 -232 90q72 -29 150 -29q128 0 246 70q12 6 32 18q9 -13 28 -35.5t28 -35.5q-124 -78 -252 -78zM117 102 q3 18 20 35l211 176q42 -36 74 -53l-234 -194q-14 -11 -34 -11t-30.5 13.5t-6.5 33.5zM1116 53l-39 47q24 4 42.5 22t23.5 40q2 12 2 33l55 -72q10 -16 4 -37q-3 -19 -20.5 -33t-38.5 -14t-29 14z" />
</font>
</defs>
</svg>
